<?xml version="1.0" encoding="UTF-8" standalone="no"?>
<!DOCTYPE svg PUBLIC "-//W3C//DTD SVG 1.1//EN"
 "http://www.w3.org/Graphics/SVG/1.1/DTD/svg11.dtd">
<!-- Generated by graphviz version 9.0.0 (20230911.1827)
 -->
<!-- Title: /github/workspace/LIB/muk_lib/Memory/add_to_dptr.c Pages: 1 -->
<svg width="446pt" height="160pt"
 viewBox="0.00 0.00 446.25 160.25" xmlns="http://www.w3.org/2000/svg" xmlns:xlink="http://www.w3.org/1999/xlink">
<g id="graph0" class="graph" transform="scale(1 1) rotate(0) translate(4 156.25)">
<title>/github/workspace/LIB/muk_lib/Memory/add_to_dptr.c</title>
<!-- Node1 -->
<g id="Node000001" class="node">
<title>Node1</title>
<g id="a_Node000001"><a xlink:title=" ">
<polygon fill="#999999" stroke="#666666" points="298.12,-152.25 175.62,-152.25 175.62,-110.5 298.12,-110.5 298.12,-152.25"/>
<text text-anchor="start" x="183.62" y="-138.75" font-family="Helvetica,sans-Serif" font-size="10.00">/github/workspace/LIB</text>
<text text-anchor="start" x="183.62" y="-127.5" font-family="Helvetica,sans-Serif" font-size="10.00">/muk_lib/Memory/add_to</text>
<text text-anchor="middle" x="236.88" y="-116.25" font-family="Helvetica,sans-Serif" font-size="10.00">_dptr.c</text>
</a>
</g>
</g>
<!-- Node2 -->
<g id="Node000002" class="node">
<title>Node2</title>
<g id="a_Node000002"><a xlink:href="muk__lib_8h.html" target="_top" xlink:title=" ">
<polygon fill="white" stroke="#666666" points="222.25,-74.5 157.5,-74.5 157.5,-55.25 222.25,-55.25 222.25,-74.5"/>
<text text-anchor="middle" x="189.88" y="-61" font-family="Helvetica,sans-Serif" font-size="10.00">../muk_lib.h</text>
</a>
</g>
</g>
<!-- Node1&#45;&gt;Node2 -->
<g id="edge1_Node000001_Node000002" class="edge">
<title>Node1&#45;&gt;Node2</title>
<g id="a_edge1_Node000001_Node000002"><a xlink:title=" ">
<path fill="none" stroke="#63b8ff" d="M222.26,-110.32C216.13,-101.91 209.05,-92.2 203.08,-84"/>
<polygon fill="#63b8ff" stroke="#63b8ff" points="206.09,-82.19 197.38,-76.17 200.44,-86.31 206.09,-82.19"/>
</a>
</g>
</g>
<!-- Node8 -->
<g id="Node000008" class="node">
<title>Node8</title>
<g id="a_Node000008"><a xlink:href="types_8h.html" target="_top" xlink:title=" ">
<polygon fill="white" stroke="#666666" points="344.62,-74.5 255.12,-74.5 255.12,-55.25 344.62,-55.25 344.62,-74.5"/>
<text text-anchor="middle" x="299.88" y="-61" font-family="Helvetica,sans-Serif" font-size="10.00">../../../INC/types.h</text>
</a>
</g>
</g>
<!-- Node1&#45;&gt;Node8 -->
<g id="edge7_Node000001_Node000008" class="edge">
<title>Node1&#45;&gt;Node8</title>
<g id="a_edge7_Node000001_Node000008"><a xlink:title=" ">
<path fill="none" stroke="#63b8ff" d="M256.46,-110.32C265.04,-101.54 275,-91.34 283.22,-82.93"/>
<polygon fill="#63b8ff" stroke="#63b8ff" points="285.47,-85.63 289.96,-76.03 280.47,-80.74 285.47,-85.63"/>
</a>
</g>
</g>
<!-- Node3 -->
<g id="Node000003" class="node">
<title>Node3</title>
<g id="a_Node000003"><a xlink:title=" ">
<polygon fill="#e0e0e0" stroke="#999999" points="300.25,-19.25 253.5,-19.25 253.5,0 300.25,0 300.25,-19.25"/>
<text text-anchor="middle" x="276.88" y="-5.75" font-family="Helvetica,sans-Serif" font-size="10.00">stdlib.h</text>
</a>
</g>
</g>
<!-- Node2&#45;&gt;Node3 -->
<g id="edge2_Node000002_Node000003" class="edge">
<title>Node2&#45;&gt;Node3</title>
<g id="a_edge2_Node000002_Node000003"><a xlink:title=" ">
<path fill="none" stroke="#63b8ff" d="M204.63,-54.84C217.76,-46.81 237.2,-34.91 252.61,-25.48"/>
<polygon fill="#63b8ff" stroke="#63b8ff" points="254.05,-28.7 260.75,-20.49 250.4,-22.73 254.05,-28.7"/>
</a>
</g>
</g>
<!-- Node4 -->
<g id="Node000004" class="node">
<title>Node4</title>
<g id="a_Node000004"><a xlink:title=" ">
<polygon fill="#e0e0e0" stroke="#999999" points="49.75,-19.25 0,-19.25 0,0 49.75,0 49.75,-19.25"/>
<text text-anchor="middle" x="24.88" y="-5.75" font-family="Helvetica,sans-Serif" font-size="10.00">unistd.h</text>
</a>
</g>
</g>
<!-- Node2&#45;&gt;Node4 -->
<g id="edge3_Node000002_Node000004" class="edge">
<title>Node2&#45;&gt;Node4</title>
<g id="a_edge3_Node000002_Node000004"><a xlink:title=" ">
<path fill="none" stroke="#63b8ff" d="M161.88,-54.84C133.96,-45.83 90.96,-31.95 60.59,-22.15"/>
<polygon fill="#63b8ff" stroke="#63b8ff" points="62.06,-18.95 51.46,-19.21 59.91,-25.61 62.06,-18.95"/>
</a>
</g>
</g>
<!-- Node5 -->
<g id="Node000005" class="node">
<title>Node5</title>
<g id="a_Node000005"><a xlink:title=" ">
<polygon fill="#e0e0e0" stroke="#999999" points="112.12,-19.25 67.62,-19.25 67.62,0 112.12,0 112.12,-19.25"/>
<text text-anchor="middle" x="89.88" y="-5.75" font-family="Helvetica,sans-Serif" font-size="10.00">stdio.h</text>
</a>
</g>
</g>
<!-- Node2&#45;&gt;Node5 -->
<g id="edge4_Node000002_Node000005" class="edge">
<title>Node2&#45;&gt;Node5</title>
<g id="a_edge4_Node000002_Node000005"><a xlink:title=" ">
<path fill="none" stroke="#63b8ff" d="M172.91,-54.84C157.61,-46.69 134.84,-34.57 117.01,-25.08"/>
<polygon fill="#63b8ff" stroke="#63b8ff" points="118.73,-22.02 108.26,-20.41 115.44,-28.2 118.73,-22.02"/>
</a>
</g>
</g>
<!-- Node6 -->
<g id="Node000006" class="node">
<title>Node6</title>
<g id="a_Node000006"><a xlink:title=" ">
<polygon fill="#e0e0e0" stroke="#999999" points="172,-19.25 129.75,-19.25 129.75,0 172,0 172,-19.25"/>
<text text-anchor="middle" x="150.88" y="-5.75" font-family="Helvetica,sans-Serif" font-size="10.00">fcntl.h</text>
</a>
</g>
</g>
<!-- Node2&#45;&gt;Node6 -->
<g id="edge5_Node000002_Node000006" class="edge">
<title>Node2&#45;&gt;Node6</title>
<g id="a_edge5_Node000002_Node000006"><a xlink:title=" ">
<path fill="none" stroke="#63b8ff" d="M183.43,-55.08C178.22,-47.96 170.69,-37.68 164.18,-28.8"/>
<polygon fill="#63b8ff" stroke="#63b8ff" points="167.08,-26.83 158.35,-20.83 161.43,-30.97 167.08,-26.83"/>
</a>
</g>
</g>
<!-- Node7 -->
<g id="Node000007" class="node">
<title>Node7</title>
<g id="a_Node000007"><a xlink:title=" ">
<polygon fill="#e0e0e0" stroke="#999999" points="235.5,-19.25 190.25,-19.25 190.25,0 235.5,0 235.5,-19.25"/>
<text text-anchor="middle" x="212.88" y="-5.75" font-family="Helvetica,sans-Serif" font-size="10.00">math.h</text>
</a>
</g>
</g>
<!-- Node2&#45;&gt;Node7 -->
<g id="edge6_Node000002_Node000007" class="edge">
<title>Node2&#45;&gt;Node7</title>
<g id="a_edge6_Node000002_Node000007"><a xlink:title=" ">
<path fill="none" stroke="#63b8ff" d="M193.67,-55.08C196.62,-48.26 200.81,-38.56 204.53,-29.95"/>
<polygon fill="#63b8ff" stroke="#63b8ff" points="207.64,-31.57 208.39,-21 201.22,-28.79 207.64,-31.57"/>
</a>
</g>
</g>
<!-- Node8&#45;&gt;Node3 -->
<g id="edge9_Node000008_Node000003" class="edge">
<title>Node8&#45;&gt;Node3</title>
<g id="a_edge9_Node000008_Node000003"><a xlink:title=" ">
<path fill="none" stroke="#63b8ff" d="M296.08,-55.08C293.13,-48.26 288.94,-38.56 285.22,-29.95"/>
<polygon fill="#63b8ff" stroke="#63b8ff" points="288.53,-28.79 281.36,-21 282.11,-31.57 288.53,-28.79"/>
</a>
</g>
</g>
<!-- Node9 -->
<g id="Node000009" class="node">
<title>Node9</title>
<g id="a_Node000009"><a xlink:title=" ">
<polygon fill="#e0e0e0" stroke="#999999" points="373.38,-19.25 318.38,-19.25 318.38,0 373.38,0 373.38,-19.25"/>
<text text-anchor="middle" x="345.88" y="-5.75" font-family="Helvetica,sans-Serif" font-size="10.00">stdbool.h</text>
</a>
</g>
</g>
<!-- Node8&#45;&gt;Node9 -->
<g id="edge8_Node000008_Node000009" class="edge">
<title>Node8&#45;&gt;Node9</title>
<g id="a_edge8_Node000008_Node000009"><a xlink:title=" ">
<path fill="none" stroke="#63b8ff" d="M307.47,-55.08C313.76,-47.8 322.89,-37.23 330.67,-28.23"/>
<polygon fill="#63b8ff" stroke="#63b8ff" points="333.24,-30.61 337.12,-20.75 327.94,-26.03 333.24,-30.61"/>
</a>
</g>
</g>
<!-- Node10 -->
<g id="Node000010" class="node">
<title>Node10</title>
<g id="a_Node000010"><a xlink:title=" ">
<polygon fill="#e0e0e0" stroke="#999999" points="438.25,-19.25 391.5,-19.25 391.5,0 438.25,0 438.25,-19.25"/>
<text text-anchor="middle" x="414.88" y="-5.75" font-family="Helvetica,sans-Serif" font-size="10.00">limits.h</text>
</a>
</g>
</g>
<!-- Node8&#45;&gt;Node10 -->
<g id="edge10_Node000008_Node000010" class="edge">
<title>Node8&#45;&gt;Node10</title>
<g id="a_edge10_Node000008_Node000010"><a xlink:title=" ">
<path fill="none" stroke="#63b8ff" d="M319.38,-54.84C337.39,-46.5 364.4,-34 385.1,-24.41"/>
<polygon fill="#63b8ff" stroke="#63b8ff" points="386.29,-27.72 393.9,-20.34 383.35,-21.36 386.29,-27.72"/>
</a>
</g>
</g>
</g>
</svg>
