<?xml version="1.0" encoding="UTF-8" standalone="no"?>
<!DOCTYPE svg PUBLIC "-//W3C//DTD SVG 1.1//EN"
 "http://www.w3.org/Graphics/SVG/1.1/DTD/svg11.dtd">
<!-- Generated by graphviz version 9.0.0 (20230911.1827)
 -->
<!-- Title: add_to_dptr Pages: 1 -->
<svg width="653pt" height="138pt"
 viewBox="0.00 0.00 653.00 138.25" xmlns="http://www.w3.org/2000/svg" xmlns:xlink="http://www.w3.org/1999/xlink">
<g id="graph0" class="graph" transform="scale(1 1) rotate(0) translate(4 134.25)">
<title>add_to_dptr</title>
<!-- Node1 -->
<g id="Node000001" class="node">
<title>Node1</title>
<g id="a_Node000001"><a xlink:title=" ">
<polygon fill="#999999" stroke="#666666" points="645,-74.25 578,-74.25 578,-55 645,-55 645,-74.25"/>
<text text-anchor="middle" x="611.5" y="-60.75" font-family="Helvetica,sans-Serif" font-size="10.00">add_to_dptr</text>
</a>
</g>
</g>
<!-- Node2 -->
<g id="Node000002" class="node">
<title>Node2</title>
<g id="a_Node000002"><a xlink:href="parse__objects_8c.html#a438a08a219ba336c395096067e52bb1b" target="_top" xlink:title=" ">
<polygon fill="white" stroke="#666666" points="531.12,-130.25 452.88,-130.25 452.88,-111 531.12,-111 531.12,-130.25"/>
<text text-anchor="middle" x="492" y="-116.75" font-family="Helvetica,sans-Serif" font-size="10.00">parse_cylinder</text>
</a>
</g>
</g>
<!-- Node1&#45;&gt;Node2 -->
<g id="edge1_Node000001_Node000002" class="edge">
<title>Node1&#45;&gt;Node2</title>
<g id="a_edge1_Node000001_Node000002"><a xlink:title=" ">
<path fill="none" stroke="#63b8ff" d="M584.2,-80.47C571.65,-87.7 556.3,-96.08 542,-102.62 535.82,-105.45 529.05,-108.17 522.58,-110.6"/>
<polygon fill="#63b8ff" stroke="#63b8ff" points="585.82,-83.57 592.68,-75.5 582.28,-77.53 585.82,-83.57"/>
</a>
</g>
</g>
<!-- Node7 -->
<g id="Node000007" class="node">
<title>Node7</title>
<g id="a_Node000007"><a xlink:href="parse__objects_8c.html#a7e641794acee51578d8539e361635c47" target="_top" xlink:title=" ">
<polygon fill="white" stroke="#666666" points="526.25,-93.25 457.75,-93.25 457.75,-74 526.25,-74 526.25,-93.25"/>
<text text-anchor="middle" x="492" y="-79.75" font-family="Helvetica,sans-Serif" font-size="10.00">parse_plane</text>
</a>
</g>
</g>
<!-- Node1&#45;&gt;Node7 -->
<g id="edge6_Node000001_Node000007" class="edge">
<title>Node1&#45;&gt;Node7</title>
<g id="a_edge6_Node000001_Node000007"><a xlink:title=" ">
<path fill="none" stroke="#63b8ff" d="M566.45,-71.75C553.18,-73.89 538.83,-76.21 526.37,-78.23"/>
<polygon fill="#63b8ff" stroke="#63b8ff" points="566.96,-75.21 576.28,-70.16 565.85,-68.3 566.96,-75.21"/>
</a>
</g>
</g>
<!-- Node8 -->
<g id="Node000008" class="node">
<title>Node8</title>
<g id="a_Node000008"><a xlink:href="parse__objects_8c.html#a6ab66800bec24ca2d8c0f6c781558f65" target="_top" xlink:title=" ">
<polygon fill="white" stroke="#666666" points="529.25,-56.25 454.75,-56.25 454.75,-37 529.25,-37 529.25,-56.25"/>
<text text-anchor="middle" x="492" y="-42.75" font-family="Helvetica,sans-Serif" font-size="10.00">parse_sphere</text>
</a>
</g>
</g>
<!-- Node1&#45;&gt;Node8 -->
<g id="edge8_Node000001_Node000008" class="edge">
<title>Node1&#45;&gt;Node8</title>
<g id="a_edge8_Node000001_Node000008"><a xlink:title=" ">
<path fill="none" stroke="#63b8ff" d="M566.49,-57.88C554.37,-56.03 541.35,-54.03 529.69,-52.25"/>
<polygon fill="#63b8ff" stroke="#63b8ff" points="565.86,-61.33 576.27,-59.38 566.92,-54.41 565.86,-61.33"/>
</a>
</g>
</g>
<!-- Node9 -->
<g id="Node000009" class="node">
<title>Node9</title>
<g id="a_Node000009"><a xlink:href="ray__world__intersect_8c.html#a2e629895d43f70cc7814ef4b0c89cf0d" target="_top" xlink:title=" ">
<polygon fill="white" stroke="#666666" points="542,-19.25 442,-19.25 442,0 542,0 542,-19.25"/>
<text text-anchor="middle" x="492" y="-5.75" font-family="Helvetica,sans-Serif" font-size="10.00">ray_intersect_world</text>
</a>
</g>
</g>
<!-- Node1&#45;&gt;Node9 -->
<g id="edge10_Node000001_Node000009" class="edge">
<title>Node1&#45;&gt;Node9</title>
<g id="a_edge10_Node000001_Node000009"><a xlink:title=" ">
<path fill="none" stroke="#63b8ff" d="M583.89,-49.1C571.39,-42.11 556.15,-34.01 542,-27.62 535.8,-24.83 529.03,-22.13 522.55,-19.71"/>
<polygon fill="#63b8ff" stroke="#63b8ff" points="581.93,-52.01 592.35,-53.91 585.39,-45.93 581.93,-52.01"/>
</a>
</g>
</g>
<!-- Node3 -->
<g id="Node000003" class="node">
<title>Node3</title>
<g id="a_Node000003"><a xlink:href="parse__main_8c.html#a92aa268ea4b3d5c808364ca73d913cbe" target="_top" xlink:title=" ">
<polygon fill="white" stroke="#666666" points="406,-93.25 318,-93.25 318,-74 406,-74 406,-93.25"/>
<text text-anchor="middle" x="362" y="-79.75" font-family="Helvetica,sans-Serif" font-size="10.00">parse_func_redir</text>
</a>
</g>
</g>
<!-- Node2&#45;&gt;Node3 -->
<g id="edge2_Node000002_Node000003" class="edge">
<title>Node2&#45;&gt;Node3</title>
<g id="a_edge2_Node000002_Node000003"><a xlink:title=" ">
<path fill="none" stroke="#63b8ff" d="M445.05,-107.34C429.53,-102.86 412.46,-97.92 397.93,-93.72"/>
<polygon fill="#63b8ff" stroke="#63b8ff" points="443.99,-110.68 454.57,-110.09 445.93,-103.95 443.99,-110.68"/>
</a>
</g>
</g>
<!-- Node4 -->
<g id="Node000004" class="node">
<title>Node4</title>
<g id="a_Node000004"><a xlink:href="parse__main_8c.html#a5d7da6ab7925ffda04b676ef38880723" target="_top" xlink:title="Reading a line from the given .rt file and splitting the given line with the space (&#39; &#39;) delimiter....">
<polygon fill="white" stroke="#666666" points="282,-93.25 186.5,-93.25 186.5,-74 282,-74 282,-93.25"/>
<text text-anchor="middle" x="234.25" y="-79.75" font-family="Helvetica,sans-Serif" font-size="10.00">parse_rt_read_line</text>
</a>
</g>
</g>
<!-- Node3&#45;&gt;Node4 -->
<g id="edge3_Node000003_Node000004" class="edge">
<title>Node3&#45;&gt;Node4</title>
<g id="a_edge3_Node000003_Node000004"><a xlink:title=" ">
<path fill="none" stroke="#63b8ff" d="M306.29,-83.62C298.36,-83.62 290.25,-83.62 282.48,-83.62"/>
<polygon fill="#63b8ff" stroke="#63b8ff" points="306.21,-87.13 316.21,-83.63 306.21,-80.13 306.21,-87.13"/>
</a>
</g>
</g>
<!-- Node5 -->
<g id="Node000005" class="node">
<title>Node5</title>
<g id="a_Node000005"><a xlink:href="parse__main_8c.html#a62c4de2f960942eba61e7de12c387ae4" target="_top" xlink:title="Entry function to parsing .rt file where the file is attempted to be opened, t_parse structure is ini...">
<polygon fill="white" stroke="#666666" points="150.5,-93.25 73,-93.25 73,-74 150.5,-74 150.5,-93.25"/>
<text text-anchor="middle" x="111.75" y="-79.75" font-family="Helvetica,sans-Serif" font-size="10.00">parse_rt_main</text>
</a>
</g>
</g>
<!-- Node4&#45;&gt;Node5 -->
<g id="edge4_Node000004_Node000005" class="edge">
<title>Node4&#45;&gt;Node5</title>
<g id="a_edge4_Node000004_Node000005"><a xlink:title=" ">
<path fill="none" stroke="#63b8ff" d="M174.86,-83.62C166.69,-83.62 158.47,-83.62 150.81,-83.62"/>
<polygon fill="#63b8ff" stroke="#63b8ff" points="174.8,-87.13 184.8,-83.63 174.8,-80.13 174.8,-87.13"/>
</a>
</g>
</g>
<!-- Node6 -->
<g id="Node000006" class="node">
<title>Node6</title>
<g id="a_Node000006"><a xlink:href="mini__ray_8c.html#a0c99d968a34e803d378692bde2e3f18f" target="_top" xlink:title=" ">
<polygon fill="white" stroke="#666666" points="37,-93.25 0,-93.25 0,-74 37,-74 37,-93.25"/>
<text text-anchor="middle" x="18.5" y="-79.75" font-family="Helvetica,sans-Serif" font-size="10.00">main</text>
</a>
</g>
</g>
<!-- Node5&#45;&gt;Node6 -->
<g id="edge5_Node000005_Node000006" class="edge">
<title>Node5&#45;&gt;Node6</title>
<g id="a_edge5_Node000005_Node000006"><a xlink:title=" ">
<path fill="none" stroke="#63b8ff" d="M61.23,-83.62C52.6,-83.62 44.15,-83.62 37.14,-83.62"/>
<polygon fill="#63b8ff" stroke="#63b8ff" points="61.07,-87.13 71.07,-83.63 61.07,-80.13 61.07,-87.13"/>
</a>
</g>
</g>
<!-- Node7&#45;&gt;Node3 -->
<g id="edge7_Node000007_Node000003" class="edge">
<title>Node7&#45;&gt;Node3</title>
<g id="a_edge7_Node000007_Node000003"><a xlink:title=" ">
<path fill="none" stroke="#63b8ff" d="M445.87,-83.62C432.94,-83.62 418.87,-83.62 406.06,-83.62"/>
<polygon fill="#63b8ff" stroke="#63b8ff" points="445.86,-87.13 455.86,-83.63 445.86,-80.13 445.86,-87.13"/>
</a>
</g>
</g>
<!-- Node8&#45;&gt;Node3 -->
<g id="edge9_Node000008_Node000003" class="edge">
<title>Node8&#45;&gt;Node3</title>
<g id="a_edge9_Node000008_Node000003"><a xlink:title=" ">
<path fill="none" stroke="#63b8ff" d="M445.05,-59.91C429.53,-64.39 412.46,-69.33 397.93,-73.53"/>
<polygon fill="#63b8ff" stroke="#63b8ff" points="445.93,-63.3 454.57,-57.16 443.99,-56.57 445.93,-63.3"/>
</a>
</g>
</g>
</g>
</svg>
