<?xml version="1.0" encoding="UTF-8" standalone="no"?>
<!DOCTYPE svg PUBLIC "-//W3C//DTD SVG 1.1//EN"
 "http://www.w3.org/Graphics/SVG/1.1/DTD/svg11.dtd">
<!-- Generated by graphviz version 9.0.0 (20230911.1827)
 -->
<!-- Title: add_to_ptr Pages: 1 -->
<svg width="628pt" height="101pt"
 viewBox="0.00 0.00 627.50 101.25" xmlns="http://www.w3.org/2000/svg" xmlns:xlink="http://www.w3.org/1999/xlink">
<g id="graph0" class="graph" transform="scale(1 1) rotate(0) translate(4 97.25)">
<title>add_to_ptr</title>
<!-- Node1 -->
<g id="Node000001" class="node">
<title>Node1</title>
<g id="a_Node000001"><a xlink:title=" ">
<polygon fill="#999999" stroke="#666666" points="619.5,-56.25 557.75,-56.25 557.75,-37 619.5,-37 619.5,-56.25"/>
<text text-anchor="middle" x="588.62" y="-42.75" font-family="Helvetica,sans-Serif" font-size="10.00">add_to_ptr</text>
</a>
</g>
</g>
<!-- Node2 -->
<g id="Node000002" class="node">
<title>Node2</title>
<g id="a_Node000002"><a xlink:href="parse__camera__light_8c.html#a0b2ac9083d47f8bf5eed5fbbb5576a19" target="_top" xlink:title=" ">
<polygon fill="white" stroke="#666666" points="521.75,-93.25 442,-93.25 442,-74 521.75,-74 521.75,-93.25"/>
<text text-anchor="middle" x="481.88" y="-79.75" font-family="Helvetica,sans-Serif" font-size="10.00">parse_ambient</text>
</a>
</g>
</g>
<!-- Node1&#45;&gt;Node2 -->
<g id="edge1_Node000001_Node000002" class="edge">
<title>Node1&#45;&gt;Node2</title>
<g id="a_edge1_Node000001_Node000002"><a xlink:title=" ">
<path fill="none" stroke="#63b8ff" d="M548.16,-60.56C535.97,-64.87 522.78,-69.53 511.46,-73.53"/>
<polygon fill="#63b8ff" stroke="#63b8ff" points="549.31,-63.87 557.57,-57.24 546.98,-57.27 549.31,-63.87"/>
</a>
</g>
</g>
<!-- Node7 -->
<g id="Node000007" class="node">
<title>Node7</title>
<g id="a_Node000007"><a xlink:href="parse__camera__light_8c.html#a00b9b6a4aadecaaf341d2fc409582b39" target="_top" xlink:title=" ">
<polygon fill="white" stroke="#666666" points="520.62,-56.25 443.12,-56.25 443.12,-37 520.62,-37 520.62,-56.25"/>
<text text-anchor="middle" x="481.88" y="-42.75" font-family="Helvetica,sans-Serif" font-size="10.00">parse_camera</text>
</a>
</g>
</g>
<!-- Node1&#45;&gt;Node7 -->
<g id="edge6_Node000001_Node000007" class="edge">
<title>Node1&#45;&gt;Node7</title>
<g id="a_edge6_Node000001_Node000007"><a xlink:title=" ">
<path fill="none" stroke="#63b8ff" d="M545.98,-46.62C537.71,-46.62 529.08,-46.62 520.94,-46.62"/>
<polygon fill="#63b8ff" stroke="#63b8ff" points="545.81,-50.13 555.81,-46.63 545.81,-43.13 545.81,-50.13"/>
</a>
</g>
</g>
<!-- Node8 -->
<g id="Node000008" class="node">
<title>Node8</title>
<g id="a_Node000008"><a xlink:href="parse__camera__light_8c.html#aaa10205c0950a79dd43566074de7b0a0" target="_top" xlink:title=" ">
<polygon fill="white" stroke="#666666" points="513.5,-19.25 450.25,-19.25 450.25,0 513.5,0 513.5,-19.25"/>
<text text-anchor="middle" x="481.88" y="-5.75" font-family="Helvetica,sans-Serif" font-size="10.00">parse_light</text>
</a>
</g>
</g>
<!-- Node1&#45;&gt;Node8 -->
<g id="edge8_Node000001_Node000008" class="edge">
<title>Node1&#45;&gt;Node8</title>
<g id="a_edge8_Node000001_Node000008"><a xlink:title=" ">
<path fill="none" stroke="#63b8ff" d="M548.16,-32.69C535.97,-28.38 522.78,-23.72 511.46,-19.72"/>
<polygon fill="#63b8ff" stroke="#63b8ff" points="546.98,-35.98 557.57,-36.01 549.31,-29.38 546.98,-35.98"/>
</a>
</g>
</g>
<!-- Node3 -->
<g id="Node000003" class="node">
<title>Node3</title>
<g id="a_Node000003"><a xlink:href="parse__main_8c.html#a92aa268ea4b3d5c808364ca73d913cbe" target="_top" xlink:title=" ">
<polygon fill="white" stroke="#666666" points="406,-56.25 318,-56.25 318,-37 406,-37 406,-56.25"/>
<text text-anchor="middle" x="362" y="-42.75" font-family="Helvetica,sans-Serif" font-size="10.00">parse_func_redir</text>
</a>
</g>
</g>
<!-- Node2&#45;&gt;Node3 -->
<g id="edge2_Node000002_Node000003" class="edge">
<title>Node2&#45;&gt;Node3</title>
<g id="a_edge2_Node000002_Node000003"><a xlink:title=" ">
<path fill="none" stroke="#63b8ff" d="M437.73,-70.08C423.66,-65.66 408.29,-60.84 395.17,-56.72"/>
<polygon fill="#63b8ff" stroke="#63b8ff" points="436.63,-73.41 447.22,-73.06 438.73,-66.73 436.63,-73.41"/>
</a>
</g>
</g>
<!-- Node4 -->
<g id="Node000004" class="node">
<title>Node4</title>
<g id="a_Node000004"><a xlink:href="parse__main_8c.html#a5d7da6ab7925ffda04b676ef38880723" target="_top" xlink:title="Reading a line from the given .rt file and splitting the given line with the space (&#39; &#39;) delimiter....">
<polygon fill="white" stroke="#666666" points="282,-56.25 186.5,-56.25 186.5,-37 282,-37 282,-56.25"/>
<text text-anchor="middle" x="234.25" y="-42.75" font-family="Helvetica,sans-Serif" font-size="10.00">parse_rt_read_line</text>
</a>
</g>
</g>
<!-- Node3&#45;&gt;Node4 -->
<g id="edge3_Node000003_Node000004" class="edge">
<title>Node3&#45;&gt;Node4</title>
<g id="a_edge3_Node000003_Node000004"><a xlink:title=" ">
<path fill="none" stroke="#63b8ff" d="M306.29,-46.62C298.36,-46.62 290.25,-46.62 282.48,-46.62"/>
<polygon fill="#63b8ff" stroke="#63b8ff" points="306.21,-50.13 316.21,-46.63 306.21,-43.13 306.21,-50.13"/>
</a>
</g>
</g>
<!-- Node5 -->
<g id="Node000005" class="node">
<title>Node5</title>
<g id="a_Node000005"><a xlink:href="parse__main_8c.html#a62c4de2f960942eba61e7de12c387ae4" target="_top" xlink:title="Entry function to parsing .rt file where the file is attempted to be opened, t_parse structure is ini...">
<polygon fill="white" stroke="#666666" points="150.5,-56.25 73,-56.25 73,-37 150.5,-37 150.5,-56.25"/>
<text text-anchor="middle" x="111.75" y="-42.75" font-family="Helvetica,sans-Serif" font-size="10.00">parse_rt_main</text>
</a>
</g>
</g>
<!-- Node4&#45;&gt;Node5 -->
<g id="edge4_Node000004_Node000005" class="edge">
<title>Node4&#45;&gt;Node5</title>
<g id="a_edge4_Node000004_Node000005"><a xlink:title=" ">
<path fill="none" stroke="#63b8ff" d="M174.86,-46.62C166.69,-46.62 158.47,-46.62 150.81,-46.62"/>
<polygon fill="#63b8ff" stroke="#63b8ff" points="174.8,-50.13 184.8,-46.63 174.8,-43.13 174.8,-50.13"/>
</a>
</g>
</g>
<!-- Node6 -->
<g id="Node000006" class="node">
<title>Node6</title>
<g id="a_Node000006"><a xlink:href="mini__ray_8c.html#a0c99d968a34e803d378692bde2e3f18f" target="_top" xlink:title=" ">
<polygon fill="white" stroke="#666666" points="37,-56.25 0,-56.25 0,-37 37,-37 37,-56.25"/>
<text text-anchor="middle" x="18.5" y="-42.75" font-family="Helvetica,sans-Serif" font-size="10.00">main</text>
</a>
</g>
</g>
<!-- Node5&#45;&gt;Node6 -->
<g id="edge5_Node000005_Node000006" class="edge">
<title>Node5&#45;&gt;Node6</title>
<g id="a_edge5_Node000005_Node000006"><a xlink:title=" ">
<path fill="none" stroke="#63b8ff" d="M61.23,-46.62C52.6,-46.62 44.15,-46.62 37.14,-46.62"/>
<polygon fill="#63b8ff" stroke="#63b8ff" points="61.07,-50.13 71.07,-46.63 61.07,-43.13 61.07,-50.13"/>
</a>
</g>
</g>
<!-- Node7&#45;&gt;Node3 -->
<g id="edge7_Node000007_Node000003" class="edge">
<title>Node7&#45;&gt;Node3</title>
<g id="a_edge7_Node000007_Node000003"><a xlink:title=" ">
<path fill="none" stroke="#63b8ff" d="M431.65,-46.62C423.2,-46.62 414.48,-46.62 406.2,-46.62"/>
<polygon fill="#63b8ff" stroke="#63b8ff" points="431.42,-50.13 441.42,-46.63 431.42,-43.13 431.42,-50.13"/>
</a>
</g>
</g>
<!-- Node8&#45;&gt;Node3 -->
<g id="edge9_Node000008_Node000003" class="edge">
<title>Node8&#45;&gt;Node3</title>
<g id="a_edge9_Node000008_Node000003"><a xlink:title=" ">
<path fill="none" stroke="#63b8ff" d="M439.17,-22.72C424.65,-27.27 408.6,-32.31 395,-36.58"/>
<polygon fill="#63b8ff" stroke="#63b8ff" points="439.97,-26.13 448.46,-19.8 437.87,-19.46 439.97,-26.13"/>
</a>
</g>
</g>
</g>
</svg>
