<?xml version="1.0" encoding="UTF-8" standalone="no"?>
<!DOCTYPE svg PUBLIC "-//W3C//DTD SVG 1.1//EN"
 "http://www.w3.org/Graphics/SVG/1.1/DTD/svg11.dtd">
<!-- Generated by graphviz version 9.0.0 (20230911.1827)
 -->
<!-- Title: /github/workspace/INC/base_tuples.h Pages: 1 -->
<svg width="664pt" height="105pt"
 viewBox="0.00 0.00 663.88 105.00" xmlns="http://www.w3.org/2000/svg" xmlns:xlink="http://www.w3.org/1999/xlink">
<g id="graph0" class="graph" transform="scale(1 1) rotate(0) translate(4 101)">
<title>/github/workspace/INC/base_tuples.h</title>
<!-- Node1 -->
<g id="Node000001" class="node">
<title>Node1</title>
<g id="a_Node000001"><a xlink:title=" ">
<polygon fill="#999999" stroke="#666666" points="385.38,-97 269.62,-97 269.62,-66.5 385.38,-66.5 385.38,-97"/>
<text text-anchor="start" x="277.62" y="-83.5" font-family="Helvetica,sans-Serif" font-size="10.00">/github/workspace/INC</text>
<text text-anchor="middle" x="327.5" y="-72.25" font-family="Helvetica,sans-Serif" font-size="10.00">/base_tuples.h</text>
</a>
</g>
</g>
<!-- Node2 -->
<g id="Node000002" class="node">
<title>Node2</title>
<g id="a_Node000002"><a xlink:href="discriminant_8c.html" target="_top" xlink:title=" ">
<polygon fill="white" stroke="#666666" points="157,-30.5 0,-30.5 0,0 157,0 157,-30.5"/>
<text text-anchor="start" x="8" y="-17" font-family="Helvetica,sans-Serif" font-size="10.00">/github/workspace/SRC</text>
<text text-anchor="middle" x="78.5" y="-5.75" font-family="Helvetica,sans-Serif" font-size="10.00">/BASE/HELPERS/discriminant.c</text>
</a>
</g>
</g>
<!-- Node1&#45;&gt;Node2 -->
<g id="edge1_Node000001_Node000002" class="edge">
<title>Node1&#45;&gt;Node2</title>
<g id="a_edge1_Node000001_Node000002"><a xlink:title=" ">
<path fill="none" stroke="#63b8ff" d="M259.67,-63.18C220.61,-53.06 172.07,-40.49 135.07,-30.9"/>
<polygon fill="#63b8ff" stroke="#63b8ff" points="258.66,-66.53 269.22,-65.65 260.42,-59.76 258.66,-66.53"/>
</a>
</g>
</g>
<!-- Node3 -->
<g id="Node000003" class="node">
<title>Node3</title>
<g id="a_Node000003"><a xlink:href="tuple__dot_8c.html" target="_top" xlink:title=" ">
<polygon fill="white" stroke="#666666" points="312.25,-30.5 174.75,-30.5 174.75,0 312.25,0 312.25,-30.5"/>
<text text-anchor="start" x="182.75" y="-17" font-family="Helvetica,sans-Serif" font-size="10.00">/github/workspace/SRC</text>
<text text-anchor="middle" x="243.5" y="-5.75" font-family="Helvetica,sans-Serif" font-size="10.00">/BASE/TUPLES/tuple_dot.c</text>
</a>
</g>
</g>
<!-- Node1&#45;&gt;Node3 -->
<g id="edge2_Node000001_Node000003" class="edge">
<title>Node1&#45;&gt;Node3</title>
<g id="a_edge2_Node000001_Node000003"><a xlink:title=" ">
<path fill="none" stroke="#63b8ff" d="M299.56,-59.29C287.38,-49.94 273.43,-39.23 262.49,-30.83"/>
<polygon fill="#63b8ff" stroke="#63b8ff" points="297.18,-61.88 307.24,-65.19 301.44,-56.33 297.18,-61.88"/>
</a>
</g>
</g>
<!-- Node4 -->
<g id="Node000004" class="node">
<title>Node4</title>
<g id="a_Node000004"><a xlink:href="tuple__normalize_8c.html" target="_top" xlink:title=" ">
<polygon fill="white" stroke="#666666" points="495.12,-30.5 329.88,-30.5 329.88,0 495.12,0 495.12,-30.5"/>
<text text-anchor="start" x="337.88" y="-17" font-family="Helvetica,sans-Serif" font-size="10.00">/github/workspace/SRC</text>
<text text-anchor="middle" x="412.5" y="-5.75" font-family="Helvetica,sans-Serif" font-size="10.00">/BASE/TUPLES/tuple_normalize.c</text>
</a>
</g>
</g>
<!-- Node1&#45;&gt;Node4 -->
<g id="edge3_Node000001_Node000004" class="edge">
<title>Node1&#45;&gt;Node4</title>
<g id="a_edge3_Node000001_Node000004"><a xlink:title=" ">
<path fill="none" stroke="#63b8ff" d="M355.78,-59.29C368.1,-49.94 382.22,-39.23 393.29,-30.83"/>
<polygon fill="#63b8ff" stroke="#63b8ff" points="353.84,-56.37 347.99,-65.2 358.08,-61.94 353.84,-56.37"/>
</a>
</g>
</g>
<!-- Node5 -->
<g id="Node000005" class="node">
<title>Node5</title>
<g id="a_Node000005"><a xlink:href="tuple__sum_8c.html" target="_top" xlink:title=" ">
<polygon fill="white" stroke="#666666" points="655.88,-30.5 513.12,-30.5 513.12,0 655.88,0 655.88,-30.5"/>
<text text-anchor="start" x="521.12" y="-17" font-family="Helvetica,sans-Serif" font-size="10.00">/github/workspace/SRC</text>
<text text-anchor="middle" x="584.5" y="-5.75" font-family="Helvetica,sans-Serif" font-size="10.00">/BASE/TUPLES/tuple_sum.c</text>
</a>
</g>
</g>
<!-- Node1&#45;&gt;Node5 -->
<g id="edge4_Node000001_Node000005" class="edge">
<title>Node1&#45;&gt;Node5</title>
<g id="a_edge4_Node000001_Node000005"><a xlink:title=" ">
<path fill="none" stroke="#63b8ff" d="M396.92,-63.33C437.3,-53.19 487.61,-40.57 525.97,-30.94"/>
<polygon fill="#63b8ff" stroke="#63b8ff" points="396.13,-59.92 387.29,-65.75 397.84,-66.71 396.13,-59.92"/>
</a>
</g>
</g>
</g>
</svg>
