<?xml version="1.0" encoding="UTF-8" standalone="no"?>
<!DOCTYPE svg PUBLIC "-//W3C//DTD SVG 1.1//EN"
 "http://www.w3.org/Graphics/SVG/1.1/DTD/svg11.dtd">
<!-- Generated by graphviz version 9.0.0 (20230911.1827)
 -->
<!-- Title: matrix_multiple Pages: 1 -->
<svg width="391pt" height="82pt"
 viewBox="0.00 0.00 390.75 82.25" xmlns="http://www.w3.org/2000/svg" xmlns:xlink="http://www.w3.org/1999/xlink">
<g id="graph0" class="graph" transform="scale(1 1) rotate(0) translate(4 78.25)">
<title>matrix_multiple</title>
<!-- Node1 -->
<g id="Node000001" class="node">
<title>Node1</title>
<g id="a_Node000001"><a xlink:title=" ">
<polygon fill="#999999" stroke="#666666" points="81.25,-55.25 0,-55.25 0,-36 81.25,-36 81.25,-55.25"/>
<text text-anchor="middle" x="40.62" y="-41.75" font-family="Helvetica,sans-Serif" font-size="10.00">matrix_multiple</text>
</a>
</g>
</g>
<!-- Node2 -->
<g id="Node000002" class="node">
<title>Node2</title>
<g id="a_Node000002"><a xlink:href="errmsg_8c.html#a2fad0db9f0b078aa69ed34ccd60ad0c1" target="_top" xlink:title=" ">
<polygon fill="white" stroke="#666666" points="177.5,-74.25 131.5,-74.25 131.5,-55 177.5,-55 177.5,-74.25"/>
<text text-anchor="middle" x="154.5" y="-60.75" font-family="Helvetica,sans-Serif" font-size="10.00">errmsg</text>
</a>
</g>
</g>
<!-- Node1&#45;&gt;Node2 -->
<g id="edge1_Node000001_Node000002" class="edge">
<title>Node1&#45;&gt;Node2</title>
<g id="a_edge1_Node000001_Node000002"><a xlink:title=" ">
<path fill="none" stroke="#63b8ff" d="M81.7,-52.43C94.34,-54.58 108.15,-56.92 120.26,-58.98"/>
<polygon fill="#63b8ff" stroke="#63b8ff" points="119.31,-62.37 129.76,-60.59 120.49,-55.47 119.31,-62.37"/>
</a>
</g>
</g>
<!-- Node3 -->
<g id="Node000003" class="node">
<title>Node3</title>
<g id="a_Node000003"><a xlink:href="matrix__create_8c.html#a5291384d37d735f9c3fc33c03d2788ad" target="_top" xlink:title=" ">
<polygon fill="white" stroke="#666666" points="191.75,-37.25 117.25,-37.25 117.25,-18 191.75,-18 191.75,-37.25"/>
<text text-anchor="middle" x="154.5" y="-23.75" font-family="Helvetica,sans-Serif" font-size="10.00">matrix_create</text>
</a>
</g>
</g>
<!-- Node1&#45;&gt;Node3 -->
<g id="edge2_Node000001_Node000003" class="edge">
<title>Node1&#45;&gt;Node3</title>
<g id="a_edge2_Node000001_Node000003"><a xlink:title=" ">
<path fill="none" stroke="#63b8ff" d="M81.7,-39.18C89.54,-37.92 97.83,-36.58 105.89,-35.28"/>
<polygon fill="#63b8ff" stroke="#63b8ff" points="106.25,-38.77 115.56,-33.73 105.13,-31.86 106.25,-38.77"/>
</a>
</g>
</g>
<!-- Node4 -->
<g id="Node000004" class="node">
<title>Node4</title>
<g id="a_Node000004"><a xlink:href="free__dptr_8c.html#aaa705b6d12fb1a9a15e6103879ec0ea0" target="_top" xlink:title=" ">
<polygon fill="white" stroke="#666666" points="289.12,-56.25 234.88,-56.25 234.88,-37 289.12,-37 289.12,-56.25"/>
<text text-anchor="middle" x="262" y="-42.75" font-family="Helvetica,sans-Serif" font-size="10.00">free_dptr</text>
</a>
</g>
</g>
<!-- Node3&#45;&gt;Node4 -->
<g id="edge3_Node000003_Node000004" class="edge">
<title>Node3&#45;&gt;Node4</title>
<g id="a_edge3_Node000003_Node000004"><a xlink:title=" ">
<path fill="none" stroke="#63b8ff" d="M192.1,-34.22C202.22,-36.04 213.22,-38.02 223.39,-39.85"/>
<polygon fill="#63b8ff" stroke="#63b8ff" points="222.49,-43.25 232.95,-41.57 223.73,-36.36 222.49,-43.25"/>
</a>
</g>
</g>
<!-- Node5 -->
<g id="Node000005" class="node">
<title>Node5</title>
<g id="a_Node000005"><a xlink:href="safe__malloc_8c.html#ab8bcda0e59b6f8eab1bfd9f92de50c6c" target="_top" xlink:title=" ">
<polygon fill="white" stroke="#666666" points="296.25,-19.25 227.75,-19.25 227.75,0 296.25,0 296.25,-19.25"/>
<text text-anchor="middle" x="262" y="-5.75" font-family="Helvetica,sans-Serif" font-size="10.00">safe_malloc</text>
</a>
</g>
</g>
<!-- Node3&#45;&gt;Node5 -->
<g id="edge4_Node000003_Node000005" class="edge">
<title>Node3&#45;&gt;Node5</title>
<g id="a_edge4_Node000003_Node000005"><a xlink:title=" ">
<path fill="none" stroke="#63b8ff" d="M192.1,-21.38C199.87,-20.05 208.15,-18.64 216.18,-17.27"/>
<polygon fill="#63b8ff" stroke="#63b8ff" points="216.53,-20.76 225.8,-15.63 215.35,-13.86 216.53,-20.76"/>
</a>
</g>
</g>
<!-- Node6 -->
<g id="Node000006" class="node">
<title>Node6</title>
<g id="a_Node000006"><a xlink:href="LIBFT_2ft__bzero_8c.html#a5937ab0d08e31d0e3e4a16ec71e293a1" target="_top" xlink:title=" ">
<polygon fill="white" stroke="#666666" points="382.75,-19.25 332.25,-19.25 332.25,0 382.75,0 382.75,-19.25"/>
<text text-anchor="middle" x="357.5" y="-5.75" font-family="Helvetica,sans-Serif" font-size="10.00">ft_bzero</text>
</a>
</g>
</g>
<!-- Node5&#45;&gt;Node6 -->
<g id="edge5_Node000005_Node000006" class="edge">
<title>Node5&#45;&gt;Node6</title>
<g id="a_edge5_Node000005_Node000006"><a xlink:title=" ">
<path fill="none" stroke="#63b8ff" d="M296.49,-9.62C304.38,-9.62 312.81,-9.62 320.79,-9.62"/>
<polygon fill="#63b8ff" stroke="#63b8ff" points="320.53,-13.13 330.53,-9.63 320.53,-6.13 320.53,-13.13"/>
</a>
</g>
</g>
</g>
</svg>
