<?xml version="1.0" encoding="UTF-8" standalone="no"?>
<!DOCTYPE svg PUBLIC "-//W3C//DTD SVG 1.1//EN"
 "http://www.w3.org/Graphics/SVG/1.1/DTD/svg11.dtd">
<!-- Generated by graphviz version 9.0.0 (20230911.1827)
 -->
<!-- Title: matrix_subs Pages: 1 -->
<svg width="355pt" height="83pt"
 viewBox="0.00 0.00 354.50 83.25" xmlns="http://www.w3.org/2000/svg" xmlns:xlink="http://www.w3.org/1999/xlink">
<g id="graph0" class="graph" transform="scale(1 1) rotate(0) translate(4 79.25)">
<title>matrix_subs</title>
<!-- Node1 -->
<g id="Node000001" class="node">
<title>Node1</title>
<g id="a_Node000001"><a xlink:title=" ">
<polygon fill="#999999" stroke="#666666" points="346.5,-56.25 278,-56.25 278,-37 346.5,-37 346.5,-56.25"/>
<text text-anchor="middle" x="312.25" y="-42.75" font-family="Helvetica,sans-Serif" font-size="10.00">matrix_subs</text>
</a>
</g>
</g>
<!-- Node2 -->
<g id="Node000002" class="node">
<title>Node2</title>
<g id="a_Node000002"><a xlink:href="lighting_8c.html#ad035411c7e850248af38e7d68bb0ddd4" target="_top" xlink:title=" ">
<polygon fill="white" stroke="#666666" points="73.38,-75.25 26.62,-75.25 26.62,-56 73.38,-56 73.38,-75.25"/>
<text text-anchor="middle" x="50" y="-61.75" font-family="Helvetica,sans-Serif" font-size="10.00">lighting</text>
</a>
</g>
</g>
<!-- Node1&#45;&gt;Node2 -->
<g id="edge1_Node000001_Node000002" class="edge">
<title>Node1&#45;&gt;Node2</title>
<g id="a_edge1_Node000001_Node000002"><a xlink:title=" ">
<path fill="none" stroke="#63b8ff" d="M270.38,-59.78C261.14,-62.21 251.31,-64.37 242,-65.62 181.7,-73.75 109.71,-70.23 73.77,-67.58"/>
<polygon fill="#63b8ff" stroke="#63b8ff" points="271.13,-63.21 279.82,-57.14 269.24,-56.46 271.13,-63.21"/>
</a>
</g>
</g>
<!-- Node3 -->
<g id="Node000003" class="node">
<title>Node3</title>
<g id="a_Node000003"><a xlink:href="ray__intersect_8c.html#a20cc82316845ecb42e8e8c218ff72a73" target="_top" xlink:title=" ">
<polygon fill="white" stroke="#666666" points="242,-19.25 136,-19.25 136,0 242,0 242,-19.25"/>
<text text-anchor="middle" x="189" y="-5.75" font-family="Helvetica,sans-Serif" font-size="10.00">ray_intersect_sphere</text>
</a>
</g>
</g>
<!-- Node1&#45;&gt;Node3 -->
<g id="edge2_Node000001_Node000003" class="edge">
<title>Node1&#45;&gt;Node3</title>
<g id="a_edge2_Node000001_Node000003"><a xlink:title=" ">
<path fill="none" stroke="#63b8ff" d="M267.3,-33.21C252.71,-28.76 236.72,-23.88 223.09,-19.72"/>
<polygon fill="#63b8ff" stroke="#63b8ff" points="266.08,-36.5 276.67,-36.07 268.13,-29.81 266.08,-36.5"/>
</a>
</g>
</g>
<!-- Node5 -->
<g id="Node000005" class="node">
<title>Node5</title>
<g id="a_Node000005"><a xlink:href="reflect_8c.html#a9a14a2740fe14a6f96d7b3ef0cffeb61" target="_top" xlink:title=" ">
<polygon fill="white" stroke="#666666" points="210.12,-56.25 167.88,-56.25 167.88,-37 210.12,-37 210.12,-56.25"/>
<text text-anchor="middle" x="189" y="-42.75" font-family="Helvetica,sans-Serif" font-size="10.00">reflect</text>
</a>
</g>
</g>
<!-- Node1&#45;&gt;Node5 -->
<g id="edge4_Node000001_Node000005" class="edge">
<title>Node1&#45;&gt;Node5</title>
<g id="a_edge4_Node000001_Node000005"><a xlink:title=" ">
<path fill="none" stroke="#63b8ff" d="M266.5,-46.62C247.26,-46.62 225.73,-46.62 210.42,-46.62"/>
<polygon fill="#63b8ff" stroke="#63b8ff" points="266.28,-50.13 276.28,-46.63 266.28,-43.13 266.28,-50.13"/>
</a>
</g>
</g>
<!-- Node4 -->
<g id="Node000004" class="node">
<title>Node4</title>
<g id="a_Node000004"><a xlink:href="ray__world__intersect_8c.html#a2e629895d43f70cc7814ef4b0c89cf0d" target="_top" xlink:title=" ">
<polygon fill="white" stroke="#666666" points="100,-19.25 0,-19.25 0,0 100,0 100,-19.25"/>
<text text-anchor="middle" x="50" y="-5.75" font-family="Helvetica,sans-Serif" font-size="10.00">ray_intersect_world</text>
</a>
</g>
</g>
<!-- Node3&#45;&gt;Node4 -->
<g id="edge3_Node000003_Node000004" class="edge">
<title>Node3&#45;&gt;Node4</title>
<g id="a_edge3_Node000003_Node000004"><a xlink:title=" ">
<path fill="none" stroke="#63b8ff" d="M124.47,-9.62C116.36,-9.62 108.17,-9.62 100.33,-9.62"/>
<polygon fill="#63b8ff" stroke="#63b8ff" points="124.3,-13.13 134.3,-9.63 124.3,-6.13 124.3,-13.13"/>
</a>
</g>
</g>
<!-- Node5&#45;&gt;Node2 -->
<g id="edge5_Node000005_Node000002" class="edge">
<title>Node5&#45;&gt;Node2</title>
<g id="a_edge5_Node000005_Node000002"><a xlink:title=" ">
<path fill="none" stroke="#63b8ff" d="M156.25,-51.03C130.9,-54.54 96.01,-59.38 73.48,-62.51"/>
<polygon fill="#63b8ff" stroke="#63b8ff" points="156.57,-54.52 165.99,-49.68 155.6,-47.58 156.57,-54.52"/>
</a>
</g>
</g>
</g>
</svg>
