<?xml version="1.0" encoding="UTF-8" standalone="no"?>
<!DOCTYPE svg PUBLIC "-//W3C//DTD SVG 1.1//EN"
 "http://www.w3.org/Graphics/SVG/1.1/DTD/svg11.dtd">
<!-- Generated by graphviz version 9.0.0 (20230911.1827)
 -->
<!-- Title: prepare_computations Pages: 1 -->
<svg width="806pt" height="349pt"
 viewBox="0.00 0.00 806.25 348.95" xmlns="http://www.w3.org/2000/svg" xmlns:xlink="http://www.w3.org/1999/xlink">
<g id="graph0" class="graph" transform="scale(1 1) rotate(0) translate(4 344.95)">
<title>prepare_computations</title>
<!-- Node1 -->
<g id="Node000001" class="node">
<title>Node1</title>
<g id="a_Node000001"><a xlink:title=" ">
<polygon fill="#999999" stroke="#666666" points="112,-114.58 0,-114.58 0,-95.33 112,-95.33 112,-114.58"/>
<text text-anchor="middle" x="56" y="-101.08" font-family="Helvetica,sans-Serif" font-size="10.00">prepare_computations</text>
</a>
</g>
</g>
<!-- Node2 -->
<g id="Node000002" class="node">
<title>Node2</title>
<g id="a_Node000002"><a xlink:href="matrix__clone_8c.html#a664de98f31a1171b994283a70249628a" target="_top" xlink:title=" ">
<polygon fill="white" stroke="#666666" points="361.5,-76.58 290.75,-76.58 290.75,-57.33 361.5,-57.33 361.5,-76.58"/>
<text text-anchor="middle" x="326.12" y="-63.08" font-family="Helvetica,sans-Serif" font-size="10.00">matrix_clone</text>
</a>
</g>
</g>
<!-- Node1&#45;&gt;Node2 -->
<g id="edge1_Node000001_Node000002" class="edge">
<title>Node1&#45;&gt;Node2</title>
<g id="a_edge1_Node000001_Node000002"><a xlink:title=" ">
<path fill="none" stroke="#63b8ff" d="M100.81,-94.89C115.73,-91.71 132.54,-88.39 148,-85.95 192.38,-78.96 243.43,-73.78 279.29,-70.62"/>
<polygon fill="#63b8ff" stroke="#63b8ff" points="279.2,-74.14 288.86,-69.79 278.6,-67.16 279.2,-74.14"/>
</a>
</g>
</g>
<!-- Node5 -->
<g id="Node000005" class="node">
<title>Node5</title>
<g id="a_Node000005"><a xlink:href="safe__malloc_8c.html#ab8bcda0e59b6f8eab1bfd9f92de50c6c" target="_top" xlink:title=" ">
<polygon fill="white" stroke="#666666" points="711.75,-274.58 643.25,-274.58 643.25,-255.33 711.75,-255.33 711.75,-274.58"/>
<text text-anchor="middle" x="677.5" y="-261.08" font-family="Helvetica,sans-Serif" font-size="10.00">safe_malloc</text>
</a>
</g>
</g>
<!-- Node1&#45;&gt;Node5 -->
<g id="edge9_Node000001_Node000005" class="edge">
<title>Node1&#45;&gt;Node5</title>
<g id="a_edge9_Node000001_Node000005"><a xlink:title=" ">
<path fill="none" stroke="#63b8ff" d="M61.86,-114.79C84.66,-159.46 185.91,-340.95 325.12,-340.95 325.12,-340.95 325.12,-340.95 452.62,-340.95 527.04,-340.95 608.34,-302.84 649.45,-280.59"/>
<polygon fill="#63b8ff" stroke="#63b8ff" points="651.09,-283.68 658.15,-275.78 647.7,-277.56 651.09,-283.68"/>
</a>
</g>
</g>
<!-- Node7 -->
<g id="Node000007" class="node">
<title>Node7</title>
<g id="a_Node000007"><a xlink:href="matrix__scalar__mult_8c.html#ae585cf0ad839c7387a52c67339d5a871" target="_top" xlink:title=" ">
<polygon fill="white" stroke="#666666" points="245.75,-114.58 148,-114.58 148,-95.33 245.75,-95.33 245.75,-114.58"/>
<text text-anchor="middle" x="196.88" y="-101.08" font-family="Helvetica,sans-Serif" font-size="10.00">matrix_scalar_mult</text>
</a>
</g>
</g>
<!-- Node1&#45;&gt;Node7 -->
<g id="edge6_Node000001_Node000007" class="edge">
<title>Node1&#45;&gt;Node7</title>
<g id="a_edge6_Node000001_Node000007"><a xlink:title=" ">
<path fill="none" stroke="#63b8ff" d="M112.29,-104.95C120.11,-104.95 128.19,-104.95 136.1,-104.95"/>
<polygon fill="#63b8ff" stroke="#63b8ff" points="136,-108.45 146,-104.95 136,-101.45 136,-108.45"/>
</a>
</g>
</g>
<!-- Node8 -->
<g id="Node000008" class="node">
<title>Node8</title>
<g id="a_Node000008"><a xlink:href="ray__position_8c.html#adc4013ba57492c59d6118105b0d177a6" target="_top" xlink:title=" ">
<polygon fill="white" stroke="#666666" points="230.75,-20.58 163,-20.58 163,-1.33 230.75,-1.33 230.75,-20.58"/>
<text text-anchor="middle" x="196.88" y="-7.08" font-family="Helvetica,sans-Serif" font-size="10.00">ray_position</text>
</a>
</g>
</g>
<!-- Node1&#45;&gt;Node8 -->
<g id="edge7_Node000001_Node000008" class="edge">
<title>Node1&#45;&gt;Node8</title>
<g id="a_edge7_Node000001_Node000008"><a xlink:title=" ">
<path fill="none" stroke="#63b8ff" d="M71.86,-94.89C95.77,-78.71 143.01,-46.74 171.78,-27.26"/>
<polygon fill="#63b8ff" stroke="#63b8ff" points="173.55,-30.29 179.87,-21.79 169.62,-24.5 173.55,-30.29"/>
</a>
</g>
</g>
<!-- Node9 -->
<g id="Node000009" class="node">
<title>Node9</title>
<g id="a_Node000009"><a xlink:href="sphere__normal_8c.html#a7f90156067fc9db4452ca1b058c976e8" target="_top" xlink:title=" ">
<polygon fill="white" stroke="#666666" points="236.75,-152.58 157,-152.58 157,-133.33 236.75,-133.33 236.75,-152.58"/>
<text text-anchor="middle" x="196.88" y="-139.08" font-family="Helvetica,sans-Serif" font-size="10.00">sphere_normal</text>
</a>
</g>
</g>
<!-- Node1&#45;&gt;Node9 -->
<g id="edge10_Node000001_Node000009" class="edge">
<title>Node1&#45;&gt;Node9</title>
<g id="a_edge10_Node000001_Node000009"><a xlink:title=" ">
<path fill="none" stroke="#63b8ff" d="M93.85,-115.04C110.54,-119.6 130.48,-125.06 148.29,-129.93"/>
<polygon fill="#63b8ff" stroke="#63b8ff" points="147.3,-133.29 157.87,-132.55 149.15,-126.54 147.3,-133.29"/>
</a>
</g>
</g>
<!-- Node3 -->
<g id="Node000003" class="node">
<title>Node3</title>
<g id="a_Node000003"><a xlink:href="matrix__create_8c.html#a5291384d37d735f9c3fc33c03d2788ad" target="_top" xlink:title=" ">
<polygon fill="white" stroke="#666666" points="607.25,-161.58 532.75,-161.58 532.75,-142.33 607.25,-142.33 607.25,-161.58"/>
<text text-anchor="middle" x="570" y="-148.08" font-family="Helvetica,sans-Serif" font-size="10.00">matrix_create</text>
</a>
</g>
</g>
<!-- Node2&#45;&gt;Node3 -->
<g id="edge2_Node000002_Node000003" class="edge">
<title>Node2&#45;&gt;Node3</title>
<g id="a_edge2_Node000002_Node000003"><a xlink:title=" ">
<path fill="none" stroke="#63b8ff" d="M357.09,-56.91C392.44,-46.91 452.04,-35.93 496.75,-57.95 527.87,-73.28 549.33,-109.17 560.36,-131.9"/>
<polygon fill="#63b8ff" stroke="#63b8ff" points="557.07,-133.13 564.42,-140.76 563.43,-130.21 557.07,-133.13"/>
</a>
</g>
</g>
<!-- Node4 -->
<g id="Node000004" class="node">
<title>Node4</title>
<g id="a_Node000004"><a xlink:href="free__dptr_8c.html#aaa705b6d12fb1a9a15e6103879ec0ea0" target="_top" xlink:title=" ">
<polygon fill="white" stroke="#666666" points="704.62,-161.58 650.38,-161.58 650.38,-142.33 704.62,-142.33 704.62,-161.58"/>
<text text-anchor="middle" x="677.5" y="-148.08" font-family="Helvetica,sans-Serif" font-size="10.00">free_dptr</text>
</a>
</g>
</g>
<!-- Node3&#45;&gt;Node4 -->
<g id="edge3_Node000003_Node000004" class="edge">
<title>Node3&#45;&gt;Node4</title>
<g id="a_edge3_Node000003_Node000004"><a xlink:title=" ">
<path fill="none" stroke="#63b8ff" d="M607.6,-151.95C617.61,-151.95 628.48,-151.95 638.56,-151.95"/>
<polygon fill="#63b8ff" stroke="#63b8ff" points="638.43,-155.45 648.43,-151.95 638.42,-148.45 638.43,-155.45"/>
</a>
</g>
</g>
<!-- Node3&#45;&gt;Node5 -->
<g id="edge4_Node000003_Node000005" class="edge">
<title>Node3&#45;&gt;Node5</title>
<g id="a_edge4_Node000003_Node000005"><a xlink:title=" ">
<path fill="none" stroke="#63b8ff" d="M580.36,-161.98C598.16,-181.04 637.1,-222.75 659.58,-246.83"/>
<polygon fill="#63b8ff" stroke="#63b8ff" points="656.89,-249.08 666.28,-254 662.01,-244.3 656.89,-249.08"/>
</a>
</g>
</g>
<!-- Node6 -->
<g id="Node000006" class="node">
<title>Node6</title>
<g id="a_Node000006"><a xlink:href="LIBFT_2ft__bzero_8c.html#a5937ab0d08e31d0e3e4a16ec71e293a1" target="_top" xlink:title=" ">
<polygon fill="white" stroke="#666666" points="798.25,-274.58 747.75,-274.58 747.75,-255.33 798.25,-255.33 798.25,-274.58"/>
<text text-anchor="middle" x="773" y="-261.08" font-family="Helvetica,sans-Serif" font-size="10.00">ft_bzero</text>
</a>
</g>
</g>
<!-- Node5&#45;&gt;Node6 -->
<g id="edge5_Node000005_Node000006" class="edge">
<title>Node5&#45;&gt;Node6</title>
<g id="a_edge5_Node000005_Node000006"><a xlink:title=" ">
<path fill="none" stroke="#63b8ff" d="M711.99,-264.95C719.88,-264.95 728.31,-264.95 736.29,-264.95"/>
<polygon fill="#63b8ff" stroke="#63b8ff" points="736.03,-268.45 746.03,-264.95 736.03,-261.45 736.03,-268.45"/>
</a>
</g>
</g>
<!-- Node8&#45;&gt;Node3 -->
<g id="edge8_Node000008_Node000003" class="edge">
<title>Node8&#45;&gt;Node3</title>
<g id="a_edge8_Node000008_Node000003"><a xlink:title=" ">
<path fill="none" stroke="#63b8ff" d="M230.8,-5.74C289.1,1.72 412.29,9.42 496.75,-41.95 530.45,-62.45 551.56,-105.34 561.73,-131.09"/>
<polygon fill="#63b8ff" stroke="#63b8ff" points="558.45,-132.31 565.22,-140.46 565.01,-129.86 558.45,-132.31"/>
</a>
</g>
</g>
<!-- Node9&#45;&gt;Node2 -->
<g id="edge12_Node000009_Node000002" class="edge">
<title>Node9&#45;&gt;Node2</title>
<g id="a_edge12_Node000009_Node000002"><a xlink:title=" ">
<path fill="none" stroke="#63b8ff" d="M228.06,-132.92C234.12,-130.37 240.29,-127.37 245.75,-123.95 264.14,-112.43 264.13,-103.63 281.75,-90.95 285.87,-87.99 290.39,-85.12 294.92,-82.45"/>
<polygon fill="#63b8ff" stroke="#63b8ff" points="296.32,-85.68 303.34,-77.73 292.9,-79.57 296.32,-85.68"/>
</a>
</g>
</g>
<!-- Node10 -->
<g id="Node000010" class="node">
<title>Node10</title>
<g id="a_Node000010"><a xlink:href="matrix__free_8c.html#ab28d26aa6d34d5c2a3b83b9ee519fec6" target="_top" xlink:title=" ">
<polygon fill="white" stroke="#666666" points="483.62,-86.58 419.62,-86.58 419.62,-67.33 483.62,-67.33 483.62,-86.58"/>
<text text-anchor="middle" x="451.62" y="-73.08" font-family="Helvetica,sans-Serif" font-size="10.00">free_matrix</text>
</a>
</g>
</g>
<!-- Node9&#45;&gt;Node10 -->
<g id="edge11_Node000009_Node000010" class="edge">
<title>Node9&#45;&gt;Node10</title>
<g id="a_edge11_Node000009_Node000010"><a xlink:title=" ">
<path fill="none" stroke="#63b8ff" d="M236.54,-132.86C282.88,-120.76 360.28,-100.54 408.22,-88.03"/>
<polygon fill="#63b8ff" stroke="#63b8ff" points="408.9,-91.47 417.69,-85.55 407.13,-84.69 408.9,-91.47"/>
</a>
</g>
</g>
<!-- Node11 -->
<g id="Node000011" class="node">
<title>Node11</title>
<g id="a_Node000011"><a xlink:href="matrix__inverse_8c.html#a38c4dbf43aa6a2d976c3f77297ecd403" target="_top" xlink:title=" ">
<polygon fill="white" stroke="#666666" points="365.62,-152.58 286.62,-152.58 286.62,-133.33 365.62,-133.33 365.62,-152.58"/>
<text text-anchor="middle" x="326.12" y="-139.08" font-family="Helvetica,sans-Serif" font-size="10.00">matrix_inverse</text>
</a>
</g>
</g>
<!-- Node9&#45;&gt;Node11 -->
<g id="edge13_Node000009_Node000011" class="edge">
<title>Node9&#45;&gt;Node11</title>
<g id="a_edge13_Node000009_Node000011"><a xlink:title=" ">
<path fill="none" stroke="#63b8ff" d="M237.09,-142.95C249.06,-142.95 262.38,-142.95 274.96,-142.95"/>
<polygon fill="#63b8ff" stroke="#63b8ff" points="274.74,-146.45 284.74,-142.95 274.74,-139.45 274.74,-146.45"/>
</a>
</g>
</g>
<!-- Node13 -->
<g id="Node000013" class="node">
<title>Node13</title>
<g id="a_Node000013"><a xlink:href="matrix__multiple_8c.html#a6aa64cfb17a064fdea66fdf14a2a426e" target="_top" xlink:title=" ">
<polygon fill="white" stroke="#666666" points="366.75,-236.58 285.5,-236.58 285.5,-217.33 366.75,-217.33 366.75,-236.58"/>
<text text-anchor="middle" x="326.12" y="-223.08" font-family="Helvetica,sans-Serif" font-size="10.00">matrix_multiple</text>
</a>
</g>
</g>
<!-- Node9&#45;&gt;Node13 -->
<g id="edge18_Node000009_Node000013" class="edge">
<title>Node9&#45;&gt;Node13</title>
<g id="a_edge18_Node000009_Node000013"><a xlink:title=" ">
<path fill="none" stroke="#63b8ff" d="M208.56,-152.96C223.86,-166.88 253.29,-192.28 281.75,-208.95 283.65,-210.07 285.63,-211.14 287.66,-212.18"/>
<polygon fill="#63b8ff" stroke="#63b8ff" points="286.05,-215.3 296.59,-216.38 289.03,-208.96 286.05,-215.3"/>
</a>
</g>
</g>
<!-- Node15 -->
<g id="Node000015" class="node">
<title>Node15</title>
<g id="a_Node000015"><a xlink:href="matrix__normalize_8c.html#a35a688dc70b34d031fa58218f8bcdbdd" target="_top" xlink:title=" ">
<polygon fill="white" stroke="#666666" points="370.5,-199.58 281.75,-199.58 281.75,-180.33 370.5,-180.33 370.5,-199.58"/>
<text text-anchor="middle" x="326.12" y="-186.08" font-family="Helvetica,sans-Serif" font-size="10.00">matrix_normalize</text>
</a>
</g>
</g>
<!-- Node9&#45;&gt;Node15 -->
<g id="edge21_Node000009_Node000015" class="edge">
<title>Node9&#45;&gt;Node15</title>
<g id="a_edge21_Node000009_Node000015"><a xlink:title=" ">
<path fill="none" stroke="#63b8ff" d="M225.17,-153.04C243.29,-159.73 267.31,-168.6 287.27,-175.97"/>
<polygon fill="#63b8ff" stroke="#63b8ff" points="285.86,-179.18 296.45,-179.36 288.28,-172.61 285.86,-179.18"/>
</a>
</g>
</g>
<!-- Node17 -->
<g id="Node000017" class="node">
<title>Node17</title>
<g id="a_Node000017"><a xlink:href="matrix__transpose_8c.html#a70a4847189f00eb79dd2d8f03fd8afa6" target="_top" xlink:title=" ">
<polygon fill="white" stroke="#666666" points="496.75,-312.58 406.5,-312.58 406.5,-293.33 496.75,-293.33 496.75,-312.58"/>
<text text-anchor="middle" x="451.62" y="-299.08" font-family="Helvetica,sans-Serif" font-size="10.00">matrix_transpose</text>
</a>
</g>
</g>
<!-- Node9&#45;&gt;Node17 -->
<g id="edge23_Node000009_Node000017" class="edge">
<title>Node9&#45;&gt;Node17</title>
<g id="a_edge23_Node000009_Node000017"><a xlink:title=" ">
<path fill="none" stroke="#63b8ff" d="M203.42,-153.03C215.18,-173.5 244.61,-220.19 281.75,-245.95 315.82,-269.59 360.49,-284.1 395.33,-292.56"/>
<polygon fill="#63b8ff" stroke="#63b8ff" points="394.27,-295.9 404.8,-294.75 395.85,-289.08 394.27,-295.9"/>
</a>
</g>
</g>
<!-- Node11&#45;&gt;Node3 -->
<g id="edge15_Node000011_Node000003" class="edge">
<title>Node11&#45;&gt;Node3</title>
<g id="a_edge15_Node000011_Node000003"><a xlink:title=" ">
<path fill="none" stroke="#63b8ff" d="M365.99,-144.4C408.25,-145.97 475.82,-148.49 521.27,-150.18"/>
<polygon fill="#63b8ff" stroke="#63b8ff" points="520.97,-153.67 531.1,-150.54 521.23,-146.67 520.97,-153.67"/>
</a>
</g>
</g>
<!-- Node11&#45;&gt;Node10 -->
<g id="edge14_Node000011_Node000010" class="edge">
<title>Node11&#45;&gt;Node10</title>
<g id="a_edge14_Node000011_Node000010"><a xlink:title=" ">
<path fill="none" stroke="#63b8ff" d="M345.89,-133.01C353.6,-128.81 362.56,-123.79 370.5,-118.95 386.93,-108.96 389.51,-103.96 406.5,-94.95 408.7,-93.79 410.99,-92.65 413.32,-91.54"/>
<polygon fill="#63b8ff" stroke="#63b8ff" points="414.53,-94.83 422.25,-87.58 411.69,-88.44 414.53,-94.83"/>
</a>
</g>
</g>
<!-- Node12 -->
<g id="Node000012" class="node">
<title>Node12</title>
<g id="a_Node000012"><a xlink:href="matrix__identity_8c.html#a841c87975e3b38adb536d63ec35456e5" target="_top" xlink:title="Function that creates an identity matrix of size n 1 0 0 0 0 1 0 0 0 0 1 0 0 0 0 1.">
<polygon fill="white" stroke="#666666" points="490.75,-123.58 412.5,-123.58 412.5,-104.33 490.75,-104.33 490.75,-123.58"/>
<text text-anchor="middle" x="451.62" y="-110.08" font-family="Helvetica,sans-Serif" font-size="10.00">matrix_identity</text>
</a>
</g>
</g>
<!-- Node11&#45;&gt;Node12 -->
<g id="edge16_Node000011_Node000012" class="edge">
<title>Node11&#45;&gt;Node12</title>
<g id="a_edge16_Node000011_Node000012"><a xlink:title=" ">
<path fill="none" stroke="#63b8ff" d="M365.86,-133.86C377.01,-131.24 389.33,-128.35 401.04,-125.6"/>
<polygon fill="#63b8ff" stroke="#63b8ff" points="401.62,-129.06 410.55,-123.36 400.02,-122.24 401.62,-129.06"/>
</a>
</g>
</g>
<!-- Node12&#45;&gt;Node3 -->
<g id="edge17_Node000012_Node000003" class="edge">
<title>Node12&#45;&gt;Node3</title>
<g id="a_edge17_Node000012_Node000003"><a xlink:title=" ">
<path fill="none" stroke="#63b8ff" d="M483.51,-124.04C497.03,-128.45 513.09,-133.7 527.63,-138.44"/>
<polygon fill="#63b8ff" stroke="#63b8ff" points="526.35,-141.71 536.94,-141.48 528.52,-135.05 526.35,-141.71"/>
</a>
</g>
</g>
<!-- Node13&#45;&gt;Node3 -->
<g id="edge20_Node000013_Node000003" class="edge">
<title>Node13&#45;&gt;Node3</title>
<g id="a_edge20_Node000013_Node000003"><a xlink:title=" ">
<path fill="none" stroke="#63b8ff" d="M349.88,-236.99C383.76,-250.34 448.64,-269.66 496.75,-245.95 527.87,-230.62 549.33,-194.74 560.36,-172.01"/>
<polygon fill="#63b8ff" stroke="#63b8ff" points="563.43,-173.7 564.42,-163.15 557.07,-170.78 563.43,-173.7"/>
</a>
</g>
</g>
<!-- Node14 -->
<g id="Node000014" class="node">
<title>Node14</title>
<g id="a_Node000014"><a xlink:href="errmsg_8c.html#a2fad0db9f0b078aa69ed34ccd60ad0c1" target="_top" xlink:title=" ">
<polygon fill="white" stroke="#666666" points="474.62,-236.58 428.62,-236.58 428.62,-217.33 474.62,-217.33 474.62,-236.58"/>
<text text-anchor="middle" x="451.62" y="-223.08" font-family="Helvetica,sans-Serif" font-size="10.00">errmsg</text>
</a>
</g>
</g>
<!-- Node13&#45;&gt;Node14 -->
<g id="edge19_Node000013_Node000014" class="edge">
<title>Node13&#45;&gt;Node14</title>
<g id="a_edge19_Node000013_Node000014"><a xlink:title=" ">
<path fill="none" stroke="#63b8ff" d="M367.22,-226.95C383.39,-226.95 401.82,-226.95 417.23,-226.95"/>
<polygon fill="#63b8ff" stroke="#63b8ff" points="416.84,-230.45 426.84,-226.95 416.84,-223.45 416.84,-230.45"/>
</a>
</g>
</g>
<!-- Node16 -->
<g id="Node000016" class="node">
<title>Node16</title>
<g id="a_Node000016"><a xlink:href="matrix__length_8c.html#a17fc3dee2a35d639486d28c848d3bc82" target="_top" xlink:title=" ">
<polygon fill="white" stroke="#666666" points="488.5,-199.58 414.75,-199.58 414.75,-180.33 488.5,-180.33 488.5,-199.58"/>
<text text-anchor="middle" x="451.62" y="-186.08" font-family="Helvetica,sans-Serif" font-size="10.00">matrix_length</text>
</a>
</g>
</g>
<!-- Node15&#45;&gt;Node16 -->
<g id="edge22_Node000015_Node000016" class="edge">
<title>Node15&#45;&gt;Node16</title>
<g id="a_edge22_Node000015_Node000016"><a xlink:title=" ">
<path fill="none" stroke="#63b8ff" d="M370.67,-189.95C381.17,-189.95 392.45,-189.95 403.13,-189.95"/>
<polygon fill="#63b8ff" stroke="#63b8ff" points="402.9,-193.45 412.9,-189.95 402.9,-186.45 402.9,-193.45"/>
</a>
</g>
</g>
<!-- Node17&#45;&gt;Node3 -->
<g id="edge24_Node000017_Node000003" class="edge">
<title>Node17&#45;&gt;Node3</title>
<g id="a_edge24_Node000017_Node000003"><a xlink:title=" ">
<path fill="none" stroke="#63b8ff" d="M476.7,-292.94C483.71,-289.25 491.02,-284.57 496.75,-278.95 528.45,-247.85 550.59,-199.88 561.41,-172.67"/>
<polygon fill="#63b8ff" stroke="#63b8ff" points="564.62,-174.08 564.93,-163.49 558.08,-171.58 564.62,-174.08"/>
</a>
</g>
</g>
</g>
</svg>
