<?xml version="1.0" encoding="UTF-8" standalone="no"?>
<!DOCTYPE svg PUBLIC "-//W3C//DTD SVG 1.1//EN"
 "http://www.w3.org/Graphics/SVG/1.1/DTD/svg11.dtd">
<!-- Generated by graphviz version 9.0.0 (20230911.1827)
 -->
<!-- Title: matrix_multiple Pages: 1 -->
<svg width="489pt" height="64pt"
 viewBox="0.00 0.00 489.00 64.25" xmlns="http://www.w3.org/2000/svg" xmlns:xlink="http://www.w3.org/1999/xlink">
<g id="graph0" class="graph" transform="scale(1 1) rotate(0) translate(4 60.25)">
<title>matrix_multiple</title>
<!-- Node1 -->
<g id="Node000001" class="node">
<title>Node1</title>
<g id="a_Node000001"><a xlink:title=" ">
<polygon fill="#999999" stroke="#666666" points="481,-37.25 399.75,-37.25 399.75,-18 481,-18 481,-37.25"/>
<text text-anchor="middle" x="440.38" y="-23.75" font-family="Helvetica,sans-Serif" font-size="10.00">matrix_multiple</text>
</a>
</g>
</g>
<!-- Node2 -->
<g id="Node000002" class="node">
<title>Node2</title>
<g id="a_Node000002"><a xlink:href="ray__transform_8c.html#a4b22c1091f5143dc209773a18fd27f15" target="_top" xlink:title=" ">
<polygon fill="white" stroke="#666666" points="361.5,-56.25 286.25,-56.25 286.25,-37 361.5,-37 361.5,-56.25"/>
<text text-anchor="middle" x="323.88" y="-42.75" font-family="Helvetica,sans-Serif" font-size="10.00">ray_transform</text>
</a>
</g>
</g>
<!-- Node1&#45;&gt;Node2 -->
<g id="edge1_Node000001_Node000002" class="edge">
<title>Node1&#45;&gt;Node2</title>
<g id="a_edge1_Node000001_Node000002"><a xlink:title=" ">
<path fill="none" stroke="#63b8ff" d="M388.18,-36.12C379.23,-37.6 370.09,-39.12 361.64,-40.52"/>
<polygon fill="#63b8ff" stroke="#63b8ff" points="388.54,-39.61 397.84,-34.52 387.4,-32.7 388.54,-39.61"/>
</a>
</g>
</g>
<!-- Node5 -->
<g id="Node000005" class="node">
<title>Node5</title>
<g id="a_Node000005"><a xlink:href="sphere__normal_8c.html#a7f90156067fc9db4452ca1b058c976e8" target="_top" xlink:title=" ">
<polygon fill="white" stroke="#666666" points="363.75,-19.25 284,-19.25 284,0 363.75,0 363.75,-19.25"/>
<text text-anchor="middle" x="323.88" y="-5.75" font-family="Helvetica,sans-Serif" font-size="10.00">sphere_normal</text>
</a>
</g>
</g>
<!-- Node1&#45;&gt;Node5 -->
<g id="edge4_Node000001_Node000005" class="edge">
<title>Node1&#45;&gt;Node5</title>
<g id="a_edge4_Node000001_Node000005"><a xlink:title=" ">
<path fill="none" stroke="#63b8ff" d="M388.05,-19.56C379.95,-18.28 371.7,-16.99 363.93,-15.77"/>
<polygon fill="#63b8ff" stroke="#63b8ff" points="387.41,-23 397.83,-21.09 388.5,-16.08 387.41,-23"/>
</a>
</g>
</g>
<!-- Node3 -->
<g id="Node000003" class="node">
<title>Node3</title>
<g id="a_Node000003"><a xlink:href="ray__intersect_8c.html#a20cc82316845ecb42e8e8c218ff72a73" target="_top" xlink:title=" ">
<polygon fill="white" stroke="#666666" points="245,-56.25 139,-56.25 139,-37 245,-37 245,-56.25"/>
<text text-anchor="middle" x="192" y="-42.75" font-family="Helvetica,sans-Serif" font-size="10.00">ray_intersect_sphere</text>
</a>
</g>
</g>
<!-- Node2&#45;&gt;Node3 -->
<g id="edge2_Node000002_Node000003" class="edge">
<title>Node2&#45;&gt;Node3</title>
<g id="a_edge2_Node000002_Node000003"><a xlink:title=" ">
<path fill="none" stroke="#63b8ff" d="M274.7,-46.62C265.18,-46.62 255.13,-46.62 245.47,-46.62"/>
<polygon fill="#63b8ff" stroke="#63b8ff" points="274.49,-50.13 284.49,-46.63 274.49,-43.13 274.49,-50.13"/>
</a>
</g>
</g>
<!-- Node4 -->
<g id="Node000004" class="node">
<title>Node4</title>
<g id="a_Node000004"><a xlink:href="ray__world__intersect_8c.html#a2e629895d43f70cc7814ef4b0c89cf0d" target="_top" xlink:title=" ">
<polygon fill="white" stroke="#666666" points="100,-56.25 0,-56.25 0,-37 100,-37 100,-56.25"/>
<text text-anchor="middle" x="50" y="-42.75" font-family="Helvetica,sans-Serif" font-size="10.00">ray_intersect_world</text>
</a>
</g>
</g>
<!-- Node3&#45;&gt;Node4 -->
<g id="edge3_Node000003_Node000004" class="edge">
<title>Node3&#45;&gt;Node4</title>
<g id="a_edge3_Node000003_Node000004"><a xlink:title=" ">
<path fill="none" stroke="#63b8ff" d="M127.48,-46.62C118.39,-46.62 109.15,-46.62 100.39,-46.62"/>
<polygon fill="#63b8ff" stroke="#63b8ff" points="127.36,-50.13 137.36,-46.63 127.36,-43.13 127.36,-50.13"/>
</a>
</g>
</g>
<!-- Node6 -->
<g id="Node000006" class="node">
<title>Node6</title>
<g id="a_Node000006"><a xlink:href="prepare__computations_8c.html#a260bb84a41e41fe52951d598804fb2fe" target="_top" xlink:title=" ">
<polygon fill="white" stroke="#666666" points="248,-19.25 136,-19.25 136,0 248,0 248,-19.25"/>
<text text-anchor="middle" x="192" y="-5.75" font-family="Helvetica,sans-Serif" font-size="10.00">prepare_computations</text>
</a>
</g>
</g>
<!-- Node5&#45;&gt;Node6 -->
<g id="edge5_Node000005_Node000006" class="edge">
<title>Node5&#45;&gt;Node6</title>
<g id="a_edge5_Node000005_Node000006"><a xlink:title=" ">
<path fill="none" stroke="#63b8ff" d="M272.08,-9.62C264.34,-9.62 256.31,-9.62 248.48,-9.62"/>
<polygon fill="#63b8ff" stroke="#63b8ff" points="272.04,-13.13 282.04,-9.63 272.04,-6.13 272.04,-13.13"/>
</a>
</g>
</g>
</g>
</svg>
