<?xml version="1.0" encoding="UTF-8" standalone="no"?>
<!DOCTYPE svg PUBLIC "-//W3C//DTD SVG 1.1//EN"
 "http://www.w3.org/Graphics/SVG/1.1/DTD/svg11.dtd">
<!-- Generated by graphviz version 9.0.0 (20230911.1827)
 -->
<!-- Title: matrix_create Pages: 1 -->
<svg width="274pt" height="64pt"
 viewBox="0.00 0.00 273.50 64.25" xmlns="http://www.w3.org/2000/svg" xmlns:xlink="http://www.w3.org/1999/xlink">
<g id="graph0" class="graph" transform="scale(1 1) rotate(0) translate(4 60.25)">
<title>matrix_create</title>
<!-- Node1 -->
<g id="Node000001" class="node">
<title>Node1</title>
<g id="a_Node000001"><a xlink:title=" ">
<polygon fill="#999999" stroke="#666666" points="74.5,-37.25 0,-37.25 0,-18 74.5,-18 74.5,-37.25"/>
<text text-anchor="middle" x="37.25" y="-23.75" font-family="Helvetica,sans-Serif" font-size="10.00">matrix_create</text>
</a>
</g>
</g>
<!-- Node2 -->
<g id="Node000002" class="node">
<title>Node2</title>
<g id="a_Node000002"><a xlink:href="free__dptr_8c.html#aaa705b6d12fb1a9a15e6103879ec0ea0" target="_top" xlink:title=" ">
<polygon fill="white" stroke="#666666" points="171.88,-56.25 117.62,-56.25 117.62,-37 171.88,-37 171.88,-56.25"/>
<text text-anchor="middle" x="144.75" y="-42.75" font-family="Helvetica,sans-Serif" font-size="10.00">free_dptr</text>
</a>
</g>
</g>
<!-- Node1&#45;&gt;Node2 -->
<g id="edge1_Node000001_Node000002" class="edge">
<title>Node1&#45;&gt;Node2</title>
<g id="a_edge1_Node000001_Node000002"><a xlink:title=" ">
<path fill="none" stroke="#63b8ff" d="M74.85,-34.22C84.97,-36.04 95.97,-38.02 106.14,-39.85"/>
<polygon fill="#63b8ff" stroke="#63b8ff" points="105.24,-43.25 115.7,-41.57 106.48,-36.36 105.24,-43.25"/>
</a>
</g>
</g>
<!-- Node3 -->
<g id="Node000003" class="node">
<title>Node3</title>
<g id="a_Node000003"><a xlink:href="safe__malloc_8c.html#ab8bcda0e59b6f8eab1bfd9f92de50c6c" target="_top" xlink:title=" ">
<polygon fill="white" stroke="#666666" points="179,-19.25 110.5,-19.25 110.5,0 179,0 179,-19.25"/>
<text text-anchor="middle" x="144.75" y="-5.75" font-family="Helvetica,sans-Serif" font-size="10.00">safe_malloc</text>
</a>
</g>
</g>
<!-- Node1&#45;&gt;Node3 -->
<g id="edge2_Node000001_Node000003" class="edge">
<title>Node1&#45;&gt;Node3</title>
<g id="a_edge2_Node000001_Node000003"><a xlink:title=" ">
<path fill="none" stroke="#63b8ff" d="M74.85,-21.38C82.62,-20.05 90.9,-18.64 98.93,-17.27"/>
<polygon fill="#63b8ff" stroke="#63b8ff" points="99.28,-20.76 108.55,-15.63 98.1,-13.86 99.28,-20.76"/>
</a>
</g>
</g>
<!-- Node4 -->
<g id="Node000004" class="node">
<title>Node4</title>
<g id="a_Node000004"><a xlink:href="LIBFT_2ft__bzero_8c.html#a5937ab0d08e31d0e3e4a16ec71e293a1" target="_top" xlink:title=" ">
<polygon fill="white" stroke="#666666" points="265.5,-19.25 215,-19.25 215,0 265.5,0 265.5,-19.25"/>
<text text-anchor="middle" x="240.25" y="-5.75" font-family="Helvetica,sans-Serif" font-size="10.00">ft_bzero</text>
</a>
</g>
</g>
<!-- Node3&#45;&gt;Node4 -->
<g id="edge3_Node000003_Node000004" class="edge">
<title>Node3&#45;&gt;Node4</title>
<g id="a_edge3_Node000003_Node000004"><a xlink:title=" ">
<path fill="none" stroke="#63b8ff" d="M179.24,-9.62C187.13,-9.62 195.56,-9.62 203.54,-9.62"/>
<polygon fill="#63b8ff" stroke="#63b8ff" points="203.28,-13.13 213.28,-9.63 203.28,-6.13 203.28,-13.13"/>
</a>
</g>
</g>
</g>
</svg>
