<?xml version="1.0" encoding="UTF-8" standalone="no"?>
<!DOCTYPE svg PUBLIC "-//W3C//DTD SVG 1.1//EN"
 "http://www.w3.org/Graphics/SVG/1.1/DTD/svg11.dtd">
<!-- Generated by graphviz version 9.0.0 (20230911.1827)
 -->
<!-- Title: /github/workspace/INC/base_matrices.h Pages: 1 -->
<svg width="5689pt" height="116pt"
 viewBox="0.00 0.00 5689.00 116.25" xmlns="http://www.w3.org/2000/svg" xmlns:xlink="http://www.w3.org/1999/xlink">
<g id="graph0" class="graph" transform="scale(1 1) rotate(0) translate(4 112.25)">
<title>/github/workspace/INC/base_matrices.h</title>
<!-- Node1 -->
<g id="Node000001" class="node">
<title>Node1</title>
<g id="a_Node000001"><a xlink:title=" ">
<polygon fill="#999999" stroke="#666666" points="2742.38,-108.25 2626.62,-108.25 2626.62,-77.75 2742.38,-77.75 2742.38,-108.25"/>
<text text-anchor="start" x="2634.62" y="-94.75" font-family="Helvetica,sans-Serif" font-size="10.00">/github/workspace/INC</text>
<text text-anchor="middle" x="2684.5" y="-83.5" font-family="Helvetica,sans-Serif" font-size="10.00">/base_matrices.h</text>
</a>
</g>
</g>
<!-- Node2 -->
<g id="Node000002" class="node">
<title>Node2</title>
<g id="a_Node000002"><a xlink:href="discriminant_8c.html" target="_top" xlink:title=" ">
<polygon fill="white" stroke="#666666" points="157,-36.12 0,-36.12 0,-5.62 157,-5.62 157,-36.12"/>
<text text-anchor="start" x="8" y="-22.62" font-family="Helvetica,sans-Serif" font-size="10.00">/github/workspace/SRC</text>
<text text-anchor="middle" x="78.5" y="-11.38" font-family="Helvetica,sans-Serif" font-size="10.00">/BASE/HELPERS/discriminant.c</text>
</a>
</g>
</g>
<!-- Node1&#45;&gt;Node2 -->
<g id="edge1_Node000001_Node000002" class="edge">
<title>Node1&#45;&gt;Node2</title>
<g id="a_edge1_Node000001_Node000002"><a xlink:title=" ">
<path fill="none" stroke="#63b8ff" d="M2614.96,-91.46C2234.62,-88.41 414.12,-72.3 165.5,-41.75 155.66,-40.54 145.3,-38.69 135.3,-36.6"/>
<polygon fill="#63b8ff" stroke="#63b8ff" points="2614.78,-94.96 2624.81,-91.54 2614.83,-87.96 2614.78,-94.96"/>
</a>
</g>
</g>
<!-- Node3 -->
<g id="Node000003" class="node">
<title>Node3</title>
<g id="a_Node000003"><a xlink:href="prepare__computations_8c.html" target="_top" xlink:title=" ">
<polygon fill="white" stroke="#666666" points="304.12,-41.75 174.88,-41.75 174.88,0 304.12,0 304.12,-41.75"/>
<text text-anchor="start" x="182.88" y="-28.25" font-family="Helvetica,sans-Serif" font-size="10.00">/github/workspace/SRC</text>
<text text-anchor="start" x="182.88" y="-17" font-family="Helvetica,sans-Serif" font-size="10.00">/BASE/HELPERS/prepare</text>
<text text-anchor="middle" x="239.5" y="-5.75" font-family="Helvetica,sans-Serif" font-size="10.00">_computations.c</text>
</a>
</g>
</g>
<!-- Node1&#45;&gt;Node3 -->
<g id="edge2_Node000001_Node000003" class="edge">
<title>Node1&#45;&gt;Node3</title>
<g id="a_edge2_Node000001_Node000003"><a xlink:title=" ">
<path fill="none" stroke="#63b8ff" d="M2614.67,-91.52C2247.23,-88.88 545.98,-74.94 313.5,-41.75 310.47,-41.32 307.39,-40.8 304.29,-40.22"/>
<polygon fill="#63b8ff" stroke="#63b8ff" points="2614.62,-95.02 2624.65,-91.59 2614.67,-88.02 2614.62,-95.02"/>
</a>
</g>
</g>
<!-- Node4 -->
<g id="Node000004" class="node">
<title>Node4</title>
<g id="a_Node000004"><a xlink:href="matrix__clone_8c.html" target="_top" xlink:title=" ">
<polygon fill="white" stroke="#666666" points="450.38,-41.75 322.62,-41.75 322.62,0 450.38,0 450.38,-41.75"/>
<text text-anchor="start" x="330.62" y="-28.25" font-family="Helvetica,sans-Serif" font-size="10.00">/github/workspace/SRC</text>
<text text-anchor="start" x="330.62" y="-17" font-family="Helvetica,sans-Serif" font-size="10.00">/BASE/MATRICES/matrix</text>
<text text-anchor="middle" x="386.5" y="-5.75" font-family="Helvetica,sans-Serif" font-size="10.00">_clone.c</text>
</a>
</g>
</g>
<!-- Node1&#45;&gt;Node4 -->
<g id="edge3_Node000001_Node000004" class="edge">
<title>Node1&#45;&gt;Node4</title>
<g id="a_edge3_Node000001_Node000004"><a xlink:title=" ">
<path fill="none" stroke="#63b8ff" d="M2615.01,-91.44C2262.13,-88.44 676.77,-73.3 459.5,-41.75 456.64,-41.33 453.73,-40.84 450.81,-40.29"/>
<polygon fill="#63b8ff" stroke="#63b8ff" points="2614.77,-94.93 2624.8,-91.52 2614.83,-87.93 2614.77,-94.93"/>
</a>
</g>
</g>
<!-- Node5 -->
<g id="Node000005" class="node">
<title>Node5</title>
<g id="a_Node000005"><a xlink:href="matrix__compare_8c.html" target="_top" xlink:title=" ">
<polygon fill="white" stroke="#666666" points="596.38,-41.75 468.62,-41.75 468.62,0 596.38,0 596.38,-41.75"/>
<text text-anchor="start" x="476.62" y="-28.25" font-family="Helvetica,sans-Serif" font-size="10.00">/github/workspace/SRC</text>
<text text-anchor="start" x="476.62" y="-17" font-family="Helvetica,sans-Serif" font-size="10.00">/BASE/MATRICES/matrix</text>
<text text-anchor="middle" x="532.5" y="-5.75" font-family="Helvetica,sans-Serif" font-size="10.00">_compare.c</text>
</a>
</g>
</g>
<!-- Node1&#45;&gt;Node5 -->
<g id="edge4_Node000001_Node000005" class="edge">
<title>Node1&#45;&gt;Node5</title>
<g id="a_edge4_Node000001_Node000005"><a xlink:title=" ">
<path fill="none" stroke="#63b8ff" d="M2614.98,-91.32C2276.32,-87.86 807.57,-71.26 605.5,-41.75 602.64,-41.33 599.73,-40.84 596.81,-40.29"/>
<polygon fill="#63b8ff" stroke="#63b8ff" points="2614.76,-94.82 2624.8,-91.42 2614.83,-87.82 2614.76,-94.82"/>
</a>
</g>
</g>
<!-- Node6 -->
<g id="Node000006" class="node">
<title>Node6</title>
<g id="a_Node000006"><a xlink:href="matrix__create_8c.html" target="_top" xlink:title=" ">
<polygon fill="white" stroke="#666666" points="742.38,-41.75 614.62,-41.75 614.62,0 742.38,0 742.38,-41.75"/>
<text text-anchor="start" x="622.62" y="-28.25" font-family="Helvetica,sans-Serif" font-size="10.00">/github/workspace/SRC</text>
<text text-anchor="start" x="622.62" y="-17" font-family="Helvetica,sans-Serif" font-size="10.00">/BASE/MATRICES/matrix</text>
<text text-anchor="middle" x="678.5" y="-5.75" font-family="Helvetica,sans-Serif" font-size="10.00">_create.c</text>
</a>
</g>
</g>
<!-- Node1&#45;&gt;Node6 -->
<g id="edge5_Node000001_Node000006" class="edge">
<title>Node1&#45;&gt;Node6</title>
<g id="a_edge5_Node000001_Node000006"><a xlink:title=" ">
<path fill="none" stroke="#63b8ff" d="M2615.41,-92.42C2315.14,-93.91 1122.05,-96.2 751.5,-41.75 748.64,-41.33 745.73,-40.84 742.81,-40.28"/>
<polygon fill="#63b8ff" stroke="#63b8ff" points="2615.05,-95.92 2625.03,-92.37 2615.02,-88.92 2615.05,-95.92"/>
</a>
</g>
</g>
<!-- Node7 -->
<g id="Node000007" class="node">
<title>Node7</title>
<g id="a_Node000007"><a xlink:href="matrix__determinants_8c.html" target="_top" xlink:title=" ">
<polygon fill="white" stroke="#666666" points="888.38,-41.75 760.62,-41.75 760.62,0 888.38,0 888.38,-41.75"/>
<text text-anchor="start" x="768.62" y="-28.25" font-family="Helvetica,sans-Serif" font-size="10.00">/github/workspace/SRC</text>
<text text-anchor="start" x="768.62" y="-17" font-family="Helvetica,sans-Serif" font-size="10.00">/BASE/MATRICES/matrix</text>
<text text-anchor="middle" x="824.5" y="-5.75" font-family="Helvetica,sans-Serif" font-size="10.00">_determinants.c</text>
</a>
</g>
</g>
<!-- Node1&#45;&gt;Node7 -->
<g id="edge6_Node000001_Node000007" class="edge">
<title>Node1&#45;&gt;Node7</title>
<g id="a_edge6_Node000001_Node000007"><a xlink:title=" ">
<path fill="none" stroke="#63b8ff" d="M2615.1,-92.25C2328.69,-92.94 1237.8,-92.12 897.5,-41.75 894.64,-41.33 891.74,-40.83 888.81,-40.27"/>
<polygon fill="#63b8ff" stroke="#63b8ff" points="2615.03,-95.75 2625.03,-92.22 2615.02,-88.75 2615.03,-95.75"/>
</a>
</g>
</g>
<!-- Node8 -->
<g id="Node000008" class="node">
<title>Node8</title>
<g id="a_Node000008"><a xlink:href="matrix__free_8c.html" target="_top" xlink:title=" ">
<polygon fill="white" stroke="#666666" points="1034.38,-41.75 906.62,-41.75 906.62,0 1034.38,0 1034.38,-41.75"/>
<text text-anchor="start" x="914.62" y="-28.25" font-family="Helvetica,sans-Serif" font-size="10.00">/github/workspace/SRC</text>
<text text-anchor="start" x="914.62" y="-17" font-family="Helvetica,sans-Serif" font-size="10.00">/BASE/MATRICES/matrix</text>
<text text-anchor="middle" x="970.5" y="-5.75" font-family="Helvetica,sans-Serif" font-size="10.00">_free.c</text>
</a>
</g>
</g>
<!-- Node1&#45;&gt;Node8 -->
<g id="edge7_Node000001_Node000008" class="edge">
<title>Node1&#45;&gt;Node8</title>
<g id="a_edge7_Node000001_Node000008"><a xlink:title=" ">
<path fill="none" stroke="#63b8ff" d="M2615,-92.05C2343.43,-91.89 1353.72,-88.07 1043.5,-41.75 1040.64,-41.32 1037.74,-40.82 1034.81,-40.27"/>
<polygon fill="#63b8ff" stroke="#63b8ff" points="2614.74,-95.55 2624.74,-92.05 2614.74,-88.55 2614.74,-95.55"/>
</a>
</g>
</g>
<!-- Node9 -->
<g id="Node000009" class="node">
<title>Node9</title>
<g id="a_Node000009"><a xlink:href="matrix__identity_8c.html" target="_top" xlink:title=" ">
<polygon fill="white" stroke="#666666" points="1180.38,-41.75 1052.62,-41.75 1052.62,0 1180.38,0 1180.38,-41.75"/>
<text text-anchor="start" x="1060.62" y="-28.25" font-family="Helvetica,sans-Serif" font-size="10.00">/github/workspace/SRC</text>
<text text-anchor="start" x="1060.62" y="-17" font-family="Helvetica,sans-Serif" font-size="10.00">/BASE/MATRICES/matrix</text>
<text text-anchor="middle" x="1116.5" y="-5.75" font-family="Helvetica,sans-Serif" font-size="10.00">_identity.c</text>
</a>
</g>
</g>
<!-- Node1&#45;&gt;Node9 -->
<g id="edge8_Node000001_Node000009" class="edge">
<title>Node1&#45;&gt;Node9</title>
<g id="a_edge8_Node000001_Node000009"><a xlink:title=" ">
<path fill="none" stroke="#63b8ff" d="M2614.91,-91.8C2358.91,-90.74 1469.75,-84.02 1189.5,-41.75 1186.64,-41.32 1183.74,-40.82 1180.81,-40.25"/>
<polygon fill="#63b8ff" stroke="#63b8ff" points="2614.74,-95.3 2624.75,-91.84 2614.77,-88.3 2614.74,-95.3"/>
</a>
</g>
</g>
<!-- Node10 -->
<g id="Node000010" class="node">
<title>Node10</title>
<g id="a_Node000010"><a xlink:href="matrix__inverse_8c.html" target="_top" xlink:title=" ">
<polygon fill="white" stroke="#666666" points="1326.38,-41.75 1198.62,-41.75 1198.62,0 1326.38,0 1326.38,-41.75"/>
<text text-anchor="start" x="1206.62" y="-28.25" font-family="Helvetica,sans-Serif" font-size="10.00">/github/workspace/SRC</text>
<text text-anchor="start" x="1206.62" y="-17" font-family="Helvetica,sans-Serif" font-size="10.00">/BASE/MATRICES/matrix</text>
<text text-anchor="middle" x="1262.5" y="-5.75" font-family="Helvetica,sans-Serif" font-size="10.00">_inverse.c</text>
</a>
</g>
</g>
<!-- Node1&#45;&gt;Node10 -->
<g id="edge9_Node000001_Node000010" class="edge">
<title>Node1&#45;&gt;Node10</title>
<g id="a_edge9_Node000001_Node000010"><a xlink:title=" ">
<path fill="none" stroke="#63b8ff" d="M2615.01,-91.51C2375.59,-89.48 1585.95,-79.99 1335.5,-41.75 1332.64,-41.31 1329.74,-40.81 1326.82,-40.24"/>
<polygon fill="#63b8ff" stroke="#63b8ff" points="2614.78,-95.01 2624.81,-91.59 2614.84,-88.01 2614.78,-95.01"/>
</a>
</g>
</g>
<!-- Node11 -->
<g id="Node000011" class="node">
<title>Node11</title>
<g id="a_Node000011"><a xlink:href="matrix__multiple_8c.html" target="_top" xlink:title=" ">
<polygon fill="white" stroke="#666666" points="1472.38,-41.75 1344.62,-41.75 1344.62,0 1472.38,0 1472.38,-41.75"/>
<text text-anchor="start" x="1352.62" y="-28.25" font-family="Helvetica,sans-Serif" font-size="10.00">/github/workspace/SRC</text>
<text text-anchor="start" x="1352.62" y="-17" font-family="Helvetica,sans-Serif" font-size="10.00">/BASE/MATRICES/matrix</text>
<text text-anchor="middle" x="1408.5" y="-5.75" font-family="Helvetica,sans-Serif" font-size="10.00">_multiple.c</text>
</a>
</g>
</g>
<!-- Node1&#45;&gt;Node11 -->
<g id="edge10_Node000001_Node000011" class="edge">
<title>Node1&#45;&gt;Node11</title>
<g id="a_edge10_Node000001_Node000011"><a xlink:title=" ">
<path fill="none" stroke="#63b8ff" d="M2614.83,-91.14C2392.58,-88.07 1702.2,-75.96 1481.5,-41.75 1478.64,-41.31 1475.74,-40.79 1472.82,-40.23"/>
<polygon fill="#63b8ff" stroke="#63b8ff" points="2614.74,-94.64 2624.79,-91.27 2614.84,-87.64 2614.74,-94.64"/>
</a>
</g>
</g>
<!-- Node12 -->
<g id="Node000012" class="node">
<title>Node12</title>
<g id="a_Node000012"><a xlink:href="matrix__normalize_8c.html" target="_top" xlink:title=" ">
<polygon fill="white" stroke="#666666" points="1618.38,-41.75 1490.62,-41.75 1490.62,0 1618.38,0 1618.38,-41.75"/>
<text text-anchor="start" x="1498.62" y="-28.25" font-family="Helvetica,sans-Serif" font-size="10.00">/github/workspace/SRC</text>
<text text-anchor="start" x="1498.62" y="-17" font-family="Helvetica,sans-Serif" font-size="10.00">/BASE/MATRICES/matrix</text>
<text text-anchor="middle" x="1554.5" y="-5.75" font-family="Helvetica,sans-Serif" font-size="10.00">_normalize.c</text>
</a>
</g>
</g>
<!-- Node1&#45;&gt;Node12 -->
<g id="edge11_Node000001_Node000012" class="edge">
<title>Node1&#45;&gt;Node12</title>
<g id="a_edge11_Node000001_Node000012"><a xlink:title=" ">
<path fill="none" stroke="#63b8ff" d="M2614.77,-90.67C2410.95,-86.47 1818.64,-71.94 1627.5,-41.75 1624.65,-41.3 1621.74,-40.78 1618.82,-40.2"/>
<polygon fill="#63b8ff" stroke="#63b8ff" points="2614.61,-94.17 2624.68,-90.87 2614.75,-87.17 2614.61,-94.17"/>
</a>
</g>
</g>
<!-- Node13 -->
<g id="Node000013" class="node">
<title>Node13</title>
<g id="a_Node000013"><a xlink:href="matrix__point_8c.html" target="_top" xlink:title=" ">
<polygon fill="white" stroke="#666666" points="1764.38,-41.75 1636.62,-41.75 1636.62,0 1764.38,0 1764.38,-41.75"/>
<text text-anchor="start" x="1644.62" y="-28.25" font-family="Helvetica,sans-Serif" font-size="10.00">/github/workspace/SRC</text>
<text text-anchor="start" x="1644.62" y="-17" font-family="Helvetica,sans-Serif" font-size="10.00">/BASE/MATRICES/matrix</text>
<text text-anchor="middle" x="1700.5" y="-5.75" font-family="Helvetica,sans-Serif" font-size="10.00">_point.c</text>
</a>
</g>
</g>
<!-- Node1&#45;&gt;Node13 -->
<g id="edge12_Node000001_Node000013" class="edge">
<title>Node1&#45;&gt;Node13</title>
<g id="a_edge12_Node000001_Node000013"><a xlink:title=" ">
<path fill="none" stroke="#63b8ff" d="M2614.77,-90.06C2430.79,-84.62 1935.29,-67.94 1773.5,-41.75 1770.65,-41.29 1767.75,-40.76 1764.83,-40.18"/>
<polygon fill="#63b8ff" stroke="#63b8ff" points="2614.56,-93.55 2624.66,-90.35 2614.76,-86.55 2614.56,-93.55"/>
</a>
</g>
</g>
<!-- Node14 -->
<g id="Node000014" class="node">
<title>Node14</title>
<g id="a_Node000014"><a xlink:href="matrix__sum_8c.html" target="_top" xlink:title=" ">
<polygon fill="white" stroke="#666666" points="1942.12,-36.12 1782.88,-36.12 1782.88,-5.62 1942.12,-5.62 1942.12,-36.12"/>
<text text-anchor="start" x="1790.88" y="-22.62" font-family="Helvetica,sans-Serif" font-size="10.00">/github/workspace/SRC</text>
<text text-anchor="middle" x="1862.5" y="-11.38" font-family="Helvetica,sans-Serif" font-size="10.00">/BASE/MATRICES/matrix_sum.c</text>
</a>
</g>
</g>
<!-- Node1&#45;&gt;Node14 -->
<g id="edge13_Node000001_Node000014" class="edge">
<title>Node1&#45;&gt;Node14</title>
<g id="a_edge13_Node000001_Node000014"><a xlink:title=" ">
<path fill="none" stroke="#63b8ff" d="M2614.83,-90.73C2484.13,-87.57 2193.51,-76.86 1951.5,-41.75 1942.1,-40.39 1932.22,-38.57 1922.59,-36.59"/>
<polygon fill="#63b8ff" stroke="#63b8ff" points="2614.63,-94.22 2624.71,-90.96 2614.79,-87.23 2614.63,-94.22"/>
</a>
</g>
</g>
<!-- Node15 -->
<g id="Node000015" class="node">
<title>Node15</title>
<g id="a_Node000015"><a xlink:href="matrix__transpose_8c.html" target="_top" xlink:title=" ">
<polygon fill="white" stroke="#666666" points="2088.38,-41.75 1960.62,-41.75 1960.62,0 2088.38,0 2088.38,-41.75"/>
<text text-anchor="start" x="1968.62" y="-28.25" font-family="Helvetica,sans-Serif" font-size="10.00">/github/workspace/SRC</text>
<text text-anchor="start" x="1968.62" y="-17" font-family="Helvetica,sans-Serif" font-size="10.00">/BASE/MATRICES/matrix</text>
<text text-anchor="middle" x="2024.5" y="-5.75" font-family="Helvetica,sans-Serif" font-size="10.00">_transpose.c</text>
</a>
</g>
</g>
<!-- Node1&#45;&gt;Node15 -->
<g id="edge14_Node000001_Node000015" class="edge">
<title>Node1&#45;&gt;Node15</title>
<g id="a_edge14_Node000001_Node000015"><a xlink:title=" ">
<path fill="none" stroke="#63b8ff" d="M2614.84,-90.1C2504.37,-86.17 2282.55,-74.58 2097.5,-41.75 2094.65,-41.25 2091.76,-40.68 2088.84,-40.07"/>
<polygon fill="#63b8ff" stroke="#63b8ff" points="2614.52,-93.59 2624.63,-90.43 2614.76,-86.59 2614.52,-93.59"/>
</a>
</g>
</g>
<!-- Node16 -->
<g id="Node000016" class="node">
<title>Node16</title>
<g id="a_Node000016"><a xlink:href="matrix__vector_8c.html" target="_top" xlink:title=" ">
<polygon fill="white" stroke="#666666" points="2234.38,-41.75 2106.62,-41.75 2106.62,0 2234.38,0 2234.38,-41.75"/>
<text text-anchor="start" x="2114.62" y="-28.25" font-family="Helvetica,sans-Serif" font-size="10.00">/github/workspace/SRC</text>
<text text-anchor="start" x="2114.62" y="-17" font-family="Helvetica,sans-Serif" font-size="10.00">/BASE/MATRICES/matrix</text>
<text text-anchor="middle" x="2170.5" y="-5.75" font-family="Helvetica,sans-Serif" font-size="10.00">_vector.c</text>
</a>
</g>
</g>
<!-- Node1&#45;&gt;Node16 -->
<g id="edge15_Node000001_Node000016" class="edge">
<title>Node1&#45;&gt;Node16</title>
<g id="a_edge15_Node000001_Node000016"><a xlink:title=" ">
<path fill="none" stroke="#63b8ff" d="M2614.76,-87.45C2527.23,-80.97 2372.75,-66.97 2242.5,-41.75 2239.95,-41.26 2237.37,-40.72 2234.76,-40.15"/>
<polygon fill="#63b8ff" stroke="#63b8ff" points="2614.4,-90.94 2624.63,-88.17 2614.91,-83.95 2614.4,-90.94"/>
</a>
</g>
</g>
<!-- Node17 -->
<g id="Node000017" class="node">
<title>Node17</title>
<g id="a_Node000017"><a xlink:href="ray__clone_8c.html" target="_top" xlink:title=" ">
<polygon fill="white" stroke="#666666" points="2379,-36.12 2252,-36.12 2252,-5.62 2379,-5.62 2379,-36.12"/>
<text text-anchor="start" x="2260" y="-22.62" font-family="Helvetica,sans-Serif" font-size="10.00">/github/workspace/SRC</text>
<text text-anchor="middle" x="2315.5" y="-11.38" font-family="Helvetica,sans-Serif" font-size="10.00">/BASE/RAYS/ray_clone.c</text>
</a>
</g>
</g>
<!-- Node1&#45;&gt;Node17 -->
<g id="edge16_Node000001_Node000017" class="edge">
<title>Node1&#45;&gt;Node17</title>
<g id="a_edge16_Node000001_Node000017"><a xlink:title=" ">
<path fill="none" stroke="#63b8ff" d="M2615.05,-82.17C2554.83,-73.18 2465.49,-58.72 2388.5,-41.75 2381.57,-40.22 2374.32,-38.46 2367.19,-36.62"/>
<polygon fill="#63b8ff" stroke="#63b8ff" points="2614.42,-85.62 2624.83,-83.62 2615.45,-78.69 2614.42,-85.62"/>
</a>
</g>
</g>
<!-- Node18 -->
<g id="Node000018" class="node">
<title>Node18</title>
<g id="a_Node000018"><a xlink:href="ray__free_8c.html" target="_top" xlink:title=" ">
<polygon fill="white" stroke="#666666" points="2517.62,-36.12 2397.38,-36.12 2397.38,-5.62 2517.62,-5.62 2517.62,-36.12"/>
<text text-anchor="start" x="2405.38" y="-22.62" font-family="Helvetica,sans-Serif" font-size="10.00">/github/workspace/SRC</text>
<text text-anchor="middle" x="2457.5" y="-11.38" font-family="Helvetica,sans-Serif" font-size="10.00">/BASE/RAYS/ray_free.c</text>
</a>
</g>
</g>
<!-- Node1&#45;&gt;Node18 -->
<g id="edge17_Node000001_Node000018" class="edge">
<title>Node1&#45;&gt;Node18</title>
<g id="a_edge17_Node000001_Node000018"><a xlink:title=" ">
<path fill="none" stroke="#63b8ff" d="M2626.11,-73.96C2588.52,-62.35 2540.27,-47.44 2505.02,-36.56"/>
<polygon fill="#63b8ff" stroke="#63b8ff" points="2624.88,-77.25 2635.47,-76.85 2626.95,-70.56 2624.88,-77.25"/>
</a>
</g>
</g>
<!-- Node19 -->
<g id="Node000019" class="node">
<title>Node19</title>
<g id="a_Node000019"><a xlink:href="ray__intersect_8c.html" target="_top" xlink:title=" ">
<polygon fill="white" stroke="#666666" points="2677.12,-36.12 2535.88,-36.12 2535.88,-5.62 2677.12,-5.62 2677.12,-36.12"/>
<text text-anchor="start" x="2543.88" y="-22.62" font-family="Helvetica,sans-Serif" font-size="10.00">/github/workspace/SRC</text>
<text text-anchor="middle" x="2606.5" y="-11.38" font-family="Helvetica,sans-Serif" font-size="10.00">/BASE/RAYS/ray_intersect.c</text>
</a>
</g>
</g>
<!-- Node1&#45;&gt;Node19 -->
<g id="edge18_Node000001_Node000019" class="edge">
<title>Node1&#45;&gt;Node19</title>
<g id="a_edge18_Node000001_Node000019"><a xlink:title=" ">
<path fill="none" stroke="#63b8ff" d="M2659.94,-69.92C2647.77,-58.98 2633.41,-46.07 2622.64,-36.39"/>
<polygon fill="#63b8ff" stroke="#63b8ff" points="2657.44,-72.38 2667.21,-76.46 2662.12,-67.17 2657.44,-72.38"/>
</a>
</g>
</g>
<!-- Node20 -->
<g id="Node000020" class="node">
<title>Node20</title>
<g id="a_Node000020"><a xlink:href="ray__position_8c.html" target="_top" xlink:title=" ">
<polygon fill="white" stroke="#666666" points="2832.25,-36.12 2694.75,-36.12 2694.75,-5.62 2832.25,-5.62 2832.25,-36.12"/>
<text text-anchor="start" x="2702.75" y="-22.62" font-family="Helvetica,sans-Serif" font-size="10.00">/github/workspace/SRC</text>
<text text-anchor="middle" x="2763.5" y="-11.38" font-family="Helvetica,sans-Serif" font-size="10.00">/BASE/RAYS/ray_position.c</text>
</a>
</g>
</g>
<!-- Node1&#45;&gt;Node20 -->
<g id="edge19_Node000001_Node000020" class="edge">
<title>Node1&#45;&gt;Node20</title>
<g id="a_edge19_Node000001_Node000020"><a xlink:title=" ">
<path fill="none" stroke="#63b8ff" d="M2709.37,-69.92C2721.7,-58.98 2736.25,-46.07 2747.15,-36.39"/>
<polygon fill="#63b8ff" stroke="#63b8ff" points="2707.16,-67.21 2702,-76.47 2711.8,-72.44 2707.16,-67.21"/>
</a>
</g>
</g>
<!-- Node21 -->
<g id="Node000021" class="node">
<title>Node21</title>
<g id="a_Node000021"><a xlink:href="ray__transform_8c.html" target="_top" xlink:title=" ">
<polygon fill="white" stroke="#666666" points="2995,-36.12 2850,-36.12 2850,-5.62 2995,-5.62 2995,-36.12"/>
<text text-anchor="start" x="2858" y="-22.62" font-family="Helvetica,sans-Serif" font-size="10.00">/github/workspace/SRC</text>
<text text-anchor="middle" x="2922.5" y="-11.38" font-family="Helvetica,sans-Serif" font-size="10.00">/BASE/RAYS/ray_transform.c</text>
</a>
</g>
</g>
<!-- Node1&#45;&gt;Node21 -->
<g id="edge20_Node000001_Node000021" class="edge">
<title>Node1&#45;&gt;Node21</title>
<g id="a_edge20_Node000001_Node000021"><a xlink:title=" ">
<path fill="none" stroke="#63b8ff" d="M2745.21,-74.11C2784.7,-62.48 2835.56,-47.49 2872.67,-36.56"/>
<polygon fill="#63b8ff" stroke="#63b8ff" points="2744.45,-70.69 2735.84,-76.87 2746.43,-77.4 2744.45,-70.69"/>
</a>
</g>
</g>
<!-- Node22 -->
<g id="Node000022" class="node">
<title>Node22</title>
<g id="a_Node000022"><a xlink:href="tuple__normalize_8c.html" target="_top" xlink:title=" ">
<polygon fill="white" stroke="#666666" points="3178.12,-36.12 3012.88,-36.12 3012.88,-5.62 3178.12,-5.62 3178.12,-36.12"/>
<text text-anchor="start" x="3020.88" y="-22.62" font-family="Helvetica,sans-Serif" font-size="10.00">/github/workspace/SRC</text>
<text text-anchor="middle" x="3095.5" y="-11.38" font-family="Helvetica,sans-Serif" font-size="10.00">/BASE/TUPLES/tuple_normalize.c</text>
</a>
</g>
</g>
<!-- Node1&#45;&gt;Node22 -->
<g id="edge21_Node000001_Node000022" class="edge">
<title>Node1&#45;&gt;Node22</title>
<g id="a_edge21_Node000001_Node000022"><a xlink:title=" ">
<path fill="none" stroke="#63b8ff" d="M2754.09,-82.29C2819.05,-72.93 2918.6,-57.86 3004.5,-41.75 3012.92,-40.17 3021.76,-38.39 3030.48,-36.57"/>
<polygon fill="#63b8ff" stroke="#63b8ff" points="2753.68,-78.81 2744.28,-83.69 2754.67,-85.74 2753.68,-78.81"/>
</a>
</g>
</g>
<!-- Node23 -->
<g id="Node000023" class="node">
<title>Node23</title>
<g id="a_Node000023"><a xlink:href="tuple__to__matrix_8c.html" target="_top" xlink:title=" ">
<polygon fill="white" stroke="#666666" points="3320.88,-41.75 3196.12,-41.75 3196.12,0 3320.88,0 3320.88,-41.75"/>
<text text-anchor="start" x="3204.12" y="-28.25" font-family="Helvetica,sans-Serif" font-size="10.00">/github/workspace/SRC</text>
<text text-anchor="start" x="3204.12" y="-17" font-family="Helvetica,sans-Serif" font-size="10.00">/BASE/TUPLES/tuple_to</text>
<text text-anchor="middle" x="3258.5" y="-5.75" font-family="Helvetica,sans-Serif" font-size="10.00">_matrix.c</text>
</a>
</g>
</g>
<!-- Node1&#45;&gt;Node23 -->
<g id="edge22_Node000001_Node000023" class="edge">
<title>Node1&#45;&gt;Node23</title>
<g id="a_edge22_Node000001_Node000023"><a xlink:title=" ">
<path fill="none" stroke="#63b8ff" d="M2754.15,-88.86C2851.73,-83.6 3034.39,-70.6 3187.5,-41.75 3190.27,-41.23 3193.08,-40.65 3195.92,-40.03"/>
<polygon fill="#63b8ff" stroke="#63b8ff" points="2753.99,-85.37 2744.19,-89.39 2754.36,-92.36 2753.99,-85.37"/>
</a>
</g>
</g>
<!-- Node24 -->
<g id="Node000024" class="node">
<title>Node24</title>
<g id="a_Node000024"><a xlink:href="cleanup_8c.html" target="_top" xlink:title=" ">
<polygon fill="white" stroke="#666666" points="3479.75,-36.12 3339.25,-36.12 3339.25,-5.62 3479.75,-5.62 3479.75,-36.12"/>
<text text-anchor="start" x="3347.25" y="-22.62" font-family="Helvetica,sans-Serif" font-size="10.00">/github/workspace/SRC</text>
<text text-anchor="middle" x="3409.5" y="-11.38" font-family="Helvetica,sans-Serif" font-size="10.00">/CORE/CLEANUP/cleanup.c</text>
</a>
</g>
</g>
<!-- Node1&#45;&gt;Node24 -->
<g id="edge23_Node000001_Node000024" class="edge">
<title>Node1&#45;&gt;Node24</title>
<g id="a_edge23_Node000001_Node000024"><a xlink:title=" ">
<path fill="none" stroke="#63b8ff" d="M2754.12,-90.35C2872.87,-86.7 3121.88,-75.39 3329.5,-41.75 3337.98,-40.38 3346.87,-38.56 3355.53,-36.57"/>
<polygon fill="#63b8ff" stroke="#63b8ff" points="2754.1,-86.85 2744.21,-90.65 2754.31,-93.85 2754.1,-86.85"/>
</a>
</g>
</g>
<!-- Node25 -->
<g id="Node000025" class="node">
<title>Node25</title>
<g id="a_Node000025"><a xlink:href="parse__camera__light_8c.html" target="_top" xlink:title=" ">
<polygon fill="white" stroke="#666666" points="3644.75,-41.75 3498.25,-41.75 3498.25,0 3644.75,0 3644.75,-41.75"/>
<text text-anchor="start" x="3506.25" y="-28.25" font-family="Helvetica,sans-Serif" font-size="10.00">/github/workspace/SRC</text>
<text text-anchor="start" x="3506.25" y="-17" font-family="Helvetica,sans-Serif" font-size="10.00">/CORE/PARSE/parse_camera</text>
<text text-anchor="middle" x="3571.5" y="-5.75" font-family="Helvetica,sans-Serif" font-size="10.00">_light.c</text>
</a>
</g>
</g>
<!-- Node1&#45;&gt;Node25 -->
<g id="edge24_Node000001_Node000025" class="edge">
<title>Node1&#45;&gt;Node25</title>
<g id="a_edge24_Node000001_Node000025"><a xlink:title=" ">
<path fill="none" stroke="#63b8ff" d="M2753.72,-91.68C2893.42,-90.17 3218.77,-82.16 3488.5,-41.75 3491.58,-41.29 3494.71,-40.77 3497.86,-40.21"/>
<polygon fill="#63b8ff" stroke="#63b8ff" points="2753.86,-88.18 2743.89,-91.78 2753.93,-95.18 2753.86,-88.18"/>
</a>
</g>
</g>
<!-- Node26 -->
<g id="Node000026" class="node">
<title>Node26</title>
<g id="a_Node000026"><a xlink:href="parse__objects_8c.html" target="_top" xlink:title=" ">
<polygon fill="white" stroke="#666666" points="3816.12,-36.12 3662.88,-36.12 3662.88,-5.62 3816.12,-5.62 3816.12,-36.12"/>
<text text-anchor="start" x="3670.88" y="-22.62" font-family="Helvetica,sans-Serif" font-size="10.00">/github/workspace/SRC</text>
<text text-anchor="middle" x="3739.5" y="-11.38" font-family="Helvetica,sans-Serif" font-size="10.00">/CORE/PARSE/parse_objects.c</text>
</a>
</g>
</g>
<!-- Node1&#45;&gt;Node26 -->
<g id="edge25_Node000001_Node000026" class="edge">
<title>Node1&#45;&gt;Node26</title>
<g id="a_edge25_Node000001_Node000026"><a xlink:title=" ">
<path fill="none" stroke="#63b8ff" d="M2753.78,-92.56C2913.34,-92.94 3318.72,-88.74 3653.5,-41.75 3662.91,-40.43 3672.8,-38.58 3682.4,-36.54"/>
<polygon fill="#63b8ff" stroke="#63b8ff" points="2754.25,-89.06 2744.24,-92.53 2754.23,-96.06 2754.25,-89.06"/>
</a>
</g>
</g>
<!-- Node27 -->
<g id="Node000027" class="node">
<title>Node27</title>
<g id="a_Node000027"><a xlink:href="camera__free_8c.html" target="_top" xlink:title=" ">
<polygon fill="white" stroke="#666666" points="3977.25,-41.75 3833.75,-41.75 3833.75,0 3977.25,0 3977.25,-41.75"/>
<text text-anchor="start" x="3841.75" y="-28.25" font-family="Helvetica,sans-Serif" font-size="10.00">/github/workspace/SRC</text>
<text text-anchor="start" x="3841.75" y="-17" font-family="Helvetica,sans-Serif" font-size="10.00">/OBJECTS/CAMERA/camera</text>
<text text-anchor="middle" x="3905.5" y="-5.75" font-family="Helvetica,sans-Serif" font-size="10.00">_free.c</text>
</a>
</g>
</g>
<!-- Node1&#45;&gt;Node27 -->
<g id="edge26_Node000001_Node000027" class="edge">
<title>Node1&#45;&gt;Node27</title>
<g id="a_edge26_Node000001_Node000027"><a xlink:title=" ">
<path fill="none" stroke="#63b8ff" d="M2754.18,-90.75C2968.67,-86.63 3617.03,-71.93 3825.5,-41.75 3828.19,-41.36 3830.92,-40.92 3833.68,-40.44"/>
<polygon fill="#63b8ff" stroke="#63b8ff" points="2754.23,-87.25 2744.3,-90.94 2754.37,-94.25 2754.23,-87.25"/>
</a>
</g>
</g>
<!-- Node28 -->
<g id="Node000028" class="node">
<title>Node28</title>
<g id="a_Node000028"><a xlink:href="sphere__free_8c.html" target="_top" xlink:title=" ">
<polygon fill="white" stroke="#666666" points="4134,-41.75 3995,-41.75 3995,0 4134,0 4134,-41.75"/>
<text text-anchor="start" x="4003" y="-28.25" font-family="Helvetica,sans-Serif" font-size="10.00">/github/workspace/SRC</text>
<text text-anchor="start" x="4003" y="-17" font-family="Helvetica,sans-Serif" font-size="10.00">/OBJECTS/SPHERE/sphere</text>
<text text-anchor="middle" x="4064.5" y="-5.75" font-family="Helvetica,sans-Serif" font-size="10.00">_free.c</text>
</a>
</g>
</g>
<!-- Node1&#45;&gt;Node28 -->
<g id="edge27_Node000001_Node000028" class="edge">
<title>Node1&#45;&gt;Node28</title>
<g id="a_edge27_Node000001_Node000028"><a xlink:title=" ">
<path fill="none" stroke="#63b8ff" d="M2754.28,-91.25C2988.51,-88.41 3745.43,-76.71 3986.5,-41.75 3989.27,-41.35 3992.08,-40.89 3994.91,-40.38"/>
<polygon fill="#63b8ff" stroke="#63b8ff" points="2754.34,-87.75 2744.38,-91.36 2754.42,-94.74 2754.34,-87.75"/>
</a>
</g>
</g>
<!-- Node29 -->
<g id="Node000029" class="node">
<title>Node29</title>
<g id="a_Node000029"><a xlink:href="sphere__normal_8c.html" target="_top" xlink:title=" ">
<polygon fill="white" stroke="#666666" points="4291,-41.75 4152,-41.75 4152,0 4291,0 4291,-41.75"/>
<text text-anchor="start" x="4160" y="-28.25" font-family="Helvetica,sans-Serif" font-size="10.00">/github/workspace/SRC</text>
<text text-anchor="start" x="4160" y="-17" font-family="Helvetica,sans-Serif" font-size="10.00">/OBJECTS/SPHERE/sphere</text>
<text text-anchor="middle" x="4221.5" y="-5.75" font-family="Helvetica,sans-Serif" font-size="10.00">_normal.c</text>
</a>
</g>
</g>
<!-- Node1&#45;&gt;Node29 -->
<g id="edge28_Node000001_Node000029" class="edge">
<title>Node1&#45;&gt;Node29</title>
<g id="a_edge28_Node000001_Node000029"><a xlink:title=" ">
<path fill="none" stroke="#63b8ff" d="M2753.66,-91.59C3005.09,-89.79 3870.14,-80.82 4143.5,-41.75 4146.27,-41.35 4149.08,-40.9 4151.91,-40.4"/>
<polygon fill="#63b8ff" stroke="#63b8ff" points="2754,-88.09 2744.02,-91.66 2754.05,-95.09 2754,-88.09"/>
</a>
</g>
</g>
<!-- Node30 -->
<g id="Node000030" class="node">
<title>Node30</title>
<g id="a_Node000030"><a xlink:href="rotate_8c.html" target="_top" xlink:title=" ">
<polygon fill="white" stroke="#666666" points="4473.75,-36.12 4309.25,-36.12 4309.25,-5.62 4473.75,-5.62 4473.75,-36.12"/>
<text text-anchor="start" x="4317.25" y="-22.62" font-family="Helvetica,sans-Serif" font-size="10.00">/github/workspace/SRC</text>
<text text-anchor="middle" x="4391.5" y="-11.38" font-family="Helvetica,sans-Serif" font-size="10.00">/OBJECTS/TRANSFORM/rotate.c</text>
</a>
</g>
</g>
<!-- Node1&#45;&gt;Node30 -->
<g id="edge29_Node000001_Node000030" class="edge">
<title>Node1&#45;&gt;Node30</title>
<g id="a_edge29_Node000001_Node000030"><a xlink:title=" ">
<path fill="none" stroke="#63b8ff" d="M2753.78,-91.54C3022.26,-89.51 3994.29,-79.62 4300.5,-41.75 4310.61,-40.5 4321.26,-38.66 4331.56,-36.6"/>
<polygon fill="#63b8ff" stroke="#63b8ff" points="2754.14,-88.04 2744.17,-91.61 2754.19,-95.04 2754.14,-88.04"/>
</a>
</g>
</g>
<!-- Node31 -->
<g id="Node000031" class="node">
<title>Node31</title>
<g id="a_Node000031"><a xlink:href="scale_8c.html" target="_top" xlink:title=" ">
<polygon fill="white" stroke="#666666" points="4655,-36.12 4492,-36.12 4492,-5.62 4655,-5.62 4655,-36.12"/>
<text text-anchor="start" x="4500" y="-22.62" font-family="Helvetica,sans-Serif" font-size="10.00">/github/workspace/SRC</text>
<text text-anchor="middle" x="4573.5" y="-11.38" font-family="Helvetica,sans-Serif" font-size="10.00">/OBJECTS/TRANSFORM/scale.c</text>
</a>
</g>
</g>
<!-- Node1&#45;&gt;Node31 -->
<g id="edge30_Node000001_Node000031" class="edge">
<title>Node1&#45;&gt;Node31</title>
<g id="a_edge30_Node000001_Node000031"><a xlink:title=" ">
<path fill="none" stroke="#63b8ff" d="M2754.27,-91.79C3042.18,-90.68 4138.93,-83.7 4482.5,-41.75 4492.77,-40.5 4503.6,-38.63 4514.05,-36.53"/>
<polygon fill="#63b8ff" stroke="#63b8ff" points="2754.26,-88.29 2744.28,-91.83 2754.29,-95.29 2754.26,-88.29"/>
</a>
</g>
</g>
<!-- Node32 -->
<g id="Node000032" class="node">
<title>Node32</title>
<g id="a_Node000032"><a xlink:href="shearing_8c.html" target="_top" xlink:title=" ">
<polygon fill="white" stroke="#666666" points="4849.75,-36.12 4673.25,-36.12 4673.25,-5.62 4849.75,-5.62 4849.75,-36.12"/>
<text text-anchor="start" x="4681.25" y="-22.62" font-family="Helvetica,sans-Serif" font-size="10.00">/github/workspace/SRC</text>
<text text-anchor="middle" x="4761.5" y="-11.38" font-family="Helvetica,sans-Serif" font-size="10.00">/OBJECTS/TRANSFORM/shearing.c</text>
</a>
</g>
</g>
<!-- Node1&#45;&gt;Node32 -->
<g id="edge31_Node000001_Node000032" class="edge">
<title>Node1&#45;&gt;Node32</title>
<g id="a_edge31_Node000001_Node000032"><a xlink:title=" ">
<path fill="none" stroke="#63b8ff" d="M2754.17,-91.88C3059.73,-91.12 4282.93,-85.34 4664.5,-41.75 4675.35,-40.51 4686.78,-38.66 4697.84,-36.59"/>
<polygon fill="#63b8ff" stroke="#63b8ff" points="2754.35,-88.38 2744.36,-91.91 2754.37,-95.38 2754.35,-88.38"/>
</a>
</g>
</g>
<!-- Node33 -->
<g id="Node000033" class="node">
<title>Node33</title>
<g id="a_Node000033"><a xlink:href="translate_8c.html" target="_top" xlink:title=" ">
<polygon fill="white" stroke="#666666" points="5045.12,-36.12 4867.88,-36.12 4867.88,-5.62 5045.12,-5.62 5045.12,-36.12"/>
<text text-anchor="start" x="4875.88" y="-22.62" font-family="Helvetica,sans-Serif" font-size="10.00">/github/workspace/SRC</text>
<text text-anchor="middle" x="4956.5" y="-11.38" font-family="Helvetica,sans-Serif" font-size="10.00">/OBJECTS/TRANSFORM/translate.c</text>
</a>
</g>
</g>
<!-- Node1&#45;&gt;Node33 -->
<g id="edge32_Node000001_Node000033" class="edge">
<title>Node1&#45;&gt;Node33</title>
<g id="a_edge32_Node000001_Node000033"><a xlink:title=" ">
<path fill="none" stroke="#63b8ff" d="M2753.98,-92.05C3077.28,-92.02 4436.48,-89.04 4858.5,-41.75 4869.46,-40.52 4881.01,-38.68 4892.18,-36.61"/>
<polygon fill="#63b8ff" stroke="#63b8ff" points="2753.98,-88.55 2743.98,-92.05 2753.98,-95.55 2753.98,-88.55"/>
</a>
</g>
</g>
<!-- Node34 -->
<g id="Node000034" class="node">
<title>Node34</title>
<g id="a_Node000034"><a xlink:href="obj__free_8c.html" target="_top" xlink:title=" ">
<polygon fill="white" stroke="#666666" points="5204.12,-36.12 5062.88,-36.12 5062.88,-5.62 5204.12,-5.62 5204.12,-36.12"/>
<text text-anchor="start" x="5070.88" y="-22.62" font-family="Helvetica,sans-Serif" font-size="10.00">/github/workspace/SRC</text>
<text text-anchor="middle" x="5133.5" y="-11.38" font-family="Helvetica,sans-Serif" font-size="10.00">/OBJECTS/UTILS/obj_free.c</text>
</a>
</g>
</g>
<!-- Node1&#45;&gt;Node34 -->
<g id="edge33_Node000001_Node000034" class="edge">
<title>Node1&#45;&gt;Node34</title>
<g id="a_edge33_Node000001_Node000034"><a xlink:title=" ">
<path fill="none" stroke="#63b8ff" d="M2754.3,-91.46C3121.53,-88.48 4821.86,-73.07 5054.5,-41.75 5063.47,-40.54 5072.89,-38.7 5081.98,-36.61"/>
<polygon fill="#63b8ff" stroke="#63b8ff" points="2754.29,-87.96 2744.32,-91.54 2754.35,-94.96 2754.29,-87.96"/>
</a>
</g>
</g>
<!-- Node35 -->
<g id="Node000035" class="node">
<title>Node35</title>
<g id="a_Node000035"><a xlink:href="obj__render_8c.html" target="_top" xlink:title=" ">
<polygon fill="white" stroke="#666666" points="5374.38,-36.12 5222.62,-36.12 5222.62,-5.62 5374.38,-5.62 5374.38,-36.12"/>
<text text-anchor="start" x="5230.62" y="-22.62" font-family="Helvetica,sans-Serif" font-size="10.00">/github/workspace/SRC</text>
<text text-anchor="middle" x="5298.5" y="-11.38" font-family="Helvetica,sans-Serif" font-size="10.00">/OBJECTS/UTILS/obj_render.c</text>
</a>
</g>
</g>
<!-- Node1&#45;&gt;Node35 -->
<g id="edge34_Node000001_Node000035" class="edge">
<title>Node1&#45;&gt;Node35</title>
<g id="a_edge34_Node000001_Node000035"><a xlink:title=" ">
<path fill="none" stroke="#63b8ff" d="M2754.01,-91.49C3135.19,-88.58 4963.9,-73.06 5213.5,-41.75 5223.12,-40.54 5233.25,-38.7 5243.02,-36.61"/>
<polygon fill="#63b8ff" stroke="#63b8ff" points="2754.11,-87.99 2744.14,-91.57 2754.17,-94.99 2754.11,-87.99"/>
</a>
</g>
</g>
<!-- Node36 -->
<g id="Node000036" class="node">
<title>Node36</title>
<g id="a_Node000036"><a xlink:href="lighting_8c.html" target="_top" xlink:title=" ">
<polygon fill="white" stroke="#666666" points="5530.25,-36.12 5392.75,-36.12 5392.75,-5.62 5530.25,-5.62 5530.25,-36.12"/>
<text text-anchor="start" x="5400.75" y="-22.62" font-family="Helvetica,sans-Serif" font-size="10.00">/github/workspace/SRC</text>
<text text-anchor="middle" x="5461.5" y="-11.38" font-family="Helvetica,sans-Serif" font-size="10.00">/PHYSICS/LIGHT/lighting.c</text>
</a>
</g>
</g>
<!-- Node1&#45;&gt;Node36 -->
<g id="edge35_Node000001_Node000036" class="edge">
<title>Node1&#45;&gt;Node36</title>
<g id="a_edge35_Node000001_Node000036"><a xlink:title=" ">
<path fill="none" stroke="#63b8ff" d="M2753.87,-91.67C3149.9,-89.63 5116.39,-77.77 5383.5,-41.75 5392.5,-40.54 5401.96,-38.66 5411.06,-36.53"/>
<polygon fill="#63b8ff" stroke="#63b8ff" points="2754.11,-88.16 2744.13,-91.72 2754.15,-95.16 2754.11,-88.16"/>
</a>
</g>
</g>
<!-- Node37 -->
<g id="Node000037" class="node">
<title>Node37</title>
<g id="a_Node000037"><a xlink:href="reflect_8c.html" target="_top" xlink:title=" ">
<polygon fill="white" stroke="#666666" points="5681,-36.12 5548,-36.12 5548,-5.62 5681,-5.62 5681,-36.12"/>
<text text-anchor="start" x="5556" y="-22.62" font-family="Helvetica,sans-Serif" font-size="10.00">/github/workspace/SRC</text>
<text text-anchor="middle" x="5614.5" y="-11.38" font-family="Helvetica,sans-Serif" font-size="10.00">/PHYSICS/LIGHT/reflect.c</text>
</a>
</g>
</g>
<!-- Node1&#45;&gt;Node37 -->
<g id="edge36_Node000001_Node000037" class="edge">
<title>Node1&#45;&gt;Node37</title>
<g id="a_edge36_Node000001_Node000037"><a xlink:title=" ">
<path fill="none" stroke="#63b8ff" d="M2753.91,-91.78C3163.47,-90.36 5256.21,-81.19 5539.5,-41.75 5548.17,-40.54 5557.28,-38.67 5566.03,-36.54"/>
<polygon fill="#63b8ff" stroke="#63b8ff" points="2754.07,-88.28 2744.08,-91.81 2754.09,-95.28 2754.07,-88.28"/>
</a>
</g>
</g>
</g>
</svg>
