<?xml version="1.0" encoding="UTF-8" standalone="no"?>
<!DOCTYPE svg PUBLIC "-//W3C//DTD SVG 1.1//EN"
 "http://www.w3.org/Graphics/SVG/1.1/DTD/svg11.dtd">
<!-- Generated by graphviz version 9.0.0 (20230911.1827)
 -->
<!-- Title: matrix_length Pages: 1 -->
<svg width="470pt" height="64pt"
 viewBox="0.00 0.00 470.25 64.25" xmlns="http://www.w3.org/2000/svg" xmlns:xlink="http://www.w3.org/1999/xlink">
<g id="graph0" class="graph" transform="scale(1 1) rotate(0) translate(4 60.25)">
<title>matrix_length</title>
<!-- Node1 -->
<g id="Node000001" class="node">
<title>Node1</title>
<g id="a_Node000001"><a xlink:title=" ">
<polygon fill="#999999" stroke="#666666" points="462.25,-37.25 388.5,-37.25 388.5,-18 462.25,-18 462.25,-37.25"/>
<text text-anchor="middle" x="425.38" y="-23.75" font-family="Helvetica,sans-Serif" font-size="10.00">matrix_length</text>
</a>
</g>
</g>
<!-- Node2 -->
<g id="Node000002" class="node">
<title>Node2</title>
<g id="a_Node000002"><a xlink:href="matrix__normalize_8c.html#a35a688dc70b34d031fa58218f8bcdbdd" target="_top" xlink:title=" ">
<polygon fill="white" stroke="#666666" points="352.5,-37.25 263.75,-37.25 263.75,-18 352.5,-18 352.5,-37.25"/>
<text text-anchor="middle" x="308.12" y="-23.75" font-family="Helvetica,sans-Serif" font-size="10.00">matrix_normalize</text>
</a>
</g>
</g>
<!-- Node1&#45;&gt;Node2 -->
<g id="edge1_Node000001_Node000002" class="edge">
<title>Node1&#45;&gt;Node2</title>
<g id="a_edge1_Node000001_Node000002"><a xlink:title=" ">
<path fill="none" stroke="#63b8ff" d="M376.84,-27.62C368.89,-27.62 360.68,-27.62 352.83,-27.62"/>
<polygon fill="#63b8ff" stroke="#63b8ff" points="376.71,-31.13 386.71,-27.63 376.71,-24.13 376.71,-31.13"/>
</a>
</g>
</g>
<!-- Node3 -->
<g id="Node000003" class="node">
<title>Node3</title>
<g id="a_Node000003"><a xlink:href="lighting_8c.html#ad035411c7e850248af38e7d68bb0ddd4" target="_top" xlink:title=" ">
<polygon fill="white" stroke="#666666" points="211.25,-56.25 164.5,-56.25 164.5,-37 211.25,-37 211.25,-56.25"/>
<text text-anchor="middle" x="187.88" y="-42.75" font-family="Helvetica,sans-Serif" font-size="10.00">lighting</text>
</a>
</g>
</g>
<!-- Node2&#45;&gt;Node3 -->
<g id="edge2_Node000002_Node000003" class="edge">
<title>Node2&#45;&gt;Node3</title>
<g id="a_edge2_Node000002_Node000003"><a xlink:title=" ">
<path fill="none" stroke="#63b8ff" d="M252.07,-36.47C237.75,-38.77 223.1,-41.13 211.52,-42.99"/>
<polygon fill="#63b8ff" stroke="#63b8ff" points="252.62,-39.93 261.93,-34.89 251.51,-33.02 252.62,-39.93"/>
</a>
</g>
</g>
<!-- Node4 -->
<g id="Node000004" class="node">
<title>Node4</title>
<g id="a_Node000004"><a xlink:href="sphere__normal_8c.html#a7f90156067fc9db4452ca1b058c976e8" target="_top" xlink:title=" ">
<polygon fill="white" stroke="#666666" points="227.75,-19.25 148,-19.25 148,0 227.75,0 227.75,-19.25"/>
<text text-anchor="middle" x="187.88" y="-5.75" font-family="Helvetica,sans-Serif" font-size="10.00">sphere_normal</text>
</a>
</g>
</g>
<!-- Node2&#45;&gt;Node4 -->
<g id="edge3_Node000002_Node000004" class="edge">
<title>Node2&#45;&gt;Node4</title>
<g id="a_edge3_Node000002_Node000004"><a xlink:title=" ">
<path fill="none" stroke="#63b8ff" d="M252.1,-19.25C244,-18.02 235.79,-16.77 228.1,-15.6"/>
<polygon fill="#63b8ff" stroke="#63b8ff" points="251.52,-22.7 261.93,-20.75 252.57,-15.78 251.52,-22.7"/>
</a>
</g>
</g>
<!-- Node5 -->
<g id="Node000005" class="node">
<title>Node5</title>
<g id="a_Node000005"><a xlink:href="prepare__computations_8c.html#a260bb84a41e41fe52951d598804fb2fe" target="_top" xlink:title=" ">
<polygon fill="white" stroke="#666666" points="112,-19.25 0,-19.25 0,0 112,0 112,-19.25"/>
<text text-anchor="middle" x="56" y="-5.75" font-family="Helvetica,sans-Serif" font-size="10.00">prepare_computations</text>
</a>
</g>
</g>
<!-- Node4&#45;&gt;Node5 -->
<g id="edge4_Node000004_Node000005" class="edge">
<title>Node4&#45;&gt;Node5</title>
<g id="a_edge4_Node000004_Node000005"><a xlink:title=" ">
<path fill="none" stroke="#63b8ff" d="M136.08,-9.62C128.34,-9.62 120.31,-9.62 112.48,-9.62"/>
<polygon fill="#63b8ff" stroke="#63b8ff" points="136.04,-13.13 146.04,-9.63 136.04,-6.13 136.04,-13.13"/>
</a>
</g>
</g>
</g>
</svg>
