<?xml version="1.0" encoding="UTF-8" standalone="no"?>
<!DOCTYPE svg PUBLIC "-//W3C//DTD SVG 1.1//EN"
 "http://www.w3.org/Graphics/SVG/1.1/DTD/svg11.dtd">
<!-- Generated by graphviz version 9.0.0 (20230911.1827)
 -->
<!-- Title: /github/workspace/INC/base_rays.h Pages: 1 -->
<svg width="912pt" height="116pt"
 viewBox="0.00 0.00 911.50 116.25" xmlns="http://www.w3.org/2000/svg" xmlns:xlink="http://www.w3.org/1999/xlink">
<g id="graph0" class="graph" transform="scale(1 1) rotate(0) translate(4 112.25)">
<title>/github/workspace/INC/base_rays.h</title>
<!-- Node1 -->
<g id="Node000001" class="node">
<title>Node1</title>
<g id="a_Node000001"><a xlink:title=" ">
<polygon fill="#999999" stroke="#666666" points="500.5,-108.25 384.75,-108.25 384.75,-77.75 500.5,-77.75 500.5,-108.25"/>
<text text-anchor="start" x="392.75" y="-94.75" font-family="Helvetica,sans-Serif" font-size="10.00">/github/workspace/INC</text>
<text text-anchor="middle" x="442.62" y="-83.5" font-family="Helvetica,sans-Serif" font-size="10.00">/base_rays.h</text>
</a>
</g>
</g>
<!-- Node2 -->
<g id="Node000002" class="node">
<title>Node2</title>
<g id="a_Node000002"><a xlink:href="prepare__computations_8c.html" target="_top" xlink:title=" ">
<polygon fill="white" stroke="#666666" points="129.25,-41.75 0,-41.75 0,0 129.25,0 129.25,-41.75"/>
<text text-anchor="start" x="8" y="-28.25" font-family="Helvetica,sans-Serif" font-size="10.00">/github/workspace/SRC</text>
<text text-anchor="start" x="8" y="-17" font-family="Helvetica,sans-Serif" font-size="10.00">/BASE/HELPERS/prepare</text>
<text text-anchor="middle" x="64.62" y="-5.75" font-family="Helvetica,sans-Serif" font-size="10.00">_computations.c</text>
</a>
</g>
</g>
<!-- Node1&#45;&gt;Node2 -->
<g id="edge1_Node000001_Node000002" class="edge">
<title>Node1&#45;&gt;Node2</title>
<g id="a_edge1_Node000001_Node000002"><a xlink:title=" ">
<path fill="none" stroke="#63b8ff" d="M373.17,-82.63C311.1,-73.76 217.84,-59.23 137.62,-41.75 134.93,-41.16 132.19,-40.54 129.42,-39.89"/>
<polygon fill="#63b8ff" stroke="#63b8ff" points="372.5,-86.07 382.89,-84 373.48,-79.14 372.5,-86.07"/>
</a>
</g>
</g>
<!-- Node3 -->
<g id="Node000003" class="node">
<title>Node3</title>
<g id="a_Node000003"><a xlink:href="ray__clone_8c.html" target="_top" xlink:title=" ">
<polygon fill="white" stroke="#666666" points="274.12,-36.12 147.12,-36.12 147.12,-5.62 274.12,-5.62 274.12,-36.12"/>
<text text-anchor="start" x="155.12" y="-22.62" font-family="Helvetica,sans-Serif" font-size="10.00">/github/workspace/SRC</text>
<text text-anchor="middle" x="210.62" y="-11.38" font-family="Helvetica,sans-Serif" font-size="10.00">/BASE/RAYS/ray_clone.c</text>
</a>
</g>
</g>
<!-- Node1&#45;&gt;Node3 -->
<g id="edge2_Node000001_Node000003" class="edge">
<title>Node1&#45;&gt;Node3</title>
<g id="a_edge2_Node000001_Node000003"><a xlink:title=" ">
<path fill="none" stroke="#63b8ff" d="M383.45,-74.11C344.95,-62.48 295.37,-47.49 259.2,-36.56"/>
<polygon fill="#63b8ff" stroke="#63b8ff" points="381.96,-77.32 392.54,-76.86 383.98,-70.62 381.96,-77.32"/>
</a>
</g>
</g>
<!-- Node4 -->
<g id="Node000004" class="node">
<title>Node4</title>
<g id="a_Node000004"><a xlink:href="ray__intersect_8c.html" target="_top" xlink:title=" ">
<polygon fill="white" stroke="#666666" points="433.25,-36.12 292,-36.12 292,-5.62 433.25,-5.62 433.25,-36.12"/>
<text text-anchor="start" x="300" y="-22.62" font-family="Helvetica,sans-Serif" font-size="10.00">/github/workspace/SRC</text>
<text text-anchor="middle" x="362.62" y="-11.38" font-family="Helvetica,sans-Serif" font-size="10.00">/BASE/RAYS/ray_intersect.c</text>
</a>
</g>
</g>
<!-- Node1&#45;&gt;Node4 -->
<g id="edge3_Node000001_Node000004" class="edge">
<title>Node1&#45;&gt;Node4</title>
<g id="a_edge3_Node000001_Node000004"><a xlink:title=" ">
<path fill="none" stroke="#63b8ff" d="M417.44,-69.92C404.95,-58.98 390.22,-46.07 379.18,-36.39"/>
<polygon fill="#63b8ff" stroke="#63b8ff" points="415.08,-72.51 424.91,-76.47 419.7,-67.25 415.08,-72.51"/>
</a>
</g>
</g>
<!-- Node5 -->
<g id="Node000005" class="node">
<title>Node5</title>
<g id="a_Node000005"><a xlink:href="ray__transform_8c.html" target="_top" xlink:title=" ">
<polygon fill="white" stroke="#666666" points="596.12,-36.12 451.12,-36.12 451.12,-5.62 596.12,-5.62 596.12,-36.12"/>
<text text-anchor="start" x="459.12" y="-22.62" font-family="Helvetica,sans-Serif" font-size="10.00">/github/workspace/SRC</text>
<text text-anchor="middle" x="523.62" y="-11.38" font-family="Helvetica,sans-Serif" font-size="10.00">/BASE/RAYS/ray_transform.c</text>
</a>
</g>
</g>
<!-- Node1&#45;&gt;Node5 -->
<g id="edge4_Node000001_Node000005" class="edge">
<title>Node1&#45;&gt;Node5</title>
<g id="a_edge4_Node000001_Node000005"><a xlink:title=" ">
<path fill="none" stroke="#63b8ff" d="M467.76,-70.24C480.48,-59.23 495.57,-46.16 506.86,-36.39"/>
<polygon fill="#63b8ff" stroke="#63b8ff" points="465.82,-67.29 460.55,-76.48 470.4,-72.58 465.82,-67.29"/>
</a>
</g>
</g>
<!-- Node6 -->
<g id="Node000006" class="node">
<title>Node6</title>
<g id="a_Node000006"><a xlink:href="ray__world__intersect_8c.html" target="_top" xlink:title=" ">
<polygon fill="white" stroke="#666666" points="733.38,-41.75 613.88,-41.75 613.88,0 733.38,0 733.38,-41.75"/>
<text text-anchor="start" x="621.88" y="-28.25" font-family="Helvetica,sans-Serif" font-size="10.00">/github/workspace/SRC</text>
<text text-anchor="start" x="621.88" y="-17" font-family="Helvetica,sans-Serif" font-size="10.00">/BASE/RAYS/ray_world</text>
<text text-anchor="middle" x="673.62" y="-5.75" font-family="Helvetica,sans-Serif" font-size="10.00">_intersect.c</text>
</a>
</g>
</g>
<!-- Node1&#45;&gt;Node6 -->
<g id="edge5_Node000001_Node000006" class="edge">
<title>Node1&#45;&gt;Node6</title>
<g id="a_edge5_Node000001_Node000006"><a xlink:title=" ">
<path fill="none" stroke="#63b8ff" d="M501.87,-74.02C536.2,-63.59 579.32,-50.5 613.76,-40.05"/>
<polygon fill="#63b8ff" stroke="#63b8ff" points="501.05,-70.61 492.5,-76.86 503.08,-77.3 501.05,-70.61"/>
</a>
</g>
</g>
<!-- Node7 -->
<g id="Node000007" class="node">
<title>Node7</title>
<g id="a_Node000007"><a xlink:href="obj__render_8c.html" target="_top" xlink:title=" ">
<polygon fill="white" stroke="#666666" points="903.5,-36.12 751.75,-36.12 751.75,-5.62 903.5,-5.62 903.5,-36.12"/>
<text text-anchor="start" x="759.75" y="-22.62" font-family="Helvetica,sans-Serif" font-size="10.00">/github/workspace/SRC</text>
<text text-anchor="middle" x="827.62" y="-11.38" font-family="Helvetica,sans-Serif" font-size="10.00">/OBJECTS/UTILS/obj_render.c</text>
</a>
</g>
</g>
<!-- Node1&#45;&gt;Node7 -->
<g id="edge6_Node000001_Node000007" class="edge">
<title>Node1&#45;&gt;Node7</title>
<g id="a_edge6_Node000001_Node000007"><a xlink:title=" ">
<path fill="none" stroke="#63b8ff" d="M511.92,-81.68C572.87,-72.29 663.9,-57.53 742.62,-41.75 750.5,-40.17 758.76,-38.39 766.9,-36.57"/>
<polygon fill="#63b8ff" stroke="#63b8ff" points="511.75,-78.16 502.39,-83.14 512.81,-85.08 511.75,-78.16"/>
</a>
</g>
</g>
</g>
</svg>
