<?xml version="1.0" encoding="UTF-8" standalone="no"?>
<!DOCTYPE svg PUBLIC "-//W3C//DTD SVG 1.1//EN"
 "http://www.w3.org/Graphics/SVG/1.1/DTD/svg11.dtd">
<!-- Generated by graphviz version 9.0.0 (20230911.1827)
 -->
<!-- Title: /github/workspace/INC/base_colours.h Pages: 1 -->
<svg width="320pt" height="105pt"
 viewBox="0.00 0.00 320.25 105.00" xmlns="http://www.w3.org/2000/svg" xmlns:xlink="http://www.w3.org/1999/xlink">
<g id="graph0" class="graph" transform="scale(1 1) rotate(0) translate(4 101)">
<title>/github/workspace/INC/base_colours.h</title>
<!-- Node1 -->
<g id="Node000001" class="node">
<title>Node1</title>
<g id="a_Node000001"><a xlink:title=" ">
<polygon fill="#999999" stroke="#666666" points="218.38,-97 102.62,-97 102.62,-66.5 218.38,-66.5 218.38,-97"/>
<text text-anchor="start" x="110.62" y="-83.5" font-family="Helvetica,sans-Serif" font-size="10.00">/github/workspace/INC</text>
<text text-anchor="middle" x="160.5" y="-72.25" font-family="Helvetica,sans-Serif" font-size="10.00">/base_colours.h</text>
</a>
</g>
</g>
<!-- Node2 -->
<g id="Node000002" class="node">
<title>Node2</title>
<g id="a_Node000002"><a xlink:href="create__ppm_8c.html" target="_top" xlink:title=" ">
<polygon fill="white" stroke="#666666" points="157,-30.5 0,-30.5 0,0 157,0 157,-30.5"/>
<text text-anchor="start" x="8" y="-17" font-family="Helvetica,sans-Serif" font-size="10.00">/github/workspace/SRC</text>
<text text-anchor="middle" x="78.5" y="-5.75" font-family="Helvetica,sans-Serif" font-size="10.00">/FEATURES/PPM/create_ppm.c</text>
</a>
</g>
</g>
<!-- Node1&#45;&gt;Node2 -->
<g id="edge1_Node000001_Node000002" class="edge">
<title>Node1&#45;&gt;Node2</title>
<g id="a_edge1_Node000001_Node000002"><a xlink:title=" ">
<path fill="none" stroke="#63b8ff" d="M132.87,-59.02C121.07,-49.73 107.61,-39.15 97.03,-30.83"/>
<polygon fill="#63b8ff" stroke="#63b8ff" points="130.68,-61.75 140.7,-65.18 135.01,-56.24 130.68,-61.75"/>
</a>
</g>
</g>
<!-- Node3 -->
<g id="Node000003" class="node">
<title>Node3</title>
<g id="a_Node000003"><a xlink:href="lighting_8c.html" target="_top" xlink:title=" ">
<polygon fill="white" stroke="#666666" points="312.25,-30.5 174.75,-30.5 174.75,0 312.25,0 312.25,-30.5"/>
<text text-anchor="start" x="182.75" y="-17" font-family="Helvetica,sans-Serif" font-size="10.00">/github/workspace/SRC</text>
<text text-anchor="middle" x="243.5" y="-5.75" font-family="Helvetica,sans-Serif" font-size="10.00">/PHYSICS/LIGHT/lighting.c</text>
</a>
</g>
</g>
<!-- Node1&#45;&gt;Node3 -->
<g id="edge2_Node000001_Node000003" class="edge">
<title>Node1&#45;&gt;Node3</title>
<g id="a_edge2_Node000001_Node000003"><a xlink:title=" ">
<path fill="none" stroke="#63b8ff" d="M188.11,-59.29C200.14,-49.94 213.93,-39.23 224.74,-30.83"/>
<polygon fill="#63b8ff" stroke="#63b8ff" points="186.28,-56.29 180.53,-65.19 190.57,-61.81 186.28,-56.29"/>
</a>
</g>
</g>
</g>
</svg>
