<?xml version="1.0" encoding="UTF-8" standalone="no"?>
<!DOCTYPE svg PUBLIC "-//W3C//DTD SVG 1.1//EN"
 "http://www.w3.org/Graphics/SVG/1.1/DTD/svg11.dtd">
<!-- Generated by graphviz version 9.0.0 (20230911.1827)
 -->
<!-- Title: matrix_transpose Pages: 1 -->
<svg width="400pt" height="64pt"
 viewBox="0.00 0.00 399.75 64.25" xmlns="http://www.w3.org/2000/svg" xmlns:xlink="http://www.w3.org/1999/xlink">
<g id="graph0" class="graph" transform="scale(1 1) rotate(0) translate(4 60.25)">
<title>matrix_transpose</title>
<!-- Node1 -->
<g id="Node000001" class="node">
<title>Node1</title>
<g id="a_Node000001"><a xlink:title=" ">
<polygon fill="#999999" stroke="#666666" points="90.25,-37.25 0,-37.25 0,-18 90.25,-18 90.25,-37.25"/>
<text text-anchor="middle" x="45.12" y="-23.75" font-family="Helvetica,sans-Serif" font-size="10.00">matrix_transpose</text>
</a>
</g>
</g>
<!-- Node2 -->
<g id="Node000002" class="node">
<title>Node2</title>
<g id="a_Node000002"><a xlink:href="matrix__create_8c.html#a5291384d37d735f9c3fc33c03d2788ad" target="_top" xlink:title=" ">
<polygon fill="white" stroke="#666666" points="200.75,-37.25 126.25,-37.25 126.25,-18 200.75,-18 200.75,-37.25"/>
<text text-anchor="middle" x="163.5" y="-23.75" font-family="Helvetica,sans-Serif" font-size="10.00">matrix_create</text>
</a>
</g>
</g>
<!-- Node1&#45;&gt;Node2 -->
<g id="edge1_Node000001_Node000002" class="edge">
<title>Node1&#45;&gt;Node2</title>
<g id="a_edge1_Node000001_Node000002"><a xlink:title=" ">
<path fill="none" stroke="#63b8ff" d="M90.45,-27.62C98.31,-27.62 106.52,-27.62 114.47,-27.62"/>
<polygon fill="#63b8ff" stroke="#63b8ff" points="114.35,-31.13 124.35,-27.63 114.35,-24.13 114.35,-31.13"/>
</a>
</g>
</g>
<!-- Node3 -->
<g id="Node000003" class="node">
<title>Node3</title>
<g id="a_Node000003"><a xlink:href="free__dptr_8c.html#aaa705b6d12fb1a9a15e6103879ec0ea0" target="_top" xlink:title=" ">
<polygon fill="white" stroke="#666666" points="298.12,-56.25 243.88,-56.25 243.88,-37 298.12,-37 298.12,-56.25"/>
<text text-anchor="middle" x="271" y="-42.75" font-family="Helvetica,sans-Serif" font-size="10.00">free_dptr</text>
</a>
</g>
</g>
<!-- Node2&#45;&gt;Node3 -->
<g id="edge2_Node000002_Node000003" class="edge">
<title>Node2&#45;&gt;Node3</title>
<g id="a_edge2_Node000002_Node000003"><a xlink:title=" ">
<path fill="none" stroke="#63b8ff" d="M201.1,-34.22C211.22,-36.04 222.22,-38.02 232.39,-39.85"/>
<polygon fill="#63b8ff" stroke="#63b8ff" points="231.49,-43.25 241.95,-41.57 232.73,-36.36 231.49,-43.25"/>
</a>
</g>
</g>
<!-- Node4 -->
<g id="Node000004" class="node">
<title>Node4</title>
<g id="a_Node000004"><a xlink:href="safe__malloc_8c.html#ab8bcda0e59b6f8eab1bfd9f92de50c6c" target="_top" xlink:title=" ">
<polygon fill="white" stroke="#666666" points="305.25,-19.25 236.75,-19.25 236.75,0 305.25,0 305.25,-19.25"/>
<text text-anchor="middle" x="271" y="-5.75" font-family="Helvetica,sans-Serif" font-size="10.00">safe_malloc</text>
</a>
</g>
</g>
<!-- Node2&#45;&gt;Node4 -->
<g id="edge3_Node000002_Node000004" class="edge">
<title>Node2&#45;&gt;Node4</title>
<g id="a_edge3_Node000002_Node000004"><a xlink:title=" ">
<path fill="none" stroke="#63b8ff" d="M201.1,-21.38C208.87,-20.05 217.15,-18.64 225.18,-17.27"/>
<polygon fill="#63b8ff" stroke="#63b8ff" points="225.53,-20.76 234.8,-15.63 224.35,-13.86 225.53,-20.76"/>
</a>
</g>
</g>
<!-- Node5 -->
<g id="Node000005" class="node">
<title>Node5</title>
<g id="a_Node000005"><a xlink:href="LIBFT_2ft__bzero_8c.html#a5937ab0d08e31d0e3e4a16ec71e293a1" target="_top" xlink:title=" ">
<polygon fill="white" stroke="#666666" points="391.75,-19.25 341.25,-19.25 341.25,0 391.75,0 391.75,-19.25"/>
<text text-anchor="middle" x="366.5" y="-5.75" font-family="Helvetica,sans-Serif" font-size="10.00">ft_bzero</text>
</a>
</g>
</g>
<!-- Node4&#45;&gt;Node5 -->
<g id="edge4_Node000004_Node000005" class="edge">
<title>Node4&#45;&gt;Node5</title>
<g id="a_edge4_Node000004_Node000005"><a xlink:title=" ">
<path fill="none" stroke="#63b8ff" d="M305.49,-9.62C313.38,-9.62 321.81,-9.62 329.79,-9.62"/>
<polygon fill="#63b8ff" stroke="#63b8ff" points="329.53,-13.13 339.53,-9.63 329.53,-6.13 329.53,-13.13"/>
</a>
</g>
</g>
</g>
</svg>
