<?xml version="1.0" encoding="UTF-8" standalone="no"?>
<!DOCTYPE svg PUBLIC "-//W3C//DTD SVG 1.1//EN"
 "http://www.w3.org/Graphics/SVG/1.1/DTD/svg11.dtd">
<!-- Generated by graphviz version 9.0.0 (20230911.1827)
 -->
<!-- Title: matrix_determinants Pages: 1 -->
<svg width="413pt" height="82pt"
 viewBox="0.00 0.00 413.25 82.25" xmlns="http://www.w3.org/2000/svg" xmlns:xlink="http://www.w3.org/1999/xlink">
<g id="graph0" class="graph" transform="scale(1 1) rotate(0) translate(4 78.25)">
<title>matrix_determinants</title>
<!-- Node1 -->
<g id="Node000001" class="node">
<title>Node1</title>
<g id="a_Node000001"><a xlink:title=" ">
<polygon fill="#999999" stroke="#666666" points="103.75,-55.25 0,-55.25 0,-36 103.75,-36 103.75,-55.25"/>
<text text-anchor="middle" x="51.88" y="-41.75" font-family="Helvetica,sans-Serif" font-size="10.00">matrix_determinants</text>
</a>
</g>
</g>
<!-- Node1&#45;&gt;Node1 -->
<g id="edge6_Node000001_Node000001" class="edge">
<title>Node1&#45;&gt;Node1</title>
<g id="a_edge6_Node000001_Node000001"><a xlink:title=" ">
<path fill="none" stroke="#63b8ff" d="M32.29,-55.54C23.35,-64.15 29.88,-73.25 51.88,-73.25 63.9,-73.25 71.31,-70.53 74.08,-66.65"/>
<polygon fill="#63b8ff" stroke="#63b8ff" points="77.51,-65.94 71.81,-57.01 70.7,-67.55 77.51,-65.94"/>
</a>
</g>
</g>
<!-- Node2 -->
<g id="Node000002" class="node">
<title>Node2</title>
<g id="a_Node000002"><a xlink:href="matrix__free_8c.html#ab28d26aa6d34d5c2a3b83b9ee519fec6" target="_top" xlink:title=" ">
<polygon fill="white" stroke="#666666" points="209,-74.25 145,-74.25 145,-55 209,-55 209,-74.25"/>
<text text-anchor="middle" x="177" y="-60.75" font-family="Helvetica,sans-Serif" font-size="10.00">free_matrix</text>
</a>
</g>
</g>
<!-- Node1&#45;&gt;Node2 -->
<g id="edge1_Node000001_Node000002" class="edge">
<title>Node1&#45;&gt;Node2</title>
<g id="a_edge1_Node000001_Node000002"><a xlink:title=" ">
<path fill="none" stroke="#63b8ff" d="M104.02,-53.52C113.79,-55.03 123.92,-56.59 133.39,-58.05"/>
<polygon fill="#63b8ff" stroke="#63b8ff" points="132.63,-61.47 143.05,-59.54 133.7,-54.56 132.63,-61.47"/>
</a>
</g>
</g>
<!-- Node3 -->
<g id="Node000003" class="node">
<title>Node3</title>
<g id="a_Node000003"><a xlink:href="matrix__create_8c.html#a5291384d37d735f9c3fc33c03d2788ad" target="_top" xlink:title=" ">
<polygon fill="white" stroke="#666666" points="214.25,-37.25 139.75,-37.25 139.75,-18 214.25,-18 214.25,-37.25"/>
<text text-anchor="middle" x="177" y="-23.75" font-family="Helvetica,sans-Serif" font-size="10.00">matrix_create</text>
</a>
</g>
</g>
<!-- Node1&#45;&gt;Node3 -->
<g id="edge2_Node000001_Node000003" class="edge">
<title>Node1&#45;&gt;Node3</title>
<g id="a_edge2_Node000001_Node000003"><a xlink:title=" ">
<path fill="none" stroke="#63b8ff" d="M104.02,-38.15C112.01,-36.98 120.24,-35.78 128.16,-34.62"/>
<polygon fill="#63b8ff" stroke="#63b8ff" points="128.57,-38.1 137.96,-33.19 127.56,-31.17 128.57,-38.1"/>
</a>
</g>
</g>
<!-- Node4 -->
<g id="Node000004" class="node">
<title>Node4</title>
<g id="a_Node000004"><a xlink:href="free__dptr_8c.html#aaa705b6d12fb1a9a15e6103879ec0ea0" target="_top" xlink:title=" ">
<polygon fill="white" stroke="#666666" points="311.62,-56.25 257.38,-56.25 257.38,-37 311.62,-37 311.62,-56.25"/>
<text text-anchor="middle" x="284.5" y="-42.75" font-family="Helvetica,sans-Serif" font-size="10.00">free_dptr</text>
</a>
</g>
</g>
<!-- Node3&#45;&gt;Node4 -->
<g id="edge3_Node000003_Node000004" class="edge">
<title>Node3&#45;&gt;Node4</title>
<g id="a_edge3_Node000003_Node000004"><a xlink:title=" ">
<path fill="none" stroke="#63b8ff" d="M214.6,-34.22C224.72,-36.04 235.72,-38.02 245.89,-39.85"/>
<polygon fill="#63b8ff" stroke="#63b8ff" points="244.99,-43.25 255.45,-41.57 246.23,-36.36 244.99,-43.25"/>
</a>
</g>
</g>
<!-- Node5 -->
<g id="Node000005" class="node">
<title>Node5</title>
<g id="a_Node000005"><a xlink:href="safe__malloc_8c.html#ab8bcda0e59b6f8eab1bfd9f92de50c6c" target="_top" xlink:title=" ">
<polygon fill="white" stroke="#666666" points="318.75,-19.25 250.25,-19.25 250.25,0 318.75,0 318.75,-19.25"/>
<text text-anchor="middle" x="284.5" y="-5.75" font-family="Helvetica,sans-Serif" font-size="10.00">safe_malloc</text>
</a>
</g>
</g>
<!-- Node3&#45;&gt;Node5 -->
<g id="edge4_Node000003_Node000005" class="edge">
<title>Node3&#45;&gt;Node5</title>
<g id="a_edge4_Node000003_Node000005"><a xlink:title=" ">
<path fill="none" stroke="#63b8ff" d="M214.6,-21.38C222.37,-20.05 230.65,-18.64 238.68,-17.27"/>
<polygon fill="#63b8ff" stroke="#63b8ff" points="239.03,-20.76 248.3,-15.63 237.85,-13.86 239.03,-20.76"/>
</a>
</g>
</g>
<!-- Node6 -->
<g id="Node000006" class="node">
<title>Node6</title>
<g id="a_Node000006"><a xlink:href="LIBFT_2ft__bzero_8c.html#a5937ab0d08e31d0e3e4a16ec71e293a1" target="_top" xlink:title=" ">
<polygon fill="white" stroke="#666666" points="405.25,-19.25 354.75,-19.25 354.75,0 405.25,0 405.25,-19.25"/>
<text text-anchor="middle" x="380" y="-5.75" font-family="Helvetica,sans-Serif" font-size="10.00">ft_bzero</text>
</a>
</g>
</g>
<!-- Node5&#45;&gt;Node6 -->
<g id="edge5_Node000005_Node000006" class="edge">
<title>Node5&#45;&gt;Node6</title>
<g id="a_edge5_Node000005_Node000006"><a xlink:title=" ">
<path fill="none" stroke="#63b8ff" d="M318.99,-9.62C326.88,-9.62 335.31,-9.62 343.29,-9.62"/>
<polygon fill="#63b8ff" stroke="#63b8ff" points="343.03,-13.13 353.03,-9.63 343.03,-6.13 343.03,-13.13"/>
</a>
</g>
</g>
</g>
</svg>
