<?xml version="1.0" encoding="UTF-8" standalone="no"?>
<!DOCTYPE svg PUBLIC "-//W3C//DTD SVG 1.1//EN"
 "http://www.w3.org/Graphics/SVG/1.1/DTD/svg11.dtd">
<!-- Generated by graphviz version 9.0.0 (20230911.1827)
 -->
<!-- Title: free_matrix Pages: 1 -->
<svg width="820pt" height="565pt"
 viewBox="0.00 0.00 819.75 565.50" xmlns="http://www.w3.org/2000/svg" xmlns:xlink="http://www.w3.org/1999/xlink">
<g id="graph0" class="graph" transform="scale(1 1) rotate(0) translate(4 561.5)">
<title>free_matrix</title>
<!-- Node1 -->
<g id="Node000001" class="node">
<title>Node1</title>
<g id="a_Node000001"><a xlink:title=" ">
<polygon fill="#999999" stroke="#666666" points="811.75,-244.25 747.75,-244.25 747.75,-225 811.75,-225 811.75,-244.25"/>
<text text-anchor="middle" x="779.75" y="-230.75" font-family="Helvetica,sans-Serif" font-size="10.00">free_matrix</text>
</a>
</g>
</g>
<!-- Node2 -->
<g id="Node000002" class="node">
<title>Node2</title>
<g id="a_Node000002"><a xlink:href="cleanup_8c.html#a4d0401c5d47d3fbe2f286eae7eea7e19" target="_top" xlink:title=" ">
<polygon fill="white" stroke="#666666" points="409,-452.25 339,-452.25 339,-433 409,-433 409,-452.25"/>
<text text-anchor="middle" x="374" y="-438.75" font-family="Helvetica,sans-Serif" font-size="10.00">exit_cleanup</text>
</a>
</g>
</g>
<!-- Node1&#45;&gt;Node2 -->
<g id="edge1_Node000001_Node000002" class="edge">
<title>Node1&#45;&gt;Node2</title>
<g id="a_edge1_Node000001_Node000002"><a xlink:title=" ">
<path fill="none" stroke="#63b8ff" d="M777.77,-255.75C774.73,-294.21 762.33,-375.23 711.75,-413.62 621.42,-482.19 475.57,-463.76 409.5,-450.61"/>
<polygon fill="#63b8ff" stroke="#63b8ff" points="781.25,-256.17 778.38,-245.97 774.26,-255.73 781.25,-256.17"/>
</a>
</g>
</g>
<!-- Node9 -->
<g id="Node000009" class="node">
<title>Node9</title>
<g id="a_Node000009"><a xlink:href="camera__free_8c.html#adb2d203dedf4bc91b4c2c6d81a4e2d09" target="_top" xlink:title=" ">
<polygon fill="white" stroke="#666666" points="694.88,-339.25 624.88,-339.25 624.88,-320 694.88,-320 694.88,-339.25"/>
<text text-anchor="middle" x="659.88" y="-325.75" font-family="Helvetica,sans-Serif" font-size="10.00">free_camera</text>
</a>
</g>
</g>
<!-- Node1&#45;&gt;Node9 -->
<g id="edge13_Node000001_Node000009" class="edge">
<title>Node1&#45;&gt;Node9</title>
<g id="a_edge13_Node000001_Node000009"><a xlink:title=" ">
<path fill="none" stroke="#63b8ff" d="M764.57,-253.16C751.98,-268.68 732.43,-290.63 711.75,-305.62 704.24,-311.07 695.3,-315.78 687.02,-319.55"/>
<polygon fill="#63b8ff" stroke="#63b8ff" points="767.06,-255.66 770.51,-245.64 761.57,-251.32 767.06,-255.66"/>
</a>
</g>
</g>
<!-- Node10 -->
<g id="Node000010" class="node">
<title>Node10</title>
<g id="a_Node000010"><a xlink:href="obj__free_8c.html#a9aa81c78fd96dfbf51e16b6fc0cc4eff" target="_top" xlink:title=" ">
<polygon fill="white" stroke="#666666" points="691.88,-376.25 627.88,-376.25 627.88,-357 691.88,-357 691.88,-376.25"/>
<text text-anchor="middle" x="659.88" y="-362.75" font-family="Helvetica,sans-Serif" font-size="10.00">free_object</text>
</a>
</g>
</g>
<!-- Node1&#45;&gt;Node10 -->
<g id="edge14_Node000001_Node000010" class="edge">
<title>Node1&#45;&gt;Node10</title>
<g id="a_edge14_Node000001_Node000010"><a xlink:title=" ">
<path fill="none" stroke="#63b8ff" d="M771.65,-255.37C761.94,-280.78 742.17,-323.53 711.75,-348.62 706.11,-353.28 699.19,-356.76 692.28,-359.36"/>
<polygon fill="#63b8ff" stroke="#63b8ff" points="774.87,-256.76 774.99,-246.16 768.29,-254.37 774.87,-256.76"/>
</a>
</g>
</g>
<!-- Node13 -->
<g id="Node000013" class="node">
<title>Node13</title>
<g id="a_Node000013"><a xlink:href="obj__free_8c.html#a17507d61054a4f286419903a51a478f8" target="_top" xlink:title=" ">
<polygon fill="white" stroke="#666666" points="553.62,-414.25 484.38,-414.25 484.38,-395 553.62,-395 553.62,-414.25"/>
<text text-anchor="middle" x="519" y="-400.75" font-family="Helvetica,sans-Serif" font-size="10.00">free_objects</text>
</a>
</g>
</g>
<!-- Node1&#45;&gt;Node13 -->
<g id="edge18_Node000001_Node000013" class="edge">
<title>Node1&#45;&gt;Node13</title>
<g id="a_edge18_Node000001_Node000013"><a xlink:title=" ">
<path fill="none" stroke="#63b8ff" d="M776.1,-255.68C770.65,-289.3 754.82,-354.48 711.75,-385.62 665.39,-419.14 595.41,-416.36 554.05,-410.82"/>
<polygon fill="#63b8ff" stroke="#63b8ff" points="779.53,-256.37 777.5,-245.97 772.61,-255.37 779.53,-256.37"/>
</a>
</g>
</g>
<!-- Node14 -->
<g id="Node000014" class="node">
<title>Node14</title>
<g id="a_Node000014"><a xlink:href="ray__free_8c.html#a9383ed085976d00ada942863da06de89" target="_top" xlink:title=" ">
<polygon fill="white" stroke="#666666" points="685.12,-263.25 634.62,-263.25 634.62,-244 685.12,-244 685.12,-263.25"/>
<text text-anchor="middle" x="659.88" y="-249.75" font-family="Helvetica,sans-Serif" font-size="10.00">free_ray</text>
</a>
</g>
</g>
<!-- Node1&#45;&gt;Node14 -->
<g id="edge20_Node000001_Node000014" class="edge">
<title>Node1&#45;&gt;Node14</title>
<g id="a_edge20_Node000001_Node000014"><a xlink:title=" ">
<path fill="none" stroke="#63b8ff" d="M736.11,-241.5C719.13,-244.23 700.2,-247.29 685.57,-249.64"/>
<polygon fill="#63b8ff" stroke="#63b8ff" points="736.66,-244.95 745.98,-239.91 735.55,-238.04 736.66,-244.95"/>
</a>
</g>
</g>
<!-- Node15 -->
<g id="Node000015" class="node">
<title>Node15</title>
<g id="a_Node000015"><a xlink:href="ray__intersect_8c.html#a20cc82316845ecb42e8e8c218ff72a73" target="_top" xlink:title=" ">
<polygon fill="white" stroke="#666666" points="572,-263.25 466,-263.25 466,-244 572,-244 572,-263.25"/>
<text text-anchor="middle" x="519" y="-249.75" font-family="Helvetica,sans-Serif" font-size="10.00">ray_intersect_sphere</text>
</a>
</g>
</g>
<!-- Node1&#45;&gt;Node15 -->
<g id="edge31_Node000001_Node000015" class="edge">
<title>Node1&#45;&gt;Node15</title>
<g id="a_edge31_Node000001_Node000015"><a xlink:title=" ">
<path fill="none" stroke="#63b8ff" d="M756.67,-251.01C744.18,-259.25 727.87,-268.37 711.75,-272.62 657.09,-287.05 591.03,-274.15 552.45,-263.71"/>
<polygon fill="#63b8ff" stroke="#63b8ff" points="758.32,-254.13 764.55,-245.56 754.33,-248.37 758.32,-254.13"/>
</a>
</g>
</g>
<!-- Node17 -->
<g id="Node000017" class="node">
<title>Node17</title>
<g id="a_Node000017"><a xlink:href="sphere__free_8c.html#ac1f525d4000a7b4a6ef0388895487cd2" target="_top" xlink:title=" ">
<polygon fill="white" stroke="#666666" points="693.38,-150.25 626.38,-150.25 626.38,-131 693.38,-131 693.38,-150.25"/>
<text text-anchor="middle" x="659.88" y="-136.75" font-family="Helvetica,sans-Serif" font-size="10.00">free_sphere</text>
</a>
</g>
</g>
<!-- Node1&#45;&gt;Node17 -->
<g id="edge23_Node000001_Node000017" class="edge">
<title>Node1&#45;&gt;Node17</title>
<g id="a_edge23_Node000001_Node000017"><a xlink:title=" ">
<path fill="none" stroke="#63b8ff" d="M764.52,-216.36C751.9,-201.07 732.33,-179.44 711.75,-164.62 704.22,-159.2 695.27,-154.5 687,-150.73"/>
<polygon fill="#63b8ff" stroke="#63b8ff" points="761.48,-218.17 770.47,-223.76 766.93,-213.78 761.48,-218.17"/>
</a>
</g>
</g>
<!-- Node18 -->
<g id="Node000018" class="node">
<title>Node18</title>
<g id="a_Node000018"><a xlink:href="lighting_8c.html#ad035411c7e850248af38e7d68bb0ddd4" target="_top" xlink:title=" ">
<polygon fill="white" stroke="#666666" points="542.38,-93.25 495.62,-93.25 495.62,-74 542.38,-74 542.38,-93.25"/>
<text text-anchor="middle" x="519" y="-79.75" font-family="Helvetica,sans-Serif" font-size="10.00">lighting</text>
</a>
</g>
</g>
<!-- Node1&#45;&gt;Node18 -->
<g id="edge24_Node000001_Node000018" class="edge">
<title>Node1&#45;&gt;Node18</title>
<g id="a_edge24_Node000001_Node000018"><a xlink:title=" ">
<path fill="none" stroke="#63b8ff" d="M772.29,-213.72C763.16,-187.83 743.9,-144.36 711.75,-121.62 659.8,-84.88 581.09,-81.58 542.68,-82.44"/>
<polygon fill="#63b8ff" stroke="#63b8ff" points="768.94,-214.72 775.4,-223.11 775.58,-212.52 768.94,-214.72"/>
</a>
</g>
</g>
<!-- Node19 -->
<g id="Node000019" class="node">
<title>Node19</title>
<g id="a_Node000019"><a xlink:href="matrix__determinants_8c.html#a27e06277b887c9f90b2a00a60b0c81fe" target="_top" xlink:title=" ">
<polygon fill="white" stroke="#666666" points="711.75,-19.25 608,-19.25 608,0 711.75,0 711.75,-19.25"/>
<text text-anchor="middle" x="659.88" y="-5.75" font-family="Helvetica,sans-Serif" font-size="10.00">matrix_determinants</text>
</a>
</g>
</g>
<!-- Node1&#45;&gt;Node19 -->
<g id="edge25_Node000001_Node000019" class="edge">
<title>Node1&#45;&gt;Node19</title>
<g id="a_edge25_Node000001_Node000019"><a xlink:title=" ">
<path fill="none" stroke="#63b8ff" d="M775.6,-213.68C769.16,-176.58 751.58,-98.25 711.75,-45.62 703.52,-34.75 691.07,-25.86 680.54,-19.64"/>
<polygon fill="#63b8ff" stroke="#63b8ff" points="772.07,-213.79 777.13,-223.09 778.98,-212.66 772.07,-213.79"/>
</a>
</g>
</g>
<!-- Node20 -->
<g id="Node000020" class="node">
<title>Node20</title>
<g id="a_Node000020"><a xlink:href="matrix__inverse_8c.html#a38c4dbf43aa6a2d976c3f77297ecd403" target="_top" xlink:title=" ">
<polygon fill="white" stroke="#666666" points="699.38,-226.25 620.38,-226.25 620.38,-207 699.38,-207 699.38,-226.25"/>
<text text-anchor="middle" x="659.88" y="-212.75" font-family="Helvetica,sans-Serif" font-size="10.00">matrix_inverse</text>
</a>
</g>
</g>
<!-- Node1&#45;&gt;Node20 -->
<g id="edge27_Node000001_Node000020" class="edge">
<title>Node1&#45;&gt;Node20</title>
<g id="a_edge27_Node000001_Node000020"><a xlink:title=" ">
<path fill="none" stroke="#63b8ff" d="M736.32,-228.15C724.28,-226.31 711.26,-224.32 699.47,-222.52"/>
<polygon fill="#63b8ff" stroke="#63b8ff" points="735.56,-231.57 745.97,-229.62 736.62,-224.65 735.56,-231.57"/>
</a>
</g>
</g>
<!-- Node21 -->
<g id="Node000021" class="node">
<title>Node21</title>
<g id="a_Node000021"><a xlink:href="sphere__normal_8c.html#a7f90156067fc9db4452ca1b058c976e8" target="_top" xlink:title=" ">
<polygon fill="white" stroke="#666666" points="558.88,-207.25 479.12,-207.25 479.12,-188 558.88,-188 558.88,-207.25"/>
<text text-anchor="middle" x="519" y="-193.75" font-family="Helvetica,sans-Serif" font-size="10.00">sphere_normal</text>
</a>
</g>
</g>
<!-- Node1&#45;&gt;Node21 -->
<g id="edge34_Node000001_Node000021" class="edge">
<title>Node1&#45;&gt;Node21</title>
<g id="a_edge34_Node000001_Node000021"><a xlink:title=" ">
<path fill="none" stroke="#63b8ff" d="M756.24,-218.43C743.78,-210.47 727.63,-201.72 711.75,-197.62 660.33,-184.37 598.55,-187.63 559.28,-191.98"/>
<polygon fill="#63b8ff" stroke="#63b8ff" points="754.24,-221.3 764.49,-223.97 758.14,-215.49 754.24,-221.3"/>
</a>
</g>
</g>
<!-- Node23 -->
<g id="Node000023" class="node">
<title>Node23</title>
<g id="a_Node000023"><a xlink:href="reflect_8c.html#a9a14a2740fe14a6f96d7b3ef0cffeb61" target="_top" xlink:title=" ">
<polygon fill="white" stroke="#666666" points="681,-74.25 638.75,-74.25 638.75,-55 681,-55 681,-74.25"/>
<text text-anchor="middle" x="659.88" y="-60.75" font-family="Helvetica,sans-Serif" font-size="10.00">reflect</text>
</a>
</g>
</g>
<!-- Node1&#45;&gt;Node23 -->
<g id="edge32_Node000001_Node000023" class="edge">
<title>Node1&#45;&gt;Node23</title>
<g id="a_edge32_Node000001_Node000023"><a xlink:title=" ">
<path fill="none" stroke="#63b8ff" d="M774.02,-213.64C766.06,-182.67 747.27,-124.52 711.75,-88.62 703.44,-80.23 691.62,-74.4 681.46,-70.6"/>
<polygon fill="#63b8ff" stroke="#63b8ff" points="770.6,-214.4 776.35,-223.29 777.4,-212.75 770.6,-214.4"/>
</a>
</g>
</g>
<!-- Node3 -->
<g id="Node000003" class="node">
<title>Node3</title>
<g id="a_Node000003"><a xlink:href="init__lux_8c.html#aa725d1fe6d2725add14a565bb5c1b995" target="_top" xlink:title=" ">
<polygon fill="white" stroke="#666666" points="257.25,-528.25 211.25,-528.25 211.25,-509 257.25,-509 257.25,-528.25"/>
<text text-anchor="middle" x="234.25" y="-514.75" font-family="Helvetica,sans-Serif" font-size="10.00">init_lux</text>
</a>
</g>
</g>
<!-- Node2&#45;&gt;Node3 -->
<g id="edge2_Node000002_Node000003" class="edge">
<title>Node2&#45;&gt;Node3</title>
<g id="a_edge2_Node000002_Node000003"><a xlink:title=" ">
<path fill="none" stroke="#63b8ff" d="M346.2,-458.36C328.17,-468.84 303.8,-482.81 282,-494.62 273.34,-499.32 263.66,-504.33 255.37,-508.54"/>
<polygon fill="#63b8ff" stroke="#63b8ff" points="347.84,-461.46 354.71,-453.39 344.31,-455.41 347.84,-461.46"/>
</a>
</g>
</g>
<!-- Node4 -->
<g id="Node000004" class="node">
<title>Node4</title>
<g id="a_Node000004"><a xlink:href="mini__ray_8c.html#a0c99d968a34e803d378692bde2e3f18f" target="_top" xlink:title=" ">
<polygon fill="white" stroke="#666666" points="37,-490.25 0,-490.25 0,-471 37,-471 37,-490.25"/>
<text text-anchor="middle" x="18.5" y="-476.75" font-family="Helvetica,sans-Serif" font-size="10.00">main</text>
</a>
</g>
</g>
<!-- Node2&#45;&gt;Node4 -->
<g id="edge8_Node000002_Node000004" class="edge">
<title>Node2&#45;&gt;Node4</title>
<g id="a_edge8_Node000002_Node000004"><a xlink:title=" ">
<path fill="none" stroke="#63b8ff" d="M361.4,-462.09C346.4,-485.13 317.88,-522.31 282,-537.62 196.25,-574.23 159.1,-555.38 73,-519.62 56.44,-512.75 40.2,-499.77 30.03,-490.68"/>
<polygon fill="#63b8ff" stroke="#63b8ff" points="364.18,-464.24 366.52,-453.91 358.25,-460.53 364.18,-464.24"/>
</a>
</g>
</g>
<!-- Node5 -->
<g id="Node000005" class="node">
<title>Node5</title>
<g id="a_Node000005"><a xlink:href="init__mlx_8c.html#a1a6dc2f71f09a4fb49ab62f2e83ef424" target="_top" xlink:title=" ">
<polygon fill="white" stroke="#666666" points="136.25,-490.25 87.25,-490.25 87.25,-471 136.25,-471 136.25,-490.25"/>
<text text-anchor="middle" x="111.75" y="-476.75" font-family="Helvetica,sans-Serif" font-size="10.00">init_mlx</text>
</a>
</g>
</g>
<!-- Node2&#45;&gt;Node5 -->
<g id="edge4_Node000002_Node000005" class="edge">
<title>Node2&#45;&gt;Node5</title>
<g id="a_edge4_Node000002_Node000005"><a xlink:title=" ">
<path fill="none" stroke="#63b8ff" d="M327.61,-449.72C313.05,-451.96 296.85,-454.43 282,-456.62 230.18,-464.28 169.36,-472.79 136.59,-477.33"/>
<polygon fill="#63b8ff" stroke="#63b8ff" points="328.03,-453.19 337.38,-448.2 326.96,-446.27 328.03,-453.19"/>
</a>
</g>
</g>
<!-- Node6 -->
<g id="Node000006" class="node">
<title>Node6</title>
<g id="a_Node000006"><a xlink:href="input__validate_8c.html#a1497d4d5fc8fdfecbe3b36df53d2195f" target="_top" xlink:title="Validating if argument count is 2 (exe and 1 extra) and the extra is a .rt file and we have permissio...">
<polygon fill="white" stroke="#666666" points="149.75,-452.25 73.75,-452.25 73.75,-433 149.75,-433 149.75,-452.25"/>
<text text-anchor="middle" x="111.75" y="-438.75" font-family="Helvetica,sans-Serif" font-size="10.00">input_validate</text>
</a>
</g>
</g>
<!-- Node2&#45;&gt;Node6 -->
<g id="edge6_Node000002_Node000006" class="edge">
<title>Node2&#45;&gt;Node6</title>
<g id="a_edge6_Node000002_Node000006"><a xlink:title=" ">
<path fill="none" stroke="#63b8ff" d="M327.51,-442.62C277.14,-442.62 196.89,-442.62 150.06,-442.62"/>
<polygon fill="#63b8ff" stroke="#63b8ff" points="327.2,-446.13 337.2,-442.63 327.2,-439.13 327.2,-446.13"/>
</a>
</g>
</g>
<!-- Node7 -->
<g id="Node000007" class="node">
<title>Node7</title>
<g id="a_Node000007"><a xlink:href="parse__main_8c.html#a62c4de2f960942eba61e7de12c387ae4" target="_top" xlink:title="Entry function to parsing .rt file where the file is attempted to be opened, t_parse structure is ini...">
<polygon fill="white" stroke="#666666" points="150.5,-414.25 73,-414.25 73,-395 150.5,-395 150.5,-414.25"/>
<text text-anchor="middle" x="111.75" y="-400.75" font-family="Helvetica,sans-Serif" font-size="10.00">parse_rt_main</text>
</a>
</g>
</g>
<!-- Node2&#45;&gt;Node7 -->
<g id="edge9_Node000002_Node000007" class="edge">
<title>Node2&#45;&gt;Node7</title>
<g id="a_edge9_Node000002_Node000007"><a xlink:title=" ">
<path fill="none" stroke="#63b8ff" d="M327.58,-435.99C277.52,-428.68 197.88,-417.06 150.92,-410.2"/>
<polygon fill="#63b8ff" stroke="#63b8ff" points="326.81,-439.42 337.21,-437.4 327.82,-432.49 326.81,-439.42"/>
</a>
</g>
</g>
<!-- Node8 -->
<g id="Node000008" class="node">
<title>Node8</title>
<g id="a_Node000008"><a xlink:href="parse__main_8c.html#a5d7da6ab7925ffda04b676ef38880723" target="_top" xlink:title="Reading a line from the given .rt file and splitting the given line with the space (&#39; &#39;) delimiter....">
<polygon fill="white" stroke="#666666" points="282,-376.25 186.5,-376.25 186.5,-357 282,-357 282,-376.25"/>
<text text-anchor="middle" x="234.25" y="-362.75" font-family="Helvetica,sans-Serif" font-size="10.00">parse_rt_read_line</text>
</a>
</g>
</g>
<!-- Node2&#45;&gt;Node8 -->
<g id="edge11_Node000002_Node000008" class="edge">
<title>Node2&#45;&gt;Node8</title>
<g id="a_edge11_Node000002_Node000008"><a xlink:title=" ">
<path fill="none" stroke="#63b8ff" d="M346.2,-426.89C328.17,-416.41 303.8,-402.44 282,-390.62 273.34,-385.93 263.66,-380.92 255.37,-376.71"/>
<polygon fill="#63b8ff" stroke="#63b8ff" points="344.31,-429.84 354.71,-431.86 347.84,-423.79 344.31,-429.84"/>
</a>
</g>
</g>
<!-- Node3&#45;&gt;Node4 -->
<g id="edge3_Node000003_Node000004" class="edge">
<title>Node3&#45;&gt;Node4</title>
<g id="a_edge3_Node000003_Node000004"><a xlink:title=" ">
<path fill="none" stroke="#63b8ff" d="M199.78,-516.84C167.1,-514.58 116.13,-509.71 73,-499.62 60.71,-496.75 47.34,-492 37.04,-487.97"/>
<polygon fill="#63b8ff" stroke="#63b8ff" points="199.23,-520.31 209.44,-517.46 199.68,-513.32 199.23,-520.31"/>
</a>
</g>
</g>
<!-- Node5&#45;&gt;Node4 -->
<g id="edge5_Node000005_Node000004" class="edge">
<title>Node5&#45;&gt;Node4</title>
<g id="a_edge5_Node000005_Node000004"><a xlink:title=" ">
<path fill="none" stroke="#63b8ff" d="M75.27,-480.62C62.25,-480.62 48.06,-480.62 37.26,-480.62"/>
<polygon fill="#63b8ff" stroke="#63b8ff" points="75.26,-484.13 85.26,-480.63 75.26,-477.13 75.26,-484.13"/>
</a>
</g>
</g>
<!-- Node6&#45;&gt;Node4 -->
<g id="edge7_Node000006_Node000004" class="edge">
<title>Node6&#45;&gt;Node4</title>
<g id="a_edge7_Node000006_Node000004"><a xlink:title=" ">
<path fill="none" stroke="#63b8ff" d="M76.46,-456.9C63.12,-462.46 48.4,-468.59 37.26,-473.23"/>
<polygon fill="#63b8ff" stroke="#63b8ff" points="77.49,-460.27 85.38,-453.19 74.8,-453.8 77.49,-460.27"/>
</a>
</g>
</g>
<!-- Node7&#45;&gt;Node4 -->
<g id="edge10_Node000007_Node000004" class="edge">
<title>Node7&#45;&gt;Node4</title>
<g id="a_edge10_Node000007_Node000004"><a xlink:title=" ">
<path fill="none" stroke="#63b8ff" d="M77.81,-420.3C76.15,-421.37 74.54,-422.48 73,-423.62 54.3,-437.6 36.58,-458.52 26.96,-470.75"/>
<polygon fill="#63b8ff" stroke="#63b8ff" points="79.4,-423.42 86.32,-415.4 75.91,-417.36 79.4,-423.42"/>
</a>
</g>
</g>
<!-- Node8&#45;&gt;Node7 -->
<g id="edge12_Node000008_Node000007" class="edge">
<title>Node8&#45;&gt;Node7</title>
<g id="a_edge12_Node000008_Node000007"><a xlink:title=" ">
<path fill="none" stroke="#63b8ff" d="M190.57,-380.09C175.38,-384.87 158.56,-390.18 144.46,-394.63"/>
<polygon fill="#63b8ff" stroke="#63b8ff" points="191.35,-383.51 199.83,-377.16 189.24,-376.83 191.35,-383.51"/>
</a>
</g>
</g>
<!-- Node11 -->
<g id="Node000011" class="node">
<title>Node11</title>
<g id="a_Node000011"><a xlink:href="parse__objects_8c.html#a6ab66800bec24ca2d8c0f6c781558f65" target="_top" xlink:title=" ">
<polygon fill="white" stroke="#666666" points="556.25,-376.25 481.75,-376.25 481.75,-357 556.25,-357 556.25,-376.25"/>
<text text-anchor="middle" x="519" y="-362.75" font-family="Helvetica,sans-Serif" font-size="10.00">parse_sphere</text>
</a>
</g>
</g>
<!-- Node10&#45;&gt;Node11 -->
<g id="edge15_Node000010_Node000011" class="edge">
<title>Node10&#45;&gt;Node11</title>
<g id="a_edge15_Node000010_Node000011"><a xlink:title=" ">
<path fill="none" stroke="#63b8ff" d="M616.32,-366.62C597.27,-366.62 575.03,-366.62 556.72,-366.62"/>
<polygon fill="#63b8ff" stroke="#63b8ff" points="616.2,-370.13 626.2,-366.63 616.2,-363.13 616.2,-370.13"/>
</a>
</g>
</g>
<!-- Node12 -->
<g id="Node000012" class="node">
<title>Node12</title>
<g id="a_Node000012"><a xlink:href="parse__main_8c.html#a92aa268ea4b3d5c808364ca73d913cbe" target="_top" xlink:title=" ">
<polygon fill="white" stroke="#666666" points="418,-376.25 330,-376.25 330,-357 418,-357 418,-376.25"/>
<text text-anchor="middle" x="374" y="-362.75" font-family="Helvetica,sans-Serif" font-size="10.00">parse_func_redir</text>
</a>
</g>
</g>
<!-- Node11&#45;&gt;Node12 -->
<g id="edge16_Node000011_Node000012" class="edge">
<title>Node11&#45;&gt;Node12</title>
<g id="a_edge16_Node000011_Node000012"><a xlink:title=" ">
<path fill="none" stroke="#63b8ff" d="M470.28,-366.62C453.47,-366.62 434.68,-366.62 418.26,-366.62"/>
<polygon fill="#63b8ff" stroke="#63b8ff" points="470.03,-370.13 480.03,-366.63 470.03,-363.13 470.03,-370.13"/>
</a>
</g>
</g>
<!-- Node12&#45;&gt;Node8 -->
<g id="edge17_Node000012_Node000008" class="edge">
<title>Node12&#45;&gt;Node8</title>
<g id="a_edge17_Node000012_Node000008"><a xlink:title=" ">
<path fill="none" stroke="#63b8ff" d="M318.5,-366.62C306.47,-366.62 293.82,-366.62 282.13,-366.62"/>
<polygon fill="#63b8ff" stroke="#63b8ff" points="318.28,-370.13 328.28,-366.63 318.28,-363.13 318.28,-370.13"/>
</a>
</g>
</g>
<!-- Node13&#45;&gt;Node2 -->
<g id="edge19_Node000013_Node000002" class="edge">
<title>Node13&#45;&gt;Node2</title>
<g id="a_edge19_Node000013_Node000002"><a xlink:title=" ">
<path fill="none" stroke="#63b8ff" d="M473.04,-416.57C452.38,-422.06 428.28,-428.47 409.14,-433.55"/>
<polygon fill="#63b8ff" stroke="#63b8ff" points="473.88,-419.97 482.65,-414.02 472.08,-413.2 473.88,-419.97"/>
</a>
</g>
</g>
<!-- Node14&#45;&gt;Node15 -->
<g id="edge21_Node000014_Node000015" class="edge">
<title>Node14&#45;&gt;Node15</title>
<g id="a_edge21_Node000014_Node000015"><a xlink:title=" ">
<path fill="none" stroke="#63b8ff" d="M623.21,-253.62C607.77,-253.62 589.39,-253.62 572.45,-253.62"/>
<polygon fill="#63b8ff" stroke="#63b8ff" points="622.85,-257.13 632.85,-253.63 622.85,-250.13 622.85,-257.13"/>
</a>
</g>
</g>
<!-- Node16 -->
<g id="Node000016" class="node">
<title>Node16</title>
<g id="a_Node000016"><a xlink:href="ray__world__intersect_8c.html#a2e629895d43f70cc7814ef4b0c89cf0d" target="_top" xlink:title=" ">
<polygon fill="white" stroke="#666666" points="424,-263.25 324,-263.25 324,-244 424,-244 424,-263.25"/>
<text text-anchor="middle" x="374" y="-249.75" font-family="Helvetica,sans-Serif" font-size="10.00">ray_intersect_world</text>
</a>
</g>
</g>
<!-- Node15&#45;&gt;Node16 -->
<g id="edge22_Node000015_Node000016" class="edge">
<title>Node15&#45;&gt;Node16</title>
<g id="a_edge22_Node000015_Node000016"><a xlink:title=" ">
<path fill="none" stroke="#63b8ff" d="M454.27,-253.62C444.15,-253.62 433.82,-253.62 424.1,-253.62"/>
<polygon fill="#63b8ff" stroke="#63b8ff" points="454.05,-257.13 464.05,-253.63 454.05,-250.13 454.05,-257.13"/>
</a>
</g>
</g>
<!-- Node19&#45;&gt;Node19 -->
<g id="edge26_Node000019_Node000019" class="edge">
<title>Node19&#45;&gt;Node19</title>
<g id="a_edge26_Node000019_Node000019"><a xlink:title=" ">
<path fill="none" stroke="#63b8ff" d="M681.15,-30.65C678.49,-34.53 671.4,-37.25 659.88,-37.25 638.8,-37.25 632.55,-28.15 641.11,-19.54"/>
<polygon fill="#63b8ff" stroke="#63b8ff" points="684.59,-30 678.98,-21.01 677.77,-31.54 684.59,-30"/>
</a>
</g>
</g>
<!-- Node20&#45;&gt;Node15 -->
<g id="edge28_Node000020_Node000015" class="edge">
<title>Node20&#45;&gt;Node15</title>
<g id="a_edge28_Node000020_Node000015"><a xlink:title=" ">
<path fill="none" stroke="#63b8ff" d="M610,-229.65C592.9,-234.2 573.97,-239.25 557.9,-243.53"/>
<polygon fill="#63b8ff" stroke="#63b8ff" points="610.7,-233.08 619.46,-227.13 608.9,-226.32 610.7,-233.08"/>
</a>
</g>
</g>
<!-- Node20&#45;&gt;Node21 -->
<g id="edge29_Node000020_Node000021" class="edge">
<title>Node20&#45;&gt;Node21</title>
<g id="a_edge29_Node000020_Node000021"><a xlink:title=" ">
<path fill="none" stroke="#63b8ff" d="M609.09,-209.81C592.6,-207.56 574.51,-205.08 558.96,-202.96"/>
<polygon fill="#63b8ff" stroke="#63b8ff" points="608.31,-213.24 618.69,-211.13 609.26,-206.3 608.31,-213.24"/>
</a>
</g>
</g>
<!-- Node22 -->
<g id="Node000022" class="node">
<title>Node22</title>
<g id="a_Node000022"><a xlink:href="prepare__computations_8c.html#a260bb84a41e41fe52951d598804fb2fe" target="_top" xlink:title=" ">
<polygon fill="white" stroke="#666666" points="430,-207.25 318,-207.25 318,-188 430,-188 430,-207.25"/>
<text text-anchor="middle" x="374" y="-193.75" font-family="Helvetica,sans-Serif" font-size="10.00">prepare_computations</text>
</a>
</g>
</g>
<!-- Node21&#45;&gt;Node22 -->
<g id="edge30_Node000021_Node000022" class="edge">
<title>Node21&#45;&gt;Node22</title>
<g id="a_edge30_Node000021_Node000022"><a xlink:title=" ">
<path fill="none" stroke="#63b8ff" d="M467.68,-197.62C455.61,-197.62 442.66,-197.62 430.38,-197.62"/>
<polygon fill="#63b8ff" stroke="#63b8ff" points="467.41,-201.13 477.41,-197.63 467.41,-194.13 467.41,-201.13"/>
</a>
</g>
</g>
<!-- Node23&#45;&gt;Node18 -->
<g id="edge33_Node000023_Node000018" class="edge">
<title>Node23&#45;&gt;Node18</title>
<g id="a_edge33_Node000023_Node000018"><a xlink:title=" ">
<path fill="none" stroke="#63b8ff" d="M627.29,-68.95C601.4,-72.49 565.42,-77.41 542.42,-80.56"/>
<polygon fill="#63b8ff" stroke="#63b8ff" points="627.45,-72.46 636.88,-67.63 626.5,-65.52 627.45,-72.46"/>
</a>
</g>
</g>
</g>
</svg>
