<?xml version="1.0" encoding="UTF-8" standalone="no"?>
<!DOCTYPE svg PUBLIC "-//W3C//DTD SVG 1.1//EN"
 "http://www.w3.org/Graphics/SVG/1.1/DTD/svg11.dtd">
<!-- Generated by graphviz version 9.0.0 (20230911.1827)
 -->
<!-- Title: matrix_clone Pages: 1 -->
<svg width="343pt" height="116pt"
 viewBox="0.00 0.00 342.50 116.15" xmlns="http://www.w3.org/2000/svg" xmlns:xlink="http://www.w3.org/1999/xlink">
<g id="graph0" class="graph" transform="scale(1 1) rotate(0) translate(4 112.15)">
<title>matrix_clone</title>
<!-- Node1 -->
<g id="Node000001" class="node">
<title>Node1</title>
<g id="a_Node000001"><a xlink:title=" ">
<polygon fill="#999999" stroke="#666666" points="334.5,-74.25 263.75,-74.25 263.75,-55 334.5,-55 334.5,-74.25"/>
<text text-anchor="middle" x="299.12" y="-60.75" font-family="Helvetica,sans-Serif" font-size="10.00">matrix_clone</text>
</a>
</g>
</g>
<!-- Node2 -->
<g id="Node000002" class="node">
<title>Node2</title>
<g id="a_Node000002"><a xlink:href="prepare__computations_8c.html#a260bb84a41e41fe52951d598804fb2fe" target="_top" xlink:title=" ">
<polygon fill="white" stroke="#666666" points="112,-93.25 0,-93.25 0,-74 112,-74 112,-93.25"/>
<text text-anchor="middle" x="56" y="-79.75" font-family="Helvetica,sans-Serif" font-size="10.00">prepare_computations</text>
</a>
</g>
</g>
<!-- Node1&#45;&gt;Node2 -->
<g id="edge1_Node000001_Node000002" class="edge">
<title>Node1&#45;&gt;Node2</title>
<g id="a_edge1_Node000001_Node000002"><a xlink:title=" ">
<path fill="none" stroke="#63b8ff" d="M274.82,-81.02C261.66,-89.26 244.53,-98.38 227.75,-102.62 180.04,-114.68 122.9,-103.31 88.3,-93.69"/>
<polygon fill="#63b8ff" stroke="#63b8ff" points="276.73,-83.95 283.17,-75.53 272.89,-78.1 276.73,-83.95"/>
</a>
</g>
</g>
<!-- Node3 -->
<g id="Node000003" class="node">
<title>Node3</title>
<g id="a_Node000003"><a xlink:href="ray__clone_8c.html#a2cec923765c270860af3d023b8236564" target="_top" xlink:title=" ">
<polygon fill="white" stroke="#666666" points="216.5,-93.25 159.25,-93.25 159.25,-74 216.5,-74 216.5,-93.25"/>
<text text-anchor="middle" x="187.88" y="-79.75" font-family="Helvetica,sans-Serif" font-size="10.00">ray_clone</text>
</a>
</g>
</g>
<!-- Node1&#45;&gt;Node3 -->
<g id="edge2_Node000001_Node000003" class="edge">
<title>Node1&#45;&gt;Node3</title>
<g id="a_edge2_Node000001_Node000003"><a xlink:title=" ">
<path fill="none" stroke="#63b8ff" d="M252.04,-72.64C240.08,-74.72 227.57,-76.9 216.86,-78.76"/>
<polygon fill="#63b8ff" stroke="#63b8ff" points="252.51,-76.11 261.77,-70.95 251.31,-69.21 252.51,-76.11"/>
</a>
</g>
</g>
<!-- Node4 -->
<g id="Node000004" class="node">
<title>Node4</title>
<g id="a_Node000004"><a xlink:href="reflect_8c.html#a9a14a2740fe14a6f96d7b3ef0cffeb61" target="_top" xlink:title=" ">
<polygon fill="white" stroke="#666666" points="209,-19.25 166.75,-19.25 166.75,0 209,0 209,-19.25"/>
<text text-anchor="middle" x="187.88" y="-5.75" font-family="Helvetica,sans-Serif" font-size="10.00">reflect</text>
</a>
</g>
</g>
<!-- Node1&#45;&gt;Node4 -->
<g id="edge3_Node000001_Node000004" class="edge">
<title>Node1&#45;&gt;Node4</title>
<g id="a_edge3_Node000001_Node000004"><a xlink:title=" ">
<path fill="none" stroke="#63b8ff" d="M269.7,-49.26C256.95,-42.48 241.67,-34.5 227.75,-27.62 221.75,-24.66 215.16,-21.56 209.14,-18.78"/>
<polygon fill="#63b8ff" stroke="#63b8ff" points="267.93,-52.29 278.4,-53.92 271.23,-46.11 267.93,-52.29"/>
</a>
</g>
</g>
<!-- Node6 -->
<g id="Node000006" class="node">
<title>Node6</title>
<g id="a_Node000006"><a xlink:href="sphere__normal_8c.html#a7f90156067fc9db4452ca1b058c976e8" target="_top" xlink:title=" ">
<polygon fill="white" stroke="#666666" points="227.75,-56.25 148,-56.25 148,-37 227.75,-37 227.75,-56.25"/>
<text text-anchor="middle" x="187.88" y="-42.75" font-family="Helvetica,sans-Serif" font-size="10.00">sphere_normal</text>
</a>
</g>
</g>
<!-- Node1&#45;&gt;Node6 -->
<g id="edge5_Node000001_Node000006" class="edge">
<title>Node1&#45;&gt;Node6</title>
<g id="a_edge5_Node000001_Node000006"><a xlink:title=" ">
<path fill="none" stroke="#63b8ff" d="M252.13,-57.05C244.09,-55.72 235.8,-54.36 227.96,-53.07"/>
<polygon fill="#63b8ff" stroke="#63b8ff" points="251.33,-60.46 261.76,-58.63 252.47,-53.55 251.33,-60.46"/>
</a>
</g>
</g>
<!-- Node5 -->
<g id="Node000005" class="node">
<title>Node5</title>
<g id="a_Node000005"><a xlink:href="lighting_8c.html#ad035411c7e850248af38e7d68bb0ddd4" target="_top" xlink:title=" ">
<polygon fill="white" stroke="#666666" points="79.38,-19.25 32.62,-19.25 32.62,0 79.38,0 79.38,-19.25"/>
<text text-anchor="middle" x="56" y="-5.75" font-family="Helvetica,sans-Serif" font-size="10.00">lighting</text>
</a>
</g>
</g>
<!-- Node4&#45;&gt;Node5 -->
<g id="edge4_Node000004_Node000005" class="edge">
<title>Node4&#45;&gt;Node5</title>
<g id="a_edge4_Node000004_Node000005"><a xlink:title=" ">
<path fill="none" stroke="#63b8ff" d="M154.89,-9.62C131.55,-9.62 100.48,-9.62 79.67,-9.62"/>
<polygon fill="#63b8ff" stroke="#63b8ff" points="154.78,-13.13 164.78,-9.63 154.78,-6.13 154.78,-13.13"/>
</a>
</g>
</g>
<!-- Node6&#45;&gt;Node2 -->
<g id="edge6_Node000006_Node000002" class="edge">
<title>Node6&#45;&gt;Node2</title>
<g id="a_edge6_Node000006_Node000002"><a xlink:title=" ">
<path fill="none" stroke="#63b8ff" d="M140.71,-59.78C124.84,-64.3 107.33,-69.29 92.45,-73.53"/>
<polygon fill="#63b8ff" stroke="#63b8ff" points="141.27,-63.26 149.93,-57.15 139.35,-56.52 141.27,-63.26"/>
</a>
</g>
</g>
</g>
</svg>
