<?xml version="1.0" encoding="UTF-8" standalone="no"?>
<!DOCTYPE svg PUBLIC "-//W3C//DTD SVG 1.1//EN"
 "http://www.w3.org/Graphics/SVG/1.1/DTD/svg11.dtd">
<!-- Generated by graphviz version 9.0.0 (20230911.1827)
 -->
<!-- Title: /github/workspace/INC/base_helpers.h Pages: 1 -->
<svg width="803pt" height="116pt"
 viewBox="0.00 0.00 803.25 116.25" xmlns="http://www.w3.org/2000/svg" xmlns:xlink="http://www.w3.org/1999/xlink">
<g id="graph0" class="graph" transform="scale(1 1) rotate(0) translate(4 112.25)">
<title>/github/workspace/INC/base_helpers.h</title>
<!-- Node1 -->
<g id="Node000001" class="node">
<title>Node1</title>
<g id="a_Node000001"><a xlink:title=" ">
<polygon fill="#999999" stroke="#666666" points="450.38,-108.25 334.62,-108.25 334.62,-77.75 450.38,-77.75 450.38,-108.25"/>
<text text-anchor="start" x="342.62" y="-94.75" font-family="Helvetica,sans-Serif" font-size="10.00">/github/workspace/INC</text>
<text text-anchor="middle" x="392.5" y="-83.5" font-family="Helvetica,sans-Serif" font-size="10.00">/base_helpers.h</text>
</a>
</g>
</g>
<!-- Node2 -->
<g id="Node000002" class="node">
<title>Node2</title>
<g id="a_Node000002"><a xlink:href="discriminant_8c.html" target="_top" xlink:title=" ">
<polygon fill="white" stroke="#666666" points="157,-36.12 0,-36.12 0,-5.62 157,-5.62 157,-36.12"/>
<text text-anchor="start" x="8" y="-22.62" font-family="Helvetica,sans-Serif" font-size="10.00">/github/workspace/SRC</text>
<text text-anchor="middle" x="78.5" y="-11.38" font-family="Helvetica,sans-Serif" font-size="10.00">/BASE/HELPERS/discriminant.c</text>
</a>
</g>
</g>
<!-- Node1&#45;&gt;Node2 -->
<g id="edge1_Node000001_Node000002" class="edge">
<title>Node1&#45;&gt;Node2</title>
<g id="a_edge1_Node000001_Node000002"><a xlink:title=" ">
<path fill="none" stroke="#63b8ff" d="M323.06,-76.76C278.11,-66.86 218.32,-53.63 165.5,-41.75 158.09,-40.08 150.33,-38.33 142.63,-36.58"/>
<polygon fill="#63b8ff" stroke="#63b8ff" points="322.16,-80.14 332.68,-78.87 323.67,-73.3 322.16,-80.14"/>
</a>
</g>
</g>
<!-- Node3 -->
<g id="Node000003" class="node">
<title>Node3</title>
<g id="a_Node000003"><a xlink:href="epsilon_8c.html" target="_top" xlink:title=" ">
<polygon fill="white" stroke="#666666" points="310.12,-36.12 174.88,-36.12 174.88,-5.62 310.12,-5.62 310.12,-36.12"/>
<text text-anchor="start" x="182.88" y="-22.62" font-family="Helvetica,sans-Serif" font-size="10.00">/github/workspace/SRC</text>
<text text-anchor="middle" x="242.5" y="-11.38" font-family="Helvetica,sans-Serif" font-size="10.00">/BASE/HELPERS/epsilon.c</text>
</a>
</g>
</g>
<!-- Node1&#45;&gt;Node3 -->
<g id="edge2_Node000001_Node000003" class="edge">
<title>Node1&#45;&gt;Node3</title>
<g id="a_edge2_Node000001_Node000003"><a xlink:title=" ">
<path fill="none" stroke="#63b8ff" d="M350.68,-72.45C326.36,-61.08 296.19,-46.98 273.9,-36.56"/>
<polygon fill="#63b8ff" stroke="#63b8ff" points="349.14,-75.59 359.68,-76.66 352.11,-69.25 349.14,-75.59"/>
</a>
</g>
</g>
<!-- Node4 -->
<g id="Node000004" class="node">
<title>Node4</title>
<g id="a_Node000004"><a xlink:href="matrix__compare_8c.html" target="_top" xlink:title=" ">
<polygon fill="white" stroke="#666666" points="456.38,-41.75 328.62,-41.75 328.62,0 456.38,0 456.38,-41.75"/>
<text text-anchor="start" x="336.62" y="-28.25" font-family="Helvetica,sans-Serif" font-size="10.00">/github/workspace/SRC</text>
<text text-anchor="start" x="336.62" y="-17" font-family="Helvetica,sans-Serif" font-size="10.00">/BASE/MATRICES/matrix</text>
<text text-anchor="middle" x="392.5" y="-5.75" font-family="Helvetica,sans-Serif" font-size="10.00">_compare.c</text>
</a>
</g>
</g>
<!-- Node1&#45;&gt;Node4 -->
<g id="edge3_Node000001_Node000004" class="edge">
<title>Node1&#45;&gt;Node4</title>
<g id="a_edge3_Node000001_Node000004"><a xlink:title=" ">
<path fill="none" stroke="#63b8ff" d="M392.5,-66.22C392.5,-58.31 392.5,-49.73 392.5,-42.24"/>
<polygon fill="#63b8ff" stroke="#63b8ff" points="389,-65.96 392.5,-75.96 396,-65.96 389,-65.96"/>
</a>
</g>
</g>
<!-- Node5 -->
<g id="Node000005" class="node">
<title>Node5</title>
<g id="a_Node000005"><a xlink:href="ray__intersect_8c.html" target="_top" xlink:title=" ">
<polygon fill="white" stroke="#666666" points="616.12,-36.12 474.88,-36.12 474.88,-5.62 616.12,-5.62 616.12,-36.12"/>
<text text-anchor="start" x="482.88" y="-22.62" font-family="Helvetica,sans-Serif" font-size="10.00">/github/workspace/SRC</text>
<text text-anchor="middle" x="545.5" y="-11.38" font-family="Helvetica,sans-Serif" font-size="10.00">/BASE/RAYS/ray_intersect.c</text>
</a>
</g>
</g>
<!-- Node1&#45;&gt;Node5 -->
<g id="edge4_Node000001_Node000005" class="edge">
<title>Node1&#45;&gt;Node5</title>
<g id="a_edge4_Node000001_Node000005"><a xlink:title=" ">
<path fill="none" stroke="#63b8ff" d="M434.82,-72.6C459.69,-61.2 490.63,-47.02 513.47,-36.56"/>
<polygon fill="#63b8ff" stroke="#63b8ff" points="433.58,-69.32 425.95,-76.67 436.5,-75.68 433.58,-69.32"/>
</a>
</g>
</g>
<!-- Node6 -->
<g id="Node000006" class="node">
<title>Node6</title>
<g id="a_Node000006"><a xlink:href="tuple__compare_8c.html" target="_top" xlink:title=" ">
<polygon fill="white" stroke="#666666" points="795.25,-36.12 633.75,-36.12 633.75,-5.62 795.25,-5.62 795.25,-36.12"/>
<text text-anchor="start" x="641.75" y="-22.62" font-family="Helvetica,sans-Serif" font-size="10.00">/github/workspace/SRC</text>
<text text-anchor="middle" x="714.5" y="-11.38" font-family="Helvetica,sans-Serif" font-size="10.00">/BASE/TUPLES/tuple_compare.c</text>
</a>
</g>
</g>
<!-- Node1&#45;&gt;Node6 -->
<g id="edge5_Node000001_Node000006" class="edge">
<title>Node1&#45;&gt;Node6</title>
<g id="a_edge5_Node000001_Node000006"><a xlink:title=" ">
<path fill="none" stroke="#63b8ff" d="M461.59,-77.24C507.96,-67.3 570.42,-53.84 625.5,-41.75 633.08,-40.09 641.01,-38.33 648.9,-36.58"/>
<polygon fill="#63b8ff" stroke="#63b8ff" points="460.98,-73.79 451.94,-79.31 462.45,-80.63 460.98,-73.79"/>
</a>
</g>
</g>
</g>
</svg>
