<?xml version="1.0" encoding="UTF-8" standalone="no"?>
<!DOCTYPE svg PUBLIC "-//W3C//DTD SVG 1.1//EN"
 "http://www.w3.org/Graphics/SVG/1.1/DTD/svg11.dtd">
<!-- Generated by graphviz version 9.0.0 (20230911.1827)
 -->
<!-- Title: /github/workspace/SRC/OBJECTS/CAMERA/camera_create.c Pages: 1 -->
<svg width="472pt" height="216pt"
 viewBox="0.00 0.00 472.07 215.50" xmlns="http://www.w3.org/2000/svg" xmlns:xlink="http://www.w3.org/1999/xlink">
<g id="graph0" class="graph" transform="scale(1 1) rotate(0) translate(4 211.5)">
<title>/github/workspace/SRC/OBJECTS/CAMERA/camera_create.c</title>
<!-- Node1 -->
<g id="Node000001" class="node">
<title>Node1</title>
<g id="a_Node000001"><a xlink:title=" ">
<polygon fill="#999999" stroke="#666666" points="230.69,-207.5 87.19,-207.5 87.19,-165.75 230.69,-165.75 230.69,-207.5"/>
<text text-anchor="start" x="95.19" y="-194" font-family="Helvetica,sans-Serif" font-size="10.00">/github/workspace/SRC</text>
<text text-anchor="start" x="95.19" y="-182.75" font-family="Helvetica,sans-Serif" font-size="10.00">/OBJECTS/CAMERA/camera</text>
<text text-anchor="middle" x="158.94" y="-171.5" font-family="Helvetica,sans-Serif" font-size="10.00">_create.c</text>
</a>
</g>
</g>
<!-- Node2 -->
<g id="Node000002" class="node">
<title>Node2</title>
<g id="a_Node000002"><a xlink:href="types_8h.html" target="_top" xlink:title=" ">
<polygon fill="white" stroke="#666666" points="172.32,-74.5 125.57,-74.5 125.57,-55.25 172.32,-55.25 172.32,-74.5"/>
<text text-anchor="middle" x="148.94" y="-61" font-family="Helvetica,sans-Serif" font-size="10.00">types.h</text>
</a>
</g>
</g>
<!-- Node1&#45;&gt;Node2 -->
<g id="edge1_Node000001_Node000002" class="edge">
<title>Node1&#45;&gt;Node2</title>
<g id="a_edge1_Node000001_Node000002"><a xlink:title=" ">
<path fill="none" stroke="#63b8ff" d="M87,-177.51C56.78,-170.14 24.42,-156.17 5.94,-129.75 -22.61,-88.92 62.96,-73.82 113.92,-68.53"/>
<polygon fill="#63b8ff" stroke="#63b8ff" points="114,-72.04 123.62,-67.61 113.34,-65.07 114,-72.04"/>
</a>
</g>
</g>
<!-- Node6 -->
<g id="Node000006" class="node">
<title>Node6</title>
<g id="a_Node000006"><a xlink:href="window__size_8h.html" target="_top" xlink:title=" ">
<polygon fill="white" stroke="#666666" points="94.44,-129.75 15.44,-129.75 15.44,-110.5 94.44,-110.5 94.44,-129.75"/>
<text text-anchor="middle" x="54.94" y="-116.25" font-family="Helvetica,sans-Serif" font-size="10.00">window_size.h</text>
</a>
</g>
</g>
<!-- Node1&#45;&gt;Node6 -->
<g id="edge5_Node000001_Node000006" class="edge">
<title>Node1&#45;&gt;Node6</title>
<g id="a_edge5_Node000001_Node000006"><a xlink:title=" ">
<path fill="none" stroke="#63b8ff" d="M126.32,-165.39C110.98,-155.88 93.02,-144.74 78.95,-136.01"/>
<polygon fill="#63b8ff" stroke="#63b8ff" points="81.11,-133.24 70.77,-130.94 77.42,-139.19 81.11,-133.24"/>
</a>
</g>
</g>
<!-- Node7 -->
<g id="Node000007" class="node">
<title>Node7</title>
<g id="a_Node000007"><a xlink:href="objects__camera_8h.html" target="_top" xlink:title=" ">
<polygon fill="white" stroke="#666666" points="205.19,-129.75 112.69,-129.75 112.69,-110.5 205.19,-110.5 205.19,-129.75"/>
<text text-anchor="middle" x="158.94" y="-116.25" font-family="Helvetica,sans-Serif" font-size="10.00">objects_camera.h</text>
</a>
</g>
</g>
<!-- Node1&#45;&gt;Node7 -->
<g id="edge6_Node000001_Node000007" class="edge">
<title>Node1&#45;&gt;Node7</title>
<g id="a_edge6_Node000001_Node000007"><a xlink:title=" ">
<path fill="none" stroke="#63b8ff" d="M158.94,-165.57C158.94,-157.9 158.94,-149.14 158.94,-141.45"/>
<polygon fill="#63b8ff" stroke="#63b8ff" points="162.44,-141.71 158.94,-131.71 155.44,-141.71 162.44,-141.71"/>
</a>
</g>
</g>
<!-- Node8 -->
<g id="Node000008" class="node">
<title>Node8</title>
<g id="a_Node000008"><a xlink:title=" ">
<polygon fill="#e0e0e0" stroke="#999999" points="235.57,-74.5 190.32,-74.5 190.32,-55.25 235.57,-55.25 235.57,-74.5"/>
<text text-anchor="middle" x="212.94" y="-61" font-family="Helvetica,sans-Serif" font-size="10.00">math.h</text>
</a>
</g>
</g>
<!-- Node1&#45;&gt;Node8 -->
<g id="edge8_Node000001_Node000008" class="edge">
<title>Node1&#45;&gt;Node8</title>
<g id="a_edge8_Node000001_Node000008"><a xlink:title=" ">
<path fill="none" stroke="#63b8ff" d="M186.67,-165.35C197.31,-155.87 208.27,-143.61 213.94,-129.75 219.61,-115.91 219.03,-98.92 217.21,-85.94"/>
<polygon fill="#63b8ff" stroke="#63b8ff" points="220.72,-85.68 215.51,-76.45 213.83,-86.91 220.72,-85.68"/>
</a>
</g>
</g>
<!-- Node9 -->
<g id="Node000009" class="node">
<title>Node9</title>
<g id="a_Node000009"><a xlink:href="muk__lib_8h.html" target="_top" xlink:title=" ">
<polygon fill="white" stroke="#666666" points="336.57,-129.75 279.32,-129.75 279.32,-110.5 336.57,-110.5 336.57,-129.75"/>
<text text-anchor="middle" x="307.94" y="-116.25" font-family="Helvetica,sans-Serif" font-size="10.00">muk_lib.h</text>
</a>
</g>
</g>
<!-- Node1&#45;&gt;Node9 -->
<g id="edge9_Node000001_Node000009" class="edge">
<title>Node1&#45;&gt;Node9</title>
<g id="a_edge9_Node000001_Node000009"><a xlink:title=" ">
<path fill="none" stroke="#63b8ff" d="M205.68,-165.39C228.83,-155.37 256.15,-143.54 276.73,-134.64"/>
<polygon fill="#63b8ff" stroke="#63b8ff" points="277.93,-137.93 285.72,-130.75 275.15,-131.51 277.93,-137.93"/>
</a>
</g>
</g>
<!-- Node3 -->
<g id="Node000003" class="node">
<title>Node3</title>
<g id="a_Node000003"><a xlink:title=" ">
<polygon fill="#e0e0e0" stroke="#999999" points="120.44,-19.25 65.44,-19.25 65.44,0 120.44,0 120.44,-19.25"/>
<text text-anchor="middle" x="92.94" y="-5.75" font-family="Helvetica,sans-Serif" font-size="10.00">stdbool.h</text>
</a>
</g>
</g>
<!-- Node2&#45;&gt;Node3 -->
<g id="edge2_Node000002_Node000003" class="edge">
<title>Node2&#45;&gt;Node3</title>
<g id="a_edge2_Node000002_Node000003"><a xlink:title=" ">
<path fill="none" stroke="#63b8ff" d="M139.44,-54.84C131.51,-47.3 119.99,-36.35 110.41,-27.23"/>
<polygon fill="#63b8ff" stroke="#63b8ff" points="113.06,-24.92 103.4,-20.57 108.23,-29.99 113.06,-24.92"/>
</a>
</g>
</g>
<!-- Node4 -->
<g id="Node000004" class="node">
<title>Node4</title>
<g id="a_Node000004"><a xlink:title=" ">
<polygon fill="#e0e0e0" stroke="#999999" points="275.32,-19.25 228.57,-19.25 228.57,0 275.32,0 275.32,-19.25"/>
<text text-anchor="middle" x="251.94" y="-5.75" font-family="Helvetica,sans-Serif" font-size="10.00">stdlib.h</text>
</a>
</g>
</g>
<!-- Node2&#45;&gt;Node4 -->
<g id="edge3_Node000002_Node000004" class="edge">
<title>Node2&#45;&gt;Node4</title>
<g id="a_edge3_Node000002_Node000004"><a xlink:title=" ">
<path fill="none" stroke="#63b8ff" d="M166.41,-54.84C182.25,-46.66 205.85,-34.46 224.25,-24.94"/>
<polygon fill="#63b8ff" stroke="#63b8ff" points="225.76,-28.1 233.04,-20.4 222.55,-21.88 225.76,-28.1"/>
</a>
</g>
</g>
<!-- Node5 -->
<g id="Node000005" class="node">
<title>Node5</title>
<g id="a_Node000005"><a xlink:title=" ">
<polygon fill="#e0e0e0" stroke="#999999" points="185.32,-19.25 138.57,-19.25 138.57,0 185.32,0 185.32,-19.25"/>
<text text-anchor="middle" x="161.94" y="-5.75" font-family="Helvetica,sans-Serif" font-size="10.00">limits.h</text>
</a>
</g>
</g>
<!-- Node2&#45;&gt;Node5 -->
<g id="edge4_Node000002_Node000005" class="edge">
<title>Node2&#45;&gt;Node5</title>
<g id="a_edge4_Node000002_Node000005"><a xlink:title=" ">
<path fill="none" stroke="#63b8ff" d="M151.09,-55.08C152.72,-48.42 155.02,-38.99 157.08,-30.53"/>
<polygon fill="#63b8ff" stroke="#63b8ff" points="160.42,-31.62 159.39,-21.08 153.62,-29.96 160.42,-31.62"/>
</a>
</g>
</g>
<!-- Node7&#45;&gt;Node2 -->
<g id="edge7_Node000007_Node000002" class="edge">
<title>Node7&#45;&gt;Node2</title>
<g id="a_edge7_Node000007_Node000002"><a xlink:title=" ">
<path fill="none" stroke="#63b8ff" d="M157.29,-110.33C156.05,-103.74 154.31,-94.46 152.73,-86.07"/>
<polygon fill="#63b8ff" stroke="#63b8ff" points="156.19,-85.53 150.91,-76.35 149.31,-86.82 156.19,-85.53"/>
</a>
</g>
</g>
<!-- Node9&#45;&gt;Node4 -->
<g id="edge10_Node000009_Node000004" class="edge">
<title>Node9&#45;&gt;Node4</title>
<g id="a_edge10_Node000009_Node000004"><a xlink:title=" ">
<path fill="none" stroke="#63b8ff" d="M302.81,-110.32C297.64,-101.38 289.52,-87.09 282.94,-74.5 275.17,-59.61 266.88,-42.47 260.84,-29.7"/>
<polygon fill="#63b8ff" stroke="#63b8ff" points="264.06,-28.32 256.64,-20.75 257.72,-31.29 264.06,-28.32"/>
</a>
</g>
</g>
<!-- Node9&#45;&gt;Node8 -->
<g id="edge14_Node000009_Node000008" class="edge">
<title>Node9&#45;&gt;Node8</title>
<g id="a_edge14_Node000009_Node000008"><a xlink:title=" ">
<path fill="none" stroke="#63b8ff" d="M291.83,-110.09C277.36,-101.98 255.86,-89.93 238.96,-80.46"/>
<polygon fill="#63b8ff" stroke="#63b8ff" points="240.89,-77.53 230.46,-75.69 237.47,-83.64 240.89,-77.53"/>
</a>
</g>
</g>
<!-- Node10 -->
<g id="Node000010" class="node">
<title>Node10</title>
<g id="a_Node000010"><a xlink:title=" ">
<polygon fill="#e0e0e0" stroke="#999999" points="341.82,-74.5 292.07,-74.5 292.07,-55.25 341.82,-55.25 341.82,-74.5"/>
<text text-anchor="middle" x="316.94" y="-61" font-family="Helvetica,sans-Serif" font-size="10.00">unistd.h</text>
</a>
</g>
</g>
<!-- Node9&#45;&gt;Node10 -->
<g id="edge11_Node000009_Node000010" class="edge">
<title>Node9&#45;&gt;Node10</title>
<g id="a_edge11_Node000009_Node000010"><a xlink:title=" ">
<path fill="none" stroke="#63b8ff" d="M309.43,-110.33C310.54,-103.74 312.11,-94.46 313.53,-86.07"/>
<polygon fill="#63b8ff" stroke="#63b8ff" points="316.96,-86.8 315.17,-76.35 310.05,-85.63 316.96,-86.8"/>
</a>
</g>
</g>
<!-- Node11 -->
<g id="Node000011" class="node">
<title>Node11</title>
<g id="a_Node000011"><a xlink:title=" ">
<polygon fill="#e0e0e0" stroke="#999999" points="404.19,-74.5 359.69,-74.5 359.69,-55.25 404.19,-55.25 404.19,-74.5"/>
<text text-anchor="middle" x="381.94" y="-61" font-family="Helvetica,sans-Serif" font-size="10.00">stdio.h</text>
</a>
</g>
</g>
<!-- Node9&#45;&gt;Node11 -->
<g id="edge12_Node000009_Node000011" class="edge">
<title>Node9&#45;&gt;Node11</title>
<g id="a_edge12_Node000009_Node000011"><a xlink:title=" ">
<path fill="none" stroke="#63b8ff" d="M320.49,-110.09C331.4,-102.24 347.45,-90.7 360.4,-81.37"/>
<polygon fill="#63b8ff" stroke="#63b8ff" points="362.27,-84.34 368.35,-75.66 358.18,-78.66 362.27,-84.34"/>
</a>
</g>
</g>
<!-- Node12 -->
<g id="Node000012" class="node">
<title>Node12</title>
<g id="a_Node000012"><a xlink:title=" ">
<polygon fill="#e0e0e0" stroke="#999999" points="464.07,-74.5 421.82,-74.5 421.82,-55.25 464.07,-55.25 464.07,-74.5"/>
<text text-anchor="middle" x="442.94" y="-61" font-family="Helvetica,sans-Serif" font-size="10.00">fcntl.h</text>
</a>
</g>
</g>
<!-- Node9&#45;&gt;Node12 -->
<g id="edge13_Node000009_Node000012" class="edge">
<title>Node9&#45;&gt;Node12</title>
<g id="a_edge13_Node000009_Node000012"><a xlink:title=" ">
<path fill="none" stroke="#63b8ff" d="M330.84,-110.09C352.89,-101.39 386.43,-88.16 411.08,-78.44"/>
<polygon fill="#63b8ff" stroke="#63b8ff" points="412.28,-81.73 420.3,-74.8 409.72,-75.22 412.28,-81.73"/>
</a>
</g>
</g>
</g>
</svg>
