<?xml version="1.0" encoding="UTF-8" standalone="no"?>
<!DOCTYPE svg PUBLIC "-//W3C//DTD SVG 1.1//EN"
 "http://www.w3.org/Graphics/SVG/1.1/DTD/svg11.dtd">
<!-- Generated by graphviz version 9.0.0 (20230911.1827)
 -->
<!-- Title: check_extension Pages: 1 -->
<svg width="282pt" height="27pt"
 viewBox="0.00 0.00 281.75 27.25" xmlns="http://www.w3.org/2000/svg" xmlns:xlink="http://www.w3.org/1999/xlink">
<g id="graph0" class="graph" transform="scale(1 1) rotate(0) translate(4 23.25)">
<title>check_extension</title>
<!-- Node1 -->
<g id="Node000001" class="node">
<title>Node1</title>
<g id="a_Node000001"><a xlink:title="Function specifically checking if the given file has expected extension.">
<polygon fill="#999999" stroke="#666666" points="273.75,-19.25 185,-19.25 185,0 273.75,0 273.75,-19.25"/>
<text text-anchor="middle" x="229.38" y="-5.75" font-family="Helvetica,sans-Serif" font-size="10.00">check_extension</text>
</a>
</g>
</g>
<!-- Node2 -->
<g id="Node000002" class="node">
<title>Node2</title>
<g id="a_Node000002"><a xlink:href="input__validate_8c.html#a1497d4d5fc8fdfecbe3b36df53d2195f" target="_top" xlink:title="Validating if argument count is 2 (exe and 1 extra) and the extra is a .rt file and we have permissio...">
<polygon fill="white" stroke="#666666" points="149,-19.25 73,-19.25 73,0 149,0 149,-19.25"/>
<text text-anchor="middle" x="111" y="-5.75" font-family="Helvetica,sans-Serif" font-size="10.00">input_validate</text>
</a>
</g>
</g>
<!-- Node1&#45;&gt;Node2 -->
<g id="edge1_Node000001_Node000002" class="edge">
<title>Node1&#45;&gt;Node2</title>
<g id="a_edge1_Node000001_Node000002"><a xlink:title=" ">
<path fill="none" stroke="#63b8ff" d="M173.37,-9.62C165.26,-9.62 157.07,-9.62 149.42,-9.62"/>
<polygon fill="#63b8ff" stroke="#63b8ff" points="173.2,-13.13 183.2,-9.63 173.2,-6.13 173.2,-13.13"/>
</a>
</g>
</g>
<!-- Node3 -->
<g id="Node000003" class="node">
<title>Node3</title>
<g id="a_Node000003"><a xlink:href="mini__ray_8c.html#a0c99d968a34e803d378692bde2e3f18f" target="_top" xlink:title=" ">
<polygon fill="white" stroke="#666666" points="37,-19.25 0,-19.25 0,0 37,0 37,-19.25"/>
<text text-anchor="middle" x="18.5" y="-5.75" font-family="Helvetica,sans-Serif" font-size="10.00">main</text>
</a>
</g>
</g>
<!-- Node2&#45;&gt;Node3 -->
<g id="edge2_Node000002_Node000003" class="edge">
<title>Node2&#45;&gt;Node3</title>
<g id="a_edge2_Node000002_Node000003"><a xlink:title=" ">
<path fill="none" stroke="#63b8ff" d="M61.34,-9.62C52.71,-9.62 44.25,-9.62 37.21,-9.62"/>
<polygon fill="#63b8ff" stroke="#63b8ff" points="61.15,-13.13 71.15,-9.63 61.15,-6.13 61.15,-13.13"/>
</a>
</g>
</g>
</g>
</svg>
