<?xml version="1.0" encoding="UTF-8" standalone="no"?>
<!DOCTYPE svg PUBLIC "-//W3C//DTD SVG 1.1//EN"
 "http://www.w3.org/Graphics/SVG/1.1/DTD/svg11.dtd">
<!-- Generated by graphviz version 9.0.0 (20230911.1827)
 -->
<!-- Title: /github/workspace/LIB/muk_lib/Files/check_extension.c Pages: 1 -->
<svg width="308pt" height="160pt"
 viewBox="0.00 0.00 308.00 160.25" xmlns="http://www.w3.org/2000/svg" xmlns:xlink="http://www.w3.org/1999/xlink">
<g id="graph0" class="graph" transform="scale(1 1) rotate(0) translate(4 156.25)">
<title>/github/workspace/LIB/muk_lib/Files/check_extension.c</title>
<!-- Node1 -->
<g id="Node000001" class="node">
<title>Node1</title>
<g id="a_Node000001"><a xlink:title=" ">
<polygon fill="#999999" stroke="#666666" points="211.5,-152.25 97.25,-152.25 97.25,-110.5 211.5,-110.5 211.5,-152.25"/>
<text text-anchor="start" x="105.25" y="-138.75" font-family="Helvetica,sans-Serif" font-size="10.00">/github/workspace/LIB</text>
<text text-anchor="start" x="105.25" y="-127.5" font-family="Helvetica,sans-Serif" font-size="10.00">/muk_lib/Files/check</text>
<text text-anchor="middle" x="154.38" y="-116.25" font-family="Helvetica,sans-Serif" font-size="10.00">_extension.c</text>
</a>
</g>
</g>
<!-- Node2 -->
<g id="Node000002" class="node">
<title>Node2</title>
<g id="a_Node000002"><a xlink:href="muk__lib_8h.html" target="_top" xlink:title=" ">
<polygon fill="white" stroke="#666666" points="186.75,-74.5 122,-74.5 122,-55.25 186.75,-55.25 186.75,-74.5"/>
<text text-anchor="middle" x="154.38" y="-61" font-family="Helvetica,sans-Serif" font-size="10.00">../muk_lib.h</text>
</a>
</g>
</g>
<!-- Node1&#45;&gt;Node2 -->
<g id="edge1_Node000001_Node000002" class="edge">
<title>Node1&#45;&gt;Node2</title>
<g id="a_edge1_Node000001_Node000002"><a xlink:title=" ">
<path fill="none" stroke="#63b8ff" d="M154.38,-110.32C154.38,-102.65 154.38,-93.89 154.38,-86.2"/>
<polygon fill="#63b8ff" stroke="#63b8ff" points="157.88,-86.46 154.38,-76.46 150.88,-86.46 157.88,-86.46"/>
</a>
</g>
</g>
<!-- Node3 -->
<g id="Node000003" class="node">
<title>Node3</title>
<g id="a_Node000003"><a xlink:title=" ">
<polygon fill="#e0e0e0" stroke="#999999" points="46.75,-19.25 0,-19.25 0,0 46.75,0 46.75,-19.25"/>
<text text-anchor="middle" x="23.38" y="-5.75" font-family="Helvetica,sans-Serif" font-size="10.00">stdlib.h</text>
</a>
</g>
</g>
<!-- Node2&#45;&gt;Node3 -->
<g id="edge2_Node000002_Node000003" class="edge">
<title>Node2&#45;&gt;Node3</title>
<g id="a_edge2_Node000002_Node000003"><a xlink:title=" ">
<path fill="none" stroke="#63b8ff" d="M132.15,-54.84C111.36,-46.39 80.03,-33.65 56.32,-24.02"/>
<polygon fill="#63b8ff" stroke="#63b8ff" points="57.69,-20.8 47.11,-20.27 55.05,-27.28 57.69,-20.8"/>
</a>
</g>
</g>
<!-- Node4 -->
<g id="Node000004" class="node">
<title>Node4</title>
<g id="a_Node000004"><a xlink:title=" ">
<polygon fill="#e0e0e0" stroke="#999999" points="114.25,-19.25 64.5,-19.25 64.5,0 114.25,0 114.25,-19.25"/>
<text text-anchor="middle" x="89.38" y="-5.75" font-family="Helvetica,sans-Serif" font-size="10.00">unistd.h</text>
</a>
</g>
</g>
<!-- Node2&#45;&gt;Node4 -->
<g id="edge3_Node000002_Node000004" class="edge">
<title>Node2&#45;&gt;Node4</title>
<g id="a_edge3_Node000002_Node000004"><a xlink:title=" ">
<path fill="none" stroke="#63b8ff" d="M143.35,-54.84C133.95,-47.15 120.23,-35.9 108.97,-26.68"/>
<polygon fill="#63b8ff" stroke="#63b8ff" points="111.36,-24.11 101.41,-20.48 106.93,-29.53 111.36,-24.11"/>
</a>
</g>
</g>
<!-- Node5 -->
<g id="Node000005" class="node">
<title>Node5</title>
<g id="a_Node000005"><a xlink:title=" ">
<polygon fill="#e0e0e0" stroke="#999999" points="176.62,-19.25 132.12,-19.25 132.12,0 176.62,0 176.62,-19.25"/>
<text text-anchor="middle" x="154.38" y="-5.75" font-family="Helvetica,sans-Serif" font-size="10.00">stdio.h</text>
</a>
</g>
</g>
<!-- Node2&#45;&gt;Node5 -->
<g id="edge4_Node000002_Node000005" class="edge">
<title>Node2&#45;&gt;Node5</title>
<g id="a_edge4_Node000002_Node000005"><a xlink:title=" ">
<path fill="none" stroke="#63b8ff" d="M154.38,-55.08C154.38,-48.57 154.38,-39.42 154.38,-31.12"/>
<polygon fill="#63b8ff" stroke="#63b8ff" points="157.88,-31.12 154.38,-21.12 150.88,-31.12 157.88,-31.12"/>
</a>
</g>
</g>
<!-- Node6 -->
<g id="Node000006" class="node">
<title>Node6</title>
<g id="a_Node000006"><a xlink:title=" ">
<polygon fill="#e0e0e0" stroke="#999999" points="236.5,-19.25 194.25,-19.25 194.25,0 236.5,0 236.5,-19.25"/>
<text text-anchor="middle" x="215.38" y="-5.75" font-family="Helvetica,sans-Serif" font-size="10.00">fcntl.h</text>
</a>
</g>
</g>
<!-- Node2&#45;&gt;Node6 -->
<g id="edge5_Node000002_Node000006" class="edge">
<title>Node2&#45;&gt;Node6</title>
<g id="a_edge5_Node000002_Node000006"><a xlink:title=" ">
<path fill="none" stroke="#63b8ff" d="M164.72,-54.84C173.45,-47.22 186.16,-36.12 196.67,-26.95"/>
<polygon fill="#63b8ff" stroke="#63b8ff" points="198.81,-29.73 204.04,-20.52 194.2,-24.46 198.81,-29.73"/>
</a>
</g>
</g>
<!-- Node7 -->
<g id="Node000007" class="node">
<title>Node7</title>
<g id="a_Node000007"><a xlink:title=" ">
<polygon fill="#e0e0e0" stroke="#999999" points="300,-19.25 254.75,-19.25 254.75,0 300,0 300,-19.25"/>
<text text-anchor="middle" x="277.38" y="-5.75" font-family="Helvetica,sans-Serif" font-size="10.00">math.h</text>
</a>
</g>
</g>
<!-- Node2&#45;&gt;Node7 -->
<g id="edge6_Node000002_Node000007" class="edge">
<title>Node2&#45;&gt;Node7</title>
<g id="a_edge6_Node000002_Node000007"><a xlink:title=" ">
<path fill="none" stroke="#63b8ff" d="M175.24,-54.84C194.68,-46.43 223.92,-33.77 246.14,-24.15"/>
<polygon fill="#63b8ff" stroke="#63b8ff" points="247.23,-27.49 255.02,-20.3 244.45,-21.06 247.23,-27.49"/>
</a>
</g>
</g>
</g>
</svg>
