<?xml version="1.0" encoding="UTF-8" standalone="no"?>
<!DOCTYPE svg PUBLIC "-//W3C//DTD SVG 1.1//EN"
 "http://www.w3.org/Graphics/SVG/1.1/DTD/svg11.dtd">
<!-- Generated by graphviz version 9.0.0 (20230911.1827)
 -->
<!-- Title: /github/workspace/SRC/CORE/CLEANUP/cleanup.c Pages: 1 -->
<svg width="729pt" height="204pt"
 viewBox="0.00 0.00 728.88 204.25" xmlns="http://www.w3.org/2000/svg" xmlns:xlink="http://www.w3.org/1999/xlink">
<g id="graph0" class="graph" transform="scale(1 1) rotate(0) translate(4 200.25)">
<title>/github/workspace/SRC/CORE/CLEANUP/cleanup.c</title>
<!-- Node1 -->
<g id="Node000001" class="node">
<title>Node1</title>
<g id="a_Node000001"><a xlink:title=" ">
<polygon fill="#999999" stroke="#666666" points="346.88,-196.25 206.38,-196.25 206.38,-165.75 346.88,-165.75 346.88,-196.25"/>
<text text-anchor="start" x="214.38" y="-182.75" font-family="Helvetica,sans-Serif" font-size="10.00">/github/workspace/SRC</text>
<text text-anchor="middle" x="276.62" y="-171.5" font-family="Helvetica,sans-Serif" font-size="10.00">/CORE/CLEANUP/cleanup.c</text>
</a>
</g>
</g>
<!-- Node2 -->
<g id="Node000002" class="node">
<title>Node2</title>
<g id="a_Node000002"><a xlink:href="muk__lib_8h.html" target="_top" xlink:title=" ">
<polygon fill="white" stroke="#666666" points="338.25,-74.5 281,-74.5 281,-55.25 338.25,-55.25 338.25,-74.5"/>
<text text-anchor="middle" x="309.62" y="-61" font-family="Helvetica,sans-Serif" font-size="10.00">muk_lib.h</text>
</a>
</g>
</g>
<!-- Node1&#45;&gt;Node2 -->
<g id="edge1_Node000001_Node000002" class="edge">
<title>Node1&#45;&gt;Node2</title>
<g id="a_edge1_Node000001_Node000002"><a xlink:title=" ">
<path fill="none" stroke="#63b8ff" d="M281.43,-165.54C284.71,-155.53 289.08,-141.88 292.62,-129.75 296.92,-115.04 301.36,-98.31 304.62,-85.65"/>
<polygon fill="#63b8ff" stroke="#63b8ff" points="307.99,-86.61 307.07,-76.06 301.21,-84.88 307.99,-86.61"/>
</a>
</g>
</g>
<!-- Node8 -->
<g id="Node000008" class="node">
<title>Node8</title>
<g id="a_Node000008"><a xlink:href="core__cleanup_8h.html" target="_top" xlink:title=" ">
<polygon fill="white" stroke="#666666" points="283.25,-129.75 202,-129.75 202,-110.5 283.25,-110.5 283.25,-129.75"/>
<text text-anchor="middle" x="242.62" y="-116.25" font-family="Helvetica,sans-Serif" font-size="10.00">core_cleanup.h</text>
</a>
</g>
</g>
<!-- Node1&#45;&gt;Node8 -->
<g id="edge7_Node000001_Node000008" class="edge">
<title>Node1&#45;&gt;Node8</title>
<g id="a_edge7_Node000001_Node000008"><a xlink:title=" ">
<path fill="none" stroke="#63b8ff" d="M268.22,-165.45C263.79,-157.78 258.3,-148.27 253.55,-140.04"/>
<polygon fill="#63b8ff" stroke="#63b8ff" points="256.66,-138.42 248.62,-131.51 250.59,-141.92 256.66,-138.42"/>
</a>
</g>
</g>
<!-- Node13 -->
<g id="Node000013" class="node">
<title>Node13</title>
<g id="a_Node000013"><a xlink:href="base__matrices_8h.html" target="_top" xlink:title=" ">
<polygon fill="white" stroke="#666666" points="87.25,-129.75 0,-129.75 0,-110.5 87.25,-110.5 87.25,-129.75"/>
<text text-anchor="middle" x="43.62" y="-116.25" font-family="Helvetica,sans-Serif" font-size="10.00">base_matrices.h</text>
</a>
</g>
</g>
<!-- Node1&#45;&gt;Node13 -->
<g id="edge13_Node000001_Node000013" class="edge">
<title>Node1&#45;&gt;Node13</title>
<g id="a_edge13_Node000001_Node000013"><a xlink:title=" ">
<path fill="none" stroke="#63b8ff" d="M218.43,-165.3C178.97,-155.33 127.5,-142.32 90.64,-133"/>
<polygon fill="#63b8ff" stroke="#63b8ff" points="91.72,-129.67 81.17,-130.61 90.01,-136.45 91.72,-129.67"/>
</a>
</g>
</g>
<!-- Node14 -->
<g id="Node000014" class="node">
<title>Node14</title>
<g id="a_Node000014"><a xlink:href="objects__utils_8h.html" target="_top" xlink:title=" ">
<polygon fill="white" stroke="#666666" points="183.75,-129.75 105.5,-129.75 105.5,-110.5 183.75,-110.5 183.75,-129.75"/>
<text text-anchor="middle" x="144.62" y="-116.25" font-family="Helvetica,sans-Serif" font-size="10.00">objects_utils.h</text>
</a>
</g>
</g>
<!-- Node1&#45;&gt;Node14 -->
<g id="edge15_Node000001_Node000014" class="edge">
<title>Node1&#45;&gt;Node14</title>
<g id="a_edge15_Node000001_Node000014"><a xlink:title=" ">
<path fill="none" stroke="#63b8ff" d="M243.66,-165.3C222.68,-155.94 195.72,-143.91 175.22,-134.77"/>
<polygon fill="#63b8ff" stroke="#63b8ff" points="176.81,-131.65 166.25,-130.77 173.96,-138.04 176.81,-131.65"/>
</a>
</g>
</g>
<!-- Node15 -->
<g id="Node000015" class="node">
<title>Node15</title>
<g id="a_Node000015"><a xlink:href="libft_8h.html" target="_top" xlink:title=" ">
<polygon fill="white" stroke="#666666" points="506.25,-129.75 467,-129.75 467,-110.5 506.25,-110.5 506.25,-129.75"/>
<text text-anchor="middle" x="486.62" y="-116.25" font-family="Helvetica,sans-Serif" font-size="10.00">libft.h</text>
</a>
</g>
</g>
<!-- Node1&#45;&gt;Node15 -->
<g id="edge17_Node000001_Node000015" class="edge">
<title>Node1&#45;&gt;Node15</title>
<g id="a_edge17_Node000001_Node000015"><a xlink:title=" ">
<path fill="none" stroke="#63b8ff" d="M329.08,-165.3C368.96,-154.11 422.47,-139.11 455.73,-129.79"/>
<polygon fill="#63b8ff" stroke="#63b8ff" points="456.46,-133.22 465.14,-127.15 454.57,-126.48 456.46,-133.22"/>
</a>
</g>
</g>
<!-- Node21 -->
<g id="Node000021" class="node">
<title>Node21</title>
<g id="a_Node000021"><a xlink:title=" ">
<polygon fill="#e0e0e0" stroke="#999999" points="562.88,-129.75 524.38,-129.75 524.38,-110.5 562.88,-110.5 562.88,-129.75"/>
<text text-anchor="middle" x="543.62" y="-116.25" font-family="Helvetica,sans-Serif" font-size="10.00">mlx.h</text>
</a>
</g>
</g>
<!-- Node1&#45;&gt;Node21 -->
<g id="edge30_Node000001_Node000021" class="edge">
<title>Node1&#45;&gt;Node21</title>
<g id="a_edge30_Node000001_Node000021"><a xlink:title=" ">
<path fill="none" stroke="#63b8ff" d="M347.35,-166.9C392.42,-158.14 452.25,-145.76 513.13,-130.22"/>
<polygon fill="#63b8ff" stroke="#63b8ff" points="513.84,-133.65 522.64,-127.77 512.08,-126.88 513.84,-133.65"/>
</a>
</g>
</g>
<!-- Node3 -->
<g id="Node000003" class="node">
<title>Node3</title>
<g id="a_Node000003"><a xlink:title=" ">
<polygon fill="#e0e0e0" stroke="#999999" points="394,-19.25 347.25,-19.25 347.25,0 394,0 394,-19.25"/>
<text text-anchor="middle" x="370.62" y="-5.75" font-family="Helvetica,sans-Serif" font-size="10.00">stdlib.h</text>
</a>
</g>
</g>
<!-- Node2&#45;&gt;Node3 -->
<g id="edge2_Node000002_Node000003" class="edge">
<title>Node2&#45;&gt;Node3</title>
<g id="a_edge2_Node000002_Node000003"><a xlink:title=" ">
<path fill="none" stroke="#63b8ff" d="M319.97,-54.84C328.7,-47.22 341.41,-36.12 351.92,-26.95"/>
<polygon fill="#63b8ff" stroke="#63b8ff" points="354.06,-29.73 359.29,-20.52 349.45,-24.46 354.06,-29.73"/>
</a>
</g>
</g>
<!-- Node4 -->
<g id="Node000004" class="node">
<title>Node4</title>
<g id="a_Node000004"><a xlink:title=" ">
<polygon fill="#e0e0e0" stroke="#999999" points="621.5,-19.25 571.75,-19.25 571.75,0 621.5,0 621.5,-19.25"/>
<text text-anchor="middle" x="596.62" y="-5.75" font-family="Helvetica,sans-Serif" font-size="10.00">unistd.h</text>
</a>
</g>
</g>
<!-- Node2&#45;&gt;Node4 -->
<g id="edge3_Node000002_Node000004" class="edge">
<title>Node2&#45;&gt;Node4</title>
<g id="a_edge3_Node000002_Node000004"><a xlink:title=" ">
<path fill="none" stroke="#63b8ff" d="M338.72,-58.48C391.52,-48.68 502.94,-28.01 560.51,-17.33"/>
<polygon fill="#63b8ff" stroke="#63b8ff" points="560.92,-20.81 570.11,-15.54 559.64,-13.93 560.92,-20.81"/>
</a>
</g>
</g>
<!-- Node5 -->
<g id="Node000005" class="node">
<title>Node5</title>
<g id="a_Node000005"><a xlink:title=" ">
<polygon fill="#e0e0e0" stroke="#999999" points="265.88,-19.25 221.38,-19.25 221.38,0 265.88,0 265.88,-19.25"/>
<text text-anchor="middle" x="243.62" y="-5.75" font-family="Helvetica,sans-Serif" font-size="10.00">stdio.h</text>
</a>
</g>
</g>
<!-- Node2&#45;&gt;Node5 -->
<g id="edge4_Node000002_Node000005" class="edge">
<title>Node2&#45;&gt;Node5</title>
<g id="a_edge4_Node000002_Node000005"><a xlink:title=" ">
<path fill="none" stroke="#63b8ff" d="M298.43,-54.84C288.89,-47.15 274.95,-35.9 263.52,-26.68"/>
<polygon fill="#63b8ff" stroke="#63b8ff" points="265.81,-24.03 255.83,-20.48 261.42,-29.48 265.81,-24.03"/>
</a>
</g>
</g>
<!-- Node6 -->
<g id="Node000006" class="node">
<title>Node6</title>
<g id="a_Node000006"><a xlink:title=" ">
<polygon fill="#e0e0e0" stroke="#999999" points="519.75,-19.25 477.5,-19.25 477.5,0 519.75,0 519.75,-19.25"/>
<text text-anchor="middle" x="498.62" y="-5.75" font-family="Helvetica,sans-Serif" font-size="10.00">fcntl.h</text>
</a>
</g>
</g>
<!-- Node2&#45;&gt;Node6 -->
<g id="edge5_Node000002_Node000006" class="edge">
<title>Node2&#45;&gt;Node6</title>
<g id="a_edge5_Node000002_Node000006"><a xlink:title=" ">
<path fill="none" stroke="#63b8ff" d="M338.74,-55.67C373.22,-45.96 430.47,-29.83 466.3,-19.73"/>
<polygon fill="#63b8ff" stroke="#63b8ff" points="466.98,-23.18 475.66,-17.1 465.09,-16.44 466.98,-23.18"/>
</a>
</g>
</g>
<!-- Node7 -->
<g id="Node000007" class="node">
<title>Node7</title>
<g id="a_Node000007"><a xlink:title=" ">
<polygon fill="#e0e0e0" stroke="#999999" points="329.25,-19.25 284,-19.25 284,0 329.25,0 329.25,-19.25"/>
<text text-anchor="middle" x="306.62" y="-5.75" font-family="Helvetica,sans-Serif" font-size="10.00">math.h</text>
</a>
</g>
</g>
<!-- Node2&#45;&gt;Node7 -->
<g id="edge6_Node000002_Node000007" class="edge">
<title>Node2&#45;&gt;Node7</title>
<g id="a_edge6_Node000002_Node000007"><a xlink:title=" ">
<path fill="none" stroke="#63b8ff" d="M309.13,-55.08C308.76,-48.49 308.24,-39.21 307.76,-30.82"/>
<polygon fill="#63b8ff" stroke="#63b8ff" points="311.27,-30.91 307.22,-21.12 304.28,-31.3 311.27,-30.91"/>
</a>
</g>
</g>
<!-- Node9 -->
<g id="Node000009" class="node">
<title>Node9</title>
<g id="a_Node000009"><a xlink:title=" ">
<polygon fill="#e0e0e0" stroke="#999999" points="263,-74.5 186.25,-74.5 186.25,-55.25 263,-55.25 263,-74.5"/>
<text text-anchor="middle" x="224.62" y="-61" font-family="Helvetica,sans-Serif" font-size="10.00">X11/keysym.h</text>
</a>
</g>
</g>
<!-- Node8&#45;&gt;Node9 -->
<g id="edge8_Node000008_Node000009" class="edge">
<title>Node8&#45;&gt;Node9</title>
<g id="a_edge8_Node000008_Node000009"><a xlink:title=" ">
<path fill="none" stroke="#63b8ff" d="M239.65,-110.33C237.37,-103.59 234.14,-94.02 231.26,-85.49"/>
<polygon fill="#63b8ff" stroke="#63b8ff" points="234.66,-84.65 228.15,-76.29 228.03,-86.89 234.66,-84.65"/>
</a>
</g>
</g>
<!-- Node10 -->
<g id="Node000010" class="node">
<title>Node10</title>
<g id="a_Node000010"><a xlink:href="types_8h.html" target="_top" xlink:title=" ">
<polygon fill="white" stroke="#666666" points="168,-74.5 121.25,-74.5 121.25,-55.25 168,-55.25 168,-74.5"/>
<text text-anchor="middle" x="144.62" y="-61" font-family="Helvetica,sans-Serif" font-size="10.00">types.h</text>
</a>
</g>
</g>
<!-- Node8&#45;&gt;Node10 -->
<g id="edge9_Node000008_Node000010" class="edge">
<title>Node8&#45;&gt;Node10</title>
<g id="a_edge9_Node000008_Node000010"><a xlink:title=" ">
<path fill="none" stroke="#63b8ff" d="M226,-110.09C210.94,-101.91 188.48,-89.71 170.97,-80.19"/>
<polygon fill="#63b8ff" stroke="#63b8ff" points="173.12,-77.37 162.66,-75.68 169.78,-83.52 173.12,-77.37"/>
</a>
</g>
</g>
<!-- Node10&#45;&gt;Node3 -->
<g id="edge11_Node000010_Node000003" class="edge">
<title>Node10&#45;&gt;Node3</title>
<g id="a_edge11_Node000010_Node000003"><a xlink:title=" ">
<path fill="none" stroke="#63b8ff" d="M168.39,-57.55C171.49,-56.76 174.63,-55.98 177.62,-55.25 245.54,-38.79 265.58,-36.94 336.11,-19.79"/>
<polygon fill="#63b8ff" stroke="#63b8ff" points="336.54,-23.29 345.42,-17.51 334.87,-16.49 336.54,-23.29"/>
</a>
</g>
</g>
<!-- Node11 -->
<g id="Node000011" class="node">
<title>Node11</title>
<g id="a_Node000011"><a xlink:title=" ">
<polygon fill="#e0e0e0" stroke="#999999" points="119.12,-19.25 64.12,-19.25 64.12,0 119.12,0 119.12,-19.25"/>
<text text-anchor="middle" x="91.62" y="-5.75" font-family="Helvetica,sans-Serif" font-size="10.00">stdbool.h</text>
</a>
</g>
</g>
<!-- Node10&#45;&gt;Node11 -->
<g id="edge10_Node000010_Node000011" class="edge">
<title>Node10&#45;&gt;Node11</title>
<g id="a_edge10_Node000010_Node000011"><a xlink:title=" ">
<path fill="none" stroke="#63b8ff" d="M135.87,-55.08C128.48,-47.65 117.66,-36.79 108.58,-27.66"/>
<polygon fill="#63b8ff" stroke="#63b8ff" points="111.17,-25.3 101.63,-20.68 106.21,-30.24 111.17,-25.3"/>
</a>
</g>
</g>
<!-- Node12 -->
<g id="Node000012" class="node">
<title>Node12</title>
<g id="a_Node000012"><a xlink:title=" ">
<polygon fill="#e0e0e0" stroke="#999999" points="184,-19.25 137.25,-19.25 137.25,0 184,0 184,-19.25"/>
<text text-anchor="middle" x="160.62" y="-5.75" font-family="Helvetica,sans-Serif" font-size="10.00">limits.h</text>
</a>
</g>
</g>
<!-- Node10&#45;&gt;Node12 -->
<g id="edge12_Node000010_Node000012" class="edge">
<title>Node10&#45;&gt;Node12</title>
<g id="a_edge12_Node000010_Node000012"><a xlink:title=" ">
<path fill="none" stroke="#63b8ff" d="M147.27,-55.08C149.27,-48.42 152.1,-38.99 154.64,-30.53"/>
<polygon fill="#63b8ff" stroke="#63b8ff" points="157.96,-31.64 157.49,-21.06 151.26,-29.63 157.96,-31.64"/>
</a>
</g>
</g>
<!-- Node13&#45;&gt;Node10 -->
<g id="edge14_Node000013_Node000010" class="edge">
<title>Node13&#45;&gt;Node10</title>
<g id="a_edge14_Node000013_Node000010"><a xlink:title=" ">
<path fill="none" stroke="#63b8ff" d="M60.76,-110.09C76.28,-101.91 99.43,-89.71 117.47,-80.19"/>
<polygon fill="#63b8ff" stroke="#63b8ff" points="118.86,-83.42 126.07,-75.66 115.59,-77.23 118.86,-83.42"/>
</a>
</g>
</g>
<!-- Node14&#45;&gt;Node10 -->
<g id="edge16_Node000014_Node000010" class="edge">
<title>Node14&#45;&gt;Node10</title>
<g id="a_edge16_Node000014_Node000010"><a xlink:title=" ">
<path fill="none" stroke="#63b8ff" d="M144.62,-110.33C144.62,-103.82 144.62,-94.67 144.62,-86.37"/>
<polygon fill="#63b8ff" stroke="#63b8ff" points="148.13,-86.37 144.63,-76.37 141.13,-86.37 148.13,-86.37"/>
</a>
</g>
</g>
<!-- Node15&#45;&gt;Node3 -->
<g id="edge18_Node000015_Node000003" class="edge">
<title>Node15&#45;&gt;Node3</title>
<g id="a_edge18_Node000015_Node000003"><a xlink:title=" ">
<path fill="none" stroke="#63b8ff" d="M466.73,-115.8C443.7,-110.89 406.31,-99.43 385.62,-74.5 375.49,-62.29 371.94,-44.44 370.82,-30.72"/>
<polygon fill="#63b8ff" stroke="#63b8ff" points="374.33,-30.91 370.41,-21.06 367.33,-31.2 374.33,-30.91"/>
</a>
</g>
</g>
<!-- Node15&#45;&gt;Node4 -->
<g id="edge19_Node000015_Node000004" class="edge">
<title>Node15&#45;&gt;Node4</title>
<g id="a_edge19_Node000015_Node000004"><a xlink:title=" ">
<path fill="none" stroke="#63b8ff" d="M506.74,-112.94C542.63,-101.83 614.28,-79.18 617.62,-74.5 627.37,-60.88 619.6,-42.47 610.89,-28.92"/>
<polygon fill="#63b8ff" stroke="#63b8ff" points="613.83,-27.02 605.19,-20.89 608.12,-31.07 613.83,-27.02"/>
</a>
</g>
</g>
<!-- Node16 -->
<g id="Node000016" class="node">
<title>Node16</title>
<g id="a_Node000016"><a xlink:title=" ">
<polygon fill="#e0e0e0" stroke="#999999" points="444.88,-74.5 394.38,-74.5 394.38,-55.25 444.88,-55.25 444.88,-74.5"/>
<text text-anchor="middle" x="419.62" y="-61" font-family="Helvetica,sans-Serif" font-size="10.00">stddef.h</text>
</a>
</g>
</g>
<!-- Node15&#45;&gt;Node16 -->
<g id="edge20_Node000015_Node000016" class="edge">
<title>Node15&#45;&gt;Node16</title>
<g id="a_edge20_Node000015_Node000016"><a xlink:title=" ">
<path fill="none" stroke="#63b8ff" d="M475.26,-110.09C465.58,-102.4 451.43,-91.15 439.82,-81.93"/>
<polygon fill="#63b8ff" stroke="#63b8ff" points="442.01,-79.2 432.01,-75.72 437.66,-84.68 442.01,-79.2"/>
</a>
</g>
</g>
<!-- Node17 -->
<g id="Node000017" class="node">
<title>Node17</title>
<g id="a_Node000017"><a xlink:title=" ">
<polygon fill="#e0e0e0" stroke="#999999" points="510.38,-74.5 462.88,-74.5 462.88,-55.25 510.38,-55.25 510.38,-74.5"/>
<text text-anchor="middle" x="486.62" y="-61" font-family="Helvetica,sans-Serif" font-size="10.00">stdint.h</text>
</a>
</g>
</g>
<!-- Node15&#45;&gt;Node17 -->
<g id="edge21_Node000015_Node000017" class="edge">
<title>Node15&#45;&gt;Node17</title>
<g id="a_edge21_Node000015_Node000017"><a xlink:title=" ">
<path fill="none" stroke="#63b8ff" d="M486.62,-110.33C486.62,-103.82 486.62,-94.67 486.62,-86.37"/>
<polygon fill="#63b8ff" stroke="#63b8ff" points="490.13,-86.37 486.63,-76.37 483.13,-86.37 490.13,-86.37"/>
</a>
</g>
</g>
<!-- Node18 -->
<g id="Node000018" class="node">
<title>Node18</title>
<g id="a_Node000018"><a xlink:href="get__next__line_8h.html" target="_top" xlink:title=" ">
<polygon fill="white" stroke="#666666" points="608.88,-74.5 528.38,-74.5 528.38,-55.25 608.88,-55.25 608.88,-74.5"/>
<text text-anchor="middle" x="568.62" y="-61" font-family="Helvetica,sans-Serif" font-size="10.00">get_next_line.h</text>
</a>
</g>
</g>
<!-- Node15&#45;&gt;Node18 -->
<g id="edge22_Node000015_Node000018" class="edge">
<title>Node15&#45;&gt;Node18</title>
<g id="a_edge22_Node000015_Node000018"><a xlink:title=" ">
<path fill="none" stroke="#63b8ff" d="M500.54,-110.09C512.79,-102.14 530.88,-90.39 545.34,-81"/>
<polygon fill="#63b8ff" stroke="#63b8ff" points="546.9,-84.16 553.38,-75.78 543.08,-78.29 546.9,-84.16"/>
</a>
</g>
</g>
<!-- Node19 -->
<g id="Node000019" class="node">
<title>Node19</title>
<g id="a_Node000019"><a xlink:href="ft__printf_8h.html" target="_top" xlink:title=" ">
<polygon fill="white" stroke="#666666" points="720.88,-74.5 664.38,-74.5 664.38,-55.25 720.88,-55.25 720.88,-74.5"/>
<text text-anchor="middle" x="692.62" y="-61" font-family="Helvetica,sans-Serif" font-size="10.00">ft_printf.h</text>
</a>
</g>
</g>
<!-- Node15&#45;&gt;Node19 -->
<g id="edge26_Node000015_Node000019" class="edge">
<title>Node15&#45;&gt;Node19</title>
<g id="a_edge26_Node000015_Node000019"><a xlink:title=" ">
<path fill="none" stroke="#63b8ff" d="M507.08,-110.37C557.03,-96.67 615.23,-82.31 653.09,-73.73"/>
<polygon fill="#63b8ff" stroke="#63b8ff" points="653.68,-77.18 662.68,-71.59 652.16,-70.35 653.68,-77.18"/>
</a>
</g>
</g>
<!-- Node18&#45;&gt;Node3 -->
<g id="edge23_Node000018_Node000003" class="edge">
<title>Node18&#45;&gt;Node3</title>
<g id="a_edge23_Node000018_Node000003"><a xlink:title=" ">
<path fill="none" stroke="#63b8ff" d="M535.04,-54.84C499,-45.15 442.02,-29.83 405.5,-20"/>
<polygon fill="#63b8ff" stroke="#63b8ff" points="406.43,-16.63 395.87,-17.41 404.62,-23.39 406.43,-16.63"/>
</a>
</g>
</g>
<!-- Node18&#45;&gt;Node4 -->
<g id="edge25_Node000018_Node000004" class="edge">
<title>Node18&#45;&gt;Node4</title>
<g id="a_edge25_Node000018_Node000004"><a xlink:title=" ">
<path fill="none" stroke="#63b8ff" d="M573.25,-55.08C576.87,-48.19 582.05,-38.34 586.62,-29.66"/>
<polygon fill="#63b8ff" stroke="#63b8ff" points="589.64,-31.43 591.2,-20.95 583.44,-28.17 589.64,-31.43"/>
</a>
</g>
</g>
<!-- Node18&#45;&gt;Node6 -->
<g id="edge24_Node000018_Node000006" class="edge">
<title>Node18&#45;&gt;Node6</title>
<g id="a_edge24_Node000018_Node000006"><a xlink:title=" ">
<path fill="none" stroke="#63b8ff" d="M556.75,-54.84C546.53,-47.07 531.55,-35.67 519.36,-26.4"/>
<polygon fill="#63b8ff" stroke="#63b8ff" points="521.61,-23.71 511.53,-20.44 517.37,-29.28 521.61,-23.71"/>
</a>
</g>
</g>
<!-- Node19&#45;&gt;Node4 -->
<g id="edge28_Node000019_Node000004" class="edge">
<title>Node19&#45;&gt;Node4</title>
<g id="a_edge28_Node000019_Node000004"><a xlink:title=" ">
<path fill="none" stroke="#63b8ff" d="M676.34,-54.84C661.72,-46.73 640,-34.68 622.92,-25.21"/>
<polygon fill="#63b8ff" stroke="#63b8ff" points="624.76,-22.23 614.31,-20.44 621.36,-28.35 624.76,-22.23"/>
</a>
</g>
</g>
<!-- Node19&#45;&gt;Node15 -->
<g id="edge29_Node000019_Node000015" class="edge">
<title>Node19&#45;&gt;Node15</title>
<g id="a_edge29_Node000019_Node000015"><a xlink:title=" ">
<path fill="none" stroke="#63b8ff" d="M664.05,-74.33C630.44,-83 573.52,-97.07 524.62,-110.5 522.41,-111.11 520.1,-111.76 517.76,-112.42"/>
<polygon fill="#63b8ff" stroke="#63b8ff" points="516.85,-109.04 508.15,-115.08 518.72,-115.79 516.85,-109.04"/>
</a>
</g>
</g>
<!-- Node20 -->
<g id="Node000020" class="node">
<title>Node20</title>
<g id="a_Node000020"><a xlink:title=" ">
<polygon fill="#e0e0e0" stroke="#999999" points="717.88,-19.25 667.38,-19.25 667.38,0 717.88,0 717.88,-19.25"/>
<text text-anchor="middle" x="692.62" y="-5.75" font-family="Helvetica,sans-Serif" font-size="10.00">stdarg.h</text>
</a>
</g>
</g>
<!-- Node19&#45;&gt;Node20 -->
<g id="edge27_Node000019_Node000020" class="edge">
<title>Node19&#45;&gt;Node20</title>
<g id="a_edge27_Node000019_Node000020"><a xlink:title=" ">
<path fill="none" stroke="#63b8ff" d="M692.62,-55.08C692.62,-48.57 692.62,-39.42 692.62,-31.12"/>
<polygon fill="#63b8ff" stroke="#63b8ff" points="696.13,-31.12 692.63,-21.12 689.13,-31.12 696.13,-31.12"/>
</a>
</g>
</g>
</g>
</svg>
