<?xml version="1.0" encoding="UTF-8" standalone="no"?>
<!DOCTYPE svg PUBLIC "-//W3C//DTD SVG 1.1//EN"
 "http://www.w3.org/Graphics/SVG/1.1/DTD/svg11.dtd">
<!-- Generated by graphviz version 9.0.0 (20230911.1827)
 -->
<!-- Title: exit_cleanup Pages: 1 -->
<svg width="396pt" height="217pt"
 viewBox="0.00 0.00 396.00 217.25" xmlns="http://www.w3.org/2000/svg" xmlns:xlink="http://www.w3.org/1999/xlink">
<g id="graph0" class="graph" transform="scale(1 1) rotate(0) translate(4 213.25)">
<title>exit_cleanup</title>
<!-- Node1 -->
<g id="Node000001" class="node">
<title>Node1</title>
<g id="a_Node000001"><a xlink:title=" ">
<polygon fill="#999999" stroke="#666666" points="388,-114.25 318,-114.25 318,-95 388,-95 388,-114.25"/>
<text text-anchor="middle" x="353" y="-100.75" font-family="Helvetica,sans-Serif" font-size="10.00">exit_cleanup</text>
</a>
</g>
</g>
<!-- Node2 -->
<g id="Node000002" class="node">
<title>Node2</title>
<g id="a_Node000002"><a xlink:href="init__lux_8c.html#aa725d1fe6d2725add14a565bb5c1b995" target="_top" xlink:title=" ">
<polygon fill="white" stroke="#666666" points="134.75,-209.25 88.75,-209.25 88.75,-190 134.75,-190 134.75,-209.25"/>
<text text-anchor="middle" x="111.75" y="-195.75" font-family="Helvetica,sans-Serif" font-size="10.00">init_lux</text>
</a>
</g>
</g>
<!-- Node1&#45;&gt;Node2 -->
<g id="edge1_Node000001_Node000002" class="edge">
<title>Node1&#45;&gt;Node2</title>
<g id="a_edge1_Node000001_Node000002"><a xlink:title=" ">
<path fill="none" stroke="#63b8ff" d="M339.01,-123.54C326.47,-140.18 305.91,-163.58 282,-175.62 233.89,-199.86 168.93,-201.79 135.19,-200.87"/>
<polygon fill="#63b8ff" stroke="#63b8ff" points="341.52,-126.04 344.55,-115.88 335.85,-121.94 341.52,-126.04"/>
</a>
</g>
</g>
<!-- Node3 -->
<g id="Node000003" class="node">
<title>Node3</title>
<g id="a_Node000003"><a xlink:href="mini__ray_8c.html#a0c99d968a34e803d378692bde2e3f18f" target="_top" xlink:title=" ">
<polygon fill="white" stroke="#666666" points="37,-133.25 0,-133.25 0,-114 37,-114 37,-133.25"/>
<text text-anchor="middle" x="18.5" y="-119.75" font-family="Helvetica,sans-Serif" font-size="10.00">main</text>
</a>
</g>
</g>
<!-- Node1&#45;&gt;Node3 -->
<g id="edge7_Node000001_Node000003" class="edge">
<title>Node1&#45;&gt;Node3</title>
<g id="a_edge7_Node000001_Node000003"><a xlink:title=" ">
<path fill="none" stroke="#63b8ff" d="M328.83,-121.02C315.75,-129.26 298.71,-138.38 282,-142.62 191.94,-165.49 164.87,-151.51 73,-137.62 60.85,-135.79 47.47,-132.29 37.14,-129.25"/>
<polygon fill="#63b8ff" stroke="#63b8ff" points="330.71,-123.97 337.13,-115.54 326.85,-118.13 330.71,-123.97"/>
</a>
</g>
</g>
<!-- Node4 -->
<g id="Node000004" class="node">
<title>Node4</title>
<g id="a_Node000004"><a xlink:href="init__mlx_8c.html#a1a6dc2f71f09a4fb49ab62f2e83ef424" target="_top" xlink:title=" ">
<polygon fill="white" stroke="#666666" points="258.75,-133.25 209.75,-133.25 209.75,-114 258.75,-114 258.75,-133.25"/>
<text text-anchor="middle" x="234.25" y="-119.75" font-family="Helvetica,sans-Serif" font-size="10.00">init_mlx</text>
</a>
</g>
</g>
<!-- Node1&#45;&gt;Node4 -->
<g id="edge3_Node000001_Node000004" class="edge">
<title>Node1&#45;&gt;Node4</title>
<g id="a_edge3_Node000001_Node000004"><a xlink:title=" ">
<path fill="none" stroke="#63b8ff" d="M306.65,-112.01C290.41,-114.65 272.75,-117.52 259.05,-119.75"/>
<polygon fill="#63b8ff" stroke="#63b8ff" points="306.8,-115.53 316.11,-110.47 305.68,-108.62 306.8,-115.53"/>
</a>
</g>
</g>
<!-- Node5 -->
<g id="Node000005" class="node">
<title>Node5</title>
<g id="a_Node000005"><a xlink:href="input__validate_8c.html#a1497d4d5fc8fdfecbe3b36df53d2195f" target="_top" xlink:title="Validating if argument count is 2 (exe and 1 extra) and the extra is a .rt file and we have permissio...">
<polygon fill="white" stroke="#666666" points="149.75,-95.25 73.75,-95.25 73.75,-76 149.75,-76 149.75,-95.25"/>
<text text-anchor="middle" x="111.75" y="-81.75" font-family="Helvetica,sans-Serif" font-size="10.00">input_validate</text>
</a>
</g>
</g>
<!-- Node1&#45;&gt;Node5 -->
<g id="edge5_Node000001_Node000005" class="edge">
<title>Node1&#45;&gt;Node5</title>
<g id="a_edge5_Node000001_Node000005"><a xlink:title=" ">
<path fill="none" stroke="#63b8ff" d="M306.45,-101.01C261.1,-97.41 192.35,-91.95 150.12,-88.59"/>
<polygon fill="#63b8ff" stroke="#63b8ff" points="305.97,-104.48 316.21,-101.78 306.52,-97.5 305.97,-104.48"/>
</a>
</g>
</g>
<!-- Node6 -->
<g id="Node000006" class="node">
<title>Node6</title>
<g id="a_Node000006"><a xlink:href="parse__main_8c.html#a62c4de2f960942eba61e7de12c387ae4" target="_top" xlink:title="Entry function to parsing .rt file where the file is attempted to be opened, t_parse structure is ini...">
<polygon fill="white" stroke="#666666" points="150.5,-57.25 73,-57.25 73,-38 150.5,-38 150.5,-57.25"/>
<text text-anchor="middle" x="111.75" y="-43.75" font-family="Helvetica,sans-Serif" font-size="10.00">parse_rt_main</text>
</a>
</g>
</g>
<!-- Node1&#45;&gt;Node6 -->
<g id="edge8_Node000001_Node000006" class="edge">
<title>Node1&#45;&gt;Node6</title>
<g id="a_edge8_Node000001_Node000006"><a xlink:title=" ">
<path fill="none" stroke="#63b8ff" d="M306.82,-93.61C298.57,-91.61 290.03,-89.55 282,-87.62 236.93,-76.83 185.06,-64.6 150.74,-56.53"/>
<polygon fill="#63b8ff" stroke="#63b8ff" points="305.82,-96.97 316.36,-95.93 307.47,-90.16 305.82,-96.97"/>
</a>
</g>
</g>
<!-- Node7 -->
<g id="Node000007" class="node">
<title>Node7</title>
<g id="a_Node000007"><a xlink:href="parse__main_8c.html#a5d7da6ab7925ffda04b676ef38880723" target="_top" xlink:title="Reading a line from the given .rt file and splitting the given line with the space (&#39; &#39;) delimiter....">
<polygon fill="white" stroke="#666666" points="282,-19.25 186.5,-19.25 186.5,0 282,0 282,-19.25"/>
<text text-anchor="middle" x="234.25" y="-5.75" font-family="Helvetica,sans-Serif" font-size="10.00">parse_rt_read_line</text>
</a>
</g>
</g>
<!-- Node1&#45;&gt;Node7 -->
<g id="edge10_Node000001_Node000007" class="edge">
<title>Node1&#45;&gt;Node7</title>
<g id="a_edge10_Node000001_Node000007"><a xlink:title=" ">
<path fill="none" stroke="#63b8ff" d="M336.89,-86.31C323.56,-70.94 303.03,-49.07 282,-33.62 274.79,-28.33 266.25,-23.58 258.46,-19.72"/>
<polygon fill="#63b8ff" stroke="#63b8ff" points="334.08,-88.41 343.22,-93.78 339.42,-83.89 334.08,-88.41"/>
</a>
</g>
</g>
<!-- Node2&#45;&gt;Node3 -->
<g id="edge2_Node000002_Node000003" class="edge">
<title>Node2&#45;&gt;Node3</title>
<g id="a_edge2_Node000002_Node000003"><a xlink:title=" ">
<path fill="none" stroke="#63b8ff" d="M83.73,-183.4C80.04,-180.92 76.37,-178.29 73,-175.62 56.13,-162.29 38.64,-144.39 28.43,-133.44"/>
<polygon fill="#63b8ff" stroke="#63b8ff" points="81.76,-186.3 92.06,-188.77 85.54,-180.41 81.76,-186.3"/>
</a>
</g>
</g>
<!-- Node4&#45;&gt;Node3 -->
<g id="edge4_Node000004_Node000003" class="edge">
<title>Node4&#45;&gt;Node3</title>
<g id="a_edge4_Node000004_Node000003"><a xlink:title=" ">
<path fill="none" stroke="#63b8ff" d="M198.33,-123.62C152.25,-123.62 72.82,-123.62 37.43,-123.62"/>
<polygon fill="#63b8ff" stroke="#63b8ff" points="198.04,-127.13 208.04,-123.63 198.04,-120.13 198.04,-127.13"/>
</a>
</g>
</g>
<!-- Node5&#45;&gt;Node3 -->
<g id="edge6_Node000005_Node000003" class="edge">
<title>Node5&#45;&gt;Node3</title>
<g id="a_edge6_Node000005_Node000003"><a xlink:title=" ">
<path fill="none" stroke="#63b8ff" d="M76.46,-99.9C63.12,-105.46 48.4,-111.59 37.26,-116.23"/>
<polygon fill="#63b8ff" stroke="#63b8ff" points="77.49,-103.27 85.38,-96.19 74.8,-96.8 77.49,-103.27"/>
</a>
</g>
</g>
<!-- Node6&#45;&gt;Node3 -->
<g id="edge9_Node000006_Node000003" class="edge">
<title>Node6&#45;&gt;Node3</title>
<g id="a_edge9_Node000006_Node000003"><a xlink:title=" ">
<path fill="none" stroke="#63b8ff" d="M77.81,-63.3C76.15,-64.37 74.54,-65.48 73,-66.62 54.3,-80.6 36.58,-101.52 26.96,-113.75"/>
<polygon fill="#63b8ff" stroke="#63b8ff" points="79.4,-66.42 86.32,-58.4 75.91,-60.36 79.4,-66.42"/>
</a>
</g>
</g>
<!-- Node7&#45;&gt;Node6 -->
<g id="edge11_Node000007_Node000006" class="edge">
<title>Node7&#45;&gt;Node6</title>
<g id="a_edge11_Node000007_Node000006"><a xlink:title=" ">
<path fill="none" stroke="#63b8ff" d="M190.57,-23.09C175.38,-27.87 158.56,-33.18 144.46,-37.63"/>
<polygon fill="#63b8ff" stroke="#63b8ff" points="191.35,-26.51 199.83,-20.16 189.24,-19.83 191.35,-26.51"/>
</a>
</g>
</g>
</g>
</svg>
