<?xml version="1.0" encoding="UTF-8" standalone="no"?>
<!DOCTYPE svg PUBLIC "-//W3C//DTD SVG 1.1//EN"
 "http://www.w3.org/Graphics/SVG/1.1/DTD/svg11.dtd">
<!-- Generated by graphviz version 9.0.0 (20230911.1827)
 -->
<!-- Title: t_trgb_to_addr Pages: 1 -->
<svg width="165pt" height="45pt"
 viewBox="0.00 0.00 164.50 45.25" xmlns="http://www.w3.org/2000/svg" xmlns:xlink="http://www.w3.org/1999/xlink">
<g id="graph0" class="graph" transform="scale(1 1) rotate(0) translate(4 41.25)">
<title>t_trgb_to_addr</title>
<!-- Node1 -->
<g id="Node000001" class="node">
<title>Node1</title>
<g id="a_Node000001"><a xlink:title="This function convert t_trgb to char pointer.">
<polygon fill="#999999" stroke="#666666" points="78.25,-19.25 0,-19.25 0,0 78.25,0 78.25,-19.25"/>
<text text-anchor="middle" x="39.12" y="-5.75" font-family="Helvetica,sans-Serif" font-size="10.00">t_trgb_to_addr</text>
</a>
</g>
</g>
<!-- Node2 -->
<g id="Node000002" class="node">
<title>Node2</title>
<g id="a_Node000002"><a xlink:href="colour_8c.html#a06b140860c7d645321abb45ead50e04b" target="_top" xlink:title=" ">
<polygon fill="white" stroke="#666666" points="156.5,-19.25 114.25,-19.25 114.25,0 156.5,0 156.5,-19.25"/>
<text text-anchor="middle" x="135.38" y="-5.75" font-family="Helvetica,sans-Serif" font-size="10.00">colour</text>
</a>
</g>
</g>
<!-- Node1&#45;&gt;Node2 -->
<g id="edge1_Node000001_Node000002" class="edge">
<title>Node1&#45;&gt;Node2</title>
<g id="a_edge1_Node000001_Node000002"><a xlink:title=" ">
<path fill="none" stroke="#63b8ff" d="M78.73,-9.62C86.61,-9.62 94.81,-9.62 102.42,-9.62"/>
<polygon fill="#63b8ff" stroke="#63b8ff" points="102.25,-13.13 112.25,-9.63 102.25,-6.13 102.25,-13.13"/>
</a>
</g>
</g>
<!-- Node2&#45;&gt;Node2 -->
<g id="edge2_Node000002_Node000002" class="edge">
<title>Node2&#45;&gt;Node2</title>
<g id="a_edge2_Node000002_Node000002"><a xlink:title=" ">
<path fill="none" stroke="#63b8ff" d="M120.31,-19.54C113.43,-28.15 118.46,-37.25 135.38,-37.25 144.63,-37.25 150.32,-34.53 152.46,-30.65"/>
<polygon fill="#63b8ff" stroke="#63b8ff" points="155.94,-30.24 150.71,-21.03 149.05,-31.49 155.94,-30.24"/>
</a>
</g>
</g>
</g>
</svg>
