<?xml version="1.0" encoding="UTF-8" standalone="no"?>
<!DOCTYPE svg PUBLIC "-//W3C//DTD SVG 1.1//EN"
 "http://www.w3.org/Graphics/SVG/1.1/DTD/svg11.dtd">
<!-- Generated by graphviz version 9.0.0 (20230911.1827)
 -->
<!-- Title: /github/workspace/SRC/BASE/COLOURS/colour_utils.c Pages: 1 -->
<svg width="549pt" height="216pt"
 viewBox="0.00 0.00 548.75 215.50" xmlns="http://www.w3.org/2000/svg" xmlns:xlink="http://www.w3.org/1999/xlink">
<g id="graph0" class="graph" transform="scale(1 1) rotate(0) translate(4 211.5)">
<title>/github/workspace/SRC/BASE/COLOURS/colour_utils.c</title>
<!-- Node1 -->
<g id="Node000001" class="node">
<title>Node1</title>
<g id="a_Node000001"><a xlink:title=" ">
<polygon fill="#999999" stroke="#666666" points="264.62,-207.5 138.38,-207.5 138.38,-165.75 264.62,-165.75 264.62,-207.5"/>
<text text-anchor="start" x="146.38" y="-194" font-family="Helvetica,sans-Serif" font-size="10.00">/github/workspace/SRC</text>
<text text-anchor="start" x="146.38" y="-182.75" font-family="Helvetica,sans-Serif" font-size="10.00">/BASE/COLOURS/colour</text>
<text text-anchor="middle" x="201.5" y="-171.5" font-family="Helvetica,sans-Serif" font-size="10.00">_utils.c</text>
</a>
</g>
</g>
<!-- Node2 -->
<g id="Node000002" class="node">
<title>Node2</title>
<g id="a_Node000002"><a xlink:href="types_8h.html" target="_top" xlink:title=" ">
<polygon fill="white" stroke="#666666" points="132.88,-129.75 86.12,-129.75 86.12,-110.5 132.88,-110.5 132.88,-129.75"/>
<text text-anchor="middle" x="109.5" y="-116.25" font-family="Helvetica,sans-Serif" font-size="10.00">types.h</text>
</a>
</g>
</g>
<!-- Node1&#45;&gt;Node2 -->
<g id="edge1_Node000001_Node000002" class="edge">
<title>Node1&#45;&gt;Node2</title>
<g id="a_edge1_Node000001_Node000002"><a xlink:title=" ">
<path fill="none" stroke="#63b8ff" d="M172.64,-165.39C159.34,-156.07 143.8,-145.17 131.46,-136.52"/>
<polygon fill="#63b8ff" stroke="#63b8ff" points="133.8,-133.89 123.6,-131.01 129.78,-139.62 133.8,-133.89"/>
</a>
</g>
</g>
<!-- Node6 -->
<g id="Node000006" class="node">
<title>Node6</title>
<g id="a_Node000006"><a xlink:href="libft_8h.html" target="_top" xlink:title=" ">
<polygon fill="white" stroke="#666666" points="373.12,-129.75 333.88,-129.75 333.88,-110.5 373.12,-110.5 373.12,-129.75"/>
<text text-anchor="middle" x="353.5" y="-116.25" font-family="Helvetica,sans-Serif" font-size="10.00">libft.h</text>
</a>
</g>
</g>
<!-- Node1&#45;&gt;Node6 -->
<g id="edge5_Node000001_Node000006" class="edge">
<title>Node1&#45;&gt;Node6</title>
<g id="a_edge5_Node000001_Node000006"><a xlink:title=" ">
<path fill="none" stroke="#63b8ff" d="M249.18,-165.39C273.35,-155.14 301.98,-142.99 323.12,-134.02"/>
<polygon fill="#63b8ff" stroke="#63b8ff" points="324.21,-137.36 332.04,-130.23 321.47,-130.91 324.21,-137.36"/>
</a>
</g>
</g>
<!-- Node3 -->
<g id="Node000003" class="node">
<title>Node3</title>
<g id="a_Node000003"><a xlink:title=" ">
<polygon fill="#e0e0e0" stroke="#999999" points="55,-74.5 0,-74.5 0,-55.25 55,-55.25 55,-74.5"/>
<text text-anchor="middle" x="27.5" y="-61" font-family="Helvetica,sans-Serif" font-size="10.00">stdbool.h</text>
</a>
</g>
</g>
<!-- Node2&#45;&gt;Node3 -->
<g id="edge2_Node000002_Node000003" class="edge">
<title>Node2&#45;&gt;Node3</title>
<g id="a_edge2_Node000002_Node000003"><a xlink:title=" ">
<path fill="none" stroke="#63b8ff" d="M95.59,-110.09C83.34,-102.14 65.25,-90.39 50.79,-81"/>
<polygon fill="#63b8ff" stroke="#63b8ff" points="53.04,-78.29 42.75,-75.78 49.23,-84.16 53.04,-78.29"/>
</a>
</g>
</g>
<!-- Node4 -->
<g id="Node000004" class="node">
<title>Node4</title>
<g id="a_Node000004"><a xlink:title=" ">
<polygon fill="#e0e0e0" stroke="#999999" points="274.88,-19.25 228.12,-19.25 228.12,0 274.88,0 274.88,-19.25"/>
<text text-anchor="middle" x="251.5" y="-5.75" font-family="Helvetica,sans-Serif" font-size="10.00">stdlib.h</text>
</a>
</g>
</g>
<!-- Node2&#45;&gt;Node4 -->
<g id="edge3_Node000002_Node000004" class="edge">
<title>Node2&#45;&gt;Node4</title>
<g id="a_edge3_Node000002_Node000004"><a xlink:title=" ">
<path fill="none" stroke="#63b8ff" d="M105.04,-110.28C99.03,-96.95 90.38,-71.54 102.5,-55.25 128.65,-20.12 181.46,-11.59 216.66,-10.06"/>
<polygon fill="#63b8ff" stroke="#63b8ff" points="216.44,-13.57 226.35,-9.82 216.26,-6.57 216.44,-13.57"/>
</a>
</g>
</g>
<!-- Node5 -->
<g id="Node000005" class="node">
<title>Node5</title>
<g id="a_Node000005"><a xlink:title=" ">
<polygon fill="#e0e0e0" stroke="#999999" points="157.88,-74.5 111.12,-74.5 111.12,-55.25 157.88,-55.25 157.88,-74.5"/>
<text text-anchor="middle" x="134.5" y="-61" font-family="Helvetica,sans-Serif" font-size="10.00">limits.h</text>
</a>
</g>
</g>
<!-- Node2&#45;&gt;Node5 -->
<g id="edge4_Node000002_Node000005" class="edge">
<title>Node2&#45;&gt;Node5</title>
<g id="a_edge4_Node000002_Node000005"><a xlink:title=" ">
<path fill="none" stroke="#63b8ff" d="M113.63,-110.33C116.83,-103.51 121.39,-93.81 125.43,-85.2"/>
<polygon fill="#63b8ff" stroke="#63b8ff" points="128.56,-86.77 129.64,-76.23 122.22,-83.79 128.56,-86.77"/>
</a>
</g>
</g>
<!-- Node6&#45;&gt;Node4 -->
<g id="edge6_Node000006_Node000004" class="edge">
<title>Node6&#45;&gt;Node4</title>
<g id="a_edge6_Node000006_Node000004"><a xlink:title=" ">
<path fill="none" stroke="#63b8ff" d="M333.5,-113.33C314.61,-106.85 286.82,-94.55 270.5,-74.5 260.32,-62 255.59,-44.18 253.4,-30.54"/>
<polygon fill="#63b8ff" stroke="#63b8ff" points="256.92,-30.45 252.2,-20.96 249.97,-31.32 256.92,-30.45"/>
</a>
</g>
</g>
<!-- Node7 -->
<g id="Node000007" class="node">
<title>Node7</title>
<g id="a_Node000007"><a xlink:title=" ">
<polygon fill="#e0e0e0" stroke="#999999" points="410.38,-19.25 360.62,-19.25 360.62,0 410.38,0 410.38,-19.25"/>
<text text-anchor="middle" x="385.5" y="-5.75" font-family="Helvetica,sans-Serif" font-size="10.00">unistd.h</text>
</a>
</g>
</g>
<!-- Node6&#45;&gt;Node7 -->
<g id="edge7_Node000006_Node000007" class="edge">
<title>Node6&#45;&gt;Node7</title>
<g id="a_edge7_Node000006_Node000007"><a xlink:title=" ">
<path fill="none" stroke="#63b8ff" d="M356.66,-110.29C359.82,-101.32 364.73,-87.02 368.5,-74.5 372.91,-59.83 377.35,-43.09 380.58,-30.43"/>
<polygon fill="#63b8ff" stroke="#63b8ff" points="383.95,-31.37 383,-20.82 377.16,-29.66 383.95,-31.37"/>
</a>
</g>
</g>
<!-- Node8 -->
<g id="Node000008" class="node">
<title>Node8</title>
<g id="a_Node000008"><a xlink:title=" ">
<polygon fill="#e0e0e0" stroke="#999999" points="540.75,-74.5 490.25,-74.5 490.25,-55.25 540.75,-55.25 540.75,-74.5"/>
<text text-anchor="middle" x="515.5" y="-61" font-family="Helvetica,sans-Serif" font-size="10.00">stddef.h</text>
</a>
</g>
</g>
<!-- Node6&#45;&gt;Node8 -->
<g id="edge8_Node000006_Node000008" class="edge">
<title>Node6&#45;&gt;Node8</title>
<g id="a_edge8_Node000006_Node000008"><a xlink:title=" ">
<path fill="none" stroke="#63b8ff" d="M373.36,-112.6C399.59,-103.97 446.26,-88.64 478.94,-77.89"/>
<polygon fill="#63b8ff" stroke="#63b8ff" points="480.02,-81.22 488.43,-74.77 477.83,-74.57 480.02,-81.22"/>
</a>
</g>
</g>
<!-- Node9 -->
<g id="Node000009" class="node">
<title>Node9</title>
<g id="a_Node000009"><a xlink:title=" ">
<polygon fill="#e0e0e0" stroke="#999999" points="223.25,-74.5 175.75,-74.5 175.75,-55.25 223.25,-55.25 223.25,-74.5"/>
<text text-anchor="middle" x="199.5" y="-61" font-family="Helvetica,sans-Serif" font-size="10.00">stdint.h</text>
</a>
</g>
</g>
<!-- Node6&#45;&gt;Node9 -->
<g id="edge9_Node000006_Node000009" class="edge">
<title>Node6&#45;&gt;Node9</title>
<g id="a_edge9_Node000006_Node000009"><a xlink:title=" ">
<path fill="none" stroke="#63b8ff" d="M333.68,-112.27C308.58,-103.59 264.89,-88.49 234.2,-77.87"/>
<polygon fill="#63b8ff" stroke="#63b8ff" points="235.57,-74.64 224.97,-74.68 233.28,-81.26 235.57,-74.64"/>
</a>
</g>
</g>
<!-- Node10 -->
<g id="Node000010" class="node">
<title>Node10</title>
<g id="a_Node000010"><a xlink:href="get__next__line_8h.html" target="_top" xlink:title=" ">
<polygon fill="white" stroke="#666666" points="359.75,-74.5 279.25,-74.5 279.25,-55.25 359.75,-55.25 359.75,-74.5"/>
<text text-anchor="middle" x="319.5" y="-61" font-family="Helvetica,sans-Serif" font-size="10.00">get_next_line.h</text>
</a>
</g>
</g>
<!-- Node6&#45;&gt;Node10 -->
<g id="edge10_Node000006_Node000010" class="edge">
<title>Node6&#45;&gt;Node10</title>
<g id="a_edge10_Node000006_Node000010"><a xlink:title=" ">
<path fill="none" stroke="#63b8ff" d="M347.89,-110.33C343.38,-103.28 336.91,-93.15 331.29,-84.33"/>
<polygon fill="#63b8ff" stroke="#63b8ff" points="334.38,-82.68 326.05,-76.13 328.48,-86.45 334.38,-82.68"/>
</a>
</g>
</g>
<!-- Node12 -->
<g id="Node000012" class="node">
<title>Node12</title>
<g id="a_Node000012"><a xlink:href="ft__printf_8h.html" target="_top" xlink:title=" ">
<polygon fill="white" stroke="#666666" points="471.75,-74.5 415.25,-74.5 415.25,-55.25 471.75,-55.25 471.75,-74.5"/>
<text text-anchor="middle" x="443.5" y="-61" font-family="Helvetica,sans-Serif" font-size="10.00">ft_printf.h</text>
</a>
</g>
</g>
<!-- Node6&#45;&gt;Node12 -->
<g id="edge14_Node000006_Node000012" class="edge">
<title>Node6&#45;&gt;Node12</title>
<g id="a_edge14_Node000006_Node000012"><a xlink:title=" ">
<path fill="none" stroke="#63b8ff" d="M363.55,-110.09C375.68,-101.91 396.02,-89.71 413.24,-80.19"/>
<polygon fill="#63b8ff" stroke="#63b8ff" points="414.47,-83.51 421.6,-75.67 411.14,-77.35 414.47,-83.51"/>
</a>
</g>
</g>
<!-- Node10&#45;&gt;Node4 -->
<g id="edge11_Node000010_Node000004" class="edge">
<title>Node10&#45;&gt;Node4</title>
<g id="a_edge11_Node000010_Node000004"><a xlink:title=" ">
<path fill="none" stroke="#63b8ff" d="M307.96,-54.84C298.04,-47.07 283.49,-35.67 271.64,-26.4"/>
<polygon fill="#63b8ff" stroke="#63b8ff" points="274.09,-23.87 264.06,-20.46 269.77,-29.38 274.09,-23.87"/>
</a>
</g>
</g>
<!-- Node10&#45;&gt;Node7 -->
<g id="edge13_Node000010_Node000007" class="edge">
<title>Node10&#45;&gt;Node7</title>
<g id="a_edge13_Node000010_Node000007"><a xlink:title=" ">
<path fill="none" stroke="#63b8ff" d="M330.7,-54.84C340.24,-47.15 354.17,-35.9 365.61,-26.68"/>
<polygon fill="#63b8ff" stroke="#63b8ff" points="367.71,-29.48 373.29,-20.48 363.31,-24.03 367.71,-29.48"/>
</a>
</g>
</g>
<!-- Node11 -->
<g id="Node000011" class="node">
<title>Node11</title>
<g id="a_Node000011"><a xlink:title=" ">
<polygon fill="#e0e0e0" stroke="#999999" points="340.62,-19.25 298.38,-19.25 298.38,0 340.62,0 340.62,-19.25"/>
<text text-anchor="middle" x="319.5" y="-5.75" font-family="Helvetica,sans-Serif" font-size="10.00">fcntl.h</text>
</a>
</g>
</g>
<!-- Node10&#45;&gt;Node11 -->
<g id="edge12_Node000010_Node000011" class="edge">
<title>Node10&#45;&gt;Node11</title>
<g id="a_edge12_Node000010_Node000011"><a xlink:title=" ">
<path fill="none" stroke="#63b8ff" d="M319.5,-55.08C319.5,-48.57 319.5,-39.42 319.5,-31.12"/>
<polygon fill="#63b8ff" stroke="#63b8ff" points="323,-31.12 319.5,-21.12 316,-31.12 323,-31.12"/>
</a>
</g>
</g>
<!-- Node12&#45;&gt;Node6 -->
<g id="edge17_Node000012_Node000006" class="edge">
<title>Node12&#45;&gt;Node6</title>
<g id="a_edge17_Node000012_Node000006"><a xlink:title=" ">
<path fill="none" stroke="#63b8ff" d="M433.52,-74.86C421.29,-83.12 400.63,-95.51 383.28,-105.07"/>
<polygon fill="#63b8ff" stroke="#63b8ff" points="382,-101.79 374.86,-109.61 385.32,-107.95 382,-101.79"/>
</a>
</g>
</g>
<!-- Node12&#45;&gt;Node7 -->
<g id="edge16_Node000012_Node000007" class="edge">
<title>Node12&#45;&gt;Node7</title>
<g id="a_edge16_Node000012_Node000007"><a xlink:title=" ">
<path fill="none" stroke="#63b8ff" d="M433.66,-54.84C425.45,-47.3 413.52,-36.35 403.59,-27.23"/>
<polygon fill="#63b8ff" stroke="#63b8ff" points="406.04,-24.73 396.31,-20.55 401.31,-29.89 406.04,-24.73"/>
</a>
</g>
</g>
<!-- Node13 -->
<g id="Node000013" class="node">
<title>Node13</title>
<g id="a_Node000013"><a xlink:title=" ">
<polygon fill="#e0e0e0" stroke="#999999" points="478.75,-19.25 428.25,-19.25 428.25,0 478.75,0 478.75,-19.25"/>
<text text-anchor="middle" x="453.5" y="-5.75" font-family="Helvetica,sans-Serif" font-size="10.00">stdarg.h</text>
</a>
</g>
</g>
<!-- Node12&#45;&gt;Node13 -->
<g id="edge15_Node000012_Node000013" class="edge">
<title>Node12&#45;&gt;Node13</title>
<g id="a_edge15_Node000012_Node000013"><a xlink:title=" ">
<path fill="none" stroke="#63b8ff" d="M445.15,-55.08C446.39,-48.49 448.13,-39.21 449.71,-30.82"/>
<polygon fill="#63b8ff" stroke="#63b8ff" points="453.13,-31.57 451.53,-21.1 446.25,-30.28 453.13,-31.57"/>
</a>
</g>
</g>
</g>
</svg>
