<?xml version="1.0" encoding="UTF-8" standalone="no"?>
<!DOCTYPE svg PUBLIC "-//W3C//DTD SVG 1.1//EN"
 "http://www.w3.org/Graphics/SVG/1.1/DTD/svg11.dtd">
<!-- Generated by graphviz version 9.0.0 (20230911.1827)
 -->
<!-- Title: colour Pages: 1 -->
<svg width="876pt" height="195pt"
 viewBox="0.00 0.00 876.25 195.25" xmlns="http://www.w3.org/2000/svg" xmlns:xlink="http://www.w3.org/1999/xlink">
<g id="graph0" class="graph" transform="scale(1 1) rotate(0) translate(4 191.25)">
<title>colour</title>
<!-- Node1 -->
<g id="Node000001" class="node">
<title>Node1</title>
<g id="a_Node000001"><a xlink:title=" ">
<polygon fill="#999999" stroke="#666666" points="868.25,-93.25 826,-93.25 826,-74 868.25,-74 868.25,-93.25"/>
<text text-anchor="middle" x="847.12" y="-79.75" font-family="Helvetica,sans-Serif" font-size="10.00">colour</text>
</a>
</g>
</g>
<!-- Node1&#45;&gt;Node1 -->
<g id="edge14_Node000001_Node000001" class="edge">
<title>Node1&#45;&gt;Node1</title>
<g id="a_edge14_Node000001_Node000001"><a xlink:title=" ">
<path fill="none" stroke="#63b8ff" d="M866.21,-104.65C863.82,-108.53 857.46,-111.25 847.12,-111.25 828.23,-111.25 822.62,-102.15 830.3,-93.54"/>
<polygon fill="#63b8ff" stroke="#63b8ff" points="869.67,-104.13 864.26,-95.02 862.81,-105.52 869.67,-104.13"/>
</a>
</g>
</g>
<!-- Node2 -->
<g id="Node000002" class="node">
<title>Node2</title>
<g id="a_Node000002"><a xlink:href="parse__validate__assign__rgb__utils_8c.html#accb5a2d4b08a89039765ec742b587b41" target="_top" xlink:title=" ">
<polygon fill="white" stroke="#666666" points="788.12,-169.25 691.12,-169.25 691.12,-150 788.12,-150 788.12,-169.25"/>
<text text-anchor="middle" x="739.62" y="-155.75" font-family="Helvetica,sans-Serif" font-size="10.00">assign_rgb_values</text>
</a>
</g>
</g>
<!-- Node1&#45;&gt;Node2 -->
<g id="edge1_Node000001_Node000002" class="edge">
<title>Node1&#45;&gt;Node2</title>
<g id="a_edge1_Node000001_Node000002"><a xlink:title=" ">
<path fill="none" stroke="#63b8ff" d="M829.38,-101.62C818.78,-112.36 804.39,-125.78 790,-135.62 782.29,-140.9 773.25,-145.65 765.02,-149.51"/>
<polygon fill="#63b8ff" stroke="#63b8ff" points="831.86,-104.09 836.27,-94.46 826.82,-99.24 831.86,-104.09"/>
</a>
</g>
</g>
<!-- Node3 -->
<g id="Node000003" class="node">
<title>Node3</title>
<g id="a_Node000003"><a xlink:href="parse__utils_8c.html#aa353b138267370a075b03b29a2306573" target="_top" xlink:title=" ">
<polygon fill="white" stroke="#666666" points="653.25,-131.25 557.75,-131.25 557.75,-112 653.25,-112 653.25,-131.25"/>
<text text-anchor="middle" x="605.5" y="-117.75" font-family="Helvetica,sans-Serif" font-size="10.00">parse_assign_trgb</text>
</a>
</g>
</g>
<!-- Node1&#45;&gt;Node3 -->
<g id="edge16_Node000001_Node000003" class="edge">
<title>Node1&#45;&gt;Node3</title>
<g id="a_edge16_Node000001_Node000003"><a xlink:title=" ">
<path fill="none" stroke="#63b8ff" d="M814.88,-95.58C806.87,-98.26 798.2,-100.84 790,-102.62 744.31,-112.59 691.05,-117.37 653.72,-119.64"/>
<polygon fill="#63b8ff" stroke="#63b8ff" points="815.95,-98.91 824.22,-92.29 813.62,-92.31 815.95,-98.91"/>
</a>
</g>
</g>
<!-- Node12 -->
<g id="Node000012" class="node">
<title>Node12</title>
<g id="a_Node000012"><a xlink:href="colour_8c.html#a516d6da6e20a5f4b406b077698da3a8d" target="_top" xlink:title=" ">
<polygon fill="white" stroke="#666666" points="788.5,-93.25 690.75,-93.25 690.75,-74 788.5,-74 788.5,-93.25"/>
<text text-anchor="middle" x="739.62" y="-79.75" font-family="Helvetica,sans-Serif" font-size="10.00">colour_scalar_mult</text>
</a>
</g>
</g>
<!-- Node1&#45;&gt;Node12 -->
<g id="edge15_Node000001_Node000012" class="edge">
<title>Node1&#45;&gt;Node12</title>
<g id="a_edge15_Node000001_Node000012"><a xlink:title=" ">
<path fill="none" stroke="#63b8ff" d="M814.08,-83.62C806.07,-83.62 797.3,-83.62 788.7,-83.62"/>
<polygon fill="#63b8ff" stroke="#63b8ff" points="814.02,-87.13 824.02,-83.63 814.02,-80.13 814.02,-87.13"/>
</a>
</g>
</g>
<!-- Node13 -->
<g id="Node000013" class="node">
<title>Node13</title>
<g id="a_Node000013"><a xlink:href="parse__validate__assign__rgb__utils_8c.html#ab71c9a28c124cbbec7afa314c3595d68" target="_top" xlink:title=" ">
<polygon fill="white" stroke="#666666" points="790,-56.25 689.25,-56.25 689.25,-37 790,-37 790,-56.25"/>
<text text-anchor="middle" x="739.62" y="-42.75" font-family="Helvetica,sans-Serif" font-size="10.00">parse_transparency</text>
</a>
</g>
</g>
<!-- Node1&#45;&gt;Node13 -->
<g id="edge17_Node000001_Node000013" class="edge">
<title>Node1&#45;&gt;Node13</title>
<g id="a_edge17_Node000001_Node000013"><a xlink:title=" ">
<path fill="none" stroke="#63b8ff" d="M815.04,-72.72C800.51,-67.63 783.34,-61.6 769.15,-56.63"/>
<polygon fill="#63b8ff" stroke="#63b8ff" points="813.51,-75.9 824.1,-75.9 815.83,-69.29 813.51,-75.9"/>
</a>
</g>
</g>
<!-- Node14 -->
<g id="Node000014" class="node">
<title>Node14</title>
<g id="a_Node000014"><a xlink:href="colour__utils_8c.html#a9948797e75118a8a19f77a505fe7ab35" target="_top" xlink:title="This function convert t_trgb to char pointer.">
<polygon fill="white" stroke="#666666" points="778.75,-19.25 700.5,-19.25 700.5,0 778.75,0 778.75,-19.25"/>
<text text-anchor="middle" x="739.62" y="-5.75" font-family="Helvetica,sans-Serif" font-size="10.00">t_trgb_to_addr</text>
</a>
</g>
</g>
<!-- Node1&#45;&gt;Node14 -->
<g id="edge19_Node000001_Node000014" class="edge">
<title>Node1&#45;&gt;Node14</title>
<g id="a_edge19_Node000001_Node000014"><a xlink:title=" ">
<path fill="none" stroke="#63b8ff" d="M831.03,-64.8C820.58,-52.79 805.76,-37.66 790,-27.62 785.23,-24.59 779.87,-21.96 774.49,-19.74"/>
<polygon fill="#63b8ff" stroke="#63b8ff" points="828.33,-67.03 837.44,-72.44 833.7,-62.53 828.33,-67.03"/>
</a>
</g>
</g>
<!-- Node2&#45;&gt;Node3 -->
<g id="edge2_Node000002_Node000003" class="edge">
<title>Node2&#45;&gt;Node3</title>
<g id="a_edge2_Node000002_Node000003"><a xlink:title=" ">
<path fill="none" stroke="#63b8ff" d="M692.79,-146.44C675.89,-141.58 657.03,-136.16 641.27,-131.62"/>
<polygon fill="#63b8ff" stroke="#63b8ff" points="691.53,-149.72 702.11,-149.12 693.47,-143 691.53,-149.72"/>
</a>
</g>
</g>
<!-- Node4 -->
<g id="Node000004" class="node">
<title>Node4</title>
<g id="a_Node000004"><a xlink:href="parse__camera__light_8c.html#a0b2ac9083d47f8bf5eed5fbbb5576a19" target="_top" xlink:title=" ">
<polygon fill="white" stroke="#666666" points="521.75,-187.25 442,-187.25 442,-168 521.75,-168 521.75,-187.25"/>
<text text-anchor="middle" x="481.88" y="-173.75" font-family="Helvetica,sans-Serif" font-size="10.00">parse_ambient</text>
</a>
</g>
</g>
<!-- Node3&#45;&gt;Node4 -->
<g id="edge3_Node000003_Node000004" class="edge">
<title>Node3&#45;&gt;Node4</title>
<g id="a_edge3_Node000003_Node000004"><a xlink:title=" ">
<path fill="none" stroke="#63b8ff" d="M572.55,-136.34C551.22,-146.16 523.73,-158.81 504.84,-167.51"/>
<polygon fill="#63b8ff" stroke="#63b8ff" points="573.76,-139.63 581.38,-132.27 570.83,-133.27 573.76,-139.63"/>
</a>
</g>
</g>
<!-- Node9 -->
<g id="Node000009" class="node">
<title>Node9</title>
<g id="a_Node000009"><a xlink:href="parse__objects_8c.html#a438a08a219ba336c395096067e52bb1b" target="_top" xlink:title=" ">
<polygon fill="white" stroke="#666666" points="521,-150.25 442.75,-150.25 442.75,-131 521,-131 521,-150.25"/>
<text text-anchor="middle" x="481.88" y="-136.75" font-family="Helvetica,sans-Serif" font-size="10.00">parse_cylinder</text>
</a>
</g>
</g>
<!-- Node3&#45;&gt;Node9 -->
<g id="edge8_Node000003_Node000009" class="edge">
<title>Node3&#45;&gt;Node9</title>
<g id="a_edge8_Node000003_Node000009"><a xlink:title=" ">
<path fill="none" stroke="#63b8ff" d="M546.32,-130.71C537.77,-132.05 529.14,-133.4 521.12,-134.65"/>
<polygon fill="#63b8ff" stroke="#63b8ff" points="546.64,-134.21 555.98,-129.2 545.56,-127.29 546.64,-134.21"/>
</a>
</g>
</g>
<!-- Node10 -->
<g id="Node000010" class="node">
<title>Node10</title>
<g id="a_Node000010"><a xlink:href="parse__camera__light_8c.html#aaa10205c0950a79dd43566074de7b0a0" target="_top" xlink:title=" ">
<polygon fill="white" stroke="#666666" points="513.5,-113.25 450.25,-113.25 450.25,-94 513.5,-94 513.5,-113.25"/>
<text text-anchor="middle" x="481.88" y="-99.75" font-family="Helvetica,sans-Serif" font-size="10.00">parse_light</text>
</a>
</g>
</g>
<!-- Node3&#45;&gt;Node10 -->
<g id="edge10_Node000003_Node000010" class="edge">
<title>Node3&#45;&gt;Node10</title>
<g id="a_edge10_Node000003_Node000010"><a xlink:title=" ">
<path fill="none" stroke="#63b8ff" d="M546.29,-113.01C535.01,-111.34 523.61,-109.65 513.64,-108.18"/>
<polygon fill="#63b8ff" stroke="#63b8ff" points="545.57,-116.44 555.98,-114.44 546.6,-109.52 545.57,-116.44"/>
</a>
</g>
</g>
<!-- Node11 -->
<g id="Node000011" class="node">
<title>Node11</title>
<g id="a_Node000011"><a xlink:href="parse__objects_8c.html#a7e641794acee51578d8539e361635c47" target="_top" xlink:title=" ">
<polygon fill="white" stroke="#666666" points="516.12,-76.25 447.62,-76.25 447.62,-57 516.12,-57 516.12,-76.25"/>
<text text-anchor="middle" x="481.88" y="-62.75" font-family="Helvetica,sans-Serif" font-size="10.00">parse_plane</text>
</a>
</g>
</g>
<!-- Node3&#45;&gt;Node11 -->
<g id="edge12_Node000003_Node000011" class="edge">
<title>Node3&#45;&gt;Node11</title>
<g id="a_edge12_Node000003_Node000011"><a xlink:title=" ">
<path fill="none" stroke="#63b8ff" d="M571.74,-106.81C550.61,-97.26 523.69,-85.08 505.04,-76.65"/>
<polygon fill="#63b8ff" stroke="#63b8ff" points="570.26,-109.98 580.81,-110.91 573.14,-103.6 570.26,-109.98"/>
</a>
</g>
</g>
<!-- Node5 -->
<g id="Node000005" class="node">
<title>Node5</title>
<g id="a_Node000005"><a xlink:href="parse__main_8c.html#a92aa268ea4b3d5c808364ca73d913cbe" target="_top" xlink:title=" ">
<polygon fill="white" stroke="#666666" points="406,-131.25 318,-131.25 318,-112 406,-112 406,-131.25"/>
<text text-anchor="middle" x="362" y="-117.75" font-family="Helvetica,sans-Serif" font-size="10.00">parse_func_redir</text>
</a>
</g>
</g>
<!-- Node4&#45;&gt;Node5 -->
<g id="edge4_Node000004_Node000005" class="edge">
<title>Node4&#45;&gt;Node5</title>
<g id="a_edge4_Node000004_Node000005"><a xlink:title=" ">
<path fill="none" stroke="#63b8ff" d="M448.62,-162.73C446.38,-161.69 444.15,-160.64 442,-159.62 422.18,-150.27 399.66,-139.42 383.75,-131.71"/>
<polygon fill="#63b8ff" stroke="#63b8ff" points="447.14,-165.91 457.68,-166.95 450.09,-159.56 447.14,-165.91"/>
</a>
</g>
</g>
<!-- Node6 -->
<g id="Node000006" class="node">
<title>Node6</title>
<g id="a_Node000006"><a xlink:href="parse__main_8c.html#a5d7da6ab7925ffda04b676ef38880723" target="_top" xlink:title="Reading a line from the given .rt file and splitting the given line with the space (&#39; &#39;) delimiter....">
<polygon fill="white" stroke="#666666" points="282,-131.25 186.5,-131.25 186.5,-112 282,-112 282,-131.25"/>
<text text-anchor="middle" x="234.25" y="-117.75" font-family="Helvetica,sans-Serif" font-size="10.00">parse_rt_read_line</text>
</a>
</g>
</g>
<!-- Node5&#45;&gt;Node6 -->
<g id="edge5_Node000005_Node000006" class="edge">
<title>Node5&#45;&gt;Node6</title>
<g id="a_edge5_Node000005_Node000006"><a xlink:title=" ">
<path fill="none" stroke="#63b8ff" d="M306.29,-121.62C298.36,-121.62 290.25,-121.62 282.48,-121.62"/>
<polygon fill="#63b8ff" stroke="#63b8ff" points="306.21,-125.13 316.21,-121.63 306.21,-118.13 306.21,-125.13"/>
</a>
</g>
</g>
<!-- Node7 -->
<g id="Node000007" class="node">
<title>Node7</title>
<g id="a_Node000007"><a xlink:href="parse__main_8c.html#a62c4de2f960942eba61e7de12c387ae4" target="_top" xlink:title="Entry function to parsing .rt file where the file is attempted to be opened, t_parse structure is ini...">
<polygon fill="white" stroke="#666666" points="150.5,-131.25 73,-131.25 73,-112 150.5,-112 150.5,-131.25"/>
<text text-anchor="middle" x="111.75" y="-117.75" font-family="Helvetica,sans-Serif" font-size="10.00">parse_rt_main</text>
</a>
</g>
</g>
<!-- Node6&#45;&gt;Node7 -->
<g id="edge6_Node000006_Node000007" class="edge">
<title>Node6&#45;&gt;Node7</title>
<g id="a_edge6_Node000006_Node000007"><a xlink:title=" ">
<path fill="none" stroke="#63b8ff" d="M174.86,-121.62C166.69,-121.62 158.47,-121.62 150.81,-121.62"/>
<polygon fill="#63b8ff" stroke="#63b8ff" points="174.8,-125.13 184.8,-121.63 174.8,-118.13 174.8,-125.13"/>
</a>
</g>
</g>
<!-- Node8 -->
<g id="Node000008" class="node">
<title>Node8</title>
<g id="a_Node000008"><a xlink:href="mini__ray_8c.html#a0c99d968a34e803d378692bde2e3f18f" target="_top" xlink:title=" ">
<polygon fill="white" stroke="#666666" points="37,-131.25 0,-131.25 0,-112 37,-112 37,-131.25"/>
<text text-anchor="middle" x="18.5" y="-117.75" font-family="Helvetica,sans-Serif" font-size="10.00">main</text>
</a>
</g>
</g>
<!-- Node7&#45;&gt;Node8 -->
<g id="edge7_Node000007_Node000008" class="edge">
<title>Node7&#45;&gt;Node8</title>
<g id="a_edge7_Node000007_Node000008"><a xlink:title=" ">
<path fill="none" stroke="#63b8ff" d="M61.23,-121.62C52.6,-121.62 44.15,-121.62 37.14,-121.62"/>
<polygon fill="#63b8ff" stroke="#63b8ff" points="61.07,-125.13 71.07,-121.63 61.07,-118.13 61.07,-125.13"/>
</a>
</g>
</g>
<!-- Node9&#45;&gt;Node5 -->
<g id="edge9_Node000009_Node000005" class="edge">
<title>Node9&#45;&gt;Node5</title>
<g id="a_edge9_Node000009_Node000005"><a xlink:title=" ">
<path fill="none" stroke="#63b8ff" d="M431.17,-132.61C422.86,-131.27 414.3,-129.89 406.17,-128.58"/>
<polygon fill="#63b8ff" stroke="#63b8ff" points="430.35,-136.03 440.78,-134.16 431.47,-129.12 430.35,-136.03"/>
</a>
</g>
</g>
<!-- Node10&#45;&gt;Node5 -->
<g id="edge11_Node000010_Node000005" class="edge">
<title>Node10&#45;&gt;Node5</title>
<g id="a_edge11_Node000010_Node000005"><a xlink:title=" ">
<path fill="none" stroke="#63b8ff" d="M438.79,-110.05C428.2,-111.67 416.82,-113.41 406.17,-115.03"/>
<polygon fill="#63b8ff" stroke="#63b8ff" points="439.05,-113.55 448.41,-108.58 437.99,-106.63 439.05,-113.55"/>
</a>
</g>
</g>
<!-- Node11&#45;&gt;Node5 -->
<g id="edge13_Node000011_Node000005" class="edge">
<title>Node11&#45;&gt;Node5</title>
<g id="a_edge13_Node000011_Node000005"><a xlink:title=" ">
<path fill="none" stroke="#63b8ff" d="M448.63,-81.54C446.39,-82.58 444.16,-83.62 442,-84.62 422.5,-93.7 400.33,-104.09 384.45,-111.55"/>
<polygon fill="#63b8ff" stroke="#63b8ff" points="450.1,-84.72 457.7,-77.34 447.16,-78.37 450.1,-84.72"/>
</a>
</g>
</g>
<!-- Node13&#45;&gt;Node3 -->
<g id="edge18_Node000013_Node000003" class="edge">
<title>Node13&#45;&gt;Node3</title>
<g id="a_edge18_Node000013_Node000003"><a xlink:title=" ">
<path fill="none" stroke="#63b8ff" d="M696.69,-61.06C694.14,-62.2 691.64,-63.39 689.25,-64.62 662.59,-78.38 634.4,-99.39 618.77,-111.69"/>
<polygon fill="#63b8ff" stroke="#63b8ff" points="697.99,-64.31 705.9,-57.26 695.32,-57.84 697.99,-64.31"/>
</a>
</g>
</g>
</g>
</svg>
