<?xml version="1.0" encoding="UTF-8" standalone="no"?>
<!DOCTYPE svg PUBLIC "-//W3C//DTD SVG 1.1//EN"
 "http://www.w3.org/Graphics/SVG/1.1/DTD/svg11.dtd">
<!-- Generated by graphviz version 9.0.0 (20230911.1827)
 -->
<!-- Title: parse_ambient Pages: 1 -->
<svg width="690pt" height="638pt"
 viewBox="0.00 0.00 689.75 638.25" xmlns="http://www.w3.org/2000/svg" xmlns:xlink="http://www.w3.org/1999/xlink">
<g id="graph0" class="graph" transform="scale(1 1) rotate(0) translate(4 634.25)">
<title>parse_ambient</title>
<!-- Node1 -->
<g id="Node000001" class="node">
<title>Node1</title>
<g id="a_Node000001"><a xlink:title=" ">
<polygon fill="#999999" stroke="#666666" points="79.75,-419.25 0,-419.25 0,-400 79.75,-400 79.75,-419.25"/>
<text text-anchor="middle" x="39.88" y="-405.75" font-family="Helvetica,sans-Serif" font-size="10.00">parse_ambient</text>
</a>
</g>
</g>
<!-- Node2 -->
<g id="Node000002" class="node">
<title>Node2</title>
<g id="a_Node000002"><a xlink:href="add__to__dptr_8c.html#a6bacbaa4fafa50abbd756839de2da8de" target="_top" xlink:title=" ">
<polygon fill="white" stroke="#666666" points="195.12,-630.25 133.38,-630.25 133.38,-611 195.12,-611 195.12,-630.25"/>
<text text-anchor="middle" x="164.25" y="-616.75" font-family="Helvetica,sans-Serif" font-size="10.00">add_to_ptr</text>
</a>
</g>
</g>
<!-- Node1&#45;&gt;Node2 -->
<g id="edge1_Node000001_Node000002" class="edge">
<title>Node1&#45;&gt;Node2</title>
<g id="a_edge1_Node000001_Node000002"><a xlink:title=" ">
<path fill="none" stroke="#63b8ff" d="M42.31,-419.45C47.18,-449.59 65.66,-541.97 115.75,-596.62 118.6,-599.74 121.95,-602.5 125.52,-604.95"/>
<polygon fill="#63b8ff" stroke="#63b8ff" points="123.63,-607.89 134.03,-609.92 127.16,-601.85 123.63,-607.89"/>
</a>
</g>
</g>
<!-- Node4 -->
<g id="Node000004" class="node">
<title>Node4</title>
<g id="a_Node000004"><a xlink:href="ft__atod_8c.html#ad55518c88cf22904ac355596269be400" target="_top" xlink:title=" ">
<polygon fill="white" stroke="#666666" points="580.25,-225.25 534.25,-225.25 534.25,-206 580.25,-206 580.25,-225.25"/>
<text text-anchor="middle" x="557.25" y="-211.75" font-family="Helvetica,sans-Serif" font-size="10.00">ft_atod</text>
</a>
</g>
</g>
<!-- Node1&#45;&gt;Node4 -->
<g id="edge3_Node000001_Node000004" class="edge">
<title>Node1&#45;&gt;Node4</title>
<g id="a_edge3_Node000001_Node000004"><a xlink:title=" ">
<path fill="none" stroke="#63b8ff" d="M52.13,-419.57C106.96,-466.8 349.18,-661.43 490.75,-543.62 538.25,-504.1 552.04,-303.62 555.34,-237.11"/>
<polygon fill="#63b8ff" stroke="#63b8ff" points="558.83,-237.34 555.8,-227.19 551.84,-237.02 558.83,-237.34"/>
</a>
</g>
</g>
<!-- Node6 -->
<g id="Node000006" class="node">
<title>Node6</title>
<g id="a_Node000006"><a xlink:href="parse__utils_8c.html#aa353b138267370a075b03b29a2306573" target="_top" xlink:title=" ">
<polygon fill="white" stroke="#666666" points="212,-419.25 116.5,-419.25 116.5,-400 212,-400 212,-419.25"/>
<text text-anchor="middle" x="164.25" y="-405.75" font-family="Helvetica,sans-Serif" font-size="10.00">parse_assign_trgb</text>
</a>
</g>
</g>
<!-- Node1&#45;&gt;Node6 -->
<g id="edge5_Node000001_Node000006" class="edge">
<title>Node1&#45;&gt;Node6</title>
<g id="a_edge5_Node000001_Node000006"><a xlink:title=" ">
<path fill="none" stroke="#63b8ff" d="M79.93,-409.62C87.91,-409.62 96.48,-409.62 104.97,-409.62"/>
<polygon fill="#63b8ff" stroke="#63b8ff" points="104.92,-413.13 114.92,-409.63 104.92,-406.13 104.92,-413.13"/>
</a>
</g>
</g>
<!-- Node21 -->
<g id="Node000021" class="node">
<title>Node21</title>
<g id="a_Node000021"><a xlink:href="parse__utils_8c.html#a3a792671ccd6560d6c42352319889a0c" target="_top" xlink:title=" ">
<polygon fill="white" stroke="#666666" points="212.75,-204.25 115.75,-204.25 115.75,-185 212.75,-185 212.75,-204.25"/>
<text text-anchor="middle" x="164.25" y="-190.75" font-family="Helvetica,sans-Serif" font-size="10.00">parse_validate_obj</text>
</a>
</g>
</g>
<!-- Node1&#45;&gt;Node21 -->
<g id="edge32_Node000001_Node000021" class="edge">
<title>Node1&#45;&gt;Node21</title>
<g id="a_edge32_Node000001_Node000021"><a xlink:title=" ">
<path fill="none" stroke="#63b8ff" d="M46.61,-399.54C65.61,-366.17 126.66,-258.91 152.03,-214.34"/>
<polygon fill="#63b8ff" stroke="#63b8ff" points="155.01,-216.17 156.92,-205.75 148.93,-212.71 155.01,-216.17"/>
</a>
</g>
</g>
<!-- Node27 -->
<g id="Node000027" class="node">
<title>Node27</title>
<g id="a_Node000027"><a xlink:href="safe__malloc_8c.html#ab8bcda0e59b6f8eab1bfd9f92de50c6c" target="_top" xlink:title=" ">
<polygon fill="white" stroke="#666666" points="198.5,-93.25 130,-93.25 130,-74 198.5,-74 198.5,-93.25"/>
<text text-anchor="middle" x="164.25" y="-79.75" font-family="Helvetica,sans-Serif" font-size="10.00">safe_malloc</text>
</a>
</g>
</g>
<!-- Node1&#45;&gt;Node27 -->
<g id="edge54_Node000001_Node000027" class="edge">
<title>Node1&#45;&gt;Node27</title>
<g id="a_edge54_Node000001_Node000027"><a xlink:title=" ">
<path fill="none" stroke="#63b8ff" d="M43.44,-399.6C51.95,-366.81 80.78,-259.94 115.75,-175.62 126.41,-149.93 141.54,-121.68 151.84,-103.35"/>
<polygon fill="#63b8ff" stroke="#63b8ff" points="154.75,-105.31 156.66,-94.89 148.67,-101.84 154.75,-105.31"/>
</a>
</g>
</g>
<!-- Node3 -->
<g id="Node000003" class="node">
<title>Node3</title>
<g id="a_Node000003"><a xlink:href="matrix__free_8c.html#ab28d26aa6d34d5c2a3b83b9ee519fec6" target="_top" xlink:title=" ">
<polygon fill="white" stroke="#666666" points="332.25,-630.25 268.25,-630.25 268.25,-611 332.25,-611 332.25,-630.25"/>
<text text-anchor="middle" x="300.25" y="-616.75" font-family="Helvetica,sans-Serif" font-size="10.00">free_matrix</text>
</a>
</g>
</g>
<!-- Node2&#45;&gt;Node3 -->
<g id="edge2_Node000002_Node000003" class="edge">
<title>Node2&#45;&gt;Node3</title>
<g id="a_edge2_Node000002_Node000003"><a xlink:title=" ">
<path fill="none" stroke="#63b8ff" d="M195.32,-620.62C213.38,-620.62 236.65,-620.62 256.59,-620.62"/>
<polygon fill="#63b8ff" stroke="#63b8ff" points="256.37,-624.13 266.37,-620.63 256.37,-617.13 256.37,-624.13"/>
</a>
</g>
</g>
<!-- Node5 -->
<g id="Node000005" class="node">
<title>Node5</title>
<g id="a_Node000005"><a xlink:href="LIBFT_2ft__isdigit_8c.html#a2cf15b8a1a277d1e2ce3654101a2003d" target="_top" xlink:title=" ">
<polygon fill="white" stroke="#666666" points="679.12,-187.25 626.38,-187.25 626.38,-168 679.12,-168 679.12,-187.25"/>
<text text-anchor="middle" x="652.75" y="-173.75" font-family="Helvetica,sans-Serif" font-size="10.00">ft_isdigit</text>
</a>
</g>
</g>
<!-- Node4&#45;&gt;Node5 -->
<g id="edge4_Node000004_Node000005" class="edge">
<title>Node4&#45;&gt;Node5</title>
<g id="a_edge4_Node000004_Node000005"><a xlink:title=" ">
<path fill="none" stroke="#63b8ff" d="M580.41,-206.62C591.27,-202.21 604.6,-196.79 616.79,-191.83"/>
<polygon fill="#63b8ff" stroke="#63b8ff" points="617.77,-195.21 625.72,-188.21 615.13,-188.73 617.77,-195.21"/>
</a>
</g>
</g>
<!-- Node7 -->
<g id="Node000007" class="node">
<title>Node7</title>
<g id="a_Node000007"><a xlink:href="parse__validate__assign__rgb__utils_8c.html#accb5a2d4b08a89039765ec742b587b41" target="_top" xlink:title=" ">
<polygon fill="white" stroke="#666666" points="348.75,-516.25 251.75,-516.25 251.75,-497 348.75,-497 348.75,-516.25"/>
<text text-anchor="middle" x="300.25" y="-502.75" font-family="Helvetica,sans-Serif" font-size="10.00">assign_rgb_values</text>
</a>
</g>
</g>
<!-- Node6&#45;&gt;Node7 -->
<g id="edge6_Node000006_Node000007" class="edge">
<title>Node6&#45;&gt;Node7</title>
<g id="a_edge6_Node000006_Node000007"><a xlink:title=" ">
<path fill="none" stroke="#63b8ff" d="M173.24,-419.5C187.05,-435.96 216.94,-469.12 248.75,-488.62 250.62,-489.77 252.58,-490.87 254.59,-491.9"/>
<polygon fill="#63b8ff" stroke="#63b8ff" points="253.01,-495.02 263.56,-495.96 255.9,-488.65 253.01,-495.02"/>
</a>
</g>
</g>
<!-- Node8 -->
<g id="Node000008" class="node">
<title>Node8</title>
<g id="a_Node000008"><a xlink:href="colour_8c.html#a06b140860c7d645321abb45ead50e04b" target="_top" xlink:title=" ">
<polygon fill="white" stroke="#666666" points="460.38,-516.25 418.12,-516.25 418.12,-497 460.38,-497 460.38,-516.25"/>
<text text-anchor="middle" x="439.25" y="-502.75" font-family="Helvetica,sans-Serif" font-size="10.00">colour</text>
</a>
</g>
</g>
<!-- Node6&#45;&gt;Node8 -->
<g id="edge10_Node000006_Node000008" class="edge">
<title>Node6&#45;&gt;Node8</title>
<g id="a_edge10_Node000006_Node000008"><a xlink:title=" ">
<path fill="none" stroke="#63b8ff" d="M168.74,-419.53C177.68,-443.17 203.92,-502.66 248.75,-525.62 299.5,-551.63 367.89,-533.97 407.1,-519.68"/>
<polygon fill="#63b8ff" stroke="#63b8ff" points="408.31,-522.96 416.41,-516.13 405.82,-516.42 408.31,-522.96"/>
</a>
</g>
</g>
<!-- Node10 -->
<g id="Node000010" class="node">
<title>Node10</title>
<g id="a_Node000010"><a xlink:href="free__dptr_8c.html#aaa705b6d12fb1a9a15e6103879ec0ea0" target="_top" xlink:title=" ">
<polygon fill="white" stroke="#666666" points="466.38,-438.25 412.12,-438.25 412.12,-419 466.38,-419 466.38,-438.25"/>
<text text-anchor="middle" x="439.25" y="-424.75" font-family="Helvetica,sans-Serif" font-size="10.00">free_dptr</text>
</a>
</g>
</g>
<!-- Node6&#45;&gt;Node10 -->
<g id="edge11_Node000006_Node000010" class="edge">
<title>Node6&#45;&gt;Node10</title>
<g id="a_edge11_Node000006_Node000010"><a xlink:title=" ">
<path fill="none" stroke="#63b8ff" d="M212.49,-412.91C265.78,-416.62 351.4,-422.58 400.46,-425.99"/>
<polygon fill="#63b8ff" stroke="#63b8ff" points="400.08,-429.48 410.3,-426.68 400.56,-422.49 400.08,-429.48"/>
</a>
</g>
</g>
<!-- Node11 -->
<g id="Node000011" class="node">
<title>Node11</title>
<g id="a_Node000011"><a xlink:href="parse__utils_8c.html#a14e4a06978d8374fc830989e94b08140" target="_top" xlink:title=" ">
<polygon fill="white" stroke="#666666" points="490.75,-241.25 387.75,-241.25 387.75,-222 490.75,-222 490.75,-241.25"/>
<text text-anchor="middle" x="439.25" y="-227.75" font-family="Helvetica,sans-Serif" font-size="10.00">parse_check_length</text>
</a>
</g>
</g>
<!-- Node6&#45;&gt;Node11 -->
<g id="edge12_Node000006_Node000011" class="edge">
<title>Node6&#45;&gt;Node11</title>
<g id="a_edge12_Node000006_Node000011"><a xlink:title=" ">
<path fill="none" stroke="#63b8ff" d="M182.16,-399.6C198.79,-389.96 225.03,-375.33 248.75,-364.62 293.23,-344.56 311.28,-353.89 351.75,-326.62 382.43,-305.96 409.67,-272.19 425.04,-250.98"/>
<polygon fill="#63b8ff" stroke="#63b8ff" points="427.82,-253.11 430.73,-242.92 422.1,-249.07 427.82,-253.11"/>
</a>
</g>
</g>
<!-- Node12 -->
<g id="Node000012" class="node">
<title>Node12</title>
<g id="a_Node000012"><a xlink:href="parse__validate__assign__rgb__utils_8c.html#ab71c9a28c124cbbec7afa314c3595d68" target="_top" xlink:title=" ">
<polygon fill="white" stroke="#666666" points="350.62,-479.25 249.88,-479.25 249.88,-460 350.62,-460 350.62,-479.25"/>
<text text-anchor="middle" x="300.25" y="-465.75" font-family="Helvetica,sans-Serif" font-size="10.00">parse_transparency</text>
</a>
</g>
</g>
<!-- Node6&#45;&gt;Node12 -->
<g id="edge13_Node000006_Node000012" class="edge">
<title>Node6&#45;&gt;Node12</title>
<g id="a_edge13_Node000006_Node000012"><a xlink:title=" ">
<path fill="none" stroke="#63b8ff" d="M187.68,-419.67C209.23,-429.32 242.03,-444 266.5,-454.96"/>
<polygon fill="#63b8ff" stroke="#63b8ff" points="264.81,-458.04 275.37,-458.93 267.67,-451.65 264.81,-458.04"/>
</a>
</g>
</g>
<!-- Node14 -->
<g id="Node000014" class="node">
<title>Node14</title>
<g id="a_Node000014"><a xlink:href="parse__validate__assign__rgb__utils_8c.html#a38dd4510ea4653d36b16185526f288ab" target="_top" xlink:title=" ">
<polygon fill="white" stroke="#666666" points="347.25,-403.88 253.25,-403.88 253.25,-373.38 347.25,-373.38 347.25,-403.88"/>
<text text-anchor="start" x="261.25" y="-390.38" font-family="Helvetica,sans-Serif" font-size="10.00">split_and_validate</text>
<text text-anchor="middle" x="300.25" y="-379.12" font-family="Helvetica,sans-Serif" font-size="10.00">_components</text>
</a>
</g>
</g>
<!-- Node6&#45;&gt;Node14 -->
<g id="edge19_Node000006_Node000014" class="edge">
<title>Node6&#45;&gt;Node14</title>
<g id="a_edge19_Node000006_Node000014"><a xlink:title=" ">
<path fill="none" stroke="#63b8ff" d="M212.49,-402.22C221.92,-400.74 231.91,-399.18 241.64,-397.65"/>
<polygon fill="#63b8ff" stroke="#63b8ff" points="242.05,-401.13 251.39,-396.13 240.97,-394.22 242.05,-401.13"/>
</a>
</g>
</g>
<!-- Node16 -->
<g id="Node000016" class="node">
<title>Node16</title>
<g id="a_Node000016"><a xlink:href="parse__validate__assign__rgb__utils_8c.html#a00d4a3c3a01ac083aacdf897546cc68c" target="_top" xlink:title=" ">
<polygon fill="white" stroke="#666666" points="351.75,-317.25 248.75,-317.25 248.75,-298 351.75,-298 351.75,-317.25"/>
<text text-anchor="middle" x="300.25" y="-303.75" font-family="Helvetica,sans-Serif" font-size="10.00">validate_rgb_ranges</text>
</a>
</g>
</g>
<!-- Node6&#45;&gt;Node16 -->
<g id="edge23_Node000006_Node000016" class="edge">
<title>Node6&#45;&gt;Node16</title>
<g id="a_edge23_Node000006_Node000016"><a xlink:title=" ">
<path fill="none" stroke="#63b8ff" d="M173.95,-399.72C188.31,-383.81 218.41,-352.27 248.75,-331.62 253.54,-328.36 258.85,-325.32 264.16,-322.56"/>
<polygon fill="#63b8ff" stroke="#63b8ff" points="265.45,-325.83 272.91,-318.31 262.39,-319.54 265.45,-325.83"/>
</a>
</g>
</g>
<!-- Node17 -->
<g id="Node000017" class="node">
<title>Node17</title>
<g id="a_Node000017"><a xlink:href="parse__validate__assign__rgb__utils_8c.html#a61e41bb10d4cefab87e662ece1e0b5ca" target="_top" xlink:title=" ">
<polygon fill="white" stroke="#666666" points="349.12,-56.25 251.38,-56.25 251.38,-37 349.12,-37 349.12,-56.25"/>
<text text-anchor="middle" x="300.25" y="-42.75" font-family="Helvetica,sans-Serif" font-size="10.00">validate_rgb_string</text>
</a>
</g>
</g>
<!-- Node6&#45;&gt;Node17 -->
<g id="edge25_Node000006_Node000017" class="edge">
<title>Node6&#45;&gt;Node17</title>
<g id="a_edge25_Node000006_Node000017"><a xlink:title=" ">
<path fill="none" stroke="#63b8ff" d="M167.62,-399.84C174.57,-371.2 195.46,-285.09 212.75,-213.62 228.77,-147.41 203.18,-115.27 248.75,-64.62 249.11,-64.23 249.48,-63.84 249.85,-63.46"/>
<polygon fill="#63b8ff" stroke="#63b8ff" points="251.76,-66.4 257.63,-57.58 247.54,-60.82 251.76,-66.4"/>
</a>
</g>
</g>
<!-- Node7&#45;&gt;Node8 -->
<g id="edge7_Node000007_Node000008" class="edge">
<title>Node7&#45;&gt;Node8</title>
<g id="a_edge7_Node000007_Node000008"><a xlink:title=" ">
<path fill="none" stroke="#63b8ff" d="M349.17,-506.62C368.22,-506.62 389.63,-506.62 406.68,-506.62"/>
<polygon fill="#63b8ff" stroke="#63b8ff" points="406.19,-510.13 416.19,-506.63 406.19,-503.13 406.19,-510.13"/>
</a>
</g>
</g>
<!-- Node9 -->
<g id="Node000009" class="node">
<title>Node9</title>
<g id="a_Node000009"><a xlink:href="ft__atoi_8c.html#afad2ec371b4188602da9a94db687cb16" target="_top" xlink:title=" ">
<polygon fill="white" stroke="#666666" points="460.75,-479.25 417.75,-479.25 417.75,-460 460.75,-460 460.75,-479.25"/>
<text text-anchor="middle" x="439.25" y="-465.75" font-family="Helvetica,sans-Serif" font-size="10.00">ft_atoi</text>
</a>
</g>
</g>
<!-- Node7&#45;&gt;Node9 -->
<g id="edge9_Node000007_Node000009" class="edge">
<title>Node7&#45;&gt;Node9</title>
<g id="a_edge9_Node000007_Node000009"><a xlink:title=" ">
<path fill="none" stroke="#63b8ff" d="M338.69,-496.51C359.98,-490.76 386.35,-483.64 406.6,-478.17"/>
<polygon fill="#63b8ff" stroke="#63b8ff" points="407.24,-481.63 415.98,-475.64 405.41,-474.87 407.24,-481.63"/>
</a>
</g>
</g>
<!-- Node8&#45;&gt;Node8 -->
<g id="edge8_Node000008_Node000008" class="edge">
<title>Node8&#45;&gt;Node8</title>
<g id="a_edge8_Node000008_Node000008"><a xlink:title=" ">
<path fill="none" stroke="#63b8ff" d="M420.78,-516.54C412.35,-525.15 418.51,-534.25 439.25,-534.25 450.59,-534.25 457.57,-531.53 460.19,-527.65"/>
<polygon fill="#63b8ff" stroke="#63b8ff" points="463.64,-527.02 458.05,-518.02 456.81,-528.54 463.64,-527.02"/>
</a>
</g>
</g>
<!-- Node12&#45;&gt;Node8 -->
<g id="edge16_Node000012_Node000008" class="edge">
<title>Node12&#45;&gt;Node8</title>
<g id="a_edge16_Node000012_Node000008"><a xlink:title=" ">
<path fill="none" stroke="#63b8ff" d="M338.69,-479.74C360.11,-485.52 386.68,-492.7 406.98,-498.18"/>
<polygon fill="#63b8ff" stroke="#63b8ff" points="405.8,-501.49 416.37,-500.72 407.63,-494.73 405.8,-501.49"/>
</a>
</g>
</g>
<!-- Node12&#45;&gt;Node9 -->
<g id="edge17_Node000012_Node000009" class="edge">
<title>Node12&#45;&gt;Node9</title>
<g id="a_edge17_Node000012_Node000009"><a xlink:title=" ">
<path fill="none" stroke="#63b8ff" d="M351.1,-469.62C369.44,-469.62 389.72,-469.62 406.1,-469.62"/>
<polygon fill="#63b8ff" stroke="#63b8ff" points="405.74,-473.13 415.74,-469.63 405.74,-466.13 405.74,-473.13"/>
</a>
</g>
</g>
<!-- Node12&#45;&gt;Node11 -->
<g id="edge18_Node000012_Node000011" class="edge">
<title>Node12&#45;&gt;Node11</title>
<g id="a_edge18_Node000012_Node000011"><a xlink:title=" ">
<path fill="none" stroke="#63b8ff" d="M311.49,-459.83C322.41,-449.01 339.77,-430.7 351.75,-412.62 387.73,-358.35 417.29,-286.82 430.62,-252.18"/>
<polygon fill="#63b8ff" stroke="#63b8ff" points="433.84,-253.56 434.1,-242.97 427.29,-251.08 433.84,-253.56"/>
</a>
</g>
</g>
<!-- Node13 -->
<g id="Node000013" class="node">
<title>Node13</title>
<g id="a_Node000013"><a xlink:href="check__range_8c.html#a31d1b2f2b0c6260cc272247fb1e281e4" target="_top" xlink:title=" ">
<polygon fill="white" stroke="#666666" points="475,-204.25 403.5,-204.25 403.5,-185 475,-185 475,-204.25"/>
<text text-anchor="middle" x="439.25" y="-190.75" font-family="Helvetica,sans-Serif" font-size="10.00">check_range</text>
</a>
</g>
</g>
<!-- Node12&#45;&gt;Node13 -->
<g id="edge14_Node000012_Node000013" class="edge">
<title>Node12&#45;&gt;Node13</title>
<g id="a_edge14_Node000012_Node000013"><a xlink:title=" ">
<path fill="none" stroke="#63b8ff" d="M313.33,-459.62C325.1,-449.17 342.52,-431.66 351.75,-412.62 391.16,-331.36 329.34,-281.51 387.75,-212.62 389.41,-210.66 391.3,-208.92 393.36,-207.36"/>
<polygon fill="#63b8ff" stroke="#63b8ff" points="394.96,-210.48 401.86,-202.44 391.45,-204.42 394.96,-210.48"/>
</a>
</g>
</g>
<!-- Node13&#45;&gt;Node4 -->
<g id="edge15_Node000013_Node000004" class="edge">
<title>Node13&#45;&gt;Node4</title>
<g id="a_edge15_Node000013_Node000004"><a xlink:title=" ">
<path fill="none" stroke="#63b8ff" d="M475.37,-200.98C490.42,-203.71 507.91,-206.87 522.78,-209.56"/>
<polygon fill="#63b8ff" stroke="#63b8ff" points="522.08,-213 532.54,-211.33 523.33,-206.11 522.08,-213"/>
</a>
</g>
</g>
<!-- Node14&#45;&gt;Node10 -->
<g id="edge20_Node000014_Node000010" class="edge">
<title>Node14&#45;&gt;Node10</title>
<g id="a_edge20_Node000014_Node000010"><a xlink:title=" ">
<path fill="none" stroke="#63b8ff" d="M347.63,-402.17C365.04,-407.25 384.58,-412.96 401.05,-417.76"/>
<polygon fill="#63b8ff" stroke="#63b8ff" points="399.86,-421.06 410.44,-420.51 401.82,-414.34 399.86,-421.06"/>
</a>
</g>
</g>
<!-- Node14&#45;&gt;Node11 -->
<g id="edge22_Node000014_Node000011" class="edge">
<title>Node14&#45;&gt;Node11</title>
<g id="a_edge22_Node000014_Node000011"><a xlink:title=" ">
<path fill="none" stroke="#63b8ff" d="M333.75,-372.9C340.09,-369.04 346.42,-364.58 351.75,-359.62 386.3,-327.51 414.2,-279.11 428.29,-251.95"/>
<polygon fill="#63b8ff" stroke="#63b8ff" points="431.39,-253.58 432.77,-243.08 425.14,-250.43 431.39,-253.58"/>
</a>
</g>
</g>
<!-- Node15 -->
<g id="Node000015" class="node">
<title>Node15</title>
<g id="a_Node000015"><a xlink:href="LIBFT_2ft__split_8c.html#aa65c9de65051c8c589286cf133c4a1f4" target="_top" xlink:title=" ">
<polygon fill="white" stroke="#666666" points="461.88,-398.25 416.62,-398.25 416.62,-379 461.88,-379 461.88,-398.25"/>
<text text-anchor="middle" x="439.25" y="-384.75" font-family="Helvetica,sans-Serif" font-size="10.00">ft_split</text>
</a>
</g>
</g>
<!-- Node14&#45;&gt;Node15 -->
<g id="edge21_Node000014_Node000015" class="edge">
<title>Node14&#45;&gt;Node15</title>
<g id="a_edge21_Node000014_Node000015"><a xlink:title=" ">
<path fill="none" stroke="#63b8ff" d="M347.63,-388.62C366.46,-388.62 387.79,-388.62 405.02,-388.62"/>
<polygon fill="#63b8ff" stroke="#63b8ff" points="404.97,-392.13 414.97,-388.63 404.97,-385.13 404.97,-392.13"/>
</a>
</g>
</g>
<!-- Node16&#45;&gt;Node13 -->
<g id="edge24_Node000016_Node000013" class="edge">
<title>Node16&#45;&gt;Node13</title>
<g id="a_edge24_Node000016_Node000013"><a xlink:title=" ">
<path fill="none" stroke="#63b8ff" d="M309.92,-297.85C330.9,-274.23 383.02,-215.78 387.75,-212.62 389.52,-211.45 391.38,-210.33 393.3,-209.28"/>
<polygon fill="#63b8ff" stroke="#63b8ff" points="394.32,-212.67 401.85,-205.22 391.31,-206.35 394.32,-212.67"/>
</a>
</g>
</g>
<!-- Node18 -->
<g id="Node000018" class="node">
<title>Node18</title>
<g id="a_Node000018"><a xlink:href="ft__strval_8c.html#adc216c7cf83a710b028bd1501e3d4e6b" target="_top" xlink:title="Checks if a given string consists of valid characters.">
<polygon fill="white" stroke="#666666" points="464.88,-149.25 413.62,-149.25 413.62,-130 464.88,-130 464.88,-149.25"/>
<text text-anchor="middle" x="439.25" y="-135.75" font-family="Helvetica,sans-Serif" font-size="10.00">ft_strval</text>
</a>
</g>
</g>
<!-- Node17&#45;&gt;Node18 -->
<g id="edge26_Node000017_Node000018" class="edge">
<title>Node17&#45;&gt;Node18</title>
<g id="a_edge26_Node000017_Node000018"><a xlink:title=" ">
<path fill="none" stroke="#63b8ff" d="M335.18,-56.75C340.88,-59 346.61,-61.62 351.75,-64.62 378.65,-80.32 405.02,-104.9 421.44,-121.61"/>
<polygon fill="#63b8ff" stroke="#63b8ff" points="418.56,-123.67 428.02,-128.45 423.61,-118.81 418.56,-123.67"/>
</a>
</g>
</g>
<!-- Node18&#45;&gt;Node5 -->
<g id="edge31_Node000018_Node000005" class="edge">
<title>Node18&#45;&gt;Node5</title>
<g id="a_edge31_Node000018_Node000005"><a xlink:title=" ">
<path fill="none" stroke="#63b8ff" d="M465.14,-145.55C482.38,-149.53 505.89,-154.75 526.75,-158.62 556.37,-164.12 590.17,-169.19 615.14,-172.7"/>
<polygon fill="#63b8ff" stroke="#63b8ff" points="614.41,-176.13 624.79,-174.04 615.37,-169.2 614.41,-176.13"/>
</a>
</g>
</g>
<!-- Node19 -->
<g id="Node000019" class="node">
<title>Node19</title>
<g id="a_Node000019"><a xlink:href="LIBFT_2ft__isalnum_8c.html#a9c2c3821ea43ebdf97de07b123503f8b" target="_top" xlink:title=" ">
<polygon fill="white" stroke="#666666" points="587.75,-149.25 526.75,-149.25 526.75,-130 587.75,-130 587.75,-149.25"/>
<text text-anchor="middle" x="557.25" y="-135.75" font-family="Helvetica,sans-Serif" font-size="10.00">ft_isalnum</text>
</a>
</g>
</g>
<!-- Node18&#45;&gt;Node19 -->
<g id="edge27_Node000018_Node000019" class="edge">
<title>Node18&#45;&gt;Node19</title>
<g id="a_edge27_Node000018_Node000019"><a xlink:title=" ">
<path fill="none" stroke="#63b8ff" d="M465.13,-139.62C479.74,-139.62 498.56,-139.62 515.29,-139.62"/>
<polygon fill="#63b8ff" stroke="#63b8ff" points="514.96,-143.13 524.96,-139.63 514.96,-136.13 514.96,-143.13"/>
</a>
</g>
</g>
<!-- Node20 -->
<g id="Node000020" class="node">
<title>Node20</title>
<g id="a_Node000020"><a xlink:href="LIBFT_2ft__isalpha_8c.html#ac283963beaa3b8c7d09b78851cda297e" target="_top" xlink:title=" ">
<polygon fill="white" stroke="#666666" points="681.75,-130.25 623.75,-130.25 623.75,-111 681.75,-111 681.75,-130.25"/>
<text text-anchor="middle" x="652.75" y="-116.75" font-family="Helvetica,sans-Serif" font-size="10.00">ft_isalpha</text>
</a>
</g>
</g>
<!-- Node18&#45;&gt;Node20 -->
<g id="edge30_Node000018_Node000020" class="edge">
<title>Node18&#45;&gt;Node20</title>
<g id="a_edge30_Node000018_Node000020"><a xlink:title=" ">
<path fill="none" stroke="#63b8ff" d="M465.37,-132.6C482.51,-128.18 505.81,-122.9 526.75,-120.62 555.12,-117.55 587.32,-117.63 611.93,-118.44"/>
<polygon fill="#63b8ff" stroke="#63b8ff" points="611.72,-121.93 621.85,-118.83 611.99,-114.94 611.72,-121.93"/>
</a>
</g>
</g>
<!-- Node19&#45;&gt;Node5 -->
<g id="edge29_Node000019_Node000005" class="edge">
<title>Node19&#45;&gt;Node5</title>
<g id="a_edge29_Node000019_Node000005"><a xlink:title=" ">
<path fill="none" stroke="#63b8ff" d="M582.82,-149.61C593.15,-153.81 605.36,-158.77 616.62,-163.35"/>
<polygon fill="#63b8ff" stroke="#63b8ff" points="615.04,-166.48 625.62,-167.01 617.67,-160 615.04,-166.48"/>
</a>
</g>
</g>
<!-- Node19&#45;&gt;Node20 -->
<g id="edge28_Node000019_Node000020" class="edge">
<title>Node19&#45;&gt;Node20</title>
<g id="a_edge28_Node000019_Node000020"><a xlink:title=" ">
<path fill="none" stroke="#63b8ff" d="M588.09,-133.56C595.79,-132 604.2,-130.29 612.31,-128.64"/>
<polygon fill="#63b8ff" stroke="#63b8ff" points="612.88,-132.1 621.98,-126.67 611.49,-125.24 612.88,-132.1"/>
</a>
</g>
</g>
<!-- Node21&#45;&gt;Node11 -->
<g id="edge33_Node000021_Node000011" class="edge">
<title>Node21&#45;&gt;Node11</title>
<g id="a_edge33_Node000021_Node000011"><a xlink:title=" ">
<path fill="none" stroke="#63b8ff" d="M175.5,-204.53C190.27,-218.04 219.03,-241.58 248.75,-250.62 298.41,-265.74 358.44,-255.17 397.43,-244.73"/>
<polygon fill="#63b8ff" stroke="#63b8ff" points="398.2,-248.15 406.88,-242.08 396.3,-241.41 398.2,-248.15"/>
</a>
</g>
</g>
<!-- Node22 -->
<g id="Node000022" class="node">
<title>Node22</title>
<g id="a_Node000022"><a xlink:href="parse__validate__obj__utils_8c.html#afc0fb046c4f491b01a17dc19ff7e07ac" target="_top" xlink:title=" ">
<polygon fill="white" stroke="#666666" points="345,-93.25 255.5,-93.25 255.5,-74 345,-74 345,-93.25"/>
<text text-anchor="middle" x="300.25" y="-79.75" font-family="Helvetica,sans-Serif" font-size="10.00">validate_ambient</text>
</a>
</g>
</g>
<!-- Node21&#45;&gt;Node22 -->
<g id="edge34_Node000021_Node000022" class="edge">
<title>Node21&#45;&gt;Node22</title>
<g id="a_edge34_Node000021_Node000022"><a xlink:title=" ">
<path fill="none" stroke="#63b8ff" d="M171.61,-184.74C184.17,-165.97 213.97,-124.95 248.75,-101.62 250.34,-100.56 252.01,-99.54 253.72,-98.58"/>
<polygon fill="#63b8ff" stroke="#63b8ff" points="255.08,-101.81 262.57,-94.31 252.04,-95.51 255.08,-101.81"/>
</a>
</g>
</g>
<!-- Node23 -->
<g id="Node000023" class="node">
<title>Node23</title>
<g id="a_Node000023"><a xlink:href="parse__validate__obj__utils_8c.html#addac7b2e5dfd2ee9efe59f688946f39b" target="_top" xlink:title=" ">
<polygon fill="white" stroke="#666666" points="343.88,-241.25 256.62,-241.25 256.62,-222 343.88,-222 343.88,-241.25"/>
<text text-anchor="middle" x="300.25" y="-227.75" font-family="Helvetica,sans-Serif" font-size="10.00">validate_camera</text>
</a>
</g>
</g>
<!-- Node21&#45;&gt;Node23 -->
<g id="edge38_Node000021_Node000023" class="edge">
<title>Node21&#45;&gt;Node23</title>
<g id="a_edge38_Node000021_Node000023"><a xlink:title=" ">
<path fill="none" stroke="#63b8ff" d="M201.87,-204.74C217.23,-208.98 235.29,-213.97 251.67,-218.49"/>
<polygon fill="#63b8ff" stroke="#63b8ff" points="250.65,-221.84 261.22,-221.12 252.51,-215.09 250.65,-221.84"/>
</a>
</g>
</g>
<!-- Node24 -->
<g id="Node000024" class="node">
<title>Node24</title>
<g id="a_Node000024"><a xlink:href="parse__validate__obj__utils_8c.html#a578190cd0dc27381815b6d4d98c65168" target="_top" xlink:title=" ">
<polygon fill="white" stroke="#666666" points="344.25,-204.25 256.25,-204.25 256.25,-185 344.25,-185 344.25,-204.25"/>
<text text-anchor="middle" x="300.25" y="-190.75" font-family="Helvetica,sans-Serif" font-size="10.00">validate_cylinder</text>
</a>
</g>
</g>
<!-- Node21&#45;&gt;Node24 -->
<g id="edge42_Node000021_Node000024" class="edge">
<title>Node21&#45;&gt;Node24</title>
<g id="a_edge42_Node000021_Node000024"><a xlink:title=" ">
<path fill="none" stroke="#63b8ff" d="M213.25,-194.62C223.4,-194.62 234.18,-194.62 244.56,-194.62"/>
<polygon fill="#63b8ff" stroke="#63b8ff" points="244.53,-198.13 254.53,-194.63 244.53,-191.13 244.53,-198.13"/>
</a>
</g>
</g>
<!-- Node25 -->
<g id="Node000025" class="node">
<title>Node25</title>
<g id="a_Node000025"><a xlink:href="parse__validate__obj__utils_8c.html#a75294ff609499aa907ba8c285855f720" target="_top" xlink:title=" ">
<polygon fill="white" stroke="#666666" points="336.75,-167.25 263.75,-167.25 263.75,-148 336.75,-148 336.75,-167.25"/>
<text text-anchor="middle" x="300.25" y="-153.75" font-family="Helvetica,sans-Serif" font-size="10.00">validate_light</text>
</a>
</g>
</g>
<!-- Node21&#45;&gt;Node25 -->
<g id="edge46_Node000021_Node000025" class="edge">
<title>Node21&#45;&gt;Node25</title>
<g id="a_edge46_Node000021_Node000025"><a xlink:title=" ">
<path fill="none" stroke="#63b8ff" d="M201.87,-184.51C217.63,-180.16 236.24,-175.02 252.95,-170.41"/>
<polygon fill="#63b8ff" stroke="#63b8ff" points="253.44,-173.91 262.15,-167.87 251.57,-167.16 253.44,-173.91"/>
</a>
</g>
</g>
<!-- Node26 -->
<g id="Node000026" class="node">
<title>Node26</title>
<g id="a_Node000026"><a xlink:href="parse__validate__obj__utils_8c.html#ad58bbd3ad3f3f914989f3c0bc27cff8e" target="_top" xlink:title=" ">
<polygon fill="white" stroke="#666666" points="342.38,-130.25 258.12,-130.25 258.12,-111 342.38,-111 342.38,-130.25"/>
<text text-anchor="middle" x="300.25" y="-116.75" font-family="Helvetica,sans-Serif" font-size="10.00">validate_sphere</text>
</a>
</g>
</g>
<!-- Node21&#45;&gt;Node26 -->
<g id="edge50_Node000021_Node000026" class="edge">
<title>Node21&#45;&gt;Node26</title>
<g id="a_edge50_Node000021_Node000026"><a xlink:title=" ">
<path fill="none" stroke="#63b8ff" d="M177.94,-184.64C193.79,-172.53 222.09,-152.05 248.75,-138.62 251.3,-137.34 253.96,-136.11 256.66,-134.93"/>
<polygon fill="#63b8ff" stroke="#63b8ff" points="257.85,-138.23 265.82,-131.25 255.24,-131.73 257.85,-138.23"/>
</a>
</g>
</g>
<!-- Node22&#45;&gt;Node11 -->
<g id="edge37_Node000022_Node000011" class="edge">
<title>Node22&#45;&gt;Node11</title>
<g id="a_edge37_Node000022_Node000011"><a xlink:title=" ">
<path fill="none" stroke="#63b8ff" d="M340.93,-93.61C344.92,-95.78 348.64,-98.42 351.75,-101.62 388.14,-139.17 351.36,-176.08 387.75,-213.62 388.24,-214.13 388.74,-214.61 389.25,-215.09"/>
<polygon fill="#63b8ff" stroke="#63b8ff" points="387.14,-217.88 397.33,-220.77 391.16,-212.15 387.14,-217.88"/>
</a>
</g>
</g>
<!-- Node22&#45;&gt;Node13 -->
<g id="edge35_Node000022_Node000013" class="edge">
<title>Node22&#45;&gt;Node13</title>
<g id="a_edge35_Node000022_Node000013"><a xlink:title=" ">
<path fill="none" stroke="#63b8ff" d="M338.63,-93.69C343.31,-95.87 347.83,-98.48 351.75,-101.62 375.14,-120.35 367.16,-136.85 387.75,-158.62 394.69,-165.97 403.33,-172.76 411.49,-178.43"/>
<polygon fill="#63b8ff" stroke="#63b8ff" points="409.52,-181.32 419.79,-183.9 413.37,-175.48 409.52,-181.32"/>
</a>
</g>
</g>
<!-- Node22&#45;&gt;Node18 -->
<g id="edge36_Node000022_Node000018" class="edge">
<title>Node22&#45;&gt;Node18</title>
<g id="a_edge36_Node000022_Node000018"><a xlink:title=" ">
<path fill="none" stroke="#63b8ff" d="M330.76,-93.74C337.68,-96.23 345,-98.94 351.75,-101.62 370.01,-108.88 390.11,-117.66 406.34,-124.96"/>
<polygon fill="#63b8ff" stroke="#63b8ff" points="404.46,-127.94 415.01,-128.88 407.34,-121.57 404.46,-127.94"/>
</a>
</g>
</g>
<!-- Node23&#45;&gt;Node11 -->
<g id="edge41_Node000023_Node000011" class="edge">
<title>Node23&#45;&gt;Node11</title>
<g id="a_edge41_Node000023_Node000011"><a xlink:title=" ">
<path fill="none" stroke="#63b8ff" d="M344.22,-231.62C354.25,-231.62 365.13,-231.62 375.81,-231.62"/>
<polygon fill="#63b8ff" stroke="#63b8ff" points="375.76,-235.13 385.76,-231.63 375.76,-228.13 375.76,-235.13"/>
</a>
</g>
</g>
<!-- Node23&#45;&gt;Node13 -->
<g id="edge39_Node000023_Node000013" class="edge">
<title>Node23&#45;&gt;Node13</title>
<g id="a_edge39_Node000023_Node000013"><a xlink:title=" ">
<path fill="none" stroke="#63b8ff" d="M338.69,-221.51C355.19,-217.06 374.75,-211.77 392.15,-207.08"/>
<polygon fill="#63b8ff" stroke="#63b8ff" points="393.01,-210.47 401.75,-204.48 391.19,-203.71 393.01,-210.47"/>
</a>
</g>
</g>
<!-- Node23&#45;&gt;Node18 -->
<g id="edge40_Node000023_Node000018" class="edge">
<title>Node23&#45;&gt;Node18</title>
<g id="a_edge40_Node000023_Node000018"><a xlink:title=" ">
<path fill="none" stroke="#63b8ff" d="M336.23,-221.6C341.64,-219.37 346.99,-216.72 351.75,-213.62 371.24,-200.93 370.2,-190.89 387.75,-175.62 395.69,-168.72 404.93,-161.84 413.32,-155.97"/>
<polygon fill="#63b8ff" stroke="#63b8ff" points="415.11,-158.99 421.4,-150.46 411.16,-153.2 415.11,-158.99"/>
</a>
</g>
</g>
<!-- Node24&#45;&gt;Node11 -->
<g id="edge45_Node000024_Node000011" class="edge">
<title>Node24&#45;&gt;Node11</title>
<g id="a_edge45_Node000024_Node000011"><a xlink:title=" ">
<path fill="none" stroke="#63b8ff" d="M338.69,-204.74C354.54,-209.02 373.22,-214.06 390.08,-218.62"/>
<polygon fill="#63b8ff" stroke="#63b8ff" points="388.83,-221.9 399.4,-221.13 390.66,-215.15 388.83,-221.9"/>
</a>
</g>
</g>
<!-- Node24&#45;&gt;Node13 -->
<g id="edge43_Node000024_Node000013" class="edge">
<title>Node24&#45;&gt;Node13</title>
<g id="a_edge43_Node000024_Node000013"><a xlink:title=" ">
<path fill="none" stroke="#63b8ff" d="M344.6,-194.62C359.72,-194.62 376.73,-194.62 392.07,-194.62"/>
<polygon fill="#63b8ff" stroke="#63b8ff" points="391.9,-198.13 401.9,-194.63 391.9,-191.13 391.9,-198.13"/>
</a>
</g>
</g>
<!-- Node24&#45;&gt;Node18 -->
<g id="edge44_Node000024_Node000018" class="edge">
<title>Node24&#45;&gt;Node18</title>
<g id="a_edge44_Node000024_Node000018"><a xlink:title=" ">
<path fill="none" stroke="#63b8ff" d="M330.47,-184.56C337.47,-182.05 344.9,-179.31 351.75,-176.62 369.54,-169.66 389.14,-161.33 405.18,-154.34"/>
<polygon fill="#63b8ff" stroke="#63b8ff" points="406.5,-157.58 414.26,-150.36 403.69,-151.17 406.5,-157.58"/>
</a>
</g>
</g>
<!-- Node25&#45;&gt;Node11 -->
<g id="edge49_Node000025_Node000011" class="edge">
<title>Node25&#45;&gt;Node11</title>
<g id="a_edge49_Node000025_Node000011"><a xlink:title=" ">
<path fill="none" stroke="#63b8ff" d="M336.23,-167.65C341.64,-169.88 346.99,-172.53 351.75,-175.62 371.24,-188.32 368.26,-200.93 387.75,-213.62 389.53,-214.79 391.4,-215.89 393.33,-216.92"/>
<polygon fill="#63b8ff" stroke="#63b8ff" points="391.36,-219.86 401.9,-220.95 394.34,-213.53 391.36,-219.86"/>
</a>
</g>
</g>
<!-- Node25&#45;&gt;Node13 -->
<g id="edge47_Node000025_Node000013" class="edge">
<title>Node25&#45;&gt;Node13</title>
<g id="a_edge47_Node000025_Node000013"><a xlink:title=" ">
<path fill="none" stroke="#63b8ff" d="M337.25,-167.35C354.1,-171.9 374.38,-177.38 392.33,-182.22"/>
<polygon fill="#63b8ff" stroke="#63b8ff" points="391.41,-185.6 401.98,-184.83 393.24,-178.84 391.41,-185.6"/>
</a>
</g>
</g>
<!-- Node25&#45;&gt;Node18 -->
<g id="edge48_Node000025_Node000018" class="edge">
<title>Node25&#45;&gt;Node18</title>
<g id="a_edge48_Node000025_Node000018"><a xlink:title=" ">
<path fill="none" stroke="#63b8ff" d="M337.25,-152.9C357.26,-150.27 382.09,-147 402.13,-144.37"/>
<polygon fill="#63b8ff" stroke="#63b8ff" points="402.34,-147.87 411.8,-143.1 401.42,-140.93 402.34,-147.87"/>
</a>
</g>
</g>
<!-- Node26&#45;&gt;Node11 -->
<g id="edge53_Node000026_Node000011" class="edge">
<title>Node26&#45;&gt;Node11</title>
<g id="a_edge53_Node000026_Node000011"><a xlink:title=" ">
<path fill="none" stroke="#63b8ff" d="M339.75,-130.66C344.09,-132.82 348.22,-135.45 351.75,-138.62 379.23,-163.36 360.27,-188.89 387.75,-213.62 388.52,-214.32 389.32,-214.99 390.15,-215.63"/>
<polygon fill="#63b8ff" stroke="#63b8ff" points="388.12,-218.49 398.47,-220.79 391.82,-212.55 388.12,-218.49"/>
</a>
</g>
</g>
<!-- Node26&#45;&gt;Node13 -->
<g id="edge51_Node000026_Node000013" class="edge">
<title>Node26&#45;&gt;Node13</title>
<g id="a_edge51_Node000026_Node000013"><a xlink:title=" ">
<path fill="none" stroke="#63b8ff" d="M332.97,-130.66C339.3,-133.01 345.82,-135.7 351.75,-138.62 374.68,-149.94 398.97,-166.08 415.96,-178.13"/>
<polygon fill="#63b8ff" stroke="#63b8ff" points="413.66,-180.79 423.82,-183.8 417.75,-175.11 413.66,-180.79"/>
</a>
</g>
</g>
<!-- Node26&#45;&gt;Node18 -->
<g id="edge52_Node000026_Node000018" class="edge">
<title>Node26&#45;&gt;Node18</title>
<g id="a_edge52_Node000026_Node000018"><a xlink:title=" ">
<path fill="none" stroke="#63b8ff" d="M342.73,-126.38C361.59,-128.99 383.71,-132.06 401.91,-134.59"/>
<polygon fill="#63b8ff" stroke="#63b8ff" points="401.35,-138.04 411.73,-135.95 402.31,-131.11 401.35,-138.04"/>
</a>
</g>
</g>
<!-- Node28 -->
<g id="Node000028" class="node">
<title>Node28</title>
<g id="a_Node000028"><a xlink:href="LIBFT_2ft__bzero_8c.html#a5937ab0d08e31d0e3e4a16ec71e293a1" target="_top" xlink:title=" ">
<polygon fill="white" stroke="#666666" points="325.5,-19.25 275,-19.25 275,0 325.5,0 325.5,-19.25"/>
<text text-anchor="middle" x="300.25" y="-5.75" font-family="Helvetica,sans-Serif" font-size="10.00">ft_bzero</text>
</a>
</g>
</g>
<!-- Node27&#45;&gt;Node28 -->
<g id="edge55_Node000027_Node000028" class="edge">
<title>Node27&#45;&gt;Node28</title>
<g id="a_edge55_Node000027_Node000028"><a xlink:title=" ">
<path fill="none" stroke="#63b8ff" d="M177.94,-73.64C193.79,-61.53 222.09,-41.05 248.75,-27.62 253.59,-25.19 258.83,-22.93 264.06,-20.89"/>
<polygon fill="#63b8ff" stroke="#63b8ff" points="264.98,-24.28 273.17,-17.56 262.58,-17.71 264.98,-24.28"/>
</a>
</g>
</g>
</g>
</svg>
