<?xml version="1.0" encoding="UTF-8" standalone="no"?>
<!DOCTYPE svg PUBLIC "-//W3C//DTD SVG 1.1//EN"
 "http://www.w3.org/Graphics/SVG/1.1/DTD/svg11.dtd">
<!-- Generated by graphviz version 9.0.0 (20230911.1827)
 -->
<!-- Title: parse_sphere Pages: 1 -->
<svg width="671pt" height="251pt"
 viewBox="0.00 0.00 671.00 251.25" xmlns="http://www.w3.org/2000/svg" xmlns:xlink="http://www.w3.org/1999/xlink">
<g id="graph0" class="graph" transform="scale(1 1) rotate(0) translate(4 247.25)">
<title>parse_sphere</title>
<!-- Node1 -->
<g id="Node000001" class="node">
<title>Node1</title>
<g id="a_Node000001"><a xlink:title=" ">
<polygon fill="#999999" stroke="#666666" points="74.5,-205.25 0,-205.25 0,-186 74.5,-186 74.5,-205.25"/>
<text text-anchor="middle" x="37.25" y="-191.75" font-family="Helvetica,sans-Serif" font-size="10.00">parse_sphere</text>
</a>
</g>
</g>
<!-- Node2 -->
<g id="Node000002" class="node">
<title>Node2</title>
<g id="a_Node000002"><a xlink:href="add__to__dptr_8c.html#a87c44ad76517c5ecf00aaaee8585a9f1" target="_top" xlink:title=" ">
<polygon fill="white" stroke="#666666" points="192.5,-242.25 125.5,-242.25 125.5,-223 192.5,-223 192.5,-242.25"/>
<text text-anchor="middle" x="159" y="-228.75" font-family="Helvetica,sans-Serif" font-size="10.00">add_to_dptr</text>
</a>
</g>
</g>
<!-- Node1&#45;&gt;Node2 -->
<g id="edge1_Node000001_Node000002" class="edge">
<title>Node1&#45;&gt;Node2</title>
<g id="a_edge1_Node000001_Node000002"><a xlink:title=" ">
<path fill="none" stroke="#63b8ff" d="M70.97,-205.74C84.44,-209.9 100.23,-214.77 114.63,-219.23"/>
<polygon fill="#63b8ff" stroke="#63b8ff" points="113.28,-222.47 123.87,-222.08 115.35,-215.78 113.28,-222.47"/>
</a>
</g>
</g>
<!-- Node3 -->
<g id="Node000003" class="node">
<title>Node3</title>
<g id="a_Node000003"><a xlink:href="obj__free_8c.html#a9aa81c78fd96dfbf51e16b6fc0cc4eff" target="_top" xlink:title=" ">
<polygon fill="white" stroke="#666666" points="191,-205.25 127,-205.25 127,-186 191,-186 191,-205.25"/>
<text text-anchor="middle" x="159" y="-191.75" font-family="Helvetica,sans-Serif" font-size="10.00">free_object</text>
</a>
</g>
</g>
<!-- Node1&#45;&gt;Node3 -->
<g id="edge2_Node000001_Node000003" class="edge">
<title>Node1&#45;&gt;Node3</title>
<g id="a_edge2_Node000001_Node000003"><a xlink:title=" ">
<path fill="none" stroke="#63b8ff" d="M74.83,-195.62C87.7,-195.62 102.28,-195.62 115.59,-195.62"/>
<polygon fill="#63b8ff" stroke="#63b8ff" points="115.38,-199.13 125.38,-195.63 115.38,-192.13 115.38,-199.13"/>
</a>
</g>
</g>
<!-- Node5 -->
<g id="Node000005" class="node">
<title>Node5</title>
<g id="a_Node000005"><a xlink:href="parse__utils_8c.html#a3a792671ccd6560d6c42352319889a0c" target="_top" xlink:title=" ">
<polygon fill="white" stroke="#666666" points="207.5,-130.25 110.5,-130.25 110.5,-111 207.5,-111 207.5,-130.25"/>
<text text-anchor="middle" x="159" y="-116.75" font-family="Helvetica,sans-Serif" font-size="10.00">parse_validate_obj</text>
</a>
</g>
</g>
<!-- Node1&#45;&gt;Node5 -->
<g id="edge4_Node000001_Node000005" class="edge">
<title>Node1&#45;&gt;Node5</title>
<g id="a_edge4_Node000001_Node000005"><a xlink:title=" ">
<path fill="none" stroke="#63b8ff" d="M54.4,-185.51C74.42,-172.97 108.78,-151.45 132.4,-136.66"/>
<polygon fill="#63b8ff" stroke="#63b8ff" points="134.21,-139.66 140.82,-131.38 130.49,-133.72 134.21,-139.66"/>
</a>
</g>
</g>
<!-- Node4 -->
<g id="Node000004" class="node">
<title>Node4</title>
<g id="a_Node000004"><a xlink:href="matrix__free_8c.html#ab28d26aa6d34d5c2a3b83b9ee519fec6" target="_top" xlink:title=" ">
<polygon fill="white" stroke="#666666" points="320.25,-243.25 256.25,-243.25 256.25,-224 320.25,-224 320.25,-243.25"/>
<text text-anchor="middle" x="288.25" y="-229.75" font-family="Helvetica,sans-Serif" font-size="10.00">free_matrix</text>
</a>
</g>
</g>
<!-- Node3&#45;&gt;Node4 -->
<g id="edge3_Node000003_Node000004" class="edge">
<title>Node3&#45;&gt;Node4</title>
<g id="a_edge3_Node000003_Node000004"><a xlink:title=" ">
<path fill="none" stroke="#63b8ff" d="M191.46,-205.02C207.79,-209.9 227.96,-215.92 245.58,-221.18"/>
<polygon fill="#63b8ff" stroke="#63b8ff" points="244.12,-224.4 254.71,-223.91 246.13,-217.69 244.12,-224.4"/>
</a>
</g>
</g>
<!-- Node6 -->
<g id="Node000006" class="node">
<title>Node6</title>
<g id="a_Node000006"><a xlink:href="parse__utils_8c.html#a14e4a06978d8374fc830989e94b08140" target="_top" xlink:title=" ">
<polygon fill="white" stroke="#666666" points="472,-130.25 369,-130.25 369,-111 472,-111 472,-130.25"/>
<text text-anchor="middle" x="420.5" y="-116.75" font-family="Helvetica,sans-Serif" font-size="10.00">parse_check_length</text>
</a>
</g>
</g>
<!-- Node5&#45;&gt;Node6 -->
<g id="edge5_Node000005_Node000006" class="edge">
<title>Node5&#45;&gt;Node6</title>
<g id="a_edge5_Node000005_Node000006"><a xlink:title=" ">
<path fill="none" stroke="#63b8ff" d="M170.25,-130.53C185.02,-144.04 213.78,-167.58 243.5,-176.62 281.56,-188.2 294.85,-187.9 333,-176.62 358.53,-169.08 383.6,-151.39 400.13,-137.89"/>
<polygon fill="#63b8ff" stroke="#63b8ff" points="402.29,-140.65 407.65,-131.52 397.76,-135.31 402.29,-140.65"/>
</a>
</g>
</g>
<!-- Node7 -->
<g id="Node000007" class="node">
<title>Node7</title>
<g id="a_Node000007"><a xlink:href="parse__validate__obj__utils_8c.html#afc0fb046c4f491b01a17dc19ff7e07ac" target="_top" xlink:title=" ">
<polygon fill="white" stroke="#666666" points="333,-167.25 243.5,-167.25 243.5,-148 333,-148 333,-167.25"/>
<text text-anchor="middle" x="288.25" y="-153.75" font-family="Helvetica,sans-Serif" font-size="10.00">validate_ambient</text>
</a>
</g>
</g>
<!-- Node5&#45;&gt;Node7 -->
<g id="edge6_Node000005_Node000007" class="edge">
<title>Node5&#45;&gt;Node7</title>
<g id="a_edge6_Node000005_Node000007"><a xlink:title=" ">
<path fill="none" stroke="#63b8ff" d="M194.77,-130.74C209.22,-134.94 226.19,-139.87 241.62,-144.36"/>
<polygon fill="#63b8ff" stroke="#63b8ff" points="240.49,-147.67 251.07,-147.1 242.44,-140.95 240.49,-147.67"/>
</a>
</g>
</g>
<!-- Node14 -->
<g id="Node000014" class="node">
<title>Node14</title>
<g id="a_Node000014"><a xlink:href="parse__validate__obj__utils_8c.html#addac7b2e5dfd2ee9efe59f688946f39b" target="_top" xlink:title=" ">
<polygon fill="white" stroke="#666666" points="331.88,-130.25 244.62,-130.25 244.62,-111 331.88,-111 331.88,-130.25"/>
<text text-anchor="middle" x="288.25" y="-116.75" font-family="Helvetica,sans-Serif" font-size="10.00">validate_camera</text>
</a>
</g>
</g>
<!-- Node5&#45;&gt;Node14 -->
<g id="edge17_Node000005_Node000014" class="edge">
<title>Node5&#45;&gt;Node14</title>
<g id="a_edge17_Node000005_Node000014"><a xlink:title=" ">
<path fill="none" stroke="#63b8ff" d="M207.75,-120.62C215.99,-120.62 224.61,-120.62 233.01,-120.62"/>
<polygon fill="#63b8ff" stroke="#63b8ff" points="232.75,-124.13 242.75,-120.63 232.75,-117.13 232.75,-124.13"/>
</a>
</g>
</g>
<!-- Node15 -->
<g id="Node000015" class="node">
<title>Node15</title>
<g id="a_Node000015"><a xlink:href="parse__validate__obj__utils_8c.html#a578190cd0dc27381815b6d4d98c65168" target="_top" xlink:title=" ">
<polygon fill="white" stroke="#666666" points="332.25,-93.25 244.25,-93.25 244.25,-74 332.25,-74 332.25,-93.25"/>
<text text-anchor="middle" x="288.25" y="-79.75" font-family="Helvetica,sans-Serif" font-size="10.00">validate_cylinder</text>
</a>
</g>
</g>
<!-- Node5&#45;&gt;Node15 -->
<g id="edge21_Node000005_Node000015" class="edge">
<title>Node5&#45;&gt;Node15</title>
<g id="a_edge21_Node000005_Node000015"><a xlink:title=" ">
<path fill="none" stroke="#63b8ff" d="M194.77,-110.51C209.22,-106.31 226.19,-101.38 241.62,-96.89"/>
<polygon fill="#63b8ff" stroke="#63b8ff" points="242.44,-100.3 251.07,-94.15 240.49,-93.58 242.44,-100.3"/>
</a>
</g>
</g>
<!-- Node16 -->
<g id="Node000016" class="node">
<title>Node16</title>
<g id="a_Node000016"><a xlink:href="parse__validate__obj__utils_8c.html#a75294ff609499aa907ba8c285855f720" target="_top" xlink:title=" ">
<polygon fill="white" stroke="#666666" points="324.75,-56.25 251.75,-56.25 251.75,-37 324.75,-37 324.75,-56.25"/>
<text text-anchor="middle" x="288.25" y="-42.75" font-family="Helvetica,sans-Serif" font-size="10.00">validate_light</text>
</a>
</g>
</g>
<!-- Node5&#45;&gt;Node16 -->
<g id="edge25_Node000005_Node000016" class="edge">
<title>Node5&#45;&gt;Node16</title>
<g id="a_edge25_Node000005_Node000016"><a xlink:title=" ">
<path fill="none" stroke="#63b8ff" d="M173.08,-110.64C189.09,-98.71 217.33,-78.6 243.5,-64.62 245.59,-63.51 247.77,-62.41 249.99,-61.35"/>
<polygon fill="#63b8ff" stroke="#63b8ff" points="251.41,-64.55 259.1,-57.26 248.55,-58.16 251.41,-64.55"/>
</a>
</g>
</g>
<!-- Node17 -->
<g id="Node000017" class="node">
<title>Node17</title>
<g id="a_Node000017"><a xlink:href="parse__validate__obj__utils_8c.html#ad58bbd3ad3f3f914989f3c0bc27cff8e" target="_top" xlink:title=" ">
<polygon fill="white" stroke="#666666" points="330.38,-19.25 246.12,-19.25 246.12,0 330.38,0 330.38,-19.25"/>
<text text-anchor="middle" x="288.25" y="-5.75" font-family="Helvetica,sans-Serif" font-size="10.00">validate_sphere</text>
</a>
</g>
</g>
<!-- Node5&#45;&gt;Node17 -->
<g id="edge29_Node000005_Node000017" class="edge">
<title>Node5&#45;&gt;Node17</title>
<g id="a_edge29_Node000005_Node000017"><a xlink:title=" ">
<path fill="none" stroke="#63b8ff" d="M166.67,-110.6C179.51,-91.95 209.47,-51.65 243.5,-27.62 244.84,-26.68 246.24,-25.77 247.68,-24.9"/>
<polygon fill="#63b8ff" stroke="#63b8ff" points="249.02,-28.15 256.24,-20.4 245.76,-21.95 249.02,-28.15"/>
</a>
</g>
</g>
<!-- Node7&#45;&gt;Node6 -->
<g id="edge16_Node000007_Node000006" class="edge">
<title>Node7&#45;&gt;Node6</title>
<g id="a_edge16_Node000007_Node000006"><a xlink:title=" ">
<path fill="none" stroke="#63b8ff" d="M324.84,-147.51C339.77,-143.27 357.33,-138.28 373.25,-133.76"/>
<polygon fill="#63b8ff" stroke="#63b8ff" points="373.83,-137.24 382.5,-131.14 371.92,-130.5 373.83,-137.24"/>
</a>
</g>
</g>
<!-- Node8 -->
<g id="Node000008" class="node">
<title>Node8</title>
<g id="a_Node000008"><a xlink:href="check__range_8c.html#a31d1b2f2b0c6260cc272247fb1e281e4" target="_top" xlink:title=" ">
<polygon fill="white" stroke="#666666" points="456.25,-56.25 384.75,-56.25 384.75,-37 456.25,-37 456.25,-56.25"/>
<text text-anchor="middle" x="420.5" y="-42.75" font-family="Helvetica,sans-Serif" font-size="10.00">check_range</text>
</a>
</g>
</g>
<!-- Node7&#45;&gt;Node8 -->
<g id="edge7_Node000007_Node000008" class="edge">
<title>Node7&#45;&gt;Node8</title>
<g id="a_edge7_Node000007_Node000008"><a xlink:title=" ">
<path fill="none" stroke="#63b8ff" d="M321.51,-147.61C325.68,-145.42 329.66,-142.78 333,-139.62 359.88,-114.24 341.52,-89.36 369,-64.62 370.66,-63.13 372.45,-61.76 374.34,-60.5"/>
<polygon fill="#63b8ff" stroke="#63b8ff" points="375.89,-63.64 383.03,-55.81 372.57,-57.48 375.89,-63.64"/>
</a>
</g>
</g>
<!-- Node11 -->
<g id="Node000011" class="node">
<title>Node11</title>
<g id="a_Node000011"><a xlink:href="ft__strval_8c.html#adc216c7cf83a710b028bd1501e3d4e6b" target="_top" xlink:title="Checks if a given string consists of valid characters.">
<polygon fill="white" stroke="#666666" points="446.12,-93.25 394.88,-93.25 394.88,-74 446.12,-74 446.12,-93.25"/>
<text text-anchor="middle" x="420.5" y="-79.75" font-family="Helvetica,sans-Serif" font-size="10.00">ft_strval</text>
</a>
</g>
</g>
<!-- Node7&#45;&gt;Node11 -->
<g id="edge10_Node000007_Node000011" class="edge">
<title>Node7&#45;&gt;Node11</title>
<g id="a_edge10_Node000007_Node000011"><a xlink:title=" ">
<path fill="none" stroke="#63b8ff" d="M318.39,-147.67C323.46,-145.37 328.53,-142.69 333,-139.62 352.18,-126.46 349.51,-114.32 369,-101.62 373.58,-98.64 378.73,-96.07 383.93,-93.9"/>
<polygon fill="#63b8ff" stroke="#63b8ff" points="384.95,-97.25 393.11,-90.48 382.52,-90.69 384.95,-97.25"/>
</a>
</g>
</g>
<!-- Node9 -->
<g id="Node000009" class="node">
<title>Node9</title>
<g id="a_Node000009"><a xlink:href="ft__atod_8c.html#ad55518c88cf22904ac355596269be400" target="_top" xlink:title=" ">
<polygon fill="white" stroke="#666666" points="561.5,-36.25 515.5,-36.25 515.5,-17 561.5,-17 561.5,-36.25"/>
<text text-anchor="middle" x="538.5" y="-22.75" font-family="Helvetica,sans-Serif" font-size="10.00">ft_atod</text>
</a>
</g>
</g>
<!-- Node8&#45;&gt;Node9 -->
<g id="edge8_Node000008_Node000009" class="edge">
<title>Node8&#45;&gt;Node9</title>
<g id="a_edge8_Node000008_Node000009"><a xlink:title=" ">
<path fill="none" stroke="#63b8ff" d="M456.62,-40.57C471.67,-37.98 489.16,-34.96 504.03,-32.4"/>
<polygon fill="#63b8ff" stroke="#63b8ff" points="504.53,-35.86 513.79,-30.71 503.34,-28.96 504.53,-35.86"/>
</a>
</g>
</g>
<!-- Node10 -->
<g id="Node000010" class="node">
<title>Node10</title>
<g id="a_Node000010"><a xlink:href="LIBFT_2ft__isdigit_8c.html#a2cf15b8a1a277d1e2ce3654101a2003d" target="_top" xlink:title=" ">
<polygon fill="white" stroke="#666666" points="660.38,-74.25 607.62,-74.25 607.62,-55 660.38,-55 660.38,-74.25"/>
<text text-anchor="middle" x="634" y="-60.75" font-family="Helvetica,sans-Serif" font-size="10.00">ft_isdigit</text>
</a>
</g>
</g>
<!-- Node9&#45;&gt;Node10 -->
<g id="edge9_Node000009_Node000010" class="edge">
<title>Node9&#45;&gt;Node10</title>
<g id="a_edge9_Node000009_Node000010"><a xlink:title=" ">
<path fill="none" stroke="#63b8ff" d="M561.66,-35.63C572.52,-40.04 585.85,-45.46 598.04,-50.42"/>
<polygon fill="#63b8ff" stroke="#63b8ff" points="596.38,-53.52 606.97,-54.04 599.02,-47.04 596.38,-53.52"/>
</a>
</g>
</g>
<!-- Node11&#45;&gt;Node10 -->
<g id="edge15_Node000011_Node000010" class="edge">
<title>Node11&#45;&gt;Node10</title>
<g id="a_edge15_Node000011_Node000010"><a xlink:title=" ">
<path fill="none" stroke="#63b8ff" d="M446.59,-81.37C483.6,-78.05 553.05,-71.81 595.94,-67.95"/>
<polygon fill="#63b8ff" stroke="#63b8ff" points="596.13,-71.45 605.77,-67.07 595.5,-64.48 596.13,-71.45"/>
</a>
</g>
</g>
<!-- Node12 -->
<g id="Node000012" class="node">
<title>Node12</title>
<g id="a_Node000012"><a xlink:href="LIBFT_2ft__isalnum_8c.html#a9c2c3821ea43ebdf97de07b123503f8b" target="_top" xlink:title=" ">
<polygon fill="white" stroke="#666666" points="569,-112.25 508,-112.25 508,-93 569,-93 569,-112.25"/>
<text text-anchor="middle" x="538.5" y="-98.75" font-family="Helvetica,sans-Serif" font-size="10.00">ft_isalnum</text>
</a>
</g>
</g>
<!-- Node11&#45;&gt;Node12 -->
<g id="edge11_Node000011_Node000012" class="edge">
<title>Node11&#45;&gt;Node12</title>
<g id="a_edge11_Node000011_Node000012"><a xlink:title=" ">
<path fill="none" stroke="#63b8ff" d="M446.38,-87.7C460.99,-90.09 479.81,-93.18 496.54,-95.92"/>
<polygon fill="#63b8ff" stroke="#63b8ff" points="495.79,-99.34 506.23,-97.5 496.93,-92.43 495.79,-99.34"/>
</a>
</g>
</g>
<!-- Node13 -->
<g id="Node000013" class="node">
<title>Node13</title>
<g id="a_Node000013"><a xlink:href="LIBFT_2ft__isalpha_8c.html#ac283963beaa3b8c7d09b78851cda297e" target="_top" xlink:title=" ">
<polygon fill="white" stroke="#666666" points="663,-131.25 605,-131.25 605,-112 663,-112 663,-131.25"/>
<text text-anchor="middle" x="634" y="-117.75" font-family="Helvetica,sans-Serif" font-size="10.00">ft_isalpha</text>
</a>
</g>
</g>
<!-- Node11&#45;&gt;Node13 -->
<g id="edge14_Node000011_Node000013" class="edge">
<title>Node11&#45;&gt;Node13</title>
<g id="a_edge14_Node000011_Node000013"><a xlink:title=" ">
<path fill="none" stroke="#63b8ff" d="M446.48,-91.61C454.72,-94.49 463.86,-97.94 472,-101.62 488.68,-109.17 490.28,-117.03 508,-121.62 535.93,-128.86 568.56,-128.58 593.48,-126.64"/>
<polygon fill="#63b8ff" stroke="#63b8ff" points="593.54,-130.15 603.18,-125.76 592.9,-123.18 593.54,-130.15"/>
</a>
</g>
</g>
<!-- Node12&#45;&gt;Node10 -->
<g id="edge13_Node000012_Node000010" class="edge">
<title>Node12&#45;&gt;Node10</title>
<g id="a_edge13_Node000012_Node000010"><a xlink:title=" ">
<path fill="none" stroke="#63b8ff" d="M564.07,-92.64C574.4,-88.44 586.61,-83.48 597.87,-78.9"/>
<polygon fill="#63b8ff" stroke="#63b8ff" points="598.92,-82.25 606.87,-75.24 596.29,-75.77 598.92,-82.25"/>
</a>
</g>
</g>
<!-- Node12&#45;&gt;Node13 -->
<g id="edge12_Node000012_Node000013" class="edge">
<title>Node12&#45;&gt;Node13</title>
<g id="a_edge12_Node000012_Node000013"><a xlink:title=" ">
<path fill="none" stroke="#63b8ff" d="M569.34,-108.69C577.04,-110.25 585.45,-111.96 593.56,-113.61"/>
<polygon fill="#63b8ff" stroke="#63b8ff" points="592.74,-117.01 603.23,-115.58 594.13,-110.15 592.74,-117.01"/>
</a>
</g>
</g>
<!-- Node14&#45;&gt;Node6 -->
<g id="edge20_Node000014_Node000006" class="edge">
<title>Node14&#45;&gt;Node6</title>
<g id="a_edge20_Node000014_Node000006"><a xlink:title=" ">
<path fill="none" stroke="#63b8ff" d="M332.26,-120.62C340.31,-120.62 348.87,-120.62 357.36,-120.62"/>
<polygon fill="#63b8ff" stroke="#63b8ff" points="357.33,-124.13 367.33,-120.63 357.33,-117.13 357.33,-124.13"/>
</a>
</g>
</g>
<!-- Node14&#45;&gt;Node8 -->
<g id="edge18_Node000014_Node000008" class="edge">
<title>Node14&#45;&gt;Node8</title>
<g id="a_edge18_Node000014_Node000008"><a xlink:title=" ">
<path fill="none" stroke="#63b8ff" d="M318.39,-110.67C323.46,-108.37 328.53,-105.69 333,-102.62 352.18,-89.46 349.51,-77.32 369,-64.62 370.78,-63.46 372.65,-62.36 374.58,-61.33"/>
<polygon fill="#63b8ff" stroke="#63b8ff" points="375.59,-64.72 383.15,-57.3 372.61,-58.39 375.59,-64.72"/>
</a>
</g>
</g>
<!-- Node14&#45;&gt;Node11 -->
<g id="edge19_Node000014_Node000011" class="edge">
<title>Node14&#45;&gt;Node11</title>
<g id="a_edge19_Node000014_Node000011"><a xlink:title=" ">
<path fill="none" stroke="#63b8ff" d="M324.84,-110.51C343.18,-105.31 365.48,-98.97 383.83,-93.76"/>
<polygon fill="#63b8ff" stroke="#63b8ff" points="384.56,-97.19 393.22,-91.09 382.64,-90.46 384.56,-97.19"/>
</a>
</g>
</g>
<!-- Node15&#45;&gt;Node6 -->
<g id="edge24_Node000015_Node000006" class="edge">
<title>Node15&#45;&gt;Node6</title>
<g id="a_edge24_Node000015_Node000006"><a xlink:title=" ">
<path fill="none" stroke="#63b8ff" d="M324.84,-93.74C339.77,-97.98 357.33,-102.97 373.25,-107.49"/>
<polygon fill="#63b8ff" stroke="#63b8ff" points="371.92,-110.75 382.5,-110.11 373.83,-104.01 371.92,-110.75"/>
</a>
</g>
</g>
<!-- Node15&#45;&gt;Node8 -->
<g id="edge22_Node000015_Node000008" class="edge">
<title>Node15&#45;&gt;Node8</title>
<g id="a_edge22_Node000015_Node000008"><a xlink:title=" ">
<path fill="none" stroke="#63b8ff" d="M324.84,-73.51C339.9,-69.24 357.62,-64.2 373.64,-59.65"/>
<polygon fill="#63b8ff" stroke="#63b8ff" points="374.28,-63.11 382.95,-57.01 372.37,-56.37 374.28,-63.11"/>
</a>
</g>
</g>
<!-- Node15&#45;&gt;Node11 -->
<g id="edge23_Node000015_Node000011" class="edge">
<title>Node15&#45;&gt;Node11</title>
<g id="a_edge23_Node000015_Node000011"><a xlink:title=" ">
<path fill="none" stroke="#63b8ff" d="M332.62,-83.62C349.02,-83.62 367.49,-83.62 383.17,-83.62"/>
<polygon fill="#63b8ff" stroke="#63b8ff" points="383.02,-87.13 393.02,-83.63 383.02,-80.13 383.02,-87.13"/>
</a>
</g>
</g>
<!-- Node16&#45;&gt;Node6 -->
<g id="edge28_Node000016_Node000006" class="edge">
<title>Node16&#45;&gt;Node6</title>
<g id="a_edge28_Node000016_Node000006"><a xlink:title=" ">
<path fill="none" stroke="#63b8ff" d="M318.39,-56.58C323.46,-58.88 328.53,-61.56 333,-64.62 352.18,-77.79 349.51,-89.93 369,-102.62 370.78,-103.79 372.65,-104.89 374.58,-105.92"/>
<polygon fill="#63b8ff" stroke="#63b8ff" points="372.61,-108.86 383.15,-109.95 375.59,-102.53 372.61,-108.86"/>
</a>
</g>
</g>
<!-- Node16&#45;&gt;Node8 -->
<g id="edge26_Node000016_Node000008" class="edge">
<title>Node16&#45;&gt;Node8</title>
<g id="a_edge26_Node000016_Node000008"><a xlink:title=" ">
<path fill="none" stroke="#63b8ff" d="M325.19,-46.62C340.09,-46.62 357.57,-46.62 373.4,-46.62"/>
<polygon fill="#63b8ff" stroke="#63b8ff" points="373.07,-50.13 383.07,-46.63 373.07,-43.13 373.07,-50.13"/>
</a>
</g>
</g>
<!-- Node16&#45;&gt;Node11 -->
<g id="edge27_Node000016_Node000011" class="edge">
<title>Node16&#45;&gt;Node11</title>
<g id="a_edge27_Node000016_Node000011"><a xlink:title=" ">
<path fill="none" stroke="#63b8ff" d="M324.84,-56.74C343.18,-61.94 365.48,-68.28 383.83,-73.49"/>
<polygon fill="#63b8ff" stroke="#63b8ff" points="382.64,-76.79 393.22,-76.16 384.56,-70.06 382.64,-76.79"/>
</a>
</g>
</g>
<!-- Node17&#45;&gt;Node6 -->
<g id="edge32_Node000017_Node000006" class="edge">
<title>Node17&#45;&gt;Node6</title>
<g id="a_edge32_Node000017_Node000006"><a xlink:title=" ">
<path fill="none" stroke="#63b8ff" d="M321.51,-19.64C325.68,-21.83 329.66,-24.47 333,-27.62 359.88,-53.01 341.52,-77.89 369,-102.62 369.77,-103.32 370.57,-103.99 371.4,-104.63"/>
<polygon fill="#63b8ff" stroke="#63b8ff" points="369.37,-107.49 379.72,-109.79 373.07,-101.55 369.37,-107.49"/>
</a>
</g>
</g>
<!-- Node17&#45;&gt;Node8 -->
<g id="edge30_Node000017_Node000008" class="edge">
<title>Node17&#45;&gt;Node8</title>
<g id="a_edge30_Node000017_Node000008"><a xlink:title=" ">
<path fill="none" stroke="#63b8ff" d="M324.84,-19.74C339.9,-24.01 357.62,-29.05 373.64,-33.6"/>
<polygon fill="#63b8ff" stroke="#63b8ff" points="372.37,-36.88 382.95,-36.24 374.28,-30.14 372.37,-36.88"/>
</a>
</g>
</g>
<!-- Node17&#45;&gt;Node11 -->
<g id="edge31_Node000017_Node000011" class="edge">
<title>Node17&#45;&gt;Node11</title>
<g id="a_edge31_Node000017_Node000011"><a xlink:title=" ">
<path fill="none" stroke="#63b8ff" d="M318.39,-19.58C323.46,-21.88 328.53,-24.56 333,-27.62 352.18,-40.79 349.51,-52.93 369,-65.62 373.58,-68.61 378.73,-71.18 383.93,-73.35"/>
<polygon fill="#63b8ff" stroke="#63b8ff" points="382.52,-76.56 393.11,-76.77 384.95,-70 382.52,-76.56"/>
</a>
</g>
</g>
</g>
</svg>
