<?xml version="1.0" encoding="UTF-8" standalone="no"?>
<!DOCTYPE svg PUBLIC "-//W3C//DTD SVG 1.1//EN"
 "http://www.w3.org/Graphics/SVG/1.1/DTD/svg11.dtd">
<!-- Generated by graphviz version 9.0.0 (20230911.1827)
 -->
<!-- Title: parse_light Pages: 1 -->
<svg width="682pt" height="875pt"
 viewBox="0.00 0.00 681.50 875.25" xmlns="http://www.w3.org/2000/svg" xmlns:xlink="http://www.w3.org/1999/xlink">
<g id="graph0" class="graph" transform="scale(1 1) rotate(0) translate(4 871.25)">
<title>parse_light</title>
<!-- Node1 -->
<g id="Node000001" class="node">
<title>Node1</title>
<g id="a_Node000001"><a xlink:title=" ">
<polygon fill="#999999" stroke="#666666" points="63.25,-753.25 0,-753.25 0,-734 63.25,-734 63.25,-753.25"/>
<text text-anchor="middle" x="31.62" y="-739.75" font-family="Helvetica,sans-Serif" font-size="10.00">parse_light</text>
</a>
</g>
</g>
<!-- Node2 -->
<g id="Node000002" class="node">
<title>Node2</title>
<g id="a_Node000002"><a xlink:href="add__to__dptr_8c.html#a6bacbaa4fafa50abbd756839de2da8de" target="_top" xlink:title=" ">
<polygon fill="white" stroke="#666666" points="181.62,-867.25 119.88,-867.25 119.88,-848 181.62,-848 181.62,-867.25"/>
<text text-anchor="middle" x="150.75" y="-853.75" font-family="Helvetica,sans-Serif" font-size="10.00">add_to_ptr</text>
</a>
</g>
</g>
<!-- Node1&#45;&gt;Node2 -->
<g id="edge1_Node000001_Node000002" class="edge">
<title>Node1&#45;&gt;Node2</title>
<g id="a_edge1_Node000001_Node000002"><a xlink:title=" ">
<path fill="none" stroke="#63b8ff" d="M37.78,-753.52C47.6,-771.54 70.58,-810.03 99.25,-833.62 103.19,-836.87 107.65,-839.8 112.24,-842.39"/>
<polygon fill="#63b8ff" stroke="#63b8ff" points="110.51,-845.44 121.01,-846.87 113.7,-839.21 110.51,-845.44"/>
</a>
</g>
</g>
<!-- Node4 -->
<g id="Node000004" class="node">
<title>Node4</title>
<g id="a_Node000004"><a xlink:href="ft__atod_8c.html#ad55518c88cf22904ac355596269be400" target="_top" xlink:title=" ">
<polygon fill="white" stroke="#666666" points="572,-470.25 526,-470.25 526,-451 572,-451 572,-470.25"/>
<text text-anchor="middle" x="549" y="-456.75" font-family="Helvetica,sans-Serif" font-size="10.00">ft_atod</text>
</a>
</g>
</g>
<!-- Node1&#45;&gt;Node4 -->
<g id="edge3_Node000001_Node000004" class="edge">
<title>Node1&#45;&gt;Node4</title>
<g id="a_edge3_Node000001_Node000004"><a xlink:title=" ">
<path fill="none" stroke="#63b8ff" d="M63.59,-743.96C154.69,-744.32 419.37,-740.6 482.5,-686.62 544.24,-633.84 549.59,-526.71 548.9,-481.5"/>
<polygon fill="#63b8ff" stroke="#63b8ff" points="552.4,-481.67 548.62,-471.77 545.41,-481.87 552.4,-481.67"/>
</a>
</g>
</g>
<!-- Node6 -->
<g id="Node000006" class="node">
<title>Node6</title>
<g id="a_Node000006"><a xlink:href="matrix__create_8c.html#a5291384d37d735f9c3fc33c03d2788ad" target="_top" xlink:title=" ">
<polygon fill="white" stroke="#666666" points="188,-791.25 113.5,-791.25 113.5,-772 188,-772 188,-791.25"/>
<text text-anchor="middle" x="150.75" y="-777.75" font-family="Helvetica,sans-Serif" font-size="10.00">matrix_create</text>
</a>
</g>
</g>
<!-- Node1&#45;&gt;Node6 -->
<g id="edge5_Node000001_Node000006" class="edge">
<title>Node1&#45;&gt;Node6</title>
<g id="a_edge5_Node000001_Node000006"><a xlink:title=" ">
<path fill="none" stroke="#63b8ff" d="M63.7,-753.71C77.31,-758.12 93.48,-763.37 108.11,-768.12"/>
<polygon fill="#63b8ff" stroke="#63b8ff" points="106.9,-771.4 117.49,-771.16 109.06,-764.74 106.9,-771.4"/>
</a>
</g>
</g>
<!-- Node8 -->
<g id="Node000008" class="node">
<title>Node8</title>
<g id="a_Node000008"><a xlink:href="safe__malloc_8c.html#ab8bcda0e59b6f8eab1bfd9f92de50c6c" target="_top" xlink:title=" ">
<polygon fill="white" stroke="#666666" points="325.12,-829.25 256.62,-829.25 256.62,-810 325.12,-810 325.12,-829.25"/>
<text text-anchor="middle" x="290.88" y="-815.75" font-family="Helvetica,sans-Serif" font-size="10.00">safe_malloc</text>
</a>
</g>
</g>
<!-- Node1&#45;&gt;Node8 -->
<g id="edge69_Node000001_Node000008" class="edge">
<title>Node1&#45;&gt;Node8</title>
<g id="a_edge69_Node000001_Node000008"><a xlink:title=" ">
<path fill="none" stroke="#63b8ff" d="M40.47,-753.31C51.85,-766.58 74.33,-789.99 99.25,-800.62 146.06,-820.61 205.02,-823.49 244.88,-822.58"/>
<polygon fill="#63b8ff" stroke="#63b8ff" points="244.96,-826.08 254.84,-822.25 244.73,-819.08 244.96,-826.08"/>
</a>
</g>
</g>
<!-- Node10 -->
<g id="Node000010" class="node">
<title>Node10</title>
<g id="a_Node000010"><a xlink:href="parse__utils_8c.html#a4b09ddfa5e35fa7e45323421232772ce" target="_top" xlink:title=" ">
<polygon fill="white" stroke="#666666" points="202.25,-658.25 99.25,-658.25 99.25,-639 202.25,-639 202.25,-658.25"/>
<text text-anchor="middle" x="150.75" y="-644.75" font-family="Helvetica,sans-Serif" font-size="10.00">parse_assign_coord</text>
</a>
</g>
</g>
<!-- Node1&#45;&gt;Node10 -->
<g id="edge9_Node000001_Node000010" class="edge">
<title>Node1&#45;&gt;Node10</title>
<g id="a_edge9_Node000001_Node000010"><a xlink:title=" ">
<path fill="none" stroke="#63b8ff" d="M44.72,-733.82C64.53,-717.75 104.15,-685.61 128.67,-665.73"/>
<polygon fill="#63b8ff" stroke="#63b8ff" points="130.81,-668.49 136.37,-659.48 126.4,-663.06 130.81,-668.49"/>
</a>
</g>
</g>
<!-- Node21 -->
<g id="Node000021" class="node">
<title>Node21</title>
<g id="a_Node000021"><a xlink:href="parse__utils_8c.html#aa353b138267370a075b03b29a2306573" target="_top" xlink:title=" ">
<polygon fill="white" stroke="#666666" points="198.5,-477.25 103,-477.25 103,-458 198.5,-458 198.5,-477.25"/>
<text text-anchor="middle" x="150.75" y="-463.75" font-family="Helvetica,sans-Serif" font-size="10.00">parse_assign_trgb</text>
</a>
</g>
</g>
<!-- Node1&#45;&gt;Node21 -->
<g id="edge26_Node000001_Node000021" class="edge">
<title>Node1&#45;&gt;Node21</title>
<g id="a_edge26_Node000001_Node000021"><a xlink:title=" ">
<path fill="none" stroke="#63b8ff" d="M36.79,-733.8C53.73,-693.9 117.57,-543.46 141.03,-488.17"/>
<polygon fill="#63b8ff" stroke="#63b8ff" points="144.23,-489.58 144.92,-479.01 137.79,-486.85 144.23,-489.58"/>
</a>
</g>
</g>
<!-- Node29 -->
<g id="Node000029" class="node">
<title>Node29</title>
<g id="a_Node000029"><a xlink:href="parse__utils_8c.html#a3a792671ccd6560d6c42352319889a0c" target="_top" xlink:title=" ">
<polygon fill="white" stroke="#666666" points="199.25,-204.25 102.25,-204.25 102.25,-185 199.25,-185 199.25,-204.25"/>
<text text-anchor="middle" x="150.75" y="-190.75" font-family="Helvetica,sans-Serif" font-size="10.00">parse_validate_obj</text>
</a>
</g>
</g>
<!-- Node1&#45;&gt;Node29 -->
<g id="edge47_Node000001_Node000029" class="edge">
<title>Node1&#45;&gt;Node29</title>
<g id="a_edge47_Node000001_Node000029"><a xlink:title=" ">
<path fill="none" stroke="#63b8ff" d="M34.76,-733.63C48.6,-668.74 125.76,-307.08 145.27,-215.63"/>
<polygon fill="#63b8ff" stroke="#63b8ff" points="148.69,-216.37 147.35,-205.86 141.84,-214.91 148.69,-216.37"/>
</a>
</g>
</g>
<!-- Node3 -->
<g id="Node000003" class="node">
<title>Node3</title>
<g id="a_Node000003"><a xlink:href="matrix__free_8c.html#ab28d26aa6d34d5c2a3b83b9ee519fec6" target="_top" xlink:title=" ">
<polygon fill="white" stroke="#666666" points="322.88,-867.25 258.88,-867.25 258.88,-848 322.88,-848 322.88,-867.25"/>
<text text-anchor="middle" x="290.88" y="-853.75" font-family="Helvetica,sans-Serif" font-size="10.00">free_matrix</text>
</a>
</g>
</g>
<!-- Node2&#45;&gt;Node3 -->
<g id="edge2_Node000002_Node000003" class="edge">
<title>Node2&#45;&gt;Node3</title>
<g id="a_edge2_Node000002_Node000003"><a xlink:title=" ">
<path fill="none" stroke="#63b8ff" d="M182.06,-857.62C201.23,-857.62 226.27,-857.62 247.4,-857.62"/>
<polygon fill="#63b8ff" stroke="#63b8ff" points="247.16,-861.13 257.16,-857.63 247.16,-854.13 247.16,-861.13"/>
</a>
</g>
</g>
<!-- Node5 -->
<g id="Node000005" class="node">
<title>Node5</title>
<g id="a_Node000005"><a xlink:href="LIBFT_2ft__isdigit_8c.html#a2cf15b8a1a277d1e2ce3654101a2003d" target="_top" xlink:title=" ">
<polygon fill="white" stroke="#666666" points="670.88,-206.25 618.12,-206.25 618.12,-187 670.88,-187 670.88,-206.25"/>
<text text-anchor="middle" x="644.5" y="-192.75" font-family="Helvetica,sans-Serif" font-size="10.00">ft_isdigit</text>
</a>
</g>
</g>
<!-- Node4&#45;&gt;Node5 -->
<g id="edge4_Node000004_Node000005" class="edge">
<title>Node4&#45;&gt;Node5</title>
<g id="a_edge4_Node000004_Node000005"><a xlink:title=" ">
<path fill="none" stroke="#63b8ff" d="M553.55,-450.6C567.29,-411.8 617.14,-271.05 636.11,-217.5"/>
<polygon fill="#63b8ff" stroke="#63b8ff" points="639.4,-218.68 639.44,-208.09 632.8,-216.35 639.4,-218.68"/>
</a>
</g>
</g>
<!-- Node7 -->
<g id="Node000007" class="node">
<title>Node7</title>
<g id="a_Node000007"><a xlink:href="free__dptr_8c.html#aaa705b6d12fb1a9a15e6103879ec0ea0" target="_top" xlink:title=" ">
<polygon fill="white" stroke="#666666" points="458.12,-620.25 403.88,-620.25 403.88,-601 458.12,-601 458.12,-620.25"/>
<text text-anchor="middle" x="431" y="-606.75" font-family="Helvetica,sans-Serif" font-size="10.00">free_dptr</text>
</a>
</g>
</g>
<!-- Node6&#45;&gt;Node7 -->
<g id="edge6_Node000006_Node000007" class="edge">
<title>Node6&#45;&gt;Node7</title>
<g id="a_edge6_Node000006_Node000007"><a xlink:title=" ">
<path fill="none" stroke="#63b8ff" d="M168.76,-771.51C202.31,-751.51 279.36,-705.41 343.5,-665.62 364.36,-652.69 387.85,-637.72 405.08,-626.67"/>
<polygon fill="#63b8ff" stroke="#63b8ff" points="406.64,-629.83 413.17,-621.48 402.86,-623.94 406.64,-629.83"/>
</a>
</g>
</g>
<!-- Node6&#45;&gt;Node8 -->
<g id="edge7_Node000006_Node000008" class="edge">
<title>Node6&#45;&gt;Node8</title>
<g id="a_edge7_Node000006_Node000008"><a xlink:title=" ">
<path fill="none" stroke="#63b8ff" d="M188.4,-791.71C205.88,-796.52 226.93,-802.31 245.32,-807.37"/>
<polygon fill="#63b8ff" stroke="#63b8ff" points="244.34,-810.73 254.91,-810.01 246.19,-803.98 244.34,-810.73"/>
</a>
</g>
</g>
<!-- Node9 -->
<g id="Node000009" class="node">
<title>Node9</title>
<g id="a_Node000009"><a xlink:href="LIBFT_2ft__bzero_8c.html#a5937ab0d08e31d0e3e4a16ec71e293a1" target="_top" xlink:title=" ">
<polygon fill="white" stroke="#666666" points="456.25,-829.25 405.75,-829.25 405.75,-810 456.25,-810 456.25,-829.25"/>
<text text-anchor="middle" x="431" y="-815.75" font-family="Helvetica,sans-Serif" font-size="10.00">ft_bzero</text>
</a>
</g>
</g>
<!-- Node8&#45;&gt;Node9 -->
<g id="edge8_Node000008_Node000009" class="edge">
<title>Node8&#45;&gt;Node9</title>
<g id="a_edge8_Node000008_Node000009"><a xlink:title=" ">
<path fill="none" stroke="#63b8ff" d="M325.31,-819.62C346.1,-819.62 372.81,-819.62 394.05,-819.62"/>
<polygon fill="#63b8ff" stroke="#63b8ff" points="394.02,-823.13 404.02,-819.63 394.02,-816.13 394.02,-823.13"/>
</a>
</g>
</g>
<!-- Node10&#45;&gt;Node7 -->
<g id="edge12_Node000010_Node000007" class="edge">
<title>Node10&#45;&gt;Node7</title>
<g id="a_edge12_Node000010_Node000007"><a xlink:title=" ">
<path fill="none" stroke="#63b8ff" d="M202.4,-654.25C241.4,-657.24 296.42,-658.51 343.5,-648.62 364.31,-644.26 386.22,-634.57 402.78,-626.07"/>
<polygon fill="#63b8ff" stroke="#63b8ff" points="404.31,-629.22 411.49,-621.44 401.02,-623.04 404.31,-629.22"/>
</a>
</g>
</g>
<!-- Node11 -->
<g id="Node000011" class="node">
<title>Node11</title>
<g id="a_Node000011"><a xlink:href="parse__assign__coord__utils_8c.html#acdc77317cdae9d7fca002fad8c2960a6" target="_top" xlink:title=" ">
<polygon fill="white" stroke="#666666" points="481,-677.25 381,-677.25 381,-658 481,-658 481,-677.25"/>
<text text-anchor="middle" x="431" y="-663.75" font-family="Helvetica,sans-Serif" font-size="10.00">assign_coordinates</text>
</a>
</g>
</g>
<!-- Node10&#45;&gt;Node11 -->
<g id="edge10_Node000010_Node000011" class="edge">
<title>Node10&#45;&gt;Node11</title>
<g id="a_edge10_Node000010_Node000011"><a xlink:title=" ">
<path fill="none" stroke="#63b8ff" d="M171.76,-658.67C188.92,-666.68 214.54,-677.26 238.25,-681.62 282.62,-689.8 333.58,-685.44 371.82,-679.5"/>
<polygon fill="#63b8ff" stroke="#63b8ff" points="371.95,-683.03 381.25,-677.95 370.82,-676.12 371.95,-683.03"/>
</a>
</g>
</g>
<!-- Node12 -->
<g id="Node000012" class="node">
<title>Node12</title>
<g id="a_Node000012"><a xlink:href="parse__assign__coord__utils_8c.html#af7ba7415e224810f4f203071b320ed6a" target="_top" xlink:title=" ">
<polygon fill="white" stroke="#666666" points="335.62,-639.25 246.12,-639.25 246.12,-620 335.62,-620 335.62,-639.25"/>
<text text-anchor="middle" x="290.88" y="-625.75" font-family="Helvetica,sans-Serif" font-size="10.00">split_coordinates</text>
</a>
</g>
</g>
<!-- Node10&#45;&gt;Node12 -->
<g id="edge13_Node000010_Node000012" class="edge">
<title>Node10&#45;&gt;Node12</title>
<g id="a_edge13_Node000010_Node000012"><a xlink:title=" ">
<path fill="none" stroke="#63b8ff" d="M202.4,-641.66C212.92,-640.21 224.05,-638.68 234.72,-637.21"/>
<polygon fill="#63b8ff" stroke="#63b8ff" points="235.13,-640.69 244.56,-635.86 234.18,-633.75 235.13,-640.69"/>
</a>
</g>
</g>
<!-- Node14 -->
<g id="Node000014" class="node">
<title>Node14</title>
<g id="a_Node000014"><a xlink:href="parse__assign__coord__utils_8c.html#a0f249ab97644690110e43ae95f50fec8" target="_top" xlink:title=" ">
<polygon fill="white" stroke="#666666" points="340.88,-402.88 240.88,-402.88 240.88,-372.38 340.88,-372.38 340.88,-402.88"/>
<text text-anchor="start" x="248.88" y="-389.38" font-family="Helvetica,sans-Serif" font-size="10.00">validate_coordinate</text>
<text text-anchor="middle" x="290.88" y="-378.12" font-family="Helvetica,sans-Serif" font-size="10.00">_values</text>
</a>
</g>
</g>
<!-- Node10&#45;&gt;Node14 -->
<g id="edge15_Node000010_Node000014" class="edge">
<title>Node10&#45;&gt;Node14</title>
<g id="a_edge15_Node000010_Node000014"><a xlink:title=" ">
<path fill="none" stroke="#63b8ff" d="M154.87,-638.72C168.36,-596.1 221.73,-429.61 238.25,-411.62 238.61,-411.23 238.98,-410.85 239.35,-410.47"/>
<polygon fill="#63b8ff" stroke="#63b8ff" points="241.4,-413.31 246.93,-404.28 236.97,-407.89 241.4,-413.31"/>
</a>
</g>
</g>
<!-- Node17 -->
<g id="Node000017" class="node">
<title>Node17</title>
<g id="a_Node000017"><a xlink:href="parse__assign__coord__utils_8c.html#a71d2eb8bad13d888dca97ba273b97aec" target="_top" xlink:title=" ">
<polygon fill="white" stroke="#666666" points="343.5,-56.25 238.25,-56.25 238.25,-37 343.5,-37 343.5,-56.25"/>
<text text-anchor="middle" x="290.88" y="-42.75" font-family="Helvetica,sans-Serif" font-size="10.00">validate_input_string</text>
</a>
</g>
</g>
<!-- Node10&#45;&gt;Node17 -->
<g id="edge19_Node000010_Node000017" class="edge">
<title>Node10&#45;&gt;Node17</title>
<g id="a_edge19_Node000010_Node000017"><a xlink:title=" ">
<path fill="none" stroke="#63b8ff" d="M155.72,-638.59C165.48,-613.46 190.69,-545.6 202.25,-486.62 220.36,-394.27 180.53,-138.97 238.25,-64.62 238.33,-64.53 238.4,-64.43 238.48,-64.33"/>
<polygon fill="#63b8ff" stroke="#63b8ff" points="240.78,-66.97 245.95,-57.73 236.14,-61.73 240.78,-66.97"/>
</a>
</g>
</g>
<!-- Node11&#45;&gt;Node4 -->
<g id="edge11_Node000011_Node000004" class="edge">
<title>Node11&#45;&gt;Node4</title>
<g id="a_edge11_Node000011_Node000004"><a xlink:title=" ">
<path fill="none" stroke="#63b8ff" d="M449.92,-657.64C460.61,-650.92 473.76,-641.17 482.5,-629.62 517.67,-583.14 536.24,-515.43 543.82,-481.56"/>
<polygon fill="#63b8ff" stroke="#63b8ff" points="547.15,-482.71 545.81,-472.2 540.3,-481.25 547.15,-482.71"/>
</a>
</g>
</g>
<!-- Node13 -->
<g id="Node000013" class="node">
<title>Node13</title>
<g id="a_Node000013"><a xlink:href="LIBFT_2ft__split_8c.html#aa65c9de65051c8c589286cf133c4a1f4" target="_top" xlink:title=" ">
<polygon fill="white" stroke="#666666" points="453.62,-570.25 408.38,-570.25 408.38,-551 453.62,-551 453.62,-570.25"/>
<text text-anchor="middle" x="431" y="-556.75" font-family="Helvetica,sans-Serif" font-size="10.00">ft_split</text>
</a>
</g>
</g>
<!-- Node12&#45;&gt;Node13 -->
<g id="edge14_Node000012_Node000013" class="edge">
<title>Node12&#45;&gt;Node13</title>
<g id="a_edge14_Node000012_Node000013"><a xlink:title=" ">
<path fill="none" stroke="#63b8ff" d="M311.96,-619.59C335.08,-608.04 373.28,-588.96 399.95,-575.64"/>
<polygon fill="#63b8ff" stroke="#63b8ff" points="401.16,-578.95 408.54,-571.35 398.03,-572.68 401.16,-578.95"/>
</a>
</g>
</g>
<!-- Node15 -->
<g id="Node000015" class="node">
<title>Node15</title>
<g id="a_Node000015"><a xlink:href="check__range_8c.html#a31d1b2f2b0c6260cc272247fb1e281e4" target="_top" xlink:title=" ">
<polygon fill="white" stroke="#666666" points="466.75,-241.25 395.25,-241.25 395.25,-222 466.75,-222 466.75,-241.25"/>
<text text-anchor="middle" x="431" y="-227.75" font-family="Helvetica,sans-Serif" font-size="10.00">check_range</text>
</a>
</g>
</g>
<!-- Node14&#45;&gt;Node15 -->
<g id="edge16_Node000014_Node000015" class="edge">
<title>Node14&#45;&gt;Node15</title>
<g id="a_edge16_Node000014_Node000015"><a xlink:title=" ">
<path fill="none" stroke="#63b8ff" d="M301.08,-372.2C315.77,-348.35 346.26,-301.78 379.5,-268.62 387.02,-261.12 396.16,-253.95 404.59,-247.96"/>
<polygon fill="#63b8ff" stroke="#63b8ff" points="406.49,-250.9 412.76,-242.37 402.53,-245.12 406.49,-250.9"/>
</a>
</g>
</g>
<!-- Node16 -->
<g id="Node000016" class="node">
<title>Node16</title>
<g id="a_Node000016"><a xlink:href="parse__utils_8c.html#a14e4a06978d8374fc830989e94b08140" target="_top" xlink:title=" ">
<polygon fill="white" stroke="#666666" points="482.5,-297.25 379.5,-297.25 379.5,-278 482.5,-278 482.5,-297.25"/>
<text text-anchor="middle" x="431" y="-283.75" font-family="Helvetica,sans-Serif" font-size="10.00">parse_check_length</text>
</a>
</g>
</g>
<!-- Node14&#45;&gt;Node16 -->
<g id="edge18_Node000014_Node000016" class="edge">
<title>Node14&#45;&gt;Node16</title>
<g id="a_edge18_Node000014_Node000016"><a xlink:title=" ">
<path fill="none" stroke="#63b8ff" d="M321.9,-371.93C329.12,-367.84 336.71,-363.27 343.5,-358.62 367.73,-342.07 393.47,-320.33 410.52,-305.3"/>
<polygon fill="#63b8ff" stroke="#63b8ff" points="412.76,-307.98 417.89,-298.71 408.1,-302.76 412.76,-307.98"/>
</a>
</g>
</g>
<!-- Node15&#45;&gt;Node4 -->
<g id="edge17_Node000015_Node000004" class="edge">
<title>Node15&#45;&gt;Node4</title>
<g id="a_edge17_Node000015_Node000004"><a xlink:title=" ">
<path fill="none" stroke="#63b8ff" d="M451.07,-241.72C461.64,-248.16 474.26,-257.41 482.5,-268.62 522.22,-322.69 539.09,-402.59 545.13,-439.95"/>
<polygon fill="#63b8ff" stroke="#63b8ff" points="541.6,-440.03 546.55,-449.4 548.52,-438.99 541.6,-440.03"/>
</a>
</g>
</g>
<!-- Node18 -->
<g id="Node000018" class="node">
<title>Node18</title>
<g id="a_Node000018"><a xlink:href="ft__strval_8c.html#adc216c7cf83a710b028bd1501e3d4e6b" target="_top" xlink:title="Checks if a given string consists of valid characters.">
<polygon fill="white" stroke="#666666" points="456.62,-149.25 405.38,-149.25 405.38,-130 456.62,-130 456.62,-149.25"/>
<text text-anchor="middle" x="431" y="-135.75" font-family="Helvetica,sans-Serif" font-size="10.00">ft_strval</text>
</a>
</g>
</g>
<!-- Node17&#45;&gt;Node18 -->
<g id="edge20_Node000017_Node000018" class="edge">
<title>Node17&#45;&gt;Node18</title>
<g id="a_edge20_Node000017_Node000018"><a xlink:title=" ">
<path fill="none" stroke="#63b8ff" d="M326.56,-56.68C332.39,-58.93 338.24,-61.58 343.5,-64.62 370.45,-80.23 396.82,-104.83 413.21,-121.57"/>
<polygon fill="#63b8ff" stroke="#63b8ff" points="410.34,-123.62 419.78,-128.42 415.39,-118.78 410.34,-123.62"/>
</a>
</g>
</g>
<!-- Node18&#45;&gt;Node5 -->
<g id="edge25_Node000018_Node000005" class="edge">
<title>Node18&#45;&gt;Node5</title>
<g id="a_edge25_Node000018_Node000005"><a xlink:title=" ">
<path fill="none" stroke="#63b8ff" d="M451.04,-149.73C468.21,-158.42 494.4,-170.63 518.5,-177.62 547.44,-186.02 581.28,-190.88 606.45,-193.57"/>
<polygon fill="#63b8ff" stroke="#63b8ff" points="605.89,-197.03 616.19,-194.55 606.59,-190.07 605.89,-197.03"/>
</a>
</g>
</g>
<!-- Node19 -->
<g id="Node000019" class="node">
<title>Node19</title>
<g id="a_Node000019"><a xlink:href="LIBFT_2ft__isalnum_8c.html#a9c2c3821ea43ebdf97de07b123503f8b" target="_top" xlink:title=" ">
<polygon fill="white" stroke="#666666" points="579.5,-168.25 518.5,-168.25 518.5,-149 579.5,-149 579.5,-168.25"/>
<text text-anchor="middle" x="549" y="-154.75" font-family="Helvetica,sans-Serif" font-size="10.00">ft_isalnum</text>
</a>
</g>
</g>
<!-- Node18&#45;&gt;Node19 -->
<g id="edge21_Node000018_Node000019" class="edge">
<title>Node18&#45;&gt;Node19</title>
<g id="a_edge21_Node000018_Node000019"><a xlink:title=" ">
<path fill="none" stroke="#63b8ff" d="M456.88,-143.7C471.49,-146.09 490.31,-149.18 507.04,-151.92"/>
<polygon fill="#63b8ff" stroke="#63b8ff" points="506.29,-155.34 516.73,-153.5 507.43,-148.43 506.29,-155.34"/>
</a>
</g>
</g>
<!-- Node20 -->
<g id="Node000020" class="node">
<title>Node20</title>
<g id="a_Node000020"><a xlink:href="LIBFT_2ft__isalpha_8c.html#ac283963beaa3b8c7d09b78851cda297e" target="_top" xlink:title=" ">
<polygon fill="white" stroke="#666666" points="673.5,-149.25 615.5,-149.25 615.5,-130 673.5,-130 673.5,-149.25"/>
<text text-anchor="middle" x="644.5" y="-135.75" font-family="Helvetica,sans-Serif" font-size="10.00">ft_isalpha</text>
</a>
</g>
</g>
<!-- Node18&#45;&gt;Node20 -->
<g id="edge24_Node000018_Node000020" class="edge">
<title>Node18&#45;&gt;Node20</title>
<g id="a_edge24_Node000018_Node000020"><a xlink:title=" ">
<path fill="none" stroke="#63b8ff" d="M457.09,-139.62C493.3,-139.62 560.56,-139.62 603.62,-139.62"/>
<polygon fill="#63b8ff" stroke="#63b8ff" points="603.56,-143.13 613.56,-139.63 603.56,-136.13 603.56,-143.13"/>
</a>
</g>
</g>
<!-- Node19&#45;&gt;Node5 -->
<g id="edge23_Node000019_Node000005" class="edge">
<title>Node19&#45;&gt;Node5</title>
<g id="a_edge23_Node000019_Node000005"><a xlink:title=" ">
<path fill="none" stroke="#63b8ff" d="M574.57,-168.61C584.9,-172.81 597.11,-177.77 608.37,-182.35"/>
<polygon fill="#63b8ff" stroke="#63b8ff" points="606.79,-185.48 617.37,-186.01 609.42,-179 606.79,-185.48"/>
</a>
</g>
</g>
<!-- Node19&#45;&gt;Node20 -->
<g id="edge22_Node000019_Node000020" class="edge">
<title>Node19&#45;&gt;Node20</title>
<g id="a_edge22_Node000019_Node000020"><a xlink:title=" ">
<path fill="none" stroke="#63b8ff" d="M579.84,-152.56C587.54,-151 595.95,-149.29 604.06,-147.64"/>
<polygon fill="#63b8ff" stroke="#63b8ff" points="604.63,-151.1 613.73,-145.67 603.24,-144.24 604.63,-151.1"/>
</a>
</g>
</g>
<!-- Node21&#45;&gt;Node7 -->
<g id="edge32_Node000021_Node000007" class="edge">
<title>Node21&#45;&gt;Node7</title>
<g id="a_edge32_Node000021_Node000007"><a xlink:title=" ">
<path fill="none" stroke="#63b8ff" d="M156.88,-477.66C168.32,-498.94 198.11,-548.64 238.25,-572.62 286.11,-601.23 351.51,-608.77 392.23,-610.5"/>
<polygon fill="#63b8ff" stroke="#63b8ff" points="391.9,-613.99 402.01,-610.81 392.13,-607 391.9,-613.99"/>
</a>
</g>
</g>
<!-- Node21&#45;&gt;Node16 -->
<g id="edge33_Node000021_Node000016" class="edge">
<title>Node21&#45;&gt;Node16</title>
<g id="a_edge33_Node000021_Node000016"><a xlink:title=" ">
<path fill="none" stroke="#63b8ff" d="M157.64,-457.62C170.08,-437.25 200.98,-390.64 238.25,-363.62 280.39,-333.08 336.48,-312.72 377.11,-300.83"/>
<polygon fill="#63b8ff" stroke="#63b8ff" points="378.01,-304.21 386.67,-298.11 376.1,-297.48 378.01,-304.21"/>
</a>
</g>
</g>
<!-- Node22 -->
<g id="Node000022" class="node">
<title>Node22</title>
<g id="a_Node000022"><a xlink:href="parse__validate__assign__rgb__utils_8c.html#accb5a2d4b08a89039765ec742b587b41" target="_top" xlink:title=" ">
<polygon fill="white" stroke="#666666" points="339.38,-477.25 242.38,-477.25 242.38,-458 339.38,-458 339.38,-477.25"/>
<text text-anchor="middle" x="290.88" y="-463.75" font-family="Helvetica,sans-Serif" font-size="10.00">assign_rgb_values</text>
</a>
</g>
</g>
<!-- Node21&#45;&gt;Node22 -->
<g id="edge27_Node000021_Node000022" class="edge">
<title>Node21&#45;&gt;Node22</title>
<g id="a_edge27_Node000021_Node000022"><a xlink:title=" ">
<path fill="none" stroke="#63b8ff" d="M198.9,-467.62C209.11,-467.62 220.04,-467.62 230.66,-467.62"/>
<polygon fill="#63b8ff" stroke="#63b8ff" points="230.49,-471.13 240.49,-467.63 230.49,-464.13 230.49,-471.13"/>
</a>
</g>
</g>
<!-- Node23 -->
<g id="Node000023" class="node">
<title>Node23</title>
<g id="a_Node000023"><a xlink:href="colour_8c.html#a06b140860c7d645321abb45ead50e04b" target="_top" xlink:title=" ">
<polygon fill="white" stroke="#666666" points="452.12,-477.25 409.88,-477.25 409.88,-458 452.12,-458 452.12,-477.25"/>
<text text-anchor="middle" x="431" y="-463.75" font-family="Helvetica,sans-Serif" font-size="10.00">colour</text>
</a>
</g>
</g>
<!-- Node21&#45;&gt;Node23 -->
<g id="edge31_Node000021_Node000023" class="edge">
<title>Node21&#45;&gt;Node23</title>
<g id="a_edge31_Node000021_Node000023"><a xlink:title=" ">
<path fill="none" stroke="#63b8ff" d="M189.35,-477.74C204.43,-481.31 222.05,-484.87 238.25,-486.62 284.75,-491.67 297,-491.67 343.5,-486.62 361.95,-484.62 382.23,-480.28 398.52,-476.26"/>
<polygon fill="#63b8ff" stroke="#63b8ff" points="399.3,-479.67 408.12,-473.8 397.56,-472.89 399.3,-479.67"/>
</a>
</g>
</g>
<!-- Node25 -->
<g id="Node000025" class="node">
<title>Node25</title>
<g id="a_Node000025"><a xlink:href="parse__validate__assign__rgb__utils_8c.html#ab71c9a28c124cbbec7afa314c3595d68" target="_top" xlink:title=" ">
<polygon fill="white" stroke="#666666" points="341.25,-440.25 240.5,-440.25 240.5,-421 341.25,-421 341.25,-440.25"/>
<text text-anchor="middle" x="290.88" y="-426.75" font-family="Helvetica,sans-Serif" font-size="10.00">parse_transparency</text>
</a>
</g>
</g>
<!-- Node21&#45;&gt;Node25 -->
<g id="edge34_Node000021_Node000025" class="edge">
<title>Node21&#45;&gt;Node25</title>
<g id="a_edge34_Node000021_Node000025"><a xlink:title=" ">
<path fill="none" stroke="#63b8ff" d="M189.49,-457.51C205.48,-453.23 224.31,-448.19 241.31,-443.63"/>
<polygon fill="#63b8ff" stroke="#63b8ff" points="241.96,-447.08 250.72,-441.11 240.15,-440.32 241.96,-447.08"/>
</a>
</g>
</g>
<!-- Node26 -->
<g id="Node000026" class="node">
<title>Node26</title>
<g id="a_Node000026"><a xlink:href="parse__validate__assign__rgb__utils_8c.html#a38dd4510ea4653d36b16185526f288ab" target="_top" xlink:title=" ">
<polygon fill="white" stroke="#666666" points="337.88,-563.88 243.88,-563.88 243.88,-533.38 337.88,-533.38 337.88,-563.88"/>
<text text-anchor="start" x="251.88" y="-550.38" font-family="Helvetica,sans-Serif" font-size="10.00">split_and_validate</text>
<text text-anchor="middle" x="290.88" y="-539.12" font-family="Helvetica,sans-Serif" font-size="10.00">_components</text>
</a>
</g>
</g>
<!-- Node21&#45;&gt;Node26 -->
<g id="edge39_Node000021_Node000026" class="edge">
<title>Node21&#45;&gt;Node26</title>
<g id="a_edge39_Node000021_Node000026"><a xlink:title=" ">
<path fill="none" stroke="#63b8ff" d="M168.25,-477.74C185.59,-488.33 213.71,-505.36 238.25,-519.62 242.62,-522.16 247.21,-524.8 251.78,-527.39"/>
<polygon fill="#63b8ff" stroke="#63b8ff" points="249.91,-530.36 260.34,-532.23 253.35,-524.26 249.91,-530.36"/>
</a>
</g>
</g>
<!-- Node27 -->
<g id="Node000027" class="node">
<title>Node27</title>
<g id="a_Node000027"><a xlink:href="parse__validate__assign__rgb__utils_8c.html#a00d4a3c3a01ac083aacdf897546cc68c" target="_top" xlink:title=" ">
<polygon fill="white" stroke="#666666" points="342.38,-278.25 239.38,-278.25 239.38,-259 342.38,-259 342.38,-278.25"/>
<text text-anchor="middle" x="290.88" y="-264.75" font-family="Helvetica,sans-Serif" font-size="10.00">validate_rgb_ranges</text>
</a>
</g>
</g>
<!-- Node21&#45;&gt;Node27 -->
<g id="edge43_Node000021_Node000027" class="edge">
<title>Node21&#45;&gt;Node27</title>
<g id="a_edge43_Node000021_Node000027"><a xlink:title=" ">
<path fill="none" stroke="#63b8ff" d="M157.41,-457.7C170.64,-434.73 205,-376.35 238.25,-330.62 249.41,-315.28 263.22,-298.81 273.74,-286.71"/>
<polygon fill="#63b8ff" stroke="#63b8ff" points="276.08,-289.35 280.05,-279.53 270.82,-284.73 276.08,-289.35"/>
</a>
</g>
</g>
<!-- Node28 -->
<g id="Node000028" class="node">
<title>Node28</title>
<g id="a_Node000028"><a xlink:href="parse__validate__assign__rgb__utils_8c.html#a61e41bb10d4cefab87e662ece1e0b5ca" target="_top" xlink:title=" ">
<polygon fill="white" stroke="#666666" points="339.75,-19.25 242,-19.25 242,0 339.75,0 339.75,-19.25"/>
<text text-anchor="middle" x="290.88" y="-5.75" font-family="Helvetica,sans-Serif" font-size="10.00">validate_rgb_string</text>
</a>
</g>
</g>
<!-- Node21&#45;&gt;Node28 -->
<g id="edge45_Node000021_Node000028" class="edge">
<title>Node21&#45;&gt;Node28</title>
<g id="a_edge45_Node000021_Node000028"><a xlink:title=" ">
<path fill="none" stroke="#63b8ff" d="M153.69,-457.94C160.46,-424.23 183.55,-308.92 202.25,-213.62 218.46,-131 183.16,-91.3 238.25,-27.62 238.51,-27.33 238.77,-27.04 239.03,-26.75"/>
<polygon fill="#63b8ff" stroke="#63b8ff" points="241.07,-29.61 246.74,-20.65 236.72,-24.12 241.07,-29.61"/>
</a>
</g>
</g>
<!-- Node22&#45;&gt;Node23 -->
<g id="edge28_Node000022_Node000023" class="edge">
<title>Node22&#45;&gt;Node23</title>
<g id="a_edge28_Node000022_Node000023"><a xlink:title=" ">
<path fill="none" stroke="#63b8ff" d="M339.8,-467.62C359.08,-467.62 380.79,-467.62 398.08,-467.62"/>
<polygon fill="#63b8ff" stroke="#63b8ff" points="398.01,-471.13 408.01,-467.63 398.01,-464.13 398.01,-471.13"/>
</a>
</g>
</g>
<!-- Node24 -->
<g id="Node000024" class="node">
<title>Node24</title>
<g id="a_Node000024"><a xlink:href="ft__atoi_8c.html#afad2ec371b4188602da9a94db687cb16" target="_top" xlink:title=" ">
<polygon fill="white" stroke="#666666" points="452.5,-440.25 409.5,-440.25 409.5,-421 452.5,-421 452.5,-440.25"/>
<text text-anchor="middle" x="431" y="-426.75" font-family="Helvetica,sans-Serif" font-size="10.00">ft_atoi</text>
</a>
</g>
</g>
<!-- Node22&#45;&gt;Node24 -->
<g id="edge30_Node000022_Node000024" class="edge">
<title>Node22&#45;&gt;Node24</title>
<g id="a_edge30_Node000022_Node000024"><a xlink:title=" ">
<path fill="none" stroke="#63b8ff" d="M329.62,-457.51C351.08,-451.76 377.67,-444.64 398.09,-439.17"/>
<polygon fill="#63b8ff" stroke="#63b8ff" points="398.81,-442.6 407.56,-436.64 396.99,-435.84 398.81,-442.6"/>
</a>
</g>
</g>
<!-- Node23&#45;&gt;Node23 -->
<g id="edge29_Node000023_Node000023" class="edge">
<title>Node23&#45;&gt;Node23</title>
<g id="a_edge29_Node000023_Node000023"><a xlink:title=" ">
<path fill="none" stroke="#63b8ff" d="M412.53,-477.54C404.1,-486.15 410.26,-495.25 431,-495.25 442.34,-495.25 449.32,-492.53 451.94,-488.65"/>
<polygon fill="#63b8ff" stroke="#63b8ff" points="455.39,-488.02 449.8,-479.02 448.56,-489.54 455.39,-488.02"/>
</a>
</g>
</g>
<!-- Node25&#45;&gt;Node15 -->
<g id="edge35_Node000025_Node000015" class="edge">
<title>Node25&#45;&gt;Node15</title>
<g id="a_edge35_Node000025_Node000015"><a xlink:title=" ">
<path fill="none" stroke="#63b8ff" d="M331.9,-420.55C336.24,-418.18 340.24,-415.25 343.5,-411.62 387.32,-362.89 342.9,-322.99 379.5,-268.62 384.98,-260.48 392.88,-253.48 400.8,-247.83"/>
<polygon fill="#63b8ff" stroke="#63b8ff" points="402.6,-250.84 409.06,-242.45 398.77,-244.98 402.6,-250.84"/>
</a>
</g>
</g>
<!-- Node25&#45;&gt;Node16 -->
<g id="edge38_Node000025_Node000016" class="edge">
<title>Node25&#45;&gt;Node16</title>
<g id="a_edge38_Node000025_Node000016"><a xlink:title=" ">
<path fill="none" stroke="#63b8ff" d="M328.07,-420.54C333.54,-418.13 338.89,-415.18 343.5,-411.62 380.23,-383.28 407.48,-334.97 420.82,-307.77"/>
<polygon fill="#63b8ff" stroke="#63b8ff" points="423.91,-309.43 425.03,-298.89 417.59,-306.43 423.91,-309.43"/>
</a>
</g>
</g>
<!-- Node25&#45;&gt;Node23 -->
<g id="edge36_Node000025_Node000023" class="edge">
<title>Node25&#45;&gt;Node23</title>
<g id="a_edge36_Node000025_Node000023"><a xlink:title=" ">
<path fill="none" stroke="#63b8ff" d="M329.62,-440.74C351.22,-446.52 378.01,-453.7 398.47,-459.18"/>
<polygon fill="#63b8ff" stroke="#63b8ff" points="397.39,-462.51 407.95,-461.72 399.2,-455.75 397.39,-462.51"/>
</a>
</g>
</g>
<!-- Node25&#45;&gt;Node24 -->
<g id="edge37_Node000025_Node000024" class="edge">
<title>Node25&#45;&gt;Node24</title>
<g id="a_edge37_Node000025_Node000024"><a xlink:title=" ">
<path fill="none" stroke="#63b8ff" d="M341.74,-430.62C360.4,-430.62 381.08,-430.62 397.73,-430.62"/>
<polygon fill="#63b8ff" stroke="#63b8ff" points="397.55,-434.13 407.55,-430.63 397.55,-427.13 397.55,-434.13"/>
</a>
</g>
</g>
<!-- Node26&#45;&gt;Node7 -->
<g id="edge40_Node000026_Node000007" class="edge">
<title>Node26&#45;&gt;Node7</title>
<g id="a_edge40_Node000026_Node000007"><a xlink:title=" ">
<path fill="none" stroke="#63b8ff" d="M326.73,-564.27C348.37,-573.98 376.01,-586.39 397.25,-595.92"/>
<polygon fill="#63b8ff" stroke="#63b8ff" points="395.77,-599.09 406.32,-600 398.63,-592.71 395.77,-599.09"/>
</a>
</g>
</g>
<!-- Node26&#45;&gt;Node13 -->
<g id="edge41_Node000026_Node000013" class="edge">
<title>Node26&#45;&gt;Node13</title>
<g id="a_edge41_Node000026_Node000013"><a xlink:title=" ">
<path fill="none" stroke="#63b8ff" d="M338.25,-552.65C357.36,-554.31 379.06,-556.2 396.57,-557.72"/>
<polygon fill="#63b8ff" stroke="#63b8ff" points="396.16,-561.2 406.42,-558.58 396.76,-554.22 396.16,-561.2"/>
</a>
</g>
</g>
<!-- Node26&#45;&gt;Node16 -->
<g id="edge42_Node000026_Node000016" class="edge">
<title>Node26&#45;&gt;Node16</title>
<g id="a_edge42_Node000026_Node000016"><a xlink:title=" ">
<path fill="none" stroke="#63b8ff" d="M307.03,-533.02C318.12,-521.03 332.99,-503.68 343.5,-486.62 363.14,-454.75 404.43,-352.4 421.91,-308.23"/>
<polygon fill="#63b8ff" stroke="#63b8ff" points="425.11,-309.65 425.53,-299.06 418.6,-307.08 425.11,-309.65"/>
</a>
</g>
</g>
<!-- Node27&#45;&gt;Node15 -->
<g id="edge44_Node000027_Node000015" class="edge">
<title>Node27&#45;&gt;Node15</title>
<g id="a_edge44_Node000027_Node000015"><a xlink:title=" ">
<path fill="none" stroke="#63b8ff" d="M329.62,-258.51C346.47,-254 366.48,-248.64 384.19,-243.9"/>
<polygon fill="#63b8ff" stroke="#63b8ff" points="384.93,-247.32 393.68,-241.35 383.12,-240.56 384.93,-247.32"/>
</a>
</g>
</g>
<!-- Node28&#45;&gt;Node18 -->
<g id="edge46_Node000028_Node000018" class="edge">
<title>Node28&#45;&gt;Node18</title>
<g id="a_edge46_Node000028_Node000018"><a xlink:title=" ">
<path fill="none" stroke="#63b8ff" d="M329.27,-19.73C334.29,-21.91 339.19,-24.52 343.5,-27.62 378.05,-52.52 405.47,-95.05 419.58,-119.92"/>
<polygon fill="#63b8ff" stroke="#63b8ff" points="416.33,-121.29 424.22,-128.36 422.47,-117.91 416.33,-121.29"/>
</a>
</g>
</g>
<!-- Node29&#45;&gt;Node16 -->
<g id="edge48_Node000029_Node000016" class="edge">
<title>Node29&#45;&gt;Node16</title>
<g id="a_edge48_Node000029_Node000016"><a xlink:title=" ">
<path fill="none" stroke="#63b8ff" d="M157.25,-204.71C168.97,-225.02 198.63,-270.37 238.25,-287.62 280.33,-305.96 332.71,-304.54 372.09,-299.33"/>
<polygon fill="#63b8ff" stroke="#63b8ff" points="372.46,-302.81 381.85,-297.91 371.45,-295.89 372.46,-302.81"/>
</a>
</g>
</g>
<!-- Node30 -->
<g id="Node000030" class="node">
<title>Node30</title>
<g id="a_Node000030"><a xlink:href="parse__validate__obj__utils_8c.html#afc0fb046c4f491b01a17dc19ff7e07ac" target="_top" xlink:title=" ">
<polygon fill="white" stroke="#666666" points="335.62,-241.25 246.12,-241.25 246.12,-222 335.62,-222 335.62,-241.25"/>
<text text-anchor="middle" x="290.88" y="-227.75" font-family="Helvetica,sans-Serif" font-size="10.00">validate_ambient</text>
</a>
</g>
</g>
<!-- Node29&#45;&gt;Node30 -->
<g id="edge49_Node000029_Node000030" class="edge">
<title>Node29&#45;&gt;Node30</title>
<g id="a_edge49_Node000029_Node000030"><a xlink:title=" ">
<path fill="none" stroke="#63b8ff" d="M189.49,-204.74C205.48,-209.02 224.31,-214.06 241.31,-218.62"/>
<polygon fill="#63b8ff" stroke="#63b8ff" points="240.15,-221.93 250.72,-221.14 241.96,-215.17 240.15,-221.93"/>
</a>
</g>
</g>
<!-- Node31 -->
<g id="Node000031" class="node">
<title>Node31</title>
<g id="a_Node000031"><a xlink:href="parse__validate__obj__utils_8c.html#addac7b2e5dfd2ee9efe59f688946f39b" target="_top" xlink:title=" ">
<polygon fill="white" stroke="#666666" points="334.5,-204.25 247.25,-204.25 247.25,-185 334.5,-185 334.5,-204.25"/>
<text text-anchor="middle" x="290.88" y="-190.75" font-family="Helvetica,sans-Serif" font-size="10.00">validate_camera</text>
</a>
</g>
</g>
<!-- Node29&#45;&gt;Node31 -->
<g id="edge53_Node000029_Node000031" class="edge">
<title>Node29&#45;&gt;Node31</title>
<g id="a_edge53_Node000029_Node000031"><a xlink:title=" ">
<path fill="none" stroke="#63b8ff" d="M199.67,-194.62C211.36,-194.62 223.95,-194.62 235.9,-194.62"/>
<polygon fill="#63b8ff" stroke="#63b8ff" points="235.6,-198.13 245.6,-194.63 235.6,-191.13 235.6,-198.13"/>
</a>
</g>
</g>
<!-- Node32 -->
<g id="Node000032" class="node">
<title>Node32</title>
<g id="a_Node000032"><a xlink:href="parse__validate__obj__utils_8c.html#a578190cd0dc27381815b6d4d98c65168" target="_top" xlink:title=" ">
<polygon fill="white" stroke="#666666" points="334.88,-167.25 246.88,-167.25 246.88,-148 334.88,-148 334.88,-167.25"/>
<text text-anchor="middle" x="290.88" y="-153.75" font-family="Helvetica,sans-Serif" font-size="10.00">validate_cylinder</text>
</a>
</g>
</g>
<!-- Node29&#45;&gt;Node32 -->
<g id="edge57_Node000029_Node000032" class="edge">
<title>Node29&#45;&gt;Node32</title>
<g id="a_edge57_Node000029_Node000032"><a xlink:title=" ">
<path fill="none" stroke="#63b8ff" d="M189.49,-184.51C205.48,-180.23 224.31,-175.19 241.31,-170.63"/>
<polygon fill="#63b8ff" stroke="#63b8ff" points="241.96,-174.08 250.72,-168.11 240.15,-167.32 241.96,-174.08"/>
</a>
</g>
</g>
<!-- Node33 -->
<g id="Node000033" class="node">
<title>Node33</title>
<g id="a_Node000033"><a xlink:href="parse__validate__obj__utils_8c.html#a75294ff609499aa907ba8c285855f720" target="_top" xlink:title=" ">
<polygon fill="white" stroke="#666666" points="327.38,-130.25 254.38,-130.25 254.38,-111 327.38,-111 327.38,-130.25"/>
<text text-anchor="middle" x="290.88" y="-116.75" font-family="Helvetica,sans-Serif" font-size="10.00">validate_light</text>
</a>
</g>
</g>
<!-- Node29&#45;&gt;Node33 -->
<g id="edge61_Node000029_Node000033" class="edge">
<title>Node29&#45;&gt;Node33</title>
<g id="a_edge61_Node000029_Node000033"><a xlink:title=" ">
<path fill="none" stroke="#63b8ff" d="M164.94,-184.65C181.41,-172.54 210.77,-152.07 238.25,-138.62 240.95,-137.3 243.78,-136.03 246.66,-134.82"/>
<polygon fill="#63b8ff" stroke="#63b8ff" points="247.73,-138.16 255.76,-131.25 245.17,-131.64 247.73,-138.16"/>
</a>
</g>
</g>
<!-- Node34 -->
<g id="Node000034" class="node">
<title>Node34</title>
<g id="a_Node000034"><a xlink:href="parse__validate__obj__utils_8c.html#ad58bbd3ad3f3f914989f3c0bc27cff8e" target="_top" xlink:title=" ">
<polygon fill="white" stroke="#666666" points="333,-93.25 248.75,-93.25 248.75,-74 333,-74 333,-93.25"/>
<text text-anchor="middle" x="290.88" y="-79.75" font-family="Helvetica,sans-Serif" font-size="10.00">validate_sphere</text>
</a>
</g>
</g>
<!-- Node29&#45;&gt;Node34 -->
<g id="edge65_Node000029_Node000034" class="edge">
<title>Node29&#45;&gt;Node34</title>
<g id="a_edge65_Node000029_Node000034"><a xlink:title=" ">
<path fill="none" stroke="#63b8ff" d="M158.41,-184.73C171.55,-165.94 202.62,-124.9 238.25,-101.62 240.04,-100.46 241.91,-99.36 243.84,-98.32"/>
<polygon fill="#63b8ff" stroke="#63b8ff" points="244.87,-101.7 252.44,-94.29 241.9,-95.36 244.87,-101.7"/>
</a>
</g>
</g>
<!-- Node30&#45;&gt;Node15 -->
<g id="edge50_Node000030_Node000015" class="edge">
<title>Node30&#45;&gt;Node15</title>
<g id="a_edge50_Node000030_Node000015"><a xlink:title=" ">
<path fill="none" stroke="#63b8ff" d="M335.96,-231.62C351.18,-231.62 368.28,-231.62 383.68,-231.62"/>
<polygon fill="#63b8ff" stroke="#63b8ff" points="383.55,-235.13 393.55,-231.63 383.55,-228.13 383.55,-235.13"/>
</a>
</g>
</g>
<!-- Node30&#45;&gt;Node16 -->
<g id="edge52_Node000030_Node000016" class="edge">
<title>Node30&#45;&gt;Node16</title>
<g id="a_edge52_Node000030_Node000016"><a xlink:title=" ">
<path fill="none" stroke="#63b8ff" d="M322.05,-241.7C329.13,-244.19 336.61,-246.92 343.5,-249.62 361.91,-256.86 382.17,-265.71 398.45,-273.05"/>
<polygon fill="#63b8ff" stroke="#63b8ff" points="396.58,-276.05 407.13,-277 399.48,-269.68 396.58,-276.05"/>
</a>
</g>
</g>
<!-- Node30&#45;&gt;Node18 -->
<g id="edge51_Node000030_Node000018" class="edge">
<title>Node30&#45;&gt;Node18</title>
<g id="a_edge51_Node000030_Node000018"><a xlink:title=" ">
<path fill="none" stroke="#63b8ff" d="M326.55,-221.55C332.37,-219.29 338.23,-216.65 343.5,-213.62 370.35,-198.2 396.74,-173.93 413.17,-157.43"/>
<polygon fill="#63b8ff" stroke="#63b8ff" points="415.27,-160.28 419.75,-150.68 410.26,-155.4 415.27,-160.28"/>
</a>
</g>
</g>
<!-- Node31&#45;&gt;Node15 -->
<g id="edge54_Node000031_Node000015" class="edge">
<title>Node31&#45;&gt;Node15</title>
<g id="a_edge54_Node000031_Node000015"><a xlink:title=" ">
<path fill="none" stroke="#63b8ff" d="M329.62,-204.74C346.47,-209.25 366.48,-214.61 384.19,-219.35"/>
<polygon fill="#63b8ff" stroke="#63b8ff" points="383.12,-222.69 393.68,-221.9 384.93,-215.93 383.12,-222.69"/>
</a>
</g>
</g>
<!-- Node31&#45;&gt;Node16 -->
<g id="edge56_Node000031_Node000016" class="edge">
<title>Node31&#45;&gt;Node16</title>
<g id="a_edge56_Node000031_Node000016"><a xlink:title=" ">
<path fill="none" stroke="#63b8ff" d="M327.91,-204.68C333.34,-206.9 338.72,-209.53 343.5,-212.62 363.04,-225.26 362.05,-235.24 379.5,-250.62 387.59,-257.75 396.99,-264.91 405.47,-271.01"/>
<polygon fill="#63b8ff" stroke="#63b8ff" points="403.44,-273.86 413.64,-276.74 407.46,-268.13 403.44,-273.86"/>
</a>
</g>
</g>
<!-- Node31&#45;&gt;Node18 -->
<g id="edge55_Node000031_Node000018" class="edge">
<title>Node31&#45;&gt;Node18</title>
<g id="a_edge55_Node000031_Node000018"><a xlink:title=" ">
<path fill="none" stroke="#63b8ff" d="M322.03,-184.5C329.11,-182.02 336.6,-179.3 343.5,-176.62 361.44,-169.67 381.19,-161.28 397.28,-154.25"/>
<polygon fill="#63b8ff" stroke="#63b8ff" points="398.64,-157.47 406.38,-150.24 395.82,-151.07 398.64,-157.47"/>
</a>
</g>
</g>
<!-- Node32&#45;&gt;Node15 -->
<g id="edge58_Node000032_Node000015" class="edge">
<title>Node32&#45;&gt;Node15</title>
<g id="a_edge58_Node000032_Node000015"><a xlink:title=" ">
<path fill="none" stroke="#63b8ff" d="M324.58,-167.7C330.97,-170.04 337.53,-172.7 343.5,-175.62 366.47,-186.86 390.76,-203.01 407.73,-215.08"/>
<polygon fill="#63b8ff" stroke="#63b8ff" points="405.43,-217.74 415.59,-220.76 409.53,-212.07 405.43,-217.74"/>
</a>
</g>
</g>
<!-- Node32&#45;&gt;Node16 -->
<g id="edge60_Node000032_Node000016" class="edge">
<title>Node32&#45;&gt;Node16</title>
<g id="a_edge60_Node000032_Node000016"><a xlink:title=" ">
<path fill="none" stroke="#63b8ff" d="M331.49,-167.69C335.84,-169.85 339.96,-172.46 343.5,-175.62 371.07,-200.27 355.88,-222.18 379.5,-250.62 386.09,-258.56 394.73,-265.69 403,-271.53"/>
<polygon fill="#63b8ff" stroke="#63b8ff" points="400.86,-274.31 411.12,-276.92 404.73,-268.48 400.86,-274.31"/>
</a>
</g>
</g>
<!-- Node32&#45;&gt;Node18 -->
<g id="edge59_Node000032_Node000018" class="edge">
<title>Node32&#45;&gt;Node18</title>
<g id="a_edge59_Node000032_Node000018"><a xlink:title=" ">
<path fill="none" stroke="#63b8ff" d="M335.2,-151.98C354.02,-149.53 375.82,-146.69 393.76,-144.35"/>
<polygon fill="#63b8ff" stroke="#63b8ff" points="393.96,-147.85 403.43,-143.09 393.06,-140.91 393.96,-147.85"/>
</a>
</g>
</g>
<!-- Node33&#45;&gt;Node15 -->
<g id="edge62_Node000033_Node000015" class="edge">
<title>Node33&#45;&gt;Node15</title>
<g id="a_edge62_Node000033_Node000015"><a xlink:title=" ">
<path fill="none" stroke="#63b8ff" d="M327.67,-130.54C333.18,-132.78 338.65,-135.46 343.5,-138.62 374.12,-158.62 401.37,-191.75 416.77,-212.59"/>
<polygon fill="#63b8ff" stroke="#63b8ff" points="413.77,-214.42 422.45,-220.5 419.46,-210.34 413.77,-214.42"/>
</a>
</g>
</g>
<!-- Node33&#45;&gt;Node16 -->
<g id="edge64_Node000033_Node000016" class="edge">
<title>Node33&#45;&gt;Node16</title>
<g id="a_edge64_Node000033_Node000016"><a xlink:title=" ">
<path fill="none" stroke="#63b8ff" d="M327.75,-128.24C333.57,-130.77 339.12,-134.14 343.5,-138.62 380.02,-176.05 348.92,-208.21 379.5,-250.62 385.28,-258.65 393.34,-265.64 401.32,-271.32"/>
<polygon fill="#63b8ff" stroke="#63b8ff" points="399.31,-274.19 409.59,-276.76 403.15,-268.34 399.31,-274.19"/>
</a>
</g>
</g>
<!-- Node33&#45;&gt;Node18 -->
<g id="edge63_Node000033_Node000018" class="edge">
<title>Node33&#45;&gt;Node18</title>
<g id="a_edge63_Node000033_Node000018"><a xlink:title=" ">
<path fill="none" stroke="#63b8ff" d="M327.81,-125.57C348.12,-128.36 373.44,-131.85 393.8,-134.65"/>
<polygon fill="#63b8ff" stroke="#63b8ff" points="393.25,-138.1 403.64,-136 394.21,-131.17 393.25,-138.1"/>
</a>
</g>
</g>
<!-- Node34&#45;&gt;Node15 -->
<g id="edge66_Node000034_Node000015" class="edge">
<title>Node34&#45;&gt;Node15</title>
<g id="a_edge66_Node000034_Node000015"><a xlink:title=" ">
<path fill="none" stroke="#63b8ff" d="M330.35,-93.73C335.04,-95.89 339.56,-98.5 343.5,-101.62 366.96,-120.27 362.97,-133.63 379.5,-158.62 391.79,-177.22 406.31,-198.1 416.62,-212.75"/>
<polygon fill="#63b8ff" stroke="#63b8ff" points="413.51,-214.41 422.13,-220.56 419.23,-210.37 413.51,-214.41"/>
</a>
</g>
</g>
<!-- Node34&#45;&gt;Node16 -->
<g id="edge68_Node000034_Node000016" class="edge">
<title>Node34&#45;&gt;Node16</title>
<g id="a_edge68_Node000034_Node000016"><a xlink:title=" ">
<path fill="none" stroke="#63b8ff" d="M333.18,-93.56C337.02,-95.74 340.57,-98.39 343.5,-101.62 389.25,-152.11 341.72,-193.93 379.5,-250.62 384.9,-258.73 392.7,-265.69 400.57,-271.32"/>
<polygon fill="#63b8ff" stroke="#63b8ff" points="398.48,-274.14 408.77,-276.68 402.31,-268.28 398.48,-274.14"/>
</a>
</g>
</g>
<!-- Node34&#45;&gt;Node18 -->
<g id="edge67_Node000034_Node000018" class="edge">
<title>Node34&#45;&gt;Node18</title>
<g id="a_edge67_Node000034_Node000018"><a xlink:title=" ">
<path fill="none" stroke="#63b8ff" d="M322.05,-93.7C329.13,-96.19 336.61,-98.92 343.5,-101.62 361.91,-108.86 382.17,-117.71 398.45,-125.05"/>
<polygon fill="#63b8ff" stroke="#63b8ff" points="396.58,-128.05 407.13,-129 399.48,-121.68 396.58,-128.05"/>
</a>
</g>
</g>
</g>
</svg>
