<?xml version="1.0" encoding="UTF-8" standalone="no"?>
<!DOCTYPE svg PUBLIC "-//W3C//DTD SVG 1.1//EN"
 "http://www.w3.org/Graphics/SVG/1.1/DTD/svg11.dtd">
<!-- Generated by graphviz version 9.0.0 (20230911.1827)
 -->
<!-- Title: parse_assign_trgb Pages: 1 -->
<svg width="573pt" height="286pt"
 viewBox="0.00 0.00 572.50 286.26" xmlns="http://www.w3.org/2000/svg" xmlns:xlink="http://www.w3.org/1999/xlink">
<g id="graph0" class="graph" transform="scale(1 1) rotate(0) translate(4 282.26)">
<title>parse_assign_trgb</title>
<!-- Node1 -->
<g id="Node000001" class="node">
<title>Node1</title>
<g id="a_Node000001"><a xlink:title=" ">
<polygon fill="#999999" stroke="#666666" points="95.5,-162.25 0,-162.25 0,-143 95.5,-143 95.5,-162.25"/>
<text text-anchor="middle" x="47.75" y="-148.75" font-family="Helvetica,sans-Serif" font-size="10.00">parse_assign_trgb</text>
</a>
</g>
</g>
<!-- Node2 -->
<g id="Node000002" class="node">
<title>Node2</title>
<g id="a_Node000002"><a xlink:href="parse__validate__assign__rgb__utils_8c.html#accb5a2d4b08a89039765ec742b587b41" target="_top" xlink:title=" ">
<polygon fill="white" stroke="#666666" points="231.5,-255.25 134.5,-255.25 134.5,-236 231.5,-236 231.5,-255.25"/>
<text text-anchor="middle" x="183" y="-241.75" font-family="Helvetica,sans-Serif" font-size="10.00">assign_rgb_values</text>
</a>
</g>
</g>
<!-- Node1&#45;&gt;Node2 -->
<g id="edge1_Node000001_Node000002" class="edge">
<title>Node1&#45;&gt;Node2</title>
<g id="a_edge1_Node000001_Node000002"><a xlink:title=" ">
<path fill="none" stroke="#63b8ff" d="M57.44,-162.74C71.53,-178.57 100.89,-209.3 131.5,-227.62 133.5,-228.82 135.58,-229.95 137.73,-231.03"/>
<polygon fill="#63b8ff" stroke="#63b8ff" points="136.07,-234.12 146.63,-234.99 138.92,-227.72 136.07,-234.12"/>
</a>
</g>
</g>
<!-- Node3 -->
<g id="Node000003" class="node">
<title>Node3</title>
<g id="a_Node000003"><a xlink:href="colour_8c.html#a06b140860c7d645321abb45ead50e04b" target="_top" xlink:title=" ">
<polygon fill="white" stroke="#666666" points="343.12,-255.25 300.88,-255.25 300.88,-236 343.12,-236 343.12,-255.25"/>
<text text-anchor="middle" x="322" y="-241.75" font-family="Helvetica,sans-Serif" font-size="10.00">colour</text>
</a>
</g>
</g>
<!-- Node1&#45;&gt;Node3 -->
<g id="edge5_Node000001_Node000003" class="edge">
<title>Node1&#45;&gt;Node3</title>
<g id="a_edge5_Node000001_Node000003"><a xlink:title=" ">
<path fill="none" stroke="#63b8ff" d="M52.42,-162.54C61.58,-185.61 87.9,-242.63 131.5,-264.62 182.42,-290.31 250.74,-272.76 289.91,-258.58"/>
<polygon fill="#63b8ff" stroke="#63b8ff" points="291.08,-261.87 299.19,-255.05 288.6,-255.33 291.08,-261.87"/>
</a>
</g>
</g>
<!-- Node5 -->
<g id="Node000005" class="node">
<title>Node5</title>
<g id="a_Node000005"><a xlink:href="free__dptr_8c.html#aaa705b6d12fb1a9a15e6103879ec0ea0" target="_top" xlink:title=" ">
<polygon fill="white" stroke="#666666" points="349.12,-60.25 294.88,-60.25 294.88,-41 349.12,-41 349.12,-60.25"/>
<text text-anchor="middle" x="322" y="-46.75" font-family="Helvetica,sans-Serif" font-size="10.00">free_dptr</text>
</a>
</g>
</g>
<!-- Node1&#45;&gt;Node5 -->
<g id="edge6_Node000001_Node000005" class="edge">
<title>Node1&#45;&gt;Node5</title>
<g id="a_edge6_Node000001_Node000005"><a xlink:title=" ">
<path fill="none" stroke="#63b8ff" d="M54.76,-142.69C66.7,-123.97 95.4,-83.82 131.5,-66.62 180.1,-43.48 243.65,-43.33 283.4,-46.27"/>
<polygon fill="#63b8ff" stroke="#63b8ff" points="282.91,-49.74 293.17,-47.1 283.51,-42.76 282.91,-49.74"/>
</a>
</g>
</g>
<!-- Node6 -->
<g id="Node000006" class="node">
<title>Node6</title>
<g id="a_Node000006"><a xlink:href="parse__utils_8c.html#a14e4a06978d8374fc830989e94b08140" target="_top" xlink:title=" ">
<polygon fill="white" stroke="#666666" points="373.5,-143.25 270.5,-143.25 270.5,-124 373.5,-124 373.5,-143.25"/>
<text text-anchor="middle" x="322" y="-129.75" font-family="Helvetica,sans-Serif" font-size="10.00">parse_check_length</text>
</a>
</g>
</g>
<!-- Node1&#45;&gt;Node6 -->
<g id="edge7_Node000001_Node000006" class="edge">
<title>Node1&#45;&gt;Node6</title>
<g id="a_edge7_Node000001_Node000006"><a xlink:title=" ">
<path fill="none" stroke="#63b8ff" d="M95.86,-149.34C141.04,-146.18 209.52,-141.4 259.09,-137.95"/>
<polygon fill="#63b8ff" stroke="#63b8ff" points="259.07,-141.46 268.8,-137.27 258.58,-134.47 259.07,-141.46"/>
</a>
</g>
</g>
<!-- Node7 -->
<g id="Node000007" class="node">
<title>Node7</title>
<g id="a_Node000007"><a xlink:href="parse__validate__assign__rgb__utils_8c.html#ab71c9a28c124cbbec7afa314c3595d68" target="_top" xlink:title=" ">
<polygon fill="white" stroke="#666666" points="233.38,-218.25 132.62,-218.25 132.62,-199 233.38,-199 233.38,-218.25"/>
<text text-anchor="middle" x="183" y="-204.75" font-family="Helvetica,sans-Serif" font-size="10.00">parse_transparency</text>
</a>
</g>
</g>
<!-- Node1&#45;&gt;Node7 -->
<g id="edge8_Node000001_Node000007" class="edge">
<title>Node1&#45;&gt;Node7</title>
<g id="a_edge8_Node000001_Node000007"><a xlink:title=" ">
<path fill="none" stroke="#63b8ff" d="M69.27,-162.66C85.89,-170.64 109.97,-181.87 131.5,-190.62 134.86,-191.99 138.37,-193.36 141.91,-194.7"/>
<polygon fill="#63b8ff" stroke="#63b8ff" points="140.45,-197.89 151.04,-198.07 142.87,-191.32 140.45,-197.89"/>
</a>
</g>
</g>
<!-- Node11 -->
<g id="Node000011" class="node">
<title>Node11</title>
<g id="a_Node000011"><a xlink:href="parse__validate__assign__rgb__utils_8c.html#a38dd4510ea4653d36b16185526f288ab" target="_top" xlink:title=" ">
<polygon fill="white" stroke="#666666" points="230,-105.88 136,-105.88 136,-75.38 230,-75.38 230,-105.88"/>
<text text-anchor="start" x="144" y="-92.38" font-family="Helvetica,sans-Serif" font-size="10.00">split_and_validate</text>
<text text-anchor="middle" x="183" y="-81.12" font-family="Helvetica,sans-Serif" font-size="10.00">_components</text>
</a>
</g>
</g>
<!-- Node1&#45;&gt;Node11 -->
<g id="edge15_Node000001_Node000011" class="edge">
<title>Node1&#45;&gt;Node11</title>
<g id="a_edge15_Node000001_Node000011"><a xlink:title=" ">
<path fill="none" stroke="#63b8ff" d="M70.46,-142.53C88.66,-134.05 115.25,-121.68 137.9,-111.14"/>
<polygon fill="#63b8ff" stroke="#63b8ff" points="139.35,-114.33 146.94,-106.94 136.4,-107.98 139.35,-114.33"/>
</a>
</g>
</g>
<!-- Node13 -->
<g id="Node000013" class="node">
<title>Node13</title>
<g id="a_Node000013"><a xlink:href="parse__validate__assign__rgb__utils_8c.html#a00d4a3c3a01ac083aacdf897546cc68c" target="_top" xlink:title=" ">
<polygon fill="white" stroke="#666666" points="234.5,-181.25 131.5,-181.25 131.5,-162 234.5,-162 234.5,-181.25"/>
<text text-anchor="middle" x="183" y="-167.75" font-family="Helvetica,sans-Serif" font-size="10.00">validate_rgb_ranges</text>
</a>
</g>
</g>
<!-- Node1&#45;&gt;Node13 -->
<g id="edge19_Node000001_Node000013" class="edge">
<title>Node1&#45;&gt;Node13</title>
<g id="a_edge19_Node000001_Node000013"><a xlink:title=" ">
<path fill="none" stroke="#63b8ff" d="M95.73,-159.32C103.66,-160.45 112,-161.64 120.24,-162.82"/>
<polygon fill="#63b8ff" stroke="#63b8ff" points="119.48,-166.25 129.87,-164.19 120.47,-159.32 119.48,-166.25"/>
</a>
</g>
</g>
<!-- Node14 -->
<g id="Node000014" class="node">
<title>Node14</title>
<g id="a_Node000014"><a xlink:href="parse__validate__assign__rgb__utils_8c.html#a61e41bb10d4cefab87e662ece1e0b5ca" target="_top" xlink:title=" ">
<polygon fill="white" stroke="#666666" points="231.88,-19.25 134.12,-19.25 134.12,0 231.88,0 231.88,-19.25"/>
<text text-anchor="middle" x="183" y="-5.75" font-family="Helvetica,sans-Serif" font-size="10.00">validate_rgb_string</text>
</a>
</g>
</g>
<!-- Node1&#45;&gt;Node14 -->
<g id="edge21_Node000001_Node000014" class="edge">
<title>Node1&#45;&gt;Node14</title>
<g id="a_edge21_Node000001_Node000014"><a xlink:title=" ">
<path fill="none" stroke="#63b8ff" d="M53.39,-142.71C64.2,-120.5 93.12,-66.18 131.5,-33.62 135.35,-30.36 139.72,-27.43 144.25,-24.83"/>
<polygon fill="#63b8ff" stroke="#63b8ff" points="145.61,-28.07 152.9,-20.38 142.4,-21.84 145.61,-28.07"/>
</a>
</g>
</g>
<!-- Node2&#45;&gt;Node3 -->
<g id="edge2_Node000002_Node000003" class="edge">
<title>Node2&#45;&gt;Node3</title>
<g id="a_edge2_Node000002_Node000003"><a xlink:title=" ">
<path fill="none" stroke="#63b8ff" d="M231.92,-245.62C250.97,-245.62 272.38,-245.62 289.43,-245.62"/>
<polygon fill="#63b8ff" stroke="#63b8ff" points="288.94,-249.13 298.94,-245.63 288.94,-242.13 288.94,-249.13"/>
</a>
</g>
</g>
<!-- Node4 -->
<g id="Node000004" class="node">
<title>Node4</title>
<g id="a_Node000004"><a xlink:href="ft__atoi_8c.html#afad2ec371b4188602da9a94db687cb16" target="_top" xlink:title=" ">
<polygon fill="white" stroke="#666666" points="343.5,-218.25 300.5,-218.25 300.5,-199 343.5,-199 343.5,-218.25"/>
<text text-anchor="middle" x="322" y="-204.75" font-family="Helvetica,sans-Serif" font-size="10.00">ft_atoi</text>
</a>
</g>
</g>
<!-- Node2&#45;&gt;Node4 -->
<g id="edge4_Node000002_Node000004" class="edge">
<title>Node2&#45;&gt;Node4</title>
<g id="a_edge4_Node000002_Node000004"><a xlink:title=" ">
<path fill="none" stroke="#63b8ff" d="M221.44,-235.51C242.73,-229.76 269.1,-222.64 289.35,-217.17"/>
<polygon fill="#63b8ff" stroke="#63b8ff" points="289.99,-220.63 298.73,-214.64 288.16,-213.87 289.99,-220.63"/>
</a>
</g>
</g>
<!-- Node3&#45;&gt;Node3 -->
<g id="edge3_Node000003_Node000003" class="edge">
<title>Node3&#45;&gt;Node3</title>
<g id="a_edge3_Node000003_Node000003"><a xlink:title=" ">
<path fill="none" stroke="#63b8ff" d="M303.53,-255.54C295.1,-264.15 301.26,-273.25 322,-273.25 333.34,-273.25 340.32,-270.53 342.94,-266.65"/>
<polygon fill="#63b8ff" stroke="#63b8ff" points="346.39,-266.02 340.8,-257.02 339.56,-267.54 346.39,-266.02"/>
</a>
</g>
</g>
<!-- Node7&#45;&gt;Node3 -->
<g id="edge12_Node000007_Node000003" class="edge">
<title>Node7&#45;&gt;Node3</title>
<g id="a_edge12_Node000007_Node000003"><a xlink:title=" ">
<path fill="none" stroke="#63b8ff" d="M221.44,-218.74C242.86,-224.52 269.43,-231.7 289.73,-237.18"/>
<polygon fill="#63b8ff" stroke="#63b8ff" points="288.55,-240.49 299.12,-239.72 290.38,-233.73 288.55,-240.49"/>
</a>
</g>
</g>
<!-- Node7&#45;&gt;Node4 -->
<g id="edge13_Node000007_Node000004" class="edge">
<title>Node7&#45;&gt;Node4</title>
<g id="a_edge13_Node000007_Node000004"><a xlink:title=" ">
<path fill="none" stroke="#63b8ff" d="M233.85,-208.62C252.19,-208.62 272.47,-208.62 288.85,-208.62"/>
<polygon fill="#63b8ff" stroke="#63b8ff" points="288.49,-212.13 298.49,-208.63 288.49,-205.13 288.49,-212.13"/>
</a>
</g>
</g>
<!-- Node7&#45;&gt;Node6 -->
<g id="edge14_Node000007_Node000006" class="edge">
<title>Node7&#45;&gt;Node6</title>
<g id="a_edge14_Node000007_Node000006"><a xlink:title=" ">
<path fill="none" stroke="#63b8ff" d="M218.98,-198.6C224.39,-196.37 229.74,-193.72 234.5,-190.62 253.99,-177.93 251.12,-165.49 270.5,-152.62 272.71,-151.16 275.04,-149.79 277.45,-148.5"/>
<polygon fill="#63b8ff" stroke="#63b8ff" points="278.68,-151.79 286.25,-144.37 275.71,-145.45 278.68,-151.79"/>
</a>
</g>
</g>
<!-- Node8 -->
<g id="Node000008" class="node">
<title>Node8</title>
<g id="a_Node000008"><a xlink:href="check__range_8c.html#a31d1b2f2b0c6260cc272247fb1e281e4" target="_top" xlink:title=" ">
<polygon fill="white" stroke="#666666" points="357.75,-181.25 286.25,-181.25 286.25,-162 357.75,-162 357.75,-181.25"/>
<text text-anchor="middle" x="322" y="-167.75" font-family="Helvetica,sans-Serif" font-size="10.00">check_range</text>
</a>
</g>
</g>
<!-- Node7&#45;&gt;Node8 -->
<g id="edge9_Node000007_Node000008" class="edge">
<title>Node7&#45;&gt;Node8</title>
<g id="a_edge9_Node000007_Node000008"><a xlink:title=" ">
<path fill="none" stroke="#63b8ff" d="M221.44,-198.51C237.94,-194.06 257.5,-188.77 274.9,-184.08"/>
<polygon fill="#63b8ff" stroke="#63b8ff" points="275.76,-187.47 284.5,-181.48 273.94,-180.71 275.76,-187.47"/>
</a>
</g>
</g>
<!-- Node9 -->
<g id="Node000009" class="node">
<title>Node9</title>
<g id="a_Node000009"><a xlink:href="ft__atod_8c.html#ad55518c88cf22904ac355596269be400" target="_top" xlink:title=" ">
<polygon fill="white" stroke="#666666" points="463,-151.25 417,-151.25 417,-132 463,-132 463,-151.25"/>
<text text-anchor="middle" x="440" y="-137.75" font-family="Helvetica,sans-Serif" font-size="10.00">ft_atod</text>
</a>
</g>
</g>
<!-- Node8&#45;&gt;Node9 -->
<g id="edge10_Node000008_Node000009" class="edge">
<title>Node8&#45;&gt;Node9</title>
<g id="a_edge10_Node000008_Node000009"><a xlink:title=" ">
<path fill="none" stroke="#63b8ff" d="M358.12,-162.54C373.32,-158.61 391.01,-154.04 405.97,-150.17"/>
<polygon fill="#63b8ff" stroke="#63b8ff" points="406.51,-153.64 415.32,-147.75 404.76,-146.87 406.51,-153.64"/>
</a>
</g>
</g>
<!-- Node10 -->
<g id="Node000010" class="node">
<title>Node10</title>
<g id="a_Node000010"><a xlink:href="LIBFT_2ft__isdigit_8c.html#a2cf15b8a1a277d1e2ce3654101a2003d" target="_top" xlink:title=" ">
<polygon fill="white" stroke="#666666" points="561.88,-80.25 509.12,-80.25 509.12,-61 561.88,-61 561.88,-80.25"/>
<text text-anchor="middle" x="535.5" y="-66.75" font-family="Helvetica,sans-Serif" font-size="10.00">ft_isdigit</text>
</a>
</g>
</g>
<!-- Node9&#45;&gt;Node10 -->
<g id="edge11_Node000009_Node000010" class="edge">
<title>Node9&#45;&gt;Node10</title>
<g id="a_edge11_Node000009_Node000010"><a xlink:title=" ">
<path fill="none" stroke="#63b8ff" d="M454,-131.75C469.13,-120.27 494.35,-101.12 512.53,-87.31"/>
<polygon fill="#63b8ff" stroke="#63b8ff" points="514.26,-90.39 520.1,-81.56 510.02,-84.82 514.26,-90.39"/>
</a>
</g>
</g>
<!-- Node11&#45;&gt;Node5 -->
<g id="edge16_Node000011_Node000005" class="edge">
<title>Node11&#45;&gt;Node5</title>
<g id="a_edge16_Node000011_Node000005"><a xlink:title=" ">
<path fill="none" stroke="#63b8ff" d="M230.38,-77.08C247.79,-72 267.33,-66.29 283.8,-61.49"/>
<polygon fill="#63b8ff" stroke="#63b8ff" points="284.57,-64.91 293.19,-58.74 282.61,-58.19 284.57,-64.91"/>
</a>
</g>
</g>
<!-- Node11&#45;&gt;Node6 -->
<g id="edge18_Node000011_Node000006" class="edge">
<title>Node11&#45;&gt;Node6</title>
<g id="a_edge18_Node000011_Node000006"><a xlink:title=" ">
<path fill="none" stroke="#63b8ff" d="M230.38,-105.18C245.87,-110.05 263.06,-115.44 278.26,-120.21"/>
<polygon fill="#63b8ff" stroke="#63b8ff" points="276.89,-123.45 287.48,-123.1 278.99,-116.77 276.89,-123.45"/>
</a>
</g>
</g>
<!-- Node12 -->
<g id="Node000012" class="node">
<title>Node12</title>
<g id="a_Node000012"><a xlink:href="LIBFT_2ft__split_8c.html#aa65c9de65051c8c589286cf133c4a1f4" target="_top" xlink:title=" ">
<polygon fill="white" stroke="#666666" points="344.62,-100.25 299.38,-100.25 299.38,-81 344.62,-81 344.62,-100.25"/>
<text text-anchor="middle" x="322" y="-86.75" font-family="Helvetica,sans-Serif" font-size="10.00">ft_split</text>
</a>
</g>
</g>
<!-- Node11&#45;&gt;Node12 -->
<g id="edge17_Node000011_Node000012" class="edge">
<title>Node11&#45;&gt;Node12</title>
<g id="a_edge17_Node000011_Node000012"><a xlink:title=" ">
<path fill="none" stroke="#63b8ff" d="M230.38,-90.62C249.21,-90.62 270.54,-90.62 287.77,-90.62"/>
<polygon fill="#63b8ff" stroke="#63b8ff" points="287.72,-94.13 297.72,-90.63 287.72,-87.13 287.72,-94.13"/>
</a>
</g>
</g>
<!-- Node13&#45;&gt;Node8 -->
<g id="edge20_Node000013_Node000008" class="edge">
<title>Node13&#45;&gt;Node8</title>
<g id="a_edge20_Node000013_Node000008"><a xlink:title=" ">
<path fill="none" stroke="#63b8ff" d="M234.62,-171.62C247.7,-171.62 261.7,-171.62 274.55,-171.62"/>
<polygon fill="#63b8ff" stroke="#63b8ff" points="274.45,-175.13 284.45,-171.63 274.45,-168.13 274.45,-175.13"/>
</a>
</g>
</g>
<!-- Node15 -->
<g id="Node000015" class="node">
<title>Node15</title>
<g id="a_Node000015"><a xlink:href="ft__strval_8c.html#adc216c7cf83a710b028bd1501e3d4e6b" target="_top" xlink:title="Checks if a given string consists of valid characters.">
<polygon fill="white" stroke="#666666" points="347.62,-23.25 296.38,-23.25 296.38,-4 347.62,-4 347.62,-23.25"/>
<text text-anchor="middle" x="322" y="-9.75" font-family="Helvetica,sans-Serif" font-size="10.00">ft_strval</text>
</a>
</g>
</g>
<!-- Node14&#45;&gt;Node15 -->
<g id="edge22_Node000014_Node000015" class="edge">
<title>Node14&#45;&gt;Node15</title>
<g id="a_edge22_Node000014_Node000015"><a xlink:title=" ">
<path fill="none" stroke="#63b8ff" d="M232.3,-11.04C249.66,-11.54 268.92,-12.1 285.04,-12.58"/>
<polygon fill="#63b8ff" stroke="#63b8ff" points="284.54,-16.06 294.64,-12.86 284.75,-9.06 284.54,-16.06"/>
</a>
</g>
</g>
<!-- Node15&#45;&gt;Node10 -->
<g id="edge27_Node000015_Node000010" class="edge">
<title>Node15&#45;&gt;Node10</title>
<g id="a_edge27_Node000015_Node000010"><a xlink:title=" ">
<path fill="none" stroke="#63b8ff" d="M347.98,-21.61C356.22,-24.49 365.36,-27.94 373.5,-31.62 390.18,-39.17 392.18,-45.71 409.5,-51.62 438.19,-61.42 472.31,-66.18 497.65,-68.48"/>
<polygon fill="#63b8ff" stroke="#63b8ff" points="497.21,-71.96 507.46,-69.28 497.78,-64.98 497.21,-71.96"/>
</a>
</g>
</g>
<!-- Node16 -->
<g id="Node000016" class="node">
<title>Node16</title>
<g id="a_Node000016"><a xlink:href="LIBFT_2ft__isalnum_8c.html#a9c2c3821ea43ebdf97de07b123503f8b" target="_top" xlink:title=" ">
<polygon fill="white" stroke="#666666" points="470.5,-42.25 409.5,-42.25 409.5,-23 470.5,-23 470.5,-42.25"/>
<text text-anchor="middle" x="440" y="-28.75" font-family="Helvetica,sans-Serif" font-size="10.00">ft_isalnum</text>
</a>
</g>
</g>
<!-- Node15&#45;&gt;Node16 -->
<g id="edge23_Node000015_Node000016" class="edge">
<title>Node15&#45;&gt;Node16</title>
<g id="a_edge23_Node000015_Node000016"><a xlink:title=" ">
<path fill="none" stroke="#63b8ff" d="M347.88,-17.7C362.49,-20.09 381.31,-23.18 398.04,-25.92"/>
<polygon fill="#63b8ff" stroke="#63b8ff" points="397.29,-29.34 407.73,-27.5 398.43,-22.43 397.29,-29.34"/>
</a>
</g>
</g>
<!-- Node17 -->
<g id="Node000017" class="node">
<title>Node17</title>
<g id="a_Node000017"><a xlink:href="LIBFT_2ft__isalpha_8c.html#ac283963beaa3b8c7d09b78851cda297e" target="_top" xlink:title=" ">
<polygon fill="white" stroke="#666666" points="564.5,-23.25 506.5,-23.25 506.5,-4 564.5,-4 564.5,-23.25"/>
<text text-anchor="middle" x="535.5" y="-9.75" font-family="Helvetica,sans-Serif" font-size="10.00">ft_isalpha</text>
</a>
</g>
</g>
<!-- Node15&#45;&gt;Node17 -->
<g id="edge26_Node000015_Node000017" class="edge">
<title>Node15&#45;&gt;Node17</title>
<g id="a_edge26_Node000015_Node000017"><a xlink:title=" ">
<path fill="none" stroke="#63b8ff" d="M348.09,-13.62C384.3,-13.62 451.56,-13.62 494.62,-13.62"/>
<polygon fill="#63b8ff" stroke="#63b8ff" points="494.56,-17.13 504.56,-13.63 494.56,-10.13 494.56,-17.13"/>
</a>
</g>
</g>
<!-- Node16&#45;&gt;Node10 -->
<g id="edge25_Node000016_Node000010" class="edge">
<title>Node16&#45;&gt;Node10</title>
<g id="a_edge25_Node000016_Node000010"><a xlink:title=" ">
<path fill="none" stroke="#63b8ff" d="M465.57,-42.61C475.9,-46.81 488.11,-51.77 499.37,-56.35"/>
<polygon fill="#63b8ff" stroke="#63b8ff" points="497.79,-59.48 508.37,-60.01 500.42,-53 497.79,-59.48"/>
</a>
</g>
</g>
<!-- Node16&#45;&gt;Node17 -->
<g id="edge24_Node000016_Node000017" class="edge">
<title>Node16&#45;&gt;Node17</title>
<g id="a_edge24_Node000016_Node000017"><a xlink:title=" ">
<path fill="none" stroke="#63b8ff" d="M470.84,-26.56C478.54,-25 486.95,-23.29 495.06,-21.64"/>
<polygon fill="#63b8ff" stroke="#63b8ff" points="495.63,-25.1 504.73,-19.67 494.24,-18.24 495.63,-25.1"/>
</a>
</g>
</g>
</g>
</svg>
