<?xml version="1.0" encoding="UTF-8" standalone="no"?>
<!DOCTYPE svg PUBLIC "-//W3C//DTD SVG 1.1//EN"
 "http://www.w3.org/Graphics/SVG/1.1/DTD/svg11.dtd">
<!-- Generated by graphviz version 9.0.0 (20230911.1827)
 -->
<!-- Title: exit_cleanup Pages: 1 -->
<svg width="283pt" height="83pt"
 viewBox="0.00 0.00 283.25 83.25" xmlns="http://www.w3.org/2000/svg" xmlns:xlink="http://www.w3.org/1999/xlink">
<g id="graph0" class="graph" transform="scale(1 1) rotate(0) translate(4 79.25)">
<title>exit_cleanup</title>
<!-- Node1 -->
<g id="Node000001" class="node">
<title>Node1</title>
<g id="a_Node000001"><a xlink:title=" ">
<polygon fill="#999999" stroke="#666666" points="70,-56.25 0,-56.25 0,-37 70,-37 70,-56.25"/>
<text text-anchor="middle" x="35" y="-42.75" font-family="Helvetica,sans-Serif" font-size="10.00">exit_cleanup</text>
</a>
</g>
</g>
<!-- Node2 -->
<g id="Node000002" class="node">
<title>Node2</title>
<g id="a_Node000002"><a xlink:href="matrix__free_8c.html#ab28d26aa6d34d5c2a3b83b9ee519fec6" target="_top" xlink:title=" ">
<polygon fill="white" stroke="#666666" points="275.25,-75.25 211.25,-75.25 211.25,-56 275.25,-56 275.25,-75.25"/>
<text text-anchor="middle" x="243.25" y="-61.75" font-family="Helvetica,sans-Serif" font-size="10.00">free_matrix</text>
</a>
</g>
</g>
<!-- Node1&#45;&gt;Node2 -->
<g id="edge1_Node000001_Node000002" class="edge">
<title>Node1&#45;&gt;Node2</title>
<g id="a_edge1_Node000001_Node000002"><a xlink:title=" ">
<path fill="none" stroke="#63b8ff" d="M66.31,-56.73C78.49,-60.3 92.77,-63.86 106,-65.62 137.15,-69.78 172.66,-69.62 199.62,-68.51"/>
<polygon fill="#63b8ff" stroke="#63b8ff" points="199.65,-72.01 209.47,-68.03 199.31,-65.02 199.65,-72.01"/>
</a>
</g>
</g>
<!-- Node3 -->
<g id="Node000003" class="node">
<title>Node3</title>
<g id="a_Node000003"><a xlink:href="obj__free_8c.html#a17507d61054a4f286419903a51a478f8" target="_top" xlink:title=" ">
<polygon fill="white" stroke="#666666" points="175.25,-56.25 106,-56.25 106,-37 175.25,-37 175.25,-56.25"/>
<text text-anchor="middle" x="140.62" y="-42.75" font-family="Helvetica,sans-Serif" font-size="10.00">free_objects</text>
</a>
</g>
</g>
<!-- Node1&#45;&gt;Node3 -->
<g id="edge2_Node000001_Node000003" class="edge">
<title>Node1&#45;&gt;Node3</title>
<g id="a_edge2_Node000001_Node000003"><a xlink:title=" ">
<path fill="none" stroke="#63b8ff" d="M70.22,-46.62C77.99,-46.62 86.36,-46.62 94.51,-46.62"/>
<polygon fill="#63b8ff" stroke="#63b8ff" points="94.28,-50.13 104.28,-46.63 94.28,-43.13 94.28,-50.13"/>
</a>
</g>
</g>
<!-- Node4 -->
<g id="Node000004" class="node">
<title>Node4</title>
<g id="a_Node000004"><a xlink:href="ft__putstr__fd_8c.html#acefce9ac519f8f8b7d3fde33dbafe469" target="_top" xlink:title=" ">
<polygon fill="white" stroke="#666666" points="173.38,-19.25 107.88,-19.25 107.88,0 173.38,0 173.38,-19.25"/>
<text text-anchor="middle" x="140.62" y="-5.75" font-family="Helvetica,sans-Serif" font-size="10.00">ft_putstr_fd</text>
</a>
</g>
</g>
<!-- Node1&#45;&gt;Node4 -->
<g id="edge4_Node000001_Node000004" class="edge">
<title>Node1&#45;&gt;Node4</title>
<g id="a_edge4_Node000001_Node000004"><a xlink:title=" ">
<path fill="none" stroke="#63b8ff" d="M64.32,-36.51C75.51,-32.52 88.56,-27.86 100.62,-23.55"/>
<polygon fill="#63b8ff" stroke="#63b8ff" points="101.68,-26.89 109.92,-20.23 99.32,-20.3 101.68,-26.89"/>
</a>
</g>
</g>
<!-- Node3&#45;&gt;Node2 -->
<g id="edge3_Node000003_Node000002" class="edge">
<title>Node3&#45;&gt;Node2</title>
<g id="a_edge3_Node000003_Node000002"><a xlink:title=" ">
<path fill="none" stroke="#63b8ff" d="M175.69,-53.06C183.44,-54.52 191.77,-56.09 199.82,-57.61"/>
<polygon fill="#63b8ff" stroke="#63b8ff" points="198.97,-61.01 209.44,-59.43 200.26,-54.14 198.97,-61.01"/>
</a>
</g>
</g>
</g>
</svg>
