<?xml version="1.0" encoding="UTF-8" standalone="no"?>
<!DOCTYPE svg PUBLIC "-//W3C//DTD SVG 1.1//EN"
 "http://www.w3.org/Graphics/SVG/1.1/DTD/svg11.dtd">
<!-- Generated by graphviz version 9.0.0 (20230911.1827)
 -->
<!-- Title: assign_coordinates Pages: 1 -->
<svg width="803pt" height="138pt"
 viewBox="0.00 0.00 803.25 138.25" xmlns="http://www.w3.org/2000/svg" xmlns:xlink="http://www.w3.org/1999/xlink">
<g id="graph0" class="graph" transform="scale(1 1) rotate(0) translate(4 134.25)">
<title>assign_coordinates</title>
<!-- Node1 -->
<g id="Node000001" class="node">
<title>Node1</title>
<g id="a_Node000001"><a xlink:title=" ">
<polygon fill="#999999" stroke="#666666" points="795.25,-74.25 695.25,-74.25 695.25,-55 795.25,-55 795.25,-74.25"/>
<text text-anchor="middle" x="745.25" y="-60.75" font-family="Helvetica,sans-Serif" font-size="10.00">assign_coordinates</text>
</a>
</g>
</g>
<!-- Node2 -->
<g id="Node000002" class="node">
<title>Node2</title>
<g id="a_Node000002"><a xlink:href="parse__utils_8c.html#a4b09ddfa5e35fa7e45323421232772ce" target="_top" xlink:title=" ">
<polygon fill="white" stroke="#666666" points="659.25,-74.25 556.25,-74.25 556.25,-55 659.25,-55 659.25,-74.25"/>
<text text-anchor="middle" x="607.75" y="-60.75" font-family="Helvetica,sans-Serif" font-size="10.00">parse_assign_coord</text>
</a>
</g>
</g>
<!-- Node1&#45;&gt;Node2 -->
<g id="edge1_Node000001_Node000002" class="edge">
<title>Node1&#45;&gt;Node2</title>
<g id="a_edge1_Node000001_Node000002"><a xlink:title=" ">
<path fill="none" stroke="#63b8ff" d="M683.71,-64.62C675.66,-64.62 667.47,-64.62 659.61,-64.62"/>
<polygon fill="#63b8ff" stroke="#63b8ff" points="683.43,-68.13 693.43,-64.63 683.43,-61.13 683.43,-68.13"/>
</a>
</g>
</g>
<!-- Node3 -->
<g id="Node000003" class="node">
<title>Node3</title>
<g id="a_Node000003"><a xlink:href="parse__camera__light_8c.html#a00b9b6a4aadecaaf341d2fc409582b39" target="_top" xlink:title=" ">
<polygon fill="white" stroke="#666666" points="519.88,-130.25 442.38,-130.25 442.38,-111 519.88,-111 519.88,-130.25"/>
<text text-anchor="middle" x="481.12" y="-116.75" font-family="Helvetica,sans-Serif" font-size="10.00">parse_camera</text>
</a>
</g>
</g>
<!-- Node2&#45;&gt;Node3 -->
<g id="edge2_Node000002_Node000003" class="edge">
<title>Node2&#45;&gt;Node3</title>
<g id="a_edge2_Node000002_Node000003"><a xlink:title=" ">
<path fill="none" stroke="#63b8ff" d="M574.01,-79.34C552.16,-89.16 523.99,-101.81 504.63,-110.51"/>
<polygon fill="#63b8ff" stroke="#63b8ff" points="575.4,-82.55 583.09,-75.26 572.53,-76.16 575.4,-82.55"/>
</a>
</g>
</g>
<!-- Node8 -->
<g id="Node000008" class="node">
<title>Node8</title>
<g id="a_Node000008"><a xlink:href="parse__objects_8c.html#a438a08a219ba336c395096067e52bb1b" target="_top" xlink:title=" ">
<polygon fill="white" stroke="#666666" points="520.25,-93.25 442,-93.25 442,-74 520.25,-74 520.25,-93.25"/>
<text text-anchor="middle" x="481.12" y="-79.75" font-family="Helvetica,sans-Serif" font-size="10.00">parse_cylinder</text>
</a>
</g>
</g>
<!-- Node2&#45;&gt;Node8 -->
<g id="edge7_Node000002_Node000008" class="edge">
<title>Node2&#45;&gt;Node8</title>
<g id="a_edge7_Node000002_Node000008"><a xlink:title=" ">
<path fill="none" stroke="#63b8ff" d="M544.83,-74.07C536.54,-75.33 528.25,-76.59 520.53,-77.77"/>
<polygon fill="#63b8ff" stroke="#63b8ff" points="545.21,-77.55 554.56,-72.58 544.15,-70.63 545.21,-77.55"/>
</a>
</g>
</g>
<!-- Node9 -->
<g id="Node000009" class="node">
<title>Node9</title>
<g id="a_Node000009"><a xlink:href="parse__camera__light_8c.html#aaa10205c0950a79dd43566074de7b0a0" target="_top" xlink:title=" ">
<polygon fill="white" stroke="#666666" points="512.75,-56.25 449.5,-56.25 449.5,-37 512.75,-37 512.75,-56.25"/>
<text text-anchor="middle" x="481.12" y="-42.75" font-family="Helvetica,sans-Serif" font-size="10.00">parse_light</text>
</a>
</g>
</g>
<!-- Node2&#45;&gt;Node9 -->
<g id="edge9_Node000002_Node000009" class="edge">
<title>Node2&#45;&gt;Node9</title>
<g id="a_edge9_Node000002_Node000009"><a xlink:title=" ">
<path fill="none" stroke="#63b8ff" d="M544.68,-55.66C533.71,-54.08 522.72,-52.49 513.09,-51.1"/>
<polygon fill="#63b8ff" stroke="#63b8ff" points="544.16,-59.12 554.56,-57.09 545.17,-52.19 544.16,-59.12"/>
</a>
</g>
</g>
<!-- Node10 -->
<g id="Node000010" class="node">
<title>Node10</title>
<g id="a_Node000010"><a xlink:href="parse__objects_8c.html#a7e641794acee51578d8539e361635c47" target="_top" xlink:title=" ">
<polygon fill="white" stroke="#666666" points="515.38,-19.25 446.88,-19.25 446.88,0 515.38,0 515.38,-19.25"/>
<text text-anchor="middle" x="481.12" y="-5.75" font-family="Helvetica,sans-Serif" font-size="10.00">parse_plane</text>
</a>
</g>
</g>
<!-- Node2&#45;&gt;Node10 -->
<g id="edge11_Node000002_Node000010" class="edge">
<title>Node2&#45;&gt;Node10</title>
<g id="a_edge11_Node000002_Node000010"><a xlink:title=" ">
<path fill="none" stroke="#63b8ff" d="M573.48,-49.94C551.78,-40.37 524.03,-28.12 504.84,-19.65"/>
<polygon fill="#63b8ff" stroke="#63b8ff" points="571.95,-53.09 582.51,-53.93 574.77,-46.69 571.95,-53.09"/>
</a>
</g>
</g>
<!-- Node4 -->
<g id="Node000004" class="node">
<title>Node4</title>
<g id="a_Node000004"><a xlink:href="parse__main_8c.html#a92aa268ea4b3d5c808364ca73d913cbe" target="_top" xlink:title=" ">
<polygon fill="white" stroke="#666666" points="406,-74.25 318,-74.25 318,-55 406,-55 406,-74.25"/>
<text text-anchor="middle" x="362" y="-60.75" font-family="Helvetica,sans-Serif" font-size="10.00">parse_func_redir</text>
</a>
</g>
</g>
<!-- Node3&#45;&gt;Node4 -->
<g id="edge3_Node000003_Node000004" class="edge">
<title>Node3&#45;&gt;Node4</title>
<g id="a_edge3_Node000003_Node000004"><a xlink:title=" ">
<path fill="none" stroke="#63b8ff" d="M448.5,-105.72C446.3,-104.67 444.12,-103.63 442,-102.62 422.22,-93.2 399.69,-82.35 383.77,-74.67"/>
<polygon fill="#63b8ff" stroke="#63b8ff" points="446.83,-108.8 457.37,-109.91 449.83,-102.47 446.83,-108.8"/>
</a>
</g>
</g>
<!-- Node5 -->
<g id="Node000005" class="node">
<title>Node5</title>
<g id="a_Node000005"><a xlink:href="parse__main_8c.html#a5d7da6ab7925ffda04b676ef38880723" target="_top" xlink:title="Reading a line from the given .rt file and splitting the given line with the space (&#39; &#39;) delimiter....">
<polygon fill="white" stroke="#666666" points="282,-74.25 186.5,-74.25 186.5,-55 282,-55 282,-74.25"/>
<text text-anchor="middle" x="234.25" y="-60.75" font-family="Helvetica,sans-Serif" font-size="10.00">parse_rt_read_line</text>
</a>
</g>
</g>
<!-- Node4&#45;&gt;Node5 -->
<g id="edge4_Node000004_Node000005" class="edge">
<title>Node4&#45;&gt;Node5</title>
<g id="a_edge4_Node000004_Node000005"><a xlink:title=" ">
<path fill="none" stroke="#63b8ff" d="M306.29,-64.62C298.36,-64.62 290.25,-64.62 282.48,-64.62"/>
<polygon fill="#63b8ff" stroke="#63b8ff" points="306.21,-68.13 316.21,-64.63 306.21,-61.13 306.21,-68.13"/>
</a>
</g>
</g>
<!-- Node6 -->
<g id="Node000006" class="node">
<title>Node6</title>
<g id="a_Node000006"><a xlink:href="parse__main_8c.html#a62c4de2f960942eba61e7de12c387ae4" target="_top" xlink:title="Entry function to parsing .rt file where the file is attempted to be opened, t_parse structure is ini...">
<polygon fill="white" stroke="#666666" points="150.5,-74.25 73,-74.25 73,-55 150.5,-55 150.5,-74.25"/>
<text text-anchor="middle" x="111.75" y="-60.75" font-family="Helvetica,sans-Serif" font-size="10.00">parse_rt_main</text>
</a>
</g>
</g>
<!-- Node5&#45;&gt;Node6 -->
<g id="edge5_Node000005_Node000006" class="edge">
<title>Node5&#45;&gt;Node6</title>
<g id="a_edge5_Node000005_Node000006"><a xlink:title=" ">
<path fill="none" stroke="#63b8ff" d="M174.86,-64.62C166.69,-64.62 158.47,-64.62 150.81,-64.62"/>
<polygon fill="#63b8ff" stroke="#63b8ff" points="174.8,-68.13 184.8,-64.63 174.8,-61.13 174.8,-68.13"/>
</a>
</g>
</g>
<!-- Node7 -->
<g id="Node000007" class="node">
<title>Node7</title>
<g id="a_Node000007"><a xlink:href="mini__ray_8c.html#a0c99d968a34e803d378692bde2e3f18f" target="_top" xlink:title=" ">
<polygon fill="white" stroke="#666666" points="37,-74.25 0,-74.25 0,-55 37,-55 37,-74.25"/>
<text text-anchor="middle" x="18.5" y="-60.75" font-family="Helvetica,sans-Serif" font-size="10.00">main</text>
</a>
</g>
</g>
<!-- Node6&#45;&gt;Node7 -->
<g id="edge6_Node000006_Node000007" class="edge">
<title>Node6&#45;&gt;Node7</title>
<g id="a_edge6_Node000006_Node000007"><a xlink:title=" ">
<path fill="none" stroke="#63b8ff" d="M61.23,-64.62C52.6,-64.62 44.15,-64.62 37.14,-64.62"/>
<polygon fill="#63b8ff" stroke="#63b8ff" points="61.07,-68.13 71.07,-64.63 61.07,-61.13 61.07,-68.13"/>
</a>
</g>
</g>
<!-- Node8&#45;&gt;Node4 -->
<g id="edge8_Node000008_Node000004" class="edge">
<title>Node8&#45;&gt;Node4</title>
<g id="a_edge8_Node000008_Node000004"><a xlink:title=" ">
<path fill="none" stroke="#63b8ff" d="M430.59,-75.59C422.52,-74.28 414.21,-72.93 406.31,-71.65"/>
<polygon fill="#63b8ff" stroke="#63b8ff" points="429.85,-79.01 440.28,-77.16 430.97,-72.11 429.85,-79.01"/>
</a>
</g>
</g>
<!-- Node9&#45;&gt;Node4 -->
<g id="edge10_Node000009_Node000004" class="edge">
<title>Node9&#45;&gt;Node4</title>
<g id="a_edge10_Node000009_Node000004"><a xlink:title=" ">
<path fill="none" stroke="#63b8ff" d="M437.8,-53.13C427.5,-54.71 416.47,-56.41 406.13,-58"/>
<polygon fill="#63b8ff" stroke="#63b8ff" points="438.2,-56.61 447.55,-51.63 437.13,-49.69 438.2,-56.61"/>
</a>
</g>
</g>
<!-- Node10&#45;&gt;Node4 -->
<g id="edge12_Node000010_Node000004" class="edge">
<title>Node10&#45;&gt;Node4</title>
<g id="a_edge12_Node000010_Node000004"><a xlink:title=" ">
<path fill="none" stroke="#63b8ff" d="M448.3,-24.57C427.99,-34.11 402.22,-46.21 384.35,-54.6"/>
<polygon fill="#63b8ff" stroke="#63b8ff" points="449.71,-27.77 457.27,-20.36 446.73,-21.44 449.71,-27.77"/>
</a>
</g>
</g>
</g>
</svg>
