<?xml version="1.0" encoding="UTF-8" standalone="no"?>
<!DOCTYPE svg PUBLIC "-//W3C//DTD SVG 1.1//EN"
 "http://www.w3.org/Graphics/SVG/1.1/DTD/svg11.dtd">
<!-- Generated by graphviz version 9.0.0 (20230911.1827)
 -->
<!-- Title: validate_ambient Pages: 1 -->
<svg width="428pt" height="130pt"
 viewBox="0.00 0.00 427.50 130.25" xmlns="http://www.w3.org/2000/svg" xmlns:xlink="http://www.w3.org/1999/xlink">
<g id="graph0" class="graph" transform="scale(1 1) rotate(0) translate(4 126.25)">
<title>validate_ambient</title>
<!-- Node1 -->
<g id="Node000001" class="node">
<title>Node1</title>
<g id="a_Node000001"><a xlink:title=" ">
<polygon fill="#999999" stroke="#666666" points="89.5,-56.25 0,-56.25 0,-37 89.5,-37 89.5,-56.25"/>
<text text-anchor="middle" x="44.75" y="-42.75" font-family="Helvetica,sans-Serif" font-size="10.00">validate_ambient</text>
</a>
</g>
</g>
<!-- Node2 -->
<g id="Node000002" class="node">
<title>Node2</title>
<g id="a_Node000002"><a xlink:href="check__range_8c.html#a31d1b2f2b0c6260cc272247fb1e281e4" target="_top" xlink:title=" ">
<polygon fill="white" stroke="#666666" points="212.75,-112.25 141.25,-112.25 141.25,-93 212.75,-93 212.75,-112.25"/>
<text text-anchor="middle" x="177" y="-98.75" font-family="Helvetica,sans-Serif" font-size="10.00">check_range</text>
</a>
</g>
</g>
<!-- Node1&#45;&gt;Node2 -->
<g id="edge1_Node000001_Node000002" class="edge">
<title>Node1&#45;&gt;Node2</title>
<g id="a_edge1_Node000001_Node000002"><a xlink:title=" ">
<path fill="none" stroke="#63b8ff" d="M69.04,-56.64C89.38,-65.38 119.16,-78.19 142.14,-88.07"/>
<polygon fill="#63b8ff" stroke="#63b8ff" points="140.52,-91.18 151.09,-91.91 143.28,-84.75 140.52,-91.18"/>
</a>
</g>
</g>
<!-- Node5 -->
<g id="Node000005" class="node">
<title>Node5</title>
<g id="a_Node000005"><a xlink:href="ft__strval_8c.html#adc216c7cf83a710b028bd1501e3d4e6b" target="_top" xlink:title="Checks if a given string consists of valid characters.">
<polygon fill="white" stroke="#666666" points="202.62,-56.25 151.38,-56.25 151.38,-37 202.62,-37 202.62,-56.25"/>
<text text-anchor="middle" x="177" y="-42.75" font-family="Helvetica,sans-Serif" font-size="10.00">ft_strval</text>
</a>
</g>
</g>
<!-- Node1&#45;&gt;Node5 -->
<g id="edge4_Node000001_Node000005" class="edge">
<title>Node1&#45;&gt;Node5</title>
<g id="a_edge4_Node000001_Node000005"><a xlink:title=" ">
<path fill="none" stroke="#63b8ff" d="M89.85,-46.62C106.08,-46.62 124.26,-46.62 139.73,-46.62"/>
<polygon fill="#63b8ff" stroke="#63b8ff" points="139.43,-50.13 149.43,-46.63 139.43,-43.13 139.43,-50.13"/>
</a>
</g>
</g>
<!-- Node8 -->
<g id="Node000008" class="node">
<title>Node8</title>
<g id="a_Node000008"><a xlink:href="parse__utils_8c.html#a14e4a06978d8374fc830989e94b08140" target="_top" xlink:title=" ">
<polygon fill="white" stroke="#666666" points="228.5,-19.25 125.5,-19.25 125.5,0 228.5,0 228.5,-19.25"/>
<text text-anchor="middle" x="177" y="-5.75" font-family="Helvetica,sans-Serif" font-size="10.00">parse_check_length</text>
</a>
</g>
</g>
<!-- Node1&#45;&gt;Node8 -->
<g id="edge10_Node000001_Node000008" class="edge">
<title>Node1&#45;&gt;Node8</title>
<g id="a_edge10_Node000001_Node000008"><a xlink:title=" ">
<path fill="none" stroke="#63b8ff" d="M81.34,-36.51C96.27,-32.27 113.83,-27.28 129.75,-22.76"/>
<polygon fill="#63b8ff" stroke="#63b8ff" points="130.33,-26.24 139,-20.14 128.42,-19.5 130.33,-26.24"/>
</a>
</g>
</g>
<!-- Node3 -->
<g id="Node000003" class="node">
<title>Node3</title>
<g id="a_Node000003"><a xlink:href="ft__atod_8c.html#ad55518c88cf22904ac355596269be400" target="_top" xlink:title=" ">
<polygon fill="white" stroke="#666666" points="318,-122.25 272,-122.25 272,-103 318,-103 318,-122.25"/>
<text text-anchor="middle" x="295" y="-108.75" font-family="Helvetica,sans-Serif" font-size="10.00">ft_atod</text>
</a>
</g>
</g>
<!-- Node2&#45;&gt;Node3 -->
<g id="edge2_Node000002_Node000003" class="edge">
<title>Node2&#45;&gt;Node3</title>
<g id="a_edge2_Node000002_Node000003"><a xlink:title=" ">
<path fill="none" stroke="#63b8ff" d="M213.12,-105.65C228.17,-106.95 245.66,-108.46 260.53,-109.74"/>
<polygon fill="#63b8ff" stroke="#63b8ff" points="260.01,-113.21 270.28,-110.58 260.61,-106.23 260.01,-113.21"/>
</a>
</g>
</g>
<!-- Node4 -->
<g id="Node000004" class="node">
<title>Node4</title>
<g id="a_Node000004"><a xlink:href="LIBFT_2ft__isdigit_8c.html#a2cf15b8a1a277d1e2ce3654101a2003d" target="_top" xlink:title=" ">
<polygon fill="white" stroke="#666666" points="416.88,-84.25 364.12,-84.25 364.12,-65 416.88,-65 416.88,-84.25"/>
<text text-anchor="middle" x="390.5" y="-70.75" font-family="Helvetica,sans-Serif" font-size="10.00">ft_isdigit</text>
</a>
</g>
</g>
<!-- Node3&#45;&gt;Node4 -->
<g id="edge3_Node000003_Node000004" class="edge">
<title>Node3&#45;&gt;Node4</title>
<g id="a_edge3_Node000003_Node000004"><a xlink:title=" ">
<path fill="none" stroke="#63b8ff" d="M318.16,-103.62C329.02,-99.21 342.35,-93.79 354.54,-88.83"/>
<polygon fill="#63b8ff" stroke="#63b8ff" points="355.52,-92.21 363.47,-85.21 352.88,-85.73 355.52,-92.21"/>
</a>
</g>
</g>
<!-- Node5&#45;&gt;Node4 -->
<g id="edge9_Node000005_Node000004" class="edge">
<title>Node5&#45;&gt;Node4</title>
<g id="a_edge9_Node000005_Node000004"><a xlink:title=" ">
<path fill="none" stroke="#63b8ff" d="M203.09,-49.95C240.1,-54.85 309.55,-64.04 352.44,-69.72"/>
<polygon fill="#63b8ff" stroke="#63b8ff" points="351.91,-73.18 362.28,-71.02 352.83,-66.24 351.91,-73.18"/>
</a>
</g>
</g>
<!-- Node6 -->
<g id="Node000006" class="node">
<title>Node6</title>
<g id="a_Node000006"><a xlink:href="LIBFT_2ft__isalnum_8c.html#a9c2c3821ea43ebdf97de07b123503f8b" target="_top" xlink:title=" ">
<polygon fill="white" stroke="#666666" points="325.5,-46.25 264.5,-46.25 264.5,-27 325.5,-27 325.5,-46.25"/>
<text text-anchor="middle" x="295" y="-32.75" font-family="Helvetica,sans-Serif" font-size="10.00">ft_isalnum</text>
</a>
</g>
</g>
<!-- Node5&#45;&gt;Node6 -->
<g id="edge5_Node000005_Node000006" class="edge">
<title>Node5&#45;&gt;Node6</title>
<g id="a_edge5_Node000005_Node000006"><a xlink:title=" ">
<path fill="none" stroke="#63b8ff" d="M202.88,-44.48C217.49,-43.22 236.31,-41.6 253.04,-40.16"/>
<polygon fill="#63b8ff" stroke="#63b8ff" points="253.05,-43.67 262.71,-39.32 252.45,-36.69 253.05,-43.67"/>
</a>
</g>
</g>
<!-- Node7 -->
<g id="Node000007" class="node">
<title>Node7</title>
<g id="a_Node000007"><a xlink:href="LIBFT_2ft__isalpha_8c.html#ac283963beaa3b8c7d09b78851cda297e" target="_top" xlink:title=" ">
<polygon fill="white" stroke="#666666" points="419.5,-27.25 361.5,-27.25 361.5,-8 419.5,-8 419.5,-27.25"/>
<text text-anchor="middle" x="390.5" y="-13.75" font-family="Helvetica,sans-Serif" font-size="10.00">ft_isalpha</text>
</a>
</g>
</g>
<!-- Node5&#45;&gt;Node7 -->
<g id="edge8_Node000005_Node000007" class="edge">
<title>Node5&#45;&gt;Node7</title>
<g id="a_edge8_Node000005_Node000007"><a xlink:title=" ">
<path fill="none" stroke="#63b8ff" d="M202.73,-37.88C226.02,-29.72 258.25,-18.65 264.5,-17.62 292.85,-13 325.29,-13.16 350.02,-14.39"/>
<polygon fill="#63b8ff" stroke="#63b8ff" points="349.79,-17.88 359.98,-14.97 350.2,-10.89 349.79,-17.88"/>
</a>
</g>
</g>
<!-- Node6&#45;&gt;Node4 -->
<g id="edge7_Node000006_Node000004" class="edge">
<title>Node6&#45;&gt;Node4</title>
<g id="a_edge7_Node000006_Node000004"><a xlink:title=" ">
<path fill="none" stroke="#63b8ff" d="M320.57,-46.61C330.9,-50.81 343.11,-55.77 354.37,-60.35"/>
<polygon fill="#63b8ff" stroke="#63b8ff" points="352.79,-63.48 363.37,-64.01 355.42,-57 352.79,-63.48"/>
</a>
</g>
</g>
<!-- Node6&#45;&gt;Node7 -->
<g id="edge6_Node000006_Node000007" class="edge">
<title>Node6&#45;&gt;Node7</title>
<g id="a_edge6_Node000006_Node000007"><a xlink:title=" ">
<path fill="none" stroke="#63b8ff" d="M325.84,-30.56C333.54,-29 341.95,-27.29 350.06,-25.64"/>
<polygon fill="#63b8ff" stroke="#63b8ff" points="350.63,-29.1 359.73,-23.67 349.24,-22.24 350.63,-29.1"/>
</a>
</g>
</g>
</g>
</svg>
