<?xml version="1.0" encoding="UTF-8" standalone="no"?>
<!DOCTYPE svg PUBLIC "-//W3C//DTD SVG 1.1//EN"
 "http://www.w3.org/Graphics/SVG/1.1/DTD/svg11.dtd">
<!-- Generated by graphviz version 9.0.0 (20230911.1827)
 -->
<!-- Title: /github/workspace/INC/core_cleanup.h Pages: 1 -->
<svg width="215pt" height="149pt"
 viewBox="0.00 0.00 214.75 149.00" xmlns="http://www.w3.org/2000/svg" xmlns:xlink="http://www.w3.org/1999/xlink">
<g id="graph0" class="graph" transform="scale(1 1) rotate(0) translate(4 145)">
<title>/github/workspace/INC/core_cleanup.h</title>
<!-- Node1 -->
<g id="Node000001" class="node">
<title>Node1</title>
<g id="a_Node000001"><a xlink:title=" ">
<polygon fill="#999999" stroke="#666666" points="136.25,-141 20.5,-141 20.5,-110.5 136.25,-110.5 136.25,-141"/>
<text text-anchor="start" x="28.5" y="-127.5" font-family="Helvetica,sans-Serif" font-size="10.00">/github/workspace/INC</text>
<text text-anchor="middle" x="78.38" y="-116.25" font-family="Helvetica,sans-Serif" font-size="10.00">/core_cleanup.h</text>
</a>
</g>
</g>
<!-- Node2 -->
<g id="Node000002" class="node">
<title>Node2</title>
<g id="a_Node000002"><a xlink:title=" ">
<polygon fill="#e0e0e0" stroke="#999999" points="76.75,-74.5 0,-74.5 0,-55.25 76.75,-55.25 76.75,-74.5"/>
<text text-anchor="middle" x="38.38" y="-61" font-family="Helvetica,sans-Serif" font-size="10.00">X11/keysym.h</text>
</a>
</g>
</g>
<!-- Node1&#45;&gt;Node2 -->
<g id="edge1_Node000001_Node000002" class="edge">
<title>Node1&#45;&gt;Node2</title>
<g id="a_edge1_Node000001_Node000002"><a xlink:title=" ">
<path fill="none" stroke="#63b8ff" d="M68.49,-110.2C63.16,-102.35 56.53,-92.6 50.85,-84.24"/>
<polygon fill="#63b8ff" stroke="#63b8ff" points="53.91,-82.51 45.39,-76.2 48.12,-86.44 53.91,-82.51"/>
</a>
</g>
</g>
<!-- Node3 -->
<g id="Node000003" class="node">
<title>Node3</title>
<g id="a_Node000003"><a xlink:href="types_8h.html" target="_top" xlink:title=" ">
<polygon fill="white" stroke="#666666" points="141.75,-74.5 95,-74.5 95,-55.25 141.75,-55.25 141.75,-74.5"/>
<text text-anchor="middle" x="118.38" y="-61" font-family="Helvetica,sans-Serif" font-size="10.00">types.h</text>
</a>
</g>
</g>
<!-- Node1&#45;&gt;Node3 -->
<g id="edge2_Node000001_Node000003" class="edge">
<title>Node1&#45;&gt;Node3</title>
<g id="a_edge2_Node000001_Node000003"><a xlink:title=" ">
<path fill="none" stroke="#63b8ff" d="M88.26,-110.2C93.59,-102.35 100.22,-92.6 105.9,-84.24"/>
<polygon fill="#63b8ff" stroke="#63b8ff" points="108.63,-86.44 111.36,-76.2 102.84,-82.51 108.63,-86.44"/>
</a>
</g>
</g>
<!-- Node4 -->
<g id="Node000004" class="node">
<title>Node4</title>
<g id="a_Node000004"><a xlink:title=" ">
<polygon fill="#e0e0e0" stroke="#999999" points="76.88,-19.25 21.88,-19.25 21.88,0 76.88,0 76.88,-19.25"/>
<text text-anchor="middle" x="49.38" y="-5.75" font-family="Helvetica,sans-Serif" font-size="10.00">stdbool.h</text>
</a>
</g>
</g>
<!-- Node3&#45;&gt;Node4 -->
<g id="edge3_Node000003_Node000004" class="edge">
<title>Node3&#45;&gt;Node4</title>
<g id="a_edge3_Node000003_Node000004"><a xlink:title=" ">
<path fill="none" stroke="#63b8ff" d="M106.67,-54.84C96.6,-47.07 81.83,-35.67 69.81,-26.4"/>
<polygon fill="#63b8ff" stroke="#63b8ff" points="72.16,-23.79 62.11,-20.45 67.88,-29.33 72.16,-23.79"/>
</a>
</g>
</g>
<!-- Node5 -->
<g id="Node000005" class="node">
<title>Node5</title>
<g id="a_Node000005"><a xlink:title=" ">
<polygon fill="#e0e0e0" stroke="#999999" points="141.75,-19.25 95,-19.25 95,0 141.75,0 141.75,-19.25"/>
<text text-anchor="middle" x="118.38" y="-5.75" font-family="Helvetica,sans-Serif" font-size="10.00">stdlib.h</text>
</a>
</g>
</g>
<!-- Node3&#45;&gt;Node5 -->
<g id="edge4_Node000003_Node000005" class="edge">
<title>Node3&#45;&gt;Node5</title>
<g id="a_edge4_Node000003_Node000005"><a xlink:title=" ">
<path fill="none" stroke="#63b8ff" d="M118.38,-55.08C118.38,-48.57 118.38,-39.42 118.38,-31.12"/>
<polygon fill="#63b8ff" stroke="#63b8ff" points="121.88,-31.12 118.38,-21.12 114.88,-31.12 121.88,-31.12"/>
</a>
</g>
</g>
<!-- Node6 -->
<g id="Node000006" class="node">
<title>Node6</title>
<g id="a_Node000006"><a xlink:title=" ">
<polygon fill="#e0e0e0" stroke="#999999" points="206.75,-19.25 160,-19.25 160,0 206.75,0 206.75,-19.25"/>
<text text-anchor="middle" x="183.38" y="-5.75" font-family="Helvetica,sans-Serif" font-size="10.00">limits.h</text>
</a>
</g>
</g>
<!-- Node3&#45;&gt;Node6 -->
<g id="edge5_Node000003_Node000006" class="edge">
<title>Node3&#45;&gt;Node6</title>
<g id="a_edge5_Node000003_Node000006"><a xlink:title=" ">
<path fill="none" stroke="#63b8ff" d="M129.4,-54.84C138.8,-47.15 152.52,-35.9 163.78,-26.68"/>
<polygon fill="#63b8ff" stroke="#63b8ff" points="165.82,-29.53 171.34,-20.48 161.39,-24.11 165.82,-29.53"/>
</a>
</g>
</g>
</g>
</svg>
