<?xml version="1.0" encoding="UTF-8" standalone="no"?>
<!DOCTYPE svg PUBLIC "-//W3C//DTD SVG 1.1//EN"
 "http://www.w3.org/Graphics/SVG/1.1/DTD/svg11.dtd">
<!-- Generated by graphviz version 9.0.0 (20230911.1827)
 -->
<!-- Title: validate_coordinate_values Pages: 1 -->
<svg width="418pt" height="64pt"
 viewBox="0.00 0.00 417.75 64.25" xmlns="http://www.w3.org/2000/svg" xmlns:xlink="http://www.w3.org/1999/xlink">
<g id="graph0" class="graph" transform="scale(1 1) rotate(0) translate(4 60.25)">
<title>validate_coordinate_values</title>
<!-- Node1 -->
<g id="Node000001" class="node">
<title>Node1</title>
<g id="a_Node000001"><a xlink:title=" ">
<polygon fill="#999999" stroke="#666666" points="100,-42.88 0,-42.88 0,-12.37 100,-12.37 100,-42.88"/>
<text text-anchor="start" x="8" y="-29.38" font-family="Helvetica,sans-Serif" font-size="10.00">validate_coordinate</text>
<text text-anchor="middle" x="50" y="-18.12" font-family="Helvetica,sans-Serif" font-size="10.00">_values</text>
</a>
</g>
</g>
<!-- Node2 -->
<g id="Node000002" class="node">
<title>Node2</title>
<g id="a_Node000002"><a xlink:href="check__range_8c.html#a31d1b2f2b0c6260cc272247fb1e281e4" target="_top" xlink:title=" ">
<polygon fill="white" stroke="#666666" points="223.25,-56.25 151.75,-56.25 151.75,-37 223.25,-37 223.25,-56.25"/>
<text text-anchor="middle" x="187.5" y="-42.75" font-family="Helvetica,sans-Serif" font-size="10.00">check_range</text>
</a>
</g>
</g>
<!-- Node1&#45;&gt;Node2 -->
<g id="edge1_Node000001_Node000002" class="edge">
<title>Node1&#45;&gt;Node2</title>
<g id="a_edge1_Node000001_Node000002"><a xlink:title=" ">
<path fill="none" stroke="#63b8ff" d="M100.3,-34.54C113.28,-36.36 127.23,-38.31 140.06,-40.11"/>
<polygon fill="#63b8ff" stroke="#63b8ff" points="139.56,-43.58 149.95,-41.5 140.54,-36.65 139.56,-43.58"/>
</a>
</g>
</g>
<!-- Node5 -->
<g id="Node000005" class="node">
<title>Node5</title>
<g id="a_Node000005"><a xlink:href="parse__utils_8c.html#a14e4a06978d8374fc830989e94b08140" target="_top" xlink:title=" ">
<polygon fill="white" stroke="#666666" points="239,-19.25 136,-19.25 136,0 239,0 239,-19.25"/>
<text text-anchor="middle" x="187.5" y="-5.75" font-family="Helvetica,sans-Serif" font-size="10.00">parse_check_length</text>
</a>
</g>
</g>
<!-- Node1&#45;&gt;Node5 -->
<g id="edge4_Node000001_Node000005" class="edge">
<title>Node1&#45;&gt;Node5</title>
<g id="a_edge4_Node000001_Node000005"><a xlink:title=" ">
<path fill="none" stroke="#63b8ff" d="M100.3,-21.08C108.12,-20.04 116.29,-18.95 124.36,-17.88"/>
<polygon fill="#63b8ff" stroke="#63b8ff" points="124.69,-21.37 134.14,-16.58 123.77,-14.43 124.69,-21.37"/>
</a>
</g>
</g>
<!-- Node3 -->
<g id="Node000003" class="node">
<title>Node3</title>
<g id="a_Node000003"><a xlink:href="ft__atod_8c.html#ad55518c88cf22904ac355596269be400" target="_top" xlink:title=" ">
<polygon fill="white" stroke="#666666" points="321,-56.25 275,-56.25 275,-37 321,-37 321,-56.25"/>
<text text-anchor="middle" x="298" y="-42.75" font-family="Helvetica,sans-Serif" font-size="10.00">ft_atod</text>
</a>
</g>
</g>
<!-- Node2&#45;&gt;Node3 -->
<g id="edge2_Node000002_Node000003" class="edge">
<title>Node2&#45;&gt;Node3</title>
<g id="a_edge2_Node000002_Node000003"><a xlink:title=" ">
<path fill="none" stroke="#63b8ff" d="M223.73,-46.62C236.39,-46.62 250.63,-46.62 263.17,-46.62"/>
<polygon fill="#63b8ff" stroke="#63b8ff" points="263.05,-50.13 273.05,-46.63 263.05,-43.13 263.05,-50.13"/>
</a>
</g>
</g>
<!-- Node4 -->
<g id="Node000004" class="node">
<title>Node4</title>
<g id="a_Node000004"><a xlink:href="LIBFT_2ft__isdigit_8c.html#a2cf15b8a1a277d1e2ce3654101a2003d" target="_top" xlink:title=" ">
<polygon fill="white" stroke="#666666" points="409.75,-56.25 357,-56.25 357,-37 409.75,-37 409.75,-56.25"/>
<text text-anchor="middle" x="383.38" y="-42.75" font-family="Helvetica,sans-Serif" font-size="10.00">ft_isdigit</text>
</a>
</g>
</g>
<!-- Node3&#45;&gt;Node4 -->
<g id="edge3_Node000003_Node000004" class="edge">
<title>Node3&#45;&gt;Node4</title>
<g id="a_edge3_Node000003_Node000004"><a xlink:title=" ">
<path fill="none" stroke="#63b8ff" d="M321.34,-46.62C328.75,-46.62 337.21,-46.62 345.42,-46.62"/>
<polygon fill="#63b8ff" stroke="#63b8ff" points="345.21,-50.13 355.21,-46.63 345.21,-43.13 345.21,-50.13"/>
</a>
</g>
</g>
</g>
</svg>
