<?xml version="1.0" encoding="UTF-8" standalone="no"?>
<!DOCTYPE svg PUBLIC "-//W3C//DTD SVG 1.1//EN"
 "http://www.w3.org/Graphics/SVG/1.1/DTD/svg11.dtd">
<!-- Generated by graphviz version 9.0.0 (20230911.1827)
 -->
<!-- Title: validate_ambient Pages: 1 -->
<svg width="788pt" height="212pt"
 viewBox="0.00 0.00 788.25 212.25" xmlns="http://www.w3.org/2000/svg" xmlns:xlink="http://www.w3.org/1999/xlink">
<g id="graph0" class="graph" transform="scale(1 1) rotate(0) translate(4 208.25)">
<title>validate_ambient</title>
<!-- Node1 -->
<g id="Node000001" class="node">
<title>Node1</title>
<g id="a_Node000001"><a xlink:title=" ">
<polygon fill="#999999" stroke="#666666" points="780.25,-111.25 690.75,-111.25 690.75,-92 780.25,-92 780.25,-111.25"/>
<text text-anchor="middle" x="735.5" y="-97.75" font-family="Helvetica,sans-Serif" font-size="10.00">validate_ambient</text>
</a>
</g>
</g>
<!-- Node2 -->
<g id="Node000002" class="node">
<title>Node2</title>
<g id="a_Node000002"><a xlink:href="parse__utils_8c.html#a3a792671ccd6560d6c42352319889a0c" target="_top" xlink:title=" ">
<polygon fill="white" stroke="#666666" points="654.75,-111.25 557.75,-111.25 557.75,-92 654.75,-92 654.75,-111.25"/>
<text text-anchor="middle" x="606.25" y="-97.75" font-family="Helvetica,sans-Serif" font-size="10.00">parse_validate_obj</text>
</a>
</g>
</g>
<!-- Node1&#45;&gt;Node2 -->
<g id="edge1_Node000001_Node000002" class="edge">
<title>Node1&#45;&gt;Node2</title>
<g id="a_edge1_Node000001_Node000002"><a xlink:title=" ">
<path fill="none" stroke="#63b8ff" d="M678.95,-101.62C671.05,-101.62 662.97,-101.62 655.23,-101.62"/>
<polygon fill="#63b8ff" stroke="#63b8ff" points="678.84,-105.13 688.84,-101.63 678.84,-98.13 678.84,-105.13"/>
</a>
</g>
</g>
<!-- Node3 -->
<g id="Node000003" class="node">
<title>Node3</title>
<g id="a_Node000003"><a xlink:href="parse__camera__light_8c.html#a0b2ac9083d47f8bf5eed5fbbb5576a19" target="_top" xlink:title=" ">
<polygon fill="white" stroke="#666666" points="521.75,-204.25 442,-204.25 442,-185 521.75,-185 521.75,-204.25"/>
<text text-anchor="middle" x="481.88" y="-190.75" font-family="Helvetica,sans-Serif" font-size="10.00">parse_ambient</text>
</a>
</g>
</g>
<!-- Node2&#45;&gt;Node3 -->
<g id="edge2_Node000002_Node000003" class="edge">
<title>Node2&#45;&gt;Node3</title>
<g id="a_edge2_Node000002_Node000003"><a xlink:title=" ">
<path fill="none" stroke="#63b8ff" d="M588.11,-119.86C572.07,-136.2 546.87,-160.07 521.75,-176.62 517.28,-179.57 512.25,-182.28 507.32,-184.66"/>
<polygon fill="#63b8ff" stroke="#63b8ff" points="590.55,-122.37 594.97,-112.75 585.51,-117.52 590.55,-122.37"/>
</a>
</g>
</g>
<!-- Node8 -->
<g id="Node000008" class="node">
<title>Node8</title>
<g id="a_Node000008"><a xlink:href="parse__camera__light_8c.html#a00b9b6a4aadecaaf341d2fc409582b39" target="_top" xlink:title=" ">
<polygon fill="white" stroke="#666666" points="520.62,-167.25 443.12,-167.25 443.12,-148 520.62,-148 520.62,-167.25"/>
<text text-anchor="middle" x="481.88" y="-153.75" font-family="Helvetica,sans-Serif" font-size="10.00">parse_camera</text>
</a>
</g>
</g>
<!-- Node2&#45;&gt;Node8 -->
<g id="edge7_Node000002_Node000008" class="edge">
<title>Node2&#45;&gt;Node8</title>
<g id="a_edge7_Node000002_Node000008"><a xlink:title=" ">
<path fill="none" stroke="#63b8ff" d="M573.1,-116.34C551.64,-126.16 523.98,-138.81 504.98,-147.51"/>
<polygon fill="#63b8ff" stroke="#63b8ff" points="574.36,-119.61 582,-112.27 571.45,-113.25 574.36,-119.61"/>
</a>
</g>
</g>
<!-- Node9 -->
<g id="Node000009" class="node">
<title>Node9</title>
<g id="a_Node000009"><a xlink:href="parse__objects_8c.html#a438a08a219ba336c395096067e52bb1b" target="_top" xlink:title=" ">
<polygon fill="white" stroke="#666666" points="521,-130.25 442.75,-130.25 442.75,-111 521,-111 521,-130.25"/>
<text text-anchor="middle" x="481.88" y="-116.75" font-family="Helvetica,sans-Serif" font-size="10.00">parse_cylinder</text>
</a>
</g>
</g>
<!-- Node2&#45;&gt;Node9 -->
<g id="edge9_Node000002_Node000009" class="edge">
<title>Node2&#45;&gt;Node9</title>
<g id="a_edge9_Node000002_Node000009"><a xlink:title=" ">
<path fill="none" stroke="#63b8ff" d="M546.4,-110.76C537.81,-112.1 529.17,-113.44 521.14,-114.68"/>
<polygon fill="#63b8ff" stroke="#63b8ff" points="546.75,-114.25 556.09,-109.26 545.67,-107.33 546.75,-114.25"/>
</a>
</g>
</g>
<!-- Node10 -->
<g id="Node000010" class="node">
<title>Node10</title>
<g id="a_Node000010"><a xlink:href="parse__camera__light_8c.html#aaa10205c0950a79dd43566074de7b0a0" target="_top" xlink:title=" ">
<polygon fill="white" stroke="#666666" points="513.5,-93.25 450.25,-93.25 450.25,-74 513.5,-74 513.5,-93.25"/>
<text text-anchor="middle" x="481.88" y="-79.75" font-family="Helvetica,sans-Serif" font-size="10.00">parse_light</text>
</a>
</g>
</g>
<!-- Node2&#45;&gt;Node10 -->
<g id="edge11_Node000002_Node000010" class="edge">
<title>Node2&#45;&gt;Node10</title>
<g id="a_edge11_Node000002_Node000010"><a xlink:title=" ">
<path fill="none" stroke="#63b8ff" d="M546.36,-92.96C535.05,-91.3 523.63,-89.62 513.65,-88.15"/>
<polygon fill="#63b8ff" stroke="#63b8ff" points="545.69,-96.4 556.09,-94.39 546.7,-89.48 545.69,-96.4"/>
</a>
</g>
</g>
<!-- Node11 -->
<g id="Node000011" class="node">
<title>Node11</title>
<g id="a_Node000011"><a xlink:href="parse__objects_8c.html#a7e641794acee51578d8539e361635c47" target="_top" xlink:title=" ">
<polygon fill="white" stroke="#666666" points="516.12,-56.25 447.62,-56.25 447.62,-37 516.12,-37 516.12,-56.25"/>
<text text-anchor="middle" x="481.88" y="-42.75" font-family="Helvetica,sans-Serif" font-size="10.00">parse_plane</text>
</a>
</g>
</g>
<!-- Node2&#45;&gt;Node11 -->
<g id="edge13_Node000002_Node000011" class="edge">
<title>Node2&#45;&gt;Node11</title>
<g id="a_edge13_Node000002_Node000011"><a xlink:title=" ">
<path fill="none" stroke="#63b8ff" d="M572.58,-86.94C551.28,-77.37 524.03,-65.12 505.18,-56.65"/>
<polygon fill="#63b8ff" stroke="#63b8ff" points="570.87,-90.01 581.42,-90.92 573.74,-83.62 570.87,-90.01"/>
</a>
</g>
</g>
<!-- Node12 -->
<g id="Node000012" class="node">
<title>Node12</title>
<g id="a_Node000012"><a xlink:href="parse__objects_8c.html#a6ab66800bec24ca2d8c0f6c781558f65" target="_top" xlink:title=" ">
<polygon fill="white" stroke="#666666" points="519.12,-19.25 444.62,-19.25 444.62,0 519.12,0 519.12,-19.25"/>
<text text-anchor="middle" x="481.88" y="-5.75" font-family="Helvetica,sans-Serif" font-size="10.00">parse_sphere</text>
</a>
</g>
</g>
<!-- Node2&#45;&gt;Node12 -->
<g id="edge15_Node000002_Node000012" class="edge">
<title>Node2&#45;&gt;Node12</title>
<g id="a_edge15_Node000002_Node000012"><a xlink:title=" ">
<path fill="none" stroke="#63b8ff" d="M588.06,-83.65C571.99,-67.54 546.78,-44 521.75,-27.62 517.27,-24.69 512.23,-21.99 507.31,-19.61"/>
<polygon fill="#63b8ff" stroke="#63b8ff" points="585.43,-85.97 594.93,-90.66 590.43,-81.07 585.43,-85.97"/>
</a>
</g>
</g>
<!-- Node4 -->
<g id="Node000004" class="node">
<title>Node4</title>
<g id="a_Node000004"><a xlink:href="parse__main_8c.html#a92aa268ea4b3d5c808364ca73d913cbe" target="_top" xlink:title=" ">
<polygon fill="white" stroke="#666666" points="406,-111.25 318,-111.25 318,-92 406,-92 406,-111.25"/>
<text text-anchor="middle" x="362" y="-97.75" font-family="Helvetica,sans-Serif" font-size="10.00">parse_func_redir</text>
</a>
</g>
</g>
<!-- Node3&#45;&gt;Node4 -->
<g id="edge3_Node000003_Node000004" class="edge">
<title>Node3&#45;&gt;Node4</title>
<g id="a_edge3_Node000003_Node000004"><a xlink:title=" ">
<path fill="none" stroke="#63b8ff" d="M446.18,-179.29C444.75,-178.43 443.35,-177.54 442,-176.62 413.37,-157.18 385.3,-127.21 371.62,-111.7"/>
<polygon fill="#63b8ff" stroke="#63b8ff" points="444.16,-182.17 454.62,-183.84 447.48,-176.01 444.16,-182.17"/>
</a>
</g>
</g>
<!-- Node5 -->
<g id="Node000005" class="node">
<title>Node5</title>
<g id="a_Node000005"><a xlink:href="parse__main_8c.html#a5d7da6ab7925ffda04b676ef38880723" target="_top" xlink:title="Reading a line from the given .rt file and splitting the given line with the space (&#39; &#39;) delimiter....">
<polygon fill="white" stroke="#666666" points="282,-111.25 186.5,-111.25 186.5,-92 282,-92 282,-111.25"/>
<text text-anchor="middle" x="234.25" y="-97.75" font-family="Helvetica,sans-Serif" font-size="10.00">parse_rt_read_line</text>
</a>
</g>
</g>
<!-- Node4&#45;&gt;Node5 -->
<g id="edge4_Node000004_Node000005" class="edge">
<title>Node4&#45;&gt;Node5</title>
<g id="a_edge4_Node000004_Node000005"><a xlink:title=" ">
<path fill="none" stroke="#63b8ff" d="M306.29,-101.62C298.36,-101.62 290.25,-101.62 282.48,-101.62"/>
<polygon fill="#63b8ff" stroke="#63b8ff" points="306.21,-105.13 316.21,-101.63 306.21,-98.13 306.21,-105.13"/>
</a>
</g>
</g>
<!-- Node6 -->
<g id="Node000006" class="node">
<title>Node6</title>
<g id="a_Node000006"><a xlink:href="parse__main_8c.html#a62c4de2f960942eba61e7de12c387ae4" target="_top" xlink:title="Entry function to parsing .rt file where the file is attempted to be opened, t_parse structure is ini...">
<polygon fill="white" stroke="#666666" points="150.5,-111.25 73,-111.25 73,-92 150.5,-92 150.5,-111.25"/>
<text text-anchor="middle" x="111.75" y="-97.75" font-family="Helvetica,sans-Serif" font-size="10.00">parse_rt_main</text>
</a>
</g>
</g>
<!-- Node5&#45;&gt;Node6 -->
<g id="edge5_Node000005_Node000006" class="edge">
<title>Node5&#45;&gt;Node6</title>
<g id="a_edge5_Node000005_Node000006"><a xlink:title=" ">
<path fill="none" stroke="#63b8ff" d="M174.86,-101.62C166.69,-101.62 158.47,-101.62 150.81,-101.62"/>
<polygon fill="#63b8ff" stroke="#63b8ff" points="174.8,-105.13 184.8,-101.63 174.8,-98.13 174.8,-105.13"/>
</a>
</g>
</g>
<!-- Node7 -->
<g id="Node000007" class="node">
<title>Node7</title>
<g id="a_Node000007"><a xlink:href="mini__ray_8c.html#a0c99d968a34e803d378692bde2e3f18f" target="_top" xlink:title=" ">
<polygon fill="white" stroke="#666666" points="37,-111.25 0,-111.25 0,-92 37,-92 37,-111.25"/>
<text text-anchor="middle" x="18.5" y="-97.75" font-family="Helvetica,sans-Serif" font-size="10.00">main</text>
</a>
</g>
</g>
<!-- Node6&#45;&gt;Node7 -->
<g id="edge6_Node000006_Node000007" class="edge">
<title>Node6&#45;&gt;Node7</title>
<g id="a_edge6_Node000006_Node000007"><a xlink:title=" ">
<path fill="none" stroke="#63b8ff" d="M61.23,-101.62C52.6,-101.62 44.15,-101.62 37.14,-101.62"/>
<polygon fill="#63b8ff" stroke="#63b8ff" points="61.07,-105.13 71.07,-101.63 61.07,-98.13 61.07,-105.13"/>
</a>
</g>
</g>
<!-- Node8&#45;&gt;Node4 -->
<g id="edge8_Node000008_Node000004" class="edge">
<title>Node8&#45;&gt;Node4</title>
<g id="a_edge8_Node000008_Node000004"><a xlink:title=" ">
<path fill="none" stroke="#63b8ff" d="M448.62,-142.73C446.38,-141.69 444.15,-140.64 442,-139.62 422.18,-130.27 399.66,-119.42 383.75,-111.71"/>
<polygon fill="#63b8ff" stroke="#63b8ff" points="447.14,-145.91 457.68,-146.95 450.09,-139.56 447.14,-145.91"/>
</a>
</g>
</g>
<!-- Node9&#45;&gt;Node4 -->
<g id="edge10_Node000009_Node000004" class="edge">
<title>Node9&#45;&gt;Node4</title>
<g id="a_edge10_Node000009_Node000004"><a xlink:title=" ">
<path fill="none" stroke="#63b8ff" d="M431.17,-112.61C422.86,-111.27 414.3,-109.89 406.17,-108.58"/>
<polygon fill="#63b8ff" stroke="#63b8ff" points="430.35,-116.03 440.78,-114.16 431.47,-109.12 430.35,-116.03"/>
</a>
</g>
</g>
<!-- Node10&#45;&gt;Node4 -->
<g id="edge12_Node000010_Node000004" class="edge">
<title>Node10&#45;&gt;Node4</title>
<g id="a_edge12_Node000010_Node000004"><a xlink:title=" ">
<path fill="none" stroke="#63b8ff" d="M438.79,-90.05C428.2,-91.67 416.82,-93.41 406.17,-95.03"/>
<polygon fill="#63b8ff" stroke="#63b8ff" points="439.05,-93.55 448.41,-88.58 437.99,-86.63 439.05,-93.55"/>
</a>
</g>
</g>
<!-- Node11&#45;&gt;Node4 -->
<g id="edge14_Node000011_Node000004" class="edge">
<title>Node11&#45;&gt;Node4</title>
<g id="a_edge14_Node000011_Node000004"><a xlink:title=" ">
<path fill="none" stroke="#63b8ff" d="M448.63,-61.54C446.39,-62.58 444.16,-63.62 442,-64.62 422.5,-73.7 400.33,-84.09 384.45,-91.55"/>
<polygon fill="#63b8ff" stroke="#63b8ff" points="450.1,-64.72 457.7,-57.34 447.16,-58.37 450.1,-64.72"/>
</a>
</g>
</g>
<!-- Node12&#45;&gt;Node4 -->
<g id="edge16_Node000012_Node000004" class="edge">
<title>Node12&#45;&gt;Node4</title>
<g id="a_edge16_Node000012_Node000004"><a xlink:title=" ">
<path fill="none" stroke="#63b8ff" d="M446.19,-24.97C444.75,-25.83 443.35,-26.72 442,-27.62 413.48,-46.85 385.37,-76.4 371.65,-91.69"/>
<polygon fill="#63b8ff" stroke="#63b8ff" points="447.48,-28.25 454.63,-20.43 444.17,-22.08 447.48,-28.25"/>
</a>
</g>
</g>
</g>
</svg>
