<?xml version="1.0" encoding="UTF-8" standalone="no"?>
<!DOCTYPE svg PUBLIC "-//W3C//DTD SVG 1.1//EN"
 "http://www.w3.org/Graphics/SVG/1.1/DTD/svg11.dtd">
<!-- Generated by graphviz version 9.0.0 (20230911.1827)
 -->
<!-- Title: parse_ambient Pages: 1 -->
<svg width="530pt" height="27pt"
 viewBox="0.00 0.00 529.75 27.25" xmlns="http://www.w3.org/2000/svg" xmlns:xlink="http://www.w3.org/1999/xlink">
<g id="graph0" class="graph" transform="scale(1 1) rotate(0) translate(4 23.25)">
<title>parse_ambient</title>
<!-- Node1 -->
<g id="Node000001" class="node">
<title>Node1</title>
<g id="a_Node000001"><a xlink:title=" ">
<polygon fill="#999999" stroke="#666666" points="521.75,-19.25 442,-19.25 442,0 521.75,0 521.75,-19.25"/>
<text text-anchor="middle" x="481.88" y="-5.75" font-family="Helvetica,sans-Serif" font-size="10.00">parse_ambient</text>
</a>
</g>
</g>
<!-- Node2 -->
<g id="Node000002" class="node">
<title>Node2</title>
<g id="a_Node000002"><a xlink:href="parse__main_8c.html#a92aa268ea4b3d5c808364ca73d913cbe" target="_top" xlink:title=" ">
<polygon fill="white" stroke="#666666" points="406,-19.25 318,-19.25 318,0 406,0 406,-19.25"/>
<text text-anchor="middle" x="362" y="-5.75" font-family="Helvetica,sans-Serif" font-size="10.00">parse_func_redir</text>
</a>
</g>
</g>
<!-- Node1&#45;&gt;Node2 -->
<g id="edge1_Node000001_Node000002" class="edge">
<title>Node1&#45;&gt;Node2</title>
<g id="a_edge1_Node000001_Node000002"><a xlink:title=" ">
<path fill="none" stroke="#63b8ff" d="M430.13,-9.62C422.14,-9.62 413.94,-9.62 406.14,-9.62"/>
<polygon fill="#63b8ff" stroke="#63b8ff" points="430.11,-13.13 440.11,-9.63 430.11,-6.13 430.11,-13.13"/>
</a>
</g>
</g>
<!-- Node3 -->
<g id="Node000003" class="node">
<title>Node3</title>
<g id="a_Node000003"><a xlink:href="parse__main_8c.html#a5d7da6ab7925ffda04b676ef38880723" target="_top" xlink:title="Reading a line from the given .rt file and splitting the given line with the space (&#39; &#39;) delimiter....">
<polygon fill="white" stroke="#666666" points="282,-19.25 186.5,-19.25 186.5,0 282,0 282,-19.25"/>
<text text-anchor="middle" x="234.25" y="-5.75" font-family="Helvetica,sans-Serif" font-size="10.00">parse_rt_read_line</text>
</a>
</g>
</g>
<!-- Node2&#45;&gt;Node3 -->
<g id="edge2_Node000002_Node000003" class="edge">
<title>Node2&#45;&gt;Node3</title>
<g id="a_edge2_Node000002_Node000003"><a xlink:title=" ">
<path fill="none" stroke="#63b8ff" d="M306.29,-9.62C298.36,-9.62 290.25,-9.62 282.48,-9.62"/>
<polygon fill="#63b8ff" stroke="#63b8ff" points="306.21,-13.13 316.21,-9.63 306.21,-6.13 306.21,-13.13"/>
</a>
</g>
</g>
<!-- Node4 -->
<g id="Node000004" class="node">
<title>Node4</title>
<g id="a_Node000004"><a xlink:href="parse__main_8c.html#a62c4de2f960942eba61e7de12c387ae4" target="_top" xlink:title="Entry function to parsing .rt file where the file is attempted to be opened, t_parse structure is ini...">
<polygon fill="white" stroke="#666666" points="150.5,-19.25 73,-19.25 73,0 150.5,0 150.5,-19.25"/>
<text text-anchor="middle" x="111.75" y="-5.75" font-family="Helvetica,sans-Serif" font-size="10.00">parse_rt_main</text>
</a>
</g>
</g>
<!-- Node3&#45;&gt;Node4 -->
<g id="edge3_Node000003_Node000004" class="edge">
<title>Node3&#45;&gt;Node4</title>
<g id="a_edge3_Node000003_Node000004"><a xlink:title=" ">
<path fill="none" stroke="#63b8ff" d="M174.86,-9.62C166.69,-9.62 158.47,-9.62 150.81,-9.62"/>
<polygon fill="#63b8ff" stroke="#63b8ff" points="174.8,-13.13 184.8,-9.63 174.8,-6.13 174.8,-13.13"/>
</a>
</g>
</g>
<!-- Node5 -->
<g id="Node000005" class="node">
<title>Node5</title>
<g id="a_Node000005"><a xlink:href="mini__ray_8c.html#a0c99d968a34e803d378692bde2e3f18f" target="_top" xlink:title=" ">
<polygon fill="white" stroke="#666666" points="37,-19.25 0,-19.25 0,0 37,0 37,-19.25"/>
<text text-anchor="middle" x="18.5" y="-5.75" font-family="Helvetica,sans-Serif" font-size="10.00">main</text>
</a>
</g>
</g>
<!-- Node4&#45;&gt;Node5 -->
<g id="edge4_Node000004_Node000005" class="edge">
<title>Node4&#45;&gt;Node5</title>
<g id="a_edge4_Node000004_Node000005"><a xlink:title=" ">
<path fill="none" stroke="#63b8ff" d="M61.23,-9.62C52.6,-9.62 44.15,-9.62 37.14,-9.62"/>
<polygon fill="#63b8ff" stroke="#63b8ff" points="61.07,-13.13 71.07,-9.63 61.07,-6.13 61.07,-13.13"/>
</a>
</g>
</g>
</g>
</svg>
