<?xml version="1.0" encoding="UTF-8" standalone="no"?>
<!DOCTYPE svg PUBLIC "-//W3C//DTD SVG 1.1//EN"
 "http://www.w3.org/Graphics/SVG/1.1/DTD/svg11.dtd">
<!-- Generated by graphviz version 9.0.0 (20230911.1827)
 -->
<!-- Title: parse_vector_components Pages: 1 -->
<svg width="417pt" height="46pt"
 viewBox="0.00 0.00 417.00 46.25" xmlns="http://www.w3.org/2000/svg" xmlns:xlink="http://www.w3.org/1999/xlink">
<g id="graph0" class="graph" transform="scale(1 1) rotate(0) translate(4 42.25)">
<title>parse_vector_components</title>
<!-- Node1 -->
<g id="Node000001" class="node">
<title>Node1</title>
<g id="a_Node000001"><a xlink:title=" ">
<polygon fill="#999999" stroke="#666666" points="130.75,-19.25 0,-19.25 0,0 130.75,0 130.75,-19.25"/>
<text text-anchor="middle" x="65.38" y="-5.75" font-family="Helvetica,sans-Serif" font-size="10.00">parse_vector_components</text>
</a>
</g>
</g>
<!-- Node2 -->
<g id="Node000002" class="node">
<title>Node2</title>
<g id="a_Node000002"><a xlink:href="check__range_8c.html#a31d1b2f2b0c6260cc272247fb1e281e4" target="_top" xlink:title=" ">
<polygon fill="white" stroke="#666666" points="238.25,-38.25 166.75,-38.25 166.75,-19 238.25,-19 238.25,-38.25"/>
<text text-anchor="middle" x="202.5" y="-24.75" font-family="Helvetica,sans-Serif" font-size="10.00">check_range</text>
</a>
</g>
</g>
<!-- Node1&#45;&gt;Node2 -->
<g id="edge1_Node000001_Node000002" class="edge">
<title>Node1&#45;&gt;Node2</title>
<g id="a_edge1_Node000001_Node000002"><a xlink:title=" ">
<path fill="none" stroke="#63b8ff" d="M131.17,-18.74C139.26,-19.87 147.41,-21.02 155.15,-22.11"/>
<polygon fill="#63b8ff" stroke="#63b8ff" points="154.62,-25.57 165.01,-23.49 155.6,-18.64 154.62,-25.57"/>
</a>
</g>
</g>
<!-- Node3 -->
<g id="Node000003" class="node">
<title>Node3</title>
<g id="a_Node000003"><a xlink:href="ft__atod_8c.html#ad55518c88cf22904ac355596269be400" target="_top" xlink:title=" ">
<polygon fill="white" stroke="#666666" points="320.25,-19.25 274.25,-19.25 274.25,0 320.25,0 320.25,-19.25"/>
<text text-anchor="middle" x="297.25" y="-5.75" font-family="Helvetica,sans-Serif" font-size="10.00">ft_atod</text>
</a>
</g>
</g>
<!-- Node1&#45;&gt;Node3 -->
<g id="edge4_Node000001_Node000003" class="edge">
<title>Node1&#45;&gt;Node3</title>
<g id="a_edge4_Node000001_Node000003"><a xlink:title=" ">
<path fill="none" stroke="#63b8ff" d="M131.02,-9.62C173.78,-9.62 228.12,-9.62 262.55,-9.62"/>
<polygon fill="#63b8ff" stroke="#63b8ff" points="262.34,-13.13 272.34,-9.63 262.34,-6.13 262.34,-13.13"/>
</a>
</g>
</g>
<!-- Node2&#45;&gt;Node3 -->
<g id="edge2_Node000002_Node000003" class="edge">
<title>Node2&#45;&gt;Node3</title>
<g id="a_edge2_Node000002_Node000003"><a xlink:title=" ">
<path fill="none" stroke="#63b8ff" d="M238.56,-21.44C246.49,-19.82 254.89,-18.1 262.75,-16.49"/>
<polygon fill="#63b8ff" stroke="#63b8ff" points="263.19,-19.97 272.28,-14.53 261.78,-13.11 263.19,-19.97"/>
</a>
</g>
</g>
<!-- Node4 -->
<g id="Node000004" class="node">
<title>Node4</title>
<g id="a_Node000004"><a xlink:href="LIBFT_2ft__isdigit_8c.html#a2cf15b8a1a277d1e2ce3654101a2003d" target="_top" xlink:title=" ">
<polygon fill="white" stroke="#666666" points="409,-19.25 356.25,-19.25 356.25,0 409,0 409,-19.25"/>
<text text-anchor="middle" x="382.62" y="-5.75" font-family="Helvetica,sans-Serif" font-size="10.00">ft_isdigit</text>
</a>
</g>
</g>
<!-- Node3&#45;&gt;Node4 -->
<g id="edge3_Node000003_Node000004" class="edge">
<title>Node3&#45;&gt;Node4</title>
<g id="a_edge3_Node000003_Node000004"><a xlink:title=" ">
<path fill="none" stroke="#63b8ff" d="M320.59,-9.62C328,-9.62 336.46,-9.62 344.67,-9.62"/>
<polygon fill="#63b8ff" stroke="#63b8ff" points="344.46,-13.13 354.46,-9.63 344.46,-6.13 344.46,-13.13"/>
</a>
</g>
</g>
</g>
</svg>
