<?xml version="1.0" encoding="UTF-8" standalone="no"?>
<!DOCTYPE svg PUBLIC "-//W3C//DTD SVG 1.1//EN"
 "http://www.w3.org/Graphics/SVG/1.1/DTD/svg11.dtd">
<!-- Generated by graphviz version 9.0.0 (20230911.1827)
 -->
<!-- Title: /github/workspace/INC/core_parse.h Pages: 1 -->
<svg width="1275pt" height="116pt"
 viewBox="0.00 0.00 1274.75 116.25" xmlns="http://www.w3.org/2000/svg" xmlns:xlink="http://www.w3.org/1999/xlink">
<g id="graph0" class="graph" transform="scale(1 1) rotate(0) translate(4 112.25)">
<title>/github/workspace/INC/core_parse.h</title>
<!-- Node1 -->
<g id="Node000001" class="node">
<title>Node1</title>
<g id="a_Node000001"><a xlink:title=" ">
<polygon fill="#999999" stroke="#666666" points="703.25,-108.25 587.5,-108.25 587.5,-77.75 703.25,-77.75 703.25,-108.25"/>
<text text-anchor="start" x="595.5" y="-94.75" font-family="Helvetica,sans-Serif" font-size="10.00">/github/workspace/INC</text>
<text text-anchor="middle" x="645.38" y="-83.5" font-family="Helvetica,sans-Serif" font-size="10.00">/core_parse.h</text>
</a>
</g>
</g>
<!-- Node2 -->
<g id="Node000002" class="node">
<title>Node2</title>
<g id="a_Node000002"><a xlink:href="parse__assign__coord__utils_8c.html" target="_top" xlink:title=" ">
<polygon fill="white" stroke="#666666" points="142.75,-41.75 0,-41.75 0,0 142.75,0 142.75,-41.75"/>
<text text-anchor="start" x="8" y="-28.25" font-family="Helvetica,sans-Serif" font-size="10.00">/github/workspace/SRC</text>
<text text-anchor="start" x="8" y="-17" font-family="Helvetica,sans-Serif" font-size="10.00">/CORE/PARSE/parse_assign</text>
<text text-anchor="middle" x="71.38" y="-5.75" font-family="Helvetica,sans-Serif" font-size="10.00">_coord_utils.c</text>
</a>
</g>
</g>
<!-- Node1&#45;&gt;Node2 -->
<g id="edge1_Node000001_Node000002" class="edge">
<title>Node1&#45;&gt;Node2</title>
<g id="a_edge1_Node000001_Node000002"><a xlink:title=" ">
<path fill="none" stroke="#63b8ff" d="M576.07,-87.98C480.29,-81.74 302.27,-67.65 152.38,-41.75 149.24,-41.21 146.04,-40.61 142.82,-39.98"/>
<polygon fill="#63b8ff" stroke="#63b8ff" points="575.62,-91.46 585.83,-88.61 576.07,-84.48 575.62,-91.46"/>
</a>
</g>
</g>
<!-- Node3 -->
<g id="Node000003" class="node">
<title>Node3</title>
<g id="a_Node000003"><a xlink:href="parse__camera__light_8c.html" target="_top" xlink:title=" ">
<polygon fill="white" stroke="#666666" points="307.62,-41.75 161.12,-41.75 161.12,0 307.62,0 307.62,-41.75"/>
<text text-anchor="start" x="169.12" y="-28.25" font-family="Helvetica,sans-Serif" font-size="10.00">/github/workspace/SRC</text>
<text text-anchor="start" x="169.12" y="-17" font-family="Helvetica,sans-Serif" font-size="10.00">/CORE/PARSE/parse_camera</text>
<text text-anchor="middle" x="234.38" y="-5.75" font-family="Helvetica,sans-Serif" font-size="10.00">_light.c</text>
</a>
</g>
</g>
<!-- Node1&#45;&gt;Node3 -->
<g id="edge2_Node000001_Node000003" class="edge">
<title>Node1&#45;&gt;Node3</title>
<g id="a_edge2_Node000001_Node000003"><a xlink:title=" ">
<path fill="none" stroke="#63b8ff" d="M575.88,-83.06C509.29,-74.09 406.09,-59.14 317.38,-41.75 314.32,-41.15 311.21,-40.52 308.07,-39.86"/>
<polygon fill="#63b8ff" stroke="#63b8ff" points="575.18,-86.5 585.56,-84.35 576.11,-79.56 575.18,-86.5"/>
</a>
</g>
</g>
<!-- Node4 -->
<g id="Node000004" class="node">
<title>Node4</title>
<g id="a_Node000004"><a xlink:href="parse__main_8c.html" target="_top" xlink:title=" ">
<polygon fill="white" stroke="#666666" points="468.75,-36.12 326,-36.12 326,-5.62 468.75,-5.62 468.75,-36.12"/>
<text text-anchor="start" x="334" y="-22.62" font-family="Helvetica,sans-Serif" font-size="10.00">/github/workspace/SRC</text>
<text text-anchor="middle" x="397.38" y="-11.38" font-family="Helvetica,sans-Serif" font-size="10.00">/CORE/PARSE/parse_main.c</text>
</a>
</g>
</g>
<!-- Node1&#45;&gt;Node4 -->
<g id="edge3_Node000001_Node000004" class="edge">
<title>Node1&#45;&gt;Node4</title>
<g id="a_edge3_Node000001_Node000004"><a xlink:title=" ">
<path fill="none" stroke="#63b8ff" d="M582.38,-74.19C541.19,-62.54 488.05,-47.51 449.3,-36.56"/>
<polygon fill="#63b8ff" stroke="#63b8ff" points="581.35,-77.53 591.93,-76.89 583.26,-70.8 581.35,-77.53"/>
</a>
</g>
</g>
<!-- Node5 -->
<g id="Node000005" class="node">
<title>Node5</title>
<g id="a_Node000005"><a xlink:href="parse__objects_8c.html" target="_top" xlink:title=" ">
<polygon fill="white" stroke="#666666" points="640,-36.12 486.75,-36.12 486.75,-5.62 640,-5.62 640,-36.12"/>
<text text-anchor="start" x="494.75" y="-22.62" font-family="Helvetica,sans-Serif" font-size="10.00">/github/workspace/SRC</text>
<text text-anchor="middle" x="563.38" y="-11.38" font-family="Helvetica,sans-Serif" font-size="10.00">/CORE/PARSE/parse_objects.c</text>
</a>
</g>
</g>
<!-- Node1&#45;&gt;Node5 -->
<g id="edge4_Node000001_Node000005" class="edge">
<title>Node1&#45;&gt;Node5</title>
<g id="a_edge4_Node000001_Node000005"><a xlink:title=" ">
<path fill="none" stroke="#63b8ff" d="M619.93,-70.24C607.05,-59.23 591.77,-46.16 580.34,-36.39"/>
<polygon fill="#63b8ff" stroke="#63b8ff" points="617.36,-72.65 627.23,-76.49 621.91,-67.33 617.36,-72.65"/>
</a>
</g>
</g>
<!-- Node6 -->
<g id="Node000006" class="node">
<title>Node6</title>
<g id="a_Node000006"><a xlink:href="parse__utils_8c.html" target="_top" xlink:title=" ">
<polygon fill="white" stroke="#666666" points="798.25,-36.12 658.5,-36.12 658.5,-5.62 798.25,-5.62 798.25,-36.12"/>
<text text-anchor="start" x="666.5" y="-22.62" font-family="Helvetica,sans-Serif" font-size="10.00">/github/workspace/SRC</text>
<text text-anchor="middle" x="728.38" y="-11.38" font-family="Helvetica,sans-Serif" font-size="10.00">/CORE/PARSE/parse_utils.c</text>
</a>
</g>
</g>
<!-- Node1&#45;&gt;Node6 -->
<g id="edge5_Node000001_Node000006" class="edge">
<title>Node1&#45;&gt;Node6</title>
<g id="a_edge5_Node000001_Node000006"><a xlink:title=" ">
<path fill="none" stroke="#63b8ff" d="M671.13,-70.24C684.16,-59.23 699.63,-46.16 711.2,-36.39"/>
<polygon fill="#63b8ff" stroke="#63b8ff" points="669.11,-67.37 663.73,-76.49 673.63,-72.71 669.11,-67.37"/>
</a>
</g>
</g>
<!-- Node7 -->
<g id="Node000007" class="node">
<title>Node7</title>
<g id="a_Node000007"><a xlink:href="parse__validate__assign__rgb__utils_8c.html" target="_top" xlink:title=" ">
<polygon fill="white" stroke="#666666" points="964.38,-41.75 816.38,-41.75 816.38,0 964.38,0 964.38,-41.75"/>
<text text-anchor="start" x="824.38" y="-28.25" font-family="Helvetica,sans-Serif" font-size="10.00">/github/workspace/SRC</text>
<text text-anchor="start" x="824.38" y="-17" font-family="Helvetica,sans-Serif" font-size="10.00">/CORE/PARSE/parse_validate</text>
<text text-anchor="middle" x="890.38" y="-5.75" font-family="Helvetica,sans-Serif" font-size="10.00">_assign_rgb_utils.c</text>
</a>
</g>
</g>
<!-- Node1&#45;&gt;Node7 -->
<g id="edge6_Node000001_Node000007" class="edge">
<title>Node1&#45;&gt;Node7</title>
<g id="a_edge6_Node000001_Node000007"><a xlink:title=" ">
<path fill="none" stroke="#63b8ff" d="M707.51,-74.22C741.65,-64.44 784.14,-52.28 819.57,-42.14"/>
<polygon fill="#63b8ff" stroke="#63b8ff" points="706.84,-70.77 698.19,-76.88 708.77,-77.5 706.84,-70.77"/>
</a>
</g>
</g>
<!-- Node8 -->
<g id="Node000008" class="node">
<title>Node8</title>
<g id="a_Node000008"><a xlink:href="parse__validate__obj__utils_8c.html" target="_top" xlink:title=" ">
<polygon fill="white" stroke="#666666" points="1130.38,-41.75 982.38,-41.75 982.38,0 1130.38,0 1130.38,-41.75"/>
<text text-anchor="start" x="990.38" y="-28.25" font-family="Helvetica,sans-Serif" font-size="10.00">/github/workspace/SRC</text>
<text text-anchor="start" x="990.38" y="-17" font-family="Helvetica,sans-Serif" font-size="10.00">/CORE/PARSE/parse_validate</text>
<text text-anchor="middle" x="1056.38" y="-5.75" font-family="Helvetica,sans-Serif" font-size="10.00">_obj_utils.c</text>
</a>
</g>
</g>
<!-- Node1&#45;&gt;Node8 -->
<g id="edge7_Node000001_Node000008" class="edge">
<title>Node1&#45;&gt;Node8</title>
<g id="a_edge7_Node000001_Node000008"><a xlink:title=" ">
<path fill="none" stroke="#63b8ff" d="M714.87,-83.06C781.46,-74.09 884.66,-59.14 973.38,-41.75 976.28,-41.18 979.24,-40.58 982.23,-39.95"/>
<polygon fill="#63b8ff" stroke="#63b8ff" points="714.64,-79.56 705.19,-84.35 715.57,-86.5 714.64,-79.56"/>
</a>
</g>
</g>
<!-- Node9 -->
<g id="Node000009" class="node">
<title>Node9</title>
<g id="a_Node000009"><a xlink:href="mini__ray_8c.html" target="_top" xlink:title=" ">
<polygon fill="white" stroke="#666666" points="1266.75,-36.12 1148,-36.12 1148,-5.62 1266.75,-5.62 1266.75,-36.12"/>
<text text-anchor="start" x="1156" y="-22.62" font-family="Helvetica,sans-Serif" font-size="10.00">/github/workspace/SRC</text>
<text text-anchor="middle" x="1207.38" y="-11.38" font-family="Helvetica,sans-Serif" font-size="10.00">/mini_ray.c</text>
</a>
</g>
</g>
<!-- Node1&#45;&gt;Node9 -->
<g id="edge8_Node000001_Node000009" class="edge">
<title>Node1&#45;&gt;Node9</title>
<g id="a_edge8_Node000001_Node000009"><a xlink:title=" ">
<path fill="none" stroke="#63b8ff" d="M714.99,-88.94C811.17,-83.79 989.78,-70.97 1139.38,-41.75 1146.5,-40.36 1153.95,-38.55 1161.2,-36.6"/>
<polygon fill="#63b8ff" stroke="#63b8ff" points="715,-85.43 705.19,-89.45 715.36,-92.42 715,-85.43"/>
</a>
</g>
</g>
</g>
</svg>
