<?xml version="1.0" encoding="UTF-8" standalone="no"?>
<!DOCTYPE svg PUBLIC "-//W3C//DTD SVG 1.1//EN"
 "http://www.w3.org/Graphics/SVG/1.1/DTD/svg11.dtd">
<!-- Generated by graphviz version 9.0.0 (20230911.1827)
 -->
<!-- Title: /github/workspace/INC/core_init.h Pages: 1 -->
<svg width="540pt" height="105pt"
 viewBox="0.00 0.00 539.75 105.00" xmlns="http://www.w3.org/2000/svg" xmlns:xlink="http://www.w3.org/1999/xlink">
<g id="graph0" class="graph" transform="scale(1 1) rotate(0) translate(4 101)">
<title>/github/workspace/INC/core_init.h</title>
<!-- Node1 -->
<g id="Node000001" class="node">
<title>Node1</title>
<g id="a_Node000001"><a xlink:title=" ">
<polygon fill="#999999" stroke="#666666" points="323.25,-97 207.5,-97 207.5,-66.5 323.25,-66.5 323.25,-97"/>
<text text-anchor="start" x="215.5" y="-83.5" font-family="Helvetica,sans-Serif" font-size="10.00">/github/workspace/INC</text>
<text text-anchor="middle" x="265.38" y="-72.25" font-family="Helvetica,sans-Serif" font-size="10.00">/core_init.h</text>
</a>
</g>
</g>
<!-- Node2 -->
<g id="Node000002" class="node">
<title>Node2</title>
<g id="a_Node000002"><a xlink:href="init__lux_8c.html" target="_top" xlink:title=" ">
<polygon fill="white" stroke="#666666" points="118.75,-30.5 0,-30.5 0,0 118.75,0 118.75,-30.5"/>
<text text-anchor="start" x="8" y="-17" font-family="Helvetica,sans-Serif" font-size="10.00">/github/workspace/SRC</text>
<text text-anchor="middle" x="59.38" y="-5.75" font-family="Helvetica,sans-Serif" font-size="10.00">/CORE/INIT/init_lux.c</text>
</a>
</g>
</g>
<!-- Node1&#45;&gt;Node2 -->
<g id="edge1_Node000001_Node000002" class="edge">
<title>Node1&#45;&gt;Node2</title>
<g id="a_edge1_Node000001_Node000002"><a xlink:title=" ">
<path fill="none" stroke="#63b8ff" d="M207.39,-62.59C175.4,-52.58 136.2,-40.3 106.18,-30.9"/>
<polygon fill="#63b8ff" stroke="#63b8ff" points="206.34,-65.93 216.93,-65.58 208.43,-59.25 206.34,-65.93"/>
</a>
</g>
</g>
<!-- Node3 -->
<g id="Node000003" class="node">
<title>Node3</title>
<g id="a_Node000003"><a xlink:href="init__mlx_8c.html" target="_top" xlink:title=" ">
<polygon fill="white" stroke="#666666" points="255.75,-30.5 137,-30.5 137,0 255.75,0 255.75,-30.5"/>
<text text-anchor="start" x="145" y="-17" font-family="Helvetica,sans-Serif" font-size="10.00">/github/workspace/SRC</text>
<text text-anchor="middle" x="196.38" y="-5.75" font-family="Helvetica,sans-Serif" font-size="10.00">/CORE/INIT/init_mlx.c</text>
</a>
</g>
</g>
<!-- Node1&#45;&gt;Node3 -->
<g id="edge2_Node000001_Node000003" class="edge">
<title>Node1&#45;&gt;Node3</title>
<g id="a_edge2_Node000001_Node000003"><a xlink:title=" ">
<path fill="none" stroke="#63b8ff" d="M241.53,-58.46C231.75,-49.32 220.69,-38.98 211.97,-30.83"/>
<polygon fill="#63b8ff" stroke="#63b8ff" points="238.92,-60.81 248.61,-65.08 243.7,-55.69 238.92,-60.81"/>
</a>
</g>
</g>
<!-- Node4 -->
<g id="Node000004" class="node">
<title>Node4</title>
<g id="a_Node000004"><a xlink:href="init__parse_8c.html" target="_top" xlink:title=" ">
<polygon fill="white" stroke="#666666" points="394.88,-30.5 273.88,-30.5 273.88,0 394.88,0 394.88,-30.5"/>
<text text-anchor="start" x="281.88" y="-17" font-family="Helvetica,sans-Serif" font-size="10.00">/github/workspace/SRC</text>
<text text-anchor="middle" x="334.38" y="-5.75" font-family="Helvetica,sans-Serif" font-size="10.00">/CORE/INIT/init_parse.c</text>
</a>
</g>
</g>
<!-- Node1&#45;&gt;Node4 -->
<g id="edge3_Node000001_Node000004" class="edge">
<title>Node1&#45;&gt;Node4</title>
<g id="a_edge3_Node000001_Node000004"><a xlink:title=" ">
<path fill="none" stroke="#63b8ff" d="M289.22,-58.46C299,-49.32 310.06,-38.98 318.78,-30.83"/>
<polygon fill="#63b8ff" stroke="#63b8ff" points="287.05,-55.69 282.14,-65.08 291.83,-60.81 287.05,-55.69"/>
</a>
</g>
</g>
<!-- Node5 -->
<g id="Node000005" class="node">
<title>Node5</title>
<g id="a_Node000005"><a xlink:href="mini__ray_8c.html" target="_top" xlink:title=" ">
<polygon fill="white" stroke="#666666" points="531.75,-30.5 413,-30.5 413,0 531.75,0 531.75,-30.5"/>
<text text-anchor="start" x="421" y="-17" font-family="Helvetica,sans-Serif" font-size="10.00">/github/workspace/SRC</text>
<text text-anchor="middle" x="472.38" y="-5.75" font-family="Helvetica,sans-Serif" font-size="10.00">/mini_ray.c</text>
</a>
</g>
</g>
<!-- Node1&#45;&gt;Node5 -->
<g id="edge4_Node000001_Node000005" class="edge">
<title>Node1&#45;&gt;Node5</title>
<g id="a_edge4_Node000001_Node000005"><a xlink:title=" ">
<path fill="none" stroke="#63b8ff" d="M323.23,-62.72C355.45,-52.68 395.05,-40.34 425.35,-30.9"/>
<polygon fill="#63b8ff" stroke="#63b8ff" points="322.56,-59.27 314.05,-65.58 324.64,-65.95 322.56,-59.27"/>
</a>
</g>
</g>
</g>
</svg>
