<?xml version="1.0" encoding="UTF-8" standalone="no"?>
<!DOCTYPE svg PUBLIC "-//W3C//DTD SVG 1.1//EN"
 "http://www.w3.org/Graphics/SVG/1.1/DTD/svg11.dtd">
<!-- Generated by graphviz version 9.0.0 (20230911.1827)
 -->
<!-- Title: validate_input_string Pages: 1 -->
<svg width="392pt" height="64pt"
 viewBox="0.00 0.00 391.50 64.25" xmlns="http://www.w3.org/2000/svg" xmlns:xlink="http://www.w3.org/1999/xlink">
<g id="graph0" class="graph" transform="scale(1 1) rotate(0) translate(4 60.25)">
<title>validate_input_string</title>
<!-- Node1 -->
<g id="Node000001" class="node">
<title>Node1</title>
<g id="a_Node000001"><a xlink:title=" ">
<polygon fill="#999999" stroke="#666666" points="105.25,-38.25 0,-38.25 0,-19 105.25,-19 105.25,-38.25"/>
<text text-anchor="middle" x="52.62" y="-24.75" font-family="Helvetica,sans-Serif" font-size="10.00">validate_input_string</text>
</a>
</g>
</g>
<!-- Node2 -->
<g id="Node000002" class="node">
<title>Node2</title>
<g id="a_Node000002"><a xlink:href="ft__strval_8c.html#adc216c7cf83a710b028bd1501e3d4e6b" target="_top" xlink:title="Checks if a given string consists of valid characters.">
<polygon fill="white" stroke="#666666" points="192.5,-38.25 141.25,-38.25 141.25,-19 192.5,-19 192.5,-38.25"/>
<text text-anchor="middle" x="166.88" y="-24.75" font-family="Helvetica,sans-Serif" font-size="10.00">ft_strval</text>
</a>
</g>
</g>
<!-- Node1&#45;&gt;Node2 -->
<g id="edge1_Node000001_Node000002" class="edge">
<title>Node1&#45;&gt;Node2</title>
<g id="a_edge1_Node000001_Node000002"><a xlink:title=" ">
<path fill="none" stroke="#63b8ff" d="M105.48,-28.62C113.55,-28.62 121.73,-28.62 129.36,-28.62"/>
<polygon fill="#63b8ff" stroke="#63b8ff" points="129.29,-32.13 139.29,-28.63 129.29,-25.13 129.29,-32.13"/>
</a>
</g>
</g>
<!-- Node3 -->
<g id="Node000003" class="node">
<title>Node3</title>
<g id="a_Node000003"><a xlink:href="LIBFT_2ft__isalnum_8c.html#a9c2c3821ea43ebdf97de07b123503f8b" target="_top" xlink:title=" ">
<polygon fill="white" stroke="#666666" points="289.5,-38.25 228.5,-38.25 228.5,-19 289.5,-19 289.5,-38.25"/>
<text text-anchor="middle" x="259" y="-24.75" font-family="Helvetica,sans-Serif" font-size="10.00">ft_isalnum</text>
</a>
</g>
</g>
<!-- Node2&#45;&gt;Node3 -->
<g id="edge2_Node000002_Node000003" class="edge">
<title>Node2&#45;&gt;Node3</title>
<g id="a_edge2_Node000002_Node000003"><a xlink:title=" ">
<path fill="none" stroke="#63b8ff" d="M192.98,-28.62C200.41,-28.62 208.76,-28.62 216.92,-28.62"/>
<polygon fill="#63b8ff" stroke="#63b8ff" points="216.72,-32.13 226.72,-28.63 216.72,-25.13 216.72,-32.13"/>
</a>
</g>
</g>
<!-- Node4 -->
<g id="Node000004" class="node">
<title>Node4</title>
<g id="a_Node000004"><a xlink:href="LIBFT_2ft__isalpha_8c.html#ac283963beaa3b8c7d09b78851cda297e" target="_top" xlink:title=" ">
<polygon fill="white" stroke="#666666" points="383.5,-56.25 325.5,-56.25 325.5,-37 383.5,-37 383.5,-56.25"/>
<text text-anchor="middle" x="354.5" y="-42.75" font-family="Helvetica,sans-Serif" font-size="10.00">ft_isalpha</text>
</a>
</g>
</g>
<!-- Node2&#45;&gt;Node4 -->
<g id="edge5_Node000002_Node000004" class="edge">
<title>Node2&#45;&gt;Node4</title>
<g id="a_edge5_Node000002_Node000004"><a xlink:title=" ">
<path fill="none" stroke="#63b8ff" d="M192.84,-38.32C203.63,-42.02 216.51,-45.79 228.5,-47.62 256.71,-51.94 288.91,-51.56 313.57,-50.17"/>
<polygon fill="#63b8ff" stroke="#63b8ff" points="313.76,-53.66 323.51,-49.52 313.3,-46.68 313.76,-53.66"/>
</a>
</g>
</g>
<!-- Node5 -->
<g id="Node000005" class="node">
<title>Node5</title>
<g id="a_Node000005"><a xlink:href="LIBFT_2ft__isdigit_8c.html#a2cf15b8a1a277d1e2ce3654101a2003d" target="_top" xlink:title=" ">
<polygon fill="white" stroke="#666666" points="380.88,-19.25 328.12,-19.25 328.12,0 380.88,0 380.88,-19.25"/>
<text text-anchor="middle" x="354.5" y="-5.75" font-family="Helvetica,sans-Serif" font-size="10.00">ft_isdigit</text>
</a>
</g>
</g>
<!-- Node2&#45;&gt;Node5 -->
<g id="edge6_Node000002_Node000005" class="edge">
<title>Node2&#45;&gt;Node5</title>
<g id="a_edge6_Node000002_Node000005"><a xlink:title=" ">
<path fill="none" stroke="#63b8ff" d="M192.84,-18.93C203.63,-15.23 216.51,-11.46 228.5,-9.62 257.94,-5.12 291.75,-5.45 316.78,-6.72"/>
<polygon fill="#63b8ff" stroke="#63b8ff" points="316.25,-10.19 326.44,-7.29 316.66,-3.2 316.25,-10.19"/>
</a>
</g>
</g>
<!-- Node3&#45;&gt;Node4 -->
<g id="edge3_Node000003_Node000004" class="edge">
<title>Node3&#45;&gt;Node4</title>
<g id="a_edge3_Node000003_Node000004"><a xlink:title=" ">
<path fill="none" stroke="#63b8ff" d="M289.84,-34.37C297.54,-35.85 305.95,-37.47 314.06,-39.03"/>
<polygon fill="#63b8ff" stroke="#63b8ff" points="313.25,-42.44 323.73,-40.89 314.57,-35.57 313.25,-42.44"/>
</a>
</g>
</g>
<!-- Node3&#45;&gt;Node5 -->
<g id="edge4_Node000003_Node000005" class="edge">
<title>Node3&#45;&gt;Node5</title>
<g id="a_edge4_Node000003_Node000005"><a xlink:title=" ">
<path fill="none" stroke="#63b8ff" d="M289.84,-22.56C298.31,-20.84 307.64,-18.94 316.49,-17.15"/>
<polygon fill="#63b8ff" stroke="#63b8ff" points="317.13,-20.59 326.23,-15.17 315.74,-13.73 317.13,-20.59"/>
</a>
</g>
</g>
</g>
</svg>
