<?xml version="1.0" encoding="UTF-8" standalone="no"?>
<!DOCTYPE svg PUBLIC "-//W3C//DTD SVG 1.1//EN"
 "http://www.w3.org/Graphics/SVG/1.1/DTD/svg11.dtd">
<!-- Generated by graphviz version 9.0.0 (20230911.1827)
 -->
<!-- Title: validate_rgb_string Pages: 1 -->
<svg width="384pt" height="64pt"
 viewBox="0.00 0.00 384.00 64.25" xmlns="http://www.w3.org/2000/svg" xmlns:xlink="http://www.w3.org/1999/xlink">
<g id="graph0" class="graph" transform="scale(1 1) rotate(0) translate(4 60.25)">
<title>validate_rgb_string</title>
<!-- Node1 -->
<g id="Node000001" class="node">
<title>Node1</title>
<g id="a_Node000001"><a xlink:title=" ">
<polygon fill="#999999" stroke="#666666" points="97.75,-38.25 0,-38.25 0,-19 97.75,-19 97.75,-38.25"/>
<text text-anchor="middle" x="48.88" y="-24.75" font-family="Helvetica,sans-Serif" font-size="10.00">validate_rgb_string</text>
</a>
</g>
</g>
<!-- Node2 -->
<g id="Node000002" class="node">
<title>Node2</title>
<g id="a_Node000002"><a xlink:href="ft__strval_8c.html#adc216c7cf83a710b028bd1501e3d4e6b" target="_top" xlink:title="Checks if a given string consists of valid characters.">
<polygon fill="white" stroke="#666666" points="185,-38.25 133.75,-38.25 133.75,-19 185,-19 185,-38.25"/>
<text text-anchor="middle" x="159.38" y="-24.75" font-family="Helvetica,sans-Serif" font-size="10.00">ft_strval</text>
</a>
</g>
</g>
<!-- Node1&#45;&gt;Node2 -->
<g id="edge1_Node000001_Node000002" class="edge">
<title>Node1&#45;&gt;Node2</title>
<g id="a_edge1_Node000001_Node000002"><a xlink:title=" ">
<path fill="none" stroke="#63b8ff" d="M98.1,-28.62C106.12,-28.62 114.32,-28.62 121.99,-28.62"/>
<polygon fill="#63b8ff" stroke="#63b8ff" points="121.97,-32.13 131.97,-28.63 121.97,-25.13 121.97,-32.13"/>
</a>
</g>
</g>
<!-- Node3 -->
<g id="Node000003" class="node">
<title>Node3</title>
<g id="a_Node000003"><a xlink:href="LIBFT_2ft__isalnum_8c.html#a9c2c3821ea43ebdf97de07b123503f8b" target="_top" xlink:title=" ">
<polygon fill="white" stroke="#666666" points="282,-38.25 221,-38.25 221,-19 282,-19 282,-38.25"/>
<text text-anchor="middle" x="251.5" y="-24.75" font-family="Helvetica,sans-Serif" font-size="10.00">ft_isalnum</text>
</a>
</g>
</g>
<!-- Node2&#45;&gt;Node3 -->
<g id="edge2_Node000002_Node000003" class="edge">
<title>Node2&#45;&gt;Node3</title>
<g id="a_edge2_Node000002_Node000003"><a xlink:title=" ">
<path fill="none" stroke="#63b8ff" d="M185.48,-28.62C192.91,-28.62 201.26,-28.62 209.42,-28.62"/>
<polygon fill="#63b8ff" stroke="#63b8ff" points="209.22,-32.13 219.22,-28.63 209.22,-25.13 209.22,-32.13"/>
</a>
</g>
</g>
<!-- Node4 -->
<g id="Node000004" class="node">
<title>Node4</title>
<g id="a_Node000004"><a xlink:href="LIBFT_2ft__isalpha_8c.html#ac283963beaa3b8c7d09b78851cda297e" target="_top" xlink:title=" ">
<polygon fill="white" stroke="#666666" points="376,-56.25 318,-56.25 318,-37 376,-37 376,-56.25"/>
<text text-anchor="middle" x="347" y="-42.75" font-family="Helvetica,sans-Serif" font-size="10.00">ft_isalpha</text>
</a>
</g>
</g>
<!-- Node2&#45;&gt;Node4 -->
<g id="edge5_Node000002_Node000004" class="edge">
<title>Node2&#45;&gt;Node4</title>
<g id="a_edge5_Node000002_Node000004"><a xlink:title=" ">
<path fill="none" stroke="#63b8ff" d="M185.34,-38.32C196.13,-42.02 209.01,-45.79 221,-47.62 249.21,-51.94 281.41,-51.56 306.07,-50.17"/>
<polygon fill="#63b8ff" stroke="#63b8ff" points="306.26,-53.66 316.01,-49.52 305.8,-46.68 306.26,-53.66"/>
</a>
</g>
</g>
<!-- Node5 -->
<g id="Node000005" class="node">
<title>Node5</title>
<g id="a_Node000005"><a xlink:href="LIBFT_2ft__isdigit_8c.html#a2cf15b8a1a277d1e2ce3654101a2003d" target="_top" xlink:title=" ">
<polygon fill="white" stroke="#666666" points="373.38,-19.25 320.62,-19.25 320.62,0 373.38,0 373.38,-19.25"/>
<text text-anchor="middle" x="347" y="-5.75" font-family="Helvetica,sans-Serif" font-size="10.00">ft_isdigit</text>
</a>
</g>
</g>
<!-- Node2&#45;&gt;Node5 -->
<g id="edge6_Node000002_Node000005" class="edge">
<title>Node2&#45;&gt;Node5</title>
<g id="a_edge6_Node000002_Node000005"><a xlink:title=" ">
<path fill="none" stroke="#63b8ff" d="M185.34,-18.93C196.13,-15.23 209.01,-11.46 221,-9.62 250.44,-5.12 284.25,-5.45 309.28,-6.72"/>
<polygon fill="#63b8ff" stroke="#63b8ff" points="308.75,-10.19 318.94,-7.29 309.16,-3.2 308.75,-10.19"/>
</a>
</g>
</g>
<!-- Node3&#45;&gt;Node4 -->
<g id="edge3_Node000003_Node000004" class="edge">
<title>Node3&#45;&gt;Node4</title>
<g id="a_edge3_Node000003_Node000004"><a xlink:title=" ">
<path fill="none" stroke="#63b8ff" d="M282.34,-34.37C290.04,-35.85 298.45,-37.47 306.56,-39.03"/>
<polygon fill="#63b8ff" stroke="#63b8ff" points="305.75,-42.44 316.23,-40.89 307.07,-35.57 305.75,-42.44"/>
</a>
</g>
</g>
<!-- Node3&#45;&gt;Node5 -->
<g id="edge4_Node000003_Node000005" class="edge">
<title>Node3&#45;&gt;Node5</title>
<g id="a_edge4_Node000003_Node000005"><a xlink:title=" ">
<path fill="none" stroke="#63b8ff" d="M282.34,-22.56C290.81,-20.84 300.14,-18.94 308.99,-17.15"/>
<polygon fill="#63b8ff" stroke="#63b8ff" points="309.63,-20.59 318.73,-15.17 308.24,-13.73 309.63,-20.59"/>
</a>
</g>
</g>
</g>
</svg>
