<?xml version="1.0" encoding="UTF-8" standalone="no"?>
<!DOCTYPE svg PUBLIC "-//W3C//DTD SVG 1.1//EN"
 "http://www.w3.org/Graphics/SVG/1.1/DTD/svg11.dtd">
<!-- Generated by graphviz version 9.0.0 (20230911.1827)
 -->
<!-- Title: /github/workspace/INC/core_cleanup.h Pages: 1 -->
<svg width="1023pt" height="105pt"
 viewBox="0.00 0.00 1022.62 105.00" xmlns="http://www.w3.org/2000/svg" xmlns:xlink="http://www.w3.org/1999/xlink">
<g id="graph0" class="graph" transform="scale(1 1) rotate(0) translate(4 101)">
<title>/github/workspace/INC/core_cleanup.h</title>
<!-- Node1 -->
<g id="Node000001" class="node">
<title>Node1</title>
<g id="a_Node000001"><a xlink:title=" ">
<polygon fill="#999999" stroke="#666666" points="560.12,-97 444.38,-97 444.38,-66.5 560.12,-66.5 560.12,-97"/>
<text text-anchor="start" x="452.38" y="-83.5" font-family="Helvetica,sans-Serif" font-size="10.00">/github/workspace/INC</text>
<text text-anchor="middle" x="502.25" y="-72.25" font-family="Helvetica,sans-Serif" font-size="10.00">/core_cleanup.h</text>
</a>
</g>
</g>
<!-- Node2 -->
<g id="Node000002" class="node">
<title>Node2</title>
<g id="a_Node000002"><a xlink:href="cleanup_8c.html" target="_top" xlink:title=" ">
<polygon fill="white" stroke="#666666" points="140.5,-30.5 0,-30.5 0,0 140.5,0 140.5,-30.5"/>
<text text-anchor="start" x="8" y="-17" font-family="Helvetica,sans-Serif" font-size="10.00">/github/workspace/SRC</text>
<text text-anchor="middle" x="70.25" y="-5.75" font-family="Helvetica,sans-Serif" font-size="10.00">/CORE/CLEANUP/cleanup.c</text>
</a>
</g>
</g>
<!-- Node1&#45;&gt;Node2 -->
<g id="edge1_Node000001_Node000002" class="edge">
<title>Node1&#45;&gt;Node2</title>
<g id="a_edge1_Node000001_Node000002"><a xlink:title=" ">
<path fill="none" stroke="#63b8ff" d="M432.89,-71.57C361.82,-61.99 248.17,-46.21 150.25,-30.5 147.19,-30.01 144.06,-29.5 140.9,-28.97"/>
<polygon fill="#63b8ff" stroke="#63b8ff" points="432.04,-74.98 442.42,-72.85 432.98,-68.05 432.04,-74.98"/>
</a>
</g>
</g>
<!-- Node3 -->
<g id="Node000003" class="node">
<title>Node3</title>
<g id="a_Node000003"><a xlink:href="init__lux_8c.html" target="_top" xlink:title=" ">
<polygon fill="white" stroke="#666666" points="277.62,-30.5 158.88,-30.5 158.88,0 277.62,0 277.62,-30.5"/>
<text text-anchor="start" x="166.88" y="-17" font-family="Helvetica,sans-Serif" font-size="10.00">/github/workspace/SRC</text>
<text text-anchor="middle" x="218.25" y="-5.75" font-family="Helvetica,sans-Serif" font-size="10.00">/CORE/INIT/init_lux.c</text>
</a>
</g>
</g>
<!-- Node1&#45;&gt;Node3 -->
<g id="edge2_Node000001_Node000003" class="edge">
<title>Node1&#45;&gt;Node3</title>
<g id="a_edge2_Node000001_Node000003"><a xlink:title=" ">
<path fill="none" stroke="#63b8ff" d="M432.97,-65.02C385.46,-54.23 323.07,-40.06 277.8,-29.77"/>
<polygon fill="#63b8ff" stroke="#63b8ff" points="432.09,-68.4 442.62,-67.21 433.64,-61.58 432.09,-68.4"/>
</a>
</g>
</g>
<!-- Node4 -->
<g id="Node000004" class="node">
<title>Node4</title>
<g id="a_Node000004"><a xlink:href="init__mlx_8c.html" target="_top" xlink:title=" ">
<polygon fill="white" stroke="#666666" points="414.62,-30.5 295.88,-30.5 295.88,0 414.62,0 414.62,-30.5"/>
<text text-anchor="start" x="303.88" y="-17" font-family="Helvetica,sans-Serif" font-size="10.00">/github/workspace/SRC</text>
<text text-anchor="middle" x="355.25" y="-5.75" font-family="Helvetica,sans-Serif" font-size="10.00">/CORE/INIT/init_mlx.c</text>
</a>
</g>
</g>
<!-- Node1&#45;&gt;Node4 -->
<g id="edge3_Node000001_Node000004" class="edge">
<title>Node1&#45;&gt;Node4</title>
<g id="a_edge3_Node000001_Node000004"><a xlink:title=" ">
<path fill="none" stroke="#63b8ff" d="M458.64,-61.62C436.27,-51.8 409.45,-40.03 388.73,-30.94"/>
<polygon fill="#63b8ff" stroke="#63b8ff" points="456.94,-64.69 467.51,-65.51 459.76,-58.28 456.94,-64.69"/>
</a>
</g>
</g>
<!-- Node5 -->
<g id="Node000005" class="node">
<title>Node5</title>
<g id="a_Node000005"><a xlink:href="input__validate_8c.html" target="_top" xlink:title=" ">
<polygon fill="white" stroke="#666666" points="571.75,-30.5 432.75,-30.5 432.75,0 571.75,0 571.75,-30.5"/>
<text text-anchor="start" x="440.75" y="-17" font-family="Helvetica,sans-Serif" font-size="10.00">/github/workspace/SRC</text>
<text text-anchor="middle" x="502.25" y="-5.75" font-family="Helvetica,sans-Serif" font-size="10.00">/CORE/INIT/input_validate.c</text>
</a>
</g>
</g>
<!-- Node1&#45;&gt;Node5 -->
<g id="edge4_Node000001_Node000005" class="edge">
<title>Node1&#45;&gt;Node5</title>
<g id="a_edge4_Node000001_Node000005"><a xlink:title=" ">
<path fill="none" stroke="#63b8ff" d="M502.25,-54.81C502.25,-46.64 502.25,-37.91 502.25,-30.83"/>
<polygon fill="#63b8ff" stroke="#63b8ff" points="498.75,-54.6 502.25,-64.6 505.75,-54.6 498.75,-54.6"/>
</a>
</g>
</g>
<!-- Node6 -->
<g id="Node000006" class="node">
<title>Node6</title>
<g id="a_Node000006"><a xlink:href="parse__main_8c.html" target="_top" xlink:title=" ">
<polygon fill="white" stroke="#666666" points="732.62,-30.5 589.88,-30.5 589.88,0 732.62,0 732.62,-30.5"/>
<text text-anchor="start" x="597.88" y="-17" font-family="Helvetica,sans-Serif" font-size="10.00">/github/workspace/SRC</text>
<text text-anchor="middle" x="661.25" y="-5.75" font-family="Helvetica,sans-Serif" font-size="10.00">/CORE/PARSE/parse_main.c</text>
</a>
</g>
</g>
<!-- Node1&#45;&gt;Node6 -->
<g id="edge5_Node000001_Node000006" class="edge">
<title>Node1&#45;&gt;Node6</title>
<g id="a_edge5_Node000001_Node000006"><a xlink:title=" ">
<path fill="none" stroke="#63b8ff" d="M548.76,-61.88C573.09,-52.01 602.42,-40.11 625.04,-30.94"/>
<polygon fill="#63b8ff" stroke="#63b8ff" points="547.68,-58.54 539.73,-65.54 550.31,-65.03 547.68,-58.54"/>
</a>
</g>
</g>
<!-- Node7 -->
<g id="Node000007" class="node">
<title>Node7</title>
<g id="a_Node000007"><a xlink:href="render_8c.html" target="_top" xlink:title=" ">
<polygon fill="white" stroke="#666666" points="877.38,-30.5 751.12,-30.5 751.12,0 877.38,0 877.38,-30.5"/>
<text text-anchor="start" x="759.12" y="-17" font-family="Helvetica,sans-Serif" font-size="10.00">/github/workspace/SRC</text>
<text text-anchor="middle" x="814.25" y="-5.75" font-family="Helvetica,sans-Serif" font-size="10.00">/CORE/RENDER/render.c</text>
</a>
</g>
</g>
<!-- Node1&#45;&gt;Node7 -->
<g id="edge6_Node000001_Node000007" class="edge">
<title>Node1&#45;&gt;Node7</title>
<g id="a_edge6_Node000001_Node000007"><a xlink:title=" ">
<path fill="none" stroke="#63b8ff" d="M571.69,-66.39C625.29,-55.31 698.84,-40.11 750.85,-29.36"/>
<polygon fill="#63b8ff" stroke="#63b8ff" points="571.14,-62.94 562.05,-68.39 572.55,-69.79 571.14,-62.94"/>
</a>
</g>
</g>
<!-- Node8 -->
<g id="Node000008" class="node">
<title>Node8</title>
<g id="a_Node000008"><a xlink:href="mini__ray_8c.html" target="_top" xlink:title=" ">
<polygon fill="white" stroke="#666666" points="1014.62,-30.5 895.88,-30.5 895.88,0 1014.62,0 1014.62,-30.5"/>
<text text-anchor="start" x="903.88" y="-17" font-family="Helvetica,sans-Serif" font-size="10.00">/github/workspace/SRC</text>
<text text-anchor="middle" x="955.25" y="-5.75" font-family="Helvetica,sans-Serif" font-size="10.00">/mini_ray.c</text>
</a>
</g>
</g>
<!-- Node1&#45;&gt;Node8 -->
<g id="edge7_Node000001_Node000008" class="edge">
<title>Node1&#45;&gt;Node8</title>
<g id="a_edge7_Node000001_Node000008"><a xlink:title=" ">
<path fill="none" stroke="#63b8ff" d="M571.34,-73.26C648.39,-64.55 776.61,-48.97 886.25,-30.5 889.27,-29.99 892.35,-29.45 895.46,-28.88"/>
<polygon fill="#63b8ff" stroke="#63b8ff" points="571.4,-69.73 561.85,-74.33 572.18,-76.69 571.4,-69.73"/>
</a>
</g>
</g>
</g>
</svg>
