<?xml version="1.0" encoding="UTF-8" standalone="no"?>
<!DOCTYPE svg PUBLIC "-//W3C//DTD SVG 1.1//EN"
 "http://www.w3.org/Graphics/SVG/1.1/DTD/svg11.dtd">
<!-- Generated by graphviz version 9.0.0 (20230911.1827)
 -->
<!-- Title: parse_transparency Pages: 1 -->
<svg width="419pt" height="156pt"
 viewBox="0.00 0.00 418.50 156.25" xmlns="http://www.w3.org/2000/svg" xmlns:xlink="http://www.w3.org/1999/xlink">
<g id="graph0" class="graph" transform="scale(1 1) rotate(0) translate(4 152.25)">
<title>parse_transparency</title>
<!-- Node1 -->
<g id="Node000001" class="node">
<title>Node1</title>
<g id="a_Node000001"><a xlink:title=" ">
<polygon fill="#999999" stroke="#666666" points="100.75,-74.25 0,-74.25 0,-55 100.75,-55 100.75,-74.25"/>
<text text-anchor="middle" x="50.38" y="-60.75" font-family="Helvetica,sans-Serif" font-size="10.00">parse_transparency</text>
</a>
</g>
</g>
<!-- Node2 -->
<g id="Node000002" class="node">
<title>Node2</title>
<g id="a_Node000002"><a xlink:href="check__range_8c.html#a31d1b2f2b0c6260cc272247fb1e281e4" target="_top" xlink:title=" ">
<polygon fill="white" stroke="#666666" points="224,-148.25 152.5,-148.25 152.5,-129 224,-129 224,-148.25"/>
<text text-anchor="middle" x="188.25" y="-134.75" font-family="Helvetica,sans-Serif" font-size="10.00">check_range</text>
</a>
</g>
</g>
<!-- Node1&#45;&gt;Node2 -->
<g id="edge1_Node000001_Node000002" class="edge">
<title>Node1&#45;&gt;Node2</title>
<g id="a_edge1_Node000001_Node000002"><a xlink:title=" ">
<path fill="none" stroke="#63b8ff" d="M64.38,-74.58C80.63,-86.68 109.61,-107.13 136.75,-120.62 139.3,-121.89 141.97,-123.12 144.68,-124.29"/>
<polygon fill="#63b8ff" stroke="#63b8ff" points="143.26,-127.49 153.85,-127.96 145.86,-120.99 143.26,-127.49"/>
</a>
</g>
</g>
<!-- Node5 -->
<g id="Node000005" class="node">
<title>Node5</title>
<g id="a_Node000005"><a xlink:href="colour_8c.html#a06b140860c7d645321abb45ead50e04b" target="_top" xlink:title=" ">
<polygon fill="white" stroke="#666666" points="209.38,-93.25 167.12,-93.25 167.12,-74 209.38,-74 209.38,-93.25"/>
<text text-anchor="middle" x="188.25" y="-79.75" font-family="Helvetica,sans-Serif" font-size="10.00">colour</text>
</a>
</g>
</g>
<!-- Node1&#45;&gt;Node5 -->
<g id="edge4_Node000001_Node000005" class="edge">
<title>Node1&#45;&gt;Node5</title>
<g id="a_edge4_Node000001_Node000005"><a xlink:title=" ">
<path fill="none" stroke="#63b8ff" d="M101.2,-71.59C119.48,-74.15 139.65,-76.97 155.87,-79.24"/>
<polygon fill="#63b8ff" stroke="#63b8ff" points="155.01,-82.65 165.4,-80.57 155.98,-75.72 155.01,-82.65"/>
</a>
</g>
</g>
<!-- Node6 -->
<g id="Node000006" class="node">
<title>Node6</title>
<g id="a_Node000006"><a xlink:href="ft__atoi_8c.html#afad2ec371b4188602da9a94db687cb16" target="_top" xlink:title=" ">
<polygon fill="white" stroke="#666666" points="209.75,-56.25 166.75,-56.25 166.75,-37 209.75,-37 209.75,-56.25"/>
<text text-anchor="middle" x="188.25" y="-42.75" font-family="Helvetica,sans-Serif" font-size="10.00">ft_atoi</text>
</a>
</g>
</g>
<!-- Node1&#45;&gt;Node6 -->
<g id="edge6_Node000001_Node000006" class="edge">
<title>Node1&#45;&gt;Node6</title>
<g id="a_edge6_Node000001_Node000006"><a xlink:title=" ">
<path fill="none" stroke="#63b8ff" d="M101.2,-58.02C119.36,-55.62 139.39,-52.97 155.55,-50.83"/>
<polygon fill="#63b8ff" stroke="#63b8ff" points="155.59,-54.35 165.05,-49.57 154.67,-47.41 155.59,-54.35"/>
</a>
</g>
</g>
<!-- Node7 -->
<g id="Node000007" class="node">
<title>Node7</title>
<g id="a_Node000007"><a xlink:href="parse__utils_8c.html#a14e4a06978d8374fc830989e94b08140" target="_top" xlink:title=" ">
<polygon fill="white" stroke="#666666" points="239.75,-19.25 136.75,-19.25 136.75,0 239.75,0 239.75,-19.25"/>
<text text-anchor="middle" x="188.25" y="-5.75" font-family="Helvetica,sans-Serif" font-size="10.00">parse_check_length</text>
</a>
</g>
</g>
<!-- Node1&#45;&gt;Node7 -->
<g id="edge7_Node000001_Node000007" class="edge">
<title>Node1&#45;&gt;Node7</title>
<g id="a_edge7_Node000001_Node000007"><a xlink:title=" ">
<path fill="none" stroke="#63b8ff" d="M73.32,-54.64C90.46,-46.95 114.96,-36.22 136.75,-27.62 140.17,-26.28 143.74,-24.91 147.32,-23.58"/>
<polygon fill="#63b8ff" stroke="#63b8ff" points="148.4,-26.91 156.6,-20.19 146,-20.33 148.4,-26.91"/>
</a>
</g>
</g>
<!-- Node3 -->
<g id="Node000003" class="node">
<title>Node3</title>
<g id="a_Node000003"><a xlink:href="ft__atod_8c.html#ad55518c88cf22904ac355596269be400" target="_top" xlink:title=" ">
<polygon fill="white" stroke="#666666" points="321.75,-148.25 275.75,-148.25 275.75,-129 321.75,-129 321.75,-148.25"/>
<text text-anchor="middle" x="298.75" y="-134.75" font-family="Helvetica,sans-Serif" font-size="10.00">ft_atod</text>
</a>
</g>
</g>
<!-- Node2&#45;&gt;Node3 -->
<g id="edge2_Node000002_Node000003" class="edge">
<title>Node2&#45;&gt;Node3</title>
<g id="a_edge2_Node000002_Node000003"><a xlink:title=" ">
<path fill="none" stroke="#63b8ff" d="M224.48,-138.62C237.14,-138.62 251.38,-138.62 263.92,-138.62"/>
<polygon fill="#63b8ff" stroke="#63b8ff" points="263.8,-142.13 273.8,-138.63 263.8,-135.13 263.8,-142.13"/>
</a>
</g>
</g>
<!-- Node4 -->
<g id="Node000004" class="node">
<title>Node4</title>
<g id="a_Node000004"><a xlink:href="LIBFT_2ft__isdigit_8c.html#a2cf15b8a1a277d1e2ce3654101a2003d" target="_top" xlink:title=" ">
<polygon fill="white" stroke="#666666" points="410.5,-148.25 357.75,-148.25 357.75,-129 410.5,-129 410.5,-148.25"/>
<text text-anchor="middle" x="384.12" y="-134.75" font-family="Helvetica,sans-Serif" font-size="10.00">ft_isdigit</text>
</a>
</g>
</g>
<!-- Node3&#45;&gt;Node4 -->
<g id="edge3_Node000003_Node000004" class="edge">
<title>Node3&#45;&gt;Node4</title>
<g id="a_edge3_Node000003_Node000004"><a xlink:title=" ">
<path fill="none" stroke="#63b8ff" d="M322.09,-138.62C329.5,-138.62 337.96,-138.62 346.17,-138.62"/>
<polygon fill="#63b8ff" stroke="#63b8ff" points="345.96,-142.13 355.96,-138.63 345.96,-135.13 345.96,-142.13"/>
</a>
</g>
</g>
<!-- Node5&#45;&gt;Node5 -->
<g id="edge5_Node000005_Node000005" class="edge">
<title>Node5&#45;&gt;Node5</title>
<g id="a_edge5_Node000005_Node000005"><a xlink:title=" ">
<path fill="none" stroke="#63b8ff" d="M170.95,-93.54C163.06,-102.15 168.83,-111.25 188.25,-111.25 198.87,-111.25 205.41,-108.53 207.86,-104.65"/>
<polygon fill="#63b8ff" stroke="#63b8ff" points="211.32,-104.1 205.86,-95.02 204.47,-105.52 211.32,-104.1"/>
</a>
</g>
</g>
</g>
</svg>
