<?xml version="1.0" encoding="UTF-8" standalone="no"?>
<!DOCTYPE svg PUBLIC "-//W3C//DTD SVG 1.1//EN"
 "http://www.w3.org/Graphics/SVG/1.1/DTD/svg11.dtd">
<!-- Generated by graphviz version 9.0.0 (20230911.1827)
 -->
<!-- Title: /github/workspace/INC/core_init.h Pages: 1 -->
<svg width="345pt" height="149pt"
 viewBox="0.00 0.00 345.00 149.00" xmlns="http://www.w3.org/2000/svg" xmlns:xlink="http://www.w3.org/1999/xlink">
<g id="graph0" class="graph" transform="scale(1 1) rotate(0) translate(4 145)">
<title>/github/workspace/INC/core_init.h</title>
<!-- Node1 -->
<g id="Node000001" class="node">
<title>Node1</title>
<g id="a_Node000001"><a xlink:title=" ">
<polygon fill="#999999" stroke="#666666" points="245.38,-141 129.62,-141 129.62,-110.5 245.38,-110.5 245.38,-141"/>
<text text-anchor="start" x="137.62" y="-127.5" font-family="Helvetica,sans-Serif" font-size="10.00">/github/workspace/INC</text>
<text text-anchor="middle" x="187.5" y="-116.25" font-family="Helvetica,sans-Serif" font-size="10.00">/core_init.h</text>
</a>
</g>
</g>
<!-- Node2 -->
<g id="Node000002" class="node">
<title>Node2</title>
<g id="a_Node000002"><a xlink:href="types_8h.html" target="_top" xlink:title=" ">
<polygon fill="white" stroke="#666666" points="119.88,-74.5 73.12,-74.5 73.12,-55.25 119.88,-55.25 119.88,-74.5"/>
<text text-anchor="middle" x="96.5" y="-61" font-family="Helvetica,sans-Serif" font-size="10.00">types.h</text>
</a>
</g>
</g>
<!-- Node1&#45;&gt;Node2 -->
<g id="edge1_Node000001_Node000002" class="edge">
<title>Node1&#45;&gt;Node2</title>
<g id="a_edge1_Node000001_Node000002"><a xlink:title=" ">
<path fill="none" stroke="#63b8ff" d="M165.01,-110.2C151.28,-101.32 133.77,-89.99 119.89,-81.01"/>
<polygon fill="#63b8ff" stroke="#63b8ff" points="122.1,-78.27 111.8,-75.77 118.29,-84.14 122.1,-78.27"/>
</a>
</g>
</g>
<!-- Node6 -->
<g id="Node000006" class="node">
<title>Node6</title>
<g id="a_Node000006"><a xlink:title=" ">
<polygon fill="#e0e0e0" stroke="#999999" points="176.75,-74.5 138.25,-74.5 138.25,-55.25 176.75,-55.25 176.75,-74.5"/>
<text text-anchor="middle" x="157.5" y="-61" font-family="Helvetica,sans-Serif" font-size="10.00">mlx.h</text>
</a>
</g>
</g>
<!-- Node1&#45;&gt;Node6 -->
<g id="edge5_Node000001_Node000006" class="edge">
<title>Node1&#45;&gt;Node6</title>
<g id="a_edge5_Node000001_Node000006"><a xlink:title=" ">
<path fill="none" stroke="#63b8ff" d="M180.08,-110.2C176.22,-102.61 171.44,-93.24 167.28,-85.07"/>
<polygon fill="#63b8ff" stroke="#63b8ff" points="170.47,-83.62 162.81,-76.3 164.23,-86.8 170.47,-83.62"/>
</a>
</g>
</g>
<!-- Node7 -->
<g id="Node000007" class="node">
<title>Node7</title>
<g id="a_Node000007"><a xlink:title=" ">
<polygon fill="#e0e0e0" stroke="#999999" points="240.12,-74.5 194.88,-74.5 194.88,-55.25 240.12,-55.25 240.12,-74.5"/>
<text text-anchor="middle" x="217.5" y="-61" font-family="Helvetica,sans-Serif" font-size="10.00">errno.h</text>
</a>
</g>
</g>
<!-- Node1&#45;&gt;Node7 -->
<g id="edge6_Node000001_Node000007" class="edge">
<title>Node1&#45;&gt;Node7</title>
<g id="a_edge6_Node000001_Node000007"><a xlink:title=" ">
<path fill="none" stroke="#63b8ff" d="M194.92,-110.2C198.78,-102.61 203.56,-93.24 207.72,-85.07"/>
<polygon fill="#63b8ff" stroke="#63b8ff" points="210.77,-86.8 212.19,-76.3 204.53,-83.62 210.77,-86.8"/>
</a>
</g>
</g>
<!-- Node8 -->
<g id="Node000008" class="node">
<title>Node8</title>
<g id="a_Node000008"><a xlink:href="window__size_8h.html" target="_top" xlink:title=" ">
<polygon fill="white" stroke="#666666" points="337,-74.5 258,-74.5 258,-55.25 337,-55.25 337,-74.5"/>
<text text-anchor="middle" x="297.5" y="-61" font-family="Helvetica,sans-Serif" font-size="10.00">window_size.h</text>
</a>
</g>
</g>
<!-- Node1&#45;&gt;Node8 -->
<g id="edge7_Node000001_Node000008" class="edge">
<title>Node1&#45;&gt;Node8</title>
<g id="a_edge7_Node000001_Node000008"><a xlink:title=" ">
<path fill="none" stroke="#63b8ff" d="M214.97,-110.05C232.05,-100.91 253.89,-89.22 270.81,-80.16"/>
<polygon fill="#63b8ff" stroke="#63b8ff" points="272.13,-83.42 279.3,-75.62 268.83,-77.25 272.13,-83.42"/>
</a>
</g>
</g>
<!-- Node3 -->
<g id="Node000003" class="node">
<title>Node3</title>
<g id="a_Node000003"><a xlink:title=" ">
<polygon fill="#e0e0e0" stroke="#999999" points="55,-19.25 0,-19.25 0,0 55,0 55,-19.25"/>
<text text-anchor="middle" x="27.5" y="-5.75" font-family="Helvetica,sans-Serif" font-size="10.00">stdbool.h</text>
</a>
</g>
</g>
<!-- Node2&#45;&gt;Node3 -->
<g id="edge2_Node000002_Node000003" class="edge">
<title>Node2&#45;&gt;Node3</title>
<g id="a_edge2_Node000002_Node000003"><a xlink:title=" ">
<path fill="none" stroke="#63b8ff" d="M84.8,-54.84C74.72,-47.07 59.96,-35.67 47.94,-26.4"/>
<polygon fill="#63b8ff" stroke="#63b8ff" points="50.29,-23.79 40.23,-20.45 46.01,-29.33 50.29,-23.79"/>
</a>
</g>
</g>
<!-- Node4 -->
<g id="Node000004" class="node">
<title>Node4</title>
<g id="a_Node000004"><a xlink:title=" ">
<polygon fill="#e0e0e0" stroke="#999999" points="119.88,-19.25 73.12,-19.25 73.12,0 119.88,0 119.88,-19.25"/>
<text text-anchor="middle" x="96.5" y="-5.75" font-family="Helvetica,sans-Serif" font-size="10.00">stdlib.h</text>
</a>
</g>
</g>
<!-- Node2&#45;&gt;Node4 -->
<g id="edge3_Node000002_Node000004" class="edge">
<title>Node2&#45;&gt;Node4</title>
<g id="a_edge3_Node000002_Node000004"><a xlink:title=" ">
<path fill="none" stroke="#63b8ff" d="M96.5,-55.08C96.5,-48.57 96.5,-39.42 96.5,-31.12"/>
<polygon fill="#63b8ff" stroke="#63b8ff" points="100,-31.12 96.5,-21.12 93,-31.12 100,-31.12"/>
</a>
</g>
</g>
<!-- Node5 -->
<g id="Node000005" class="node">
<title>Node5</title>
<g id="a_Node000005"><a xlink:title=" ">
<polygon fill="#e0e0e0" stroke="#999999" points="184.88,-19.25 138.12,-19.25 138.12,0 184.88,0 184.88,-19.25"/>
<text text-anchor="middle" x="161.5" y="-5.75" font-family="Helvetica,sans-Serif" font-size="10.00">limits.h</text>
</a>
</g>
</g>
<!-- Node2&#45;&gt;Node5 -->
<g id="edge4_Node000002_Node000005" class="edge">
<title>Node2&#45;&gt;Node5</title>
<g id="a_edge4_Node000002_Node000005"><a xlink:title=" ">
<path fill="none" stroke="#63b8ff" d="M107.53,-54.84C116.92,-47.15 130.65,-35.9 141.91,-26.68"/>
<polygon fill="#63b8ff" stroke="#63b8ff" points="143.95,-29.53 149.47,-20.48 139.51,-24.11 143.95,-29.53"/>
</a>
</g>
</g>
</g>
</svg>
