<?xml version="1.0" encoding="UTF-8" standalone="no"?>
<!DOCTYPE svg PUBLIC "-//W3C//DTD SVG 1.1//EN"
 "http://www.w3.org/Graphics/SVG/1.1/DTD/svg11.dtd">
<!-- Generated by graphviz version 9.0.0 (20230911.1827)
 -->
<!-- Title: parse_validate_obj Pages: 1 -->
<svg width="561pt" height="194pt"
 viewBox="0.00 0.00 560.50 194.37" xmlns="http://www.w3.org/2000/svg" xmlns:xlink="http://www.w3.org/1999/xlink">
<g id="graph0" class="graph" transform="scale(1 1) rotate(0) translate(4 190.37)">
<title>parse_validate_obj</title>
<!-- Node1 -->
<g id="Node000001" class="node">
<title>Node1</title>
<g id="a_Node000001"><a xlink:title=" ">
<polygon fill="#999999" stroke="#666666" points="97,-111.25 0,-111.25 0,-92 97,-92 97,-111.25"/>
<text text-anchor="middle" x="48.5" y="-97.75" font-family="Helvetica,sans-Serif" font-size="10.00">parse_validate_obj</text>
</a>
</g>
</g>
<!-- Node2 -->
<g id="Node000002" class="node">
<title>Node2</title>
<g id="a_Node000002"><a xlink:href="parse__utils_8c.html#a14e4a06978d8374fc830989e94b08140" target="_top" xlink:title=" ">
<polygon fill="white" stroke="#666666" points="361.5,-130.25 258.5,-130.25 258.5,-111 361.5,-111 361.5,-130.25"/>
<text text-anchor="middle" x="310" y="-116.75" font-family="Helvetica,sans-Serif" font-size="10.00">parse_check_length</text>
</a>
</g>
</g>
<!-- Node1&#45;&gt;Node2 -->
<g id="edge1_Node000001_Node000002" class="edge">
<title>Node1&#45;&gt;Node2</title>
<g id="a_edge1_Node000001_Node000002"><a xlink:title=" ">
<path fill="none" stroke="#63b8ff" d="M56.6,-111.64C69.49,-128.85 98.61,-163.45 133,-176.62 170.14,-190.86 184.35,-187.9 222.5,-176.62 248.03,-169.08 273.1,-151.39 289.63,-137.89"/>
<polygon fill="#63b8ff" stroke="#63b8ff" points="291.79,-140.65 297.15,-131.52 287.26,-135.31 291.79,-140.65"/>
</a>
</g>
</g>
<!-- Node3 -->
<g id="Node000003" class="node">
<title>Node3</title>
<g id="a_Node000003"><a xlink:href="parse__validate__obj__utils_8c.html#afc0fb046c4f491b01a17dc19ff7e07ac" target="_top" xlink:title=" ">
<polygon fill="white" stroke="#666666" points="222.5,-19.25 133,-19.25 133,0 222.5,0 222.5,-19.25"/>
<text text-anchor="middle" x="177.75" y="-5.75" font-family="Helvetica,sans-Serif" font-size="10.00">validate_ambient</text>
</a>
</g>
</g>
<!-- Node1&#45;&gt;Node3 -->
<g id="edge2_Node000001_Node000003" class="edge">
<title>Node1&#45;&gt;Node3</title>
<g id="a_edge2_Node000001_Node000003"><a xlink:title=" ">
<path fill="none" stroke="#63b8ff" d="M58.66,-91.58C73.18,-76.14 102.92,-46.39 133,-27.62 134.63,-26.61 136.33,-25.63 138.06,-24.69"/>
<polygon fill="#63b8ff" stroke="#63b8ff" points="139.47,-27.89 146.93,-20.37 136.4,-21.6 139.47,-27.89"/>
</a>
</g>
</g>
<!-- Node10 -->
<g id="Node000010" class="node">
<title>Node10</title>
<g id="a_Node000010"><a xlink:href="parse__validate__obj__utils_8c.html#addac7b2e5dfd2ee9efe59f688946f39b" target="_top" xlink:title=" ">
<polygon fill="white" stroke="#666666" points="221.38,-167.25 134.12,-167.25 134.12,-148 221.38,-148 221.38,-167.25"/>
<text text-anchor="middle" x="177.75" y="-153.75" font-family="Helvetica,sans-Serif" font-size="10.00">validate_camera</text>
</a>
</g>
</g>
<!-- Node1&#45;&gt;Node10 -->
<g id="edge13_Node000001_Node000010" class="edge">
<title>Node1&#45;&gt;Node10</title>
<g id="a_edge13_Node000001_Node000010"><a xlink:title=" ">
<path fill="none" stroke="#63b8ff" d="M71.03,-111.69C87.83,-119.47 111.81,-130.45 133,-139.62 135.64,-140.77 138.37,-141.93 141.13,-143.1"/>
<polygon fill="#63b8ff" stroke="#63b8ff" points="139.72,-146.3 150.3,-146.92 142.42,-139.84 139.72,-146.3"/>
</a>
</g>
</g>
<!-- Node11 -->
<g id="Node000011" class="node">
<title>Node11</title>
<g id="a_Node000011"><a xlink:href="parse__validate__obj__utils_8c.html#a578190cd0dc27381815b6d4d98c65168" target="_top" xlink:title=" ">
<polygon fill="white" stroke="#666666" points="221.75,-130.25 133.75,-130.25 133.75,-111 221.75,-111 221.75,-130.25"/>
<text text-anchor="middle" x="177.75" y="-116.75" font-family="Helvetica,sans-Serif" font-size="10.00">validate_cylinder</text>
</a>
</g>
</g>
<!-- Node1&#45;&gt;Node11 -->
<g id="edge17_Node000001_Node000011" class="edge">
<title>Node1&#45;&gt;Node11</title>
<g id="a_edge17_Node000001_Node000011"><a xlink:title=" ">
<path fill="none" stroke="#63b8ff" d="M97.25,-108.75C105.39,-109.97 113.91,-111.24 122.21,-112.48"/>
<polygon fill="#63b8ff" stroke="#63b8ff" points="121.45,-115.91 131.86,-113.92 122.48,-108.98 121.45,-115.91"/>
</a>
</g>
</g>
<!-- Node12 -->
<g id="Node000012" class="node">
<title>Node12</title>
<g id="a_Node000012"><a xlink:href="parse__validate__obj__utils_8c.html#a75294ff609499aa907ba8c285855f720" target="_top" xlink:title=" ">
<polygon fill="white" stroke="#666666" points="214.25,-93.25 141.25,-93.25 141.25,-74 214.25,-74 214.25,-93.25"/>
<text text-anchor="middle" x="177.75" y="-79.75" font-family="Helvetica,sans-Serif" font-size="10.00">validate_light</text>
</a>
</g>
</g>
<!-- Node1&#45;&gt;Node12 -->
<g id="edge21_Node000001_Node000012" class="edge">
<title>Node1&#45;&gt;Node12</title>
<g id="a_edge21_Node000001_Node000012"><a xlink:title=" ">
<path fill="none" stroke="#63b8ff" d="M97.25,-94.87C107.91,-93.36 119.22,-91.76 129.85,-90.26"/>
<polygon fill="#63b8ff" stroke="#63b8ff" points="130.16,-93.75 139.57,-88.88 129.18,-86.82 130.16,-93.75"/>
</a>
</g>
</g>
<!-- Node13 -->
<g id="Node000013" class="node">
<title>Node13</title>
<g id="a_Node000013"><a xlink:href="parse__validate__obj__utils_8c.html#ad58bbd3ad3f3f914989f3c0bc27cff8e" target="_top" xlink:title=" ">
<polygon fill="white" stroke="#666666" points="219.88,-56.25 135.62,-56.25 135.62,-37 219.88,-37 219.88,-56.25"/>
<text text-anchor="middle" x="177.75" y="-42.75" font-family="Helvetica,sans-Serif" font-size="10.00">validate_sphere</text>
</a>
</g>
</g>
<!-- Node1&#45;&gt;Node13 -->
<g id="edge25_Node000001_Node000013" class="edge">
<title>Node1&#45;&gt;Node13</title>
<g id="a_edge25_Node000001_Node000013"><a xlink:title=" ">
<path fill="none" stroke="#63b8ff" d="M71.76,-91.57C88.54,-84.03 112.15,-73.53 133,-64.62 135.81,-63.43 138.72,-62.2 141.65,-60.97"/>
<polygon fill="#63b8ff" stroke="#63b8ff" points="142.88,-64.25 150.78,-57.18 140.2,-57.78 142.88,-64.25"/>
</a>
</g>
</g>
<!-- Node3&#45;&gt;Node2 -->
<g id="edge12_Node000003_Node000002" class="edge">
<title>Node3&#45;&gt;Node2</title>
<g id="a_edge12_Node000003_Node000002"><a xlink:title=" ">
<path fill="none" stroke="#63b8ff" d="M211.01,-19.64C215.18,-21.83 219.16,-24.47 222.5,-27.62 249.38,-53.01 231.02,-77.89 258.5,-102.62 259.27,-103.32 260.07,-103.99 260.9,-104.63"/>
<polygon fill="#63b8ff" stroke="#63b8ff" points="258.87,-107.49 269.22,-109.79 262.57,-101.55 258.87,-107.49"/>
</a>
</g>
</g>
<!-- Node4 -->
<g id="Node000004" class="node">
<title>Node4</title>
<g id="a_Node000004"><a xlink:href="check__range_8c.html#a31d1b2f2b0c6260cc272247fb1e281e4" target="_top" xlink:title=" ">
<polygon fill="white" stroke="#666666" points="345.75,-56.25 274.25,-56.25 274.25,-37 345.75,-37 345.75,-56.25"/>
<text text-anchor="middle" x="310" y="-42.75" font-family="Helvetica,sans-Serif" font-size="10.00">check_range</text>
</a>
</g>
</g>
<!-- Node3&#45;&gt;Node4 -->
<g id="edge3_Node000003_Node000004" class="edge">
<title>Node3&#45;&gt;Node4</title>
<g id="a_edge3_Node000003_Node000004"><a xlink:title=" ">
<path fill="none" stroke="#63b8ff" d="M214.34,-19.74C229.4,-24.01 247.12,-29.05 263.14,-33.6"/>
<polygon fill="#63b8ff" stroke="#63b8ff" points="261.87,-36.88 272.45,-36.24 263.78,-30.14 261.87,-36.88"/>
</a>
</g>
</g>
<!-- Node7 -->
<g id="Node000007" class="node">
<title>Node7</title>
<g id="a_Node000007"><a xlink:href="ft__strval_8c.html#adc216c7cf83a710b028bd1501e3d4e6b" target="_top" xlink:title="Checks if a given string consists of valid characters.">
<polygon fill="white" stroke="#666666" points="335.62,-93.25 284.38,-93.25 284.38,-74 335.62,-74 335.62,-93.25"/>
<text text-anchor="middle" x="310" y="-79.75" font-family="Helvetica,sans-Serif" font-size="10.00">ft_strval</text>
</a>
</g>
</g>
<!-- Node3&#45;&gt;Node7 -->
<g id="edge6_Node000003_Node000007" class="edge">
<title>Node3&#45;&gt;Node7</title>
<g id="a_edge6_Node000003_Node000007"><a xlink:title=" ">
<path fill="none" stroke="#63b8ff" d="M207.89,-19.58C212.96,-21.88 218.03,-24.56 222.5,-27.62 241.68,-40.79 239.01,-52.93 258.5,-65.62 263.08,-68.61 268.23,-71.18 273.43,-73.35"/>
<polygon fill="#63b8ff" stroke="#63b8ff" points="272.02,-76.56 282.61,-76.77 274.45,-70 272.02,-76.56"/>
</a>
</g>
</g>
<!-- Node5 -->
<g id="Node000005" class="node">
<title>Node5</title>
<g id="a_Node000005"><a xlink:href="ft__atod_8c.html#ad55518c88cf22904ac355596269be400" target="_top" xlink:title=" ">
<polygon fill="white" stroke="#666666" points="451,-36.25 405,-36.25 405,-17 451,-17 451,-36.25"/>
<text text-anchor="middle" x="428" y="-22.75" font-family="Helvetica,sans-Serif" font-size="10.00">ft_atod</text>
</a>
</g>
</g>
<!-- Node4&#45;&gt;Node5 -->
<g id="edge4_Node000004_Node000005" class="edge">
<title>Node4&#45;&gt;Node5</title>
<g id="a_edge4_Node000004_Node000005"><a xlink:title=" ">
<path fill="none" stroke="#63b8ff" d="M346.12,-40.57C361.17,-37.98 378.66,-34.96 393.53,-32.4"/>
<polygon fill="#63b8ff" stroke="#63b8ff" points="394.03,-35.86 403.29,-30.71 392.84,-28.96 394.03,-35.86"/>
</a>
</g>
</g>
<!-- Node6 -->
<g id="Node000006" class="node">
<title>Node6</title>
<g id="a_Node000006"><a xlink:href="LIBFT_2ft__isdigit_8c.html#a2cf15b8a1a277d1e2ce3654101a2003d" target="_top" xlink:title=" ">
<polygon fill="white" stroke="#666666" points="549.88,-74.25 497.12,-74.25 497.12,-55 549.88,-55 549.88,-74.25"/>
<text text-anchor="middle" x="523.5" y="-60.75" font-family="Helvetica,sans-Serif" font-size="10.00">ft_isdigit</text>
</a>
</g>
</g>
<!-- Node5&#45;&gt;Node6 -->
<g id="edge5_Node000005_Node000006" class="edge">
<title>Node5&#45;&gt;Node6</title>
<g id="a_edge5_Node000005_Node000006"><a xlink:title=" ">
<path fill="none" stroke="#63b8ff" d="M451.16,-35.63C462.02,-40.04 475.35,-45.46 487.54,-50.42"/>
<polygon fill="#63b8ff" stroke="#63b8ff" points="485.88,-53.52 496.47,-54.04 488.52,-47.04 485.88,-53.52"/>
</a>
</g>
</g>
<!-- Node7&#45;&gt;Node6 -->
<g id="edge11_Node000007_Node000006" class="edge">
<title>Node7&#45;&gt;Node6</title>
<g id="a_edge11_Node000007_Node000006"><a xlink:title=" ">
<path fill="none" stroke="#63b8ff" d="M336.09,-81.37C373.1,-78.05 442.55,-71.81 485.44,-67.95"/>
<polygon fill="#63b8ff" stroke="#63b8ff" points="485.63,-71.45 495.27,-67.07 485,-64.48 485.63,-71.45"/>
</a>
</g>
</g>
<!-- Node8 -->
<g id="Node000008" class="node">
<title>Node8</title>
<g id="a_Node000008"><a xlink:href="LIBFT_2ft__isalnum_8c.html#a9c2c3821ea43ebdf97de07b123503f8b" target="_top" xlink:title=" ">
<polygon fill="white" stroke="#666666" points="458.5,-112.25 397.5,-112.25 397.5,-93 458.5,-93 458.5,-112.25"/>
<text text-anchor="middle" x="428" y="-98.75" font-family="Helvetica,sans-Serif" font-size="10.00">ft_isalnum</text>
</a>
</g>
</g>
<!-- Node7&#45;&gt;Node8 -->
<g id="edge7_Node000007_Node000008" class="edge">
<title>Node7&#45;&gt;Node8</title>
<g id="a_edge7_Node000007_Node000008"><a xlink:title=" ">
<path fill="none" stroke="#63b8ff" d="M335.88,-87.7C350.49,-90.09 369.31,-93.18 386.04,-95.92"/>
<polygon fill="#63b8ff" stroke="#63b8ff" points="385.29,-99.34 395.73,-97.5 386.43,-92.43 385.29,-99.34"/>
</a>
</g>
</g>
<!-- Node9 -->
<g id="Node000009" class="node">
<title>Node9</title>
<g id="a_Node000009"><a xlink:href="LIBFT_2ft__isalpha_8c.html#ac283963beaa3b8c7d09b78851cda297e" target="_top" xlink:title=" ">
<polygon fill="white" stroke="#666666" points="552.5,-131.25 494.5,-131.25 494.5,-112 552.5,-112 552.5,-131.25"/>
<text text-anchor="middle" x="523.5" y="-117.75" font-family="Helvetica,sans-Serif" font-size="10.00">ft_isalpha</text>
</a>
</g>
</g>
<!-- Node7&#45;&gt;Node9 -->
<g id="edge10_Node000007_Node000009" class="edge">
<title>Node7&#45;&gt;Node9</title>
<g id="a_edge10_Node000007_Node000009"><a xlink:title=" ">
<path fill="none" stroke="#63b8ff" d="M335.98,-91.61C344.22,-94.49 353.36,-97.94 361.5,-101.62 378.18,-109.17 379.78,-117.03 397.5,-121.62 425.43,-128.86 458.06,-128.58 482.98,-126.64"/>
<polygon fill="#63b8ff" stroke="#63b8ff" points="483.04,-130.15 492.68,-125.76 482.4,-123.18 483.04,-130.15"/>
</a>
</g>
</g>
<!-- Node8&#45;&gt;Node6 -->
<g id="edge9_Node000008_Node000006" class="edge">
<title>Node8&#45;&gt;Node6</title>
<g id="a_edge9_Node000008_Node000006"><a xlink:title=" ">
<path fill="none" stroke="#63b8ff" d="M453.57,-92.64C463.9,-88.44 476.11,-83.48 487.37,-78.9"/>
<polygon fill="#63b8ff" stroke="#63b8ff" points="488.42,-82.25 496.37,-75.24 485.79,-75.77 488.42,-82.25"/>
</a>
</g>
</g>
<!-- Node8&#45;&gt;Node9 -->
<g id="edge8_Node000008_Node000009" class="edge">
<title>Node8&#45;&gt;Node9</title>
<g id="a_edge8_Node000008_Node000009"><a xlink:title=" ">
<path fill="none" stroke="#63b8ff" d="M458.84,-108.69C466.54,-110.25 474.95,-111.96 483.06,-113.61"/>
<polygon fill="#63b8ff" stroke="#63b8ff" points="482.24,-117.01 492.73,-115.58 483.63,-110.15 482.24,-117.01"/>
</a>
</g>
</g>
<!-- Node10&#45;&gt;Node2 -->
<g id="edge16_Node000010_Node000002" class="edge">
<title>Node10&#45;&gt;Node2</title>
<g id="a_edge16_Node000010_Node000002"><a xlink:title=" ">
<path fill="none" stroke="#63b8ff" d="M214.34,-147.51C229.27,-143.27 246.83,-138.28 262.75,-133.76"/>
<polygon fill="#63b8ff" stroke="#63b8ff" points="263.33,-137.24 272,-131.14 261.42,-130.5 263.33,-137.24"/>
</a>
</g>
</g>
<!-- Node10&#45;&gt;Node4 -->
<g id="edge14_Node000010_Node000004" class="edge">
<title>Node10&#45;&gt;Node4</title>
<g id="a_edge14_Node000010_Node000004"><a xlink:title=" ">
<path fill="none" stroke="#63b8ff" d="M211.01,-147.61C215.18,-145.42 219.16,-142.78 222.5,-139.62 249.38,-114.24 231.02,-89.36 258.5,-64.62 260.16,-63.13 261.95,-61.76 263.84,-60.5"/>
<polygon fill="#63b8ff" stroke="#63b8ff" points="265.39,-63.64 272.53,-55.81 262.07,-57.48 265.39,-63.64"/>
</a>
</g>
</g>
<!-- Node10&#45;&gt;Node7 -->
<g id="edge15_Node000010_Node000007" class="edge">
<title>Node10&#45;&gt;Node7</title>
<g id="a_edge15_Node000010_Node000007"><a xlink:title=" ">
<path fill="none" stroke="#63b8ff" d="M207.89,-147.67C212.96,-145.37 218.03,-142.69 222.5,-139.62 241.68,-126.46 239.01,-114.32 258.5,-101.62 263.08,-98.64 268.23,-96.07 273.43,-93.9"/>
<polygon fill="#63b8ff" stroke="#63b8ff" points="274.45,-97.25 282.61,-90.48 272.02,-90.69 274.45,-97.25"/>
</a>
</g>
</g>
<!-- Node11&#45;&gt;Node2 -->
<g id="edge20_Node000011_Node000002" class="edge">
<title>Node11&#45;&gt;Node2</title>
<g id="a_edge20_Node000011_Node000002"><a xlink:title=" ">
<path fill="none" stroke="#63b8ff" d="M222.12,-120.62C230.06,-120.62 238.48,-120.62 246.84,-120.62"/>
<polygon fill="#63b8ff" stroke="#63b8ff" points="246.63,-124.13 256.63,-120.63 246.63,-117.13 246.63,-124.13"/>
</a>
</g>
</g>
<!-- Node11&#45;&gt;Node4 -->
<g id="edge18_Node000011_Node000004" class="edge">
<title>Node11&#45;&gt;Node4</title>
<g id="a_edge18_Node000011_Node000004"><a xlink:title=" ">
<path fill="none" stroke="#63b8ff" d="M207.89,-110.67C212.96,-108.37 218.03,-105.69 222.5,-102.62 241.68,-89.46 239.01,-77.32 258.5,-64.62 260.28,-63.46 262.15,-62.36 264.08,-61.33"/>
<polygon fill="#63b8ff" stroke="#63b8ff" points="265.09,-64.72 272.65,-57.3 262.11,-58.39 265.09,-64.72"/>
</a>
</g>
</g>
<!-- Node11&#45;&gt;Node7 -->
<g id="edge19_Node000011_Node000007" class="edge">
<title>Node11&#45;&gt;Node7</title>
<g id="a_edge19_Node000011_Node000007"><a xlink:title=" ">
<path fill="none" stroke="#63b8ff" d="M214.34,-110.51C232.68,-105.31 254.98,-98.97 273.33,-93.76"/>
<polygon fill="#63b8ff" stroke="#63b8ff" points="274.06,-97.19 282.72,-91.09 272.14,-90.46 274.06,-97.19"/>
</a>
</g>
</g>
<!-- Node12&#45;&gt;Node2 -->
<g id="edge24_Node000012_Node000002" class="edge">
<title>Node12&#45;&gt;Node2</title>
<g id="a_edge24_Node000012_Node000002"><a xlink:title=" ">
<path fill="none" stroke="#63b8ff" d="M214.34,-93.74C229.27,-97.98 246.83,-102.97 262.75,-107.49"/>
<polygon fill="#63b8ff" stroke="#63b8ff" points="261.42,-110.75 272,-110.11 263.33,-104.01 261.42,-110.75"/>
</a>
</g>
</g>
<!-- Node12&#45;&gt;Node4 -->
<g id="edge22_Node000012_Node000004" class="edge">
<title>Node12&#45;&gt;Node4</title>
<g id="a_edge22_Node000012_Node000004"><a xlink:title=" ">
<path fill="none" stroke="#63b8ff" d="M214.34,-73.51C229.4,-69.24 247.12,-64.2 263.14,-59.65"/>
<polygon fill="#63b8ff" stroke="#63b8ff" points="263.78,-63.11 272.45,-57.01 261.87,-56.37 263.78,-63.11"/>
</a>
</g>
</g>
<!-- Node12&#45;&gt;Node7 -->
<g id="edge23_Node000012_Node000007" class="edge">
<title>Node12&#45;&gt;Node7</title>
<g id="a_edge23_Node000012_Node000007"><a xlink:title=" ">
<path fill="none" stroke="#63b8ff" d="M214.69,-83.62C232.72,-83.62 254.53,-83.62 272.62,-83.62"/>
<polygon fill="#63b8ff" stroke="#63b8ff" points="272.39,-87.13 282.39,-83.63 272.39,-80.13 272.39,-87.13"/>
</a>
</g>
</g>
<!-- Node13&#45;&gt;Node2 -->
<g id="edge28_Node000013_Node000002" class="edge">
<title>Node13&#45;&gt;Node2</title>
<g id="a_edge28_Node000013_Node000002"><a xlink:title=" ">
<path fill="none" stroke="#63b8ff" d="M207.89,-56.58C212.96,-58.88 218.03,-61.56 222.5,-64.62 241.68,-77.79 239.01,-89.93 258.5,-102.62 260.28,-103.79 262.15,-104.89 264.08,-105.92"/>
<polygon fill="#63b8ff" stroke="#63b8ff" points="262.11,-108.86 272.65,-109.95 265.09,-102.53 262.11,-108.86"/>
</a>
</g>
</g>
<!-- Node13&#45;&gt;Node4 -->
<g id="edge26_Node000013_Node000004" class="edge">
<title>Node13&#45;&gt;Node4</title>
<g id="a_edge26_Node000013_Node000004"><a xlink:title=" ">
<path fill="none" stroke="#63b8ff" d="M220.32,-46.62C233.81,-46.62 248.87,-46.62 262.69,-46.62"/>
<polygon fill="#63b8ff" stroke="#63b8ff" points="262.43,-50.13 272.43,-46.63 262.43,-43.13 262.43,-50.13"/>
</a>
</g>
</g>
<!-- Node13&#45;&gt;Node7 -->
<g id="edge27_Node000013_Node000007" class="edge">
<title>Node13&#45;&gt;Node7</title>
<g id="a_edge27_Node000013_Node000007"><a xlink:title=" ">
<path fill="none" stroke="#63b8ff" d="M214.34,-56.74C232.68,-61.94 254.98,-68.28 273.33,-73.49"/>
<polygon fill="#63b8ff" stroke="#63b8ff" points="272.14,-76.79 282.72,-76.16 274.06,-70.06 272.14,-76.79"/>
</a>
</g>
</g>
</g>
</svg>
