<?xml version="1.0" encoding="UTF-8" standalone="no"?>
<!DOCTYPE svg PUBLIC "-//W3C//DTD SVG 1.1//EN"
 "http://www.w3.org/Graphics/SVG/1.1/DTD/svg11.dtd">
<!-- Generated by graphviz version 9.0.0 (20230911.1827)
 -->
<!-- Title: init_lux Pages: 1 -->
<svg width="365pt" height="83pt"
 viewBox="0.00 0.00 365.25 83.25" xmlns="http://www.w3.org/2000/svg" xmlns:xlink="http://www.w3.org/1999/xlink">
<g id="graph0" class="graph" transform="scale(1 1) rotate(0) translate(4 79.25)">
<title>init_lux</title>
<!-- Node1 -->
<g id="Node000001" class="node">
<title>Node1</title>
<g id="a_Node000001"><a xlink:title=" ">
<polygon fill="#999999" stroke="#666666" points="46,-56.25 0,-56.25 0,-37 46,-37 46,-56.25"/>
<text text-anchor="middle" x="23" y="-42.75" font-family="Helvetica,sans-Serif" font-size="10.00">init_lux</text>
</a>
</g>
</g>
<!-- Node2 -->
<g id="Node000002" class="node">
<title>Node2</title>
<g id="a_Node000002"><a xlink:href="cleanup_8c.html#a4d0401c5d47d3fbe2f286eae7eea7e19" target="_top" xlink:title=" ">
<polygon fill="white" stroke="#666666" points="152,-56.25 82,-56.25 82,-37 152,-37 152,-56.25"/>
<text text-anchor="middle" x="117" y="-42.75" font-family="Helvetica,sans-Serif" font-size="10.00">exit_cleanup</text>
</a>
</g>
</g>
<!-- Node1&#45;&gt;Node2 -->
<g id="edge1_Node000001_Node000002" class="edge">
<title>Node1&#45;&gt;Node2</title>
<g id="a_edge1_Node000001_Node000002"><a xlink:title=" ">
<path fill="none" stroke="#63b8ff" d="M46.27,-46.62C53.58,-46.62 62,-46.62 70.39,-46.62"/>
<polygon fill="#63b8ff" stroke="#63b8ff" points="70.21,-50.13 80.21,-46.63 70.21,-43.13 70.21,-50.13"/>
</a>
</g>
</g>
<!-- Node3 -->
<g id="Node000003" class="node">
<title>Node3</title>
<g id="a_Node000003"><a xlink:href="matrix__free_8c.html#ab28d26aa6d34d5c2a3b83b9ee519fec6" target="_top" xlink:title=" ">
<polygon fill="white" stroke="#666666" points="357.25,-75.25 293.25,-75.25 293.25,-56 357.25,-56 357.25,-75.25"/>
<text text-anchor="middle" x="325.25" y="-61.75" font-family="Helvetica,sans-Serif" font-size="10.00">free_matrix</text>
</a>
</g>
</g>
<!-- Node2&#45;&gt;Node3 -->
<g id="edge2_Node000002_Node000003" class="edge">
<title>Node2&#45;&gt;Node3</title>
<g id="a_edge2_Node000002_Node000003"><a xlink:title=" ">
<path fill="none" stroke="#63b8ff" d="M148.31,-56.73C160.49,-60.3 174.77,-63.86 188,-65.62 219.15,-69.78 254.66,-69.62 281.62,-68.51"/>
<polygon fill="#63b8ff" stroke="#63b8ff" points="281.65,-72.01 291.47,-68.03 281.31,-65.02 281.65,-72.01"/>
</a>
</g>
</g>
<!-- Node4 -->
<g id="Node000004" class="node">
<title>Node4</title>
<g id="a_Node000004"><a xlink:href="obj__free_8c.html#a17507d61054a4f286419903a51a478f8" target="_top" xlink:title=" ">
<polygon fill="white" stroke="#666666" points="257.25,-56.25 188,-56.25 188,-37 257.25,-37 257.25,-56.25"/>
<text text-anchor="middle" x="222.62" y="-42.75" font-family="Helvetica,sans-Serif" font-size="10.00">free_objects</text>
</a>
</g>
</g>
<!-- Node2&#45;&gt;Node4 -->
<g id="edge3_Node000002_Node000004" class="edge">
<title>Node2&#45;&gt;Node4</title>
<g id="a_edge3_Node000002_Node000004"><a xlink:title=" ">
<path fill="none" stroke="#63b8ff" d="M152.22,-46.62C159.99,-46.62 168.36,-46.62 176.51,-46.62"/>
<polygon fill="#63b8ff" stroke="#63b8ff" points="176.28,-50.13 186.28,-46.63 176.28,-43.13 176.28,-50.13"/>
</a>
</g>
</g>
<!-- Node5 -->
<g id="Node000005" class="node">
<title>Node5</title>
<g id="a_Node000005"><a xlink:href="ft__putstr__fd_8c.html#acefce9ac519f8f8b7d3fde33dbafe469" target="_top" xlink:title=" ">
<polygon fill="white" stroke="#666666" points="255.38,-19.25 189.88,-19.25 189.88,0 255.38,0 255.38,-19.25"/>
<text text-anchor="middle" x="222.62" y="-5.75" font-family="Helvetica,sans-Serif" font-size="10.00">ft_putstr_fd</text>
</a>
</g>
</g>
<!-- Node2&#45;&gt;Node5 -->
<g id="edge5_Node000002_Node000005" class="edge">
<title>Node2&#45;&gt;Node5</title>
<g id="a_edge5_Node000002_Node000005"><a xlink:title=" ">
<path fill="none" stroke="#63b8ff" d="M146.32,-36.51C157.51,-32.52 170.56,-27.86 182.62,-23.55"/>
<polygon fill="#63b8ff" stroke="#63b8ff" points="183.68,-26.89 191.92,-20.23 181.32,-20.3 183.68,-26.89"/>
</a>
</g>
</g>
<!-- Node4&#45;&gt;Node3 -->
<g id="edge4_Node000004_Node000003" class="edge">
<title>Node4&#45;&gt;Node3</title>
<g id="a_edge4_Node000004_Node000003"><a xlink:title=" ">
<path fill="none" stroke="#63b8ff" d="M257.69,-53.06C265.44,-54.52 273.77,-56.09 281.82,-57.61"/>
<polygon fill="#63b8ff" stroke="#63b8ff" points="280.97,-61.01 291.44,-59.43 282.26,-54.14 280.97,-61.01"/>
</a>
</g>
</g>
</g>
</svg>
