<?xml version="1.0" encoding="UTF-8" standalone="no"?>
<!DOCTYPE svg PUBLIC "-//W3C//DTD SVG 1.1//EN"
 "http://www.w3.org/Graphics/SVG/1.1/DTD/svg11.dtd">
<!-- Generated by graphviz version 9.0.0 (20230911.1827)
 -->
<!-- Title: /github/workspace/SRC/CORE/RENDER/create_image.c Pages: 1 -->
<svg width="549pt" height="204pt"
 viewBox="0.00 0.00 549.00 204.25" xmlns="http://www.w3.org/2000/svg" xmlns:xlink="http://www.w3.org/1999/xlink">
<g id="graph0" class="graph" transform="scale(1 1) rotate(0) translate(4 200.25)">
<title>/github/workspace/SRC/CORE/RENDER/create_image.c</title>
<!-- Node1 -->
<g id="Node000001" class="node">
<title>Node1</title>
<g id="a_Node000001"><a xlink:title=" ">
<polygon fill="#999999" stroke="#666666" points="313.25,-196.25 155.5,-196.25 155.5,-165.75 313.25,-165.75 313.25,-196.25"/>
<text text-anchor="start" x="163.5" y="-182.75" font-family="Helvetica,sans-Serif" font-size="10.00">/github/workspace/SRC</text>
<text text-anchor="middle" x="234.38" y="-171.5" font-family="Helvetica,sans-Serif" font-size="10.00">/CORE/RENDER/create_image.c</text>
</a>
</g>
</g>
<!-- Node2 -->
<g id="Node000002" class="node">
<title>Node2</title>
<g id="a_Node000002"><a xlink:href="core__render_8h.html" target="_top" xlink:title=" ">
<polygon fill="white" stroke="#666666" points="271.62,-129.75 197.12,-129.75 197.12,-110.5 271.62,-110.5 271.62,-129.75"/>
<text text-anchor="middle" x="234.38" y="-116.25" font-family="Helvetica,sans-Serif" font-size="10.00">core_render.h</text>
</a>
</g>
</g>
<!-- Node1&#45;&gt;Node2 -->
<g id="edge1_Node000001_Node000002" class="edge">
<title>Node1&#45;&gt;Node2</title>
<g id="a_edge1_Node000001_Node000002"><a xlink:title=" ">
<path fill="none" stroke="#63b8ff" d="M234.38,-165.45C234.38,-158.21 234.38,-149.34 234.38,-141.44"/>
<polygon fill="#63b8ff" stroke="#63b8ff" points="237.88,-141.71 234.38,-131.71 230.88,-141.71 237.88,-141.71"/>
</a>
</g>
</g>
<!-- Node8 -->
<g id="Node000008" class="node">
<title>Node8</title>
<g id="a_Node000008"><a xlink:href="features__ppm_8h.html" target="_top" xlink:title=" ">
<polygon fill="white" stroke="#666666" points="82.75,-129.75 0,-129.75 0,-110.5 82.75,-110.5 82.75,-129.75"/>
<text text-anchor="middle" x="41.38" y="-116.25" font-family="Helvetica,sans-Serif" font-size="10.00">features_ppm.h</text>
</a>
</g>
</g>
<!-- Node1&#45;&gt;Node8 -->
<g id="edge7_Node000001_Node000008" class="edge">
<title>Node1&#45;&gt;Node8</title>
<g id="a_edge7_Node000001_Node000008"><a xlink:title=" ">
<path fill="none" stroke="#63b8ff" d="M186.17,-165.3C154.05,-155.5 112.32,-142.77 81.91,-133.49"/>
<polygon fill="#63b8ff" stroke="#63b8ff" points="83.29,-130.25 72.71,-130.68 81.25,-136.95 83.29,-130.25"/>
</a>
</g>
</g>
<!-- Node9 -->
<g id="Node000009" class="node">
<title>Node9</title>
<g id="a_Node000009"><a xlink:href="objects__utils_8h.html" target="_top" xlink:title=" ">
<polygon fill="white" stroke="#666666" points="179.5,-129.75 101.25,-129.75 101.25,-110.5 179.5,-110.5 179.5,-129.75"/>
<text text-anchor="middle" x="140.38" y="-116.25" font-family="Helvetica,sans-Serif" font-size="10.00">objects_utils.h</text>
</a>
</g>
</g>
<!-- Node1&#45;&gt;Node9 -->
<g id="edge9_Node000001_Node000009" class="edge">
<title>Node1&#45;&gt;Node9</title>
<g id="a_edge9_Node000001_Node000009"><a xlink:title=" ">
<path fill="none" stroke="#63b8ff" d="M211.14,-165.45C196.96,-156.57 178.88,-145.24 164.54,-136.26"/>
<polygon fill="#63b8ff" stroke="#63b8ff" points="166.48,-133.35 156.15,-131 162.77,-139.28 166.48,-133.35"/>
</a>
</g>
</g>
<!-- Node10 -->
<g id="Node000010" class="node">
<title>Node10</title>
<g id="a_Node000010"><a xlink:href="muk__lib_8h.html" target="_top" xlink:title=" ">
<polygon fill="white" stroke="#666666" points="359,-129.75 301.75,-129.75 301.75,-110.5 359,-110.5 359,-129.75"/>
<text text-anchor="middle" x="330.38" y="-116.25" font-family="Helvetica,sans-Serif" font-size="10.00">muk_lib.h</text>
</a>
</g>
</g>
<!-- Node1&#45;&gt;Node10 -->
<g id="edge11_Node000001_Node000010" class="edge">
<title>Node1&#45;&gt;Node10</title>
<g id="a_edge11_Node000001_Node000010"><a xlink:title=" ">
<path fill="none" stroke="#63b8ff" d="M258.11,-165.45C272.72,-156.48 291.41,-145.02 306.13,-136"/>
<polygon fill="#63b8ff" stroke="#63b8ff" points="307.59,-139.2 314.29,-130.99 303.93,-133.24 307.59,-139.2"/>
</a>
</g>
</g>
<!-- Node15 -->
<g id="Node000015" class="node">
<title>Node15</title>
<g id="a_Node000015"><a xlink:title=" ">
<polygon fill="#e0e0e0" stroke="#999999" points="415.62,-129.75 377.12,-129.75 377.12,-110.5 415.62,-110.5 415.62,-129.75"/>
<text text-anchor="middle" x="396.38" y="-116.25" font-family="Helvetica,sans-Serif" font-size="10.00">mlx.h</text>
</a>
</g>
</g>
<!-- Node1&#45;&gt;Node15 -->
<g id="edge17_Node000001_Node000015" class="edge">
<title>Node1&#45;&gt;Node15</title>
<g id="a_edge17_Node000001_Node000015"><a xlink:title=" ">
<path fill="none" stroke="#63b8ff" d="M274.84,-165.3C303.25,-154.97 340.62,-141.39 366.38,-132.02"/>
<polygon fill="#63b8ff" stroke="#63b8ff" points="367.37,-135.39 375.57,-128.69 364.98,-128.81 367.37,-135.39"/>
</a>
</g>
</g>
<!-- Node3 -->
<g id="Node000003" class="node">
<title>Node3</title>
<g id="a_Node000003"><a xlink:href="types_8h.html" target="_top" xlink:title=" ">
<polygon fill="white" stroke="#666666" points="151.75,-74.5 105,-74.5 105,-55.25 151.75,-55.25 151.75,-74.5"/>
<text text-anchor="middle" x="128.38" y="-61" font-family="Helvetica,sans-Serif" font-size="10.00">types.h</text>
</a>
</g>
</g>
<!-- Node2&#45;&gt;Node3 -->
<g id="edge2_Node000002_Node000003" class="edge">
<title>Node2&#45;&gt;Node3</title>
<g id="a_edge2_Node000002_Node000003"><a xlink:title=" ">
<path fill="none" stroke="#63b8ff" d="M216.39,-110.09C200.02,-101.87 175.59,-89.59 156.61,-80.06"/>
<polygon fill="#63b8ff" stroke="#63b8ff" points="158.3,-76.99 147.8,-75.63 155.16,-83.25 158.3,-76.99"/>
</a>
</g>
</g>
<!-- Node7 -->
<g id="Node000007" class="node">
<title>Node7</title>
<g id="a_Node000007"><a xlink:href="window__size_8h.html" target="_top" xlink:title=" ">
<polygon fill="white" stroke="#666666" points="248.88,-74.5 169.88,-74.5 169.88,-55.25 248.88,-55.25 248.88,-74.5"/>
<text text-anchor="middle" x="209.38" y="-61" font-family="Helvetica,sans-Serif" font-size="10.00">window_size.h</text>
</a>
</g>
</g>
<!-- Node2&#45;&gt;Node7 -->
<g id="edge6_Node000002_Node000007" class="edge">
<title>Node2&#45;&gt;Node7</title>
<g id="a_edge6_Node000002_Node000007"><a xlink:title=" ">
<path fill="none" stroke="#63b8ff" d="M230.25,-110.33C227.05,-103.51 222.49,-93.81 218.45,-85.2"/>
<polygon fill="#63b8ff" stroke="#63b8ff" points="221.65,-83.79 214.24,-76.23 215.32,-86.77 221.65,-83.79"/>
</a>
</g>
</g>
<!-- Node4 -->
<g id="Node000004" class="node">
<title>Node4</title>
<g id="a_Node000004"><a xlink:title=" ">
<polygon fill="#e0e0e0" stroke="#999999" points="121.88,-19.25 66.88,-19.25 66.88,0 121.88,0 121.88,-19.25"/>
<text text-anchor="middle" x="94.38" y="-5.75" font-family="Helvetica,sans-Serif" font-size="10.00">stdbool.h</text>
</a>
</g>
</g>
<!-- Node3&#45;&gt;Node4 -->
<g id="edge3_Node000003_Node000004" class="edge">
<title>Node3&#45;&gt;Node4</title>
<g id="a_edge3_Node000003_Node000004"><a xlink:title=" ">
<path fill="none" stroke="#63b8ff" d="M122.76,-55.08C118.26,-48.03 111.79,-37.9 106.16,-29.08"/>
<polygon fill="#63b8ff" stroke="#63b8ff" points="109.26,-27.43 100.93,-20.88 103.36,-31.2 109.26,-27.43"/>
</a>
</g>
</g>
<!-- Node5 -->
<g id="Node000005" class="node">
<title>Node5</title>
<g id="a_Node000005"><a xlink:title=" ">
<polygon fill="#e0e0e0" stroke="#999999" points="275.75,-19.25 229,-19.25 229,0 275.75,0 275.75,-19.25"/>
<text text-anchor="middle" x="252.38" y="-5.75" font-family="Helvetica,sans-Serif" font-size="10.00">stdlib.h</text>
</a>
</g>
</g>
<!-- Node3&#45;&gt;Node5 -->
<g id="edge4_Node000003_Node000005" class="edge">
<title>Node3&#45;&gt;Node5</title>
<g id="a_edge4_Node000003_Node000005"><a xlink:title=" ">
<path fill="none" stroke="#63b8ff" d="M149.41,-54.84C169.01,-46.43 198.48,-33.77 220.88,-24.15"/>
<polygon fill="#63b8ff" stroke="#63b8ff" points="222.04,-27.46 229.85,-20.3 219.28,-21.03 222.04,-27.46"/>
</a>
</g>
</g>
<!-- Node6 -->
<g id="Node000006" class="node">
<title>Node6</title>
<g id="a_Node000006"><a xlink:title=" ">
<polygon fill="#e0e0e0" stroke="#999999" points="186.75,-19.25 140,-19.25 140,0 186.75,0 186.75,-19.25"/>
<text text-anchor="middle" x="163.38" y="-5.75" font-family="Helvetica,sans-Serif" font-size="10.00">limits.h</text>
</a>
</g>
</g>
<!-- Node3&#45;&gt;Node6 -->
<g id="edge5_Node000003_Node000006" class="edge">
<title>Node3&#45;&gt;Node6</title>
<g id="a_edge5_Node000003_Node000006"><a xlink:title=" ">
<path fill="none" stroke="#63b8ff" d="M134.15,-55.08C138.79,-48.03 145.45,-37.9 151.24,-29.08"/>
<polygon fill="#63b8ff" stroke="#63b8ff" points="154.07,-31.15 156.64,-20.87 148.22,-27.31 154.07,-31.15"/>
</a>
</g>
</g>
<!-- Node8&#45;&gt;Node3 -->
<g id="edge8_Node000008_Node000003" class="edge">
<title>Node8&#45;&gt;Node3</title>
<g id="a_edge8_Node000008_Node000003"><a xlink:title=" ">
<path fill="none" stroke="#63b8ff" d="M56.13,-110.09C69.26,-102.06 88.7,-90.16 104.11,-80.73"/>
<polygon fill="#63b8ff" stroke="#63b8ff" points="105.55,-83.95 112.25,-75.74 101.9,-77.98 105.55,-83.95"/>
</a>
</g>
</g>
<!-- Node9&#45;&gt;Node3 -->
<g id="edge10_Node000009_Node000003" class="edge">
<title>Node9&#45;&gt;Node3</title>
<g id="a_edge10_Node000009_Node000003"><a xlink:title=" ">
<path fill="none" stroke="#63b8ff" d="M138.39,-110.33C136.91,-103.74 134.82,-94.46 132.93,-86.07"/>
<polygon fill="#63b8ff" stroke="#63b8ff" points="136.35,-85.32 130.73,-76.34 129.52,-86.86 136.35,-85.32"/>
</a>
</g>
</g>
<!-- Node10&#45;&gt;Node5 -->
<g id="edge12_Node000010_Node000005" class="edge">
<title>Node10&#45;&gt;Node5</title>
<g id="a_edge12_Node000010_Node000005"><a xlink:title=" ">
<path fill="none" stroke="#63b8ff" d="M323.48,-110.33C316.52,-101.4 305.52,-87.12 296.38,-74.5 285.39,-59.34 273.35,-41.8 264.65,-28.94"/>
<polygon fill="#63b8ff" stroke="#63b8ff" points="267.56,-26.99 259.07,-20.65 261.75,-30.9 267.56,-26.99"/>
</a>
</g>
</g>
<!-- Node11 -->
<g id="Node000011" class="node">
<title>Node11</title>
<g id="a_Node000011"><a xlink:title=" ">
<polygon fill="#e0e0e0" stroke="#999999" points="355.25,-74.5 305.5,-74.5 305.5,-55.25 355.25,-55.25 355.25,-74.5"/>
<text text-anchor="middle" x="330.38" y="-61" font-family="Helvetica,sans-Serif" font-size="10.00">unistd.h</text>
</a>
</g>
</g>
<!-- Node10&#45;&gt;Node11 -->
<g id="edge13_Node000010_Node000011" class="edge">
<title>Node10&#45;&gt;Node11</title>
<g id="a_edge13_Node000010_Node000011"><a xlink:title=" ">
<path fill="none" stroke="#63b8ff" d="M330.38,-110.33C330.38,-103.82 330.38,-94.67 330.38,-86.37"/>
<polygon fill="#63b8ff" stroke="#63b8ff" points="333.88,-86.37 330.38,-76.37 326.88,-86.37 333.88,-86.37"/>
</a>
</g>
</g>
<!-- Node12 -->
<g id="Node000012" class="node">
<title>Node12</title>
<g id="a_Node000012"><a xlink:title=" ">
<polygon fill="#e0e0e0" stroke="#999999" points="417.62,-74.5 373.12,-74.5 373.12,-55.25 417.62,-55.25 417.62,-74.5"/>
<text text-anchor="middle" x="395.38" y="-61" font-family="Helvetica,sans-Serif" font-size="10.00">stdio.h</text>
</a>
</g>
</g>
<!-- Node10&#45;&gt;Node12 -->
<g id="edge14_Node000010_Node000012" class="edge">
<title>Node10&#45;&gt;Node12</title>
<g id="a_edge14_Node000010_Node000012"><a xlink:title=" ">
<path fill="none" stroke="#63b8ff" d="M341.4,-110.09C350.8,-102.4 364.52,-91.15 375.78,-81.93"/>
<polygon fill="#63b8ff" stroke="#63b8ff" points="377.82,-84.78 383.34,-75.73 373.39,-79.36 377.82,-84.78"/>
</a>
</g>
</g>
<!-- Node13 -->
<g id="Node000013" class="node">
<title>Node13</title>
<g id="a_Node000013"><a xlink:title=" ">
<polygon fill="#e0e0e0" stroke="#999999" points="477.5,-74.5 435.25,-74.5 435.25,-55.25 477.5,-55.25 477.5,-74.5"/>
<text text-anchor="middle" x="456.38" y="-61" font-family="Helvetica,sans-Serif" font-size="10.00">fcntl.h</text>
</a>
</g>
</g>
<!-- Node10&#45;&gt;Node13 -->
<g id="edge15_Node000010_Node000013" class="edge">
<title>Node10&#45;&gt;Node13</title>
<g id="a_edge15_Node000010_Node000013"><a xlink:title=" ">
<path fill="none" stroke="#63b8ff" d="M351.75,-110.09C371.66,-101.68 401.61,-89.02 424.38,-79.4"/>
<polygon fill="#63b8ff" stroke="#63b8ff" points="425.65,-82.66 433.5,-75.54 422.93,-76.21 425.65,-82.66"/>
</a>
</g>
</g>
<!-- Node14 -->
<g id="Node000014" class="node">
<title>Node14</title>
<g id="a_Node000014"><a xlink:title=" ">
<polygon fill="#e0e0e0" stroke="#999999" points="541,-74.5 495.75,-74.5 495.75,-55.25 541,-55.25 541,-74.5"/>
<text text-anchor="middle" x="518.38" y="-61" font-family="Helvetica,sans-Serif" font-size="10.00">math.h</text>
</a>
</g>
</g>
<!-- Node10&#45;&gt;Node14 -->
<g id="edge16_Node000010_Node000014" class="edge">
<title>Node10&#45;&gt;Node14</title>
<g id="a_edge16_Node000010_Node000014"><a xlink:title=" ">
<path fill="none" stroke="#63b8ff" d="M359.34,-110.92C393.08,-101.37 448.74,-85.6 484.46,-75.48"/>
<polygon fill="#63b8ff" stroke="#63b8ff" points="485.18,-78.91 493.85,-72.82 483.28,-72.18 485.18,-78.91"/>
</a>
</g>
</g>
</g>
</svg>
