<?xml version="1.0" encoding="UTF-8" standalone="no"?>
<!DOCTYPE svg PUBLIC "-//W3C//DTD SVG 1.1//EN"
 "http://www.w3.org/Graphics/SVG/1.1/DTD/svg11.dtd">
<!-- Generated by graphviz version 9.0.0 (20230911.1827)
 -->
<!-- Title: create_image Pages: 1 -->
<svg width="290pt" height="138pt"
 viewBox="0.00 0.00 290.00 138.25" xmlns="http://www.w3.org/2000/svg" xmlns:xlink="http://www.w3.org/1999/xlink">
<g id="graph0" class="graph" transform="scale(1 1) rotate(0) translate(4 134.25)">
<title>create_image</title>
<!-- Node1 -->
<g id="Node000001" class="node">
<title>Node1</title>
<g id="a_Node000001"><a xlink:title=" ">
<polygon fill="#999999" stroke="#666666" points="74.5,-74.25 0,-74.25 0,-55 74.5,-55 74.5,-74.25"/>
<text text-anchor="middle" x="37.25" y="-60.75" font-family="Helvetica,sans-Serif" font-size="10.00">create_image</text>
</a>
</g>
</g>
<!-- Node2 -->
<g id="Node000002" class="node">
<title>Node2</title>
<g id="a_Node000002"><a xlink:href="create__ppm_8c.html#a53e58fa0b2bc265bf63827fef5488f92" target="_top" xlink:title="This function create PPM file based on ASCII characters.">
<polygon fill="white" stroke="#666666" points="195.5,-130.25 110.5,-130.25 110.5,-111 195.5,-111 195.5,-130.25"/>
<text text-anchor="middle" x="153" y="-116.75" font-family="Helvetica,sans-Serif" font-size="10.00">canvas_to_ppm</text>
</a>
</g>
</g>
<!-- Node1&#45;&gt;Node2 -->
<g id="edge1_Node000001_Node000002" class="edge">
<title>Node1&#45;&gt;Node2</title>
<g id="a_edge1_Node000001_Node000002"><a xlink:title=" ">
<path fill="none" stroke="#63b8ff" d="M56.47,-74.69C70.96,-82.58 91.84,-93.69 110.5,-102.62 112.89,-103.77 115.37,-104.93 117.88,-106.07"/>
<polygon fill="#63b8ff" stroke="#63b8ff" points="116.22,-109.16 126.78,-110.03 119.07,-102.77 116.22,-109.16"/>
</a>
</g>
</g>
<!-- Node3 -->
<g id="Node000003" class="node">
<title>Node3</title>
<g id="a_Node000003"><a xlink:href="obj__render_8c.html#af31454c51253a1a45f89fed96eecb24e" target="_top" xlink:title=" ">
<polygon fill="white" stroke="#666666" points="183.5,-93.25 122.5,-93.25 122.5,-74 183.5,-74 183.5,-93.25"/>
<text text-anchor="middle" x="153" y="-79.75" font-family="Helvetica,sans-Serif" font-size="10.00">obj_render</text>
</a>
</g>
</g>
<!-- Node1&#45;&gt;Node3 -->
<g id="edge2_Node000001_Node000003" class="edge">
<title>Node1&#45;&gt;Node3</title>
<g id="a_edge2_Node000001_Node000003"><a xlink:title=" ">
<path fill="none" stroke="#63b8ff" d="M74.87,-70.74C86.48,-72.68 99.39,-74.84 111.28,-76.82"/>
<polygon fill="#63b8ff" stroke="#63b8ff" points="110.35,-80.22 120.79,-78.41 111.51,-73.31 110.35,-80.22"/>
</a>
</g>
</g>
<!-- Node4 -->
<g id="Node000004" class="node">
<title>Node4</title>
<g id="a_Node000004"><a xlink:href="create__image_8c.html#aecb792df82df4a862294d3c25be0f7be" target="_top" xlink:title=" ">
<polygon fill="white" stroke="#666666" points="193.25,-56.25 112.75,-56.25 112.75,-37 193.25,-37 193.25,-56.25"/>
<text text-anchor="middle" x="153" y="-42.75" font-family="Helvetica,sans-Serif" font-size="10.00">pixel_to_image</text>
</a>
</g>
</g>
<!-- Node1&#45;&gt;Node4 -->
<g id="edge3_Node000001_Node000004" class="edge">
<title>Node1&#45;&gt;Node4</title>
<g id="a_edge3_Node000001_Node000004"><a xlink:title=" ">
<path fill="none" stroke="#63b8ff" d="M74.87,-58.83C83.18,-57.52 92.15,-56.1 100.93,-54.71"/>
<polygon fill="#63b8ff" stroke="#63b8ff" points="101.48,-58.16 110.81,-53.14 100.39,-51.25 101.48,-58.16"/>
</a>
</g>
</g>
<!-- Node5 -->
<g id="Node000005" class="node">
<title>Node5</title>
<g id="a_Node000005"><a xlink:href="safe__malloc_8c.html#ab8bcda0e59b6f8eab1bfd9f92de50c6c" target="_top" xlink:title=" ">
<polygon fill="white" stroke="#666666" points="187.25,-19.25 118.75,-19.25 118.75,0 187.25,0 187.25,-19.25"/>
<text text-anchor="middle" x="153" y="-5.75" font-family="Helvetica,sans-Serif" font-size="10.00">safe_malloc</text>
</a>
</g>
</g>
<!-- Node1&#45;&gt;Node5 -->
<g id="edge4_Node000001_Node000005" class="edge">
<title>Node1&#45;&gt;Node5</title>
<g id="a_edge4_Node000001_Node000005"><a xlink:title=" ">
<path fill="none" stroke="#63b8ff" d="M57.1,-54.55C71.58,-46.92 92.15,-36.29 110.5,-27.62 112.9,-26.49 115.38,-25.35 117.89,-24.21"/>
<polygon fill="#63b8ff" stroke="#63b8ff" points="119.08,-27.51 126.8,-20.26 116.24,-21.12 119.08,-27.51"/>
</a>
</g>
</g>
<!-- Node6 -->
<g id="Node000006" class="node">
<title>Node6</title>
<g id="a_Node000006"><a xlink:href="LIBFT_2ft__bzero_8c.html#a5937ab0d08e31d0e3e4a16ec71e293a1" target="_top" xlink:title=" ">
<polygon fill="white" stroke="#666666" points="282,-19.25 231.5,-19.25 231.5,0 282,0 282,-19.25"/>
<text text-anchor="middle" x="256.75" y="-5.75" font-family="Helvetica,sans-Serif" font-size="10.00">ft_bzero</text>
</a>
</g>
</g>
<!-- Node5&#45;&gt;Node6 -->
<g id="edge5_Node000005_Node000006" class="edge">
<title>Node5&#45;&gt;Node6</title>
<g id="a_edge5_Node000005_Node000006"><a xlink:title=" ">
<path fill="none" stroke="#63b8ff" d="M187.6,-9.62C197.94,-9.62 209.37,-9.62 219.87,-9.62"/>
<polygon fill="#63b8ff" stroke="#63b8ff" points="219.7,-13.13 229.7,-9.63 219.7,-6.13 219.7,-13.13"/>
</a>
</g>
</g>
</g>
</svg>
