<?xml version="1.0" encoding="UTF-8" standalone="no"?>
<!DOCTYPE svg PUBLIC "-//W3C//DTD SVG 1.1//EN"
 "http://www.w3.org/Graphics/SVG/1.1/DTD/svg11.dtd">
<!-- Generated by graphviz version 9.0.0 (20230911.1827)
 -->
<!-- Title: /github/workspace/SRC/FEATURES/PPM/create_ppm.c Pages: 1 -->
<svg width="517pt" height="204pt"
 viewBox="0.00 0.00 516.75 204.25" xmlns="http://www.w3.org/2000/svg" xmlns:xlink="http://www.w3.org/1999/xlink">
<g id="graph0" class="graph" transform="scale(1 1) rotate(0) translate(4 200.25)">
<title>/github/workspace/SRC/FEATURES/PPM/create_ppm.c</title>
<!-- Node1 -->
<g id="Node000001" class="node">
<title>Node1</title>
<g id="a_Node000001"><a xlink:title=" ">
<polygon fill="#999999" stroke="#666666" points="301,-196.25 144,-196.25 144,-165.75 301,-165.75 301,-196.25"/>
<text text-anchor="start" x="152" y="-182.75" font-family="Helvetica,sans-Serif" font-size="10.00">/github/workspace/SRC</text>
<text text-anchor="middle" x="222.5" y="-171.5" font-family="Helvetica,sans-Serif" font-size="10.00">/FEATURES/PPM/create_ppm.c</text>
</a>
</g>
</g>
<!-- Node2 -->
<g id="Node000002" class="node">
<title>Node2</title>
<g id="a_Node000002"><a xlink:href="types_8h.html" target="_top" xlink:title=" ">
<polygon fill="white" stroke="#666666" points="119.88,-74.5 73.12,-74.5 73.12,-55.25 119.88,-55.25 119.88,-74.5"/>
<text text-anchor="middle" x="96.5" y="-61" font-family="Helvetica,sans-Serif" font-size="10.00">types.h</text>
</a>
</g>
</g>
<!-- Node1&#45;&gt;Node2 -->
<g id="edge1_Node000001_Node000002" class="edge">
<title>Node1&#45;&gt;Node2</title>
<g id="a_edge1_Node000001_Node000002"><a xlink:title=" ">
<path fill="none" stroke="#63b8ff" d="M187.09,-165.41C169.48,-156.9 148.77,-144.85 133.5,-129.75 120.54,-116.94 110.57,-98.65 104.25,-84.93"/>
<polygon fill="#63b8ff" stroke="#63b8ff" points="107.61,-83.87 100.43,-76.08 101.19,-86.65 107.61,-83.87"/>
</a>
</g>
</g>
<!-- Node6 -->
<g id="Node000006" class="node">
<title>Node6</title>
<g id="a_Node000006"><a xlink:href="libft_8h.html" target="_top" xlink:title=" ">
<polygon fill="white" stroke="#666666" points="287.12,-129.75 247.88,-129.75 247.88,-110.5 287.12,-110.5 287.12,-129.75"/>
<text text-anchor="middle" x="267.5" y="-116.25" font-family="Helvetica,sans-Serif" font-size="10.00">libft.h</text>
</a>
</g>
</g>
<!-- Node1&#45;&gt;Node6 -->
<g id="edge5_Node000001_Node000006" class="edge">
<title>Node1&#45;&gt;Node6</title>
<g id="a_edge5_Node000001_Node000006"><a xlink:title=" ">
<path fill="none" stroke="#63b8ff" d="M233.62,-165.45C239.68,-157.52 247.24,-147.63 253.68,-139.21"/>
<polygon fill="#63b8ff" stroke="#63b8ff" points="256.35,-141.47 259.64,-131.4 250.79,-137.22 256.35,-141.47"/>
</a>
</g>
</g>
<!-- Node14 -->
<g id="Node000014" class="node">
<title>Node14</title>
<g id="a_Node000014"><a xlink:href="base__colours_8h.html" target="_top" xlink:title=" ">
<polygon fill="white" stroke="#666666" points="224.12,-129.75 142.88,-129.75 142.88,-110.5 224.12,-110.5 224.12,-129.75"/>
<text text-anchor="middle" x="183.5" y="-116.25" font-family="Helvetica,sans-Serif" font-size="10.00">base_colours.h</text>
</a>
</g>
</g>
<!-- Node1&#45;&gt;Node14 -->
<g id="edge18_Node000001_Node000014" class="edge">
<title>Node1&#45;&gt;Node14</title>
<g id="a_edge18_Node000001_Node000014"><a xlink:title=" ">
<path fill="none" stroke="#63b8ff" d="M212.86,-165.45C207.72,-157.69 201.34,-148.06 195.85,-139.76"/>
<polygon fill="#63b8ff" stroke="#63b8ff" points="198.79,-137.87 190.35,-131.46 192.95,-141.73 198.79,-137.87"/>
</a>
</g>
</g>
<!-- Node15 -->
<g id="Node000015" class="node">
<title>Node15</title>
<g id="a_Node000015"><a xlink:title=" ">
<polygon fill="#e0e0e0" stroke="#999999" points="349.75,-129.75 305.25,-129.75 305.25,-110.5 349.75,-110.5 349.75,-129.75"/>
<text text-anchor="middle" x="327.5" y="-116.25" font-family="Helvetica,sans-Serif" font-size="10.00">stdio.h</text>
</a>
</g>
</g>
<!-- Node1&#45;&gt;Node15 -->
<g id="edge20_Node000001_Node000015" class="edge">
<title>Node1&#45;&gt;Node15</title>
<g id="a_edge20_Node000001_Node000015"><a xlink:title=" ">
<path fill="none" stroke="#63b8ff" d="M248.73,-165.3C264.87,-156.24 285.48,-144.69 301.57,-135.66"/>
<polygon fill="#63b8ff" stroke="#63b8ff" points="303.07,-138.84 310.08,-130.89 299.64,-132.73 303.07,-138.84"/>
</a>
</g>
</g>
<!-- Node3 -->
<g id="Node000003" class="node">
<title>Node3</title>
<g id="a_Node000003"><a xlink:title=" ">
<polygon fill="#e0e0e0" stroke="#999999" points="55,-19.25 0,-19.25 0,0 55,0 55,-19.25"/>
<text text-anchor="middle" x="27.5" y="-5.75" font-family="Helvetica,sans-Serif" font-size="10.00">stdbool.h</text>
</a>
</g>
</g>
<!-- Node2&#45;&gt;Node3 -->
<g id="edge2_Node000002_Node000003" class="edge">
<title>Node2&#45;&gt;Node3</title>
<g id="a_edge2_Node000002_Node000003"><a xlink:title=" ">
<path fill="none" stroke="#63b8ff" d="M84.8,-54.84C74.72,-47.07 59.96,-35.67 47.94,-26.4"/>
<polygon fill="#63b8ff" stroke="#63b8ff" points="50.29,-23.79 40.23,-20.45 46.01,-29.33 50.29,-23.79"/>
</a>
</g>
</g>
<!-- Node4 -->
<g id="Node000004" class="node">
<title>Node4</title>
<g id="a_Node000004"><a xlink:title=" ">
<polygon fill="#e0e0e0" stroke="#999999" points="184.88,-19.25 138.12,-19.25 138.12,0 184.88,0 184.88,-19.25"/>
<text text-anchor="middle" x="161.5" y="-5.75" font-family="Helvetica,sans-Serif" font-size="10.00">stdlib.h</text>
</a>
</g>
</g>
<!-- Node2&#45;&gt;Node4 -->
<g id="edge3_Node000002_Node000004" class="edge">
<title>Node2&#45;&gt;Node4</title>
<g id="a_edge3_Node000002_Node000004"><a xlink:title=" ">
<path fill="none" stroke="#63b8ff" d="M107.53,-54.84C116.92,-47.15 130.65,-35.9 141.91,-26.68"/>
<polygon fill="#63b8ff" stroke="#63b8ff" points="143.95,-29.53 149.47,-20.48 139.51,-24.11 143.95,-29.53"/>
</a>
</g>
</g>
<!-- Node5 -->
<g id="Node000005" class="node">
<title>Node5</title>
<g id="a_Node000005"><a xlink:title=" ">
<polygon fill="#e0e0e0" stroke="#999999" points="119.88,-19.25 73.12,-19.25 73.12,0 119.88,0 119.88,-19.25"/>
<text text-anchor="middle" x="96.5" y="-5.75" font-family="Helvetica,sans-Serif" font-size="10.00">limits.h</text>
</a>
</g>
</g>
<!-- Node2&#45;&gt;Node5 -->
<g id="edge4_Node000002_Node000005" class="edge">
<title>Node2&#45;&gt;Node5</title>
<g id="a_edge4_Node000002_Node000005"><a xlink:title=" ">
<path fill="none" stroke="#63b8ff" d="M96.5,-55.08C96.5,-48.57 96.5,-39.42 96.5,-31.12"/>
<polygon fill="#63b8ff" stroke="#63b8ff" points="100,-31.12 96.5,-21.12 93,-31.12 100,-31.12"/>
</a>
</g>
</g>
<!-- Node6&#45;&gt;Node4 -->
<g id="edge6_Node000006_Node000004" class="edge">
<title>Node6&#45;&gt;Node4</title>
<g id="a_edge6_Node000006_Node000004"><a xlink:title=" ">
<path fill="none" stroke="#63b8ff" d="M247.38,-112.95C220.84,-104.38 176.31,-88.34 166.5,-74.5 157.54,-61.85 156.85,-44.05 158.09,-30.45"/>
<polygon fill="#63b8ff" stroke="#63b8ff" points="161.5,-31.29 159.38,-20.91 154.57,-30.35 161.5,-31.29"/>
</a>
</g>
</g>
<!-- Node7 -->
<g id="Node000007" class="node">
<title>Node7</title>
<g id="a_Node000007"><a xlink:title=" ">
<polygon fill="#e0e0e0" stroke="#999999" points="440.38,-19.25 390.62,-19.25 390.62,0 440.38,0 440.38,-19.25"/>
<text text-anchor="middle" x="415.5" y="-5.75" font-family="Helvetica,sans-Serif" font-size="10.00">unistd.h</text>
</a>
</g>
</g>
<!-- Node6&#45;&gt;Node7 -->
<g id="edge7_Node000006_Node000007" class="edge">
<title>Node6&#45;&gt;Node7</title>
<g id="a_edge7_Node000006_Node000007"><a xlink:title=" ">
<path fill="none" stroke="#63b8ff" d="M287.51,-112.85C323.22,-101.59 394.57,-78.7 398.5,-74.5 409.41,-62.81 413.48,-44.93 414.93,-31.05"/>
<polygon fill="#63b8ff" stroke="#63b8ff" points="418.41,-31.43 415.54,-21.24 411.42,-31 418.41,-31.43"/>
</a>
</g>
</g>
<!-- Node8 -->
<g id="Node000008" class="node">
<title>Node8</title>
<g id="a_Node000008"><a xlink:title=" ">
<polygon fill="#e0e0e0" stroke="#999999" points="225.75,-74.5 175.25,-74.5 175.25,-55.25 225.75,-55.25 225.75,-74.5"/>
<text text-anchor="middle" x="200.5" y="-61" font-family="Helvetica,sans-Serif" font-size="10.00">stddef.h</text>
</a>
</g>
</g>
<!-- Node6&#45;&gt;Node8 -->
<g id="edge8_Node000006_Node000008" class="edge">
<title>Node6&#45;&gt;Node8</title>
<g id="a_edge8_Node000006_Node000008"><a xlink:title=" ">
<path fill="none" stroke="#63b8ff" d="M256.13,-110.09C246.45,-102.4 232.3,-91.15 220.69,-81.93"/>
<polygon fill="#63b8ff" stroke="#63b8ff" points="222.89,-79.2 212.88,-75.72 218.53,-84.68 222.89,-79.2"/>
</a>
</g>
</g>
<!-- Node9 -->
<g id="Node000009" class="node">
<title>Node9</title>
<g id="a_Node000009"><a xlink:title=" ">
<polygon fill="#e0e0e0" stroke="#999999" points="291.25,-74.5 243.75,-74.5 243.75,-55.25 291.25,-55.25 291.25,-74.5"/>
<text text-anchor="middle" x="267.5" y="-61" font-family="Helvetica,sans-Serif" font-size="10.00">stdint.h</text>
</a>
</g>
</g>
<!-- Node6&#45;&gt;Node9 -->
<g id="edge9_Node000006_Node000009" class="edge">
<title>Node6&#45;&gt;Node9</title>
<g id="a_edge9_Node000006_Node000009"><a xlink:title=" ">
<path fill="none" stroke="#63b8ff" d="M267.5,-110.33C267.5,-103.82 267.5,-94.67 267.5,-86.37"/>
<polygon fill="#63b8ff" stroke="#63b8ff" points="271,-86.37 267.5,-76.37 264,-86.37 271,-86.37"/>
</a>
</g>
</g>
<!-- Node10 -->
<g id="Node000010" class="node">
<title>Node10</title>
<g id="a_Node000010"><a xlink:href="get__next__line_8h.html" target="_top" xlink:title=" ">
<polygon fill="white" stroke="#666666" points="389.75,-74.5 309.25,-74.5 309.25,-55.25 389.75,-55.25 389.75,-74.5"/>
<text text-anchor="middle" x="349.5" y="-61" font-family="Helvetica,sans-Serif" font-size="10.00">get_next_line.h</text>
</a>
</g>
</g>
<!-- Node6&#45;&gt;Node10 -->
<g id="edge10_Node000006_Node000010" class="edge">
<title>Node6&#45;&gt;Node10</title>
<g id="a_edge10_Node000006_Node000010"><a xlink:title=" ">
<path fill="none" stroke="#63b8ff" d="M281.41,-110.09C293.66,-102.14 311.75,-90.39 326.21,-81"/>
<polygon fill="#63b8ff" stroke="#63b8ff" points="327.77,-84.16 334.25,-75.78 323.96,-78.29 327.77,-84.16"/>
</a>
</g>
</g>
<!-- Node12 -->
<g id="Node000012" class="node">
<title>Node12</title>
<g id="a_Node000012"><a xlink:href="ft__printf_8h.html" target="_top" xlink:title=" ">
<polygon fill="white" stroke="#666666" points="501.75,-74.5 445.25,-74.5 445.25,-55.25 501.75,-55.25 501.75,-74.5"/>
<text text-anchor="middle" x="473.5" y="-61" font-family="Helvetica,sans-Serif" font-size="10.00">ft_printf.h</text>
</a>
</g>
</g>
<!-- Node6&#45;&gt;Node12 -->
<g id="edge14_Node000006_Node000012" class="edge">
<title>Node6&#45;&gt;Node12</title>
<g id="a_edge14_Node000006_Node000012"><a xlink:title=" ">
<path fill="none" stroke="#63b8ff" d="M287.96,-110.37C337.9,-96.67 396.11,-82.31 433.97,-73.73"/>
<polygon fill="#63b8ff" stroke="#63b8ff" points="434.56,-77.18 443.56,-71.59 433.03,-70.35 434.56,-77.18"/>
</a>
</g>
</g>
<!-- Node10&#45;&gt;Node4 -->
<g id="edge11_Node000010_Node000004" class="edge">
<title>Node10&#45;&gt;Node4</title>
<g id="a_edge11_Node000010_Node000004"><a xlink:title=" ">
<path fill="none" stroke="#63b8ff" d="M317.61,-54.84C283.91,-45.3 230.95,-30.3 196.22,-20.46"/>
<polygon fill="#63b8ff" stroke="#63b8ff" points="197.23,-17.11 186.65,-17.75 195.32,-23.84 197.23,-17.11"/>
</a>
</g>
</g>
<!-- Node10&#45;&gt;Node7 -->
<g id="edge13_Node000010_Node000007" class="edge">
<title>Node10&#45;&gt;Node7</title>
<g id="a_edge13_Node000010_Node000007"><a xlink:title=" ">
<path fill="none" stroke="#63b8ff" d="M360.7,-54.84C370.24,-47.15 384.17,-35.9 395.61,-26.68"/>
<polygon fill="#63b8ff" stroke="#63b8ff" points="397.71,-29.48 403.29,-20.48 393.31,-24.03 397.71,-29.48"/>
</a>
</g>
</g>
<!-- Node11 -->
<g id="Node000011" class="node">
<title>Node11</title>
<g id="a_Node000011"><a xlink:title=" ">
<polygon fill="#e0e0e0" stroke="#999999" points="370.62,-19.25 328.38,-19.25 328.38,0 370.62,0 370.62,-19.25"/>
<text text-anchor="middle" x="349.5" y="-5.75" font-family="Helvetica,sans-Serif" font-size="10.00">fcntl.h</text>
</a>
</g>
</g>
<!-- Node10&#45;&gt;Node11 -->
<g id="edge12_Node000010_Node000011" class="edge">
<title>Node10&#45;&gt;Node11</title>
<g id="a_edge12_Node000010_Node000011"><a xlink:title=" ">
<path fill="none" stroke="#63b8ff" d="M349.5,-55.08C349.5,-48.57 349.5,-39.42 349.5,-31.12"/>
<polygon fill="#63b8ff" stroke="#63b8ff" points="353,-31.12 349.5,-21.12 346,-31.12 353,-31.12"/>
</a>
</g>
</g>
<!-- Node12&#45;&gt;Node6 -->
<g id="edge17_Node000012_Node000006" class="edge">
<title>Node12&#45;&gt;Node6</title>
<g id="a_edge17_Node000012_Node000006"><a xlink:title=" ">
<path fill="none" stroke="#63b8ff" d="M444.93,-74.33C411.31,-83 354.39,-97.07 305.5,-110.5 303.28,-111.11 300.98,-111.76 298.63,-112.42"/>
<polygon fill="#63b8ff" stroke="#63b8ff" points="297.73,-109.04 289.02,-115.08 299.6,-115.79 297.73,-109.04"/>
</a>
</g>
</g>
<!-- Node12&#45;&gt;Node7 -->
<g id="edge16_Node000012_Node000007" class="edge">
<title>Node12&#45;&gt;Node7</title>
<g id="a_edge16_Node000012_Node000007"><a xlink:title=" ">
<path fill="none" stroke="#63b8ff" d="M463.66,-54.84C455.45,-47.3 443.52,-36.35 433.59,-27.23"/>
<polygon fill="#63b8ff" stroke="#63b8ff" points="436.04,-24.73 426.31,-20.55 431.31,-29.89 436.04,-24.73"/>
</a>
</g>
</g>
<!-- Node13 -->
<g id="Node000013" class="node">
<title>Node13</title>
<g id="a_Node000013"><a xlink:title=" ">
<polygon fill="#e0e0e0" stroke="#999999" points="508.75,-19.25 458.25,-19.25 458.25,0 508.75,0 508.75,-19.25"/>
<text text-anchor="middle" x="483.5" y="-5.75" font-family="Helvetica,sans-Serif" font-size="10.00">stdarg.h</text>
</a>
</g>
</g>
<!-- Node12&#45;&gt;Node13 -->
<g id="edge15_Node000012_Node000013" class="edge">
<title>Node12&#45;&gt;Node13</title>
<g id="a_edge15_Node000012_Node000013"><a xlink:title=" ">
<path fill="none" stroke="#63b8ff" d="M475.15,-55.08C476.39,-48.49 478.13,-39.21 479.71,-30.82"/>
<polygon fill="#63b8ff" stroke="#63b8ff" points="483.13,-31.57 481.53,-21.1 476.25,-30.28 483.13,-31.57"/>
</a>
</g>
</g>
<!-- Node14&#45;&gt;Node2 -->
<g id="edge19_Node000014_Node000002" class="edge">
<title>Node14&#45;&gt;Node2</title>
<g id="a_edge19_Node000014_Node000002"><a xlink:title=" ">
<path fill="none" stroke="#63b8ff" d="M168.74,-110.09C155.62,-102.06 136.18,-90.16 120.77,-80.73"/>
<polygon fill="#63b8ff" stroke="#63b8ff" points="122.98,-77.98 112.62,-75.74 119.32,-83.95 122.98,-77.98"/>
</a>
</g>
</g>
</g>
</svg>
