<?xml version="1.0" encoding="UTF-8" standalone="no"?>
<!DOCTYPE svg PUBLIC "-//W3C//DTD SVG 1.1//EN"
 "http://www.w3.org/Graphics/SVG/1.1/DTD/svg11.dtd">
<!-- Generated by graphviz version 9.0.0 (20230911.1827)
 -->
<!-- Title: /github/workspace/SRC/BASE Pages: 1 -->
<svg width="479pt" height="126pt"
 viewBox="0.00 0.00 479.00 125.75" xmlns="http://www.w3.org/2000/svg" xmlns:xlink="http://www.w3.org/1999/xlink">
<g id="graph0" class="graph" transform="scale(1 1) rotate(0) translate(4 121.75)">
<title>/github/workspace/SRC/BASE</title>
<g id="clust1" class="cluster">
<title>clusterdir_1e771ff450ae847412a8c28572c155bb</title>
<g id="a_clust1"><a xlink:href="dir_1e771ff450ae847412a8c28572c155bb.html" target="_top" xlink:title="SRC">
<polygon fill="#edf0f7" stroke="#404040" stroke-dasharray="5,2" points="8,-39.25 8,-109.75 463,-109.75 463,-39.25 8,-39.25"/>
<text text-anchor="middle" x="235.5" y="-96.25" font-family="Helvetica,sans-Serif" font-size="10.00">SRC</text>
</a>
</g>
</g>
<g id="clust2" class="cluster">
<title>clusterdir_f8659226778dc9f909a534bc79761b71</title>
<g id="a_clust2"><a xlink:href="dir_f8659226778dc9f909a534bc79761b71.html" target="_top">
<polygon fill="#edf0f7" stroke="#404040" stroke-width="2" points="16,-47.25 16,-82.5 455,-82.5 455,-47.25 16,-47.25"/>
</a>
</g>
</g>
<!-- dir_f8659226778dc9f909a534bc79761b71 -->
<g id="node1" class="node">
<title>dir_f8659226778dc9f909a534bc79761b71</title>
<text text-anchor="middle" x="426" y="-61" font-family="Helvetica,sans-Serif" font-size="10.00">BASE</text>
</g>
<!-- dir_f2079848438f820d18bff17036c3f0c7 -->
<g id="node2" class="node">
<title>dir_f2079848438f820d18bff17036c3f0c7</title>
<g id="a_node2"><a xlink:href="dir_f2079848438f820d18bff17036c3f0c7.html" target="_top" xlink:title="COLOURS">
<polygon fill="#a2b4d6" stroke="#404040" points="168.38,-74.5 103.62,-74.5 103.62,-55.25 168.38,-55.25 168.38,-74.5"/>
<text text-anchor="middle" x="136" y="-61" font-family="Helvetica,sans-Serif" font-size="10.00">COLOURS</text>
</a>
</g>
</g>
<!-- dir_4c1954b16240b09fc149beff73880b13 -->
<g id="node7" class="node">
<title>dir_4c1954b16240b09fc149beff73880b13</title>
<g id="a_node7"><a xlink:href="dir_4c1954b16240b09fc149beff73880b13.html" target="_top" xlink:title="INC">
<polygon fill="#edf0f7" stroke="#404040" points="204.62,-19.25 171.38,-19.25 171.38,0 204.62,0 204.62,-19.25"/>
<text text-anchor="middle" x="188" y="-5.75" font-family="Helvetica,sans-Serif" font-size="10.00">INC</text>
</a>
</g>
</g>
<!-- dir_f2079848438f820d18bff17036c3f0c7&#45;&gt;dir_4c1954b16240b09fc149beff73880b13 -->
<g id="edge1" class="edge">
<title>dir_f2079848438f820d18bff17036c3f0c7&#45;&gt;dir_4c1954b16240b09fc149beff73880b13</title>
<g id="a_edge1"><a xlink:href="dir_000004_000011.html" target="_top">
<path fill="none" stroke="#63b8ff" d="M144.59,-55.08C151.84,-47.65 162.45,-36.79 171.37,-27.66"/>
<polygon fill="#63b8ff" stroke="#63b8ff" points="173.69,-30.29 178.17,-20.69 168.68,-25.4 173.69,-30.29"/>
</a>
</g>
<g id="a_edge1&#45;headlabel"><a xlink:href="dir_000004_000011.html" target="_top" xlink:title="3">
<text text-anchor="middle" x="174.26" y="-29.89" font-family="Helvetica,sans-Serif" font-size="10.00" fill="#63b8ff">3</text>
</a>
</g>
</g>
<!-- dir_c49787b21523dfcd643eafa322448430 -->
<g id="node8" class="node">
<title>dir_c49787b21523dfcd643eafa322448430</title>
<g id="a_node8"><a xlink:href="dir_c49787b21523dfcd643eafa322448430.html" target="_top" xlink:title="LIB">
<polygon fill="#edf0f7" stroke="red" points="254.88,-19.25 223.12,-19.25 223.12,0 254.88,0 254.88,-19.25"/>
<text text-anchor="middle" x="239" y="-5.75" font-family="Helvetica,sans-Serif" font-size="10.00">LIB</text>
</a>
</g>
</g>
<!-- dir_f2079848438f820d18bff17036c3f0c7&#45;&gt;dir_c49787b21523dfcd643eafa322448430 -->
<g id="edge2" class="edge">
<title>dir_f2079848438f820d18bff17036c3f0c7&#45;&gt;dir_c49787b21523dfcd643eafa322448430</title>
<g id="a_edge2"><a xlink:href="dir_000004_000013.html" target="_top">
<path fill="none" stroke="#63b8ff" d="M150.59,-54.88C158.58,-50.06 168.73,-44.13 178,-39.25 189.06,-33.43 201.52,-27.48 212.28,-22.52"/>
<polygon fill="#63b8ff" stroke="#63b8ff" points="213.72,-25.71 221.37,-18.39 210.82,-19.34 213.72,-25.71"/>
</a>
</g>
<g id="a_edge2&#45;headlabel"><a xlink:href="dir_000004_000013.html" target="_top" xlink:title="1">
<text text-anchor="middle" x="213" y="-25.28" font-family="Helvetica,sans-Serif" font-size="10.00" fill="#63b8ff">1</text>
</a>
</g>
</g>
<!-- dir_3ab34c9f2bdfb416e2992a82903b2b6b -->
<g id="node3" class="node">
<title>dir_3ab34c9f2bdfb416e2992a82903b2b6b</title>
<g id="a_node3"><a xlink:href="dir_3ab34c9f2bdfb416e2992a82903b2b6b.html" target="_top" xlink:title="HELPERS">
<polygon fill="#a2b4d6" stroke="#404040" points="85.88,-74.5 24.12,-74.5 24.12,-55.25 85.88,-55.25 85.88,-74.5"/>
<text text-anchor="middle" x="55" y="-61" font-family="Helvetica,sans-Serif" font-size="10.00">HELPERS</text>
</a>
</g>
</g>
<!-- dir_3ab34c9f2bdfb416e2992a82903b2b6b&#45;&gt;dir_4c1954b16240b09fc149beff73880b13 -->
<g id="edge3" class="edge">
<title>dir_3ab34c9f2bdfb416e2992a82903b2b6b&#45;&gt;dir_4c1954b16240b09fc149beff73880b13</title>
<g id="a_edge3"><a xlink:href="dir_000010_000011.html" target="_top">
<path fill="none" stroke="#63b8ff" d="M67.87,-54.79C75.49,-49.71 85.49,-43.56 95,-39.25 116.06,-29.72 141.17,-22.2 159.99,-17.26"/>
<polygon fill="#63b8ff" stroke="#63b8ff" points="160.76,-20.68 169.6,-14.83 159.05,-13.89 160.76,-20.68"/>
</a>
</g>
<g id="a_edge3&#45;headlabel"><a xlink:href="dir_000010_000011.html" target="_top" xlink:title="9">
<text text-anchor="middle" x="159.44" y="-20.06" font-family="Helvetica,sans-Serif" font-size="10.00" fill="#63b8ff">9</text>
</a>
</g>
</g>
<!-- dir_3ab34c9f2bdfb416e2992a82903b2b6b&#45;&gt;dir_c49787b21523dfcd643eafa322448430 -->
<g id="edge4" class="edge">
<title>dir_3ab34c9f2bdfb416e2992a82903b2b6b&#45;&gt;dir_c49787b21523dfcd643eafa322448430</title>
<g id="a_edge4"><a xlink:href="dir_000010_000013.html" target="_top">
<path fill="none" stroke="#63b8ff" d="M66.97,-54.8C74.6,-49.46 84.92,-43.03 95,-39.25 142.07,-21.58 159.8,-31.1 211.83,-19.33"/>
<polygon fill="#63b8ff" stroke="#63b8ff" points="212.35,-22.8 221.24,-17.04 210.7,-16 212.35,-22.8"/>
</a>
</g>
<g id="a_edge4&#45;headlabel"><a xlink:href="dir_000010_000013.html" target="_top" xlink:title="1">
<text text-anchor="middle" x="211" y="-22.18" font-family="Helvetica,sans-Serif" font-size="10.00" fill="#63b8ff">1</text>
</a>
</g>
</g>
<!-- dir_6c7f3de3a12eec8b274bc435f87a77df -->
<g id="node4" class="node">
<title>dir_6c7f3de3a12eec8b274bc435f87a77df</title>
<g id="a_node4"><a xlink:href="dir_6c7f3de3a12eec8b274bc435f87a77df.html" target="_top" xlink:title="MATRICES">
<polygon fill="#a2b4d6" stroke="#404040" points="387.12,-74.5 320.88,-74.5 320.88,-55.25 387.12,-55.25 387.12,-74.5"/>
<text text-anchor="middle" x="354" y="-61" font-family="Helvetica,sans-Serif" font-size="10.00">MATRICES</text>
</a>
</g>
</g>
<!-- dir_6c7f3de3a12eec8b274bc435f87a77df&#45;&gt;dir_4c1954b16240b09fc149beff73880b13 -->
<g id="edge5" class="edge">
<title>dir_6c7f3de3a12eec8b274bc435f87a77df&#45;&gt;dir_4c1954b16240b09fc149beff73880b13</title>
<g id="a_edge5"><a xlink:href="dir_000018_000011.html" target="_top">
<path fill="none" stroke="#63b8ff" d="M341.32,-54.95C333.26,-49.66 322.42,-43.24 312,-39.25 273.57,-24.53 259.11,-29.75 215.94,-19.39"/>
<polygon fill="#63b8ff" stroke="#63b8ff" points="217,-16.05 206.44,-16.95 215.26,-22.83 217,-16.05"/>
</a>
</g>
<g id="a_edge5&#45;headlabel"><a xlink:href="dir_000018_000011.html" target="_top" xlink:title="18">
<text text-anchor="middle" x="219.72" y="-9.94" font-family="Helvetica,sans-Serif" font-size="10.00" fill="#63b8ff">18</text>
</a>
</g>
</g>
<!-- dir_6c7f3de3a12eec8b274bc435f87a77df&#45;&gt;dir_c49787b21523dfcd643eafa322448430 -->
<g id="edge6" class="edge">
<title>dir_6c7f3de3a12eec8b274bc435f87a77df&#45;&gt;dir_c49787b21523dfcd643eafa322448430</title>
<g id="a_edge6"><a xlink:href="dir_000018_000013.html" target="_top">
<path fill="none" stroke="#63b8ff" d="M339.92,-54.87C331.9,-49.94 321.58,-43.9 312,-39.25 297.02,-31.98 279.69,-25.12 265.68,-19.94"/>
<polygon fill="#63b8ff" stroke="#63b8ff" points="267.28,-16.8 256.68,-16.69 264.9,-23.38 267.28,-16.8"/>
</a>
</g>
<g id="a_edge6&#45;headlabel"><a xlink:href="dir_000018_000013.html" target="_top" xlink:title="4">
<text text-anchor="middle" x="270.2" y="-10.96" font-family="Helvetica,sans-Serif" font-size="10.00" fill="#63b8ff">4</text>
</a>
</g>
</g>
<!-- dir_8bcc89c055a217327387112b9f4c936b -->
<g id="node5" class="node">
<title>dir_8bcc89c055a217327387112b9f4c936b</title>
<g id="a_node5"><a xlink:href="dir_8bcc89c055a217327387112b9f4c936b.html" target="_top" xlink:title="RAYS">
<polygon fill="#a2b4d6" stroke="#404040" points="302.5,-74.5 259.5,-74.5 259.5,-55.25 302.5,-55.25 302.5,-74.5"/>
<text text-anchor="middle" x="281" y="-61" font-family="Helvetica,sans-Serif" font-size="10.00">RAYS</text>
</a>
</g>
</g>
<!-- dir_8bcc89c055a217327387112b9f4c936b&#45;&gt;dir_4c1954b16240b09fc149beff73880b13 -->
<g id="edge7" class="edge">
<title>dir_8bcc89c055a217327387112b9f4c936b&#45;&gt;dir_4c1954b16240b09fc149beff73880b13</title>
<g id="a_edge7"><a xlink:href="dir_000027_000011.html" target="_top">
<path fill="none" stroke="#63b8ff" d="M271.49,-54.98C265.82,-49.97 258.32,-43.81 251,-39.25 239.91,-32.34 226.87,-26.14 215.54,-21.29"/>
<polygon fill="#63b8ff" stroke="#63b8ff" points="216.9,-18.06 206.32,-17.49 214.23,-24.53 216.9,-18.06"/>
</a>
</g>
<g id="a_edge7&#45;headlabel"><a xlink:href="dir_000027_000011.html" target="_top" xlink:title="12">
<text text-anchor="middle" x="219.91" y="-12.35" font-family="Helvetica,sans-Serif" font-size="10.00" fill="#63b8ff">12</text>
</a>
</g>
</g>
<!-- dir_8bcc89c055a217327387112b9f4c936b&#45;&gt;dir_c49787b21523dfcd643eafa322448430 -->
<g id="edge8" class="edge">
<title>dir_8bcc89c055a217327387112b9f4c936b&#45;&gt;dir_c49787b21523dfcd643eafa322448430</title>
<g id="a_edge8"><a xlink:href="dir_000027_000013.html" target="_top">
<path fill="none" stroke="#63b8ff" d="M274.06,-55.08C268.38,-47.88 260.16,-37.46 253.11,-28.51"/>
<polygon fill="#63b8ff" stroke="#63b8ff" points="255.96,-26.48 247.02,-20.8 250.47,-30.82 255.96,-26.48"/>
</a>
</g>
<g id="a_edge8&#45;headlabel"><a xlink:href="dir_000027_000013.html" target="_top" xlink:title="3">
<text text-anchor="middle" x="259.48" y="-22.48" font-family="Helvetica,sans-Serif" font-size="10.00" fill="#63b8ff">3</text>
</a>
</g>
</g>
<!-- dir_5fbb4fb5ae77566d9353158f4c0b2a08 -->
<g id="node6" class="node">
<title>dir_5fbb4fb5ae77566d9353158f4c0b2a08</title>
<g id="a_node6"><a xlink:href="dir_5fbb4fb5ae77566d9353158f4c0b2a08.html" target="_top" xlink:title="TUPLES">
<polygon fill="#a2b4d6" stroke="#404040" points="241.5,-74.5 186.5,-74.5 186.5,-55.25 241.5,-55.25 241.5,-74.5"/>
<text text-anchor="middle" x="214" y="-61" font-family="Helvetica,sans-Serif" font-size="10.00">TUPLES</text>
</a>
</g>
</g>
<!-- dir_5fbb4fb5ae77566d9353158f4c0b2a08&#45;&gt;dir_4c1954b16240b09fc149beff73880b13 -->
<g id="edge9" class="edge">
<title>dir_5fbb4fb5ae77566d9353158f4c0b2a08&#45;&gt;dir_4c1954b16240b09fc149beff73880b13</title>
<g id="a_edge9"><a xlink:href="dir_000033_000011.html" target="_top">
<path fill="none" stroke="#63b8ff" d="M209.71,-55.08C206.38,-48.26 201.64,-38.56 197.44,-29.95"/>
<polygon fill="#63b8ff" stroke="#63b8ff" points="200.58,-28.42 193.05,-20.97 194.29,-31.49 200.58,-28.42"/>
</a>
</g>
<g id="a_edge9&#45;headlabel"><a xlink:href="dir_000033_000011.html" target="_top" xlink:title="14">
<text text-anchor="middle" x="204.05" y="-25.17" font-family="Helvetica,sans-Serif" font-size="10.00" fill="#63b8ff">14</text>
</a>
</g>
</g>
<!-- dir_5fbb4fb5ae77566d9353158f4c0b2a08&#45;&gt;dir_c49787b21523dfcd643eafa322448430 -->
<g id="edge10" class="edge">
<title>dir_5fbb4fb5ae77566d9353158f4c0b2a08&#45;&gt;dir_c49787b21523dfcd643eafa322448430</title>
<g id="a_edge10"><a xlink:href="dir_000033_000013.html" target="_top">
<path fill="none" stroke="#63b8ff" d="M218.13,-55.08C221.33,-48.26 225.89,-38.56 229.93,-29.95"/>
<polygon fill="#63b8ff" stroke="#63b8ff" points="233.06,-31.52 234.14,-20.98 226.72,-28.54 233.06,-31.52"/>
</a>
</g>
<g id="a_edge10&#45;headlabel"><a xlink:href="dir_000033_000013.html" target="_top" xlink:title="2">
<text text-anchor="middle" x="234.74" y="-30.73" font-family="Helvetica,sans-Serif" font-size="10.00" fill="#63b8ff">2</text>
</a>
</g>
</g>
</g>
</svg>
