<?xml version="1.0" encoding="UTF-8" standalone="no"?>
<!DOCTYPE svg PUBLIC "-//W3C//DTD SVG 1.1//EN"
 "http://www.w3.org/Graphics/SVG/1.1/DTD/svg11.dtd">
<!-- Generated by graphviz version 9.0.0 (20230911.1827)
 -->
<!-- Title: /github/workspace/SRC Pages: 1 -->
<svg width="441pt" height="99pt"
 viewBox="0.00 0.00 441.00 98.50" xmlns="http://www.w3.org/2000/svg" xmlns:xlink="http://www.w3.org/1999/xlink">
<g id="graph0" class="graph" transform="scale(1 1) rotate(0) translate(4 94.5)">
<title>/github/workspace/SRC</title>
<g id="clust1" class="cluster">
<title>clusterdir_1e771ff450ae847412a8c28572c155bb</title>
<g id="a_clust1"><a xlink:href="dir_1e771ff450ae847412a8c28572c155bb.html" target="_top">
<polygon fill="#edf0f7" stroke="#404040" stroke-width="2" points="8,-47.25 8,-82.5 425,-82.5 425,-47.25 8,-47.25"/>
</a>
</g>
</g>
<!-- dir_1e771ff450ae847412a8c28572c155bb -->
<g id="node1" class="node">
<title>dir_1e771ff450ae847412a8c28572c155bb</title>
<text text-anchor="middle" x="112" y="-61" font-family="Helvetica,sans-Serif" font-size="10.00">SRC</text>
</g>
<!-- dir_4c1954b16240b09fc149beff73880b13 -->
<g id="node7" class="node">
<title>dir_4c1954b16240b09fc149beff73880b13</title>
<g id="a_node7"><a xlink:href="dir_4c1954b16240b09fc149beff73880b13.html" target="_top" xlink:title="INC">
<polygon fill="#edf0f7" stroke="#404040" points="219.62,-19.25 186.38,-19.25 186.38,0 219.62,0 219.62,-19.25"/>
<text text-anchor="middle" x="203" y="-5.75" font-family="Helvetica,sans-Serif" font-size="10.00">INC</text>
</a>
</g>
</g>
<!-- dir_1e771ff450ae847412a8c28572c155bb&#45;&gt;dir_4c1954b16240b09fc149beff73880b13 -->
<g id="edge1" class="edge">
<title>dir_1e771ff450ae847412a8c28572c155bb&#45;&gt;dir_4c1954b16240b09fc149beff73880b13</title>
<g id="a_edge1"><a xlink:href="dir_000030_000011.html" target="_top">
<path fill="none" stroke="#63b8ff" d="M126.23,-55.39C130.64,-52.77 135.52,-49.88 140,-47.25 152.36,-39.99 166.12,-31.98 177.62,-25.31"/>
<polygon fill="#63b8ff" stroke="#63b8ff" points="179.24,-28.42 186.13,-20.37 175.73,-22.36 179.24,-28.42"/>
</a>
</g>
<g id="a_edge1&#45;headlabel"><a xlink:href="dir_000030_000011.html" target="_top" xlink:title="112">
<text text-anchor="middle" x="178.86" y="-28.04" font-family="Helvetica,sans-Serif" font-size="10.00" fill="#63b8ff">112</text>
</a>
</g>
</g>
<!-- dir_f8659226778dc9f909a534bc79761b71 -->
<g id="node2" class="node">
<title>dir_f8659226778dc9f909a534bc79761b71</title>
<g id="a_node2"><a xlink:href="dir_f8659226778dc9f909a534bc79761b71.html" target="_top" xlink:title="BASE">
<polygon fill="#a2b4d6" stroke="#404040" points="252.12,-74.5 209.88,-74.5 209.88,-55.25 252.12,-55.25 252.12,-74.5"/>
<text text-anchor="middle" x="231" y="-61" font-family="Helvetica,sans-Serif" font-size="10.00">BASE</text>
</a>
</g>
</g>
<!-- dir_f8659226778dc9f909a534bc79761b71&#45;&gt;dir_4c1954b16240b09fc149beff73880b13 -->
<g id="edge2" class="edge">
<title>dir_f8659226778dc9f909a534bc79761b71&#45;&gt;dir_4c1954b16240b09fc149beff73880b13</title>
<g id="a_edge2"><a xlink:href="dir_000001_000011.html" target="_top">
<path fill="none" stroke="#63b8ff" d="M226.38,-55.08C222.75,-48.19 217.57,-38.34 213.01,-29.66"/>
<polygon fill="#63b8ff" stroke="#63b8ff" points="216.18,-28.17 208.43,-20.95 209.98,-31.43 216.18,-28.17"/>
</a>
</g>
<g id="a_edge2&#45;headlabel"><a xlink:href="dir_000001_000011.html" target="_top" xlink:title="56">
<text text-anchor="middle" x="219.66" y="-24.82" font-family="Helvetica,sans-Serif" font-size="10.00" fill="#63b8ff">56</text>
</a>
</g>
</g>
<!-- dir_c49787b21523dfcd643eafa322448430 -->
<g id="node8" class="node">
<title>dir_c49787b21523dfcd643eafa322448430</title>
<g id="a_node8"><a xlink:href="dir_c49787b21523dfcd643eafa322448430.html" target="_top" xlink:title="LIB">
<polygon fill="#edf0f7" stroke="red" points="274.88,-19.25 243.12,-19.25 243.12,0 274.88,0 274.88,-19.25"/>
<text text-anchor="middle" x="259" y="-5.75" font-family="Helvetica,sans-Serif" font-size="10.00">LIB</text>
</a>
</g>
</g>
<!-- dir_f8659226778dc9f909a534bc79761b71&#45;&gt;dir_c49787b21523dfcd643eafa322448430 -->
<g id="edge3" class="edge">
<title>dir_f8659226778dc9f909a534bc79761b71&#45;&gt;dir_c49787b21523dfcd643eafa322448430</title>
<g id="a_edge3"><a xlink:href="dir_000001_000013.html" target="_top">
<path fill="none" stroke="#63b8ff" d="M235.62,-55.08C239.25,-48.19 244.43,-38.34 248.99,-29.66"/>
<polygon fill="#63b8ff" stroke="#63b8ff" points="252.02,-31.43 253.57,-20.95 245.82,-28.17 252.02,-31.43"/>
</a>
</g>
<g id="a_edge3&#45;headlabel"><a xlink:href="dir_000001_000013.html" target="_top" xlink:title="11">
<text text-anchor="middle" x="253.56" y="-30.72" font-family="Helvetica,sans-Serif" font-size="10.00" fill="#63b8ff">11</text>
</a>
</g>
</g>
<!-- dir_e0db9301c3cd9b8f0dcc10c710fd3e76 -->
<g id="node3" class="node">
<title>dir_e0db9301c3cd9b8f0dcc10c710fd3e76</title>
<g id="a_node3"><a xlink:href="dir_e0db9301c3cd9b8f0dcc10c710fd3e76.html" target="_top" xlink:title="CORE">
<polygon fill="#a2b4d6" stroke="#404040" points="191.5,-74.5 148.5,-74.5 148.5,-55.25 191.5,-55.25 191.5,-74.5"/>
<text text-anchor="middle" x="170" y="-61" font-family="Helvetica,sans-Serif" font-size="10.00">CORE</text>
</a>
</g>
</g>
<!-- dir_e0db9301c3cd9b8f0dcc10c710fd3e76&#45;&gt;dir_4c1954b16240b09fc149beff73880b13 -->
<g id="edge4" class="edge">
<title>dir_e0db9301c3cd9b8f0dcc10c710fd3e76&#45;&gt;dir_4c1954b16240b09fc149beff73880b13</title>
<g id="a_edge4"><a xlink:href="dir_000006_000011.html" target="_top">
<path fill="none" stroke="#63b8ff" d="M175.45,-55.08C179.77,-48.11 185.96,-38.12 191.38,-29.37"/>
<polygon fill="#63b8ff" stroke="#63b8ff" points="194.34,-31.24 196.64,-20.9 188.39,-27.55 194.34,-31.24"/>
</a>
</g>
<g id="a_edge4&#45;headlabel"><a xlink:href="dir_000006_000011.html" target="_top" xlink:title="28">
<text text-anchor="middle" x="195.66" y="-30.63" font-family="Helvetica,sans-Serif" font-size="10.00" fill="#63b8ff">28</text>
</a>
</g>
</g>
<!-- dir_e0db9301c3cd9b8f0dcc10c710fd3e76&#45;&gt;dir_c49787b21523dfcd643eafa322448430 -->
<g id="edge5" class="edge">
<title>dir_e0db9301c3cd9b8f0dcc10c710fd3e76&#45;&gt;dir_c49787b21523dfcd643eafa322448430</title>
<g id="a_edge5"><a xlink:href="dir_000006_000013.html" target="_top">
<path fill="none" stroke="#63b8ff" d="M185.1,-54.84C198.52,-46.81 218.41,-34.91 234.17,-25.48"/>
<polygon fill="#63b8ff" stroke="#63b8ff" points="235.75,-28.62 242.53,-20.48 232.15,-22.61 235.75,-28.62"/>
</a>
</g>
<g id="a_edge5&#45;headlabel"><a xlink:href="dir_000006_000013.html" target="_top" xlink:title="15">
<text text-anchor="middle" x="235.42" y="-28.25" font-family="Helvetica,sans-Serif" font-size="10.00" fill="#63b8ff">15</text>
</a>
</g>
</g>
<!-- dir_25467ffcf07bceed219fb7e0bc464e70 -->
<g id="node4" class="node">
<title>dir_25467ffcf07bceed219fb7e0bc464e70</title>
<g id="a_node4"><a xlink:href="dir_25467ffcf07bceed219fb7e0bc464e70.html" target="_top" xlink:title="FEATURES">
<polygon fill="#a2b4d6" stroke="#404040" points="416.88,-74.5 349.12,-74.5 349.12,-55.25 416.88,-55.25 416.88,-74.5"/>
<text text-anchor="middle" x="383" y="-61" font-family="Helvetica,sans-Serif" font-size="10.00">FEATURES</text>
</a>
</g>
</g>
<!-- dir_25467ffcf07bceed219fb7e0bc464e70&#45;&gt;dir_4c1954b16240b09fc149beff73880b13 -->
<g id="edge6" class="edge">
<title>dir_25467ffcf07bceed219fb7e0bc464e70&#45;&gt;dir_4c1954b16240b09fc149beff73880b13</title>
<g id="a_edge6"><a xlink:href="dir_000008_000011.html" target="_top">
<path fill="none" stroke="#63b8ff" d="M361.82,-54.91C355.21,-52.27 347.86,-49.5 341,-47.25 294.28,-31.95 281.46,-32.06 234,-19.25 233.01,-18.98 232,-18.71 230.98,-18.43"/>
<polygon fill="#63b8ff" stroke="#63b8ff" points="232.07,-15.1 221.5,-15.82 230.21,-21.85 232.07,-15.1"/>
</a>
</g>
<g id="a_edge6&#45;headlabel"><a xlink:href="dir_000008_000011.html" target="_top" xlink:title="2">
<text text-anchor="middle" x="234.83" y="-9.04" font-family="Helvetica,sans-Serif" font-size="10.00" fill="#63b8ff">2</text>
</a>
</g>
</g>
<!-- dir_25467ffcf07bceed219fb7e0bc464e70&#45;&gt;dir_c49787b21523dfcd643eafa322448430 -->
<g id="edge7" class="edge">
<title>dir_25467ffcf07bceed219fb7e0bc464e70&#45;&gt;dir_c49787b21523dfcd643eafa322448430</title>
<g id="a_edge7"><a xlink:href="dir_000008_000013.html" target="_top">
<path fill="none" stroke="#63b8ff" d="M361.97,-54.84C340.83,-45.76 308.19,-31.75 285.34,-21.94"/>
<polygon fill="#63b8ff" stroke="#63b8ff" points="286.96,-18.82 276.39,-18.09 284.2,-25.26 286.96,-18.82"/>
</a>
</g>
<g id="a_edge7&#45;headlabel"><a xlink:href="dir_000008_000013.html" target="_top" xlink:title="1">
<text text-anchor="middle" x="289.99" y="-13.16" font-family="Helvetica,sans-Serif" font-size="10.00" fill="#63b8ff">1</text>
</a>
</g>
</g>
<!-- dir_532d94c12be2ac13a59953227892b0a4 -->
<g id="node5" class="node">
<title>dir_532d94c12be2ac13a59953227892b0a4</title>
<g id="a_node5"><a xlink:href="dir_532d94c12be2ac13a59953227892b0a4.html" target="_top" xlink:title="OBJECTS">
<polygon fill="#a2b4d6" stroke="#404040" points="331.5,-74.5 270.5,-74.5 270.5,-55.25 331.5,-55.25 331.5,-74.5"/>
<text text-anchor="middle" x="301" y="-61" font-family="Helvetica,sans-Serif" font-size="10.00">OBJECTS</text>
</a>
</g>
</g>
<!-- dir_532d94c12be2ac13a59953227892b0a4&#45;&gt;dir_4c1954b16240b09fc149beff73880b13 -->
<g id="edge8" class="edge">
<title>dir_532d94c12be2ac13a59953227892b0a4&#45;&gt;dir_4c1954b16240b09fc149beff73880b13</title>
<g id="a_edge8"><a xlink:href="dir_000021_000011.html" target="_top">
<path fill="none" stroke="#63b8ff" d="M284.38,-54.84C269.31,-46.66 246.86,-34.46 229.35,-24.94"/>
<polygon fill="#63b8ff" stroke="#63b8ff" points="231.49,-22.12 221.04,-20.43 228.15,-28.27 231.49,-22.12"/>
</a>
</g>
<g id="a_edge8&#45;headlabel"><a xlink:href="dir_000021_000011.html" target="_top" xlink:title="18">
<text text-anchor="middle" x="234.68" y="-16.75" font-family="Helvetica,sans-Serif" font-size="10.00" fill="#63b8ff">18</text>
</a>
</g>
</g>
<!-- dir_532d94c12be2ac13a59953227892b0a4&#45;&gt;dir_c49787b21523dfcd643eafa322448430 -->
<g id="edge9" class="edge">
<title>dir_532d94c12be2ac13a59953227892b0a4&#45;&gt;dir_c49787b21523dfcd643eafa322448430</title>
<g id="a_edge9"><a xlink:href="dir_000021_000013.html" target="_top">
<path fill="none" stroke="#63b8ff" d="M294.06,-55.08C288.38,-47.88 280.16,-37.46 273.11,-28.51"/>
<polygon fill="#63b8ff" stroke="#63b8ff" points="275.96,-26.48 267.02,-20.8 270.47,-30.82 275.96,-26.48"/>
</a>
</g>
<g id="a_edge9&#45;headlabel"><a xlink:href="dir_000021_000013.html" target="_top" xlink:title="2">
<text text-anchor="middle" x="279.48" y="-22.48" font-family="Helvetica,sans-Serif" font-size="10.00" fill="#63b8ff">2</text>
</a>
</g>
</g>
<!-- dir_e3e51dc7dbbe993ed079e9266e18aae6 -->
<g id="node6" class="node">
<title>dir_e3e51dc7dbbe993ed079e9266e18aae6</title>
<g id="a_node6"><a xlink:href="dir_e3e51dc7dbbe993ed079e9266e18aae6.html" target="_top" xlink:title="PHYSICS">
<polygon fill="#a2b4d6" stroke="#404040" points="76.12,-74.5 15.88,-74.5 15.88,-55.25 76.12,-55.25 76.12,-74.5"/>
<text text-anchor="middle" x="46" y="-61" font-family="Helvetica,sans-Serif" font-size="10.00">PHYSICS</text>
</a>
</g>
</g>
<!-- dir_e3e51dc7dbbe993ed079e9266e18aae6&#45;&gt;dir_4c1954b16240b09fc149beff73880b13 -->
<g id="edge10" class="edge">
<title>dir_e3e51dc7dbbe993ed079e9266e18aae6&#45;&gt;dir_4c1954b16240b09fc149beff73880b13</title>
<g id="a_edge10"><a xlink:href="dir_000023_000011.html" target="_top">
<path fill="none" stroke="#63b8ff" d="M66.08,-54.85C72.12,-52.27 78.78,-49.53 85,-47.25 115.45,-36.07 151.11,-25.31 175.2,-18.39"/>
<polygon fill="#63b8ff" stroke="#63b8ff" points="175.9,-21.82 184.56,-15.72 173.98,-15.09 175.9,-21.82"/>
</a>
</g>
<g id="a_edge10&#45;headlabel"><a xlink:href="dir_000023_000011.html" target="_top" xlink:title="4">
<text text-anchor="middle" x="174.67" y="-21.25" font-family="Helvetica,sans-Serif" font-size="10.00" fill="#63b8ff">4</text>
</a>
</g>
</g>
</g>
</svg>
