<?xml version="1.0" encoding="UTF-8" standalone="no"?>
<!DOCTYPE svg PUBLIC "-//W3C//DTD SVG 1.1//EN"
 "http://www.w3.org/Graphics/SVG/1.1/DTD/svg11.dtd">
<!-- Generated by graphviz version 9.0.0 (20230911.1827)
 -->
<!-- Title: /github/workspace/SRC/OBJECTS Pages: 1 -->
<svg width="576pt" height="126pt"
 viewBox="0.00 0.00 576.00 125.97" xmlns="http://www.w3.org/2000/svg" xmlns:xlink="http://www.w3.org/1999/xlink">
<g id="graph0" class="graph" transform="scale(1 1) rotate(0) translate(4 121.97)">
<title>/github/workspace/SRC/OBJECTS</title>
<g id="clust1" class="cluster">
<title>clusterdir_1e771ff450ae847412a8c28572c155bb</title>
<g id="a_clust1"><a xlink:href="dir_1e771ff450ae847412a8c28572c155bb.html" target="_top" xlink:title="SRC">
<polygon fill="#edf0f7" stroke="#404040" stroke-dasharray="5,2" points="8,-39.47 8,-109.97 560,-109.97 560,-39.47 8,-39.47"/>
<text text-anchor="middle" x="284" y="-96.47" font-family="Helvetica,sans-Serif" font-size="10.00">SRC</text>
</a>
</g>
</g>
<g id="clust2" class="cluster">
<title>clusterdir_532d94c12be2ac13a59953227892b0a4</title>
<g id="a_clust2"><a xlink:href="dir_532d94c12be2ac13a59953227892b0a4.html" target="_top">
<polygon fill="#edf0f7" stroke="#404040" stroke-width="2" points="16,-47.47 16,-82.72 552,-82.72 552,-47.47 16,-47.47"/>
</a>
</g>
</g>
<!-- dir_532d94c12be2ac13a59953227892b0a4 -->
<g id="node1" class="node">
<title>dir_532d94c12be2ac13a59953227892b0a4</title>
<text text-anchor="middle" x="513" y="-61.22" font-family="Helvetica,sans-Serif" font-size="10.00">OBJECTS</text>
</g>
<!-- dir_d661d3146a77586e0b043492d85b6580 -->
<g id="node2" class="node">
<title>dir_d661d3146a77586e0b043492d85b6580</title>
<g id="a_node2"><a xlink:href="dir_d661d3146a77586e0b043492d85b6580.html" target="_top" xlink:title="CAMERA">
<polygon fill="#a2b4d6" stroke="#404040" points="251.62,-74.72 194.38,-74.72 194.38,-55.47 251.62,-55.47 251.62,-74.72"/>
<text text-anchor="middle" x="223" y="-61.22" font-family="Helvetica,sans-Serif" font-size="10.00">CAMERA</text>
</a>
</g>
</g>
<!-- dir_4c1954b16240b09fc149beff73880b13 -->
<g id="node8" class="node">
<title>dir_4c1954b16240b09fc149beff73880b13</title>
<g id="a_node8"><a xlink:href="dir_4c1954b16240b09fc149beff73880b13.html" target="_top" xlink:title="INC">
<polygon fill="#edf0f7" stroke="#404040" points="207.62,-19.47 174.38,-19.47 174.38,-0.22 207.62,-0.22 207.62,-19.47"/>
<text text-anchor="middle" x="191" y="-5.97" font-family="Helvetica,sans-Serif" font-size="10.00">INC</text>
</a>
</g>
</g>
<!-- dir_d661d3146a77586e0b043492d85b6580&#45;&gt;dir_4c1954b16240b09fc149beff73880b13 -->
<g id="edge1" class="edge">
<title>dir_d661d3146a77586e0b043492d85b6580&#45;&gt;dir_4c1954b16240b09fc149beff73880b13</title>
<g id="a_edge1"><a xlink:href="dir_000002_000011.html" target="_top">
<path fill="none" stroke="#63b8ff" d="M217.72,-55.3C213.53,-48.33 207.52,-38.33 202.27,-29.59"/>
<polygon fill="#63b8ff" stroke="#63b8ff" points="205.33,-27.89 197.18,-21.12 199.33,-31.5 205.33,-27.89"/>
</a>
</g>
<g id="a_edge1&#45;headlabel"><a xlink:href="dir_000002_000011.html" target="_top" xlink:title="6">
<text text-anchor="middle" x="208.84" y="-24.34" font-family="Helvetica,sans-Serif" font-size="10.00" fill="#63b8ff">6</text>
</a>
</g>
</g>
<!-- dir_c49787b21523dfcd643eafa322448430 -->
<g id="node9" class="node">
<title>dir_c49787b21523dfcd643eafa322448430</title>
<g id="a_node9"><a xlink:href="dir_c49787b21523dfcd643eafa322448430.html" target="_top" xlink:title="LIB">
<polygon fill="#edf0f7" stroke="red" points="269.88,-19.47 238.12,-19.47 238.12,-0.22 269.88,-0.22 269.88,-19.47"/>
<text text-anchor="middle" x="254" y="-5.97" font-family="Helvetica,sans-Serif" font-size="10.00">LIB</text>
</a>
</g>
</g>
<!-- dir_d661d3146a77586e0b043492d85b6580&#45;&gt;dir_c49787b21523dfcd643eafa322448430 -->
<g id="edge2" class="edge">
<title>dir_d661d3146a77586e0b043492d85b6580&#45;&gt;dir_c49787b21523dfcd643eafa322448430</title>
<g id="a_edge2"><a xlink:href="dir_000002_000013.html" target="_top">
<path fill="none" stroke="#63b8ff" d="M228.12,-55.3C232.18,-48.33 237.99,-38.33 243.09,-29.59"/>
<polygon fill="#63b8ff" stroke="#63b8ff" points="246,-31.54 248.01,-21.13 239.95,-28.02 246,-31.54"/>
</a>
</g>
<g id="a_edge2&#45;headlabel"><a xlink:href="dir_000002_000013.html" target="_top" xlink:title="1">
<text text-anchor="middle" x="247.41" y="-30.89" font-family="Helvetica,sans-Serif" font-size="10.00" fill="#63b8ff">1</text>
</a>
</g>
</g>
<!-- dir_3ac2f0919500c73e5831113af705836c -->
<g id="node3" class="node">
<title>dir_3ac2f0919500c73e5831113af705836c</title>
<g id="a_node3"><a xlink:href="dir_3ac2f0919500c73e5831113af705836c.html" target="_top" xlink:title="CYLINDER">
<polygon fill="#a2b4d6" stroke="#404040" points="401.75,-74.72 336.25,-74.72 336.25,-55.47 401.75,-55.47 401.75,-74.72"/>
<text text-anchor="middle" x="369" y="-61.22" font-family="Helvetica,sans-Serif" font-size="10.00">CYLINDER</text>
</a>
</g>
</g>
<!-- dir_05eaee65dfb67aebf7e8de9a392a78d3 -->
<g id="node4" class="node">
<title>dir_05eaee65dfb67aebf7e8de9a392a78d3</title>
<g id="a_node4"><a xlink:href="dir_05eaee65dfb67aebf7e8de9a392a78d3.html" target="_top" xlink:title="PLANE">
<polygon fill="#a2b4d6" stroke="#404040" points="318.5,-74.72 269.5,-74.72 269.5,-55.47 318.5,-55.47 318.5,-74.72"/>
<text text-anchor="middle" x="294" y="-61.22" font-family="Helvetica,sans-Serif" font-size="10.00">PLANE</text>
</a>
</g>
</g>
<!-- dir_7bc385757017c0c2d3f6a6fdf5a83319 -->
<g id="node5" class="node">
<title>dir_7bc385757017c0c2d3f6a6fdf5a83319</title>
<g id="a_node5"><a xlink:href="dir_7bc385757017c0c2d3f6a6fdf5a83319.html" target="_top" xlink:title="SPHERE">
<polygon fill="#a2b4d6" stroke="#404040" points="175.88,-74.72 120.12,-74.72 120.12,-55.47 175.88,-55.47 175.88,-74.72"/>
<text text-anchor="middle" x="148" y="-61.22" font-family="Helvetica,sans-Serif" font-size="10.00">SPHERE</text>
</a>
</g>
</g>
<!-- dir_7bc385757017c0c2d3f6a6fdf5a83319&#45;&gt;dir_4c1954b16240b09fc149beff73880b13 -->
<g id="edge3" class="edge">
<title>dir_7bc385757017c0c2d3f6a6fdf5a83319&#45;&gt;dir_4c1954b16240b09fc149beff73880b13</title>
<g id="a_edge3"><a xlink:href="dir_000029_000011.html" target="_top">
<path fill="none" stroke="#63b8ff" d="M155.1,-55.3C160.92,-48.1 169.33,-37.67 176.56,-28.73"/>
<polygon fill="#63b8ff" stroke="#63b8ff" points="179.23,-30.98 182.79,-21 173.79,-26.59 179.23,-30.98"/>
</a>
</g>
<g id="a_edge3&#45;headlabel"><a xlink:href="dir_000029_000011.html" target="_top" xlink:title="3">
<text text-anchor="middle" x="180.14" y="-30.51" font-family="Helvetica,sans-Serif" font-size="10.00" fill="#63b8ff">3</text>
</a>
</g>
</g>
<!-- dir_f540063cadc1b784c2fa021b94e14cf4 -->
<g id="node6" class="node">
<title>dir_f540063cadc1b784c2fa021b94e14cf4</title>
<g id="a_node6"><a xlink:href="dir_f540063cadc1b784c2fa021b94e14cf4.html" target="_top" xlink:title="TRANSFORM">
<polygon fill="#a2b4d6" stroke="#404040" points="102.12,-74.72 23.88,-74.72 23.88,-55.47 102.12,-55.47 102.12,-74.72"/>
<text text-anchor="middle" x="63" y="-61.22" font-family="Helvetica,sans-Serif" font-size="10.00">TRANSFORM</text>
</a>
</g>
</g>
<!-- dir_f540063cadc1b784c2fa021b94e14cf4&#45;&gt;dir_4c1954b16240b09fc149beff73880b13 -->
<g id="edge4" class="edge">
<title>dir_f540063cadc1b784c2fa021b94e14cf4&#45;&gt;dir_4c1954b16240b09fc149beff73880b13</title>
<g id="a_edge4"><a xlink:href="dir_000032_000011.html" target="_top">
<path fill="none" stroke="#63b8ff" d="M79.19,-55.12C88.37,-50.2 100.17,-44.16 111,-39.47 128.1,-32.06 147.81,-24.99 163.38,-19.73"/>
<polygon fill="#63b8ff" stroke="#63b8ff" points="164.07,-23.19 172.46,-16.72 161.87,-16.55 164.07,-23.19"/>
</a>
</g>
<g id="a_edge4&#45;headlabel"><a xlink:href="dir_000032_000011.html" target="_top" xlink:title="4">
<text text-anchor="middle" x="162.99" y="-22.67" font-family="Helvetica,sans-Serif" font-size="10.00" fill="#63b8ff">4</text>
</a>
</g>
</g>
<!-- dir_7536344e9d2e111c40e1ec345c5651bf -->
<g id="node7" class="node">
<title>dir_7536344e9d2e111c40e1ec345c5651bf</title>
<g id="a_node7"><a xlink:href="dir_7536344e9d2e111c40e1ec345c5651bf.html" target="_top" xlink:title="UTILS">
<polygon fill="#a2b4d6" stroke="#404040" points="464.62,-74.72 419.38,-74.72 419.38,-55.47 464.62,-55.47 464.62,-74.72"/>
<text text-anchor="middle" x="442" y="-61.22" font-family="Helvetica,sans-Serif" font-size="10.00">UTILS</text>
</a>
</g>
</g>
<!-- dir_7536344e9d2e111c40e1ec345c5651bf&#45;&gt;dir_4c1954b16240b09fc149beff73880b13 -->
<g id="edge5" class="edge">
<title>dir_7536344e9d2e111c40e1ec345c5651bf&#45;&gt;dir_4c1954b16240b09fc149beff73880b13</title>
<g id="a_edge5"><a xlink:href="dir_000034_000011.html" target="_top">
<path fill="none" stroke="#63b8ff" d="M433.39,-55.03C427.61,-49.55 419.52,-42.97 411,-39.47 335.75,-8.5 309.25,-32.94 229,-19.47 225.75,-18.92 222.36,-18.27 219,-17.57"/>
<polygon fill="#63b8ff" stroke="#63b8ff" points="219.94,-14.2 209.42,-15.45 218.42,-21.03 219.94,-14.2"/>
</a>
</g>
<g id="a_edge5&#45;headlabel"><a xlink:href="dir_000034_000011.html" target="_top" xlink:title="5">
<text text-anchor="middle" x="222.59" y="-8" font-family="Helvetica,sans-Serif" font-size="10.00" fill="#63b8ff">5</text>
</a>
</g>
</g>
<!-- dir_7536344e9d2e111c40e1ec345c5651bf&#45;&gt;dir_c49787b21523dfcd643eafa322448430 -->
<g id="edge6" class="edge">
<title>dir_7536344e9d2e111c40e1ec345c5651bf&#45;&gt;dir_c49787b21523dfcd643eafa322448430</title>
<g id="a_edge6"><a xlink:href="dir_000034_000013.html" target="_top">
<path fill="none" stroke="#63b8ff" d="M433.04,-54.99C427.25,-49.64 419.26,-43.21 411,-39.47 368.49,-20.19 313.93,-13.89 281.6,-11.83"/>
<polygon fill="#63b8ff" stroke="#63b8ff" points="282.05,-8.35 271.88,-11.31 281.68,-15.34 282.05,-8.35"/>
</a>
</g>
<g id="a_edge6&#45;headlabel"><a xlink:href="dir_000034_000013.html" target="_top" xlink:title="1">
<text text-anchor="middle" x="284.28" y="-1.75" font-family="Helvetica,sans-Serif" font-size="10.00" fill="#63b8ff">1</text>
</a>
</g>
</g>
</g>
</svg>
