<?xml version="1.0" encoding="UTF-8" standalone="no"?>
<!DOCTYPE svg PUBLIC "-//W3C//DTD SVG 1.1//EN"
 "http://www.w3.org/Graphics/SVG/1.1/DTD/svg11.dtd">
<!-- Generated by graphviz version 9.0.0 (20230911.1827)
 -->
<!-- Title: /github/workspace/SRC/BASE/HELPERS/discriminant.c Pages: 1 -->
<svg width="289pt" height="204pt"
 viewBox="0.00 0.00 289.25 204.25" xmlns="http://www.w3.org/2000/svg" xmlns:xlink="http://www.w3.org/1999/xlink">
<g id="graph0" class="graph" transform="scale(1 1) rotate(0) translate(4 200.25)">
<title>/github/workspace/SRC/BASE/HELPERS/discriminant.c</title>
<!-- Node1 -->
<g id="Node000001" class="node">
<title>Node1</title>
<g id="a_Node000001"><a xlink:title=" ">
<polygon fill="#999999" stroke="#666666" points="216.12,-196.25 59.12,-196.25 59.12,-165.75 216.12,-165.75 216.12,-196.25"/>
<text text-anchor="start" x="67.12" y="-182.75" font-family="Helvetica,sans-Serif" font-size="10.00">/github/workspace/SRC</text>
<text text-anchor="middle" x="137.62" y="-171.5" font-family="Helvetica,sans-Serif" font-size="10.00">/BASE/HELPERS/discriminant.c</text>
</a>
</g>
</g>
<!-- Node2 -->
<g id="Node000002" class="node">
<title>Node2</title>
<g id="a_Node000002"><a xlink:href="base__helpers_8h.html" target="_top" xlink:title=" ">
<polygon fill="white" stroke="#666666" points="81.25,-129.75 0,-129.75 0,-110.5 81.25,-110.5 81.25,-129.75"/>
<text text-anchor="middle" x="40.62" y="-116.25" font-family="Helvetica,sans-Serif" font-size="10.00">base_helpers.h</text>
</a>
</g>
</g>
<!-- Node1&#45;&gt;Node2 -->
<g id="edge1_Node000001_Node000002" class="edge">
<title>Node1&#45;&gt;Node2</title>
<g id="a_edge1_Node000001_Node000002"><a xlink:title=" ">
<path fill="none" stroke="#63b8ff" d="M113.65,-165.45C98.88,-156.48 79.99,-145.02 65.13,-136"/>
<polygon fill="#63b8ff" stroke="#63b8ff" points="67.24,-133.18 56.87,-130.99 63.61,-139.17 67.24,-133.18"/>
</a>
</g>
</g>
<!-- Node7 -->
<g id="Node000007" class="node">
<title>Node7</title>
<g id="a_Node000007"><a xlink:href="base__tuples_8h.html" target="_top" xlink:title=" ">
<polygon fill="white" stroke="#666666" points="175.62,-129.75 99.62,-129.75 99.62,-110.5 175.62,-110.5 175.62,-129.75"/>
<text text-anchor="middle" x="137.62" y="-116.25" font-family="Helvetica,sans-Serif" font-size="10.00">base_tuples.h</text>
</a>
</g>
</g>
<!-- Node1&#45;&gt;Node7 -->
<g id="edge6_Node000001_Node000007" class="edge">
<title>Node1&#45;&gt;Node7</title>
<g id="a_edge6_Node000001_Node000007"><a xlink:title=" ">
<path fill="none" stroke="#63b8ff" d="M137.62,-165.45C137.62,-158.21 137.62,-149.34 137.62,-141.44"/>
<polygon fill="#63b8ff" stroke="#63b8ff" points="141.13,-141.71 137.63,-131.71 134.13,-141.71 141.13,-141.71"/>
</a>
</g>
</g>
<!-- Node8 -->
<g id="Node000008" class="node">
<title>Node8</title>
<g id="a_Node000008"><a xlink:href="base__matrices_8h.html" target="_top" xlink:title=" ">
<polygon fill="white" stroke="#666666" points="281.25,-129.75 194,-129.75 194,-110.5 281.25,-110.5 281.25,-129.75"/>
<text text-anchor="middle" x="237.62" y="-116.25" font-family="Helvetica,sans-Serif" font-size="10.00">base_matrices.h</text>
</a>
</g>
</g>
<!-- Node1&#45;&gt;Node8 -->
<g id="edge8_Node000001_Node000008" class="edge">
<title>Node1&#45;&gt;Node8</title>
<g id="a_edge8_Node000001_Node000008"><a xlink:title=" ">
<path fill="none" stroke="#63b8ff" d="M162.6,-165.3C177.83,-156.33 197.23,-144.91 212.49,-135.92"/>
<polygon fill="#63b8ff" stroke="#63b8ff" points="214.14,-139.01 220.98,-130.92 210.59,-132.98 214.14,-139.01"/>
</a>
</g>
</g>
<!-- Node3 -->
<g id="Node000003" class="node">
<title>Node3</title>
<g id="a_Node000003"><a xlink:href="types_8h.html" target="_top" xlink:title=" ">
<polygon fill="white" stroke="#666666" points="161,-74.5 114.25,-74.5 114.25,-55.25 161,-55.25 161,-74.5"/>
<text text-anchor="middle" x="137.62" y="-61" font-family="Helvetica,sans-Serif" font-size="10.00">types.h</text>
</a>
</g>
</g>
<!-- Node2&#45;&gt;Node3 -->
<g id="edge2_Node000002_Node000003" class="edge">
<title>Node2&#45;&gt;Node3</title>
<g id="a_edge2_Node000002_Node000003"><a xlink:title=" ">
<path fill="none" stroke="#63b8ff" d="M57.08,-110.09C71.85,-101.98 93.8,-89.93 111.06,-80.46"/>
<polygon fill="#63b8ff" stroke="#63b8ff" points="112.68,-83.56 119.76,-75.68 109.31,-77.43 112.68,-83.56"/>
</a>
</g>
</g>
<!-- Node4 -->
<g id="Node000004" class="node">
<title>Node4</title>
<g id="a_Node000004"><a xlink:title=" ">
<polygon fill="#e0e0e0" stroke="#999999" points="96.12,-19.25 41.12,-19.25 41.12,0 96.12,0 96.12,-19.25"/>
<text text-anchor="middle" x="68.62" y="-5.75" font-family="Helvetica,sans-Serif" font-size="10.00">stdbool.h</text>
</a>
</g>
</g>
<!-- Node3&#45;&gt;Node4 -->
<g id="edge3_Node000003_Node000004" class="edge">
<title>Node3&#45;&gt;Node4</title>
<g id="a_edge3_Node000003_Node000004"><a xlink:title=" ">
<path fill="none" stroke="#63b8ff" d="M125.92,-54.84C115.85,-47.07 101.08,-35.67 89.06,-26.4"/>
<polygon fill="#63b8ff" stroke="#63b8ff" points="91.41,-23.79 81.36,-20.45 87.13,-29.33 91.41,-23.79"/>
</a>
</g>
</g>
<!-- Node5 -->
<g id="Node000005" class="node">
<title>Node5</title>
<g id="a_Node000005"><a xlink:title=" ">
<polygon fill="#e0e0e0" stroke="#999999" points="161,-19.25 114.25,-19.25 114.25,0 161,0 161,-19.25"/>
<text text-anchor="middle" x="137.62" y="-5.75" font-family="Helvetica,sans-Serif" font-size="10.00">stdlib.h</text>
</a>
</g>
</g>
<!-- Node3&#45;&gt;Node5 -->
<g id="edge4_Node000003_Node000005" class="edge">
<title>Node3&#45;&gt;Node5</title>
<g id="a_edge4_Node000003_Node000005"><a xlink:title=" ">
<path fill="none" stroke="#63b8ff" d="M137.62,-55.08C137.62,-48.57 137.62,-39.42 137.62,-31.12"/>
<polygon fill="#63b8ff" stroke="#63b8ff" points="141.13,-31.12 137.63,-21.12 134.13,-31.12 141.13,-31.12"/>
</a>
</g>
</g>
<!-- Node6 -->
<g id="Node000006" class="node">
<title>Node6</title>
<g id="a_Node000006"><a xlink:title=" ">
<polygon fill="#e0e0e0" stroke="#999999" points="226,-19.25 179.25,-19.25 179.25,0 226,0 226,-19.25"/>
<text text-anchor="middle" x="202.62" y="-5.75" font-family="Helvetica,sans-Serif" font-size="10.00">limits.h</text>
</a>
</g>
</g>
<!-- Node3&#45;&gt;Node6 -->
<g id="edge5_Node000003_Node000006" class="edge">
<title>Node3&#45;&gt;Node6</title>
<g id="a_edge5_Node000003_Node000006"><a xlink:title=" ">
<path fill="none" stroke="#63b8ff" d="M148.65,-54.84C158.05,-47.15 171.77,-35.9 183.03,-26.68"/>
<polygon fill="#63b8ff" stroke="#63b8ff" points="185.07,-29.53 190.59,-20.48 180.64,-24.11 185.07,-29.53"/>
</a>
</g>
</g>
<!-- Node7&#45;&gt;Node3 -->
<g id="edge7_Node000007_Node000003" class="edge">
<title>Node7&#45;&gt;Node3</title>
<g id="a_edge7_Node000007_Node000003"><a xlink:title=" ">
<path fill="none" stroke="#63b8ff" d="M137.62,-110.33C137.62,-103.82 137.62,-94.67 137.62,-86.37"/>
<polygon fill="#63b8ff" stroke="#63b8ff" points="141.13,-86.37 137.63,-76.37 134.13,-86.37 141.13,-86.37"/>
</a>
</g>
</g>
<!-- Node8&#45;&gt;Node3 -->
<g id="edge9_Node000008_Node000003" class="edge">
<title>Node8&#45;&gt;Node3</title>
<g id="a_edge9_Node000008_Node000003"><a xlink:title=" ">
<path fill="none" stroke="#63b8ff" d="M220.66,-110.09C205.36,-101.94 182.59,-89.82 164.76,-80.33"/>
<polygon fill="#63b8ff" stroke="#63b8ff" points="166.48,-77.27 156.01,-75.66 163.19,-83.45 166.48,-77.27"/>
</a>
</g>
</g>
</g>
</svg>
