<?xml version="1.0" encoding="UTF-8" standalone="no"?>
<!DOCTYPE svg PUBLIC "-//W3C//DTD SVG 1.1//EN"
 "http://www.w3.org/Graphics/SVG/1.1/DTD/svg11.dtd">
<!-- Generated by graphviz version 9.0.0 (20230911.1827)
 -->
<!-- Title: epsilon Pages: 1 -->
<svg width="176pt" height="64pt"
 viewBox="0.00 0.00 175.75 64.25" xmlns="http://www.w3.org/2000/svg" xmlns:xlink="http://www.w3.org/1999/xlink">
<g id="graph0" class="graph" transform="scale(1 1) rotate(0) translate(4 60.25)">
<title>epsilon</title>
<!-- Node1 -->
<g id="Node000001" class="node">
<title>Node1</title>
<g id="a_Node000001"><a xlink:title="EPSILON function that checks if 2 doubles are equivalent. This function is needed as round off errors...">
<polygon fill="#999999" stroke="#666666" points="167.75,-37.25 121,-37.25 121,-18 167.75,-18 167.75,-37.25"/>
<text text-anchor="middle" x="144.38" y="-23.75" font-family="Helvetica,sans-Serif" font-size="10.00">epsilon</text>
</a>
</g>
</g>
<!-- Node2 -->
<g id="Node000002" class="node">
<title>Node2</title>
<g id="a_Node000002"><a xlink:href="matrix__compare_8c.html#ac5b24f896ec07fbcc807b83e66f57015" target="_top" xlink:title=" ">
<polygon fill="white" stroke="#666666" points="85,-56.25 0,-56.25 0,-37 85,-37 85,-56.25"/>
<text text-anchor="middle" x="42.5" y="-42.75" font-family="Helvetica,sans-Serif" font-size="10.00">matrix_compare</text>
</a>
</g>
</g>
<!-- Node1&#45;&gt;Node2 -->
<g id="edge1_Node000001_Node000002" class="edge">
<title>Node1&#45;&gt;Node2</title>
<g id="a_edge1_Node000001_Node000002"><a xlink:title=" ">
<path fill="none" stroke="#63b8ff" d="M109.49,-34.07C101.72,-35.55 93.38,-37.14 85.32,-38.67"/>
<polygon fill="#63b8ff" stroke="#63b8ff" points="110.06,-37.53 119.22,-32.22 108.75,-30.65 110.06,-37.53"/>
</a>
</g>
</g>
<!-- Node3 -->
<g id="Node000003" class="node">
<title>Node3</title>
<g id="a_Node000003"><a xlink:href="tuple__compare_8c.html#af57decb3c3be34329dec50d6012dae70" target="_top" xlink:title="Function comparing equivalancy of 2 tuples using user defined Macro. This macro is implemented to avo...">
<polygon fill="white" stroke="#666666" points="75.62,-19.25 9.38,-19.25 9.38,0 75.62,0 75.62,-19.25"/>
<text text-anchor="middle" x="42.5" y="-5.75" font-family="Helvetica,sans-Serif" font-size="10.00">tuple_comp</text>
</a>
</g>
</g>
<!-- Node1&#45;&gt;Node3 -->
<g id="edge2_Node000001_Node000003" class="edge">
<title>Node1&#45;&gt;Node3</title>
<g id="a_edge2_Node000001_Node000003"><a xlink:title=" ">
<path fill="none" stroke="#63b8ff" d="M109.49,-21.52C98.64,-19.56 86.66,-17.4 75.92,-15.47"/>
<polygon fill="#63b8ff" stroke="#63b8ff" points="108.76,-24.94 119.22,-23.27 110,-18.05 108.76,-24.94"/>
</a>
</g>
</g>
</g>
</svg>
