<?xml version="1.0" encoding="UTF-8" standalone="no"?>
<!DOCTYPE svg PUBLIC "-//W3C//DTD SVG 1.1//EN"
 "http://www.w3.org/Graphics/SVG/1.1/DTD/svg11.dtd">
<!-- Generated by graphviz version 9.0.0 (20230911.1827)
 -->
<!-- Title: errmsg Pages: 1 -->
<svg width="571pt" height="82pt"
 viewBox="0.00 0.00 571.00 82.25" xmlns="http://www.w3.org/2000/svg" xmlns:xlink="http://www.w3.org/1999/xlink">
<g id="graph0" class="graph" transform="scale(1 1) rotate(0) translate(4 78.25)">
<title>errmsg</title>
<!-- Node1 -->
<g id="Node000001" class="node">
<title>Node1</title>
<g id="a_Node000001"><a xlink:title=" ">
<polygon fill="#999999" stroke="#666666" points="563,-37.25 517,-37.25 517,-18 563,-18 563,-37.25"/>
<text text-anchor="middle" x="540" y="-23.75" font-family="Helvetica,sans-Serif" font-size="10.00">errmsg</text>
</a>
</g>
</g>
<!-- Node2 -->
<g id="Node000002" class="node">
<title>Node2</title>
<g id="a_Node000002"><a xlink:href="matrix__multiple_8c.html#a6aa64cfb17a064fdea66fdf14a2a426e" target="_top" xlink:title=" ">
<polygon fill="white" stroke="#666666" points="481,-56.25 399.75,-56.25 399.75,-37 481,-37 481,-56.25"/>
<text text-anchor="middle" x="440.38" y="-42.75" font-family="Helvetica,sans-Serif" font-size="10.00">matrix_multiple</text>
</a>
</g>
</g>
<!-- Node1&#45;&gt;Node2 -->
<g id="edge1_Node000001_Node000002" class="edge">
<title>Node1&#45;&gt;Node2</title>
<g id="a_edge1_Node000001_Node000002"><a xlink:title=" ">
<path fill="none" stroke="#63b8ff" d="M505.62,-34.12C497.85,-35.63 489.5,-37.26 481.48,-38.82"/>
<polygon fill="#63b8ff" stroke="#63b8ff" points="506.21,-37.57 515.36,-32.23 504.88,-30.7 506.21,-37.57"/>
</a>
</g>
</g>
<!-- Node8 -->
<g id="Node000008" class="node">
<title>Node8</title>
<g id="a_Node000008"><a xlink:href="tuple__cross_8c.html#a7d0cfebe312bceac2fb5f03aa123e7cd" target="_top" xlink:title="This function find the cross product of 2 vectors (tup1 x tup2). This is used to find a vertical vect...">
<polygon fill="white" stroke="#666666" points="473.5,-19.25 407.25,-19.25 407.25,0 473.5,0 473.5,-19.25"/>
<text text-anchor="middle" x="440.38" y="-5.75" font-family="Helvetica,sans-Serif" font-size="10.00">tuple_cross</text>
</a>
</g>
</g>
<!-- Node1&#45;&gt;Node8 -->
<g id="edge7_Node000001_Node000008" class="edge">
<title>Node1&#45;&gt;Node8</title>
<g id="a_edge7_Node000001_Node000008"><a xlink:title=" ">
<path fill="none" stroke="#63b8ff" d="M505.75,-21.49C495.43,-19.59 484.08,-17.5 473.81,-15.61"/>
<polygon fill="#63b8ff" stroke="#63b8ff" points="504.89,-24.89 515.36,-23.27 506.16,-18.01 504.89,-24.89"/>
</a>
</g>
</g>
<!-- Node3 -->
<g id="Node000003" class="node">
<title>Node3</title>
<g id="a_Node000003"><a xlink:href="ray__transform_8c.html#a4b22c1091f5143dc209773a18fd27f15" target="_top" xlink:title=" ">
<polygon fill="white" stroke="#666666" points="361.5,-74.25 286.25,-74.25 286.25,-55 361.5,-55 361.5,-74.25"/>
<text text-anchor="middle" x="323.88" y="-60.75" font-family="Helvetica,sans-Serif" font-size="10.00">ray_transform</text>
</a>
</g>
</g>
<!-- Node2&#45;&gt;Node3 -->
<g id="edge2_Node000002_Node000003" class="edge">
<title>Node2&#45;&gt;Node3</title>
<g id="a_edge2_Node000002_Node000003"><a xlink:title=" ">
<path fill="none" stroke="#63b8ff" d="M388.18,-54.67C379.23,-56.08 370.09,-57.52 361.64,-58.85"/>
<polygon fill="#63b8ff" stroke="#63b8ff" points="388.5,-58.17 397.83,-53.16 387.41,-51.25 388.5,-58.17"/>
</a>
</g>
</g>
<!-- Node6 -->
<g id="Node000006" class="node">
<title>Node6</title>
<g id="a_Node000006"><a xlink:href="sphere__normal_8c.html#a7f90156067fc9db4452ca1b058c976e8" target="_top" xlink:title=" ">
<polygon fill="white" stroke="#666666" points="363.75,-37.25 284,-37.25 284,-18 363.75,-18 363.75,-37.25"/>
<text text-anchor="middle" x="323.88" y="-23.75" font-family="Helvetica,sans-Serif" font-size="10.00">sphere_normal</text>
</a>
</g>
</g>
<!-- Node2&#45;&gt;Node6 -->
<g id="edge5_Node000002_Node000006" class="edge">
<title>Node2&#45;&gt;Node6</title>
<g id="a_edge5_Node000002_Node000006"><a xlink:title=" ">
<path fill="none" stroke="#63b8ff" d="M388.05,-38.11C379.95,-36.76 371.7,-35.39 363.93,-34.11"/>
<polygon fill="#63b8ff" stroke="#63b8ff" points="387.4,-41.55 397.84,-39.73 388.54,-34.64 387.4,-41.55"/>
</a>
</g>
</g>
<!-- Node4 -->
<g id="Node000004" class="node">
<title>Node4</title>
<g id="a_Node000004"><a xlink:href="ray__intersect_8c.html#a20cc82316845ecb42e8e8c218ff72a73" target="_top" xlink:title=" ">
<polygon fill="white" stroke="#666666" points="245,-74.25 139,-74.25 139,-55 245,-55 245,-74.25"/>
<text text-anchor="middle" x="192" y="-60.75" font-family="Helvetica,sans-Serif" font-size="10.00">ray_intersect_sphere</text>
</a>
</g>
</g>
<!-- Node3&#45;&gt;Node4 -->
<g id="edge3_Node000003_Node000004" class="edge">
<title>Node3&#45;&gt;Node4</title>
<g id="a_edge3_Node000003_Node000004"><a xlink:title=" ">
<path fill="none" stroke="#63b8ff" d="M274.7,-64.62C265.18,-64.62 255.13,-64.62 245.47,-64.62"/>
<polygon fill="#63b8ff" stroke="#63b8ff" points="274.49,-68.13 284.49,-64.63 274.49,-61.13 274.49,-68.13"/>
</a>
</g>
</g>
<!-- Node5 -->
<g id="Node000005" class="node">
<title>Node5</title>
<g id="a_Node000005"><a xlink:href="ray__world__intersect_8c.html#a2e629895d43f70cc7814ef4b0c89cf0d" target="_top" xlink:title=" ">
<polygon fill="white" stroke="#666666" points="100,-74.25 0,-74.25 0,-55 100,-55 100,-74.25"/>
<text text-anchor="middle" x="50" y="-60.75" font-family="Helvetica,sans-Serif" font-size="10.00">ray_intersect_world</text>
</a>
</g>
</g>
<!-- Node4&#45;&gt;Node5 -->
<g id="edge4_Node000004_Node000005" class="edge">
<title>Node4&#45;&gt;Node5</title>
<g id="a_edge4_Node000004_Node000005"><a xlink:title=" ">
<path fill="none" stroke="#63b8ff" d="M127.48,-64.62C118.39,-64.62 109.15,-64.62 100.39,-64.62"/>
<polygon fill="#63b8ff" stroke="#63b8ff" points="127.36,-68.13 137.36,-64.63 127.36,-61.13 127.36,-68.13"/>
</a>
</g>
</g>
<!-- Node7 -->
<g id="Node000007" class="node">
<title>Node7</title>
<g id="a_Node000007"><a xlink:href="prepare__computations_8c.html#a260bb84a41e41fe52951d598804fb2fe" target="_top" xlink:title=" ">
<polygon fill="white" stroke="#666666" points="248,-37.25 136,-37.25 136,-18 248,-18 248,-37.25"/>
<text text-anchor="middle" x="192" y="-23.75" font-family="Helvetica,sans-Serif" font-size="10.00">prepare_computations</text>
</a>
</g>
</g>
<!-- Node6&#45;&gt;Node7 -->
<g id="edge6_Node000006_Node000007" class="edge">
<title>Node6&#45;&gt;Node7</title>
<g id="a_edge6_Node000006_Node000007"><a xlink:title=" ">
<path fill="none" stroke="#63b8ff" d="M272.08,-27.62C264.34,-27.62 256.31,-27.62 248.48,-27.62"/>
<polygon fill="#63b8ff" stroke="#63b8ff" points="272.04,-31.13 282.04,-27.63 272.04,-24.13 272.04,-31.13"/>
</a>
</g>
</g>
</g>
</svg>
