<?xml version="1.0" encoding="UTF-8" standalone="no"?>
<!DOCTYPE svg PUBLIC "-//W3C//DTD SVG 1.1//EN"
 "http://www.w3.org/Graphics/SVG/1.1/DTD/svg11.dtd">
<!-- Generated by graphviz version 9.0.0 (20230911.1827)
 -->
<!-- Title: canvas_to_ppm Pages: 1 -->
<svg width="382pt" height="27pt"
 viewBox="0.00 0.00 381.75 27.25" xmlns="http://www.w3.org/2000/svg" xmlns:xlink="http://www.w3.org/1999/xlink">
<g id="graph0" class="graph" transform="scale(1 1) rotate(0) translate(4 23.25)">
<title>canvas_to_ppm</title>
<!-- Node1 -->
<g id="Node000001" class="node">
<title>Node1</title>
<g id="a_Node000001"><a xlink:title="This function create PPM file based on ASCII characters.">
<polygon fill="#999999" stroke="#666666" points="373.75,-19.25 288.75,-19.25 288.75,0 373.75,0 373.75,-19.25"/>
<text text-anchor="middle" x="331.25" y="-5.75" font-family="Helvetica,sans-Serif" font-size="10.00">canvas_to_ppm</text>
</a>
</g>
</g>
<!-- Node2 -->
<g id="Node000002" class="node">
<title>Node2</title>
<g id="a_Node000002"><a xlink:href="create__image_8c.html#a5870ff24682e6d8f25ff2b7ec0ecc920" target="_top" xlink:title=" ">
<polygon fill="white" stroke="#666666" points="252.75,-19.25 178.25,-19.25 178.25,0 252.75,0 252.75,-19.25"/>
<text text-anchor="middle" x="215.5" y="-5.75" font-family="Helvetica,sans-Serif" font-size="10.00">create_image</text>
</a>
</g>
</g>
<!-- Node1&#45;&gt;Node2 -->
<g id="edge1_Node000001_Node000002" class="edge">
<title>Node1&#45;&gt;Node2</title>
<g id="a_edge1_Node000001_Node000002"><a xlink:title=" ">
<path fill="none" stroke="#63b8ff" d="M277.12,-9.62C268.94,-9.62 260.66,-9.62 252.95,-9.62"/>
<polygon fill="#63b8ff" stroke="#63b8ff" points="277.03,-13.13 287.03,-9.63 277.03,-6.13 277.03,-13.13"/>
</a>
</g>
</g>
<!-- Node3 -->
<g id="Node000003" class="node">
<title>Node3</title>
<g id="a_Node000003"><a xlink:href="render_8c.html#add56bf8ab90a2ebdf530e6c360247bac" target="_top" xlink:title=" ">
<polygon fill="white" stroke="#666666" points="142.25,-19.25 73,-19.25 73,0 142.25,0 142.25,-19.25"/>
<text text-anchor="middle" x="107.62" y="-5.75" font-family="Helvetica,sans-Serif" font-size="10.00">render_main</text>
</a>
</g>
</g>
<!-- Node2&#45;&gt;Node3 -->
<g id="edge2_Node000002_Node000003" class="edge">
<title>Node2&#45;&gt;Node3</title>
<g id="a_edge2_Node000002_Node000003"><a xlink:title=" ">
<path fill="none" stroke="#63b8ff" d="M166.48,-9.62C158.37,-9.62 150.1,-9.62 142.45,-9.62"/>
<polygon fill="#63b8ff" stroke="#63b8ff" points="166.25,-13.13 176.25,-9.63 166.25,-6.13 166.25,-13.13"/>
</a>
</g>
</g>
<!-- Node4 -->
<g id="Node000004" class="node">
<title>Node4</title>
<g id="a_Node000004"><a xlink:href="mini__ray_8c.html#a0c99d968a34e803d378692bde2e3f18f" target="_top" xlink:title=" ">
<polygon fill="white" stroke="#666666" points="37,-19.25 0,-19.25 0,0 37,0 37,-19.25"/>
<text text-anchor="middle" x="18.5" y="-5.75" font-family="Helvetica,sans-Serif" font-size="10.00">main</text>
</a>
</g>
</g>
<!-- Node3&#45;&gt;Node4 -->
<g id="edge3_Node000003_Node000004" class="edge">
<title>Node3&#45;&gt;Node4</title>
<g id="a_edge3_Node000003_Node000004"><a xlink:title=" ">
<path fill="none" stroke="#63b8ff" d="M61.22,-9.62C52.76,-9.62 44.4,-9.62 37.4,-9.62"/>
<polygon fill="#63b8ff" stroke="#63b8ff" points="61.18,-13.13 71.18,-9.63 61.18,-6.13 61.18,-13.13"/>
</a>
</g>
</g>
</g>
</svg>
