<?xml version="1.0" encoding="UTF-8" standalone="no"?>
<!DOCTYPE svg PUBLIC "-//W3C//DTD SVG 1.1//EN"
 "http://www.w3.org/Graphics/SVG/1.1/DTD/svg11.dtd">
<!-- Generated by graphviz version 9.0.0 (20230911.1827)
 -->
<!-- Title: ft_printf_p Pages: 1 -->
<svg width="265pt" height="64pt"
 viewBox="0.00 0.00 264.50 64.25" xmlns="http://www.w3.org/2000/svg" xmlns:xlink="http://www.w3.org/1999/xlink">
<g id="graph0" class="graph" transform="scale(1 1) rotate(0) translate(4 60.25)">
<title>ft_printf_p</title>
<!-- Node1 -->
<g id="Node000001" class="node">
<title>Node1</title>
<g id="a_Node000001"><a xlink:title=" ">
<polygon fill="#999999" stroke="#666666" points="59.5,-37.25 0,-37.25 0,-18 59.5,-18 59.5,-37.25"/>
<text text-anchor="middle" x="29.75" y="-23.75" font-family="Helvetica,sans-Serif" font-size="10.00">ft_printf_p</text>
</a>
</g>
</g>
<!-- Node2 -->
<g id="Node000002" class="node">
<title>Node2</title>
<g id="a_Node000002"><a xlink:href="ft__printf__s_8c.html#af5710a2518824759ad5ffe0d99c02002" target="_top" xlink:title=" ">
<polygon fill="white" stroke="#666666" points="155,-37.25 95.5,-37.25 95.5,-18 155,-18 155,-37.25"/>
<text text-anchor="middle" x="125.25" y="-23.75" font-family="Helvetica,sans-Serif" font-size="10.00">ft_printf_s</text>
</a>
</g>
</g>
<!-- Node1&#45;&gt;Node2 -->
<g id="edge1_Node000001_Node000002" class="edge">
<title>Node1&#45;&gt;Node2</title>
<g id="a_edge1_Node000001_Node000002"><a xlink:title=" ">
<path fill="none" stroke="#63b8ff" d="M59.82,-27.62C67.39,-27.62 75.67,-27.62 83.71,-27.62"/>
<polygon fill="#63b8ff" stroke="#63b8ff" points="83.68,-31.13 93.68,-27.63 83.68,-24.13 83.68,-31.13"/>
</a>
</g>
</g>
<!-- Node3 -->
<g id="Node000003" class="node">
<title>Node3</title>
<g id="a_Node000003"><a xlink:href="ft__putstr__fd_8c.html#acefce9ac519f8f8b7d3fde33dbafe469" target="_top" xlink:title=" ">
<polygon fill="white" stroke="#666666" points="256.5,-56.25 191,-56.25 191,-37 256.5,-37 256.5,-56.25"/>
<text text-anchor="middle" x="223.75" y="-42.75" font-family="Helvetica,sans-Serif" font-size="10.00">ft_putstr_fd</text>
</a>
</g>
</g>
<!-- Node2&#45;&gt;Node3 -->
<g id="edge2_Node000002_Node000003" class="edge">
<title>Node2&#45;&gt;Node3</title>
<g id="a_edge2_Node000002_Node000003"><a xlink:title=" ">
<path fill="none" stroke="#63b8ff" d="M155.47,-33.38C163.01,-34.86 171.29,-36.49 179.38,-38.09"/>
<polygon fill="#63b8ff" stroke="#63b8ff" points="178.63,-41.51 189.12,-40 179.98,-34.64 178.63,-41.51"/>
</a>
</g>
</g>
<!-- Node4 -->
<g id="Node000004" class="node">
<title>Node4</title>
<g id="a_Node000004"><a xlink:href="LIBFT_2ft__strlen_8c.html#a828402378653640f545a4be2e00e92f9" target="_top" xlink:title=" ">
<polygon fill="white" stroke="#666666" points="249.38,-19.25 198.12,-19.25 198.12,0 249.38,0 249.38,-19.25"/>
<text text-anchor="middle" x="223.75" y="-5.75" font-family="Helvetica,sans-Serif" font-size="10.00">ft_strlen</text>
</a>
</g>
</g>
<!-- Node2&#45;&gt;Node4 -->
<g id="edge3_Node000002_Node000004" class="edge">
<title>Node2&#45;&gt;Node4</title>
<g id="a_edge3_Node000002_Node000004"><a xlink:title=" ">
<path fill="none" stroke="#63b8ff" d="M155.47,-22.18C165.3,-20.34 176.39,-18.27 186.69,-16.35"/>
<polygon fill="#63b8ff" stroke="#63b8ff" points="187.19,-19.82 196.38,-14.54 185.91,-12.94 187.19,-19.82"/>
</a>
</g>
</g>
</g>
</svg>
