<?xml version="1.0" encoding="UTF-8" standalone="no"?>
<!DOCTYPE svg PUBLIC "-//W3C//DTD SVG 1.1//EN"
 "http://www.w3.org/Graphics/SVG/1.1/DTD/svg11.dtd">
<!-- Generated by graphviz version 9.0.0 (20230911.1827)
 -->
<!-- Title: ft_lstlast Pages: 1 -->
<svg width="270pt" height="27pt"
 viewBox="0.00 0.00 269.75 27.25" xmlns="http://www.w3.org/2000/svg" xmlns:xlink="http://www.w3.org/1999/xlink">
<g id="graph0" class="graph" transform="scale(1 1) rotate(0) translate(4 23.25)">
<title>ft_lstlast</title>
<!-- Node1 -->
<g id="Node000001" class="node">
<title>Node1</title>
<g id="a_Node000001"><a xlink:title=" ">
<polygon fill="#999999" stroke="#666666" points="261.75,-19.25 208.25,-19.25 208.25,0 261.75,0 261.75,-19.25"/>
<text text-anchor="middle" x="235" y="-5.75" font-family="Helvetica,sans-Serif" font-size="10.00">ft_lstlast</text>
</a>
</g>
</g>
<!-- Node2 -->
<g id="Node000002" class="node">
<title>Node2</title>
<g id="a_Node000002"><a xlink:href="ft__lstadd__back_8c.html#a4c10e88fffc3c9467eb16e6debd227a4" target="_top" xlink:title=" ">
<polygon fill="white" stroke="#666666" points="172.25,-19.25 92.5,-19.25 92.5,0 172.25,0 172.25,-19.25"/>
<text text-anchor="middle" x="132.38" y="-5.75" font-family="Helvetica,sans-Serif" font-size="10.00">ft_lstadd_back</text>
</a>
</g>
</g>
<!-- Node1&#45;&gt;Node2 -->
<g id="edge1_Node000001_Node000002" class="edge">
<title>Node1&#45;&gt;Node2</title>
<g id="a_edge1_Node000001_Node000002"><a xlink:title=" ">
<path fill="none" stroke="#63b8ff" d="M196.48,-9.62C188.72,-9.62 180.52,-9.62 172.7,-9.62"/>
<polygon fill="#63b8ff" stroke="#63b8ff" points="196.31,-13.13 206.31,-9.63 196.31,-6.13 196.31,-13.13"/>
</a>
</g>
</g>
<!-- Node3 -->
<g id="Node000003" class="node">
<title>Node3</title>
<g id="a_Node000003"><a xlink:href="ft__lstmap_8c.html#a8198d1837ffbba05823f5e85afebf9c6" target="_top" xlink:title=" ">
<polygon fill="white" stroke="#666666" points="56.5,-19.25 0,-19.25 0,0 56.5,0 56.5,-19.25"/>
<text text-anchor="middle" x="28.25" y="-5.75" font-family="Helvetica,sans-Serif" font-size="10.00">ft_lstmap</text>
</a>
</g>
</g>
<!-- Node2&#45;&gt;Node3 -->
<g id="edge2_Node000002_Node000003" class="edge">
<title>Node2&#45;&gt;Node3</title>
<g id="a_edge2_Node000002_Node000003"><a xlink:title=" ">
<path fill="none" stroke="#63b8ff" d="M80.93,-9.62C72.61,-9.62 64.26,-9.62 56.78,-9.62"/>
<polygon fill="#63b8ff" stroke="#63b8ff" points="80.67,-13.13 90.67,-9.63 80.67,-6.13 80.67,-13.13"/>
</a>
</g>
</g>
</g>
</svg>
