<?xml version="1.0" encoding="UTF-8" standalone="no"?>
<!DOCTYPE svg PUBLIC "-//W3C//DTD SVG 1.1//EN"
 "http://www.w3.org/Graphics/SVG/1.1/DTD/svg11.dtd">
<!-- Generated by graphviz version 9.0.0 (20230911.1827)
 -->
<!-- Title: ft_putnbr_fd Pages: 1 -->
<svg width="185pt" height="45pt"
 viewBox="0.00 0.00 184.75 45.25" xmlns="http://www.w3.org/2000/svg" xmlns:xlink="http://www.w3.org/1999/xlink">
<g id="graph0" class="graph" transform="scale(1 1) rotate(0) translate(4 41.25)">
<title>ft_putnbr_fd</title>
<!-- Node1 -->
<g id="Node000001" class="node">
<title>Node1</title>
<g id="a_Node000001"><a xlink:title=" ">
<polygon fill="#999999" stroke="#666666" points="67.75,-19.25 0,-19.25 0,0 67.75,0 67.75,-19.25"/>
<text text-anchor="middle" x="33.88" y="-5.75" font-family="Helvetica,sans-Serif" font-size="10.00">ft_putnbr_fd</text>
</a>
</g>
</g>
<!-- Node1&#45;&gt;Node1 -->
<g id="edge2_Node000001_Node000001" class="edge">
<title>Node1&#45;&gt;Node1</title>
<g id="a_edge2_Node000001_Node000001"><a xlink:title=" ">
<path fill="none" stroke="#63b8ff" d="M17.22,-19.54C9.63,-28.15 15.18,-37.25 33.88,-37.25 44.1,-37.25 50.39,-34.53 52.76,-30.65"/>
<polygon fill="#63b8ff" stroke="#63b8ff" points="56.22,-30.14 50.83,-21.02 49.36,-31.51 56.22,-30.14"/>
</a>
</g>
</g>
<!-- Node2 -->
<g id="Node000002" class="node">
<title>Node2</title>
<g id="a_Node000002"><a xlink:href="ft__putchar__fd_8c.html#a8ee15a511946c1397bd2bdea4aed6aee" target="_top" xlink:title=" ">
<polygon fill="white" stroke="#666666" points="176.75,-19.25 103.75,-19.25 103.75,0 176.75,0 176.75,-19.25"/>
<text text-anchor="middle" x="140.25" y="-5.75" font-family="Helvetica,sans-Serif" font-size="10.00">ft_putchar_fd</text>
</a>
</g>
</g>
<!-- Node1&#45;&gt;Node2 -->
<g id="edge1_Node000001_Node000002" class="edge">
<title>Node1&#45;&gt;Node2</title>
<g id="a_edge1_Node000001_Node000002"><a xlink:title=" ">
<path fill="none" stroke="#63b8ff" d="M68.19,-9.62C75.72,-9.62 83.87,-9.62 91.86,-9.62"/>
<polygon fill="#63b8ff" stroke="#63b8ff" points="91.86,-13.13 101.86,-9.63 91.86,-6.13 91.86,-13.13"/>
</a>
</g>
</g>
</g>
</svg>
