<?xml version="1.0" encoding="UTF-8" standalone="no"?>
<!DOCTYPE svg PUBLIC "-//W3C//DTD SVG 1.1//EN"
 "http://www.w3.org/Graphics/SVG/1.1/DTD/svg11.dtd">
<!-- Generated by graphviz version 9.0.0 (20230911.1827)
 -->
<!-- Title: ft_strdup Pages: 1 -->
<svg width="249pt" height="64pt"
 viewBox="0.00 0.00 248.75 64.25" xmlns="http://www.w3.org/2000/svg" xmlns:xlink="http://www.w3.org/1999/xlink">
<g id="graph0" class="graph" transform="scale(1 1) rotate(0) translate(4 60.25)">
<title>ft_strdup</title>
<!-- Node1 -->
<g id="Node000001" class="node">
<title>Node1</title>
<g id="a_Node000001"><a xlink:title=" ">
<polygon fill="#999999" stroke="#666666" points="240.75,-37.25 186.5,-37.25 186.5,-18 240.75,-18 240.75,-37.25"/>
<text text-anchor="middle" x="213.62" y="-23.75" font-family="Helvetica,sans-Serif" font-size="10.00">ft_strdup</text>
</a>
</g>
</g>
<!-- Node2 -->
<g id="Node000002" class="node">
<title>Node2</title>
<g id="a_Node000002"><a xlink:href="ft__strmapi_8c.html#a668b60557bfc9d60c2d3ccda8afadf49" target="_top" xlink:title=" ">
<polygon fill="white" stroke="#666666" points="150.5,-56.25 91,-56.25 91,-37 150.5,-37 150.5,-56.25"/>
<text text-anchor="middle" x="120.75" y="-42.75" font-family="Helvetica,sans-Serif" font-size="10.00">ft_strmapi</text>
</a>
</g>
</g>
<!-- Node1&#45;&gt;Node2 -->
<g id="edge1_Node000001_Node000002" class="edge">
<title>Node1&#45;&gt;Node2</title>
<g id="a_edge1_Node000001_Node000002"><a xlink:title=" ">
<path fill="none" stroke="#63b8ff" d="M175.2,-35.45C167.07,-37.15 158.59,-38.92 150.84,-40.54"/>
<polygon fill="#63b8ff" stroke="#63b8ff" points="175.79,-38.9 184.86,-33.43 174.35,-32.05 175.79,-38.9"/>
</a>
</g>
</g>
<!-- Node3 -->
<g id="Node000003" class="node">
<title>Node3</title>
<g id="a_Node000003"><a xlink:href="ft__substr_8c.html#a78c402cbf3d55b1374693c3b7d34f71d" target="_top" xlink:title=" ">
<polygon fill="white" stroke="#666666" points="147.88,-19.25 93.62,-19.25 93.62,0 147.88,0 147.88,-19.25"/>
<text text-anchor="middle" x="120.75" y="-5.75" font-family="Helvetica,sans-Serif" font-size="10.00">ft_substr</text>
</a>
</g>
</g>
<!-- Node1&#45;&gt;Node3 -->
<g id="edge2_Node000001_Node000003" class="edge">
<title>Node1&#45;&gt;Node3</title>
<g id="a_edge2_Node000001_Node000003"><a xlink:title=" ">
<path fill="none" stroke="#63b8ff" d="M175.24,-20.22C166.2,-18.43 156.72,-16.55 148.29,-14.88"/>
<polygon fill="#63b8ff" stroke="#63b8ff" points="174.37,-23.61 184.86,-22.12 175.73,-16.75 174.37,-23.61"/>
</a>
</g>
</g>
<!-- Node4 -->
<g id="Node000004" class="node">
<title>Node4</title>
<g id="a_Node000004"><a xlink:href="ft__strtrim_8c.html#a60352c5b39fab08469b3e28131a79e25" target="_top" xlink:title=" ">
<polygon fill="white" stroke="#666666" points="55,-19.25 0,-19.25 0,0 55,0 55,-19.25"/>
<text text-anchor="middle" x="27.5" y="-5.75" font-family="Helvetica,sans-Serif" font-size="10.00">ft_strtrim</text>
</a>
</g>
</g>
<!-- Node3&#45;&gt;Node4 -->
<g id="edge3_Node000003_Node000004" class="edge">
<title>Node3&#45;&gt;Node4</title>
<g id="a_edge3_Node000003_Node000004"><a xlink:title=" ">
<path fill="none" stroke="#63b8ff" d="M82.01,-9.62C73.1,-9.62 63.79,-9.62 55.47,-9.62"/>
<polygon fill="#63b8ff" stroke="#63b8ff" points="81.84,-13.13 91.84,-9.63 81.84,-6.13 81.84,-13.13"/>
</a>
</g>
</g>
</g>
</svg>
