<?xml version="1.0" encoding="UTF-8" standalone="no"?>
<!DOCTYPE svg PUBLIC "-//W3C//DTD SVG 1.1//EN"
 "http://www.w3.org/Graphics/SVG/1.1/DTD/svg11.dtd">
<!-- Generated by graphviz version 9.0.0 (20230911.1827)
 -->
<!-- Title: ft_printf_xx Pages: 1 -->
<svg width="276pt" height="45pt"
 viewBox="0.00 0.00 275.75 45.25" xmlns="http://www.w3.org/2000/svg" xmlns:xlink="http://www.w3.org/1999/xlink">
<g id="graph0" class="graph" transform="scale(1 1) rotate(0) translate(4 41.25)">
<title>ft_printf_xx</title>
<!-- Node1 -->
<g id="Node000001" class="node">
<title>Node1</title>
<g id="a_Node000001"><a xlink:title=" ">
<polygon fill="#999999" stroke="#666666" points="63.25,-19.25 0,-19.25 0,0 63.25,0 63.25,-19.25"/>
<text text-anchor="middle" x="31.62" y="-5.75" font-family="Helvetica,sans-Serif" font-size="10.00">ft_printf_xx</text>
</a>
</g>
</g>
<!-- Node1&#45;&gt;Node1 -->
<g id="edge3_Node000001_Node000001" class="edge">
<title>Node1&#45;&gt;Node1</title>
<g id="a_edge3_Node000001_Node000001"><a xlink:title=" ">
<path fill="none" stroke="#63b8ff" d="M16.38,-19.54C9.43,-28.15 14.51,-37.25 31.62,-37.25 40.99,-37.25 46.75,-34.53 48.91,-30.65"/>
<polygon fill="#63b8ff" stroke="#63b8ff" points="52.39,-30.23 47.14,-21.03 45.51,-31.49 52.39,-30.23"/>
</a>
</g>
</g>
<!-- Node2 -->
<g id="Node000002" class="node">
<title>Node2</title>
<g id="a_Node000002"><a xlink:href="ft__printf__c_8c.html#a1a1ea1a2f302e4ced86283acae6084b6" target="_top" xlink:title=" ">
<polygon fill="white" stroke="#666666" points="158.75,-19.25 99.25,-19.25 99.25,0 158.75,0 158.75,-19.25"/>
<text text-anchor="middle" x="129" y="-5.75" font-family="Helvetica,sans-Serif" font-size="10.00">ft_printf_c</text>
</a>
</g>
</g>
<!-- Node1&#45;&gt;Node2 -->
<g id="edge1_Node000001_Node000002" class="edge">
<title>Node1&#45;&gt;Node2</title>
<g id="a_edge1_Node000001_Node000002"><a xlink:title=" ">
<path fill="none" stroke="#63b8ff" d="M63.59,-9.62C71.19,-9.62 79.44,-9.62 87.42,-9.62"/>
<polygon fill="#63b8ff" stroke="#63b8ff" points="87.3,-13.13 97.3,-9.63 87.3,-6.13 87.3,-13.13"/>
</a>
</g>
</g>
<!-- Node3 -->
<g id="Node000003" class="node">
<title>Node3</title>
<g id="a_Node000003"><a xlink:href="ft__putchar__fd_8c.html#a8ee15a511946c1397bd2bdea4aed6aee" target="_top" xlink:title=" ">
<polygon fill="white" stroke="#666666" points="267.75,-19.25 194.75,-19.25 194.75,0 267.75,0 267.75,-19.25"/>
<text text-anchor="middle" x="231.25" y="-5.75" font-family="Helvetica,sans-Serif" font-size="10.00">ft_putchar_fd</text>
</a>
</g>
</g>
<!-- Node2&#45;&gt;Node3 -->
<g id="edge2_Node000002_Node000003" class="edge">
<title>Node2&#45;&gt;Node3</title>
<g id="a_edge2_Node000002_Node000003"><a xlink:title=" ">
<path fill="none" stroke="#63b8ff" d="M159,-9.62C166.54,-9.62 174.87,-9.62 183.09,-9.62"/>
<polygon fill="#63b8ff" stroke="#63b8ff" points="183.04,-13.13 193.04,-9.63 183.04,-6.13 183.04,-13.13"/>
</a>
</g>
</g>
</g>
</svg>
