<?xml version="1.0" encoding="UTF-8" standalone="no"?>
<!DOCTYPE svg PUBLIC "-//W3C//DTD SVG 1.1//EN"
 "http://www.w3.org/Graphics/SVG/1.1/DTD/svg11.dtd">
<!-- Generated by graphviz version 9.0.0 (20230911.1827)
 -->
<!-- Title: ft_putnbr_fd Pages: 1 -->
<svg width="174pt" height="45pt"
 viewBox="0.00 0.00 173.50 45.25" xmlns="http://www.w3.org/2000/svg" xmlns:xlink="http://www.w3.org/1999/xlink">
<g id="graph0" class="graph" transform="scale(1 1) rotate(0) translate(4 41.25)">
<title>ft_putnbr_fd</title>
<!-- Node1 -->
<g id="Node000001" class="node">
<title>Node1</title>
<g id="a_Node000001"><a xlink:title=" ">
<polygon fill="#999999" stroke="#666666" points="165.5,-19.25 97.75,-19.25 97.75,0 165.5,0 165.5,-19.25"/>
<text text-anchor="middle" x="131.62" y="-5.75" font-family="Helvetica,sans-Serif" font-size="10.00">ft_putnbr_fd</text>
</a>
</g>
</g>
<!-- Node1&#45;&gt;Node1 -->
<g id="edge2_Node000001_Node000001" class="edge">
<title>Node1&#45;&gt;Node1</title>
<g id="a_edge2_Node000001_Node000001"><a xlink:title=" ">
<path fill="none" stroke="#63b8ff" d="M149.51,-30.65C147.27,-34.53 141.31,-37.25 131.62,-37.25 113.92,-37.25 108.66,-28.15 115.85,-19.54"/>
<polygon fill="#63b8ff" stroke="#63b8ff" points="152.98,-30.2 147.68,-21.03 146.11,-31.5 152.98,-30.2"/>
</a>
</g>
</g>
<!-- Node2 -->
<g id="Node000002" class="node">
<title>Node2</title>
<g id="a_Node000002"><a xlink:href="ft__printf__di_8c.html#a81322e917858ef0bf26902742106caa7" target="_top" xlink:title=" ">
<polygon fill="white" stroke="#666666" points="61.75,-19.25 0,-19.25 0,0 61.75,0 61.75,-19.25"/>
<text text-anchor="middle" x="30.88" y="-5.75" font-family="Helvetica,sans-Serif" font-size="10.00">ft_printf_di</text>
</a>
</g>
</g>
<!-- Node1&#45;&gt;Node2 -->
<g id="edge1_Node000001_Node000002" class="edge">
<title>Node1&#45;&gt;Node2</title>
<g id="a_edge1_Node000001_Node000002"><a xlink:title=" ">
<path fill="none" stroke="#63b8ff" d="M86.18,-9.62C78.04,-9.62 69.72,-9.62 62.12,-9.62"/>
<polygon fill="#63b8ff" stroke="#63b8ff" points="85.95,-13.13 95.95,-9.63 85.95,-6.13 85.95,-13.13"/>
</a>
</g>
</g>
</g>
</svg>
