<?xml version="1.0" encoding="UTF-8" standalone="no"?>
<!DOCTYPE svg PUBLIC "-//W3C//DTD SVG 1.1//EN"
 "http://www.w3.org/Graphics/SVG/1.1/DTD/svg11.dtd">
<!-- Generated by graphviz version 9.0.0 (20230911.1827)
 -->
<!-- Title: ft_strmapi Pages: 1 -->
<svg width="337pt" height="46pt"
 viewBox="0.00 0.00 336.75 46.25" xmlns="http://www.w3.org/2000/svg" xmlns:xlink="http://www.w3.org/1999/xlink">
<g id="graph0" class="graph" transform="scale(1 1) rotate(0) translate(4 42.25)">
<title>ft_strmapi</title>
<!-- Node1 -->
<g id="Node000001" class="node">
<title>Node1</title>
<g id="a_Node000001"><a xlink:title=" ">
<polygon fill="#999999" stroke="#666666" points="59.5,-19.25 0,-19.25 0,0 59.5,0 59.5,-19.25"/>
<text text-anchor="middle" x="29.75" y="-5.75" font-family="Helvetica,sans-Serif" font-size="10.00">ft_strmapi</text>
</a>
</g>
</g>
<!-- Node2 -->
<g id="Node000002" class="node">
<title>Node2</title>
<g id="a_Node000002"><a xlink:href="ft__strdup_8c.html#aaacf33ac82063226a213d2ee49adc65f" target="_top" xlink:title=" ">
<polygon fill="white" stroke="#666666" points="149.75,-19.25 95.5,-19.25 95.5,0 149.75,0 149.75,-19.25"/>
<text text-anchor="middle" x="122.62" y="-5.75" font-family="Helvetica,sans-Serif" font-size="10.00">ft_strdup</text>
</a>
</g>
</g>
<!-- Node1&#45;&gt;Node2 -->
<g id="edge1_Node000001_Node000002" class="edge">
<title>Node1&#45;&gt;Node2</title>
<g id="a_edge1_Node000001_Node000002"><a xlink:title=" ">
<path fill="none" stroke="#63b8ff" d="M59.75,-9.62C67.36,-9.62 75.68,-9.62 83.68,-9.62"/>
<polygon fill="#63b8ff" stroke="#63b8ff" points="83.54,-13.13 93.54,-9.63 83.54,-6.13 83.54,-13.13"/>
</a>
</g>
</g>
<!-- Node3 -->
<g id="Node000003" class="node">
<title>Node3</title>
<g id="a_Node000003"><a xlink:href="ft__strlcpy_8c.html#a95de924e4140ae426bf2e05acfb5fe4f" target="_top" xlink:title=" ">
<polygon fill="white" stroke="#666666" points="241.5,-38.25 185.75,-38.25 185.75,-19 241.5,-19 241.5,-38.25"/>
<text text-anchor="middle" x="213.62" y="-24.75" font-family="Helvetica,sans-Serif" font-size="10.00">ft_strlcpy</text>
</a>
</g>
</g>
<!-- Node2&#45;&gt;Node3 -->
<g id="edge2_Node000002_Node000003" class="edge">
<title>Node2&#45;&gt;Node3</title>
<g id="a_edge2_Node000002_Node000003"><a xlink:title=" ">
<path fill="none" stroke="#63b8ff" d="M149.85,-15.22C157.53,-16.86 166.1,-18.69 174.37,-20.46"/>
<polygon fill="#63b8ff" stroke="#63b8ff" points="173.36,-23.82 183.87,-22.49 174.83,-16.98 173.36,-23.82"/>
</a>
</g>
</g>
<!-- Node4 -->
<g id="Node000004" class="node">
<title>Node4</title>
<g id="a_Node000004"><a xlink:href="LIBFT_2ft__strlen_8c.html#a828402378653640f545a4be2e00e92f9" target="_top" xlink:title=" ">
<polygon fill="white" stroke="#666666" points="328.75,-19.25 277.5,-19.25 277.5,0 328.75,0 328.75,-19.25"/>
<text text-anchor="middle" x="303.12" y="-5.75" font-family="Helvetica,sans-Serif" font-size="10.00">ft_strlen</text>
</a>
</g>
</g>
<!-- Node2&#45;&gt;Node4 -->
<g id="edge4_Node000002_Node000004" class="edge">
<title>Node2&#45;&gt;Node4</title>
<g id="a_edge4_Node000002_Node000004"><a xlink:title=" ">
<path fill="none" stroke="#63b8ff" d="M149.96,-9.62C180.59,-9.62 231.31,-9.62 265.7,-9.62"/>
<polygon fill="#63b8ff" stroke="#63b8ff" points="265.61,-13.13 275.61,-9.63 265.61,-6.13 265.61,-13.13"/>
</a>
</g>
</g>
<!-- Node3&#45;&gt;Node4 -->
<g id="edge3_Node000003_Node000004" class="edge">
<title>Node3&#45;&gt;Node4</title>
<g id="a_edge3_Node000003_Node000004"><a xlink:title=" ">
<path fill="none" stroke="#63b8ff" d="M241.83,-22.72C249.47,-21.06 257.9,-19.23 265.97,-17.48"/>
<polygon fill="#63b8ff" stroke="#63b8ff" points="266.51,-20.94 275.54,-15.4 265.03,-14.1 266.51,-20.94"/>
</a>
</g>
</g>
</g>
</svg>
