<?xml version="1.0" encoding="UTF-8" standalone="no"?>
<!DOCTYPE svg PUBLIC "-//W3C//DTD SVG 1.1//EN"
 "http://www.w3.org/Graphics/SVG/1.1/DTD/svg11.dtd">
<!-- Generated by graphviz version 9.0.0 (20230911.1827)
 -->
<!-- Title: ft_putendl_fd Pages: 1 -->
<svg width="189pt" height="64pt"
 viewBox="0.00 0.00 189.25 64.25" xmlns="http://www.w3.org/2000/svg" xmlns:xlink="http://www.w3.org/1999/xlink">
<g id="graph0" class="graph" transform="scale(1 1) rotate(0) translate(4 60.25)">
<title>ft_putendl_fd</title>
<!-- Node1 -->
<g id="Node000001" class="node">
<title>Node1</title>
<g id="a_Node000001"><a xlink:title=" ">
<polygon fill="#999999" stroke="#666666" points="72.25,-37.25 0,-37.25 0,-18 72.25,-18 72.25,-37.25"/>
<text text-anchor="middle" x="36.12" y="-23.75" font-family="Helvetica,sans-Serif" font-size="10.00">ft_putendl_fd</text>
</a>
</g>
</g>
<!-- Node2 -->
<g id="Node000002" class="node">
<title>Node2</title>
<g id="a_Node000002"><a xlink:href="ft__putchar__fd_8c.html#a8ee15a511946c1397bd2bdea4aed6aee" target="_top" xlink:title=" ">
<polygon fill="white" stroke="#666666" points="181.25,-56.25 108.25,-56.25 108.25,-37 181.25,-37 181.25,-56.25"/>
<text text-anchor="middle" x="144.75" y="-42.75" font-family="Helvetica,sans-Serif" font-size="10.00">ft_putchar_fd</text>
</a>
</g>
</g>
<!-- Node1&#45;&gt;Node2 -->
<g id="edge1_Node000001_Node000002" class="edge">
<title>Node1&#45;&gt;Node2</title>
<g id="a_edge1_Node000001_Node000002"><a xlink:title=" ">
<path fill="none" stroke="#63b8ff" d="M72.63,-33.95C80.37,-35.33 88.68,-36.81 96.79,-38.26"/>
<polygon fill="#63b8ff" stroke="#63b8ff" points="96.09,-41.69 106.55,-40 97.32,-34.8 96.09,-41.69"/>
</a>
</g>
</g>
<!-- Node3 -->
<g id="Node000003" class="node">
<title>Node3</title>
<g id="a_Node000003"><a xlink:href="ft__putstr__fd_8c.html#acefce9ac519f8f8b7d3fde33dbafe469" target="_top" xlink:title=" ">
<polygon fill="white" stroke="#666666" points="177.5,-19.25 112,-19.25 112,0 177.5,0 177.5,-19.25"/>
<text text-anchor="middle" x="144.75" y="-5.75" font-family="Helvetica,sans-Serif" font-size="10.00">ft_putstr_fd</text>
</a>
</g>
</g>
<!-- Node1&#45;&gt;Node3 -->
<g id="edge2_Node000001_Node000003" class="edge">
<title>Node1&#45;&gt;Node3</title>
<g id="a_edge2_Node000001_Node000003"><a xlink:title=" ">
<path fill="none" stroke="#63b8ff" d="M72.63,-21.63C81.49,-20.14 91.09,-18.51 100.29,-16.96"/>
<polygon fill="#63b8ff" stroke="#63b8ff" points="100.86,-20.41 110.14,-15.3 99.7,-13.51 100.86,-20.41"/>
</a>
</g>
</g>
</g>
</svg>
