<?xml version="1.0" encoding="UTF-8" standalone="no"?>
<!DOCTYPE svg PUBLIC "-//W3C//DTD SVG 1.1//EN"
 "http://www.w3.org/Graphics/SVG/1.1/DTD/svg11.dtd">
<!-- Generated by graphviz version 9.0.0 (20230911.1827)
 -->
<!-- Title: /github/workspace/LIB/LIBFT/ft_printf.c Pages: 1 -->
<svg width="324pt" height="260pt"
 viewBox="0.00 0.00 324.25 259.50" xmlns="http://www.w3.org/2000/svg" xmlns:xlink="http://www.w3.org/1999/xlink">
<g id="graph0" class="graph" transform="scale(1 1) rotate(0) translate(4 255.5)">
<title>/github/workspace/LIB/LIBFT/ft_printf.c</title>
<!-- Node1 -->
<g id="Node000001" class="node">
<title>Node1</title>
<g id="a_Node000001"><a xlink:title=" ">
<polygon fill="#999999" stroke="#666666" points="262.5,-251.5 148.25,-251.5 148.25,-221 262.5,-221 262.5,-251.5"/>
<text text-anchor="start" x="156.25" y="-238" font-family="Helvetica,sans-Serif" font-size="10.00">/github/workspace/LIB</text>
<text text-anchor="middle" x="205.38" y="-226.75" font-family="Helvetica,sans-Serif" font-size="10.00">/LIBFT/ft_printf.c</text>
</a>
</g>
</g>
<!-- Node2 -->
<g id="Node000002" class="node">
<title>Node2</title>
<g id="a_Node000002"><a xlink:href="ft__printf_8h.html" target="_top" xlink:title=" ">
<polygon fill="white" stroke="#666666" points="233.62,-185 177.12,-185 177.12,-165.75 233.62,-165.75 233.62,-185"/>
<text text-anchor="middle" x="205.38" y="-171.5" font-family="Helvetica,sans-Serif" font-size="10.00">ft_printf.h</text>
</a>
</g>
</g>
<!-- Node1&#45;&gt;Node2 -->
<g id="edge1_Node000001_Node000002" class="edge">
<title>Node1&#45;&gt;Node2</title>
<g id="a_edge1_Node000001_Node000002"><a xlink:title=" ">
<path fill="none" stroke="#63b8ff" d="M205.38,-220.7C205.38,-213.46 205.38,-204.59 205.38,-196.69"/>
<polygon fill="#63b8ff" stroke="#63b8ff" points="208.88,-196.96 205.38,-186.96 201.88,-196.96 208.88,-196.96"/>
</a>
</g>
</g>
<!-- Node3 -->
<g id="Node000003" class="node">
<title>Node3</title>
<g id="a_Node000003"><a xlink:title=" ">
<polygon fill="#e0e0e0" stroke="#999999" points="167.62,-129.75 117.12,-129.75 117.12,-110.5 167.62,-110.5 167.62,-129.75"/>
<text text-anchor="middle" x="142.38" y="-116.25" font-family="Helvetica,sans-Serif" font-size="10.00">stdarg.h</text>
</a>
</g>
</g>
<!-- Node2&#45;&gt;Node3 -->
<g id="edge2_Node000002_Node000003" class="edge">
<title>Node2&#45;&gt;Node3</title>
<g id="a_edge2_Node000002_Node000003"><a xlink:title=" ">
<path fill="none" stroke="#63b8ff" d="M194.69,-165.34C185.67,-157.72 172.54,-146.62 161.69,-137.45"/>
<polygon fill="#63b8ff" stroke="#63b8ff" points="163.96,-134.78 154.06,-131 159.44,-140.13 163.96,-134.78"/>
</a>
</g>
</g>
<!-- Node4 -->
<g id="Node000004" class="node">
<title>Node4</title>
<g id="a_Node000004"><a xlink:title=" ">
<polygon fill="#e0e0e0" stroke="#999999" points="316.25,-19.25 266.5,-19.25 266.5,0 316.25,0 316.25,-19.25"/>
<text text-anchor="middle" x="291.38" y="-5.75" font-family="Helvetica,sans-Serif" font-size="10.00">unistd.h</text>
</a>
</g>
</g>
<!-- Node2&#45;&gt;Node4 -->
<g id="edge3_Node000002_Node000004" class="edge">
<title>Node2&#45;&gt;Node4</title>
<g id="a_edge3_Node000002_Node000004"><a xlink:title=" ">
<path fill="none" stroke="#63b8ff" d="M217.5,-165.26C237.46,-149.42 276.48,-114.61 291.38,-74.5 296.53,-60.62 296.31,-43.85 294.91,-30.97"/>
<polygon fill="#63b8ff" stroke="#63b8ff" points="298.39,-30.55 293.5,-21.15 291.46,-31.54 298.39,-30.55"/>
</a>
</g>
</g>
<!-- Node5 -->
<g id="Node000005" class="node">
<title>Node5</title>
<g id="a_Node000005"><a xlink:href="libft_8h.html" target="_top" xlink:title=" ">
<polygon fill="white" stroke="#666666" points="225,-129.75 185.75,-129.75 185.75,-110.5 225,-110.5 225,-129.75"/>
<text text-anchor="middle" x="205.38" y="-116.25" font-family="Helvetica,sans-Serif" font-size="10.00">libft.h</text>
</a>
</g>
</g>
<!-- Node2&#45;&gt;Node5 -->
<g id="edge4_Node000002_Node000005" class="edge">
<title>Node2&#45;&gt;Node5</title>
<g id="a_edge4_Node000002_Node000005"><a xlink:title=" ">
<path fill="none" stroke="#63b8ff" d="M200.21,-165.58C198.8,-158.99 198.33,-149.71 198.8,-141.32"/>
<polygon fill="#63b8ff" stroke="#63b8ff" points="202.25,-141.96 199.99,-131.61 195.3,-141.12 202.25,-141.96"/>
</a>
</g>
</g>
<!-- Node5&#45;&gt;Node2 -->
<g id="edge13_Node000005_Node000002" class="edge">
<title>Node5&#45;&gt;Node2</title>
<g id="a_edge13_Node000005_Node000002"><a xlink:title=" ">
<path fill="none" stroke="#63b8ff" d="M210.58,-130.11C211.97,-136.75 212.42,-146.05 211.93,-154.42"/>
<polygon fill="#63b8ff" stroke="#63b8ff" points="208.49,-153.72 210.73,-164.08 215.44,-154.59 208.49,-153.72"/>
</a>
</g>
</g>
<!-- Node5&#45;&gt;Node4 -->
<g id="edge6_Node000005_Node000004" class="edge">
<title>Node5&#45;&gt;Node4</title>
<g id="a_edge6_Node000005_Node000004"><a xlink:title=" ">
<path fill="none" stroke="#63b8ff" d="M225.45,-110.43C240.44,-102.95 260.34,-90.8 272.38,-74.5 281.75,-61.81 286.53,-44.5 288.95,-31.11"/>
<polygon fill="#63b8ff" stroke="#63b8ff" points="292.41,-31.64 290.4,-21.24 285.48,-30.63 292.41,-31.64"/>
</a>
</g>
</g>
<!-- Node6 -->
<g id="Node000006" class="node">
<title>Node6</title>
<g id="a_Node000006"><a xlink:title=" ">
<polygon fill="#e0e0e0" stroke="#999999" points="46.75,-19.25 0,-19.25 0,0 46.75,0 46.75,-19.25"/>
<text text-anchor="middle" x="23.38" y="-5.75" font-family="Helvetica,sans-Serif" font-size="10.00">stdlib.h</text>
</a>
</g>
</g>
<!-- Node5&#45;&gt;Node6 -->
<g id="edge5_Node000005_Node000006" class="edge">
<title>Node5&#45;&gt;Node6</title>
<g id="a_edge5_Node000005_Node000006"><a xlink:title=" ">
<path fill="none" stroke="#63b8ff" d="M185.43,-113.1C182.4,-112.21 179.31,-111.32 176.38,-110.5 115.75,-93.52 83.63,-119.27 39.38,-74.5 28.05,-63.05 24.35,-44.86 23.3,-30.81"/>
<polygon fill="#63b8ff" stroke="#63b8ff" points="26.8,-30.79 23,-20.9 19.81,-31.01 26.8,-30.79"/>
</a>
</g>
</g>
<!-- Node7 -->
<g id="Node000007" class="node">
<title>Node7</title>
<g id="a_Node000007"><a xlink:title=" ">
<polygon fill="#e0e0e0" stroke="#999999" points="197.62,-74.5 147.12,-74.5 147.12,-55.25 197.62,-55.25 197.62,-74.5"/>
<text text-anchor="middle" x="172.38" y="-61" font-family="Helvetica,sans-Serif" font-size="10.00">stddef.h</text>
</a>
</g>
</g>
<!-- Node5&#45;&gt;Node7 -->
<g id="edge7_Node000005_Node000007" class="edge">
<title>Node5&#45;&gt;Node7</title>
<g id="a_edge7_Node000005_Node000007"><a xlink:title=" ">
<path fill="none" stroke="#63b8ff" d="M199.93,-110.33C195.6,-103.36 189.41,-93.37 183.99,-84.62"/>
<polygon fill="#63b8ff" stroke="#63b8ff" points="186.98,-82.8 178.74,-76.15 181.03,-86.49 186.98,-82.8"/>
</a>
</g>
</g>
<!-- Node8 -->
<g id="Node000008" class="node">
<title>Node8</title>
<g id="a_Node000008"><a xlink:title=" ">
<polygon fill="#e0e0e0" stroke="#999999" points="263.12,-74.5 215.62,-74.5 215.62,-55.25 263.12,-55.25 263.12,-74.5"/>
<text text-anchor="middle" x="239.38" y="-61" font-family="Helvetica,sans-Serif" font-size="10.00">stdint.h</text>
</a>
</g>
</g>
<!-- Node5&#45;&gt;Node8 -->
<g id="edge8_Node000005_Node000008" class="edge">
<title>Node5&#45;&gt;Node8</title>
<g id="a_edge8_Node000005_Node000008"><a xlink:title=" ">
<path fill="none" stroke="#63b8ff" d="M210.99,-110.33C215.49,-103.28 221.96,-93.15 227.59,-84.33"/>
<polygon fill="#63b8ff" stroke="#63b8ff" points="230.39,-86.45 232.82,-76.13 224.49,-82.68 230.39,-86.45"/>
</a>
</g>
</g>
<!-- Node9 -->
<g id="Node000009" class="node">
<title>Node9</title>
<g id="a_Node000009"><a xlink:href="get__next__line_8h.html" target="_top" xlink:title=" ">
<polygon fill="white" stroke="#666666" points="128.62,-74.5 48.12,-74.5 48.12,-55.25 128.62,-55.25 128.62,-74.5"/>
<text text-anchor="middle" x="88.38" y="-61" font-family="Helvetica,sans-Serif" font-size="10.00">get_next_line.h</text>
</a>
</g>
</g>
<!-- Node5&#45;&gt;Node9 -->
<g id="edge9_Node000005_Node000009" class="edge">
<title>Node5&#45;&gt;Node9</title>
<g id="a_edge9_Node000005_Node000009"><a xlink:title=" ">
<path fill="none" stroke="#63b8ff" d="M185.53,-110.09C167.21,-101.75 139.73,-89.25 118.67,-79.66"/>
<polygon fill="#63b8ff" stroke="#63b8ff" points="120.25,-76.54 109.7,-75.58 117.35,-82.91 120.25,-76.54"/>
</a>
</g>
</g>
<!-- Node9&#45;&gt;Node4 -->
<g id="edge12_Node000009_Node000004" class="edge">
<title>Node9&#45;&gt;Node4</title>
<g id="a_edge12_Node000009_Node000004"><a xlink:title=" ">
<path fill="none" stroke="#63b8ff" d="M122.81,-54.84C159.61,-45.19 217.71,-29.95 255.17,-20.12"/>
<polygon fill="#63b8ff" stroke="#63b8ff" points="255.84,-23.56 264.63,-17.64 254.07,-16.79 255.84,-23.56"/>
</a>
</g>
</g>
<!-- Node9&#45;&gt;Node6 -->
<g id="edge10_Node000009_Node000006" class="edge">
<title>Node9&#45;&gt;Node6</title>
<g id="a_edge10_Node000009_Node000006"><a xlink:title=" ">
<path fill="none" stroke="#63b8ff" d="M77.35,-54.84C67.95,-47.15 54.23,-35.9 42.97,-26.68"/>
<polygon fill="#63b8ff" stroke="#63b8ff" points="45.36,-24.11 35.41,-20.48 40.93,-29.53 45.36,-24.11"/>
</a>
</g>
</g>
<!-- Node10 -->
<g id="Node000010" class="node">
<title>Node10</title>
<g id="a_Node000010"><a xlink:title=" ">
<polygon fill="#e0e0e0" stroke="#999999" points="109.5,-19.25 67.25,-19.25 67.25,0 109.5,0 109.5,-19.25"/>
<text text-anchor="middle" x="88.38" y="-5.75" font-family="Helvetica,sans-Serif" font-size="10.00">fcntl.h</text>
</a>
</g>
</g>
<!-- Node9&#45;&gt;Node10 -->
<g id="edge11_Node000009_Node000010" class="edge">
<title>Node9&#45;&gt;Node10</title>
<g id="a_edge11_Node000009_Node000010"><a xlink:title=" ">
<path fill="none" stroke="#63b8ff" d="M88.38,-55.08C88.38,-48.57 88.38,-39.42 88.38,-31.12"/>
<polygon fill="#63b8ff" stroke="#63b8ff" points="91.88,-31.12 88.38,-21.12 84.88,-31.12 91.88,-31.12"/>
</a>
</g>
</g>
</g>
</svg>
