<?xml version="1.0" encoding="UTF-8" standalone="no"?>
<!DOCTYPE svg PUBLIC "-//W3C//DTD SVG 1.1//EN"
 "http://www.w3.org/Graphics/SVG/1.1/DTD/svg11.dtd">
<!-- Generated by graphviz version 9.0.0 (20230911.1827)
 -->
<!-- Title: ft_printf_s Pages: 1 -->
<svg width="169pt" height="64pt"
 viewBox="0.00 0.00 169.00 64.25" xmlns="http://www.w3.org/2000/svg" xmlns:xlink="http://www.w3.org/1999/xlink">
<g id="graph0" class="graph" transform="scale(1 1) rotate(0) translate(4 60.25)">
<title>ft_printf_s</title>
<!-- Node1 -->
<g id="Node000001" class="node">
<title>Node1</title>
<g id="a_Node000001"><a xlink:title=" ">
<polygon fill="#999999" stroke="#666666" points="59.5,-37.25 0,-37.25 0,-18 59.5,-18 59.5,-37.25"/>
<text text-anchor="middle" x="29.75" y="-23.75" font-family="Helvetica,sans-Serif" font-size="10.00">ft_printf_s</text>
</a>
</g>
</g>
<!-- Node2 -->
<g id="Node000002" class="node">
<title>Node2</title>
<g id="a_Node000002"><a xlink:href="ft__putstr__fd_8c.html#acefce9ac519f8f8b7d3fde33dbafe469" target="_top" xlink:title=" ">
<polygon fill="white" stroke="#666666" points="161,-56.25 95.5,-56.25 95.5,-37 161,-37 161,-56.25"/>
<text text-anchor="middle" x="128.25" y="-42.75" font-family="Helvetica,sans-Serif" font-size="10.00">ft_putstr_fd</text>
</a>
</g>
</g>
<!-- Node1&#45;&gt;Node2 -->
<g id="edge1_Node000001_Node000002" class="edge">
<title>Node1&#45;&gt;Node2</title>
<g id="a_edge1_Node000001_Node000002"><a xlink:title=" ">
<path fill="none" stroke="#63b8ff" d="M59.97,-33.38C67.51,-34.86 75.79,-36.49 83.88,-38.09"/>
<polygon fill="#63b8ff" stroke="#63b8ff" points="83.13,-41.51 93.62,-40 84.48,-34.64 83.13,-41.51"/>
</a>
</g>
</g>
<!-- Node3 -->
<g id="Node000003" class="node">
<title>Node3</title>
<g id="a_Node000003"><a xlink:href="LIBFT_2ft__strlen_8c.html#a828402378653640f545a4be2e00e92f9" target="_top" xlink:title=" ">
<polygon fill="white" stroke="#666666" points="153.88,-19.25 102.62,-19.25 102.62,0 153.88,0 153.88,-19.25"/>
<text text-anchor="middle" x="128.25" y="-5.75" font-family="Helvetica,sans-Serif" font-size="10.00">ft_strlen</text>
</a>
</g>
</g>
<!-- Node1&#45;&gt;Node3 -->
<g id="edge2_Node000001_Node000003" class="edge">
<title>Node1&#45;&gt;Node3</title>
<g id="a_edge2_Node000001_Node000003"><a xlink:title=" ">
<path fill="none" stroke="#63b8ff" d="M59.97,-22.18C69.8,-20.34 80.89,-18.27 91.19,-16.35"/>
<polygon fill="#63b8ff" stroke="#63b8ff" points="91.69,-19.82 100.88,-14.54 90.41,-12.94 91.69,-19.82"/>
</a>
</g>
</g>
</g>
</svg>
