<?xml version="1.0" encoding="UTF-8" standalone="no"?>
<!DOCTYPE svg PUBLIC "-//W3C//DTD SVG 1.1//EN"
 "http://www.w3.org/Graphics/SVG/1.1/DTD/svg11.dtd">
<!-- Generated by graphviz version 9.0.0 (20230911.1827)
 -->
<!-- Title: /github/workspace/LIB/LIBFT/ft_memcpy.c Pages: 1 -->
<svg width="387pt" height="204pt"
 viewBox="0.00 0.00 386.62 204.25" xmlns="http://www.w3.org/2000/svg" xmlns:xlink="http://www.w3.org/1999/xlink">
<g id="graph0" class="graph" transform="scale(1 1) rotate(0) translate(4 200.25)">
<title>/github/workspace/LIB/LIBFT/ft_memcpy.c</title>
<!-- Node1 -->
<g id="Node000001" class="node">
<title>Node1</title>
<g id="a_Node000001"><a xlink:title=" ">
<polygon fill="#999999" stroke="#666666" points="296.5,-196.25 182.25,-196.25 182.25,-165.75 296.5,-165.75 296.5,-196.25"/>
<text text-anchor="start" x="190.25" y="-182.75" font-family="Helvetica,sans-Serif" font-size="10.00">/github/workspace/LIB</text>
<text text-anchor="middle" x="239.38" y="-171.5" font-family="Helvetica,sans-Serif" font-size="10.00">/LIBFT/ft_memcpy.c</text>
</a>
</g>
</g>
<!-- Node2 -->
<g id="Node000002" class="node">
<title>Node2</title>
<g id="a_Node000002"><a xlink:href="libft_8h.html" target="_top" xlink:title=" ">
<polygon fill="white" stroke="#666666" points="259,-129.75 219.75,-129.75 219.75,-110.5 259,-110.5 259,-129.75"/>
<text text-anchor="middle" x="239.38" y="-116.25" font-family="Helvetica,sans-Serif" font-size="10.00">libft.h</text>
</a>
</g>
</g>
<!-- Node1&#45;&gt;Node2 -->
<g id="edge1_Node000001_Node000002" class="edge">
<title>Node1&#45;&gt;Node2</title>
<g id="a_edge1_Node000001_Node000002"><a xlink:title=" ">
<path fill="none" stroke="#63b8ff" d="M239.38,-165.45C239.38,-158.21 239.38,-149.34 239.38,-141.44"/>
<polygon fill="#63b8ff" stroke="#63b8ff" points="242.88,-141.71 239.38,-131.71 235.88,-141.71 242.88,-141.71"/>
</a>
</g>
</g>
<!-- Node3 -->
<g id="Node000003" class="node">
<title>Node3</title>
<g id="a_Node000003"><a xlink:title=" ">
<polygon fill="#e0e0e0" stroke="#999999" points="46.75,-19.25 0,-19.25 0,0 46.75,0 46.75,-19.25"/>
<text text-anchor="middle" x="23.38" y="-5.75" font-family="Helvetica,sans-Serif" font-size="10.00">stdlib.h</text>
</a>
</g>
</g>
<!-- Node2&#45;&gt;Node3 -->
<g id="edge2_Node000002_Node000003" class="edge">
<title>Node2&#45;&gt;Node3</title>
<g id="a_edge2_Node000002_Node000003"><a xlink:title=" ">
<path fill="none" stroke="#63b8ff" d="M219.53,-117.32C174.21,-112.8 65.05,-99.51 39.38,-74.5 27.84,-63.26 24.16,-45.05 23.17,-30.94"/>
<polygon fill="#63b8ff" stroke="#63b8ff" points="26.67,-30.88 22.92,-20.97 19.68,-31.06 26.67,-30.88"/>
</a>
</g>
</g>
<!-- Node4 -->
<g id="Node000004" class="node">
<title>Node4</title>
<g id="a_Node000004"><a xlink:title=" ">
<polygon fill="#e0e0e0" stroke="#999999" points="310.25,-19.25 260.5,-19.25 260.5,0 310.25,0 310.25,-19.25"/>
<text text-anchor="middle" x="285.38" y="-5.75" font-family="Helvetica,sans-Serif" font-size="10.00">unistd.h</text>
</a>
</g>
</g>
<!-- Node2&#45;&gt;Node4 -->
<g id="edge3_Node000002_Node000004" class="edge">
<title>Node2&#45;&gt;Node4</title>
<g id="a_edge3_Node000002_Node000004"><a xlink:title=" ">
<path fill="none" stroke="#63b8ff" d="M247.75,-110.3C255.35,-101.8 266.26,-88.23 272.38,-74.5 278.52,-60.7 281.79,-43.92 283.51,-31.02"/>
<polygon fill="#63b8ff" stroke="#63b8ff" points="286.98,-31.5 284.6,-21.18 280.02,-30.73 286.98,-31.5"/>
</a>
</g>
</g>
<!-- Node5 -->
<g id="Node000005" class="node">
<title>Node5</title>
<g id="a_Node000005"><a xlink:title=" ">
<polygon fill="#e0e0e0" stroke="#999999" points="197.62,-74.5 147.12,-74.5 147.12,-55.25 197.62,-55.25 197.62,-74.5"/>
<text text-anchor="middle" x="172.38" y="-61" font-family="Helvetica,sans-Serif" font-size="10.00">stddef.h</text>
</a>
</g>
</g>
<!-- Node2&#45;&gt;Node5 -->
<g id="edge4_Node000002_Node000005" class="edge">
<title>Node2&#45;&gt;Node5</title>
<g id="a_edge4_Node000002_Node000005"><a xlink:title=" ">
<path fill="none" stroke="#63b8ff" d="M228.01,-110.09C218.33,-102.4 204.18,-91.15 192.57,-81.93"/>
<polygon fill="#63b8ff" stroke="#63b8ff" points="194.76,-79.2 184.76,-75.72 190.41,-84.68 194.76,-79.2"/>
</a>
</g>
</g>
<!-- Node6 -->
<g id="Node000006" class="node">
<title>Node6</title>
<g id="a_Node000006"><a xlink:title=" ">
<polygon fill="#e0e0e0" stroke="#999999" points="263.12,-74.5 215.62,-74.5 215.62,-55.25 263.12,-55.25 263.12,-74.5"/>
<text text-anchor="middle" x="239.38" y="-61" font-family="Helvetica,sans-Serif" font-size="10.00">stdint.h</text>
</a>
</g>
</g>
<!-- Node2&#45;&gt;Node6 -->
<g id="edge5_Node000002_Node000006" class="edge">
<title>Node2&#45;&gt;Node6</title>
<g id="a_edge5_Node000002_Node000006"><a xlink:title=" ">
<path fill="none" stroke="#63b8ff" d="M239.38,-110.33C239.38,-103.82 239.38,-94.67 239.38,-86.37"/>
<polygon fill="#63b8ff" stroke="#63b8ff" points="242.88,-86.37 239.38,-76.37 235.88,-86.37 242.88,-86.37"/>
</a>
</g>
</g>
<!-- Node7 -->
<g id="Node000007" class="node">
<title>Node7</title>
<g id="a_Node000007"><a xlink:href="get__next__line_8h.html" target="_top" xlink:title=" ">
<polygon fill="white" stroke="#666666" points="128.62,-74.5 48.12,-74.5 48.12,-55.25 128.62,-55.25 128.62,-74.5"/>
<text text-anchor="middle" x="88.38" y="-61" font-family="Helvetica,sans-Serif" font-size="10.00">get_next_line.h</text>
</a>
</g>
</g>
<!-- Node2&#45;&gt;Node7 -->
<g id="edge6_Node000002_Node000007" class="edge">
<title>Node2&#45;&gt;Node7</title>
<g id="a_edge6_Node000002_Node000007"><a xlink:title=" ">
<path fill="none" stroke="#63b8ff" d="M219.32,-112.05C195.28,-103.57 154.51,-89.2 124.84,-78.74"/>
<polygon fill="#63b8ff" stroke="#63b8ff" points="126.09,-75.47 115.5,-75.44 123.77,-82.07 126.09,-75.47"/>
</a>
</g>
</g>
<!-- Node9 -->
<g id="Node000009" class="node">
<title>Node9</title>
<g id="a_Node000009"><a xlink:href="ft__printf_8h.html" target="_top" xlink:title=" ">
<polygon fill="white" stroke="#666666" points="375.62,-74.5 319.12,-74.5 319.12,-55.25 375.62,-55.25 375.62,-74.5"/>
<text text-anchor="middle" x="347.38" y="-61" font-family="Helvetica,sans-Serif" font-size="10.00">ft_printf.h</text>
</a>
</g>
</g>
<!-- Node2&#45;&gt;Node9 -->
<g id="edge10_Node000002_Node000009" class="edge">
<title>Node2&#45;&gt;Node9</title>
<g id="a_edge10_Node000002_Node000009"><a xlink:title=" ">
<path fill="none" stroke="#63b8ff" d="M252.48,-110.09C267.65,-101.75 292.76,-89.25 313.42,-79.66"/>
<polygon fill="#63b8ff" stroke="#63b8ff" points="314.72,-82.92 322.36,-75.58 311.81,-76.55 314.72,-82.92"/>
</a>
</g>
</g>
<!-- Node7&#45;&gt;Node3 -->
<g id="edge7_Node000007_Node000003" class="edge">
<title>Node7&#45;&gt;Node3</title>
<g id="a_edge7_Node000007_Node000003"><a xlink:title=" ">
<path fill="none" stroke="#63b8ff" d="M77.35,-54.84C67.95,-47.15 54.23,-35.9 42.97,-26.68"/>
<polygon fill="#63b8ff" stroke="#63b8ff" points="45.36,-24.11 35.41,-20.48 40.93,-29.53 45.36,-24.11"/>
</a>
</g>
</g>
<!-- Node7&#45;&gt;Node4 -->
<g id="edge9_Node000007_Node000004" class="edge">
<title>Node7&#45;&gt;Node4</title>
<g id="a_edge9_Node000007_Node000004"><a xlink:title=" ">
<path fill="none" stroke="#63b8ff" d="M121.79,-54.84C157.16,-45.28 212.78,-30.25 249.16,-20.41"/>
<polygon fill="#63b8ff" stroke="#63b8ff" points="250.05,-23.8 258.79,-17.81 248.22,-17.04 250.05,-23.8"/>
</a>
</g>
</g>
<!-- Node8 -->
<g id="Node000008" class="node">
<title>Node8</title>
<g id="a_Node000008"><a xlink:title=" ">
<polygon fill="#e0e0e0" stroke="#999999" points="109.5,-19.25 67.25,-19.25 67.25,0 109.5,0 109.5,-19.25"/>
<text text-anchor="middle" x="88.38" y="-5.75" font-family="Helvetica,sans-Serif" font-size="10.00">fcntl.h</text>
</a>
</g>
</g>
<!-- Node7&#45;&gt;Node8 -->
<g id="edge8_Node000007_Node000008" class="edge">
<title>Node7&#45;&gt;Node8</title>
<g id="a_edge8_Node000007_Node000008"><a xlink:title=" ">
<path fill="none" stroke="#63b8ff" d="M88.38,-55.08C88.38,-48.57 88.38,-39.42 88.38,-31.12"/>
<polygon fill="#63b8ff" stroke="#63b8ff" points="91.88,-31.12 88.38,-21.12 84.88,-31.12 91.88,-31.12"/>
</a>
</g>
</g>
<!-- Node9&#45;&gt;Node2 -->
<g id="edge13_Node000009_Node000002" class="edge">
<title>Node9&#45;&gt;Node2</title>
<g id="a_edge13_Node000009_Node000002"><a xlink:title=" ">
<path fill="none" stroke="#63b8ff" d="M334.18,-74.96C318.16,-83.76 291.16,-97.16 269.96,-106.9"/>
<polygon fill="#63b8ff" stroke="#63b8ff" points="268.55,-103.69 260.87,-110.99 271.43,-110.07 268.55,-103.69"/>
</a>
</g>
</g>
<!-- Node9&#45;&gt;Node4 -->
<g id="edge12_Node000009_Node000004" class="edge">
<title>Node9&#45;&gt;Node4</title>
<g id="a_edge12_Node000009_Node000004"><a xlink:title=" ">
<path fill="none" stroke="#63b8ff" d="M336.86,-54.84C327.99,-47.22 315.06,-36.12 304.39,-26.95"/>
<polygon fill="#63b8ff" stroke="#63b8ff" points="306.75,-24.37 296.89,-20.51 302.19,-29.68 306.75,-24.37"/>
</a>
</g>
</g>
<!-- Node10 -->
<g id="Node000010" class="node">
<title>Node10</title>
<g id="a_Node000010"><a xlink:title=" ">
<polygon fill="#e0e0e0" stroke="#999999" points="378.62,-19.25 328.12,-19.25 328.12,0 378.62,0 378.62,-19.25"/>
<text text-anchor="middle" x="353.38" y="-5.75" font-family="Helvetica,sans-Serif" font-size="10.00">stdarg.h</text>
</a>
</g>
</g>
<!-- Node9&#45;&gt;Node10 -->
<g id="edge11_Node000009_Node000010" class="edge">
<title>Node9&#45;&gt;Node10</title>
<g id="a_edge11_Node000009_Node000010"><a xlink:title=" ">
<path fill="none" stroke="#63b8ff" d="M348.37,-55.08C349.11,-48.49 350.15,-39.21 351.1,-30.82"/>
<polygon fill="#63b8ff" stroke="#63b8ff" points="354.55,-31.44 352.19,-21.11 347.6,-30.66 354.55,-31.44"/>
</a>
</g>
</g>
</g>
</svg>
