<?xml version="1.0" encoding="UTF-8" standalone="no"?>
<!DOCTYPE svg PUBLIC "-//W3C//DTD SVG 1.1//EN"
 "http://www.w3.org/Graphics/SVG/1.1/DTD/svg11.dtd">
<!-- Generated by graphviz version 9.0.0 (20230911.1827)
 -->
<!-- Title: ft_strlcpy Pages: 1 -->
<svg width="341pt" height="64pt"
 viewBox="0.00 0.00 340.50 64.25" xmlns="http://www.w3.org/2000/svg" xmlns:xlink="http://www.w3.org/1999/xlink">
<g id="graph0" class="graph" transform="scale(1 1) rotate(0) translate(4 60.25)">
<title>ft_strlcpy</title>
<!-- Node1 -->
<g id="Node000001" class="node">
<title>Node1</title>
<g id="a_Node000001"><a xlink:title=" ">
<polygon fill="#999999" stroke="#666666" points="332.5,-37.25 276.75,-37.25 276.75,-18 332.5,-18 332.5,-37.25"/>
<text text-anchor="middle" x="304.62" y="-23.75" font-family="Helvetica,sans-Serif" font-size="10.00">ft_strlcpy</text>
</a>
</g>
</g>
<!-- Node2 -->
<g id="Node000002" class="node">
<title>Node2</title>
<g id="a_Node000002"><a xlink:href="ft__strdup_8c.html#aaacf33ac82063226a213d2ee49adc65f" target="_top" xlink:title=" ">
<polygon fill="white" stroke="#666666" points="240.75,-56.25 186.5,-56.25 186.5,-37 240.75,-37 240.75,-56.25"/>
<text text-anchor="middle" x="213.62" y="-42.75" font-family="Helvetica,sans-Serif" font-size="10.00">ft_strdup</text>
</a>
</g>
</g>
<!-- Node1&#45;&gt;Node2 -->
<g id="edge1_Node000001_Node000002" class="edge">
<title>Node1&#45;&gt;Node2</title>
<g id="a_edge1_Node000001_Node000002"><a xlink:title=" ">
<path fill="none" stroke="#63b8ff" d="M265.21,-35.83C257.06,-37.57 248.62,-39.37 241.03,-40.99"/>
<polygon fill="#63b8ff" stroke="#63b8ff" points="265.91,-39.26 274.96,-33.74 264.45,-32.41 265.91,-39.26"/>
</a>
</g>
</g>
<!-- Node4 -->
<g id="Node000004" class="node">
<title>Node4</title>
<g id="a_Node000004"><a xlink:href="ft__substr_8c.html#a78c402cbf3d55b1374693c3b7d34f71d" target="_top" xlink:title=" ">
<polygon fill="white" stroke="#666666" points="147.88,-19.25 93.62,-19.25 93.62,0 147.88,0 147.88,-19.25"/>
<text text-anchor="middle" x="120.75" y="-5.75" font-family="Helvetica,sans-Serif" font-size="10.00">ft_substr</text>
</a>
</g>
</g>
<!-- Node1&#45;&gt;Node4 -->
<g id="edge5_Node000001_Node000004" class="edge">
<title>Node1&#45;&gt;Node4</title>
<g id="a_edge5_Node000001_Node000004"><a xlink:title=" ">
<path fill="none" stroke="#63b8ff" d="M265.15,-23.82C230.03,-20.34 179.04,-15.3 148.28,-12.25"/>
<polygon fill="#63b8ff" stroke="#63b8ff" points="264.59,-27.28 274.89,-24.78 265.28,-20.31 264.59,-27.28"/>
</a>
</g>
</g>
<!-- Node3 -->
<g id="Node000003" class="node">
<title>Node3</title>
<g id="a_Node000003"><a xlink:href="ft__strmapi_8c.html#a668b60557bfc9d60c2d3ccda8afadf49" target="_top" xlink:title=" ">
<polygon fill="white" stroke="#666666" points="150.5,-56.25 91,-56.25 91,-37 150.5,-37 150.5,-56.25"/>
<text text-anchor="middle" x="120.75" y="-42.75" font-family="Helvetica,sans-Serif" font-size="10.00">ft_strmapi</text>
</a>
</g>
</g>
<!-- Node2&#45;&gt;Node3 -->
<g id="edge2_Node000002_Node000003" class="edge">
<title>Node2&#45;&gt;Node3</title>
<g id="a_edge2_Node000002_Node000003"><a xlink:title=" ">
<path fill="none" stroke="#63b8ff" d="M174.92,-46.62C166.88,-46.62 158.5,-46.62 150.84,-46.62"/>
<polygon fill="#63b8ff" stroke="#63b8ff" points="174.83,-50.13 184.83,-46.63 174.83,-43.13 174.83,-50.13"/>
</a>
</g>
</g>
<!-- Node2&#45;&gt;Node4 -->
<g id="edge3_Node000002_Node000004" class="edge">
<title>Node2&#45;&gt;Node4</title>
<g id="a_edge3_Node000002_Node000004"><a xlink:title=" ">
<path fill="none" stroke="#63b8ff" d="M177.42,-32.29C167.11,-28.09 156.07,-23.6 146.55,-19.72"/>
<polygon fill="#63b8ff" stroke="#63b8ff" points="175.81,-35.41 186.39,-35.94 178.45,-28.93 175.81,-35.41"/>
</a>
</g>
</g>
<!-- Node5 -->
<g id="Node000005" class="node">
<title>Node5</title>
<g id="a_Node000005"><a xlink:href="ft__strtrim_8c.html#a60352c5b39fab08469b3e28131a79e25" target="_top" xlink:title=" ">
<polygon fill="white" stroke="#666666" points="55,-19.25 0,-19.25 0,0 55,0 55,-19.25"/>
<text text-anchor="middle" x="27.5" y="-5.75" font-family="Helvetica,sans-Serif" font-size="10.00">ft_strtrim</text>
</a>
</g>
</g>
<!-- Node4&#45;&gt;Node5 -->
<g id="edge4_Node000004_Node000005" class="edge">
<title>Node4&#45;&gt;Node5</title>
<g id="a_edge4_Node000004_Node000005"><a xlink:title=" ">
<path fill="none" stroke="#63b8ff" d="M82.01,-9.62C73.1,-9.62 63.79,-9.62 55.47,-9.62"/>
<polygon fill="#63b8ff" stroke="#63b8ff" points="81.84,-13.13 91.84,-9.63 81.84,-6.13 81.84,-13.13"/>
</a>
</g>
</g>
</g>
</svg>
