<?xml version="1.0" encoding="UTF-8" standalone="no"?>
<!DOCTYPE svg PUBLIC "-//W3C//DTD SVG 1.1//EN"
 "http://www.w3.org/Graphics/SVG/1.1/DTD/svg11.dtd">
<!-- Generated by graphviz version 9.0.0 (20230911.1827)
 -->
<!-- Title: /github/workspace/LIB/LIBFT/ft_printf.h Pages: 1 -->
<svg width="5415pt" height="172pt"
 viewBox="0.00 0.00 5415.25 171.50" xmlns="http://www.w3.org/2000/svg" xmlns:xlink="http://www.w3.org/1999/xlink">
<g id="graph0" class="graph" transform="scale(1 1) rotate(0) translate(4 167.5)">
<title>/github/workspace/LIB/LIBFT/ft_printf.h</title>
<!-- Node1 -->
<g id="Node000001" class="node">
<title>Node1</title>
<g id="a_Node000001"><a xlink:title=" ">
<polygon fill="#999999" stroke="#666666" points="2371.25,-163.5 2257,-163.5 2257,-133 2371.25,-133 2371.25,-163.5"/>
<text text-anchor="start" x="2265" y="-150" font-family="Helvetica,sans-Serif" font-size="10.00">/github/workspace/LIB</text>
<text text-anchor="middle" x="2314.12" y="-138.75" font-family="Helvetica,sans-Serif" font-size="10.00">/LIBFT/ft_printf.h</text>
</a>
</g>
</g>
<!-- Node2 -->
<g id="Node000002" class="node">
<title>Node2</title>
<g id="a_Node000002"><a xlink:href="ft__printf_8c.html" target="_top" xlink:title=" ">
<polygon fill="white" stroke="#666666" points="1843.25,-97 1729,-97 1729,-66.5 1843.25,-66.5 1843.25,-97"/>
<text text-anchor="start" x="1737" y="-83.5" font-family="Helvetica,sans-Serif" font-size="10.00">/github/workspace/LIB</text>
<text text-anchor="middle" x="1786.12" y="-72.25" font-family="Helvetica,sans-Serif" font-size="10.00">/LIBFT/ft_printf.c</text>
</a>
</g>
</g>
<!-- Node1&#45;&gt;Node2 -->
<g id="edge1_Node000001_Node000002" class="edge">
<title>Node1&#45;&gt;Node2</title>
<g id="a_edge1_Node000001_Node000002"><a xlink:title=" ">
<path fill="none" stroke="#63b8ff" d="M2245.4,-142.03C2154.89,-134.64 1990.94,-119.47 1852.12,-97 1849.35,-96.55 1846.51,-96.06 1843.65,-95.54"/>
<polygon fill="#63b8ff" stroke="#63b8ff" points="2244.85,-145.5 2255.1,-142.81 2245.41,-138.52 2244.85,-145.5"/>
</a>
</g>
</g>
<!-- Node3 -->
<g id="Node000003" class="node">
<title>Node3</title>
<g id="a_Node000003"><a xlink:href="ft__printf__c_8c.html" target="_top" xlink:title=" ">
<polygon fill="white" stroke="#666666" points="1975.25,-97 1861,-97 1861,-66.5 1975.25,-66.5 1975.25,-97"/>
<text text-anchor="start" x="1869" y="-83.5" font-family="Helvetica,sans-Serif" font-size="10.00">/github/workspace/LIB</text>
<text text-anchor="middle" x="1918.12" y="-72.25" font-family="Helvetica,sans-Serif" font-size="10.00">/LIBFT/ft_printf_c.c</text>
</a>
</g>
</g>
<!-- Node1&#45;&gt;Node3 -->
<g id="edge2_Node000001_Node000003" class="edge">
<title>Node1&#45;&gt;Node3</title>
<g id="a_edge2_Node000001_Node000003"><a xlink:title=" ">
<path fill="none" stroke="#63b8ff" d="M2245.49,-138.05C2178.6,-128.8 2074.1,-113.55 1984.12,-97 1981.36,-96.49 1978.53,-95.95 1975.68,-95.39"/>
<polygon fill="#63b8ff" stroke="#63b8ff" points="2244.83,-141.5 2255.22,-139.39 2245.79,-134.56 2244.83,-141.5"/>
</a>
</g>
</g>
<!-- Node4 -->
<g id="Node000004" class="node">
<title>Node4</title>
<g id="a_Node000004"><a xlink:href="ft__printf__di_8c.html" target="_top" xlink:title=" ">
<polygon fill="white" stroke="#666666" points="2107.25,-97 1993,-97 1993,-66.5 2107.25,-66.5 2107.25,-97"/>
<text text-anchor="start" x="2001" y="-83.5" font-family="Helvetica,sans-Serif" font-size="10.00">/github/workspace/LIB</text>
<text text-anchor="middle" x="2050.12" y="-72.25" font-family="Helvetica,sans-Serif" font-size="10.00">/LIBFT/ft_printf_di.c</text>
</a>
</g>
</g>
<!-- Node1&#45;&gt;Node4 -->
<g id="edge3_Node000001_Node000004" class="edge">
<title>Node1&#45;&gt;Node4</title>
<g id="a_edge3_Node000001_Node000004"><a xlink:title=" ">
<path fill="none" stroke="#63b8ff" d="M2245.34,-130.44C2202.53,-119.99 2148.11,-106.69 2107.61,-96.8"/>
<polygon fill="#63b8ff" stroke="#63b8ff" points="2244.5,-133.84 2255.05,-132.82 2246.16,-127.04 2244.5,-133.84"/>
</a>
</g>
</g>
<!-- Node5 -->
<g id="Node000005" class="node">
<title>Node5</title>
<g id="a_Node000005"><a xlink:href="ft__printf__p_8c.html" target="_top" xlink:title=" ">
<polygon fill="white" stroke="#666666" points="2239.25,-97 2125,-97 2125,-66.5 2239.25,-66.5 2239.25,-97"/>
<text text-anchor="start" x="2133" y="-83.5" font-family="Helvetica,sans-Serif" font-size="10.00">/github/workspace/LIB</text>
<text text-anchor="middle" x="2182.12" y="-72.25" font-family="Helvetica,sans-Serif" font-size="10.00">/LIBFT/ft_printf_p.c</text>
</a>
</g>
</g>
<!-- Node1&#45;&gt;Node5 -->
<g id="edge4_Node000001_Node000005" class="edge">
<title>Node1&#45;&gt;Node5</title>
<g id="a_edge4_Node000001_Node000005"><a xlink:title=" ">
<path fill="none" stroke="#63b8ff" d="M2273.83,-127.56C2253.9,-117.82 2230.25,-106.26 2211.96,-97.33"/>
<polygon fill="#63b8ff" stroke="#63b8ff" points="2272.29,-130.7 2282.81,-131.95 2275.36,-124.41 2272.29,-130.7"/>
</a>
</g>
</g>
<!-- Node6 -->
<g id="Node000006" class="node">
<title>Node6</title>
<g id="a_Node000006"><a xlink:href="ft__printf__s_8c.html" target="_top" xlink:title=" ">
<polygon fill="white" stroke="#666666" points="2371.25,-97 2257,-97 2257,-66.5 2371.25,-66.5 2371.25,-97"/>
<text text-anchor="start" x="2265" y="-83.5" font-family="Helvetica,sans-Serif" font-size="10.00">/github/workspace/LIB</text>
<text text-anchor="middle" x="2314.12" y="-72.25" font-family="Helvetica,sans-Serif" font-size="10.00">/LIBFT/ft_printf_s.c</text>
</a>
</g>
</g>
<!-- Node1&#45;&gt;Node6 -->
<g id="edge5_Node000001_Node000006" class="edge">
<title>Node1&#45;&gt;Node6</title>
<g id="a_edge5_Node000001_Node000006"><a xlink:title=" ">
<path fill="none" stroke="#63b8ff" d="M2314.12,-121.31C2314.12,-113.14 2314.12,-104.41 2314.12,-97.33"/>
<polygon fill="#63b8ff" stroke="#63b8ff" points="2310.63,-121.1 2314.13,-131.1 2317.63,-121.1 2310.63,-121.1"/>
</a>
</g>
</g>
<!-- Node7 -->
<g id="Node000007" class="node">
<title>Node7</title>
<g id="a_Node000007"><a xlink:href="ft__printf__u_8c.html" target="_top" xlink:title=" ">
<polygon fill="white" stroke="#666666" points="2503.25,-97 2389,-97 2389,-66.5 2503.25,-66.5 2503.25,-97"/>
<text text-anchor="start" x="2397" y="-83.5" font-family="Helvetica,sans-Serif" font-size="10.00">/github/workspace/LIB</text>
<text text-anchor="middle" x="2446.12" y="-72.25" font-family="Helvetica,sans-Serif" font-size="10.00">/LIBFT/ft_printf_u.c</text>
</a>
</g>
</g>
<!-- Node1&#45;&gt;Node7 -->
<g id="edge6_Node000001_Node000007" class="edge">
<title>Node1&#45;&gt;Node7</title>
<g id="a_edge6_Node000001_Node000007"><a xlink:title=" ">
<path fill="none" stroke="#63b8ff" d="M2354.42,-127.56C2374.35,-117.82 2398,-106.26 2416.29,-97.33"/>
<polygon fill="#63b8ff" stroke="#63b8ff" points="2352.89,-124.41 2345.44,-131.95 2355.96,-130.7 2352.89,-124.41"/>
</a>
</g>
</g>
<!-- Node8 -->
<g id="Node000008" class="node">
<title>Node8</title>
<g id="a_Node000008"><a xlink:href="ft__printf__xx_8c.html" target="_top" xlink:title=" ">
<polygon fill="white" stroke="#666666" points="2635.25,-97 2521,-97 2521,-66.5 2635.25,-66.5 2635.25,-97"/>
<text text-anchor="start" x="2529" y="-83.5" font-family="Helvetica,sans-Serif" font-size="10.00">/github/workspace/LIB</text>
<text text-anchor="middle" x="2578.12" y="-72.25" font-family="Helvetica,sans-Serif" font-size="10.00">/LIBFT/ft_printf_xx.c</text>
</a>
</g>
</g>
<!-- Node1&#45;&gt;Node8 -->
<g id="edge7_Node000001_Node000008" class="edge">
<title>Node1&#45;&gt;Node8</title>
<g id="a_edge7_Node000001_Node000008"><a xlink:title=" ">
<path fill="none" stroke="#63b8ff" d="M2382.91,-130.44C2425.72,-119.99 2480.14,-106.69 2520.64,-96.8"/>
<polygon fill="#63b8ff" stroke="#63b8ff" points="2382.09,-127.04 2373.2,-132.82 2383.75,-133.84 2382.09,-127.04"/>
</a>
</g>
</g>
<!-- Node9 -->
<g id="Node000009" class="node">
<title>Node9</title>
<g id="a_Node000009"><a xlink:href="libft_8h.html" target="_top" xlink:title=" ">
<polygon fill="#fff0f0" stroke="red" points="2767.25,-97 2653,-97 2653,-66.5 2767.25,-66.5 2767.25,-97"/>
<text text-anchor="start" x="2661" y="-83.5" font-family="Helvetica,sans-Serif" font-size="10.00">/github/workspace/LIB</text>
<text text-anchor="middle" x="2710.12" y="-72.25" font-family="Helvetica,sans-Serif" font-size="10.00">/LIBFT/libft.h</text>
</a>
</g>
</g>
<!-- Node1&#45;&gt;Node9 -->
<g id="edge8_Node000001_Node000009" class="edge">
<title>Node1&#45;&gt;Node9</title>
<g id="a_edge8_Node000001_Node000009"><a xlink:title=" ">
<path fill="none" stroke="#63b8ff" d="M2382.8,-137.06C2447.93,-127.73 2548.29,-112.97 2635.12,-97 2640.77,-95.96 2646.68,-94.8 2652.6,-93.6"/>
<polygon fill="#63b8ff" stroke="#63b8ff" points="2382.36,-133.59 2372.96,-138.47 2383.35,-140.52 2382.36,-133.59"/>
</a>
</g>
</g>
<!-- Node9&#45;&gt;Node1 -->
<g id="edge32_Node000009_Node000001" class="edge">
<title>Node9&#45;&gt;Node1</title>
<g id="a_edge32_Node000009_Node000001"><a xlink:title=" ">
<path fill="none" stroke="#63b8ff" d="M2641.28,-99.16C2545.8,-116.36 2436.78,-131.92 2371.71,-140.43"/>
<polygon fill="#63b8ff" stroke="#63b8ff" points="2641.85,-102.61 2651.06,-97.38 2640.6,-95.72 2641.85,-102.61"/>
</a>
</g>
</g>
<!-- Node10 -->
<g id="Node000010" class="node">
<title>Node10</title>
<g id="a_Node000010"><a xlink:href="ft__atoi_8c.html" target="_top" xlink:title=" ">
<polygon fill="white" stroke="#666666" points="114.25,-30.5 0,-30.5 0,0 114.25,0 114.25,-30.5"/>
<text text-anchor="start" x="8" y="-17" font-family="Helvetica,sans-Serif" font-size="10.00">/github/workspace/LIB</text>
<text text-anchor="middle" x="57.12" y="-5.75" font-family="Helvetica,sans-Serif" font-size="10.00">/LIBFT/ft_atoi.c</text>
</a>
</g>
</g>
<!-- Node9&#45;&gt;Node10 -->
<g id="edge9_Node000009_Node000010" class="edge">
<title>Node9&#45;&gt;Node10</title>
<g id="a_edge9_Node000009_Node000010"><a xlink:title=" ">
<path fill="none" stroke="#63b8ff" d="M2641.36,-66.38C2068.93,-4.26 676.13,-93.52 123.12,-30.5 120.33,-30.18 117.48,-29.8 114.61,-29.36"/>
<polygon fill="#63b8ff" stroke="#63b8ff" points="2640.81,-69.84 2651.14,-67.47 2641.59,-62.88 2640.81,-69.84"/>
</a>
</g>
</g>
<!-- Node11 -->
<g id="Node000011" class="node">
<title>Node11</title>
<g id="a_Node000011"><a xlink:href="LIBFT_2ft__bzero_8c.html" target="_top" xlink:title=" ">
<polygon fill="white" stroke="#666666" points="246.25,-30.5 132,-30.5 132,0 246.25,0 246.25,-30.5"/>
<text text-anchor="start" x="140" y="-17" font-family="Helvetica,sans-Serif" font-size="10.00">/github/workspace/LIB</text>
<text text-anchor="middle" x="189.12" y="-5.75" font-family="Helvetica,sans-Serif" font-size="10.00">/LIBFT/ft_bzero.c</text>
</a>
</g>
</g>
<!-- Node9&#45;&gt;Node11 -->
<g id="edge10_Node000009_Node000011" class="edge">
<title>Node9&#45;&gt;Node11</title>
<g id="a_edge10_Node000009_Node000011"><a xlink:title=" ">
<path fill="none" stroke="#63b8ff" d="M2641.54,-66.4C2098.41,-7.33 779.03,-90.41 255.12,-30.5 252.33,-30.18 249.48,-29.8 246.61,-29.36"/>
<polygon fill="#63b8ff" stroke="#63b8ff" points="2640.81,-69.84 2651.14,-67.47 2641.59,-62.88 2640.81,-69.84"/>
</a>
</g>
</g>
<!-- Node12 -->
<g id="Node000012" class="node">
<title>Node12</title>
<g id="a_Node000012"><a xlink:href="ft__calloc_8c.html" target="_top" xlink:title=" ">
<polygon fill="white" stroke="#666666" points="378.25,-30.5 264,-30.5 264,0 378.25,0 378.25,-30.5"/>
<text text-anchor="start" x="272" y="-17" font-family="Helvetica,sans-Serif" font-size="10.00">/github/workspace/LIB</text>
<text text-anchor="middle" x="321.12" y="-5.75" font-family="Helvetica,sans-Serif" font-size="10.00">/LIBFT/ft_calloc.c</text>
</a>
</g>
</g>
<!-- Node9&#45;&gt;Node12 -->
<g id="edge11_Node000009_Node000012" class="edge">
<title>Node9&#45;&gt;Node12</title>
<g id="a_edge11_Node000009_Node000012"><a xlink:title=" ">
<path fill="none" stroke="#63b8ff" d="M2641.39,-66.38C2127.36,-10.43 881.82,-87.29 387.12,-30.5 384.33,-30.18 381.48,-29.79 378.61,-29.36"/>
<polygon fill="#63b8ff" stroke="#63b8ff" points="2640.81,-69.84 2651.14,-67.47 2641.59,-62.88 2640.81,-69.84"/>
</a>
</g>
</g>
<!-- Node13 -->
<g id="Node000013" class="node">
<title>Node13</title>
<g id="a_Node000013"><a xlink:href="LIBFT_2ft__isalnum_8c.html" target="_top" xlink:title=" ">
<polygon fill="white" stroke="#666666" points="510.25,-30.5 396,-30.5 396,0 510.25,0 510.25,-30.5"/>
<text text-anchor="start" x="404" y="-17" font-family="Helvetica,sans-Serif" font-size="10.00">/github/workspace/LIB</text>
<text text-anchor="middle" x="453.12" y="-5.75" font-family="Helvetica,sans-Serif" font-size="10.00">/LIBFT/ft_isalnum.c</text>
</a>
</g>
</g>
<!-- Node9&#45;&gt;Node13 -->
<g id="edge12_Node000009_Node000013" class="edge">
<title>Node9&#45;&gt;Node13</title>
<g id="a_edge12_Node000009_Node000013"><a xlink:title=" ">
<path fill="none" stroke="#63b8ff" d="M2641.32,-66.37C2156.45,-13.52 984.64,-84.17 519.12,-30.5 516.33,-30.18 513.48,-29.79 510.61,-29.35"/>
<polygon fill="#63b8ff" stroke="#63b8ff" points="2640.81,-69.84 2651.14,-67.48 2641.59,-62.88 2640.81,-69.84"/>
</a>
</g>
</g>
<!-- Node14 -->
<g id="Node000014" class="node">
<title>Node14</title>
<g id="a_Node000014"><a xlink:href="LIBFT_2ft__isalpha_8c.html" target="_top" xlink:title=" ">
<polygon fill="white" stroke="#666666" points="642.25,-30.5 528,-30.5 528,0 642.25,0 642.25,-30.5"/>
<text text-anchor="start" x="536" y="-17" font-family="Helvetica,sans-Serif" font-size="10.00">/github/workspace/LIB</text>
<text text-anchor="middle" x="585.12" y="-5.75" font-family="Helvetica,sans-Serif" font-size="10.00">/LIBFT/ft_isalpha.c</text>
</a>
</g>
</g>
<!-- Node9&#45;&gt;Node14 -->
<g id="edge13_Node000009_Node000014" class="edge">
<title>Node9&#45;&gt;Node14</title>
<g id="a_edge13_Node000009_Node000014"><a xlink:title=" ">
<path fill="none" stroke="#63b8ff" d="M2641.29,-66.34C1762.09,34.04 1527.4,-132.03 651.12,-30.5 648.33,-30.18 645.48,-29.79 642.61,-29.35"/>
<polygon fill="#63b8ff" stroke="#63b8ff" points="2640.8,-69.81 2651.14,-67.48 2641.6,-62.86 2640.8,-69.81"/>
</a>
</g>
</g>
<!-- Node15 -->
<g id="Node000015" class="node">
<title>Node15</title>
<g id="a_Node000015"><a xlink:href="ft__isascii_8c.html" target="_top" xlink:title=" ">
<polygon fill="white" stroke="#666666" points="774.25,-30.5 660,-30.5 660,0 774.25,0 774.25,-30.5"/>
<text text-anchor="start" x="668" y="-17" font-family="Helvetica,sans-Serif" font-size="10.00">/github/workspace/LIB</text>
<text text-anchor="middle" x="717.12" y="-5.75" font-family="Helvetica,sans-Serif" font-size="10.00">/LIBFT/ft_isascii.c</text>
</a>
</g>
</g>
<!-- Node9&#45;&gt;Node15 -->
<g id="edge14_Node000009_Node000015" class="edge">
<title>Node9&#45;&gt;Node15</title>
<g id="a_edge14_Node000009_Node000015"><a xlink:title=" ">
<path fill="none" stroke="#63b8ff" d="M2641.43,-66.36C1820.44,27.84 1601.12,-125.81 783.12,-30.5 780.33,-30.17 777.48,-29.78 774.61,-29.35"/>
<polygon fill="#63b8ff" stroke="#63b8ff" points="2640.8,-69.81 2651.14,-67.48 2641.61,-62.85 2640.8,-69.81"/>
</a>
</g>
</g>
<!-- Node16 -->
<g id="Node000016" class="node">
<title>Node16</title>
<g id="a_Node000016"><a xlink:href="LIBFT_2ft__isdigit_8c.html" target="_top" xlink:title=" ">
<polygon fill="white" stroke="#666666" points="906.25,-30.5 792,-30.5 792,0 906.25,0 906.25,-30.5"/>
<text text-anchor="start" x="800" y="-17" font-family="Helvetica,sans-Serif" font-size="10.00">/github/workspace/LIB</text>
<text text-anchor="middle" x="849.12" y="-5.75" font-family="Helvetica,sans-Serif" font-size="10.00">/LIBFT/ft_isdigit.c</text>
</a>
</g>
</g>
<!-- Node9&#45;&gt;Node16 -->
<g id="edge15_Node000009_Node000016" class="edge">
<title>Node9&#45;&gt;Node16</title>
<g id="a_edge15_Node000009_Node000016"><a xlink:title=" ">
<path fill="none" stroke="#63b8ff" d="M2641.37,-66.35C1878.76,21.63 1674.78,-119.58 915.12,-30.5 912.33,-30.17 909.48,-29.78 906.61,-29.34"/>
<polygon fill="#63b8ff" stroke="#63b8ff" points="2640.8,-69.8 2651.14,-67.48 2641.61,-62.85 2640.8,-69.8"/>
</a>
</g>
</g>
<!-- Node17 -->
<g id="Node000017" class="node">
<title>Node17</title>
<g id="a_Node000017"><a xlink:href="ft__isprint_8c.html" target="_top" xlink:title=" ">
<polygon fill="white" stroke="#666666" points="1038.25,-30.5 924,-30.5 924,0 1038.25,0 1038.25,-30.5"/>
<text text-anchor="start" x="932" y="-17" font-family="Helvetica,sans-Serif" font-size="10.00">/github/workspace/LIB</text>
<text text-anchor="middle" x="981.12" y="-5.75" font-family="Helvetica,sans-Serif" font-size="10.00">/LIBFT/ft_isprint.c</text>
</a>
</g>
</g>
<!-- Node9&#45;&gt;Node17 -->
<g id="edge16_Node000009_Node000017" class="edge">
<title>Node9&#45;&gt;Node17</title>
<g id="a_edge16_Node000009_Node000017"><a xlink:title=" ">
<path fill="none" stroke="#63b8ff" d="M2641.45,-66.35C1937.09,15.43 1748.48,-113.36 1047.12,-30.5 1044.33,-30.17 1041.48,-29.78 1038.61,-29.33"/>
<polygon fill="#63b8ff" stroke="#63b8ff" points="2640.8,-69.8 2651.14,-67.49 2641.61,-62.85 2640.8,-69.8"/>
</a>
</g>
</g>
<!-- Node18 -->
<g id="Node000018" class="node">
<title>Node18</title>
<g id="a_Node000018"><a xlink:href="ft__itoa_8c.html" target="_top" xlink:title=" ">
<polygon fill="white" stroke="#666666" points="1170.25,-30.5 1056,-30.5 1056,0 1170.25,0 1170.25,-30.5"/>
<text text-anchor="start" x="1064" y="-17" font-family="Helvetica,sans-Serif" font-size="10.00">/github/workspace/LIB</text>
<text text-anchor="middle" x="1113.12" y="-5.75" font-family="Helvetica,sans-Serif" font-size="10.00">/LIBFT/ft_itoa.c</text>
</a>
</g>
</g>
<!-- Node9&#45;&gt;Node18 -->
<g id="edge17_Node000009_Node000018" class="edge">
<title>Node9&#45;&gt;Node18</title>
<g id="a_edge17_Node000009_Node000018"><a xlink:title=" ">
<path fill="none" stroke="#63b8ff" d="M2641.65,-66.37C1995.45,9.25 1822.23,-107.14 1179.12,-30.5 1176.33,-30.17 1173.48,-29.77 1170.61,-29.33"/>
<polygon fill="#63b8ff" stroke="#63b8ff" points="2640.79,-69.8 2651.14,-67.49 2641.62,-62.84 2640.79,-69.8"/>
</a>
</g>
</g>
<!-- Node19 -->
<g id="Node000019" class="node">
<title>Node19</title>
<g id="a_Node000019"><a xlink:href="ft__lstadd__back_8c.html" target="_top" xlink:title=" ">
<polygon fill="white" stroke="#666666" points="1309.62,-30.5 1188.62,-30.5 1188.62,0 1309.62,0 1309.62,-30.5"/>
<text text-anchor="start" x="1196.62" y="-17" font-family="Helvetica,sans-Serif" font-size="10.00">/github/workspace/LIB</text>
<text text-anchor="middle" x="1249.12" y="-5.75" font-family="Helvetica,sans-Serif" font-size="10.00">/LIBFT/ft_lstadd_back.c</text>
</a>
</g>
</g>
<!-- Node9&#45;&gt;Node19 -->
<g id="edge18_Node000009_Node000019" class="edge">
<title>Node9&#45;&gt;Node19</title>
<g id="a_edge18_Node000009_Node000019"><a xlink:title=" ">
<path fill="none" stroke="#63b8ff" d="M2641.38,-66.34C2056.82,2.72 1900.04,-97.95 1318.12,-30.5 1315.45,-30.19 1312.73,-29.83 1309.98,-29.43"/>
<polygon fill="#63b8ff" stroke="#63b8ff" points="2640.79,-69.79 2651.14,-67.5 2641.62,-62.84 2640.79,-69.79"/>
</a>
</g>
</g>
<!-- Node20 -->
<g id="Node000020" class="node">
<title>Node20</title>
<g id="a_Node000020"><a xlink:href="ft__lstadd__front_8c.html" target="_top" xlink:title=" ">
<polygon fill="white" stroke="#666666" points="1446.88,-30.5 1327.38,-30.5 1327.38,0 1446.88,0 1446.88,-30.5"/>
<text text-anchor="start" x="1335.38" y="-17" font-family="Helvetica,sans-Serif" font-size="10.00">/github/workspace/LIB</text>
<text text-anchor="middle" x="1387.12" y="-5.75" font-family="Helvetica,sans-Serif" font-size="10.00">/LIBFT/ft_lstadd_front.c</text>
</a>
</g>
</g>
<!-- Node9&#45;&gt;Node20 -->
<g id="edge19_Node000009_Node000020" class="edge">
<title>Node9&#45;&gt;Node20</title>
<g id="a_edge19_Node000009_Node000020"><a xlink:title=" ">
<path fill="none" stroke="#63b8ff" d="M2641.38,-66.33C2117.79,-3.75 1977.04,-91.71 1456.12,-30.5 1453.21,-30.16 1450.23,-29.75 1447.24,-29.3"/>
<polygon fill="#63b8ff" stroke="#63b8ff" points="2640.79,-69.78 2651.13,-67.51 2641.63,-62.84 2640.79,-69.78"/>
</a>
</g>
</g>
<!-- Node21 -->
<g id="Node000021" class="node">
<title>Node21</title>
<g id="a_Node000021"><a xlink:href="ft__lstclear_8c.html" target="_top" xlink:title=" ">
<polygon fill="white" stroke="#666666" points="1579.25,-30.5 1465,-30.5 1465,0 1579.25,0 1579.25,-30.5"/>
<text text-anchor="start" x="1473" y="-17" font-family="Helvetica,sans-Serif" font-size="10.00">/github/workspace/LIB</text>
<text text-anchor="middle" x="1522.12" y="-5.75" font-family="Helvetica,sans-Serif" font-size="10.00">/LIBFT/ft_lstclear.c</text>
</a>
</g>
</g>
<!-- Node9&#45;&gt;Node21 -->
<g id="edge20_Node000009_Node000021" class="edge">
<title>Node9&#45;&gt;Node21</title>
<g id="a_edge20_Node000009_Node000021"><a xlink:title=" ">
<path fill="none" stroke="#63b8ff" d="M2641.23,-66.31C2176.07,-9.99 2050.41,-87.82 1588.12,-30.5 1585.33,-30.15 1582.48,-29.75 1579.61,-29.29"/>
<polygon fill="#63b8ff" stroke="#63b8ff" points="2640.78,-69.78 2651.13,-67.52 2641.63,-62.83 2640.78,-69.78"/>
</a>
</g>
</g>
<!-- Node22 -->
<g id="Node000022" class="node">
<title>Node22</title>
<g id="a_Node000022"><a xlink:href="ft__lstdelone_8c.html" target="_top" xlink:title=" ">
<polygon fill="white" stroke="#666666" points="1711.25,-30.5 1597,-30.5 1597,0 1711.25,0 1711.25,-30.5"/>
<text text-anchor="start" x="1605" y="-17" font-family="Helvetica,sans-Serif" font-size="10.00">/github/workspace/LIB</text>
<text text-anchor="middle" x="1654.12" y="-5.75" font-family="Helvetica,sans-Serif" font-size="10.00">/LIBFT/ft_lstdelone.c</text>
</a>
</g>
</g>
<!-- Node9&#45;&gt;Node22 -->
<g id="edge21_Node000009_Node000022" class="edge">
<title>Node9&#45;&gt;Node22</title>
<g id="a_edge21_Node000009_Node000022"><a xlink:title=" ">
<path fill="none" stroke="#63b8ff" d="M2641.43,-66.32C2234.41,-16.14 2124.17,-81.6 1720.12,-30.5 1717.33,-30.15 1714.49,-29.73 1711.62,-29.28"/>
<polygon fill="#63b8ff" stroke="#63b8ff" points="2640.77,-69.77 2651.13,-67.53 2641.64,-62.82 2640.77,-69.77"/>
</a>
</g>
</g>
<!-- Node23 -->
<g id="Node000023" class="node">
<title>Node23</title>
<g id="a_Node000023"><a xlink:href="ft__lstiter_8c.html" target="_top" xlink:title=" ">
<polygon fill="white" stroke="#666666" points="1843.25,-30.5 1729,-30.5 1729,0 1843.25,0 1843.25,-30.5"/>
<text text-anchor="start" x="1737" y="-17" font-family="Helvetica,sans-Serif" font-size="10.00">/github/workspace/LIB</text>
<text text-anchor="middle" x="1786.12" y="-5.75" font-family="Helvetica,sans-Serif" font-size="10.00">/LIBFT/ft_lstiter.c</text>
</a>
</g>
</g>
<!-- Node9&#45;&gt;Node23 -->
<g id="edge22_Node000009_Node000023" class="edge">
<title>Node9&#45;&gt;Node23</title>
<g id="a_edge22_Node000009_Node000023"><a xlink:title=" ">
<path fill="none" stroke="#63b8ff" d="M2641.44,-66.31C2292.71,-22.3 2197.89,-75.36 1852.12,-30.5 1849.34,-30.14 1846.49,-29.72 1843.62,-29.26"/>
<polygon fill="#63b8ff" stroke="#63b8ff" points="2640.77,-69.75 2651.13,-67.55 2641.66,-62.81 2640.77,-69.75"/>
</a>
</g>
</g>
<!-- Node24 -->
<g id="Node000024" class="node">
<title>Node24</title>
<g id="a_Node000024"><a xlink:href="ft__lstlast_8c.html" target="_top" xlink:title=" ">
<polygon fill="white" stroke="#666666" points="1975.25,-30.5 1861,-30.5 1861,0 1975.25,0 1975.25,-30.5"/>
<text text-anchor="start" x="1869" y="-17" font-family="Helvetica,sans-Serif" font-size="10.00">/github/workspace/LIB</text>
<text text-anchor="middle" x="1918.12" y="-5.75" font-family="Helvetica,sans-Serif" font-size="10.00">/LIBFT/ft_lstlast.c</text>
</a>
</g>
</g>
<!-- Node9&#45;&gt;Node24 -->
<g id="edge23_Node000009_Node000024" class="edge">
<title>Node9&#45;&gt;Node24</title>
<g id="a_edge23_Node000009_Node000024"><a xlink:title=" ">
<path fill="none" stroke="#63b8ff" d="M2641.32,-66.28C2350.97,-28.44 2271.58,-69.13 1984.12,-30.5 1981.34,-30.13 1978.49,-29.7 1975.62,-29.22"/>
<polygon fill="#63b8ff" stroke="#63b8ff" points="2640.75,-69.73 2651.13,-67.58 2641.67,-62.79 2640.75,-69.73"/>
</a>
</g>
</g>
<!-- Node25 -->
<g id="Node000025" class="node">
<title>Node25</title>
<g id="a_Node000025"><a xlink:href="ft__lstmap_8c.html" target="_top" xlink:title=" ">
<polygon fill="white" stroke="#666666" points="2107.25,-30.5 1993,-30.5 1993,0 2107.25,0 2107.25,-30.5"/>
<text text-anchor="start" x="2001" y="-17" font-family="Helvetica,sans-Serif" font-size="10.00">/github/workspace/LIB</text>
<text text-anchor="middle" x="2050.12" y="-5.75" font-family="Helvetica,sans-Serif" font-size="10.00">/LIBFT/ft_lstmap.c</text>
</a>
</g>
</g>
<!-- Node9&#45;&gt;Node25 -->
<g id="edge24_Node000009_Node000025" class="edge">
<title>Node9&#45;&gt;Node25</title>
<g id="a_edge24_Node000009_Node000025"><a xlink:title=" ">
<path fill="none" stroke="#63b8ff" d="M2641.43,-66.26C2409.24,-34.51 2345.38,-62.89 2116.12,-30.5 2113.34,-30.11 2110.5,-29.66 2107.63,-29.18"/>
<polygon fill="#63b8ff" stroke="#63b8ff" points="2640.73,-69.7 2651.12,-67.61 2641.7,-62.77 2640.73,-69.7"/>
</a>
</g>
</g>
<!-- Node26 -->
<g id="Node000026" class="node">
<title>Node26</title>
<g id="a_Node000026"><a xlink:href="ft__lstnew_8c.html" target="_top" xlink:title=" ">
<polygon fill="white" stroke="#666666" points="2239.25,-30.5 2125,-30.5 2125,0 2239.25,0 2239.25,-30.5"/>
<text text-anchor="start" x="2133" y="-17" font-family="Helvetica,sans-Serif" font-size="10.00">/github/workspace/LIB</text>
<text text-anchor="middle" x="2182.12" y="-5.75" font-family="Helvetica,sans-Serif" font-size="10.00">/LIBFT/ft_lstnew.c</text>
</a>
</g>
</g>
<!-- Node9&#45;&gt;Node26 -->
<g id="edge25_Node000009_Node000026" class="edge">
<title>Node9&#45;&gt;Node26</title>
<g id="a_edge25_Node000009_Node000026"><a xlink:title=" ">
<path fill="none" stroke="#63b8ff" d="M2641.25,-66.19C2467.41,-40.51 2419.15,-56.64 2248.12,-30.5 2245.34,-30.07 2242.5,-29.6 2239.64,-29.1"/>
<polygon fill="#63b8ff" stroke="#63b8ff" points="2640.7,-69.65 2651.11,-67.67 2641.74,-62.72 2640.7,-69.65"/>
</a>
</g>
</g>
<!-- Node27 -->
<g id="Node000027" class="node">
<title>Node27</title>
<g id="a_Node000027"><a xlink:href="ft__lstsize_8c.html" target="_top" xlink:title=" ">
<polygon fill="white" stroke="#666666" points="2371.25,-30.5 2257,-30.5 2257,0 2371.25,0 2371.25,-30.5"/>
<text text-anchor="start" x="2265" y="-17" font-family="Helvetica,sans-Serif" font-size="10.00">/github/workspace/LIB</text>
<text text-anchor="middle" x="2314.12" y="-5.75" font-family="Helvetica,sans-Serif" font-size="10.00">/LIBFT/ft_lstsize.c</text>
</a>
</g>
</g>
<!-- Node9&#45;&gt;Node27 -->
<g id="edge26_Node000009_Node000027" class="edge">
<title>Node9&#45;&gt;Node27</title>
<g id="a_edge26_Node000009_Node000027"><a xlink:title=" ">
<path fill="none" stroke="#63b8ff" d="M2641.48,-66.12C2525.56,-46.27 2493.22,-50.39 2380.12,-30.5 2377.35,-30.01 2374.52,-29.49 2371.67,-28.95"/>
<polygon fill="#63b8ff" stroke="#63b8ff" points="2640.64,-69.53 2651.09,-67.79 2641.84,-62.63 2640.64,-69.53"/>
</a>
</g>
</g>
<!-- Node28 -->
<g id="Node000028" class="node">
<title>Node28</title>
<g id="a_Node000028"><a xlink:href="ft__memchr_8c.html" target="_top" xlink:title=" ">
<polygon fill="white" stroke="#666666" points="2503.25,-30.5 2389,-30.5 2389,0 2503.25,0 2503.25,-30.5"/>
<text text-anchor="start" x="2397" y="-17" font-family="Helvetica,sans-Serif" font-size="10.00">/github/workspace/LIB</text>
<text text-anchor="middle" x="2446.12" y="-5.75" font-family="Helvetica,sans-Serif" font-size="10.00">/LIBFT/ft_memchr.c</text>
</a>
</g>
</g>
<!-- Node9&#45;&gt;Node28 -->
<g id="edge27_Node000009_Node000028" class="edge">
<title>Node9&#45;&gt;Node28</title>
<g id="a_edge27_Node000009_Node000028"><a xlink:title=" ">
<path fill="none" stroke="#63b8ff" d="M2641.34,-63.94C2598.53,-53.49 2544.11,-40.19 2503.61,-30.3"/>
<polygon fill="#63b8ff" stroke="#63b8ff" points="2640.5,-67.34 2651.05,-66.32 2642.16,-60.54 2640.5,-67.34"/>
</a>
</g>
</g>
<!-- Node29 -->
<g id="Node000029" class="node">
<title>Node29</title>
<g id="a_Node000029"><a xlink:href="ft__memcmp_8c.html" target="_top" xlink:title=" ">
<polygon fill="white" stroke="#666666" points="2635.25,-30.5 2521,-30.5 2521,0 2635.25,0 2635.25,-30.5"/>
<text text-anchor="start" x="2529" y="-17" font-family="Helvetica,sans-Serif" font-size="10.00">/github/workspace/LIB</text>
<text text-anchor="middle" x="2578.12" y="-5.75" font-family="Helvetica,sans-Serif" font-size="10.00">/LIBFT/ft_memcmp.c</text>
</a>
</g>
</g>
<!-- Node9&#45;&gt;Node29 -->
<g id="edge28_Node000009_Node000029" class="edge">
<title>Node9&#45;&gt;Node29</title>
<g id="a_edge28_Node000009_Node000029"><a xlink:title=" ">
<path fill="none" stroke="#63b8ff" d="M2669.83,-61.06C2649.9,-51.32 2626.25,-39.76 2607.96,-30.83"/>
<polygon fill="#63b8ff" stroke="#63b8ff" points="2668.29,-64.2 2678.81,-65.45 2671.36,-57.91 2668.29,-64.2"/>
</a>
</g>
</g>
<!-- Node30 -->
<g id="Node000030" class="node">
<title>Node30</title>
<g id="a_Node000030"><a xlink:href="ft__memcpy_8c.html" target="_top" xlink:title=" ">
<polygon fill="white" stroke="#666666" points="2767.25,-30.5 2653,-30.5 2653,0 2767.25,0 2767.25,-30.5"/>
<text text-anchor="start" x="2661" y="-17" font-family="Helvetica,sans-Serif" font-size="10.00">/github/workspace/LIB</text>
<text text-anchor="middle" x="2710.12" y="-5.75" font-family="Helvetica,sans-Serif" font-size="10.00">/LIBFT/ft_memcpy.c</text>
</a>
</g>
</g>
<!-- Node9&#45;&gt;Node30 -->
<g id="edge29_Node000009_Node000030" class="edge">
<title>Node9&#45;&gt;Node30</title>
<g id="a_edge29_Node000009_Node000030"><a xlink:title=" ">
<path fill="none" stroke="#63b8ff" d="M2710.12,-54.81C2710.12,-46.64 2710.12,-37.91 2710.12,-30.83"/>
<polygon fill="#63b8ff" stroke="#63b8ff" points="2706.63,-54.6 2710.13,-64.6 2713.63,-54.6 2706.63,-54.6"/>
</a>
</g>
</g>
<!-- Node31 -->
<g id="Node000031" class="node">
<title>Node31</title>
<g id="a_Node000031"><a xlink:href="ft__memmove_8c.html" target="_top" xlink:title=" ">
<polygon fill="white" stroke="#666666" points="2899.25,-30.5 2785,-30.5 2785,0 2899.25,0 2899.25,-30.5"/>
<text text-anchor="start" x="2793" y="-17" font-family="Helvetica,sans-Serif" font-size="10.00">/github/workspace/LIB</text>
<text text-anchor="middle" x="2842.12" y="-5.75" font-family="Helvetica,sans-Serif" font-size="10.00">/LIBFT/ft_memmove.c</text>
</a>
</g>
</g>
<!-- Node9&#45;&gt;Node31 -->
<g id="edge30_Node000009_Node000031" class="edge">
<title>Node9&#45;&gt;Node31</title>
<g id="a_edge30_Node000009_Node000031"><a xlink:title=" ">
<path fill="none" stroke="#63b8ff" d="M2750.42,-61.06C2770.35,-51.32 2794,-39.76 2812.29,-30.83"/>
<polygon fill="#63b8ff" stroke="#63b8ff" points="2748.89,-57.91 2741.44,-65.45 2751.96,-64.2 2748.89,-57.91"/>
</a>
</g>
</g>
<!-- Node32 -->
<g id="Node000032" class="node">
<title>Node32</title>
<g id="a_Node000032"><a xlink:href="ft__memset_8c.html" target="_top" xlink:title=" ">
<polygon fill="white" stroke="#666666" points="3031.25,-30.5 2917,-30.5 2917,0 3031.25,0 3031.25,-30.5"/>
<text text-anchor="start" x="2925" y="-17" font-family="Helvetica,sans-Serif" font-size="10.00">/github/workspace/LIB</text>
<text text-anchor="middle" x="2974.12" y="-5.75" font-family="Helvetica,sans-Serif" font-size="10.00">/LIBFT/ft_memset.c</text>
</a>
</g>
</g>
<!-- Node9&#45;&gt;Node32 -->
<g id="edge31_Node000009_Node000032" class="edge">
<title>Node9&#45;&gt;Node32</title>
<g id="a_edge31_Node000009_Node000032"><a xlink:title=" ">
<path fill="none" stroke="#63b8ff" d="M2778.91,-63.94C2821.72,-53.49 2876.14,-40.19 2916.64,-30.3"/>
<polygon fill="#63b8ff" stroke="#63b8ff" points="2778.09,-60.54 2769.2,-66.32 2779.75,-67.34 2778.09,-60.54"/>
</a>
</g>
</g>
<!-- Node33 -->
<g id="Node000033" class="node">
<title>Node33</title>
<g id="a_Node000033"><a xlink:href="ft__putchar__fd_8c.html" target="_top" xlink:title=" ">
<polygon fill="white" stroke="#666666" points="3163.25,-30.5 3049,-30.5 3049,0 3163.25,0 3163.25,-30.5"/>
<text text-anchor="start" x="3057" y="-17" font-family="Helvetica,sans-Serif" font-size="10.00">/github/workspace/LIB</text>
<text text-anchor="middle" x="3106.12" y="-5.75" font-family="Helvetica,sans-Serif" font-size="10.00">/LIBFT/ft_putchar_fd.c</text>
</a>
</g>
</g>
<!-- Node9&#45;&gt;Node33 -->
<g id="edge33_Node000009_Node000033" class="edge">
<title>Node9&#45;&gt;Node33</title>
<g id="a_edge33_Node000009_Node000033"><a xlink:title=" ">
<path fill="none" stroke="#63b8ff" d="M2778.76,-71.55C2845.65,-62.3 2950.15,-47.05 3040.12,-30.5 3042.89,-29.99 3045.72,-29.45 3048.57,-28.89"/>
<polygon fill="#63b8ff" stroke="#63b8ff" points="2778.46,-68.06 2769.03,-72.89 2779.42,-75 2778.46,-68.06"/>
</a>
</g>
</g>
<!-- Node34 -->
<g id="Node000034" class="node">
<title>Node34</title>
<g id="a_Node000034"><a xlink:href="ft__putendl__fd_8c.html" target="_top" xlink:title=" ">
<polygon fill="white" stroke="#666666" points="3295.25,-30.5 3181,-30.5 3181,0 3295.25,0 3295.25,-30.5"/>
<text text-anchor="start" x="3189" y="-17" font-family="Helvetica,sans-Serif" font-size="10.00">/github/workspace/LIB</text>
<text text-anchor="middle" x="3238.12" y="-5.75" font-family="Helvetica,sans-Serif" font-size="10.00">/LIBFT/ft_putendl_fd.c</text>
</a>
</g>
</g>
<!-- Node9&#45;&gt;Node34 -->
<g id="edge34_Node000009_Node000034" class="edge">
<title>Node9&#45;&gt;Node34</title>
<g id="a_edge34_Node000009_Node000034"><a xlink:title=" ">
<path fill="none" stroke="#63b8ff" d="M2778.85,-75.53C2869.36,-68.14 3033.31,-52.97 3172.12,-30.5 3174.9,-30.05 3177.74,-29.56 3180.6,-29.04"/>
<polygon fill="#63b8ff" stroke="#63b8ff" points="2778.84,-72.02 2769.15,-76.31 2779.4,-79 2778.84,-72.02"/>
</a>
</g>
</g>
<!-- Node35 -->
<g id="Node000035" class="node">
<title>Node35</title>
<g id="a_Node000035"><a xlink:href="ft__putnbr__fd_8c.html" target="_top" xlink:title=" ">
<polygon fill="white" stroke="#666666" points="3427.25,-30.5 3313,-30.5 3313,0 3427.25,0 3427.25,-30.5"/>
<text text-anchor="start" x="3321" y="-17" font-family="Helvetica,sans-Serif" font-size="10.00">/github/workspace/LIB</text>
<text text-anchor="middle" x="3370.12" y="-5.75" font-family="Helvetica,sans-Serif" font-size="10.00">/LIBFT/ft_putnbr_fd.c</text>
</a>
</g>
</g>
<!-- Node9&#45;&gt;Node35 -->
<g id="edge35_Node000009_Node000035" class="edge">
<title>Node9&#45;&gt;Node35</title>
<g id="a_edge35_Node000009_Node000035"><a xlink:title=" ">
<path fill="none" stroke="#63b8ff" d="M2778.67,-77.81C2889.59,-72.42 3115.06,-58.79 3304.12,-30.5 3306.91,-30.08 3309.75,-29.62 3312.61,-29.12"/>
<polygon fill="#63b8ff" stroke="#63b8ff" points="2778.67,-74.31 2768.85,-78.28 2779,-81.3 2778.67,-74.31"/>
</a>
</g>
</g>
<!-- Node36 -->
<g id="Node000036" class="node">
<title>Node36</title>
<g id="a_Node000036"><a xlink:href="ft__putstr__fd_8c.html" target="_top" xlink:title=" ">
<polygon fill="white" stroke="#666666" points="3559.25,-30.5 3445,-30.5 3445,0 3559.25,0 3559.25,-30.5"/>
<text text-anchor="start" x="3453" y="-17" font-family="Helvetica,sans-Serif" font-size="10.00">/github/workspace/LIB</text>
<text text-anchor="middle" x="3502.12" y="-5.75" font-family="Helvetica,sans-Serif" font-size="10.00">/LIBFT/ft_putstr_fd.c</text>
</a>
</g>
</g>
<!-- Node9&#45;&gt;Node36 -->
<g id="edge36_Node000009_Node000036" class="edge">
<title>Node9&#45;&gt;Node36</title>
<g id="a_edge36_Node000009_Node000036"><a xlink:title=" ">
<path fill="none" stroke="#63b8ff" d="M2778.62,-79.28C2907.79,-75.79 3196,-64.55 3436.12,-30.5 3438.91,-30.1 3441.75,-29.66 3444.62,-29.17"/>
<polygon fill="#63b8ff" stroke="#63b8ff" points="2778.78,-75.78 2768.87,-79.54 2778.96,-82.77 2778.78,-75.78"/>
</a>
</g>
</g>
<!-- Node37 -->
<g id="Node000037" class="node">
<title>Node37</title>
<g id="a_Node000037"><a xlink:href="LIBFT_2ft__split_8c.html" target="_top" xlink:title=" ">
<polygon fill="white" stroke="#666666" points="3691.25,-30.5 3577,-30.5 3577,0 3691.25,0 3691.25,-30.5"/>
<text text-anchor="start" x="3585" y="-17" font-family="Helvetica,sans-Serif" font-size="10.00">/github/workspace/LIB</text>
<text text-anchor="middle" x="3634.12" y="-5.75" font-family="Helvetica,sans-Serif" font-size="10.00">/LIBFT/ft_split.c</text>
</a>
</g>
</g>
<!-- Node9&#45;&gt;Node37 -->
<g id="edge37_Node000009_Node000037" class="edge">
<title>Node9&#45;&gt;Node37</title>
<g id="a_edge37_Node000009_Node000037"><a xlink:title=" ">
<path fill="none" stroke="#63b8ff" d="M2779.07,-80.31C2925.21,-78.58 3276.63,-70.26 3568.12,-30.5 3570.91,-30.12 3573.76,-29.69 3576.62,-29.21"/>
<polygon fill="#63b8ff" stroke="#63b8ff" points="2779.13,-76.81 2769.17,-80.42 2779.21,-83.81 2779.13,-76.81"/>
</a>
</g>
</g>
<!-- Node38 -->
<g id="Node000038" class="node">
<title>Node38</title>
<g id="a_Node000038"><a xlink:href="ft__strchr_8c.html" target="_top" xlink:title=" ">
<polygon fill="white" stroke="#666666" points="3823.25,-30.5 3709,-30.5 3709,0 3823.25,0 3823.25,-30.5"/>
<text text-anchor="start" x="3717" y="-17" font-family="Helvetica,sans-Serif" font-size="10.00">/github/workspace/LIB</text>
<text text-anchor="middle" x="3766.12" y="-5.75" font-family="Helvetica,sans-Serif" font-size="10.00">/LIBFT/ft_strchr.c</text>
</a>
</g>
</g>
<!-- Node9&#45;&gt;Node38 -->
<g id="edge38_Node000009_Node000038" class="edge">
<title>Node9&#45;&gt;Node38</title>
<g id="a_edge38_Node000009_Node000038"><a xlink:title=" ">
<path fill="none" stroke="#63b8ff" d="M2778.79,-81.08C2940.25,-81.02 3356.29,-76.04 3700.12,-30.5 3702.91,-30.13 3705.76,-29.71 3708.63,-29.24"/>
<polygon fill="#63b8ff" stroke="#63b8ff" points="2779.13,-77.58 2769.13,-81.07 2779.13,-84.58 2779.13,-77.58"/>
</a>
</g>
</g>
<!-- Node39 -->
<g id="Node000039" class="node">
<title>Node39</title>
<g id="a_Node000039"><a xlink:href="ft__strdup_8c.html" target="_top" xlink:title=" ">
<polygon fill="white" stroke="#666666" points="3955.25,-30.5 3841,-30.5 3841,0 3955.25,0 3955.25,-30.5"/>
<text text-anchor="start" x="3849" y="-17" font-family="Helvetica,sans-Serif" font-size="10.00">/github/workspace/LIB</text>
<text text-anchor="middle" x="3898.12" y="-5.75" font-family="Helvetica,sans-Serif" font-size="10.00">/LIBFT/ft_strdup.c</text>
</a>
</g>
</g>
<!-- Node9&#45;&gt;Node39 -->
<g id="edge39_Node000009_Node000039" class="edge">
<title>Node9&#45;&gt;Node39</title>
<g id="a_edge39_Node000009_Node000039"><a xlink:title=" ">
<path fill="none" stroke="#63b8ff" d="M2778.61,-79.19C2989.41,-74.15 3626.7,-57.09 3832.12,-30.5 3834.92,-30.14 3837.76,-29.72 3840.63,-29.26"/>
<polygon fill="#63b8ff" stroke="#63b8ff" points="2778.84,-75.68 2768.92,-79.42 2779,-82.68 2778.84,-75.68"/>
</a>
</g>
</g>
<!-- Node40 -->
<g id="Node000040" class="node">
<title>Node40</title>
<g id="a_Node000040"><a xlink:href="ft__striteri_8c.html" target="_top" xlink:title=" ">
<polygon fill="white" stroke="#666666" points="4087.25,-30.5 3973,-30.5 3973,0 4087.25,0 4087.25,-30.5"/>
<text text-anchor="start" x="3981" y="-17" font-family="Helvetica,sans-Serif" font-size="10.00">/github/workspace/LIB</text>
<text text-anchor="middle" x="4030.12" y="-5.75" font-family="Helvetica,sans-Serif" font-size="10.00">/LIBFT/ft_striteri.c</text>
</a>
</g>
</g>
<!-- Node9&#45;&gt;Node40 -->
<g id="edge40_Node000009_Node000040" class="edge">
<title>Node9&#45;&gt;Node40</title>
<g id="a_edge40_Node000009_Node000040"><a xlink:title=" ">
<path fill="none" stroke="#63b8ff" d="M2778.79,-79.56C3005.96,-75.38 3731.89,-60 3964.12,-30.5 3966.92,-30.15 3969.76,-29.73 3972.63,-29.27"/>
<polygon fill="#63b8ff" stroke="#63b8ff" points="2778.85,-76.06 2768.91,-79.74 2778.97,-83.06 2778.85,-76.06"/>
</a>
</g>
</g>
<!-- Node41 -->
<g id="Node000041" class="node">
<title>Node41</title>
<g id="a_Node000041"><a xlink:href="ft__strjoin_8c.html" target="_top" xlink:title=" ">
<polygon fill="white" stroke="#666666" points="4219.25,-30.5 4105,-30.5 4105,0 4219.25,0 4219.25,-30.5"/>
<text text-anchor="start" x="4113" y="-17" font-family="Helvetica,sans-Serif" font-size="10.00">/github/workspace/LIB</text>
<text text-anchor="middle" x="4162.12" y="-5.75" font-family="Helvetica,sans-Serif" font-size="10.00">/LIBFT/ft_strjoin.c</text>
</a>
</g>
</g>
<!-- Node9&#45;&gt;Node41 -->
<g id="edge41_Node000009_Node000041" class="edge">
<title>Node9&#45;&gt;Node41</title>
<g id="a_edge41_Node000009_Node000041"><a xlink:title=" ">
<path fill="none" stroke="#63b8ff" d="M2778.95,-79.86C3021.67,-76.48 3836.96,-62.92 4096.12,-30.5 4098.92,-30.15 4101.76,-29.74 4104.63,-29.29"/>
<polygon fill="#63b8ff" stroke="#63b8ff" points="2778.96,-76.36 2769.01,-80 2779.06,-83.36 2778.96,-76.36"/>
</a>
</g>
</g>
<!-- Node42 -->
<g id="Node000042" class="node">
<title>Node42</title>
<g id="a_Node000042"><a xlink:href="ft__strlcat_8c.html" target="_top" xlink:title=" ">
<polygon fill="white" stroke="#666666" points="4351.25,-30.5 4237,-30.5 4237,0 4351.25,0 4351.25,-30.5"/>
<text text-anchor="start" x="4245" y="-17" font-family="Helvetica,sans-Serif" font-size="10.00">/github/workspace/LIB</text>
<text text-anchor="middle" x="4294.12" y="-5.75" font-family="Helvetica,sans-Serif" font-size="10.00">/LIBFT/ft_strlcat.c</text>
</a>
</g>
</g>
<!-- Node9&#45;&gt;Node42 -->
<g id="edge42_Node000009_Node000042" class="edge">
<title>Node9&#45;&gt;Node42</title>
<g id="a_edge42_Node000009_Node000042"><a xlink:title=" ">
<path fill="none" stroke="#63b8ff" d="M2778.97,-80.11C3036.34,-77.48 3941.88,-65.85 4228.12,-30.5 4230.92,-30.16 4233.77,-29.75 4236.64,-29.3"/>
<polygon fill="#63b8ff" stroke="#63b8ff" points="2779.04,-76.61 2769.08,-80.21 2779.11,-83.61 2779.04,-76.61"/>
</a>
</g>
</g>
<!-- Node43 -->
<g id="Node000043" class="node">
<title>Node43</title>
<g id="a_Node000043"><a xlink:href="ft__strlcpy_8c.html" target="_top" xlink:title=" ">
<polygon fill="white" stroke="#666666" points="4483.25,-30.5 4369,-30.5 4369,0 4483.25,0 4483.25,-30.5"/>
<text text-anchor="start" x="4377" y="-17" font-family="Helvetica,sans-Serif" font-size="10.00">/github/workspace/LIB</text>
<text text-anchor="middle" x="4426.12" y="-5.75" font-family="Helvetica,sans-Serif" font-size="10.00">/LIBFT/ft_strlcpy.c</text>
</a>
</g>
</g>
<!-- Node9&#45;&gt;Node43 -->
<g id="edge43_Node000009_Node000043" class="edge">
<title>Node9&#45;&gt;Node43</title>
<g id="a_edge43_Node000009_Node000043"><a xlink:title=" ">
<path fill="none" stroke="#63b8ff" d="M2778.57,-80.33C3049.4,-78.4 4046.55,-68.8 4360.12,-30.5 4362.92,-30.16 4365.77,-29.76 4368.64,-29.31"/>
<polygon fill="#63b8ff" stroke="#63b8ff" points="2778.84,-76.83 2768.87,-80.4 2778.89,-83.83 2778.84,-76.83"/>
</a>
</g>
</g>
<!-- Node44 -->
<g id="Node000044" class="node">
<title>Node44</title>
<g id="a_Node000044"><a xlink:href="LIBFT_2ft__strlen_8c.html" target="_top" xlink:title=" ">
<polygon fill="white" stroke="#666666" points="4615.25,-30.5 4501,-30.5 4501,0 4615.25,0 4615.25,-30.5"/>
<text text-anchor="start" x="4509" y="-17" font-family="Helvetica,sans-Serif" font-size="10.00">/github/workspace/LIB</text>
<text text-anchor="middle" x="4558.12" y="-5.75" font-family="Helvetica,sans-Serif" font-size="10.00">/LIBFT/ft_strlen.c</text>
</a>
</g>
</g>
<!-- Node9&#45;&gt;Node44 -->
<g id="edge44_Node000009_Node000044" class="edge">
<title>Node9&#45;&gt;Node44</title>
<g id="a_edge44_Node000009_Node000044"><a xlink:title=" ">
<path fill="none" stroke="#63b8ff" d="M2778.79,-80.51C3063.4,-79.24 4151.38,-71.73 4492.12,-30.5 4494.92,-30.16 4497.77,-29.76 4500.64,-29.32"/>
<polygon fill="#63b8ff" stroke="#63b8ff" points="2778.92,-77.01 2768.94,-80.55 2778.95,-84.01 2778.92,-77.01"/>
</a>
</g>
</g>
<!-- Node45 -->
<g id="Node000045" class="node">
<title>Node45</title>
<g id="a_Node000045"><a xlink:href="ft__strmapi_8c.html" target="_top" xlink:title=" ">
<polygon fill="white" stroke="#666666" points="4747.25,-30.5 4633,-30.5 4633,0 4747.25,0 4747.25,-30.5"/>
<text text-anchor="start" x="4641" y="-17" font-family="Helvetica,sans-Serif" font-size="10.00">/github/workspace/LIB</text>
<text text-anchor="middle" x="4690.12" y="-5.75" font-family="Helvetica,sans-Serif" font-size="10.00">/LIBFT/ft_strmapi.c</text>
</a>
</g>
</g>
<!-- Node9&#45;&gt;Node45 -->
<g id="edge45_Node000009_Node000045" class="edge">
<title>Node9&#45;&gt;Node45</title>
<g id="a_edge45_Node000009_Node000045"><a xlink:title=" ">
<path fill="none" stroke="#63b8ff" d="M2778.91,-80.66C3076.68,-80.02 4256.1,-74.67 4624.12,-30.5 4626.92,-30.16 4629.77,-29.77 4632.64,-29.32"/>
<polygon fill="#63b8ff" stroke="#63b8ff" points="2778.96,-77.16 2768.97,-80.68 2778.97,-84.16 2778.96,-77.16"/>
</a>
</g>
</g>
<!-- Node46 -->
<g id="Node000046" class="node">
<title>Node46</title>
<g id="a_Node000046"><a xlink:href="ft__strncmp_8c.html" target="_top" xlink:title=" ">
<polygon fill="white" stroke="#666666" points="4879.25,-30.5 4765,-30.5 4765,0 4879.25,0 4879.25,-30.5"/>
<text text-anchor="start" x="4773" y="-17" font-family="Helvetica,sans-Serif" font-size="10.00">/github/workspace/LIB</text>
<text text-anchor="middle" x="4822.12" y="-5.75" font-family="Helvetica,sans-Serif" font-size="10.00">/LIBFT/ft_strncmp.c</text>
</a>
</g>
</g>
<!-- Node9&#45;&gt;Node46 -->
<g id="edge46_Node000009_Node000046" class="edge">
<title>Node9&#45;&gt;Node46</title>
<g id="a_edge46_Node000009_Node000046"><a xlink:title=" ">
<path fill="none" stroke="#63b8ff" d="M2779.02,-80.8C3089.53,-80.75 4360.76,-77.61 4756.12,-30.5 4758.92,-30.17 4761.77,-29.77 4764.64,-29.33"/>
<polygon fill="#63b8ff" stroke="#63b8ff" points="2779.04,-77.3 2769.04,-80.8 2779.04,-84.3 2779.04,-77.3"/>
</a>
</g>
</g>
<!-- Node47 -->
<g id="Node000047" class="node">
<title>Node47</title>
<g id="a_Node000047"><a xlink:href="ft__strnstr_8c.html" target="_top" xlink:title=" ">
<polygon fill="white" stroke="#666666" points="5011.25,-30.5 4897,-30.5 4897,0 5011.25,0 5011.25,-30.5"/>
<text text-anchor="start" x="4905" y="-17" font-family="Helvetica,sans-Serif" font-size="10.00">/github/workspace/LIB</text>
<text text-anchor="middle" x="4954.12" y="-5.75" font-family="Helvetica,sans-Serif" font-size="10.00">/LIBFT/ft_strnstr.c</text>
</a>
</g>
</g>
<!-- Node9&#45;&gt;Node47 -->
<g id="edge47_Node000009_Node000047" class="edge">
<title>Node9&#45;&gt;Node47</title>
<g id="a_edge47_Node000009_Node000047"><a xlink:title=" ">
<path fill="none" stroke="#63b8ff" d="M2779.21,-80.92C3102.2,-81.43 4465.4,-80.55 4888.12,-30.5 4890.92,-30.17 4893.77,-29.78 4896.64,-29.33"/>
<polygon fill="#63b8ff" stroke="#63b8ff" points="2779.24,-77.42 2769.23,-80.9 2779.23,-84.42 2779.24,-77.42"/>
</a>
</g>
</g>
<!-- Node48 -->
<g id="Node000048" class="node">
<title>Node48</title>
<g id="a_Node000048"><a xlink:href="ft__strrchr_8c.html" target="_top" xlink:title=" ">
<polygon fill="white" stroke="#666666" points="5143.25,-30.5 5029,-30.5 5029,0 5143.25,0 5143.25,-30.5"/>
<text text-anchor="start" x="5037" y="-17" font-family="Helvetica,sans-Serif" font-size="10.00">/github/workspace/LIB</text>
<text text-anchor="middle" x="5086.12" y="-5.75" font-family="Helvetica,sans-Serif" font-size="10.00">/LIBFT/ft_strrchr.c</text>
</a>
</g>
</g>
<!-- Node9&#45;&gt;Node48 -->
<g id="edge48_Node000009_Node000048" class="edge">
<title>Node9&#45;&gt;Node48</title>
<g id="a_edge48_Node000009_Node000048"><a xlink:title=" ">
<path fill="none" stroke="#63b8ff" d="M2779,-81.02C3113.41,-82.08 4569.81,-83.52 5020.12,-30.5 5022.92,-30.17 5025.77,-29.78 5028.64,-29.34"/>
<polygon fill="#63b8ff" stroke="#63b8ff" points="2779.11,-77.52 2769.1,-80.99 2779.09,-84.52 2779.11,-77.52"/>
</a>
</g>
</g>
<!-- Node49 -->
<g id="Node000049" class="node">
<title>Node49</title>
<g id="a_Node000049"><a xlink:href="ft__strtrim_8c.html" target="_top" xlink:title=" ">
<polygon fill="white" stroke="#666666" points="5275.25,-30.5 5161,-30.5 5161,0 5275.25,0 5275.25,-30.5"/>
<text text-anchor="start" x="5169" y="-17" font-family="Helvetica,sans-Serif" font-size="10.00">/github/workspace/LIB</text>
<text text-anchor="middle" x="5218.12" y="-5.75" font-family="Helvetica,sans-Serif" font-size="10.00">/LIBFT/ft_strtrim.c</text>
</a>
</g>
</g>
<!-- Node9&#45;&gt;Node49 -->
<g id="edge49_Node000009_Node000049" class="edge">
<title>Node9&#45;&gt;Node49</title>
<g id="a_edge49_Node000009_Node000049"><a xlink:title=" ">
<path fill="none" stroke="#63b8ff" d="M2779,-80.12C3150.9,-76.63 4911.26,-58.72 5152.12,-30.5 5154.92,-30.17 5157.77,-29.78 5160.64,-29.34"/>
<polygon fill="#63b8ff" stroke="#63b8ff" points="2779.12,-76.62 2769.15,-80.21 2779.19,-83.62 2779.12,-76.62"/>
</a>
</g>
</g>
<!-- Node50 -->
<g id="Node000050" class="node">
<title>Node50</title>
<g id="a_Node000050"><a xlink:href="ft__substr_8c.html" target="_top" xlink:title=" ">
<polygon fill="white" stroke="#666666" points="5407.25,-30.5 5293,-30.5 5293,0 5407.25,0 5407.25,-30.5"/>
<text text-anchor="start" x="5301" y="-17" font-family="Helvetica,sans-Serif" font-size="10.00">/github/workspace/LIB</text>
<text text-anchor="middle" x="5350.12" y="-5.75" font-family="Helvetica,sans-Serif" font-size="10.00">/LIBFT/ft_substr.c</text>
</a>
</g>
</g>
<!-- Node9&#45;&gt;Node50 -->
<g id="edge50_Node000009_Node000050" class="edge">
<title>Node9&#45;&gt;Node50</title>
<g id="a_edge50_Node000009_Node000050"><a xlink:title=" ">
<path fill="none" stroke="#63b8ff" d="M2778.98,-80.2C3162.75,-77.03 5029.41,-60.2 5284.12,-30.5 5286.92,-30.17 5289.77,-29.78 5292.64,-29.34"/>
<polygon fill="#63b8ff" stroke="#63b8ff" points="2779.02,-76.7 2769.05,-80.28 2779.08,-83.7 2779.02,-76.7"/>
</a>
</g>
</g>
</g>
</svg>
