<?xml version="1.0" encoding="UTF-8" standalone="no"?>
<!DOCTYPE svg PUBLIC "-//W3C//DTD SVG 1.1//EN"
 "http://www.w3.org/Graphics/SVG/1.1/DTD/svg11.dtd">
<!-- Generated by graphviz version 9.0.0 (20230911.1827)
 -->
<!-- Title: ft_printf_c Pages: 1 -->
<svg width="167pt" height="82pt"
 viewBox="0.00 0.00 166.75 82.25" xmlns="http://www.w3.org/2000/svg" xmlns:xlink="http://www.w3.org/1999/xlink">
<g id="graph0" class="graph" transform="scale(1 1) rotate(0) translate(4 78.25)">
<title>ft_printf_c</title>
<!-- Node1 -->
<g id="Node000001" class="node">
<title>Node1</title>
<g id="a_Node000001"><a xlink:title=" ">
<polygon fill="#999999" stroke="#666666" points="158.75,-46.25 99.25,-46.25 99.25,-27 158.75,-27 158.75,-46.25"/>
<text text-anchor="middle" x="129" y="-32.75" font-family="Helvetica,sans-Serif" font-size="10.00">ft_printf_c</text>
</a>
</g>
</g>
<!-- Node2 -->
<g id="Node000002" class="node">
<title>Node2</title>
<g id="a_Node000002"><a xlink:href="ft__printf_8c.html#a0d9db352c6e9d0a0d72371be9b27f3f6" target="_top" xlink:title=" ">
<polygon fill="white" stroke="#666666" points="56.12,-74.25 7.12,-74.25 7.12,-55 56.12,-55 56.12,-74.25"/>
<text text-anchor="middle" x="31.62" y="-60.75" font-family="Helvetica,sans-Serif" font-size="10.00">ft_printf</text>
</a>
</g>
</g>
<!-- Node1&#45;&gt;Node2 -->
<g id="edge1_Node000001_Node000002" class="edge">
<title>Node1&#45;&gt;Node2</title>
<g id="a_edge1_Node000001_Node000002"><a xlink:title=" ">
<path fill="none" stroke="#63b8ff" d="M87.98,-48.37C77.25,-51.52 66,-54.83 56.46,-57.63"/>
<polygon fill="#63b8ff" stroke="#63b8ff" points="88.8,-51.78 97.41,-45.6 86.83,-45.06 88.8,-51.78"/>
</a>
</g>
</g>
<!-- Node3 -->
<g id="Node000003" class="node">
<title>Node3</title>
<g id="a_Node000003"><a xlink:href="ft__printf__xx_8c.html#a6d3ca9e49dd72fbb1bfb812c801224b1" target="_top" xlink:title=" ">
<polygon fill="white" stroke="#666666" points="63.25,-19.25 0,-19.25 0,0 63.25,0 63.25,-19.25"/>
<text text-anchor="middle" x="31.62" y="-5.75" font-family="Helvetica,sans-Serif" font-size="10.00">ft_printf_xx</text>
</a>
</g>
</g>
<!-- Node1&#45;&gt;Node3 -->
<g id="edge2_Node000001_Node000003" class="edge">
<title>Node1&#45;&gt;Node3</title>
<g id="a_edge2_Node000001_Node000003"><a xlink:title=" ">
<path fill="none" stroke="#63b8ff" d="M88.01,-25.3C79.84,-22.99 71.36,-20.59 63.57,-18.38"/>
<polygon fill="#63b8ff" stroke="#63b8ff" points="86.83,-28.61 97.41,-27.97 88.74,-21.87 86.83,-28.61"/>
</a>
</g>
</g>
<!-- Node3&#45;&gt;Node3 -->
<g id="edge3_Node000003_Node000003" class="edge">
<title>Node3&#45;&gt;Node3</title>
<g id="a_edge3_Node000003_Node000003"><a xlink:title=" ">
<path fill="none" stroke="#63b8ff" d="M48.91,-30.65C46.75,-34.53 40.99,-37.25 31.62,-37.25 14.51,-37.25 9.43,-28.15 16.38,-19.54"/>
<polygon fill="#63b8ff" stroke="#63b8ff" points="52.39,-30.23 47.14,-21.03 45.51,-31.49 52.39,-30.23"/>
</a>
</g>
</g>
</g>
</svg>
