<?xml version="1.0" encoding="UTF-8" standalone="no"?>
<!DOCTYPE svg PUBLIC "-//W3C//DTD SVG 1.1//EN"
 "http://www.w3.org/Graphics/SVG/1.1/DTD/svg11.dtd">
<!-- Generated by graphviz version 9.0.0 (20230911.1827)
 -->
<!-- Title: ft_strtrim Pages: 1 -->
<svg width="423pt" height="179pt"
 viewBox="0.00 0.00 422.50 179.25" xmlns="http://www.w3.org/2000/svg" xmlns:xlink="http://www.w3.org/1999/xlink">
<g id="graph0" class="graph" transform="scale(1 1) rotate(0) translate(4 175.25)">
<title>ft_strtrim</title>
<!-- Node1 -->
<g id="Node000001" class="node">
<title>Node1</title>
<g id="a_Node000001"><a xlink:title=" ">
<polygon fill="#999999" stroke="#666666" points="55,-133.25 0,-133.25 0,-114 55,-114 55,-133.25"/>
<text text-anchor="middle" x="27.5" y="-119.75" font-family="Helvetica,sans-Serif" font-size="10.00">ft_strtrim</text>
</a>
</g>
</g>
<!-- Node2 -->
<g id="Node000002" class="node">
<title>Node2</title>
<g id="a_Node000002"><a xlink:href="ft__strchr_8c.html#aa6d0c2d180f32ee585485e1a1ce3d55d" target="_top" xlink:title=" ">
<polygon fill="white" stroke="#666666" points="144.12,-171.25 92.12,-171.25 92.12,-152 144.12,-152 144.12,-171.25"/>
<text text-anchor="middle" x="118.12" y="-157.75" font-family="Helvetica,sans-Serif" font-size="10.00">ft_strchr</text>
</a>
</g>
</g>
<!-- Node1&#45;&gt;Node2 -->
<g id="edge1_Node000001_Node000002" class="edge">
<title>Node1&#45;&gt;Node2</title>
<g id="a_edge1_Node000001_Node000002"><a xlink:title=" ">
<path fill="none" stroke="#63b8ff" d="M51.79,-133.61C61.38,-137.72 72.68,-142.57 83.16,-147.06"/>
<polygon fill="#63b8ff" stroke="#63b8ff" points="81.73,-150.26 92.3,-150.98 84.49,-143.82 81.73,-150.26"/>
</a>
</g>
</g>
<!-- Node3 -->
<g id="Node000003" class="node">
<title>Node3</title>
<g id="a_Node000003"><a xlink:href="LIBFT_2ft__strlen_8c.html#a828402378653640f545a4be2e00e92f9" target="_top" xlink:title=" ">
<polygon fill="white" stroke="#666666" points="414.5,-76.25 363.25,-76.25 363.25,-57 414.5,-57 414.5,-76.25"/>
<text text-anchor="middle" x="388.88" y="-62.75" font-family="Helvetica,sans-Serif" font-size="10.00">ft_strlen</text>
</a>
</g>
</g>
<!-- Node1&#45;&gt;Node3 -->
<g id="edge2_Node000001_Node000003" class="edge">
<title>Node1&#45;&gt;Node3</title>
<g id="a_edge2_Node000001_Node000003"><a xlink:title=" ">
<path fill="none" stroke="#63b8ff" d="M55.12,-121.58C107.6,-117.23 227.99,-105.7 327.25,-84.62 335.35,-82.9 343.95,-80.63 352.03,-78.29"/>
<polygon fill="#63b8ff" stroke="#63b8ff" points="353.02,-81.65 361.58,-75.41 351,-74.95 353.02,-81.65"/>
</a>
</g>
</g>
<!-- Node4 -->
<g id="Node000004" class="node">
<title>Node4</title>
<g id="a_Node000004"><a xlink:href="ft__substr_8c.html#a78c402cbf3d55b1374693c3b7d34f71d" target="_top" xlink:title=" ">
<polygon fill="white" stroke="#666666" points="145.25,-76.25 91,-76.25 91,-57 145.25,-57 145.25,-76.25"/>
<text text-anchor="middle" x="118.12" y="-62.75" font-family="Helvetica,sans-Serif" font-size="10.00">ft_substr</text>
</a>
</g>
</g>
<!-- Node1&#45;&gt;Node4 -->
<g id="edge3_Node000001_Node000004" class="edge">
<title>Node1&#45;&gt;Node4</title>
<g id="a_edge3_Node000001_Node000004"><a xlink:title=" ">
<path fill="none" stroke="#63b8ff" d="M43.94,-113.7C57.2,-105.17 76.57,-92.71 92.06,-82.75"/>
<polygon fill="#63b8ff" stroke="#63b8ff" points="93.78,-85.8 100.29,-77.45 89.99,-79.92 93.78,-85.8"/>
</a>
</g>
</g>
<!-- Node4&#45;&gt;Node3 -->
<g id="edge9_Node000004_Node000003" class="edge">
<title>Node4&#45;&gt;Node3</title>
<g id="a_edge9_Node000004_Node000003"><a xlink:title=" ">
<path fill="none" stroke="#63b8ff" d="M145.74,-68.02C185.33,-69.9 262.05,-72.77 327.25,-70.62 335.11,-70.37 343.54,-69.92 351.53,-69.41"/>
<polygon fill="#63b8ff" stroke="#63b8ff" points="351.57,-72.92 361.31,-68.75 351.1,-65.94 351.57,-72.92"/>
</a>
</g>
</g>
<!-- Node5 -->
<g id="Node000005" class="node">
<title>Node5</title>
<g id="a_Node000005"><a xlink:href="ft__strdup_8c.html#aaacf33ac82063226a213d2ee49adc65f" target="_top" xlink:title=" ">
<polygon fill="white" stroke="#666666" points="235.5,-57.25 181.25,-57.25 181.25,-38 235.5,-38 235.5,-57.25"/>
<text text-anchor="middle" x="208.38" y="-43.75" font-family="Helvetica,sans-Serif" font-size="10.00">ft_strdup</text>
</a>
</g>
</g>
<!-- Node4&#45;&gt;Node5 -->
<g id="edge4_Node000004_Node000005" class="edge">
<title>Node4&#45;&gt;Node5</title>
<g id="a_edge4_Node000004_Node000005"><a xlink:title=" ">
<path fill="none" stroke="#63b8ff" d="M145.6,-60.92C153.19,-59.29 161.62,-57.48 169.75,-55.73"/>
<polygon fill="#63b8ff" stroke="#63b8ff" points="170.4,-59.17 179.44,-53.64 168.92,-52.32 170.4,-59.17"/>
</a>
</g>
</g>
<!-- Node6 -->
<g id="Node000006" class="node">
<title>Node6</title>
<g id="a_Node000006"><a xlink:href="ft__strlcpy_8c.html#a95de924e4140ae426bf2e05acfb5fe4f" target="_top" xlink:title=" ">
<polygon fill="white" stroke="#666666" points="327.25,-19.25 271.5,-19.25 271.5,0 327.25,0 327.25,-19.25"/>
<text text-anchor="middle" x="299.38" y="-5.75" font-family="Helvetica,sans-Serif" font-size="10.00">ft_strlcpy</text>
</a>
</g>
</g>
<!-- Node4&#45;&gt;Node6 -->
<g id="edge8_Node000004_Node000006" class="edge">
<title>Node4&#45;&gt;Node6</title>
<g id="a_edge8_Node000004_Node000006"><a xlink:title=" ">
<path fill="none" stroke="#63b8ff" d="M132.16,-56.56C144.22,-47.77 162.99,-35.39 181.25,-28.62 206.53,-19.26 236.58,-14.5 259.91,-12.09"/>
<polygon fill="#63b8ff" stroke="#63b8ff" points="259.96,-15.6 269.6,-11.2 259.32,-8.63 259.96,-15.6"/>
</a>
</g>
</g>
<!-- Node5&#45;&gt;Node3 -->
<g id="edge7_Node000005_Node000003" class="edge">
<title>Node5&#45;&gt;Node3</title>
<g id="a_edge7_Node000005_Node000003"><a xlink:title=" ">
<path fill="none" stroke="#63b8ff" d="M235.71,-50.43C266.34,-53.69 317.06,-59.09 351.45,-62.75"/>
<polygon fill="#63b8ff" stroke="#63b8ff" points="351.05,-66.23 361.37,-63.8 351.79,-59.26 351.05,-66.23"/>
</a>
</g>
</g>
<!-- Node5&#45;&gt;Node6 -->
<g id="edge5_Node000005_Node000006" class="edge">
<title>Node5&#45;&gt;Node6</title>
<g id="a_edge5_Node000005_Node000006"><a xlink:title=" ">
<path fill="none" stroke="#63b8ff" d="M232.76,-37.64C242.39,-33.53 253.74,-28.68 264.27,-24.19"/>
<polygon fill="#63b8ff" stroke="#63b8ff" points="265.62,-27.41 273.45,-20.27 262.88,-20.98 265.62,-27.41"/>
</a>
</g>
</g>
<!-- Node6&#45;&gt;Node3 -->
<g id="edge6_Node000006_Node000003" class="edge">
<title>Node6&#45;&gt;Node3</title>
<g id="a_edge6_Node000006_Node000003"><a xlink:title=" ">
<path fill="none" stroke="#63b8ff" d="M315.62,-19.55C328.71,-28.08 347.84,-40.54 363.13,-50.5"/>
<polygon fill="#63b8ff" stroke="#63b8ff" points="360.96,-53.27 371.25,-55.79 364.78,-47.4 360.96,-53.27"/>
</a>
</g>
</g>
</g>
</svg>
