<?xml version="1.0" encoding="UTF-8" standalone="no"?>
<!DOCTYPE svg PUBLIC "-//W3C//DTD SVG 1.1//EN"
 "http://www.w3.org/Graphics/SVG/1.1/DTD/svg11.dtd">
<!-- Generated by graphviz version 9.0.0 (20230911.1827)
 -->
<!-- Title: ft_printf Pages: 1 -->
<svg width="262pt" height="27pt"
 viewBox="0.00 0.00 261.50 27.25" xmlns="http://www.w3.org/2000/svg" xmlns:xlink="http://www.w3.org/1999/xlink">
<g id="graph0" class="graph" transform="scale(1 1) rotate(0) translate(4 23.25)">
<title>ft_printf</title>
<!-- Node1 -->
<g id="Node000001" class="node">
<title>Node1</title>
<g id="a_Node000001"><a xlink:title=" ">
<polygon fill="#999999" stroke="#666666" points="49,-19.25 0,-19.25 0,0 49,0 49,-19.25"/>
<text text-anchor="middle" x="24.5" y="-5.75" font-family="Helvetica,sans-Serif" font-size="10.00">ft_printf</text>
</a>
</g>
</g>
<!-- Node2 -->
<g id="Node000002" class="node">
<title>Node2</title>
<g id="a_Node000002"><a xlink:href="ft__printf__c_8c.html#a1a1ea1a2f302e4ced86283acae6084b6" target="_top" xlink:title=" ">
<polygon fill="white" stroke="#666666" points="144.5,-19.25 85,-19.25 85,0 144.5,0 144.5,-19.25"/>
<text text-anchor="middle" x="114.75" y="-5.75" font-family="Helvetica,sans-Serif" font-size="10.00">ft_printf_c</text>
</a>
</g>
</g>
<!-- Node1&#45;&gt;Node2 -->
<g id="edge1_Node000001_Node000002" class="edge">
<title>Node1&#45;&gt;Node2</title>
<g id="a_edge1_Node000001_Node000002"><a xlink:title=" ">
<path fill="none" stroke="#63b8ff" d="M49.15,-9.62C56.58,-9.62 65,-9.62 73.25,-9.62"/>
<polygon fill="#63b8ff" stroke="#63b8ff" points="73.16,-13.13 83.16,-9.63 73.16,-6.13 73.16,-13.13"/>
</a>
</g>
</g>
<!-- Node3 -->
<g id="Node000003" class="node">
<title>Node3</title>
<g id="a_Node000003"><a xlink:href="ft__putchar__fd_8c.html#a8ee15a511946c1397bd2bdea4aed6aee" target="_top" xlink:title=" ">
<polygon fill="white" stroke="#666666" points="253.5,-19.25 180.5,-19.25 180.5,0 253.5,0 253.5,-19.25"/>
<text text-anchor="middle" x="217" y="-5.75" font-family="Helvetica,sans-Serif" font-size="10.00">ft_putchar_fd</text>
</a>
</g>
</g>
<!-- Node2&#45;&gt;Node3 -->
<g id="edge2_Node000002_Node000003" class="edge">
<title>Node2&#45;&gt;Node3</title>
<g id="a_edge2_Node000002_Node000003"><a xlink:title=" ">
<path fill="none" stroke="#63b8ff" d="M144.75,-9.62C152.29,-9.62 160.62,-9.62 168.84,-9.62"/>
<polygon fill="#63b8ff" stroke="#63b8ff" points="168.79,-13.13 178.79,-9.63 168.79,-6.13 168.79,-13.13"/>
</a>
</g>
</g>
</g>
</svg>
