<?xml version="1.0" encoding="UTF-8" standalone="no"?>
<!DOCTYPE svg PUBLIC "-//W3C//DTD SVG 1.1//EN"
 "http://www.w3.org/Graphics/SVG/1.1/DTD/svg11.dtd">
<!-- Generated by graphviz version 9.0.0 (20230911.1827)
 -->
<!-- Title: ft_strjoin Pages: 1 -->
<svg width="237pt" height="64pt"
 viewBox="0.00 0.00 236.75 64.25" xmlns="http://www.w3.org/2000/svg" xmlns:xlink="http://www.w3.org/1999/xlink">
<g id="graph0" class="graph" transform="scale(1 1) rotate(0) translate(4 60.25)">
<title>ft_strjoin</title>
<!-- Node1 -->
<g id="Node000001" class="node">
<title>Node1</title>
<g id="a_Node000001"><a xlink:title=" ">
<polygon fill="#999999" stroke="#666666" points="53.5,-37.25 0,-37.25 0,-18 53.5,-18 53.5,-37.25"/>
<text text-anchor="middle" x="26.75" y="-23.75" font-family="Helvetica,sans-Serif" font-size="10.00">ft_strjoin</text>
</a>
</g>
</g>
<!-- Node2 -->
<g id="Node000002" class="node">
<title>Node2</title>
<g id="a_Node000002"><a xlink:href="ft__calloc_8c.html#a55cb9602200ccf92a7f43e58c6ee2679" target="_top" xlink:title=" ">
<polygon fill="white" stroke="#666666" points="142.25,-56.25 89.5,-56.25 89.5,-37 142.25,-37 142.25,-56.25"/>
<text text-anchor="middle" x="115.88" y="-42.75" font-family="Helvetica,sans-Serif" font-size="10.00">ft_calloc</text>
</a>
</g>
</g>
<!-- Node1&#45;&gt;Node2 -->
<g id="edge1_Node000001_Node000002" class="edge">
<title>Node1&#45;&gt;Node2</title>
<g id="a_edge1_Node000001_Node000002"><a xlink:title=" ">
<path fill="none" stroke="#63b8ff" d="M53.89,-33.33C61.45,-34.97 69.86,-36.81 77.95,-38.57"/>
<polygon fill="#63b8ff" stroke="#63b8ff" points="77.06,-41.96 87.57,-40.67 78.55,-35.12 77.06,-41.96"/>
</a>
</g>
</g>
<!-- Node4 -->
<g id="Node000004" class="node">
<title>Node4</title>
<g id="a_Node000004"><a xlink:href="LIBFT_2ft__strlen_8c.html#a828402378653640f545a4be2e00e92f9" target="_top" xlink:title=" ">
<polygon fill="white" stroke="#666666" points="141.5,-19.25 90.25,-19.25 90.25,0 141.5,0 141.5,-19.25"/>
<text text-anchor="middle" x="115.88" y="-5.75" font-family="Helvetica,sans-Serif" font-size="10.00">ft_strlen</text>
</a>
</g>
</g>
<!-- Node1&#45;&gt;Node4 -->
<g id="edge3_Node000001_Node000004" class="edge">
<title>Node1&#45;&gt;Node4</title>
<g id="a_edge3_Node000001_Node000004"><a xlink:title=" ">
<path fill="none" stroke="#63b8ff" d="M53.89,-22.22C61.75,-20.6 70.51,-18.79 78.89,-17.06"/>
<polygon fill="#63b8ff" stroke="#63b8ff" points="79.38,-20.53 88.47,-15.08 77.96,-13.68 79.38,-20.53"/>
</a>
</g>
</g>
<!-- Node3 -->
<g id="Node000003" class="node">
<title>Node3</title>
<g id="a_Node000003"><a xlink:href="LIBFT_2ft__bzero_8c.html#a5937ab0d08e31d0e3e4a16ec71e293a1" target="_top" xlink:title=" ">
<polygon fill="white" stroke="#666666" points="228.75,-56.25 178.25,-56.25 178.25,-37 228.75,-37 228.75,-56.25"/>
<text text-anchor="middle" x="203.5" y="-42.75" font-family="Helvetica,sans-Serif" font-size="10.00">ft_bzero</text>
</a>
</g>
</g>
<!-- Node2&#45;&gt;Node3 -->
<g id="edge2_Node000002_Node000003" class="edge">
<title>Node2&#45;&gt;Node3</title>
<g id="a_edge2_Node000002_Node000003"><a xlink:title=" ">
<path fill="none" stroke="#63b8ff" d="M142.57,-46.62C150.11,-46.62 158.51,-46.62 166.57,-46.62"/>
<polygon fill="#63b8ff" stroke="#63b8ff" points="166.49,-50.13 176.49,-46.63 166.49,-43.13 166.49,-50.13"/>
</a>
</g>
</g>
</g>
</svg>
