<?xml version="1.0" encoding="UTF-8" standalone="no"?>
<!DOCTYPE svg PUBLIC "-//W3C//DTD SVG 1.1//EN"
 "http://www.w3.org/Graphics/SVG/1.1/DTD/svg11.dtd">
<!-- Generated by graphviz version 9.0.0 (20230911.1827)
 -->
<!-- Title: ft_lstmap Pages: 1 -->
<svg width="283pt" height="101pt"
 viewBox="0.00 0.00 282.50 101.25" xmlns="http://www.w3.org/2000/svg" xmlns:xlink="http://www.w3.org/1999/xlink">
<g id="graph0" class="graph" transform="scale(1 1) rotate(0) translate(4 97.25)">
<title>ft_lstmap</title>
<!-- Node1 -->
<g id="Node000001" class="node">
<title>Node1</title>
<g id="a_Node000001"><a xlink:title=" ">
<polygon fill="#999999" stroke="#666666" points="56.5,-56.25 0,-56.25 0,-37 56.5,-37 56.5,-56.25"/>
<text text-anchor="middle" x="28.25" y="-42.75" font-family="Helvetica,sans-Serif" font-size="10.00">ft_lstmap</text>
</a>
</g>
</g>
<!-- Node2 -->
<g id="Node000002" class="node">
<title>Node2</title>
<g id="a_Node000002"><a xlink:href="ft__lstadd__back_8c.html#a4c10e88fffc3c9467eb16e6debd227a4" target="_top" xlink:title=" ">
<polygon fill="white" stroke="#666666" points="172.25,-93.25 92.5,-93.25 92.5,-74 172.25,-74 172.25,-93.25"/>
<text text-anchor="middle" x="132.38" y="-79.75" font-family="Helvetica,sans-Serif" font-size="10.00">ft_lstadd_back</text>
</a>
</g>
</g>
<!-- Node1&#45;&gt;Node2 -->
<g id="edge1_Node000001_Node000002" class="edge">
<title>Node1&#45;&gt;Node2</title>
<g id="a_edge1_Node000001_Node000002"><a xlink:title=" ">
<path fill="none" stroke="#63b8ff" d="M56.89,-56.64C68.01,-60.67 81.03,-65.39 93.05,-69.74"/>
<polygon fill="#63b8ff" stroke="#63b8ff" points="91.7,-72.97 102.29,-73.09 94.08,-66.39 91.7,-72.97"/>
</a>
</g>
</g>
<!-- Node4 -->
<g id="Node000004" class="node">
<title>Node4</title>
<g id="a_Node000004"><a xlink:href="ft__lstclear_8c.html#a6e900cfaea2857bbf490f3105e38da93" target="_top" xlink:title=" ">
<polygon fill="white" stroke="#666666" points="161.75,-56.25 103,-56.25 103,-37 161.75,-37 161.75,-56.25"/>
<text text-anchor="middle" x="132.38" y="-42.75" font-family="Helvetica,sans-Serif" font-size="10.00">ft_lstclear</text>
</a>
</g>
</g>
<!-- Node1&#45;&gt;Node4 -->
<g id="edge3_Node000001_Node000004" class="edge">
<title>Node1&#45;&gt;Node4</title>
<g id="a_edge3_Node000001_Node000004"><a xlink:title=" ">
<path fill="none" stroke="#63b8ff" d="M56.89,-46.62C67.52,-46.62 79.88,-46.62 91.45,-46.62"/>
<polygon fill="#63b8ff" stroke="#63b8ff" points="91.13,-50.13 101.13,-46.63 91.13,-43.13 91.13,-50.13"/>
</a>
</g>
</g>
<!-- Node6 -->
<g id="Node000006" class="node">
<title>Node6</title>
<g id="a_Node000006"><a xlink:href="ft__lstnew_8c.html#a8fe4ea6f56f5a2a75ee13d97416b60ed" target="_top" xlink:title=" ">
<polygon fill="white" stroke="#666666" points="160.25,-19.25 104.5,-19.25 104.5,0 160.25,0 160.25,-19.25"/>
<text text-anchor="middle" x="132.38" y="-5.75" font-family="Helvetica,sans-Serif" font-size="10.00">ft_lstnew</text>
</a>
</g>
</g>
<!-- Node1&#45;&gt;Node6 -->
<g id="edge5_Node000001_Node000006" class="edge">
<title>Node1&#45;&gt;Node6</title>
<g id="a_edge5_Node000001_Node000006"><a xlink:title=" ">
<path fill="none" stroke="#63b8ff" d="M56.89,-36.61C68.1,-32.55 81.24,-27.79 93.34,-23.4"/>
<polygon fill="#63b8ff" stroke="#63b8ff" points="94.44,-26.73 102.65,-20.03 92.05,-20.15 94.44,-26.73"/>
</a>
</g>
</g>
<!-- Node3 -->
<g id="Node000003" class="node">
<title>Node3</title>
<g id="a_Node000003"><a xlink:href="ft__lstlast_8c.html#aed5f9b5ecc45235a7b7cf9d4b24e43dc" target="_top" xlink:title=" ">
<polygon fill="white" stroke="#666666" points="268.12,-93.25 214.62,-93.25 214.62,-74 268.12,-74 268.12,-93.25"/>
<text text-anchor="middle" x="241.38" y="-79.75" font-family="Helvetica,sans-Serif" font-size="10.00">ft_lstlast</text>
</a>
</g>
</g>
<!-- Node2&#45;&gt;Node3 -->
<g id="edge2_Node000002_Node000003" class="edge">
<title>Node2&#45;&gt;Node3</title>
<g id="a_edge2_Node000002_Node000003"><a xlink:title=" ">
<path fill="none" stroke="#63b8ff" d="M172.61,-83.62C182.45,-83.62 192.98,-83.62 202.74,-83.62"/>
<polygon fill="#63b8ff" stroke="#63b8ff" points="202.64,-87.13 212.64,-83.63 202.64,-80.13 202.64,-87.13"/>
</a>
</g>
</g>
<!-- Node5 -->
<g id="Node000005" class="node">
<title>Node5</title>
<g id="a_Node000005"><a xlink:href="ft__lstdelone_8c.html#ac2b881501f9ee2f3ed5718f6d9ebee7c" target="_top" xlink:title=" ">
<polygon fill="white" stroke="#666666" points="274.5,-56.25 208.25,-56.25 208.25,-37 274.5,-37 274.5,-56.25"/>
<text text-anchor="middle" x="241.38" y="-42.75" font-family="Helvetica,sans-Serif" font-size="10.00">ft_lstdelone</text>
</a>
</g>
</g>
<!-- Node4&#45;&gt;Node5 -->
<g id="edge4_Node000004_Node000005" class="edge">
<title>Node4&#45;&gt;Node5</title>
<g id="a_edge4_Node000004_Node000005"><a xlink:title=" ">
<path fill="none" stroke="#63b8ff" d="M162.05,-46.62C172.63,-46.62 184.89,-46.62 196.51,-46.62"/>
<polygon fill="#63b8ff" stroke="#63b8ff" points="196.33,-50.13 206.33,-46.63 196.33,-43.13 196.33,-50.13"/>
</a>
</g>
</g>
</g>
</svg>
