<?xml version="1.0" encoding="UTF-8" standalone="no"?>
<!DOCTYPE svg PUBLIC "-//W3C//DTD SVG 1.1//EN"
 "http://www.w3.org/Graphics/SVG/1.1/DTD/svg11.dtd">
<!-- Generated by graphviz version 9.0.0 (20230911.1827)
 -->
<!-- Title: ft_strval Pages: 1 -->
<svg width="250pt" height="64pt"
 viewBox="0.00 0.00 250.25 64.25" xmlns="http://www.w3.org/2000/svg" xmlns:xlink="http://www.w3.org/1999/xlink">
<g id="graph0" class="graph" transform="scale(1 1) rotate(0) translate(4 60.25)">
<title>ft_strval</title>
<!-- Node1 -->
<g id="Node000001" class="node">
<title>Node1</title>
<g id="a_Node000001"><a xlink:title="Checks if a given string consists of valid characters.">
<polygon fill="#999999" stroke="#666666" points="51.25,-38.25 0,-38.25 0,-19 51.25,-19 51.25,-38.25"/>
<text text-anchor="middle" x="25.62" y="-24.75" font-family="Helvetica,sans-Serif" font-size="10.00">ft_strval</text>
</a>
</g>
</g>
<!-- Node2 -->
<g id="Node000002" class="node">
<title>Node2</title>
<g id="a_Node000002"><a xlink:href="LIBFT_2ft__isalnum_8c.html#a9c2c3821ea43ebdf97de07b123503f8b" target="_top" xlink:title=" ">
<polygon fill="white" stroke="#666666" points="148.25,-38.25 87.25,-38.25 87.25,-19 148.25,-19 148.25,-38.25"/>
<text text-anchor="middle" x="117.75" y="-24.75" font-family="Helvetica,sans-Serif" font-size="10.00">ft_isalnum</text>
</a>
</g>
</g>
<!-- Node1&#45;&gt;Node2 -->
<g id="edge1_Node000001_Node000002" class="edge">
<title>Node1&#45;&gt;Node2</title>
<g id="a_edge1_Node000001_Node000002"><a xlink:title=" ">
<path fill="none" stroke="#63b8ff" d="M51.73,-28.62C59.16,-28.62 67.51,-28.62 75.67,-28.62"/>
<polygon fill="#63b8ff" stroke="#63b8ff" points="75.47,-32.13 85.47,-28.63 75.47,-25.13 75.47,-32.13"/>
</a>
</g>
</g>
<!-- Node3 -->
<g id="Node000003" class="node">
<title>Node3</title>
<g id="a_Node000003"><a xlink:href="LIBFT_2ft__isalpha_8c.html#ac283963beaa3b8c7d09b78851cda297e" target="_top" xlink:title=" ">
<polygon fill="white" stroke="#666666" points="242.25,-56.25 184.25,-56.25 184.25,-37 242.25,-37 242.25,-56.25"/>
<text text-anchor="middle" x="213.25" y="-42.75" font-family="Helvetica,sans-Serif" font-size="10.00">ft_isalpha</text>
</a>
</g>
</g>
<!-- Node1&#45;&gt;Node3 -->
<g id="edge4_Node000001_Node000003" class="edge">
<title>Node1&#45;&gt;Node3</title>
<g id="a_edge4_Node000001_Node000003"><a xlink:title=" ">
<path fill="none" stroke="#63b8ff" d="M51.59,-38.32C62.38,-42.02 75.26,-45.79 87.25,-47.62 115.46,-51.94 147.66,-51.56 172.32,-50.17"/>
<polygon fill="#63b8ff" stroke="#63b8ff" points="172.51,-53.66 182.26,-49.52 172.05,-46.68 172.51,-53.66"/>
</a>
</g>
</g>
<!-- Node4 -->
<g id="Node000004" class="node">
<title>Node4</title>
<g id="a_Node000004"><a xlink:href="LIBFT_2ft__isdigit_8c.html#a2cf15b8a1a277d1e2ce3654101a2003d" target="_top" xlink:title=" ">
<polygon fill="white" stroke="#666666" points="239.62,-19.25 186.88,-19.25 186.88,0 239.62,0 239.62,-19.25"/>
<text text-anchor="middle" x="213.25" y="-5.75" font-family="Helvetica,sans-Serif" font-size="10.00">ft_isdigit</text>
</a>
</g>
</g>
<!-- Node1&#45;&gt;Node4 -->
<g id="edge5_Node000001_Node000004" class="edge">
<title>Node1&#45;&gt;Node4</title>
<g id="a_edge5_Node000001_Node000004"><a xlink:title=" ">
<path fill="none" stroke="#63b8ff" d="M51.59,-18.93C62.38,-15.23 75.26,-11.46 87.25,-9.62 116.69,-5.12 150.5,-5.45 175.53,-6.72"/>
<polygon fill="#63b8ff" stroke="#63b8ff" points="175,-10.19 185.19,-7.29 175.41,-3.2 175,-10.19"/>
</a>
</g>
</g>
<!-- Node2&#45;&gt;Node3 -->
<g id="edge2_Node000002_Node000003" class="edge">
<title>Node2&#45;&gt;Node3</title>
<g id="a_edge2_Node000002_Node000003"><a xlink:title=" ">
<path fill="none" stroke="#63b8ff" d="M148.59,-34.37C156.29,-35.85 164.7,-37.47 172.81,-39.03"/>
<polygon fill="#63b8ff" stroke="#63b8ff" points="172,-42.44 182.48,-40.89 173.32,-35.57 172,-42.44"/>
</a>
</g>
</g>
<!-- Node2&#45;&gt;Node4 -->
<g id="edge3_Node000002_Node000004" class="edge">
<title>Node2&#45;&gt;Node4</title>
<g id="a_edge3_Node000002_Node000004"><a xlink:title=" ">
<path fill="none" stroke="#63b8ff" d="M148.59,-22.56C157.06,-20.84 166.39,-18.94 175.24,-17.15"/>
<polygon fill="#63b8ff" stroke="#63b8ff" points="175.88,-20.59 184.98,-15.17 174.49,-13.73 175.88,-20.59"/>
</a>
</g>
</g>
</g>
</svg>
