<?xml version="1.0" encoding="UTF-8" standalone="no"?>
<!DOCTYPE svg PUBLIC "-//W3C//DTD SVG 1.1//EN"
 "http://www.w3.org/Graphics/SVG/1.1/DTD/svg11.dtd">
<!-- Generated by graphviz version 9.0.0 (20230911.1827)
 -->
<!-- Title: ft_substr Pages: 1 -->
<svg width="332pt" height="78pt"
 viewBox="0.00 0.00 331.50 78.05" xmlns="http://www.w3.org/2000/svg" xmlns:xlink="http://www.w3.org/1999/xlink">
<g id="graph0" class="graph" transform="scale(1 1) rotate(0) translate(4 74.05)">
<title>ft_substr</title>
<!-- Node1 -->
<g id="Node000001" class="node">
<title>Node1</title>
<g id="a_Node000001"><a xlink:title=" ">
<polygon fill="#999999" stroke="#666666" points="54.25,-32.05 0,-32.05 0,-12.8 54.25,-12.8 54.25,-32.05"/>
<text text-anchor="middle" x="27.12" y="-18.55" font-family="Helvetica,sans-Serif" font-size="10.00">ft_substr</text>
</a>
</g>
</g>
<!-- Node2 -->
<g id="Node000002" class="node">
<title>Node2</title>
<g id="a_Node000002"><a xlink:href="ft__strdup_8c.html#aaacf33ac82063226a213d2ee49adc65f" target="_top" xlink:title=" ">
<polygon fill="white" stroke="#666666" points="144.5,-32.05 90.25,-32.05 90.25,-12.8 144.5,-12.8 144.5,-32.05"/>
<text text-anchor="middle" x="117.38" y="-18.55" font-family="Helvetica,sans-Serif" font-size="10.00">ft_strdup</text>
</a>
</g>
</g>
<!-- Node1&#45;&gt;Node2 -->
<g id="edge1_Node000001_Node000002" class="edge">
<title>Node1&#45;&gt;Node2</title>
<g id="a_edge1_Node000001_Node000002"><a xlink:title=" ">
<path fill="none" stroke="#63b8ff" d="M54.6,-22.43C62.11,-22.43 70.43,-22.43 78.47,-22.43"/>
<polygon fill="#63b8ff" stroke="#63b8ff" points="78.4,-25.93 88.4,-22.43 78.4,-18.93 78.4,-25.93"/>
</a>
</g>
</g>
<!-- Node3 -->
<g id="Node000003" class="node">
<title>Node3</title>
<g id="a_Node000003"><a xlink:href="ft__strlcpy_8c.html#a95de924e4140ae426bf2e05acfb5fe4f" target="_top" xlink:title=" ">
<polygon fill="white" stroke="#666666" points="236.25,-70.05 180.5,-70.05 180.5,-50.8 236.25,-50.8 236.25,-70.05"/>
<text text-anchor="middle" x="208.38" y="-56.55" font-family="Helvetica,sans-Serif" font-size="10.00">ft_strlcpy</text>
</a>
</g>
</g>
<!-- Node1&#45;&gt;Node3 -->
<g id="edge5_Node000001_Node000003" class="edge">
<title>Node1&#45;&gt;Node3</title>
<g id="a_edge5_Node000001_Node000003"><a xlink:title=" ">
<path fill="none" stroke="#63b8ff" d="M54.51,-31.37C65.48,-34.85 78.39,-38.66 90.25,-41.43 116.22,-47.47 145.87,-52.26 168.84,-55.52"/>
<polygon fill="#63b8ff" stroke="#63b8ff" points="168.31,-58.98 178.69,-56.88 169.26,-52.05 168.31,-58.98"/>
</a>
</g>
</g>
<!-- Node4 -->
<g id="Node000004" class="node">
<title>Node4</title>
<g id="a_Node000004"><a xlink:href="LIBFT_2ft__strlen_8c.html#a828402378653640f545a4be2e00e92f9" target="_top" xlink:title=" ">
<polygon fill="white" stroke="#666666" points="323.5,-32.05 272.25,-32.05 272.25,-12.8 323.5,-12.8 323.5,-32.05"/>
<text text-anchor="middle" x="297.88" y="-18.55" font-family="Helvetica,sans-Serif" font-size="10.00">ft_strlen</text>
</a>
</g>
</g>
<!-- Node1&#45;&gt;Node4 -->
<g id="edge6_Node000001_Node000004" class="edge">
<title>Node1&#45;&gt;Node4</title>
<g id="a_edge6_Node000001_Node000004"><a xlink:title=" ">
<path fill="none" stroke="#63b8ff" d="M54.63,-12.42C65.5,-8.82 78.31,-5.21 90.25,-3.43 149.72,5.46 219.48,-5.32 260.83,-13.9"/>
<polygon fill="#63b8ff" stroke="#63b8ff" points="259.96,-17.29 270.48,-15.98 261.44,-10.45 259.96,-17.29"/>
</a>
</g>
</g>
<!-- Node2&#45;&gt;Node3 -->
<g id="edge2_Node000002_Node000003" class="edge">
<title>Node2&#45;&gt;Node3</title>
<g id="a_edge2_Node000002_Node000003"><a xlink:title=" ">
<path fill="none" stroke="#63b8ff" d="M141.76,-32.41C151.39,-36.52 162.74,-41.37 173.27,-45.87"/>
<polygon fill="#63b8ff" stroke="#63b8ff" points="171.88,-49.08 182.45,-49.78 174.62,-42.64 171.88,-49.08"/>
</a>
</g>
</g>
<!-- Node2&#45;&gt;Node4 -->
<g id="edge4_Node000002_Node000004" class="edge">
<title>Node2&#45;&gt;Node4</title>
<g id="a_edge4_Node000002_Node000004"><a xlink:title=" ">
<path fill="none" stroke="#63b8ff" d="M144.71,-22.43C175.34,-22.43 226.06,-22.43 260.45,-22.43"/>
<polygon fill="#63b8ff" stroke="#63b8ff" points="260.36,-25.93 270.36,-22.43 260.36,-18.93 260.36,-25.93"/>
</a>
</g>
</g>
<!-- Node3&#45;&gt;Node4 -->
<g id="edge3_Node000003_Node000004" class="edge">
<title>Node3&#45;&gt;Node4</title>
<g id="a_edge3_Node000003_Node000004"><a xlink:title=" ">
<path fill="none" stroke="#63b8ff" d="M232.36,-50.44C241.83,-46.33 252.99,-41.48 263.35,-36.99"/>
<polygon fill="#63b8ff" stroke="#63b8ff" points="264.57,-40.27 272.35,-33.08 261.78,-33.85 264.57,-40.27"/>
</a>
</g>
</g>
</g>
</svg>
