<?xml version="1.0" encoding="UTF-8" standalone="no"?>
<!DOCTYPE svg PUBLIC "-//W3C//DTD SVG 1.1//EN"
 "http://www.w3.org/Graphics/SVG/1.1/DTD/svg11.dtd">
<!-- Generated by graphviz version 9.0.0 (20230911.1827)
 -->
<!-- Title: get_line Pages: 1 -->
<svg width="180pt" height="64pt"
 viewBox="0.00 0.00 179.50 64.25" xmlns="http://www.w3.org/2000/svg" xmlns:xlink="http://www.w3.org/1999/xlink">
<g id="graph0" class="graph" transform="scale(1 1) rotate(0) translate(4 60.25)">
<title>get_line</title>
<!-- Node1 -->
<g id="Node000001" class="node">
<title>Node1</title>
<g id="a_Node000001"><a xlink:title=" ">
<polygon fill="#999999" stroke="#666666" points="49.75,-37.25 0,-37.25 0,-18 49.75,-18 49.75,-37.25"/>
<text text-anchor="middle" x="24.88" y="-23.75" font-family="Helvetica,sans-Serif" font-size="10.00">get_line</text>
</a>
</g>
</g>
<!-- Node2 -->
<g id="Node000002" class="node">
<title>Node2</title>
<g id="a_Node000002"><a xlink:href="get__next__line__utils_8c.html#aac585256932db60eedc44f6ca81790d5" target="_top" xlink:title=" ">
<polygon fill="white" stroke="#666666" points="155,-56.25 102.25,-56.25 102.25,-37 155,-37 155,-56.25"/>
<text text-anchor="middle" x="128.62" y="-42.75" font-family="Helvetica,sans-Serif" font-size="10.00">copy_str</text>
</a>
</g>
</g>
<!-- Node1&#45;&gt;Node2 -->
<g id="edge1_Node000001_Node000002" class="edge">
<title>Node1&#45;&gt;Node2</title>
<g id="a_edge1_Node000001_Node000002"><a xlink:title=" ">
<path fill="none" stroke="#63b8ff" d="M50.25,-32.18C62.46,-34.46 77.51,-37.27 91.08,-39.8"/>
<polygon fill="#63b8ff" stroke="#63b8ff" points="90.07,-43.17 100.54,-41.57 91.36,-36.29 90.07,-43.17"/>
</a>
</g>
</g>
<!-- Node3 -->
<g id="Node000003" class="node">
<title>Node3</title>
<g id="a_Node000003"><a xlink:href="get__next__line__utils_8c.html#a09290bcc10d3c94431a725962887d6e3" target="_top" xlink:title=" ">
<polygon fill="white" stroke="#666666" points="171.5,-19.25 85.75,-19.25 85.75,0 171.5,0 171.5,-19.25"/>
<text text-anchor="middle" x="128.62" y="-5.75" font-family="Helvetica,sans-Serif" font-size="10.00">len_to_new_line</text>
</a>
</g>
</g>
<!-- Node1&#45;&gt;Node3 -->
<g id="edge2_Node000001_Node000003" class="edge">
<title>Node1&#45;&gt;Node3</title>
<g id="a_edge2_Node000001_Node000003"><a xlink:title=" ">
<path fill="none" stroke="#63b8ff" d="M50.25,-23.31C57.6,-22.01 65.99,-20.53 74.46,-19.03"/>
<polygon fill="#63b8ff" stroke="#63b8ff" points="74.83,-22.52 84.07,-17.33 73.62,-15.63 74.83,-22.52"/>
</a>
</g>
</g>
</g>
</svg>
