<?xml version="1.0" encoding="UTF-8" standalone="no"?>
<!DOCTYPE svg PUBLIC "-//W3C//DTD SVG 1.1//EN"
 "http://www.w3.org/Graphics/SVG/1.1/DTD/svg11.dtd">
<!-- Generated by graphviz version 9.0.0 (20230911.1827)
 -->
<!-- Title: find_last_node Pages: 1 -->
<svg width="694pt" height="65pt"
 viewBox="0.00 0.00 693.75 65.25" xmlns="http://www.w3.org/2000/svg" xmlns:xlink="http://www.w3.org/1999/xlink">
<g id="graph0" class="graph" transform="scale(1 1) rotate(0) translate(4 61.25)">
<title>find_last_node</title>
<!-- Node1 -->
<g id="Node000001" class="node">
<title>Node1</title>
<g id="a_Node000001"><a xlink:title=" ">
<polygon fill="#999999" stroke="#666666" points="685.75,-38.25 607.5,-38.25 607.5,-19 685.75,-19 685.75,-38.25"/>
<text text-anchor="middle" x="646.62" y="-24.75" font-family="Helvetica,sans-Serif" font-size="10.00">find_last_node</text>
</a>
</g>
</g>
<!-- Node2 -->
<g id="Node000002" class="node">
<title>Node2</title>
<g id="a_Node000002"><a xlink:href="get__next__line_8c.html#a8fc32031a2ff5625b5e5b3ebc79b7372" target="_top" xlink:title=" ">
<polygon fill="white" stroke="#666666" points="571.5,-57.25 524,-57.25 524,-38 571.5,-38 571.5,-57.25"/>
<text text-anchor="middle" x="547.75" y="-43.75" font-family="Helvetica,sans-Serif" font-size="10.00">append</text>
</a>
</g>
</g>
<!-- Node1&#45;&gt;Node2 -->
<g id="edge1_Node000001_Node000002" class="edge">
<title>Node1&#45;&gt;Node2</title>
<g id="a_edge1_Node000001_Node000002"><a xlink:title=" ">
<path fill="none" stroke="#63b8ff" d="M596.01,-38.36C587.57,-40.01 579.17,-41.66 571.84,-43.1"/>
<polygon fill="#63b8ff" stroke="#63b8ff" points="596.43,-41.84 605.57,-36.48 595.09,-34.97 596.43,-41.84"/>
</a>
</g>
</g>
<!-- Node8 -->
<g id="Node000008" class="node">
<title>Node8</title>
<g id="a_Node000008"><a xlink:href="get__next__line_8c.html#a49f935d849fec7e78b1ca1451f8c4b09" target="_top" xlink:title=" ">
<polygon fill="white" stroke="#666666" points="485,-19.25 430,-19.25 430,0 485,0 485,-19.25"/>
<text text-anchor="middle" x="457.5" y="-5.75" font-family="Helvetica,sans-Serif" font-size="10.00">clean_up</text>
</a>
</g>
</g>
<!-- Node1&#45;&gt;Node8 -->
<g id="edge7_Node000001_Node000008" class="edge">
<title>Node1&#45;&gt;Node8</title>
<g id="a_edge7_Node000001_Node000008"><a xlink:title=" ">
<path fill="none" stroke="#63b8ff" d="M596.2,-23.61C560.67,-20 514.14,-15.27 485.29,-12.35"/>
<polygon fill="#63b8ff" stroke="#63b8ff" points="595.5,-27.05 605.8,-24.58 596.2,-20.09 595.5,-27.05"/>
</a>
</g>
</g>
<!-- Node3 -->
<g id="Node000003" class="node">
<title>Node3</title>
<g id="a_Node000003"><a xlink:href="get__next__line_8c.html#aecb6121dbb641eeaf312386aeb3d59b0" target="_top" xlink:title=" ">
<polygon fill="white" stroke="#666666" points="488,-56.25 427,-56.25 427,-37 488,-37 488,-56.25"/>
<text text-anchor="middle" x="457.5" y="-42.75" font-family="Helvetica,sans-Serif" font-size="10.00">create_list</text>
</a>
</g>
</g>
<!-- Node2&#45;&gt;Node3 -->
<g id="edge2_Node000002_Node000003" class="edge">
<title>Node2&#45;&gt;Node3</title>
<g id="a_edge2_Node000002_Node000003"><a xlink:title=" ">
<path fill="none" stroke="#63b8ff" d="M512.33,-47.23C504.35,-47.14 495.94,-47.05 488.19,-46.96"/>
<polygon fill="#63b8ff" stroke="#63b8ff" points="512.01,-50.73 522.05,-47.35 512.09,-43.73 512.01,-50.73"/>
</a>
</g>
</g>
<!-- Node4 -->
<g id="Node000004" class="node">
<title>Node4</title>
<g id="a_Node000004"><a xlink:href="get__next__line_8c.html#a78d68a5f50a6eec0380ce25b4a1bd5b7" target="_top" xlink:title=" ">
<polygon fill="white" stroke="#666666" points="391,-37.25 318,-37.25 318,-18 391,-18 391,-37.25"/>
<text text-anchor="middle" x="354.5" y="-23.75" font-family="Helvetica,sans-Serif" font-size="10.00">get_next_line</text>
</a>
</g>
</g>
<!-- Node3&#45;&gt;Node4 -->
<g id="edge3_Node000003_Node000004" class="edge">
<title>Node3&#45;&gt;Node4</title>
<g id="a_edge3_Node000003_Node000004"><a xlink:title=" ">
<path fill="none" stroke="#63b8ff" d="M415.44,-38.9C407.5,-37.41 399.24,-35.85 391.47,-34.39"/>
<polygon fill="#63b8ff" stroke="#63b8ff" points="414.78,-42.34 425.26,-40.75 416.07,-35.46 414.78,-42.34"/>
</a>
</g>
</g>
<!-- Node5 -->
<g id="Node000005" class="node">
<title>Node5</title>
<g id="a_Node000005"><a xlink:href="parse__main_8c.html#a5d7da6ab7925ffda04b676ef38880723" target="_top" xlink:title="Reading a line from the given .rt file and splitting the given line with the space (&#39; &#39;) delimiter....">
<polygon fill="white" stroke="#666666" points="282,-37.25 186.5,-37.25 186.5,-18 282,-18 282,-37.25"/>
<text text-anchor="middle" x="234.25" y="-23.75" font-family="Helvetica,sans-Serif" font-size="10.00">parse_rt_read_line</text>
</a>
</g>
</g>
<!-- Node4&#45;&gt;Node5 -->
<g id="edge4_Node000004_Node000005" class="edge">
<title>Node4&#45;&gt;Node5</title>
<g id="a_edge4_Node000004_Node000005"><a xlink:title=" ">
<path fill="none" stroke="#63b8ff" d="M306.37,-27.62C298.44,-27.62 290.22,-27.62 282.29,-27.62"/>
<polygon fill="#63b8ff" stroke="#63b8ff" points="306.19,-31.13 316.19,-27.63 306.19,-24.13 306.19,-31.13"/>
</a>
</g>
</g>
<!-- Node6 -->
<g id="Node000006" class="node">
<title>Node6</title>
<g id="a_Node000006"><a xlink:href="parse__main_8c.html#a62c4de2f960942eba61e7de12c387ae4" target="_top" xlink:title="Entry function to parsing .rt file where the file is attempted to be opened, t_parse structure is ini...">
<polygon fill="white" stroke="#666666" points="150.5,-37.25 73,-37.25 73,-18 150.5,-18 150.5,-37.25"/>
<text text-anchor="middle" x="111.75" y="-23.75" font-family="Helvetica,sans-Serif" font-size="10.00">parse_rt_main</text>
</a>
</g>
</g>
<!-- Node5&#45;&gt;Node6 -->
<g id="edge5_Node000005_Node000006" class="edge">
<title>Node5&#45;&gt;Node6</title>
<g id="a_edge5_Node000005_Node000006"><a xlink:title=" ">
<path fill="none" stroke="#63b8ff" d="M174.86,-27.62C166.69,-27.62 158.47,-27.62 150.81,-27.62"/>
<polygon fill="#63b8ff" stroke="#63b8ff" points="174.8,-31.13 184.8,-27.63 174.8,-24.13 174.8,-31.13"/>
</a>
</g>
</g>
<!-- Node7 -->
<g id="Node000007" class="node">
<title>Node7</title>
<g id="a_Node000007"><a xlink:href="mini__ray_8c.html#a0c99d968a34e803d378692bde2e3f18f" target="_top" xlink:title=" ">
<polygon fill="white" stroke="#666666" points="37,-37.25 0,-37.25 0,-18 37,-18 37,-37.25"/>
<text text-anchor="middle" x="18.5" y="-23.75" font-family="Helvetica,sans-Serif" font-size="10.00">main</text>
</a>
</g>
</g>
<!-- Node6&#45;&gt;Node7 -->
<g id="edge6_Node000006_Node000007" class="edge">
<title>Node6&#45;&gt;Node7</title>
<g id="a_edge6_Node000006_Node000007"><a xlink:title=" ">
<path fill="none" stroke="#63b8ff" d="M61.23,-27.62C52.6,-27.62 44.15,-27.62 37.14,-27.62"/>
<polygon fill="#63b8ff" stroke="#63b8ff" points="61.07,-31.13 71.07,-27.63 61.07,-24.13 61.07,-31.13"/>
</a>
</g>
</g>
<!-- Node8&#45;&gt;Node4 -->
<g id="edge8_Node000008_Node000004" class="edge">
<title>Node8&#45;&gt;Node4</title>
<g id="a_edge8_Node000008_Node000004"><a xlink:title=" ">
<path fill="none" stroke="#63b8ff" d="M418.39,-16.42C409.47,-18.01 399.99,-19.7 391.18,-21.27"/>
<polygon fill="#63b8ff" stroke="#63b8ff" points="418.98,-19.87 428.21,-14.67 417.75,-12.98 418.98,-19.87"/>
</a>
</g>
</g>
</g>
</svg>
