<?xml version="1.0" encoding="UTF-8" standalone="no"?>
<!DOCTYPE svg PUBLIC "-//W3C//DTD SVG 1.1//EN"
 "http://www.w3.org/Graphics/SVG/1.1/DTD/svg11.dtd">
<!-- Generated by graphviz version 9.0.0 (20230911.1827)
 -->
<!-- Title: get_next_line Pages: 1 -->
<svg width="414pt" height="214pt"
 viewBox="0.00 0.00 414.00 214.25" xmlns="http://www.w3.org/2000/svg" xmlns:xlink="http://www.w3.org/1999/xlink">
<g id="graph0" class="graph" transform="scale(1 1) rotate(0) translate(4 210.25)">
<title>get_next_line</title>
<!-- Node1 -->
<g id="Node000001" class="node">
<title>Node1</title>
<g id="a_Node000001"><a xlink:title=" ">
<polygon fill="#999999" stroke="#666666" points="73,-112.25 0,-112.25 0,-93 73,-93 73,-112.25"/>
<text text-anchor="middle" x="36.5" y="-98.75" font-family="Helvetica,sans-Serif" font-size="10.00">get_next_line</text>
</a>
</g>
</g>
<!-- Node2 -->
<g id="Node000002" class="node">
<title>Node2</title>
<g id="a_Node000002"><a xlink:href="get__next__line_8c.html#a49f935d849fec7e78b1ca1451f8c4b09" target="_top" xlink:title=" ">
<polygon fill="white" stroke="#666666" points="167,-168.25 112,-168.25 112,-149 167,-149 167,-168.25"/>
<text text-anchor="middle" x="139.5" y="-154.75" font-family="Helvetica,sans-Serif" font-size="10.00">clean_up</text>
</a>
</g>
</g>
<!-- Node1&#45;&gt;Node2 -->
<g id="edge1_Node000001_Node000002" class="edge">
<title>Node1&#45;&gt;Node2</title>
<g id="a_edge1_Node000001_Node000002"><a xlink:title=" ">
<path fill="none" stroke="#63b8ff" d="M55.56,-112.64C70.83,-121.1 92.97,-133.38 110.53,-143.12"/>
<polygon fill="#63b8ff" stroke="#63b8ff" points="108.49,-145.99 118.94,-147.78 111.89,-139.87 108.49,-145.99"/>
</a>
</g>
</g>
<!-- Node5 -->
<g id="Node000005" class="node">
<title>Node5</title>
<g id="a_Node000005"><a xlink:href="get__next__line_8c.html#aecb6121dbb641eeaf312386aeb3d59b0" target="_top" xlink:title=" ">
<polygon fill="white" stroke="#666666" points="170,-112.25 109,-112.25 109,-93 170,-93 170,-112.25"/>
<text text-anchor="middle" x="139.5" y="-98.75" font-family="Helvetica,sans-Serif" font-size="10.00">create_list</text>
</a>
</g>
</g>
<!-- Node1&#45;&gt;Node5 -->
<g id="edge4_Node000001_Node000005" class="edge">
<title>Node1&#45;&gt;Node5</title>
<g id="a_edge4_Node000001_Node000005"><a xlink:title=" ">
<path fill="none" stroke="#63b8ff" d="M73.39,-102.62C81.16,-102.62 89.44,-102.62 97.4,-102.62"/>
<polygon fill="#63b8ff" stroke="#63b8ff" points="97.21,-106.13 107.21,-102.63 97.21,-99.13 97.21,-106.13"/>
</a>
</g>
</g>
<!-- Node8 -->
<g id="Node000008" class="node">
<title>Node8</title>
<g id="a_Node000008"><a xlink:href="get__next__line_8c.html#a17fd275045efafdbcd4de9adef8edcc3" target="_top" xlink:title=" ">
<polygon fill="white" stroke="#666666" points="164.38,-56.25 114.62,-56.25 114.62,-37 164.38,-37 164.38,-56.25"/>
<text text-anchor="middle" x="139.5" y="-42.75" font-family="Helvetica,sans-Serif" font-size="10.00">get_line</text>
</a>
</g>
</g>
<!-- Node1&#45;&gt;Node8 -->
<g id="edge8_Node000001_Node000008" class="edge">
<title>Node1&#45;&gt;Node8</title>
<g id="a_edge8_Node000001_Node000008"><a xlink:title=" ">
<path fill="none" stroke="#63b8ff" d="M55.56,-92.61C70.83,-84.15 92.97,-71.87 110.53,-62.13"/>
<polygon fill="#63b8ff" stroke="#63b8ff" points="111.89,-65.38 118.94,-57.47 108.49,-59.26 111.89,-65.38"/>
</a>
</g>
</g>
<!-- Node3 -->
<g id="Node000003" class="node">
<title>Node3</title>
<g id="a_Node000003"><a xlink:href="get__next__line__utils_8c.html#ae0ecb60a2a0fd07379d979a7d0fe227d" target="_top" xlink:title=" ">
<polygon fill="white" stroke="#666666" points="272.25,-206.25 225.5,-206.25 225.5,-187 272.25,-187 272.25,-206.25"/>
<text text-anchor="middle" x="248.88" y="-192.75" font-family="Helvetica,sans-Serif" font-size="10.00">dealloc</text>
</a>
</g>
</g>
<!-- Node2&#45;&gt;Node3 -->
<g id="edge2_Node000002_Node000003" class="edge">
<title>Node2&#45;&gt;Node3</title>
<g id="a_edge2_Node000002_Node000003"><a xlink:title=" ">
<path fill="none" stroke="#63b8ff" d="M167.32,-168.12C181.61,-173.18 199.33,-179.45 214.51,-184.82"/>
<polygon fill="#63b8ff" stroke="#63b8ff" points="213.01,-188 223.6,-188.03 215.34,-181.4 213.01,-188"/>
</a>
</g>
</g>
<!-- Node4 -->
<g id="Node000004" class="node">
<title>Node4</title>
<g id="a_Node000004"><a xlink:href="get__next__line__utils_8c.html#a908cb7137415fafb0ea78a18987937a6" target="_top" xlink:title=" ">
<polygon fill="white" stroke="#666666" points="406,-149.25 327.75,-149.25 327.75,-130 406,-130 406,-149.25"/>
<text text-anchor="middle" x="366.88" y="-135.75" font-family="Helvetica,sans-Serif" font-size="10.00">find_last_node</text>
</a>
</g>
</g>
<!-- Node2&#45;&gt;Node4 -->
<g id="edge3_Node000002_Node000004" class="edge">
<title>Node2&#45;&gt;Node4</title>
<g id="a_edge3_Node000002_Node000004"><a xlink:title=" ">
<path fill="none" stroke="#63b8ff" d="M167.24,-156.37C203.89,-153.28 270.42,-147.67 316.32,-143.8"/>
<polygon fill="#63b8ff" stroke="#63b8ff" points="316.33,-147.31 326,-142.99 315.74,-140.34 316.33,-147.31"/>
</a>
</g>
</g>
<!-- Node6 -->
<g id="Node000006" class="node">
<title>Node6</title>
<g id="a_Node000006"><a xlink:href="get__next__line_8c.html#a8fc32031a2ff5625b5e5b3ebc79b7372" target="_top" xlink:title=" ">
<polygon fill="white" stroke="#666666" points="272.62,-130.25 225.12,-130.25 225.12,-111 272.62,-111 272.62,-130.25"/>
<text text-anchor="middle" x="248.88" y="-116.75" font-family="Helvetica,sans-Serif" font-size="10.00">append</text>
</a>
</g>
</g>
<!-- Node5&#45;&gt;Node6 -->
<g id="edge5_Node000005_Node000006" class="edge">
<title>Node5&#45;&gt;Node6</title>
<g id="a_edge5_Node000005_Node000006"><a xlink:title=" ">
<path fill="none" stroke="#63b8ff" d="M170.41,-107.64C183.89,-109.9 199.87,-112.58 213.81,-114.91"/>
<polygon fill="#63b8ff" stroke="#63b8ff" points="213,-118.33 223.44,-116.53 214.16,-111.42 213,-118.33"/>
</a>
</g>
</g>
<!-- Node7 -->
<g id="Node000007" class="node">
<title>Node7</title>
<g id="a_Node000007"><a xlink:href="get__next__line__utils_8c.html#a316b3fd324c0e8aff15c1f4c65b2bb5d" target="_top" xlink:title=" ">
<polygon fill="white" stroke="#666666" points="290.62,-93.25 207.12,-93.25 207.12,-74 290.62,-74 290.62,-93.25"/>
<text text-anchor="middle" x="248.88" y="-79.75" font-family="Helvetica,sans-Serif" font-size="10.00">found_new_line</text>
</a>
</g>
</g>
<!-- Node5&#45;&gt;Node7 -->
<g id="edge7_Node000005_Node000007" class="edge">
<title>Node5&#45;&gt;Node7</title>
<g id="a_edge7_Node000005_Node000007"><a xlink:title=" ">
<path fill="none" stroke="#63b8ff" d="M170.41,-97.33C178.26,-95.94 186.97,-94.4 195.62,-92.87"/>
<polygon fill="#63b8ff" stroke="#63b8ff" points="196.16,-96.33 205.4,-91.14 194.94,-89.44 196.16,-96.33"/>
</a>
</g>
</g>
<!-- Node6&#45;&gt;Node4 -->
<g id="edge6_Node000006_Node000004" class="edge">
<title>Node6&#45;&gt;Node4</title>
<g id="a_edge6_Node000006_Node000004"><a xlink:title=" ">
<path fill="none" stroke="#63b8ff" d="M273.07,-124.42C285.5,-126.46 301.33,-129.05 316.37,-131.52"/>
<polygon fill="#63b8ff" stroke="#63b8ff" points="315.72,-134.96 326.16,-133.12 316.85,-128.05 315.72,-134.96"/>
</a>
</g>
</g>
<!-- Node9 -->
<g id="Node000009" class="node">
<title>Node9</title>
<g id="a_Node000009"><a xlink:href="get__next__line__utils_8c.html#aac585256932db60eedc44f6ca81790d5" target="_top" xlink:title=" ">
<polygon fill="white" stroke="#666666" points="275.25,-56.25 222.5,-56.25 222.5,-37 275.25,-37 275.25,-56.25"/>
<text text-anchor="middle" x="248.88" y="-42.75" font-family="Helvetica,sans-Serif" font-size="10.00">copy_str</text>
</a>
</g>
</g>
<!-- Node8&#45;&gt;Node9 -->
<g id="edge9_Node000008_Node000009" class="edge">
<title>Node8&#45;&gt;Node9</title>
<g id="a_edge9_Node000008_Node000009"><a xlink:title=" ">
<path fill="none" stroke="#63b8ff" d="M164.87,-46.62C178.47,-46.62 195.71,-46.62 210.94,-46.62"/>
<polygon fill="#63b8ff" stroke="#63b8ff" points="210.6,-50.13 220.6,-46.63 210.6,-43.13 210.6,-50.13"/>
</a>
</g>
</g>
<!-- Node10 -->
<g id="Node000010" class="node">
<title>Node10</title>
<g id="a_Node000010"><a xlink:href="get__next__line__utils_8c.html#a09290bcc10d3c94431a725962887d6e3" target="_top" xlink:title=" ">
<polygon fill="white" stroke="#666666" points="291.75,-19.25 206,-19.25 206,0 291.75,0 291.75,-19.25"/>
<text text-anchor="middle" x="248.88" y="-5.75" font-family="Helvetica,sans-Serif" font-size="10.00">len_to_new_line</text>
</a>
</g>
</g>
<!-- Node8&#45;&gt;Node10 -->
<g id="edge10_Node000008_Node000010" class="edge">
<title>Node8&#45;&gt;Node10</title>
<g id="a_edge10_Node000008_Node000010"><a xlink:title=" ">
<path fill="none" stroke="#63b8ff" d="M164.87,-38.23C177.59,-33.85 193.48,-28.37 207.94,-23.39"/>
<polygon fill="#63b8ff" stroke="#63b8ff" points="208.9,-26.76 217.21,-20.19 206.62,-20.14 208.9,-26.76"/>
</a>
</g>
</g>
</g>
</svg>
