<?xml version="1.0" encoding="UTF-8" standalone="no"?>
<!DOCTYPE svg PUBLIC "-//W3C//DTD SVG 1.1//EN"
 "http://www.w3.org/Graphics/SVG/1.1/DTD/svg11.dtd">
<!-- Generated by graphviz version 9.0.0 (20230911.1827)
 -->
<!-- Title: /github/workspace/SRC/CORE/INIT/init_mlx.c Pages: 1 -->
<svg width="367pt" height="204pt"
 viewBox="0.00 0.00 366.62 204.25" xmlns="http://www.w3.org/2000/svg" xmlns:xlink="http://www.w3.org/1999/xlink">
<g id="graph0" class="graph" transform="scale(1 1) rotate(0) translate(4 200.25)">
<title>/github/workspace/SRC/CORE/INIT/init_mlx.c</title>
<!-- Node1 -->
<g id="Node000001" class="node">
<title>Node1</title>
<g id="a_Node000001"><a xlink:title=" ">
<polygon fill="#999999" stroke="#666666" points="258.62,-196.25 139.88,-196.25 139.88,-165.75 258.62,-165.75 258.62,-196.25"/>
<text text-anchor="start" x="147.88" y="-182.75" font-family="Helvetica,sans-Serif" font-size="10.00">/github/workspace/SRC</text>
<text text-anchor="middle" x="199.25" y="-171.5" font-family="Helvetica,sans-Serif" font-size="10.00">/CORE/INIT/init_mlx.c</text>
</a>
</g>
</g>
<!-- Node2 -->
<g id="Node000002" class="node">
<title>Node2</title>
<g id="a_Node000002"><a xlink:href="core__init_8h.html" target="_top" xlink:title=" ">
<polygon fill="white" stroke="#666666" points="185.38,-129.75 125.12,-129.75 125.12,-110.5 185.38,-110.5 185.38,-129.75"/>
<text text-anchor="middle" x="155.25" y="-116.25" font-family="Helvetica,sans-Serif" font-size="10.00">core_init.h</text>
</a>
</g>
</g>
<!-- Node1&#45;&gt;Node2 -->
<g id="edge1_Node000001_Node000002" class="edge">
<title>Node1&#45;&gt;Node2</title>
<g id="a_edge1_Node000001_Node000002"><a xlink:title=" ">
<path fill="none" stroke="#63b8ff" d="M188.37,-165.45C182.45,-157.52 175.06,-147.63 168.77,-139.21"/>
<polygon fill="#63b8ff" stroke="#63b8ff" points="171.73,-137.33 162.94,-131.41 166.12,-141.52 171.73,-137.33"/>
</a>
</g>
</g>
<!-- Node10 -->
<g id="Node000010" class="node">
<title>Node10</title>
<g id="a_Node000010"><a xlink:href="core__cleanup_8h.html" target="_top" xlink:title=" ">
<polygon fill="white" stroke="#666666" points="284.88,-129.75 203.62,-129.75 203.62,-110.5 284.88,-110.5 284.88,-129.75"/>
<text text-anchor="middle" x="244.25" y="-116.25" font-family="Helvetica,sans-Serif" font-size="10.00">core_cleanup.h</text>
</a>
</g>
</g>
<!-- Node1&#45;&gt;Node10 -->
<g id="edge9_Node000001_Node000010" class="edge">
<title>Node1&#45;&gt;Node10</title>
<g id="a_edge9_Node000001_Node000010"><a xlink:title=" ">
<path fill="none" stroke="#63b8ff" d="M210.37,-165.45C216.43,-157.52 223.99,-147.63 230.43,-139.21"/>
<polygon fill="#63b8ff" stroke="#63b8ff" points="233.1,-141.47 236.39,-131.4 227.54,-137.22 233.1,-141.47"/>
</a>
</g>
</g>
<!-- Node3 -->
<g id="Node000003" class="node">
<title>Node3</title>
<g id="a_Node000003"><a xlink:href="types_8h.html" target="_top" xlink:title=" ">
<polygon fill="white" stroke="#666666" points="263.62,-74.5 216.88,-74.5 216.88,-55.25 263.62,-55.25 263.62,-74.5"/>
<text text-anchor="middle" x="240.25" y="-61" font-family="Helvetica,sans-Serif" font-size="10.00">types.h</text>
</a>
</g>
</g>
<!-- Node2&#45;&gt;Node3 -->
<g id="edge2_Node000002_Node000003" class="edge">
<title>Node2&#45;&gt;Node3</title>
<g id="a_edge2_Node000002_Node000003"><a xlink:title=" ">
<path fill="none" stroke="#63b8ff" d="M169.67,-110.09C182.37,-102.14 201.12,-90.39 216.11,-81"/>
<polygon fill="#63b8ff" stroke="#63b8ff" points="217.86,-84.03 224.48,-75.76 214.15,-78.1 217.86,-84.03"/>
</a>
</g>
</g>
<!-- Node7 -->
<g id="Node000007" class="node">
<title>Node7</title>
<g id="a_Node000007"><a xlink:title=" ">
<polygon fill="#e0e0e0" stroke="#999999" points="38.5,-74.5 0,-74.5 0,-55.25 38.5,-55.25 38.5,-74.5"/>
<text text-anchor="middle" x="19.25" y="-61" font-family="Helvetica,sans-Serif" font-size="10.00">mlx.h</text>
</a>
</g>
</g>
<!-- Node2&#45;&gt;Node7 -->
<g id="edge6_Node000002_Node000007" class="edge">
<title>Node2&#45;&gt;Node7</title>
<g id="a_edge6_Node000002_Node000007"><a xlink:title=" ">
<path fill="none" stroke="#63b8ff" d="M132.18,-110.09C109.44,-101.19 74.57,-87.54 49.6,-77.76"/>
<polygon fill="#63b8ff" stroke="#63b8ff" points="50.89,-74.51 40.31,-74.12 48.34,-81.02 50.89,-74.51"/>
</a>
</g>
</g>
<!-- Node8 -->
<g id="Node000008" class="node">
<title>Node8</title>
<g id="a_Node000008"><a xlink:title=" ">
<polygon fill="#e0e0e0" stroke="#999999" points="101.88,-74.5 56.62,-74.5 56.62,-55.25 101.88,-55.25 101.88,-74.5"/>
<text text-anchor="middle" x="79.25" y="-61" font-family="Helvetica,sans-Serif" font-size="10.00">errno.h</text>
</a>
</g>
</g>
<!-- Node2&#45;&gt;Node8 -->
<g id="edge7_Node000002_Node000008" class="edge">
<title>Node2&#45;&gt;Node8</title>
<g id="a_edge7_Node000002_Node000008"><a xlink:title=" ">
<path fill="none" stroke="#63b8ff" d="M142.36,-110.09C131.22,-102.29 114.88,-90.84 101.61,-81.54"/>
<polygon fill="#63b8ff" stroke="#63b8ff" points="103.64,-78.69 93.45,-75.82 99.63,-84.43 103.64,-78.69"/>
</a>
</g>
</g>
<!-- Node9 -->
<g id="Node000009" class="node">
<title>Node9</title>
<g id="a_Node000009"><a xlink:href="window__size_8h.html" target="_top" xlink:title=" ">
<polygon fill="white" stroke="#666666" points="198.75,-74.5 119.75,-74.5 119.75,-55.25 198.75,-55.25 198.75,-74.5"/>
<text text-anchor="middle" x="159.25" y="-61" font-family="Helvetica,sans-Serif" font-size="10.00">window_size.h</text>
</a>
</g>
</g>
<!-- Node2&#45;&gt;Node9 -->
<g id="edge8_Node000002_Node000009" class="edge">
<title>Node2&#45;&gt;Node9</title>
<g id="a_edge8_Node000002_Node000009"><a xlink:title=" ">
<path fill="none" stroke="#63b8ff" d="M155.91,-110.33C156.41,-103.74 157.1,-94.46 157.73,-86.07"/>
<polygon fill="#63b8ff" stroke="#63b8ff" points="161.2,-86.6 158.46,-76.37 154.22,-86.08 161.2,-86.6"/>
</a>
</g>
</g>
<!-- Node4 -->
<g id="Node000004" class="node">
<title>Node4</title>
<g id="a_Node000004"><a xlink:title=" ">
<polygon fill="#e0e0e0" stroke="#999999" points="198.75,-19.25 143.75,-19.25 143.75,0 198.75,0 198.75,-19.25"/>
<text text-anchor="middle" x="171.25" y="-5.75" font-family="Helvetica,sans-Serif" font-size="10.00">stdbool.h</text>
</a>
</g>
</g>
<!-- Node3&#45;&gt;Node4 -->
<g id="edge3_Node000003_Node000004" class="edge">
<title>Node3&#45;&gt;Node4</title>
<g id="a_edge3_Node000003_Node000004"><a xlink:title=" ">
<path fill="none" stroke="#63b8ff" d="M228.55,-54.84C218.47,-47.07 203.71,-35.67 191.69,-26.4"/>
<polygon fill="#63b8ff" stroke="#63b8ff" points="194.04,-23.79 183.98,-20.45 189.76,-29.33 194.04,-23.79"/>
</a>
</g>
</g>
<!-- Node5 -->
<g id="Node000005" class="node">
<title>Node5</title>
<g id="a_Node000005"><a xlink:title=" ">
<polygon fill="#e0e0e0" stroke="#999999" points="263.62,-19.25 216.88,-19.25 216.88,0 263.62,0 263.62,-19.25"/>
<text text-anchor="middle" x="240.25" y="-5.75" font-family="Helvetica,sans-Serif" font-size="10.00">stdlib.h</text>
</a>
</g>
</g>
<!-- Node3&#45;&gt;Node5 -->
<g id="edge4_Node000003_Node000005" class="edge">
<title>Node3&#45;&gt;Node5</title>
<g id="a_edge4_Node000003_Node000005"><a xlink:title=" ">
<path fill="none" stroke="#63b8ff" d="M240.25,-55.08C240.25,-48.57 240.25,-39.42 240.25,-31.12"/>
<polygon fill="#63b8ff" stroke="#63b8ff" points="243.75,-31.12 240.25,-21.12 236.75,-31.12 243.75,-31.12"/>
</a>
</g>
</g>
<!-- Node6 -->
<g id="Node000006" class="node">
<title>Node6</title>
<g id="a_Node000006"><a xlink:title=" ">
<polygon fill="#e0e0e0" stroke="#999999" points="328.62,-19.25 281.88,-19.25 281.88,0 328.62,0 328.62,-19.25"/>
<text text-anchor="middle" x="305.25" y="-5.75" font-family="Helvetica,sans-Serif" font-size="10.00">limits.h</text>
</a>
</g>
</g>
<!-- Node3&#45;&gt;Node6 -->
<g id="edge5_Node000003_Node000006" class="edge">
<title>Node3&#45;&gt;Node6</title>
<g id="a_edge5_Node000003_Node000006"><a xlink:title=" ">
<path fill="none" stroke="#63b8ff" d="M251.28,-54.84C260.67,-47.15 274.4,-35.9 285.66,-26.68"/>
<polygon fill="#63b8ff" stroke="#63b8ff" points="287.7,-29.53 293.22,-20.48 283.26,-24.11 287.7,-29.53"/>
</a>
</g>
</g>
<!-- Node10&#45;&gt;Node3 -->
<g id="edge11_Node000010_Node000003" class="edge">
<title>Node10&#45;&gt;Node3</title>
<g id="a_edge11_Node000010_Node000003"><a xlink:title=" ">
<path fill="none" stroke="#63b8ff" d="M243.59,-110.33C243.09,-103.74 242.4,-94.46 241.77,-86.07"/>
<polygon fill="#63b8ff" stroke="#63b8ff" points="245.28,-86.08 241.04,-76.37 238.3,-86.6 245.28,-86.08"/>
</a>
</g>
</g>
<!-- Node11 -->
<g id="Node000011" class="node">
<title>Node11</title>
<g id="a_Node000011"><a xlink:title=" ">
<polygon fill="#e0e0e0" stroke="#999999" points="358.62,-74.5 281.88,-74.5 281.88,-55.25 358.62,-55.25 358.62,-74.5"/>
<text text-anchor="middle" x="320.25" y="-61" font-family="Helvetica,sans-Serif" font-size="10.00">X11/keysym.h</text>
</a>
</g>
</g>
<!-- Node10&#45;&gt;Node11 -->
<g id="edge10_Node000010_Node000011" class="edge">
<title>Node10&#45;&gt;Node11</title>
<g id="a_edge10_Node000010_Node000011"><a xlink:title=" ">
<path fill="none" stroke="#63b8ff" d="M257.14,-110.09C268.28,-102.29 284.62,-90.84 297.89,-81.54"/>
<polygon fill="#63b8ff" stroke="#63b8ff" points="299.87,-84.43 306.05,-75.82 295.86,-78.69 299.87,-84.43"/>
</a>
</g>
</g>
</g>
</svg>
