<?xml version="1.0" encoding="UTF-8" standalone="no"?>
<!DOCTYPE svg PUBLIC "-//W3C//DTD SVG 1.1//EN"
 "http://www.w3.org/Graphics/SVG/1.1/DTD/svg11.dtd">
<!-- Generated by graphviz version 9.0.0 (20230911.1827)
 -->
<!-- Title: ft_isalnum Pages: 1 -->
<svg width="163pt" height="64pt"
 viewBox="0.00 0.00 163.00 64.25" xmlns="http://www.w3.org/2000/svg" xmlns:xlink="http://www.w3.org/1999/xlink">
<g id="graph0" class="graph" transform="scale(1 1) rotate(0) translate(4 60.25)">
<title>ft_isalnum</title>
<!-- Node1 -->
<g id="Node000001" class="node">
<title>Node1</title>
<g id="a_Node000001"><a xlink:title=" ">
<polygon fill="#999999" stroke="#666666" points="61,-37.25 0,-37.25 0,-18 61,-18 61,-37.25"/>
<text text-anchor="middle" x="30.5" y="-23.75" font-family="Helvetica,sans-Serif" font-size="10.00">ft_isalnum</text>
</a>
</g>
</g>
<!-- Node2 -->
<g id="Node000002" class="node">
<title>Node2</title>
<g id="a_Node000002"><a xlink:href="LIBFT_2ft__isalpha_8c.html#ac283963beaa3b8c7d09b78851cda297e" target="_top" xlink:title=" ">
<polygon fill="white" stroke="#666666" points="155,-56.25 97,-56.25 97,-37 155,-37 155,-56.25"/>
<text text-anchor="middle" x="126" y="-42.75" font-family="Helvetica,sans-Serif" font-size="10.00">ft_isalpha</text>
</a>
</g>
</g>
<!-- Node1&#45;&gt;Node2 -->
<g id="edge1_Node000001_Node000002" class="edge">
<title>Node1&#45;&gt;Node2</title>
<g id="a_edge1_Node000001_Node000002"><a xlink:title=" ">
<path fill="none" stroke="#63b8ff" d="M61.34,-33.69C69.04,-35.25 77.45,-36.96 85.56,-38.61"/>
<polygon fill="#63b8ff" stroke="#63b8ff" points="84.74,-42.01 95.23,-40.58 86.13,-35.15 84.74,-42.01"/>
</a>
</g>
</g>
<!-- Node3 -->
<g id="Node000003" class="node">
<title>Node3</title>
<g id="a_Node000003"><a xlink:href="LIBFT_2ft__isdigit_8c.html#a2cf15b8a1a277d1e2ce3654101a2003d" target="_top" xlink:title=" ">
<polygon fill="white" stroke="#666666" points="152.38,-19.25 99.62,-19.25 99.62,0 152.38,0 152.38,-19.25"/>
<text text-anchor="middle" x="126" y="-5.75" font-family="Helvetica,sans-Serif" font-size="10.00">ft_isdigit</text>
</a>
</g>
</g>
<!-- Node1&#45;&gt;Node3 -->
<g id="edge2_Node000001_Node000003" class="edge">
<title>Node1&#45;&gt;Node3</title>
<g id="a_edge2_Node000001_Node000003"><a xlink:title=" ">
<path fill="none" stroke="#63b8ff" d="M61.34,-21.88C69.81,-20.25 79.14,-18.45 87.99,-16.75"/>
<polygon fill="#63b8ff" stroke="#63b8ff" points="88.57,-20.2 97.73,-14.87 87.25,-13.33 88.57,-20.2"/>
</a>
</g>
</g>
</g>
</svg>
