<?xml version="1.0" encoding="UTF-8" standalone="no"?>
<!DOCTYPE svg PUBLIC "-//W3C//DTD SVG 1.1//EN"
 "http://www.w3.org/Graphics/SVG/1.1/DTD/svg11.dtd">
<!-- Generated by graphviz version 9.0.0 (20230911.1827)
 -->
<!-- Title: ft_isalpha Pages: 1 -->
<svg width="1088pt" height="286pt"
 viewBox="0.00 0.00 1088.25 286.25" xmlns="http://www.w3.org/2000/svg" xmlns:xlink="http://www.w3.org/1999/xlink">
<g id="graph0" class="graph" transform="scale(1 1) rotate(0) translate(4 282.25)">
<title>ft_isalpha</title>
<!-- Node1 -->
<g id="Node000001" class="node">
<title>Node1</title>
<g id="a_Node000001"><a xlink:title=" ">
<polygon fill="#999999" stroke="#666666" points="1080.25,-148.25 1022.25,-148.25 1022.25,-129 1080.25,-129 1080.25,-148.25"/>
<text text-anchor="middle" x="1051.25" y="-134.75" font-family="Helvetica,sans-Serif" font-size="10.00">ft_isalpha</text>
</a>
</g>
</g>
<!-- Node2 -->
<g id="Node000002" class="node">
<title>Node2</title>
<g id="a_Node000002"><a xlink:href="LIBFT_2ft__isalnum_8c.html#a9c2c3821ea43ebdf97de07b123503f8b" target="_top" xlink:title=" ">
<polygon fill="white" stroke="#666666" points="986.25,-129.25 925.25,-129.25 925.25,-110 986.25,-110 986.25,-129.25"/>
<text text-anchor="middle" x="955.75" y="-115.75" font-family="Helvetica,sans-Serif" font-size="10.00">ft_isalnum</text>
</a>
</g>
</g>
<!-- Node1&#45;&gt;Node2 -->
<g id="edge1_Node000001_Node000002" class="edge">
<title>Node1&#45;&gt;Node2</title>
<g id="a_edge1_Node000001_Node000002"><a xlink:title=" ">
<path fill="none" stroke="#63b8ff" d="M1010.79,-130.61C1002.68,-128.96 994.28,-127.25 986.58,-125.69"/>
<polygon fill="#63b8ff" stroke="#63b8ff" points="1009.96,-134.01 1020.46,-132.57 1011.36,-127.15 1009.96,-134.01"/>
</a>
</g>
</g>
<!-- Node3 -->
<g id="Node000003" class="node">
<title>Node3</title>
<g id="a_Node000003"><a xlink:href="ft__strval_8c.html#adc216c7cf83a710b028bd1501e3d4e6b" target="_top" xlink:title="Checks if a given string consists of valid characters.">
<polygon fill="white" stroke="#666666" points="889.25,-148.25 838,-148.25 838,-129 889.25,-129 889.25,-148.25"/>
<text text-anchor="middle" x="863.62" y="-134.75" font-family="Helvetica,sans-Serif" font-size="10.00">ft_strval</text>
</a>
</g>
</g>
<!-- Node1&#45;&gt;Node3 -->
<g id="edge45_Node000001_Node000003" class="edge">
<title>Node1&#45;&gt;Node3</title>
<g id="a_edge45_Node000001_Node000003"><a xlink:title=" ">
<path fill="none" stroke="#63b8ff" d="M1010.79,-138.62C974.1,-138.62 920.58,-138.62 889.51,-138.62"/>
<polygon fill="#63b8ff" stroke="#63b8ff" points="1010.54,-142.13 1020.54,-138.63 1010.54,-135.13 1010.54,-142.13"/>
</a>
</g>
</g>
<!-- Node2&#45;&gt;Node3 -->
<g id="edge2_Node000002_Node000003" class="edge">
<title>Node2&#45;&gt;Node3</title>
<g id="a_edge2_Node000002_Node000003"><a xlink:title=" ">
<path fill="none" stroke="#63b8ff" d="M913.89,-128.24C905.58,-129.99 897.08,-131.78 889.54,-133.37"/>
<polygon fill="#63b8ff" stroke="#63b8ff" points="914.45,-131.7 923.51,-126.21 913,-124.85 914.45,-131.7"/>
</a>
</g>
</g>
<!-- Node4 -->
<g id="Node000004" class="node">
<title>Node4</title>
<g id="a_Node000004"><a xlink:href="parse__assign__vec__utils_8c.html#ab8e92dfaa96787a8924706eb0177af9c" target="_top" xlink:title=" ">
<polygon fill="white" stroke="#666666" points="790.38,-278.25 708.38,-278.25 708.38,-259 790.38,-259 790.38,-278.25"/>
<text text-anchor="middle" x="749.38" y="-264.75" font-family="Helvetica,sans-Serif" font-size="10.00">is_valid_format</text>
</a>
</g>
</g>
<!-- Node3&#45;&gt;Node4 -->
<g id="edge3_Node000003_Node000004" class="edge">
<title>Node3&#45;&gt;Node4</title>
<g id="a_edge3_Node000003_Node000004"><a xlink:title=" ">
<path fill="none" stroke="#63b8ff" d="M856.54,-159.36C848.17,-184.37 830.8,-226.12 802,-250.62 798.31,-253.76 794.05,-256.36 789.58,-258.52"/>
<polygon fill="#63b8ff" stroke="#63b8ff" points="859.82,-160.6 859.48,-150.01 853.14,-158.5 859.82,-160.6"/>
</a>
</g>
</g>
<!-- Node13 -->
<g id="Node000013" class="node">
<title>Node13</title>
<g id="a_Node000013"><a xlink:href="parse__validate__obj__utils_8c.html#afc0fb046c4f491b01a17dc19ff7e07ac" target="_top" xlink:title=" ">
<polygon fill="white" stroke="#666666" points="794.12,-204.25 704.62,-204.25 704.62,-185 794.12,-185 794.12,-204.25"/>
<text text-anchor="middle" x="749.38" y="-190.75" font-family="Helvetica,sans-Serif" font-size="10.00">validate_ambient</text>
</a>
</g>
</g>
<!-- Node3&#45;&gt;Node13 -->
<g id="edge14_Node000003_Node000013" class="edge">
<title>Node3&#45;&gt;Node13</title>
<g id="a_edge14_Node000003_Node000013"><a xlink:title=" ">
<path fill="none" stroke="#63b8ff" d="M839.38,-154.91C828.38,-162.17 814.86,-170.45 802,-176.62 795.92,-179.54 789.25,-182.23 782.77,-184.58"/>
<polygon fill="#63b8ff" stroke="#63b8ff" points="841.11,-157.97 847.44,-149.47 837.19,-152.17 841.11,-157.97"/>
</a>
</g>
</g>
<!-- Node18 -->
<g id="Node000018" class="node">
<title>Node18</title>
<g id="a_Node000018"><a xlink:href="parse__validate__obj__utils_8c.html#addac7b2e5dfd2ee9efe59f688946f39b" target="_top" xlink:title=" ">
<polygon fill="white" stroke="#666666" points="793,-167.25 705.75,-167.25 705.75,-148 793,-148 793,-167.25"/>
<text text-anchor="middle" x="749.38" y="-153.75" font-family="Helvetica,sans-Serif" font-size="10.00">validate_camera</text>
</a>
</g>
</g>
<!-- Node3&#45;&gt;Node18 -->
<g id="edge25_Node000003_Node000018" class="edge">
<title>Node3&#45;&gt;Node18</title>
<g id="a_edge25_Node000003_Node000018"><a xlink:title=" ">
<path fill="none" stroke="#63b8ff" d="M826.37,-144.76C815.83,-146.55 804.21,-148.51 793.31,-150.36"/>
<polygon fill="#63b8ff" stroke="#63b8ff" points="826.95,-148.21 836.22,-143.09 825.78,-141.31 826.95,-148.21"/>
</a>
</g>
</g>
<!-- Node19 -->
<g id="Node000019" class="node">
<title>Node19</title>
<g id="a_Node000019"><a xlink:href="parse__validate__obj__utils_8c.html#a578190cd0dc27381815b6d4d98c65168" target="_top" xlink:title=" ">
<polygon fill="white" stroke="#666666" points="793.38,-130.25 705.38,-130.25 705.38,-111 793.38,-111 793.38,-130.25"/>
<text text-anchor="middle" x="749.38" y="-116.75" font-family="Helvetica,sans-Serif" font-size="10.00">validate_cylinder</text>
</a>
</g>
</g>
<!-- Node3&#45;&gt;Node19 -->
<g id="edge27_Node000003_Node000019" class="edge">
<title>Node3&#45;&gt;Node19</title>
<g id="a_edge27_Node000003_Node000019"><a xlink:title=" ">
<path fill="none" stroke="#63b8ff" d="M826.48,-132.83C816.06,-131.16 804.57,-129.32 793.75,-127.58"/>
<polygon fill="#63b8ff" stroke="#63b8ff" points="825.79,-136.26 836.22,-134.39 826.9,-129.35 825.79,-136.26"/>
</a>
</g>
</g>
<!-- Node20 -->
<g id="Node000020" class="node">
<title>Node20</title>
<g id="a_Node000020"><a xlink:href="parse__assign__coord__utils_8c.html#a71d2eb8bad13d888dca97ba273b97aec" target="_top" xlink:title=" ">
<polygon fill="white" stroke="#666666" points="802,-241.25 696.75,-241.25 696.75,-222 802,-222 802,-241.25"/>
<text text-anchor="middle" x="749.38" y="-227.75" font-family="Helvetica,sans-Serif" font-size="10.00">validate_input_string</text>
</a>
</g>
</g>
<!-- Node3&#45;&gt;Node20 -->
<g id="edge29_Node000003_Node000020" class="edge">
<title>Node3&#45;&gt;Node20</title>
<g id="a_edge29_Node000003_Node000020"><a xlink:title=" ">
<path fill="none" stroke="#63b8ff" d="M851.3,-158.05C840.56,-174.91 822.98,-198.86 802,-213.62 797.58,-216.74 792.56,-219.36 787.44,-221.55"/>
<polygon fill="#63b8ff" stroke="#63b8ff" points="854.04,-160.27 856.28,-149.91 848.07,-156.61 854.04,-160.27"/>
</a>
</g>
</g>
<!-- Node22 -->
<g id="Node000022" class="node">
<title>Node22</title>
<g id="a_Node000022"><a xlink:href="parse__validate__obj__utils_8c.html#a75294ff609499aa907ba8c285855f720" target="_top" xlink:title=" ">
<polygon fill="white" stroke="#666666" points="785.88,-93.25 712.88,-93.25 712.88,-74 785.88,-74 785.88,-93.25"/>
<text text-anchor="middle" x="749.38" y="-79.75" font-family="Helvetica,sans-Serif" font-size="10.00">validate_light</text>
</a>
</g>
</g>
<!-- Node3&#45;&gt;Node22 -->
<g id="edge35_Node000003_Node000022" class="edge">
<title>Node3&#45;&gt;Node22</title>
<g id="a_edge35_Node000003_Node000022"><a xlink:title=" ">
<path fill="none" stroke="#63b8ff" d="M838.55,-122.31C827.69,-115.37 814.5,-107.54 802,-101.62 795.91,-98.74 789.22,-96.08 782.74,-93.73"/>
<polygon fill="#63b8ff" stroke="#63b8ff" points="836.62,-125.22 846.9,-127.76 840.45,-119.36 836.62,-125.22"/>
</a>
</g>
</g>
<!-- Node23 -->
<g id="Node000023" class="node">
<title>Node23</title>
<g id="a_Node000023"><a xlink:href="parse__validate__assign__rgb__utils_8c.html#a61e41bb10d4cefab87e662ece1e0b5ca" target="_top" xlink:title=" ">
<polygon fill="white" stroke="#666666" points="798.25,-19.25 700.5,-19.25 700.5,0 798.25,0 798.25,-19.25"/>
<text text-anchor="middle" x="749.38" y="-5.75" font-family="Helvetica,sans-Serif" font-size="10.00">validate_rgb_string</text>
</a>
</g>
</g>
<!-- Node3&#45;&gt;Node23 -->
<g id="edge37_Node000003_Node000023" class="edge">
<title>Node3&#45;&gt;Node23</title>
<g id="a_edge37_Node000003_Node000023"><a xlink:title=" ">
<path fill="none" stroke="#63b8ff" d="M856.49,-118.08C848.07,-93.28 830.64,-51.91 802,-27.62 798.31,-24.49 794.04,-21.9 789.57,-19.74"/>
<polygon fill="#63b8ff" stroke="#63b8ff" points="853.07,-118.87 859.44,-127.33 859.73,-116.74 853.07,-118.87"/>
</a>
</g>
</g>
<!-- Node25 -->
<g id="Node000025" class="node">
<title>Node25</title>
<g id="a_Node000025"><a xlink:href="parse__validate__obj__utils_8c.html#ad58bbd3ad3f3f914989f3c0bc27cff8e" target="_top" xlink:title=" ">
<polygon fill="white" stroke="#666666" points="791.5,-56.25 707.25,-56.25 707.25,-37 791.5,-37 791.5,-56.25"/>
<text text-anchor="middle" x="749.38" y="-42.75" font-family="Helvetica,sans-Serif" font-size="10.00">validate_sphere</text>
</a>
</g>
</g>
<!-- Node3&#45;&gt;Node25 -->
<g id="edge43_Node000003_Node000025" class="edge">
<title>Node3&#45;&gt;Node25</title>
<g id="a_edge43_Node000003_Node000025"><a xlink:title=" ">
<path fill="none" stroke="#63b8ff" d="M851.06,-119.19C840.27,-102.58 822.74,-79.12 802,-64.62 797.57,-61.53 792.55,-58.91 787.42,-56.73"/>
<polygon fill="#63b8ff" stroke="#63b8ff" points="847.81,-120.6 856.08,-127.23 853.75,-116.89 847.81,-120.6"/>
</a>
</g>
</g>
<!-- Node5 -->
<g id="Node000005" class="node">
<title>Node5</title>
<g id="a_Node000005"><a xlink:href="parse__utils_8c.html#a70a5145ad572a59954c71984bf73ca01" target="_top" xlink:title=" ">
<polygon fill="white" stroke="#666666" points="656.62,-241.25 561.88,-241.25 561.88,-222 656.62,-222 656.62,-241.25"/>
<text text-anchor="middle" x="609.25" y="-227.75" font-family="Helvetica,sans-Serif" font-size="10.00">parse_assign_vec</text>
</a>
</g>
</g>
<!-- Node4&#45;&gt;Node5 -->
<g id="edge4_Node000004_Node000005" class="edge">
<title>Node4&#45;&gt;Node5</title>
<g id="a_edge4_Node000004_Node000005"><a xlink:title=" ">
<path fill="none" stroke="#63b8ff" d="M699.77,-255.6C682.76,-251.05 663.93,-246 647.95,-241.72"/>
<polygon fill="#63b8ff" stroke="#63b8ff" points="698.6,-258.92 709.17,-258.12 700.42,-252.15 698.6,-258.92"/>
</a>
</g>
</g>
<!-- Node6 -->
<g id="Node000006" class="node">
<title>Node6</title>
<g id="a_Node000006"><a xlink:href="parse__camera__light_8c.html#a00b9b6a4aadecaaf341d2fc409582b39" target="_top" xlink:title=" ">
<polygon fill="white" stroke="#666666" points="520.62,-241.25 443.12,-241.25 443.12,-222 520.62,-222 520.62,-241.25"/>
<text text-anchor="middle" x="481.88" y="-227.75" font-family="Helvetica,sans-Serif" font-size="10.00">parse_camera</text>
</a>
</g>
</g>
<!-- Node5&#45;&gt;Node6 -->
<g id="edge5_Node000005_Node000006" class="edge">
<title>Node5&#45;&gt;Node6</title>
<g id="a_edge5_Node000005_Node000006"><a xlink:title=" ">
<path fill="none" stroke="#63b8ff" d="M550.1,-231.62C540.22,-231.62 530.19,-231.62 521,-231.62"/>
<polygon fill="#63b8ff" stroke="#63b8ff" points="550.05,-235.13 560.05,-231.63 550.05,-228.13 550.05,-235.13"/>
</a>
</g>
</g>
<!-- Node11 -->
<g id="Node000011" class="node">
<title>Node11</title>
<g id="a_Node000011"><a xlink:href="parse__objects_8c.html#a438a08a219ba336c395096067e52bb1b" target="_top" xlink:title=" ">
<polygon fill="white" stroke="#666666" points="521,-204.25 442.75,-204.25 442.75,-185 521,-185 521,-204.25"/>
<text text-anchor="middle" x="481.88" y="-190.75" font-family="Helvetica,sans-Serif" font-size="10.00">parse_cylinder</text>
</a>
</g>
</g>
<!-- Node5&#45;&gt;Node11 -->
<g id="edge10_Node000005_Node000011" class="edge">
<title>Node5&#45;&gt;Node11</title>
<g id="a_edge10_Node000005_Node000011"><a xlink:title=" ">
<path fill="none" stroke="#63b8ff" d="M563.24,-218.34C548.04,-213.86 531.32,-208.92 517.09,-204.72"/>
<polygon fill="#63b8ff" stroke="#63b8ff" points="561.96,-221.61 572.54,-221.09 563.94,-214.9 561.96,-221.61"/>
</a>
</g>
</g>
<!-- Node12 -->
<g id="Node000012" class="node">
<title>Node12</title>
<g id="a_Node000012"><a xlink:href="parse__objects_8c.html#a7e641794acee51578d8539e361635c47" target="_top" xlink:title=" ">
<polygon fill="white" stroke="#666666" points="516.12,-167.25 447.62,-167.25 447.62,-148 516.12,-148 516.12,-167.25"/>
<text text-anchor="middle" x="481.88" y="-153.75" font-family="Helvetica,sans-Serif" font-size="10.00">parse_plane</text>
</a>
</g>
</g>
<!-- Node5&#45;&gt;Node12 -->
<g id="edge12_Node000005_Node000012" class="edge">
<title>Node5&#45;&gt;Node12</title>
<g id="a_edge12_Node000005_Node000012"><a xlink:title=" ">
<path fill="none" stroke="#63b8ff" d="M563.33,-216.92C561.4,-215.89 559.53,-214.79 557.75,-213.62 538.26,-200.93 540.64,-189.2 521.75,-175.62 517.64,-172.67 512.97,-170.02 508.33,-167.72"/>
<polygon fill="#63b8ff" stroke="#63b8ff" points="561.36,-219.86 571.9,-220.95 564.34,-213.53 561.36,-219.86"/>
</a>
</g>
</g>
<!-- Node7 -->
<g id="Node000007" class="node">
<title>Node7</title>
<g id="a_Node000007"><a xlink:href="parse__main_8c.html#a92aa268ea4b3d5c808364ca73d913cbe" target="_top" xlink:title=" ">
<polygon fill="white" stroke="#666666" points="406,-148.25 318,-148.25 318,-129 406,-129 406,-148.25"/>
<text text-anchor="middle" x="362" y="-134.75" font-family="Helvetica,sans-Serif" font-size="10.00">parse_func_redir</text>
</a>
</g>
</g>
<!-- Node6&#45;&gt;Node7 -->
<g id="edge6_Node000006_Node000007" class="edge">
<title>Node6&#45;&gt;Node7</title>
<g id="a_edge6_Node000006_Node000007"><a xlink:title=" ">
<path fill="none" stroke="#63b8ff" d="M446.18,-216.29C444.75,-215.43 443.35,-214.54 442,-213.62 413.37,-194.18 385.3,-164.21 371.62,-148.7"/>
<polygon fill="#63b8ff" stroke="#63b8ff" points="444.16,-219.17 454.62,-220.84 447.48,-213.01 444.16,-219.17"/>
</a>
</g>
</g>
<!-- Node8 -->
<g id="Node000008" class="node">
<title>Node8</title>
<g id="a_Node000008"><a xlink:href="parse__main_8c.html#a5d7da6ab7925ffda04b676ef38880723" target="_top" xlink:title="Reading a line from the given .rt file and splitting the given line with the space (&#39; &#39;) delimiter....">
<polygon fill="white" stroke="#666666" points="282,-148.25 186.5,-148.25 186.5,-129 282,-129 282,-148.25"/>
<text text-anchor="middle" x="234.25" y="-134.75" font-family="Helvetica,sans-Serif" font-size="10.00">parse_rt_read_line</text>
</a>
</g>
</g>
<!-- Node7&#45;&gt;Node8 -->
<g id="edge7_Node000007_Node000008" class="edge">
<title>Node7&#45;&gt;Node8</title>
<g id="a_edge7_Node000007_Node000008"><a xlink:title=" ">
<path fill="none" stroke="#63b8ff" d="M306.29,-138.62C298.36,-138.62 290.25,-138.62 282.48,-138.62"/>
<polygon fill="#63b8ff" stroke="#63b8ff" points="306.21,-142.13 316.21,-138.63 306.21,-135.13 306.21,-142.13"/>
</a>
</g>
</g>
<!-- Node9 -->
<g id="Node000009" class="node">
<title>Node9</title>
<g id="a_Node000009"><a xlink:href="parse__main_8c.html#a62c4de2f960942eba61e7de12c387ae4" target="_top" xlink:title="Entry function to parsing .rt file where the file is attempted to be opened, t_parse structure is ini...">
<polygon fill="white" stroke="#666666" points="150.5,-148.25 73,-148.25 73,-129 150.5,-129 150.5,-148.25"/>
<text text-anchor="middle" x="111.75" y="-134.75" font-family="Helvetica,sans-Serif" font-size="10.00">parse_rt_main</text>
</a>
</g>
</g>
<!-- Node8&#45;&gt;Node9 -->
<g id="edge8_Node000008_Node000009" class="edge">
<title>Node8&#45;&gt;Node9</title>
<g id="a_edge8_Node000008_Node000009"><a xlink:title=" ">
<path fill="none" stroke="#63b8ff" d="M174.86,-138.62C166.69,-138.62 158.47,-138.62 150.81,-138.62"/>
<polygon fill="#63b8ff" stroke="#63b8ff" points="174.8,-142.13 184.8,-138.63 174.8,-135.13 174.8,-142.13"/>
</a>
</g>
</g>
<!-- Node10 -->
<g id="Node000010" class="node">
<title>Node10</title>
<g id="a_Node000010"><a xlink:href="mini__ray_8c.html#a0c99d968a34e803d378692bde2e3f18f" target="_top" xlink:title=" ">
<polygon fill="white" stroke="#666666" points="37,-148.25 0,-148.25 0,-129 37,-129 37,-148.25"/>
<text text-anchor="middle" x="18.5" y="-134.75" font-family="Helvetica,sans-Serif" font-size="10.00">main</text>
</a>
</g>
</g>
<!-- Node9&#45;&gt;Node10 -->
<g id="edge9_Node000009_Node000010" class="edge">
<title>Node9&#45;&gt;Node10</title>
<g id="a_edge9_Node000009_Node000010"><a xlink:title=" ">
<path fill="none" stroke="#63b8ff" d="M61.23,-138.62C52.6,-138.62 44.15,-138.62 37.14,-138.62"/>
<polygon fill="#63b8ff" stroke="#63b8ff" points="61.07,-142.13 71.07,-138.63 61.07,-135.13 61.07,-142.13"/>
</a>
</g>
</g>
<!-- Node11&#45;&gt;Node7 -->
<g id="edge11_Node000011_Node000007" class="edge">
<title>Node11&#45;&gt;Node7</title>
<g id="a_edge11_Node000011_Node000007"><a xlink:title=" ">
<path fill="none" stroke="#63b8ff" d="M448.62,-179.73C446.38,-178.69 444.15,-177.64 442,-176.62 422.18,-167.27 399.66,-156.42 383.75,-148.71"/>
<polygon fill="#63b8ff" stroke="#63b8ff" points="447.14,-182.91 457.68,-183.95 450.09,-176.56 447.14,-182.91"/>
</a>
</g>
</g>
<!-- Node12&#45;&gt;Node7 -->
<g id="edge13_Node000012_Node000007" class="edge">
<title>Node12&#45;&gt;Node7</title>
<g id="a_edge13_Node000012_Node000007"><a xlink:title=" ">
<path fill="none" stroke="#63b8ff" d="M436.22,-150.43C426.4,-148.84 416.02,-147.17 406.25,-145.6"/>
<polygon fill="#63b8ff" stroke="#63b8ff" points="435.49,-153.85 445.92,-151.99 436.6,-146.94 435.49,-153.85"/>
</a>
</g>
</g>
<!-- Node14 -->
<g id="Node000014" class="node">
<title>Node14</title>
<g id="a_Node000014"><a xlink:href="parse__utils_8c.html#a3a792671ccd6560d6c42352319889a0c" target="_top" xlink:title=" ">
<polygon fill="white" stroke="#666666" points="657.75,-148.25 560.75,-148.25 560.75,-129 657.75,-129 657.75,-148.25"/>
<text text-anchor="middle" x="609.25" y="-134.75" font-family="Helvetica,sans-Serif" font-size="10.00">parse_validate_obj</text>
</a>
</g>
</g>
<!-- Node13&#45;&gt;Node14 -->
<g id="edge15_Node000013_Node000014" class="edge">
<title>Node13&#45;&gt;Node14</title>
<g id="a_edge15_Node000013_Node000014"><a xlink:title=" ">
<path fill="none" stroke="#63b8ff" d="M707.41,-180.67C703.79,-179.34 700.19,-177.98 696.75,-176.62 674.31,-167.8 649.12,-156.58 631.74,-148.63"/>
<polygon fill="#63b8ff" stroke="#63b8ff" points="706.18,-183.95 716.78,-184.04 708.55,-177.36 706.18,-183.95"/>
</a>
</g>
</g>
<!-- Node14&#45;&gt;Node6 -->
<g id="edge18_Node000014_Node000006" class="edge">
<title>Node14&#45;&gt;Node6</title>
<g id="a_edge18_Node000014_Node000006"><a xlink:title=" ">
<path fill="none" stroke="#63b8ff" d="M583.72,-155.24C575.24,-161.34 565.84,-168.5 557.75,-175.62 540.3,-191.01 540.64,-200.05 521.75,-213.62 517.64,-216.58 512.97,-219.23 508.33,-221.53"/>
<polygon fill="#63b8ff" stroke="#63b8ff" points="585.71,-158.12 591.89,-149.51 581.69,-152.39 585.71,-158.12"/>
</a>
</g>
</g>
<!-- Node14&#45;&gt;Node11 -->
<g id="edge19_Node000014_Node000011" class="edge">
<title>Node14&#45;&gt;Node11</title>
<g id="a_edge19_Node000014_Node000011"><a xlink:title=" ">
<path fill="none" stroke="#63b8ff" d="M575.61,-153.2C553.59,-163.04 525.08,-175.77 505.52,-184.51"/>
<polygon fill="#63b8ff" stroke="#63b8ff" points="576.75,-156.53 584.45,-149.25 573.9,-150.14 576.75,-156.53"/>
</a>
</g>
</g>
<!-- Node14&#45;&gt;Node12 -->
<g id="edge22_Node000014_Node000012" class="edge">
<title>Node14&#45;&gt;Node12</title>
<g id="a_edge22_Node000014_Node000012"><a xlink:title=" ">
<path fill="none" stroke="#63b8ff" d="M549.33,-147.55C538.05,-149.26 526.62,-151 516.48,-152.53"/>
<polygon fill="#63b8ff" stroke="#63b8ff" points="549.63,-151.05 559,-146.09 548.59,-144.13 549.63,-151.05"/>
</a>
</g>
</g>
<!-- Node15 -->
<g id="Node000015" class="node">
<title>Node15</title>
<g id="a_Node000015"><a xlink:href="parse__camera__light_8c.html#a0b2ac9083d47f8bf5eed5fbbb5576a19" target="_top" xlink:title=" ">
<polygon fill="white" stroke="#666666" points="521.75,-56.25 442,-56.25 442,-37 521.75,-37 521.75,-56.25"/>
<text text-anchor="middle" x="481.88" y="-42.75" font-family="Helvetica,sans-Serif" font-size="10.00">parse_ambient</text>
</a>
</g>
</g>
<!-- Node14&#45;&gt;Node15 -->
<g id="edge16_Node000014_Node000015" class="edge">
<title>Node14&#45;&gt;Node15</title>
<g id="a_edge16_Node000014_Node000015"><a xlink:title=" ">
<path fill="none" stroke="#63b8ff" d="M561.2,-123.14C560.01,-122.34 558.86,-121.5 557.75,-120.62 534.58,-102.23 544.06,-84.06 521.75,-64.62 518.16,-61.5 513.94,-58.81 509.62,-56.54"/>
<polygon fill="#63b8ff" stroke="#63b8ff" points="559.13,-125.99 569.57,-127.79 562.53,-119.88 559.13,-125.99"/>
</a>
</g>
</g>
<!-- Node16 -->
<g id="Node000016" class="node">
<title>Node16</title>
<g id="a_Node000016"><a xlink:href="parse__camera__light_8c.html#aaa10205c0950a79dd43566074de7b0a0" target="_top" xlink:title=" ">
<polygon fill="white" stroke="#666666" points="513.5,-130.25 450.25,-130.25 450.25,-111 513.5,-111 513.5,-130.25"/>
<text text-anchor="middle" x="481.88" y="-116.75" font-family="Helvetica,sans-Serif" font-size="10.00">parse_light</text>
</a>
</g>
</g>
<!-- Node14&#45;&gt;Node16 -->
<g id="edge20_Node000014_Node000016" class="edge">
<title>Node14&#45;&gt;Node16</title>
<g id="a_edge20_Node000014_Node000016"><a xlink:title=" ">
<path fill="none" stroke="#63b8ff" d="M549.33,-130.17C537.06,-128.4 524.6,-126.62 513.84,-125.07"/>
<polygon fill="#63b8ff" stroke="#63b8ff" points="548.6,-133.6 559,-131.55 549.59,-126.67 548.6,-133.6"/>
</a>
</g>
</g>
<!-- Node17 -->
<g id="Node000017" class="node">
<title>Node17</title>
<g id="a_Node000017"><a xlink:href="parse__objects_8c.html#a6ab66800bec24ca2d8c0f6c781558f65" target="_top" xlink:title=" ">
<polygon fill="white" stroke="#666666" points="519.12,-93.25 444.62,-93.25 444.62,-74 519.12,-74 519.12,-93.25"/>
<text text-anchor="middle" x="481.88" y="-79.75" font-family="Helvetica,sans-Serif" font-size="10.00">parse_sphere</text>
</a>
</g>
</g>
<!-- Node14&#45;&gt;Node17 -->
<g id="edge23_Node000014_Node000017" class="edge">
<title>Node14&#45;&gt;Node17</title>
<g id="a_edge23_Node000014_Node000017"><a xlink:title=" ">
<path fill="none" stroke="#63b8ff" d="M567.03,-124.49C563.87,-123.24 560.75,-121.94 557.75,-120.62 541.19,-113.35 537.96,-109.65 521.75,-101.62 516.42,-98.99 510.62,-96.24 505.17,-93.71"/>
<polygon fill="#63b8ff" stroke="#63b8ff" points="565.79,-127.76 576.38,-128.03 568.27,-121.21 565.79,-127.76"/>
</a>
</g>
</g>
<!-- Node15&#45;&gt;Node7 -->
<g id="edge17_Node000015_Node000007" class="edge">
<title>Node15&#45;&gt;Node7</title>
<g id="a_edge17_Node000015_Node000007"><a xlink:title=" ">
<path fill="none" stroke="#63b8ff" d="M446.19,-61.97C444.75,-62.83 443.35,-63.72 442,-64.62 413.48,-83.85 385.37,-113.4 371.65,-128.69"/>
<polygon fill="#63b8ff" stroke="#63b8ff" points="447.48,-65.25 454.63,-57.43 444.17,-59.08 447.48,-65.25"/>
</a>
</g>
</g>
<!-- Node16&#45;&gt;Node7 -->
<g id="edge21_Node000016_Node000007" class="edge">
<title>Node16&#45;&gt;Node7</title>
<g id="a_edge21_Node000016_Node000007"><a xlink:title=" ">
<path fill="none" stroke="#63b8ff" d="M438.79,-127.05C428.2,-128.67 416.82,-130.41 406.17,-132.03"/>
<polygon fill="#63b8ff" stroke="#63b8ff" points="439.05,-130.55 448.41,-125.58 437.99,-123.63 439.05,-130.55"/>
</a>
</g>
</g>
<!-- Node17&#45;&gt;Node7 -->
<g id="edge24_Node000017_Node000007" class="edge">
<title>Node17&#45;&gt;Node7</title>
<g id="a_edge24_Node000017_Node000007"><a xlink:title=" ">
<path fill="none" stroke="#63b8ff" d="M448.63,-98.54C446.39,-99.58 444.16,-100.62 442,-101.62 422.5,-110.7 400.33,-121.09 384.45,-128.55"/>
<polygon fill="#63b8ff" stroke="#63b8ff" points="450.1,-101.72 457.7,-94.34 447.16,-95.37 450.1,-101.72"/>
</a>
</g>
</g>
<!-- Node18&#45;&gt;Node14 -->
<g id="edge26_Node000018_Node000014" class="edge">
<title>Node18&#45;&gt;Node14</title>
<g id="a_edge26_Node000018_Node000014"><a xlink:title=" ">
<path fill="none" stroke="#63b8ff" d="M694.2,-150.17C682.25,-148.53 669.66,-146.8 657.98,-145.19"/>
<polygon fill="#63b8ff" stroke="#63b8ff" points="693.55,-153.62 703.93,-151.51 694.5,-146.68 693.55,-153.62"/>
</a>
</g>
</g>
<!-- Node19&#45;&gt;Node14 -->
<g id="edge28_Node000019_Node000014" class="edge">
<title>Node19&#45;&gt;Node14</title>
<g id="a_edge28_Node000019_Node000014"><a xlink:title=" ">
<path fill="none" stroke="#63b8ff" d="M693.96,-127.72C682.16,-129.25 669.76,-130.87 658.22,-132.37"/>
<polygon fill="#63b8ff" stroke="#63b8ff" points="694.09,-131.23 703.55,-126.47 693.18,-124.29 694.09,-131.23"/>
</a>
</g>
</g>
<!-- Node21 -->
<g id="Node000021" class="node">
<title>Node21</title>
<g id="a_Node000021"><a xlink:href="parse__utils_8c.html#a4b09ddfa5e35fa7e45323421232772ce" target="_top" xlink:title=" ">
<polygon fill="white" stroke="#666666" points="660.75,-204.25 557.75,-204.25 557.75,-185 660.75,-185 660.75,-204.25"/>
<text text-anchor="middle" x="609.25" y="-190.75" font-family="Helvetica,sans-Serif" font-size="10.00">parse_assign_coord</text>
</a>
</g>
</g>
<!-- Node20&#45;&gt;Node21 -->
<g id="edge30_Node000020_Node000021" class="edge">
<title>Node20&#45;&gt;Node21</title>
<g id="a_edge30_Node000020_Node000021"><a xlink:title=" ">
<path fill="none" stroke="#63b8ff" d="M699.77,-218.6C682.76,-214.05 663.93,-209 647.95,-204.72"/>
<polygon fill="#63b8ff" stroke="#63b8ff" points="698.6,-221.92 709.17,-221.12 700.42,-215.15 698.6,-221.92"/>
</a>
</g>
</g>
<!-- Node21&#45;&gt;Node6 -->
<g id="edge31_Node000021_Node000006" class="edge">
<title>Node21&#45;&gt;Node6</title>
<g id="a_edge31_Node000021_Node000006"><a xlink:title=" ">
<path fill="none" stroke="#63b8ff" d="M563.24,-207.91C548.04,-212.39 531.32,-217.33 517.09,-221.53"/>
<polygon fill="#63b8ff" stroke="#63b8ff" points="563.94,-211.35 572.54,-205.16 561.96,-204.64 563.94,-211.35"/>
</a>
</g>
</g>
<!-- Node21&#45;&gt;Node11 -->
<g id="edge32_Node000021_Node000011" class="edge">
<title>Node21&#45;&gt;Node11</title>
<g id="a_edge32_Node000021_Node000011"><a xlink:title=" ">
<path fill="none" stroke="#63b8ff" d="M545.82,-194.62C537.4,-194.62 528.96,-194.62 521.13,-194.62"/>
<polygon fill="#63b8ff" stroke="#63b8ff" points="545.74,-198.13 555.74,-194.63 545.74,-191.13 545.74,-198.13"/>
</a>
</g>
</g>
<!-- Node21&#45;&gt;Node12 -->
<g id="edge34_Node000021_Node000012" class="edge">
<title>Node21&#45;&gt;Node12</title>
<g id="a_edge34_Node000021_Node000012"><a xlink:title=" ">
<path fill="none" stroke="#63b8ff" d="M563.06,-181.29C547.6,-176.73 530.59,-171.71 516.23,-167.47"/>
<polygon fill="#63b8ff" stroke="#63b8ff" points="561.96,-184.61 572.54,-184.09 563.94,-177.9 561.96,-184.61"/>
</a>
</g>
</g>
<!-- Node21&#45;&gt;Node16 -->
<g id="edge33_Node000021_Node000016" class="edge">
<title>Node21&#45;&gt;Node16</title>
<g id="a_edge33_Node000021_Node000016"><a xlink:title=" ">
<path fill="none" stroke="#63b8ff" d="M585.04,-178.32C567.93,-166.62 543.88,-150.83 521.75,-138.62 516.67,-135.82 511.08,-133.06 505.75,-130.57"/>
<polygon fill="#63b8ff" stroke="#63b8ff" points="582.78,-181.01 593,-183.82 586.76,-175.25 582.78,-181.01"/>
</a>
</g>
</g>
<!-- Node22&#45;&gt;Node14 -->
<g id="edge36_Node000022_Node000014" class="edge">
<title>Node22&#45;&gt;Node14</title>
<g id="a_edge36_Node000022_Node000014"><a xlink:title=" ">
<path fill="none" stroke="#63b8ff" d="M706.42,-97.65C703.13,-98.94 699.87,-100.27 696.75,-101.62 680.16,-108.85 677.31,-113.35 660.75,-120.62 654.36,-123.43 647.38,-126.14 640.7,-128.57"/>
<polygon fill="#63b8ff" stroke="#63b8ff" points="707.39,-101.03 715.54,-94.26 704.95,-94.47 707.39,-101.03"/>
</a>
</g>
</g>
<!-- Node24 -->
<g id="Node000024" class="node">
<title>Node24</title>
<g id="a_Node000024"><a xlink:href="parse__utils_8c.html#aa353b138267370a075b03b29a2306573" target="_top" xlink:title=" ">
<polygon fill="white" stroke="#666666" points="657,-111.25 561.5,-111.25 561.5,-92 657,-92 657,-111.25"/>
<text text-anchor="middle" x="609.25" y="-97.75" font-family="Helvetica,sans-Serif" font-size="10.00">parse_assign_trgb</text>
</a>
</g>
</g>
<!-- Node23&#45;&gt;Node24 -->
<g id="edge38_Node000023_Node000024" class="edge">
<title>Node23&#45;&gt;Node24</title>
<g id="a_edge38_Node000023_Node000024"><a xlink:title=" ">
<path fill="none" stroke="#63b8ff" d="M703.16,-24.26C700.96,-25.32 698.81,-26.44 696.75,-27.62 665.22,-45.74 634.33,-76.05 619.45,-91.66"/>
<polygon fill="#63b8ff" stroke="#63b8ff" points="704.52,-27.48 712.31,-20.3 701.75,-21.05 704.52,-27.48"/>
</a>
</g>
</g>
<!-- Node24&#45;&gt;Node11 -->
<g id="edge40_Node000024_Node000011" class="edge">
<title>Node24&#45;&gt;Node11</title>
<g id="a_edge40_Node000024_Node000011"><a xlink:title=" ">
<path fill="none" stroke="#63b8ff" d="M561.19,-117.1C560,-117.9 558.85,-118.74 557.75,-119.62 534.36,-138.35 544.27,-156.86 521.75,-176.62 518.28,-179.67 514.22,-182.29 510.04,-184.52"/>
<polygon fill="#63b8ff" stroke="#63b8ff" points="562.53,-120.36 569.55,-112.43 559.11,-114.25 562.53,-120.36"/>
</a>
</g>
</g>
<!-- Node24&#45;&gt;Node12 -->
<g id="edge42_Node000024_Node000012" class="edge">
<title>Node24&#45;&gt;Node12</title>
<g id="a_edge42_Node000024_Node000012"><a xlink:title=" ">
<path fill="none" stroke="#63b8ff" d="M566.88,-115.74C563.76,-116.99 560.69,-118.29 557.75,-119.62 541.07,-127.17 538.07,-131.33 521.75,-139.62 516.45,-142.32 510.66,-145.09 505.21,-147.62"/>
<polygon fill="#63b8ff" stroke="#63b8ff" points="567.98,-119.06 576.07,-112.22 565.48,-112.53 567.98,-119.06"/>
</a>
</g>
</g>
<!-- Node24&#45;&gt;Node15 -->
<g id="edge39_Node000024_Node000015" class="edge">
<title>Node24&#45;&gt;Node15</title>
<g id="a_edge39_Node000024_Node000015"><a xlink:title=" ">
<path fill="none" stroke="#63b8ff" d="M574.78,-86.94C552.95,-77.37 525.03,-65.12 505.72,-56.65"/>
<polygon fill="#63b8ff" stroke="#63b8ff" points="573.3,-90.12 583.87,-90.93 576.12,-83.71 573.3,-90.12"/>
</a>
</g>
</g>
<!-- Node24&#45;&gt;Node16 -->
<g id="edge41_Node000024_Node000016" class="edge">
<title>Node24&#45;&gt;Node16</title>
<g id="a_edge41_Node000024_Node000016"><a xlink:title=" ">
<path fill="none" stroke="#63b8ff" d="M549.89,-110.47C537.44,-112.36 524.75,-114.28 513.82,-115.94"/>
<polygon fill="#63b8ff" stroke="#63b8ff" points="550.35,-113.94 559.71,-108.98 549.3,-107.02 550.35,-113.94"/>
</a>
</g>
</g>
<!-- Node25&#45;&gt;Node14 -->
<g id="edge44_Node000025_Node000014" class="edge">
<title>Node25&#45;&gt;Node14</title>
<g id="a_edge44_Node000025_Node000014"><a xlink:title=" ">
<path fill="none" stroke="#63b8ff" d="M700.28,-62.07C699.06,-62.88 697.88,-63.73 696.75,-64.62 673.51,-82.94 683.92,-102.23 660.75,-120.62 656.81,-123.75 652.29,-126.36 647.6,-128.53"/>
<polygon fill="#63b8ff" stroke="#63b8ff" points="701.78,-65.24 708.86,-57.36 698.41,-59.1 701.78,-65.24"/>
</a>
</g>
</g>
</g>
</svg>
