<?xml version="1.0" encoding="UTF-8" standalone="no"?>
<!DOCTYPE svg PUBLIC "-//W3C//DTD SVG 1.1//EN"
 "http://www.w3.org/Graphics/SVG/1.1/DTD/svg11.dtd">
<!-- Generated by graphviz version 9.0.0 (20230911.1827)
 -->
<!-- Title: /github/workspace/LIB/LIBFT/libft.h Pages: 1 -->
<svg width="387pt" height="149pt"
 viewBox="0.00 0.00 386.62 149.00" xmlns="http://www.w3.org/2000/svg" xmlns:xlink="http://www.w3.org/1999/xlink">
<g id="graph0" class="graph" transform="scale(1 1) rotate(0) translate(4 145)">
<title>/github/workspace/LIB/LIBFT/libft.h</title>
<!-- Node1 -->
<g id="Node000001" class="node">
<title>Node1</title>
<g id="a_Node000001"><a xlink:title=" ">
<polygon fill="#999999" stroke="#666666" points="296.5,-141 182.25,-141 182.25,-110.5 296.5,-110.5 296.5,-141"/>
<text text-anchor="start" x="190.25" y="-127.5" font-family="Helvetica,sans-Serif" font-size="10.00">/github/workspace/LIB</text>
<text text-anchor="middle" x="239.38" y="-116.25" font-family="Helvetica,sans-Serif" font-size="10.00">/LIBFT/libft.h</text>
</a>
</g>
</g>
<!-- Node2 -->
<g id="Node000002" class="node">
<title>Node2</title>
<g id="a_Node000002"><a xlink:title=" ">
<polygon fill="#e0e0e0" stroke="#999999" points="46.75,-19.25 0,-19.25 0,0 46.75,0 46.75,-19.25"/>
<text text-anchor="middle" x="23.38" y="-5.75" font-family="Helvetica,sans-Serif" font-size="10.00">stdlib.h</text>
</a>
</g>
</g>
<!-- Node1&#45;&gt;Node2 -->
<g id="edge1_Node000001_Node000002" class="edge">
<title>Node1&#45;&gt;Node2</title>
<g id="a_edge1_Node000001_Node000002"><a xlink:title=" ">
<path fill="none" stroke="#63b8ff" d="M182.18,-117.01C130.41,-108.87 59.3,-94.44 39.38,-74.5 27.99,-63.11 24.29,-44.91 23.27,-30.85"/>
<polygon fill="#63b8ff" stroke="#63b8ff" points="26.77,-30.82 22.98,-20.92 19.77,-31.02 26.77,-30.82"/>
</a>
</g>
</g>
<!-- Node3 -->
<g id="Node000003" class="node">
<title>Node3</title>
<g id="a_Node000003"><a xlink:title=" ">
<polygon fill="#e0e0e0" stroke="#999999" points="310.25,-19.25 260.5,-19.25 260.5,0 310.25,0 310.25,-19.25"/>
<text text-anchor="middle" x="285.38" y="-5.75" font-family="Helvetica,sans-Serif" font-size="10.00">unistd.h</text>
</a>
</g>
</g>
<!-- Node1&#45;&gt;Node3 -->
<g id="edge2_Node000001_Node000003" class="edge">
<title>Node1&#45;&gt;Node3</title>
<g id="a_edge2_Node000001_Node000003"><a xlink:title=" ">
<path fill="none" stroke="#63b8ff" d="M251.08,-110.2C258.25,-100.59 267.05,-87.43 272.38,-74.5 278.13,-60.53 281.42,-43.76 283.25,-30.91"/>
<polygon fill="#63b8ff" stroke="#63b8ff" points="286.71,-31.47 284.44,-21.12 279.76,-30.62 286.71,-31.47"/>
</a>
</g>
</g>
<!-- Node4 -->
<g id="Node000004" class="node">
<title>Node4</title>
<g id="a_Node000004"><a xlink:title=" ">
<polygon fill="#e0e0e0" stroke="#999999" points="197.62,-74.5 147.12,-74.5 147.12,-55.25 197.62,-55.25 197.62,-74.5"/>
<text text-anchor="middle" x="172.38" y="-61" font-family="Helvetica,sans-Serif" font-size="10.00">stddef.h</text>
</a>
</g>
</g>
<!-- Node1&#45;&gt;Node4 -->
<g id="edge3_Node000001_Node000004" class="edge">
<title>Node1&#45;&gt;Node4</title>
<g id="a_edge3_Node000001_Node000004"><a xlink:title=" ">
<path fill="none" stroke="#63b8ff" d="M222.81,-110.2C213.2,-101.75 201.06,-91.08 191.1,-82.33"/>
<polygon fill="#63b8ff" stroke="#63b8ff" points="193.66,-79.92 183.84,-75.95 189.04,-85.18 193.66,-79.92"/>
</a>
</g>
</g>
<!-- Node5 -->
<g id="Node000005" class="node">
<title>Node5</title>
<g id="a_Node000005"><a xlink:title=" ">
<polygon fill="#e0e0e0" stroke="#999999" points="263.12,-74.5 215.62,-74.5 215.62,-55.25 263.12,-55.25 263.12,-74.5"/>
<text text-anchor="middle" x="239.38" y="-61" font-family="Helvetica,sans-Serif" font-size="10.00">stdint.h</text>
</a>
</g>
</g>
<!-- Node1&#45;&gt;Node5 -->
<g id="edge4_Node000001_Node000005" class="edge">
<title>Node1&#45;&gt;Node5</title>
<g id="a_edge4_Node000001_Node000005"><a xlink:title=" ">
<path fill="none" stroke="#63b8ff" d="M239.38,-110.2C239.38,-102.96 239.38,-94.09 239.38,-86.19"/>
<polygon fill="#63b8ff" stroke="#63b8ff" points="242.88,-86.46 239.38,-76.46 235.88,-86.46 242.88,-86.46"/>
</a>
</g>
</g>
<!-- Node6 -->
<g id="Node000006" class="node">
<title>Node6</title>
<g id="a_Node000006"><a xlink:href="get__next__line_8h.html" target="_top" xlink:title=" ">
<polygon fill="white" stroke="#666666" points="128.62,-74.5 48.12,-74.5 48.12,-55.25 128.62,-55.25 128.62,-74.5"/>
<text text-anchor="middle" x="88.38" y="-61" font-family="Helvetica,sans-Serif" font-size="10.00">get_next_line.h</text>
</a>
</g>
</g>
<!-- Node1&#45;&gt;Node6 -->
<g id="edge5_Node000001_Node000006" class="edge">
<title>Node1&#45;&gt;Node6</title>
<g id="a_edge5_Node000001_Node000006"><a xlink:title=" ">
<path fill="none" stroke="#63b8ff" d="M201.66,-110.05C177.23,-100.52 145.68,-88.22 122.08,-79.02"/>
<polygon fill="#63b8ff" stroke="#63b8ff" points="123.53,-75.83 112.94,-75.45 120.99,-82.35 123.53,-75.83"/>
</a>
</g>
</g>
<!-- Node8 -->
<g id="Node000008" class="node">
<title>Node8</title>
<g id="a_Node000008"><a xlink:href="ft__printf_8h.html" target="_top" xlink:title=" ">
<polygon fill="white" stroke="#666666" points="375.62,-74.5 319.12,-74.5 319.12,-55.25 375.62,-55.25 375.62,-74.5"/>
<text text-anchor="middle" x="347.38" y="-61" font-family="Helvetica,sans-Serif" font-size="10.00">ft_printf.h</text>
</a>
</g>
</g>
<!-- Node1&#45;&gt;Node8 -->
<g id="edge9_Node000001_Node000008" class="edge">
<title>Node1&#45;&gt;Node8</title>
<g id="a_edge9_Node000001_Node000008"><a xlink:title=" ">
<path fill="none" stroke="#63b8ff" d="M260.42,-110.05C276.15,-100.86 297.74,-89.11 315.54,-80.03"/>
<polygon fill="#63b8ff" stroke="#63b8ff" points="317.06,-83.19 324.43,-75.58 313.92,-76.93 317.06,-83.19"/>
</a>
</g>
</g>
<!-- Node6&#45;&gt;Node2 -->
<g id="edge6_Node000006_Node000002" class="edge">
<title>Node6&#45;&gt;Node2</title>
<g id="a_edge6_Node000006_Node000002"><a xlink:title=" ">
<path fill="none" stroke="#63b8ff" d="M77.35,-54.84C67.95,-47.15 54.23,-35.9 42.97,-26.68"/>
<polygon fill="#63b8ff" stroke="#63b8ff" points="45.36,-24.11 35.41,-20.48 40.93,-29.53 45.36,-24.11"/>
</a>
</g>
</g>
<!-- Node6&#45;&gt;Node3 -->
<g id="edge8_Node000006_Node000003" class="edge">
<title>Node6&#45;&gt;Node3</title>
<g id="a_edge8_Node000006_Node000003"><a xlink:title=" ">
<path fill="none" stroke="#63b8ff" d="M121.79,-54.84C157.16,-45.28 212.78,-30.25 249.16,-20.41"/>
<polygon fill="#63b8ff" stroke="#63b8ff" points="250.05,-23.8 258.79,-17.81 248.22,-17.04 250.05,-23.8"/>
</a>
</g>
</g>
<!-- Node7 -->
<g id="Node000007" class="node">
<title>Node7</title>
<g id="a_Node000007"><a xlink:title=" ">
<polygon fill="#e0e0e0" stroke="#999999" points="109.5,-19.25 67.25,-19.25 67.25,0 109.5,0 109.5,-19.25"/>
<text text-anchor="middle" x="88.38" y="-5.75" font-family="Helvetica,sans-Serif" font-size="10.00">fcntl.h</text>
</a>
</g>
</g>
<!-- Node6&#45;&gt;Node7 -->
<g id="edge7_Node000006_Node000007" class="edge">
<title>Node6&#45;&gt;Node7</title>
<g id="a_edge7_Node000006_Node000007"><a xlink:title=" ">
<path fill="none" stroke="#63b8ff" d="M88.38,-55.08C88.38,-48.57 88.38,-39.42 88.38,-31.12"/>
<polygon fill="#63b8ff" stroke="#63b8ff" points="91.88,-31.12 88.38,-21.12 84.88,-31.12 91.88,-31.12"/>
</a>
</g>
</g>
<!-- Node8&#45;&gt;Node1 -->
<g id="edge12_Node000008_Node000001" class="edge">
<title>Node8&#45;&gt;Node1</title>
<g id="a_edge12_Node000008_Node000001"><a xlink:title=" ">
<path fill="none" stroke="#63b8ff" d="M335.84,-74.9C322.95,-82.83 301.75,-94.64 282.45,-104.77"/>
<polygon fill="#63b8ff" stroke="#63b8ff" points="280.89,-101.64 273.63,-109.35 284.12,-107.85 280.89,-101.64"/>
</a>
</g>
</g>
<!-- Node8&#45;&gt;Node3 -->
<g id="edge11_Node000008_Node000003" class="edge">
<title>Node8&#45;&gt;Node3</title>
<g id="a_edge11_Node000008_Node000003"><a xlink:title=" ">
<path fill="none" stroke="#63b8ff" d="M336.86,-54.84C327.99,-47.22 315.06,-36.12 304.39,-26.95"/>
<polygon fill="#63b8ff" stroke="#63b8ff" points="306.75,-24.37 296.89,-20.51 302.19,-29.68 306.75,-24.37"/>
</a>
</g>
</g>
<!-- Node9 -->
<g id="Node000009" class="node">
<title>Node9</title>
<g id="a_Node000009"><a xlink:title=" ">
<polygon fill="#e0e0e0" stroke="#999999" points="378.62,-19.25 328.12,-19.25 328.12,0 378.62,0 378.62,-19.25"/>
<text text-anchor="middle" x="353.38" y="-5.75" font-family="Helvetica,sans-Serif" font-size="10.00">stdarg.h</text>
</a>
</g>
</g>
<!-- Node8&#45;&gt;Node9 -->
<g id="edge10_Node000008_Node000009" class="edge">
<title>Node8&#45;&gt;Node9</title>
<g id="a_edge10_Node000008_Node000009"><a xlink:title=" ">
<path fill="none" stroke="#63b8ff" d="M348.37,-55.08C349.11,-48.49 350.15,-39.21 351.1,-30.82"/>
<polygon fill="#63b8ff" stroke="#63b8ff" points="354.55,-31.44 352.19,-21.11 347.6,-30.66 354.55,-31.44"/>
</a>
</g>
</g>
</g>
</svg>
