<?xml version="1.0" encoding="UTF-8" standalone="no"?>
<!DOCTYPE svg PUBLIC "-//W3C//DTD SVG 1.1//EN"
 "http://www.w3.org/Graphics/SVG/1.1/DTD/svg11.dtd">
<!-- Generated by graphviz version 9.0.0 (20230911.1827)
 -->
<!-- Title: ft_putstr_fd Pages: 1 -->
<svg width="500pt" height="254pt"
 viewBox="0.00 0.00 499.75 254.25" xmlns="http://www.w3.org/2000/svg" xmlns:xlink="http://www.w3.org/1999/xlink">
<g id="graph0" class="graph" transform="scale(1 1) rotate(0) translate(4 250.25)">
<title>ft_putstr_fd</title>
<!-- Node1 -->
<g id="Node000001" class="node">
<title>Node1</title>
<g id="a_Node000001"><a xlink:title=" ">
<polygon fill="#999999" stroke="#666666" points="491.75,-57.25 426.25,-57.25 426.25,-38 491.75,-38 491.75,-57.25"/>
<text text-anchor="middle" x="459" y="-43.75" font-family="Helvetica,sans-Serif" font-size="10.00">ft_putstr_fd</text>
</a>
</g>
</g>
<!-- Node2 -->
<g id="Node000002" class="node">
<title>Node2</title>
<g id="a_Node000002"><a xlink:href="cleanup_8c.html#a4d0401c5d47d3fbe2f286eae7eea7e19" target="_top" xlink:title=" ">
<polygon fill="white" stroke="#666666" points="389.12,-132.25 319.12,-132.25 319.12,-113 389.12,-113 389.12,-132.25"/>
<text text-anchor="middle" x="354.12" y="-118.75" font-family="Helvetica,sans-Serif" font-size="10.00">exit_cleanup</text>
</a>
</g>
</g>
<!-- Node1&#45;&gt;Node2 -->
<g id="edge1_Node000001_Node000002" class="edge">
<title>Node1&#45;&gt;Node2</title>
<g id="a_edge1_Node000001_Node000002"><a xlink:title=" ">
<path fill="none" stroke="#63b8ff" d="M434.92,-64.45C414.59,-79.28 385.64,-100.38 368.78,-112.67"/>
<polygon fill="#63b8ff" stroke="#63b8ff" points="436.88,-67.35 442.9,-58.63 432.76,-61.69 436.88,-67.35"/>
</a>
</g>
</g>
<!-- Node9 -->
<g id="Node000009" class="node">
<title>Node9</title>
<g id="a_Node000009"><a xlink:href="ft__printf__s_8c.html#af5710a2518824759ad5ffe0d99c02002" target="_top" xlink:title=" ">
<polygon fill="white" stroke="#666666" points="383.88,-57.25 324.38,-57.25 324.38,-38 383.88,-38 383.88,-57.25"/>
<text text-anchor="middle" x="354.12" y="-43.75" font-family="Helvetica,sans-Serif" font-size="10.00">ft_printf_s</text>
</a>
</g>
</g>
<!-- Node1&#45;&gt;Node9 -->
<g id="edge13_Node000001_Node000009" class="edge">
<title>Node1&#45;&gt;Node9</title>
<g id="a_edge13_Node000001_Node000009"><a xlink:title=" ">
<path fill="none" stroke="#63b8ff" d="M414.71,-47.62C404.45,-47.62 393.75,-47.62 384.29,-47.62"/>
<polygon fill="#63b8ff" stroke="#63b8ff" points="414.5,-51.13 424.5,-47.63 414.5,-44.13 414.5,-51.13"/>
</a>
</g>
</g>
<!-- Node11 -->
<g id="Node000011" class="node">
<title>Node11</title>
<g id="a_Node000011"><a xlink:href="ft__putendl__fd_8c.html#aeb112152acfc553d58d61a5df38afcde" target="_top" xlink:title=" ">
<polygon fill="white" stroke="#666666" points="390.25,-20.25 318,-20.25 318,-1 390.25,-1 390.25,-20.25"/>
<text text-anchor="middle" x="354.12" y="-6.75" font-family="Helvetica,sans-Serif" font-size="10.00">ft_putendl_fd</text>
</a>
</g>
</g>
<!-- Node1&#45;&gt;Node11 -->
<g id="edge15_Node000001_Node000011" class="edge">
<title>Node1&#45;&gt;Node11</title>
<g id="a_edge15_Node000001_Node000011"><a xlink:title=" ">
<path fill="none" stroke="#63b8ff" d="M419.25,-33.69C407.27,-29.38 394.31,-24.72 383.2,-20.72"/>
<polygon fill="#63b8ff" stroke="#63b8ff" points="417.87,-36.91 428.46,-37 420.24,-30.32 417.87,-36.91"/>
</a>
</g>
</g>
<!-- Node3 -->
<g id="Node000003" class="node">
<title>Node3</title>
<g id="a_Node000003"><a xlink:href="init__lux_8c.html#aa725d1fe6d2725add14a565bb5c1b995" target="_top" xlink:title=" ">
<polygon fill="white" stroke="#666666" points="257.25,-246.25 211.25,-246.25 211.25,-227 257.25,-227 257.25,-246.25"/>
<text text-anchor="middle" x="234.25" y="-232.75" font-family="Helvetica,sans-Serif" font-size="10.00">init_lux</text>
</a>
</g>
</g>
<!-- Node2&#45;&gt;Node3 -->
<g id="edge2_Node000002_Node000003" class="edge">
<title>Node2&#45;&gt;Node3</title>
<g id="a_edge2_Node000002_Node000003"><a xlink:title=" ">
<path fill="none" stroke="#63b8ff" d="M341.26,-142.18C328.53,-161.89 306.78,-192.25 282,-212.62 274.67,-218.65 265.58,-223.74 257.37,-227.66"/>
<polygon fill="#63b8ff" stroke="#63b8ff" points="344.05,-144.31 346.4,-133.98 338.12,-140.58 344.05,-144.31"/>
</a>
</g>
</g>
<!-- Node4 -->
<g id="Node000004" class="node">
<title>Node4</title>
<g id="a_Node000004"><a xlink:href="mini__ray_8c.html#a0c99d968a34e803d378692bde2e3f18f" target="_top" xlink:title=" ">
<polygon fill="white" stroke="#666666" points="37,-170.25 0,-170.25 0,-151 37,-151 37,-170.25"/>
<text text-anchor="middle" x="18.5" y="-156.75" font-family="Helvetica,sans-Serif" font-size="10.00">main</text>
</a>
</g>
</g>
<!-- Node2&#45;&gt;Node4 -->
<g id="edge8_Node000002_Node000004" class="edge">
<title>Node2&#45;&gt;Node4</title>
<g id="a_edge8_Node000002_Node000004"><a xlink:title=" ">
<path fill="none" stroke="#63b8ff" d="M325.49,-138.01C312.61,-144.6 296.87,-151.87 282,-156.62 192.99,-185.09 165.09,-195.49 73,-179.62 60.76,-177.52 47.61,-172.88 37.41,-168.72"/>
<polygon fill="#63b8ff" stroke="#63b8ff" points="327.01,-141.16 334.22,-133.4 323.74,-134.97 327.01,-141.16"/>
</a>
</g>
</g>
<!-- Node5 -->
<g id="Node000005" class="node">
<title>Node5</title>
<g id="a_Node000005"><a xlink:href="init__mlx_8c.html#a1a6dc2f71f09a4fb49ab62f2e83ef424" target="_top" xlink:title=" ">
<polygon fill="white" stroke="#666666" points="136.25,-170.25 87.25,-170.25 87.25,-151 136.25,-151 136.25,-170.25"/>
<text text-anchor="middle" x="111.75" y="-156.75" font-family="Helvetica,sans-Serif" font-size="10.00">init_mlx</text>
</a>
</g>
</g>
<!-- Node2&#45;&gt;Node5 -->
<g id="edge4_Node000002_Node000005" class="edge">
<title>Node2&#45;&gt;Node5</title>
<g id="a_edge4_Node000002_Node000005"><a xlink:title=" ">
<path fill="none" stroke="#63b8ff" d="M307.54,-131.97C299.07,-133.6 290.28,-135.22 282,-136.62 230.35,-145.36 169.47,-153.46 136.64,-157.65"/>
<polygon fill="#63b8ff" stroke="#63b8ff" points="308.2,-135.41 317.34,-130.05 306.85,-128.54 308.2,-135.41"/>
</a>
</g>
</g>
<!-- Node6 -->
<g id="Node000006" class="node">
<title>Node6</title>
<g id="a_Node000006"><a xlink:href="input__validate_8c.html#a1497d4d5fc8fdfecbe3b36df53d2195f" target="_top" xlink:title="Validating if argument count is 2 (exe and 1 extra) and the extra is a .rt file and we have permissio...">
<polygon fill="white" stroke="#666666" points="149.75,-132.25 73.75,-132.25 73.75,-113 149.75,-113 149.75,-132.25"/>
<text text-anchor="middle" x="111.75" y="-118.75" font-family="Helvetica,sans-Serif" font-size="10.00">input_validate</text>
</a>
</g>
</g>
<!-- Node2&#45;&gt;Node6 -->
<g id="edge6_Node000002_Node000006" class="edge">
<title>Node2&#45;&gt;Node6</title>
<g id="a_edge6_Node000002_Node000006"><a xlink:title=" ">
<path fill="none" stroke="#63b8ff" d="M307.32,-122.62C261.62,-122.62 192.28,-122.62 149.89,-122.62"/>
<polygon fill="#63b8ff" stroke="#63b8ff" points="307.17,-126.13 317.17,-122.63 307.17,-119.13 307.17,-126.13"/>
</a>
</g>
</g>
<!-- Node7 -->
<g id="Node000007" class="node">
<title>Node7</title>
<g id="a_Node000007"><a xlink:href="parse__main_8c.html#a62c4de2f960942eba61e7de12c387ae4" target="_top" xlink:title="Entry function to parsing .rt file where the file is attempted to be opened, t_parse structure is ini...">
<polygon fill="white" stroke="#666666" points="150.5,-94.25 73,-94.25 73,-75 150.5,-75 150.5,-94.25"/>
<text text-anchor="middle" x="111.75" y="-80.75" font-family="Helvetica,sans-Serif" font-size="10.00">parse_rt_main</text>
</a>
</g>
</g>
<!-- Node2&#45;&gt;Node7 -->
<g id="edge9_Node000002_Node000007" class="edge">
<title>Node2&#45;&gt;Node7</title>
<g id="a_edge9_Node000002_Node000007"><a xlink:title=" ">
<path fill="none" stroke="#63b8ff" d="M307.39,-115.4C261.98,-108.22 193.17,-97.34 150.7,-90.62"/>
<polygon fill="#63b8ff" stroke="#63b8ff" points="306.77,-118.84 317.19,-116.94 307.86,-111.93 306.77,-118.84"/>
</a>
</g>
</g>
<!-- Node8 -->
<g id="Node000008" class="node">
<title>Node8</title>
<g id="a_Node000008"><a xlink:href="parse__main_8c.html#a5d7da6ab7925ffda04b676ef38880723" target="_top" xlink:title="Reading a line from the given .rt file and splitting the given line with the space (&#39; &#39;) delimiter....">
<polygon fill="white" stroke="#666666" points="282,-56.25 186.5,-56.25 186.5,-37 282,-37 282,-56.25"/>
<text text-anchor="middle" x="234.25" y="-42.75" font-family="Helvetica,sans-Serif" font-size="10.00">parse_rt_read_line</text>
</a>
</g>
</g>
<!-- Node2&#45;&gt;Node8 -->
<g id="edge11_Node000002_Node000008" class="edge">
<title>Node2&#45;&gt;Node8</title>
<g id="a_edge11_Node000002_Node000008"><a xlink:title=" ">
<path fill="none" stroke="#63b8ff" d="M331.97,-105.8C318.13,-95.14 299.45,-81.39 282,-70.62 273.92,-65.64 264.7,-60.75 256.58,-56.69"/>
<polygon fill="#63b8ff" stroke="#63b8ff" points="329.46,-108.29 339.5,-111.68 333.77,-102.77 329.46,-108.29"/>
</a>
</g>
</g>
<!-- Node3&#45;&gt;Node4 -->
<g id="edge3_Node000003_Node000004" class="edge">
<title>Node3&#45;&gt;Node4</title>
<g id="a_edge3_Node000003_Node000004"><a xlink:title=" ">
<path fill="none" stroke="#63b8ff" d="M199.92,-237.46C166.22,-237.02 113.48,-232.68 73,-212.62 53.04,-202.74 35.75,-182.66 26.55,-170.55"/>
<polygon fill="#63b8ff" stroke="#63b8ff" points="199.48,-240.96 209.48,-237.48 199.49,-233.96 199.48,-240.96"/>
</a>
</g>
</g>
<!-- Node5&#45;&gt;Node4 -->
<g id="edge5_Node000005_Node000004" class="edge">
<title>Node5&#45;&gt;Node4</title>
<g id="a_edge5_Node000005_Node000004"><a xlink:title=" ">
<path fill="none" stroke="#63b8ff" d="M75.27,-160.62C62.25,-160.62 48.06,-160.62 37.26,-160.62"/>
<polygon fill="#63b8ff" stroke="#63b8ff" points="75.26,-164.13 85.26,-160.63 75.26,-157.13 75.26,-164.13"/>
</a>
</g>
</g>
<!-- Node6&#45;&gt;Node4 -->
<g id="edge7_Node000006_Node000004" class="edge">
<title>Node6&#45;&gt;Node4</title>
<g id="a_edge7_Node000006_Node000004"><a xlink:title=" ">
<path fill="none" stroke="#63b8ff" d="M76.46,-136.9C63.12,-142.46 48.4,-148.59 37.26,-153.23"/>
<polygon fill="#63b8ff" stroke="#63b8ff" points="77.49,-140.27 85.38,-133.19 74.8,-133.8 77.49,-140.27"/>
</a>
</g>
</g>
<!-- Node7&#45;&gt;Node4 -->
<g id="edge10_Node000007_Node000004" class="edge">
<title>Node7&#45;&gt;Node4</title>
<g id="a_edge10_Node000007_Node000004"><a xlink:title=" ">
<path fill="none" stroke="#63b8ff" d="M77.81,-100.3C76.15,-101.37 74.54,-102.48 73,-103.62 54.3,-117.6 36.58,-138.52 26.96,-150.75"/>
<polygon fill="#63b8ff" stroke="#63b8ff" points="79.4,-103.42 86.32,-95.4 75.91,-97.36 79.4,-103.42"/>
</a>
</g>
</g>
<!-- Node8&#45;&gt;Node7 -->
<g id="edge12_Node000008_Node000007" class="edge">
<title>Node8&#45;&gt;Node7</title>
<g id="a_edge12_Node000008_Node000007"><a xlink:title=" ">
<path fill="none" stroke="#63b8ff" d="M190.57,-60.09C175.38,-64.87 158.56,-70.18 144.46,-74.63"/>
<polygon fill="#63b8ff" stroke="#63b8ff" points="191.35,-63.51 199.83,-57.16 189.24,-56.83 191.35,-63.51"/>
</a>
</g>
</g>
<!-- Node10 -->
<g id="Node000010" class="node">
<title>Node10</title>
<g id="a_Node000010"><a xlink:href="ft__printf__p_8c.html#a8e0fc7618e3243249dcacd8ba380c337" target="_top" xlink:title=" ">
<polygon fill="white" stroke="#666666" points="264,-19.25 204.5,-19.25 204.5,0 264,0 264,-19.25"/>
<text text-anchor="middle" x="234.25" y="-5.75" font-family="Helvetica,sans-Serif" font-size="10.00">ft_printf_p</text>
</a>
</g>
</g>
<!-- Node9&#45;&gt;Node10 -->
<g id="edge14_Node000009_Node000010" class="edge">
<title>Node9&#45;&gt;Node10</title>
<g id="a_edge14_Node000009_Node000010"><a xlink:title=" ">
<path fill="none" stroke="#63b8ff" d="M313.32,-34.79C297.32,-29.63 279.21,-23.8 264.46,-19.04"/>
<polygon fill="#63b8ff" stroke="#63b8ff" points="311.96,-38.03 322.55,-37.77 314.1,-31.37 311.96,-38.03"/>
</a>
</g>
</g>
</g>
</svg>
