<?xml version="1.0" encoding="UTF-8" standalone="no"?>
<!DOCTYPE svg PUBLIC "-//W3C//DTD SVG 1.1//EN"
 "http://www.w3.org/Graphics/SVG/1.1/DTD/svg11.dtd">
<!-- Generated by graphviz version 9.0.0 (20230911.1827)
 -->
<!-- Title: ft_isdigit Pages: 1 -->
<svg width="1157pt" height="631pt"
 viewBox="0.00 0.00 1157.25 631.05" xmlns="http://www.w3.org/2000/svg" xmlns:xlink="http://www.w3.org/1999/xlink">
<g id="graph0" class="graph" transform="scale(1 1) rotate(0) translate(4 627.05)">
<title>ft_isdigit</title>
<!-- Node1 -->
<g id="Node000001" class="node">
<title>Node1</title>
<g id="a_Node000001"><a xlink:title=" ">
<polygon fill="#999999" stroke="#666666" points="1149.25,-233.05 1096.5,-233.05 1096.5,-213.8 1149.25,-213.8 1149.25,-233.05"/>
<text text-anchor="middle" x="1122.88" y="-219.55" font-family="Helvetica,sans-Serif" font-size="10.00">ft_isdigit</text>
</a>
</g>
</g>
<!-- Node2 -->
<g id="Node000002" class="node">
<title>Node2</title>
<g id="a_Node000002"><a xlink:href="ft__atod_8c.html#ad55518c88cf22904ac355596269be400" target="_top" xlink:title=" ">
<polygon fill="white" stroke="#666666" points="1053,-368.05 1007,-368.05 1007,-348.8 1053,-348.8 1053,-368.05"/>
<text text-anchor="middle" x="1030" y="-354.55" font-family="Helvetica,sans-Serif" font-size="10.00">ft_atod</text>
</a>
</g>
</g>
<!-- Node1&#45;&gt;Node2 -->
<g id="edge1_Node000001_Node000002" class="edge">
<title>Node1&#45;&gt;Node2</title>
<g id="a_edge1_Node000001_Node000002"><a xlink:title=" ">
<path fill="none" stroke="#63b8ff" d="M1108.95,-242.62C1089.34,-271.75 1052.76,-326.09 1037.72,-348.44"/>
<polygon fill="#63b8ff" stroke="#63b8ff" points="1111.81,-244.64 1114.49,-234.39 1106.01,-240.73 1111.81,-244.64"/>
</a>
</g>
</g>
<!-- Node28 -->
<g id="Node000028" class="node">
<title>Node28</title>
<g id="a_Node000028"><a xlink:href="LIBFT_2ft__isalnum_8c.html#a9c2c3821ea43ebdf97de07b123503f8b" target="_top" xlink:title=" ">
<polygon fill="white" stroke="#666666" points="1060.5,-233.05 999.5,-233.05 999.5,-213.8 1060.5,-213.8 1060.5,-233.05"/>
<text text-anchor="middle" x="1030" y="-219.55" font-family="Helvetica,sans-Serif" font-size="10.00">ft_isalnum</text>
</a>
</g>
</g>
<!-- Node1&#45;&gt;Node28 -->
<g id="edge54_Node000001_Node000028" class="edge">
<title>Node1&#45;&gt;Node28</title>
<g id="a_edge54_Node000001_Node000028"><a xlink:title=" ">
<path fill="none" stroke="#63b8ff" d="M1084.73,-223.42C1076.74,-223.42 1068.38,-223.42 1060.71,-223.42"/>
<polygon fill="#63b8ff" stroke="#63b8ff" points="1084.56,-226.92 1094.56,-223.42 1084.56,-219.92 1084.56,-226.92"/>
</a>
</g>
</g>
<!-- Node29 -->
<g id="Node000029" class="node">
<title>Node29</title>
<g id="a_Node000029"><a xlink:href="ft__strval_8c.html#adc216c7cf83a710b028bd1501e3d4e6b" target="_top" xlink:title="Checks if a given string consists of valid characters.">
<polygon fill="white" stroke="#666666" points="939.12,-195.05 887.88,-195.05 887.88,-175.8 939.12,-175.8 939.12,-195.05"/>
<text text-anchor="middle" x="913.5" y="-181.55" font-family="Helvetica,sans-Serif" font-size="10.00">ft_strval</text>
</a>
</g>
</g>
<!-- Node1&#45;&gt;Node29 -->
<g id="edge67_Node000001_Node000029" class="edge">
<title>Node1&#45;&gt;Node29</title>
<g id="a_edge67_Node000001_Node000029"><a xlink:title=" ">
<path fill="none" stroke="#63b8ff" d="M1085.18,-210.94C1077.11,-208.52 1068.57,-206.18 1060.5,-204.42 1018.54,-195.27 968.78,-189.95 939.52,-187.37"/>
<polygon fill="#63b8ff" stroke="#63b8ff" points="1084.12,-214.28 1094.71,-213.93 1086.22,-207.6 1084.12,-214.28"/>
</a>
</g>
</g>
<!-- Node3 -->
<g id="Node000003" class="node">
<title>Node3</title>
<g id="a_Node000003"><a xlink:href="parse__assign__coord__utils_8c.html#acdc77317cdae9d7fca002fad8c2960a6" target="_top" xlink:title=" ">
<polygon fill="white" stroke="#666666" points="963.5,-417.05 863.5,-417.05 863.5,-397.8 963.5,-397.8 963.5,-417.05"/>
<text text-anchor="middle" x="913.5" y="-403.55" font-family="Helvetica,sans-Serif" font-size="10.00">assign_coordinates</text>
</a>
</g>
</g>
<!-- Node2&#45;&gt;Node3 -->
<g id="edge2_Node000002_Node000003" class="edge">
<title>Node2&#45;&gt;Node3</title>
<g id="a_edge2_Node000002_Node000003"><a xlink:title=" ">
<path fill="none" stroke="#63b8ff" d="M996.27,-372.43C977.66,-380.39 954.79,-390.18 937.97,-397.38"/>
<polygon fill="#63b8ff" stroke="#63b8ff" points="997.44,-375.73 1005.26,-368.58 994.69,-369.3 997.44,-375.73"/>
</a>
</g>
</g>
<!-- Node5 -->
<g id="Node000005" class="node">
<title>Node5</title>
<g id="a_Node000005"><a xlink:href="parse__camera__light_8c.html#a00b9b6a4aadecaaf341d2fc409582b39" target="_top" xlink:title=" ">
<polygon fill="white" stroke="#666666" points="520.62,-380.05 443.12,-380.05 443.12,-360.8 520.62,-360.8 520.62,-380.05"/>
<text text-anchor="middle" x="481.88" y="-366.55" font-family="Helvetica,sans-Serif" font-size="10.00">parse_camera</text>
</a>
</g>
</g>
<!-- Node2&#45;&gt;Node5 -->
<g id="edge50_Node000002_Node000005" class="edge">
<title>Node2&#45;&gt;Node5</title>
<g id="a_edge50_Node000002_Node000005"><a xlink:title=" ">
<path fill="none" stroke="#63b8ff" d="M1028.93,-379.89C1027.5,-420.46 1017.91,-507.76 963.5,-546.42 816.5,-650.88 708.17,-645.89 557.75,-546.42 498.76,-507.41 486.1,-411.48 483.51,-380.35"/>
<polygon fill="#63b8ff" stroke="#63b8ff" points="1032.43,-380.06 1029.13,-370 1025.43,-379.93 1032.43,-380.06"/>
</a>
</g>
</g>
<!-- Node10 -->
<g id="Node000010" class="node">
<title>Node10</title>
<g id="a_Node000010"><a xlink:href="parse__objects_8c.html#a438a08a219ba336c395096067e52bb1b" target="_top" xlink:title=" ">
<polygon fill="white" stroke="#666666" points="521,-343.05 442.75,-343.05 442.75,-323.8 521,-323.8 521,-343.05"/>
<text text-anchor="middle" x="481.88" y="-329.55" font-family="Helvetica,sans-Serif" font-size="10.00">parse_cylinder</text>
</a>
</g>
</g>
<!-- Node2&#45;&gt;Node10 -->
<g id="edge51_Node000002_Node000010" class="edge">
<title>Node2&#45;&gt;Node10</title>
<g id="a_edge51_Node000002_Node000010"><a xlink:title=" ">
<path fill="none" stroke="#63b8ff" d="M1021.12,-378.82C1011.08,-402.31 991.59,-440.58 963.5,-463.42 869.91,-539.52 809.46,-556.39 696.75,-513.42 619.39,-483.93 617.16,-447.08 557.75,-389.42 541.06,-373.22 540.64,-365 521.75,-351.42 517.64,-348.47 512.97,-345.82 508.33,-343.51"/>
<polygon fill="#63b8ff" stroke="#63b8ff" points="1024.3,-380.31 1024.83,-369.73 1017.81,-377.67 1024.3,-380.31"/>
</a>
</g>
</g>
<!-- Node11 -->
<g id="Node000011" class="node">
<title>Node11</title>
<g id="a_Node000011"><a xlink:href="parse__camera__light_8c.html#aaa10205c0950a79dd43566074de7b0a0" target="_top" xlink:title=" ">
<polygon fill="white" stroke="#666666" points="513.5,-269.05 450.25,-269.05 450.25,-249.8 513.5,-249.8 513.5,-269.05"/>
<text text-anchor="middle" x="481.88" y="-255.55" font-family="Helvetica,sans-Serif" font-size="10.00">parse_light</text>
</a>
</g>
</g>
<!-- Node2&#45;&gt;Node11 -->
<g id="edge52_Node000002_Node000011" class="edge">
<title>Node2&#45;&gt;Node11</title>
<g id="a_edge52_Node000002_Node000011"><a xlink:title=" ">
<path fill="none" stroke="#63b8ff" d="M1025.06,-337.24C1011.63,-272.33 960.9,-77.01 827.5,-18.42 774.29,4.94 749.01,7 696.75,-18.42 640.1,-45.98 571.14,-202.33 521.75,-241.42 517.9,-244.47 513.45,-247.14 508.97,-249.43"/>
<polygon fill="#63b8ff" stroke="#63b8ff" points="1021.6,-337.79 1026.97,-346.92 1028.47,-336.43 1021.6,-337.79"/>
</a>
</g>
</g>
<!-- Node13 -->
<g id="Node000013" class="node">
<title>Node13</title>
<g id="a_Node000013"><a xlink:href="check__range_8c.html#a31d1b2f2b0c6260cc272247fb1e281e4" target="_top" xlink:title=" ">
<polygon fill="white" stroke="#666666" points="949.25,-269.05 877.75,-269.05 877.75,-249.8 949.25,-249.8 949.25,-269.05"/>
<text text-anchor="middle" x="913.5" y="-255.55" font-family="Helvetica,sans-Serif" font-size="10.00">check_range</text>
</a>
</g>
</g>
<!-- Node2&#45;&gt;Node13 -->
<g id="edge15_Node000002_Node000013" class="edge">
<title>Node2&#45;&gt;Node13</title>
<g id="a_edge15_Node000002_Node000013"><a xlink:title=" ">
<path fill="none" stroke="#63b8ff" d="M1008.95,-341.09C984.98,-320.36 945.67,-286.37 926.19,-269.53"/>
<polygon fill="#63b8ff" stroke="#63b8ff" points="1006.6,-343.69 1016.46,-347.58 1011.18,-338.39 1006.6,-343.69"/>
</a>
</g>
</g>
<!-- Node16 -->
<g id="Node000016" class="node">
<title>Node16</title>
<g id="a_Node000016"><a xlink:href="parse__camera__light_8c.html#a0b2ac9083d47f8bf5eed5fbbb5576a19" target="_top" xlink:title=" ">
<polygon fill="white" stroke="#666666" points="521.75,-195.05 442,-195.05 442,-175.8 521.75,-175.8 521.75,-195.05"/>
<text text-anchor="middle" x="481.88" y="-181.55" font-family="Helvetica,sans-Serif" font-size="10.00">parse_ambient</text>
</a>
</g>
</g>
<!-- Node2&#45;&gt;Node16 -->
<g id="edge49_Node000002_Node000016" class="edge">
<title>Node2&#45;&gt;Node16</title>
<g id="a_edge49_Node000002_Node000016"><a xlink:title=" ">
<path fill="none" stroke="#63b8ff" d="M1025.06,-337.24C1011.63,-272.33 960.9,-77.01 827.5,-18.42 774.29,4.94 751.7,0.49 696.75,-18.42 601.87,-51.08 516.82,-145 490.92,-175.63"/>
<polygon fill="#63b8ff" stroke="#63b8ff" points="1021.6,-337.79 1026.97,-346.92 1028.47,-336.43 1021.6,-337.79"/>
</a>
</g>
</g>
<!-- Node17 -->
<g id="Node000017" class="node">
<title>Node17</title>
<g id="a_Node000017"><a xlink:href="parse__assign__vec__utils_8c.html#a714588a0946a445e8f37f00e6eb68bbf" target="_top" xlink:title=" ">
<polygon fill="white" stroke="#666666" points="827.5,-504.05 696.75,-504.05 696.75,-484.8 827.5,-484.8 827.5,-504.05"/>
<text text-anchor="middle" x="762.12" y="-490.55" font-family="Helvetica,sans-Serif" font-size="10.00">parse_vector_components</text>
</a>
</g>
</g>
<!-- Node2&#45;&gt;Node17 -->
<g id="edge53_Node000002_Node000017" class="edge">
<title>Node2&#45;&gt;Node17</title>
<g id="a_edge53_Node000002_Node000017"><a xlink:title=" ">
<path fill="none" stroke="#63b8ff" d="M1015.12,-377.18C1003,-392.36 984.16,-413.31 963.5,-426.42 916.82,-456.05 855.78,-474.35 813.39,-484.39"/>
<polygon fill="#63b8ff" stroke="#63b8ff" points="1017.8,-379.43 1021.13,-369.37 1012.26,-375.16 1017.8,-379.43"/>
</a>
</g>
</g>
<!-- Node4 -->
<g id="Node000004" class="node">
<title>Node4</title>
<g id="a_Node000004"><a xlink:href="parse__utils_8c.html#a4b09ddfa5e35fa7e45323421232772ce" target="_top" xlink:title=" ">
<polygon fill="white" stroke="#666666" points="660.75,-343.05 557.75,-343.05 557.75,-323.8 660.75,-323.8 660.75,-343.05"/>
<text text-anchor="middle" x="609.25" y="-329.55" font-family="Helvetica,sans-Serif" font-size="10.00">parse_assign_coord</text>
</a>
</g>
</g>
<!-- Node3&#45;&gt;Node4 -->
<g id="edge3_Node000003_Node000004" class="edge">
<title>Node3&#45;&gt;Node4</title>
<g id="a_edge3_Node000003_Node000004"><a xlink:title=" ">
<path fill="none" stroke="#63b8ff" d="M884.26,-422.54C840.28,-443.8 754.51,-475.86 696.75,-437.42 662.25,-414.47 690.83,-379.92 660.75,-351.42 657.44,-348.29 653.55,-345.69 649.41,-343.54"/>
<polygon fill="#63b8ff" stroke="#63b8ff" points="885.76,-425.7 893.14,-418.1 882.63,-419.44 885.76,-425.7"/>
</a>
</g>
</g>
<!-- Node4&#45;&gt;Node5 -->
<g id="edge4_Node000004_Node000005" class="edge">
<title>Node4&#45;&gt;Node5</title>
<g id="a_edge4_Node000004_Node000005"><a xlink:title=" ">
<path fill="none" stroke="#63b8ff" d="M563.24,-346.7C548.04,-351.19 531.32,-356.12 517.09,-360.32"/>
<polygon fill="#63b8ff" stroke="#63b8ff" points="563.94,-350.15 572.54,-343.96 561.96,-343.43 563.94,-350.15"/>
</a>
</g>
</g>
<!-- Node4&#45;&gt;Node10 -->
<g id="edge9_Node000004_Node000010" class="edge">
<title>Node4&#45;&gt;Node10</title>
<g id="a_edge9_Node000004_Node000010"><a xlink:title=" ">
<path fill="none" stroke="#63b8ff" d="M545.82,-333.42C537.4,-333.42 528.96,-333.42 521.13,-333.42"/>
<polygon fill="#63b8ff" stroke="#63b8ff" points="545.74,-336.92 555.74,-333.42 545.74,-329.92 545.74,-336.92"/>
</a>
</g>
</g>
<!-- Node4&#45;&gt;Node11 -->
<g id="edge11_Node000004_Node000011" class="edge">
<title>Node4&#45;&gt;Node11</title>
<g id="a_edge11_Node000004_Node000011"><a xlink:title=" ">
<path fill="none" stroke="#63b8ff" d="M563.33,-318.72C561.4,-317.68 559.53,-316.58 557.75,-315.42 538.26,-302.72 540.64,-291 521.75,-277.42 517.64,-274.47 512.97,-271.82 508.33,-269.51"/>
<polygon fill="#63b8ff" stroke="#63b8ff" points="561.36,-321.66 571.9,-322.75 564.34,-315.33 561.36,-321.66"/>
</a>
</g>
</g>
<!-- Node12 -->
<g id="Node000012" class="node">
<title>Node12</title>
<g id="a_Node000012"><a xlink:href="parse__objects_8c.html#a7e641794acee51578d8539e361635c47" target="_top" xlink:title=" ">
<polygon fill="white" stroke="#666666" points="516.12,-306.05 447.62,-306.05 447.62,-286.8 516.12,-286.8 516.12,-306.05"/>
<text text-anchor="middle" x="481.88" y="-292.55" font-family="Helvetica,sans-Serif" font-size="10.00">parse_plane</text>
</a>
</g>
</g>
<!-- Node4&#45;&gt;Node12 -->
<g id="edge13_Node000004_Node000012" class="edge">
<title>Node4&#45;&gt;Node12</title>
<g id="a_edge13_Node000004_Node000012"><a xlink:title=" ">
<path fill="none" stroke="#63b8ff" d="M563.06,-320.09C547.6,-315.52 530.59,-310.5 516.23,-306.26"/>
<polygon fill="#63b8ff" stroke="#63b8ff" points="561.96,-323.41 572.54,-322.88 563.94,-316.7 561.96,-323.41"/>
</a>
</g>
</g>
<!-- Node6 -->
<g id="Node000006" class="node">
<title>Node6</title>
<g id="a_Node000006"><a xlink:href="parse__main_8c.html#a92aa268ea4b3d5c808364ca73d913cbe" target="_top" xlink:title=" ">
<polygon fill="white" stroke="#666666" points="406,-287.05 318,-287.05 318,-267.8 406,-267.8 406,-287.05"/>
<text text-anchor="middle" x="362" y="-273.55" font-family="Helvetica,sans-Serif" font-size="10.00">parse_func_redir</text>
</a>
</g>
</g>
<!-- Node5&#45;&gt;Node6 -->
<g id="edge5_Node000005_Node000006" class="edge">
<title>Node5&#45;&gt;Node6</title>
<g id="a_edge5_Node000005_Node000006"><a xlink:title=" ">
<path fill="none" stroke="#63b8ff" d="M446.18,-355.09C444.75,-354.23 443.35,-353.34 442,-352.42 413.37,-332.98 385.3,-303.01 371.62,-287.5"/>
<polygon fill="#63b8ff" stroke="#63b8ff" points="444.16,-357.97 454.62,-359.64 447.48,-351.81 444.16,-357.97"/>
</a>
</g>
</g>
<!-- Node7 -->
<g id="Node000007" class="node">
<title>Node7</title>
<g id="a_Node000007"><a xlink:href="parse__main_8c.html#a5d7da6ab7925ffda04b676ef38880723" target="_top" xlink:title="Reading a line from the given .rt file and splitting the given line with the space (&#39; &#39;) delimiter....">
<polygon fill="white" stroke="#666666" points="282,-287.05 186.5,-287.05 186.5,-267.8 282,-267.8 282,-287.05"/>
<text text-anchor="middle" x="234.25" y="-273.55" font-family="Helvetica,sans-Serif" font-size="10.00">parse_rt_read_line</text>
</a>
</g>
</g>
<!-- Node6&#45;&gt;Node7 -->
<g id="edge6_Node000006_Node000007" class="edge">
<title>Node6&#45;&gt;Node7</title>
<g id="a_edge6_Node000006_Node000007"><a xlink:title=" ">
<path fill="none" stroke="#63b8ff" d="M306.29,-277.42C298.36,-277.42 290.25,-277.42 282.48,-277.42"/>
<polygon fill="#63b8ff" stroke="#63b8ff" points="306.21,-280.92 316.21,-277.42 306.21,-273.92 306.21,-280.92"/>
</a>
</g>
</g>
<!-- Node8 -->
<g id="Node000008" class="node">
<title>Node8</title>
<g id="a_Node000008"><a xlink:href="parse__main_8c.html#a62c4de2f960942eba61e7de12c387ae4" target="_top" xlink:title="Entry function to parsing .rt file where the file is attempted to be opened, t_parse structure is ini...">
<polygon fill="white" stroke="#666666" points="150.5,-287.05 73,-287.05 73,-267.8 150.5,-267.8 150.5,-287.05"/>
<text text-anchor="middle" x="111.75" y="-273.55" font-family="Helvetica,sans-Serif" font-size="10.00">parse_rt_main</text>
</a>
</g>
</g>
<!-- Node7&#45;&gt;Node8 -->
<g id="edge7_Node000007_Node000008" class="edge">
<title>Node7&#45;&gt;Node8</title>
<g id="a_edge7_Node000007_Node000008"><a xlink:title=" ">
<path fill="none" stroke="#63b8ff" d="M174.86,-277.42C166.69,-277.42 158.47,-277.42 150.81,-277.42"/>
<polygon fill="#63b8ff" stroke="#63b8ff" points="174.8,-280.92 184.8,-277.42 174.8,-273.92 174.8,-280.92"/>
</a>
</g>
</g>
<!-- Node9 -->
<g id="Node000009" class="node">
<title>Node9</title>
<g id="a_Node000009"><a xlink:href="mini__ray_8c.html#a0c99d968a34e803d378692bde2e3f18f" target="_top" xlink:title=" ">
<polygon fill="white" stroke="#666666" points="37,-287.05 0,-287.05 0,-267.8 37,-267.8 37,-287.05"/>
<text text-anchor="middle" x="18.5" y="-273.55" font-family="Helvetica,sans-Serif" font-size="10.00">main</text>
</a>
</g>
</g>
<!-- Node8&#45;&gt;Node9 -->
<g id="edge8_Node000008_Node000009" class="edge">
<title>Node8&#45;&gt;Node9</title>
<g id="a_edge8_Node000008_Node000009"><a xlink:title=" ">
<path fill="none" stroke="#63b8ff" d="M61.23,-277.42C52.6,-277.42 44.15,-277.42 37.14,-277.42"/>
<polygon fill="#63b8ff" stroke="#63b8ff" points="61.07,-280.92 71.07,-277.42 61.07,-273.92 61.07,-280.92"/>
</a>
</g>
</g>
<!-- Node10&#45;&gt;Node6 -->
<g id="edge10_Node000010_Node000006" class="edge">
<title>Node10&#45;&gt;Node6</title>
<g id="a_edge10_Node000010_Node000006"><a xlink:title=" ">
<path fill="none" stroke="#63b8ff" d="M448.62,-318.53C446.38,-317.48 444.15,-316.44 442,-315.42 422.18,-306.07 399.66,-295.21 383.75,-287.51"/>
<polygon fill="#63b8ff" stroke="#63b8ff" points="447.14,-321.7 457.68,-322.75 450.09,-315.36 447.14,-321.7"/>
</a>
</g>
</g>
<!-- Node11&#45;&gt;Node6 -->
<g id="edge12_Node000011_Node000006" class="edge">
<title>Node11&#45;&gt;Node6</title>
<g id="a_edge12_Node000011_Node000006"><a xlink:title=" ">
<path fill="none" stroke="#63b8ff" d="M438.79,-265.85C428.2,-267.47 416.82,-269.2 406.17,-270.83"/>
<polygon fill="#63b8ff" stroke="#63b8ff" points="439.05,-269.35 448.41,-264.38 437.99,-262.43 439.05,-269.35"/>
</a>
</g>
</g>
<!-- Node12&#45;&gt;Node6 -->
<g id="edge14_Node000012_Node000006" class="edge">
<title>Node12&#45;&gt;Node6</title>
<g id="a_edge14_Node000012_Node000006"><a xlink:title=" ">
<path fill="none" stroke="#63b8ff" d="M436.22,-289.22C426.4,-287.64 416.02,-285.97 406.25,-284.39"/>
<polygon fill="#63b8ff" stroke="#63b8ff" points="435.49,-292.65 445.92,-290.79 436.6,-285.74 435.49,-292.65"/>
</a>
</g>
</g>
<!-- Node14 -->
<g id="Node000014" class="node">
<title>Node14</title>
<g id="a_Node000014"><a xlink:href="parse__validate__assign__rgb__utils_8c.html#ab71c9a28c124cbbec7afa314c3595d68" target="_top" xlink:title=" ">
<polygon fill="white" stroke="#666666" points="812.5,-306.05 711.75,-306.05 711.75,-286.8 812.5,-286.8 812.5,-306.05"/>
<text text-anchor="middle" x="762.12" y="-292.55" font-family="Helvetica,sans-Serif" font-size="10.00">parse_transparency</text>
</a>
</g>
</g>
<!-- Node13&#45;&gt;Node14 -->
<g id="edge16_Node000013_Node000014" class="edge">
<title>Node13&#45;&gt;Node14</title>
<g id="a_edge16_Node000013_Node000014"><a xlink:title=" ">
<path fill="none" stroke="#63b8ff" d="M866.42,-270.84C846.39,-275.8 823.12,-281.56 803.75,-286.36"/>
<polygon fill="#63b8ff" stroke="#63b8ff" points="867.14,-274.26 876.01,-268.46 865.46,-267.47 867.14,-274.26"/>
</a>
</g>
</g>
<!-- Node13&#45;&gt;Node17 -->
<g id="edge23_Node000013_Node000017" class="edge">
<title>Node13&#45;&gt;Node17</title>
<g id="a_edge23_Node000013_Node000017"><a xlink:title=" ">
<path fill="none" stroke="#63b8ff" d="M905.7,-280.12C893.62,-314.91 866.03,-386.29 827.5,-437.42 813.13,-456.5 791.57,-473.99 777.43,-484.43"/>
<polygon fill="#63b8ff" stroke="#63b8ff" points="908.94,-281.47 908.83,-270.87 902.3,-279.22 908.94,-281.47"/>
</a>
</g>
</g>
<!-- Node19 -->
<g id="Node000019" class="node">
<title>Node19</title>
<g id="a_Node000019"><a xlink:href="parse__validate__obj__utils_8c.html#afc0fb046c4f491b01a17dc19ff7e07ac" target="_top" xlink:title=" ">
<polygon fill="white" stroke="#666666" points="806.88,-121.05 717.38,-121.05 717.38,-101.8 806.88,-101.8 806.88,-121.05"/>
<text text-anchor="middle" x="762.12" y="-107.55" font-family="Helvetica,sans-Serif" font-size="10.00">validate_ambient</text>
</a>
</g>
</g>
<!-- Node13&#45;&gt;Node19 -->
<g id="edge28_Node000013_Node000019" class="edge">
<title>Node13&#45;&gt;Node19</title>
<g id="a_edge28_Node000013_Node000019"><a xlink:title=" ">
<path fill="none" stroke="#63b8ff" d="M894.17,-241.48C884.31,-231.22 872.38,-217.76 863.5,-204.42 843,-173.65 855.83,-153.18 827.5,-129.42 821.63,-124.5 814.51,-120.92 807.17,-118.32"/>
<polygon fill="#63b8ff" stroke="#63b8ff" points="891.6,-243.86 901.11,-248.52 896.58,-238.94 891.6,-243.86"/>
</a>
</g>
</g>
<!-- Node22 -->
<g id="Node000022" class="node">
<title>Node22</title>
<g id="a_Node000022"><a xlink:href="parse__validate__obj__utils_8c.html#addac7b2e5dfd2ee9efe59f688946f39b" target="_top" xlink:title=" ">
<polygon fill="white" stroke="#666666" points="805.75,-84.05 718.5,-84.05 718.5,-64.8 805.75,-64.8 805.75,-84.05"/>
<text text-anchor="middle" x="762.12" y="-70.55" font-family="Helvetica,sans-Serif" font-size="10.00">validate_camera</text>
</a>
</g>
</g>
<!-- Node13&#45;&gt;Node22 -->
<g id="edge37_Node000013_Node000022" class="edge">
<title>Node13&#45;&gt;Node22</title>
<g id="a_edge37_Node000013_Node000022"><a xlink:title=" ">
<path fill="none" stroke="#63b8ff" d="M893.07,-241.55C883.07,-231.47 871.36,-218.16 863.5,-204.42 837.55,-159.03 865.17,-128.68 827.5,-92.42 821.56,-86.71 813.97,-82.78 806.09,-80.09"/>
<polygon fill="#63b8ff" stroke="#63b8ff" points="890.58,-244.01 900.19,-248.46 895.45,-238.99 890.58,-244.01"/>
</a>
</g>
</g>
<!-- Node23 -->
<g id="Node000023" class="node">
<title>Node23</title>
<g id="a_Node000023"><a xlink:href="parse__assign__coord__utils_8c.html#a0f249ab97644690110e43ae95f50fec8" target="_top" xlink:title=" ">
<polygon fill="white" stroke="#666666" points="812.12,-428.67 712.12,-428.67 712.12,-398.17 812.12,-398.17 812.12,-428.67"/>
<text text-anchor="start" x="720.12" y="-415.17" font-family="Helvetica,sans-Serif" font-size="10.00">validate_coordinate</text>
<text text-anchor="middle" x="762.12" y="-403.92" font-family="Helvetica,sans-Serif" font-size="10.00">_values</text>
</a>
</g>
</g>
<!-- Node13&#45;&gt;Node23 -->
<g id="edge39_Node000013_Node000023" class="edge">
<title>Node13&#45;&gt;Node23</title>
<g id="a_edge39_Node000013_Node000023"><a xlink:title=" ">
<path fill="none" stroke="#63b8ff" d="M904.17,-279.73C891.57,-308.07 865.08,-359.38 827.5,-389.42 822.93,-393.07 817.76,-396.2 812.37,-398.88"/>
<polygon fill="#63b8ff" stroke="#63b8ff" points="907.26,-281.4 907.98,-270.83 900.82,-278.64 907.26,-281.4"/>
</a>
</g>
</g>
<!-- Node24 -->
<g id="Node000024" class="node">
<title>Node24</title>
<g id="a_Node000024"><a xlink:href="parse__validate__obj__utils_8c.html#a578190cd0dc27381815b6d4d98c65168" target="_top" xlink:title=" ">
<polygon fill="white" stroke="#666666" points="806.12,-47.05 718.12,-47.05 718.12,-27.8 806.12,-27.8 806.12,-47.05"/>
<text text-anchor="middle" x="762.12" y="-33.55" font-family="Helvetica,sans-Serif" font-size="10.00">validate_cylinder</text>
</a>
</g>
</g>
<!-- Node13&#45;&gt;Node24 -->
<g id="edge41_Node000013_Node000024" class="edge">
<title>Node13&#45;&gt;Node24</title>
<g id="a_edge41_Node000013_Node000024"><a xlink:title=" ">
<path fill="none" stroke="#63b8ff" d="M892.66,-241.78C882.54,-231.76 870.84,-218.44 863.5,-204.42 831.89,-144.07 874.81,-104.45 827.5,-55.42 821.78,-49.49 814.28,-45.47 806.43,-42.75"/>
<polygon fill="#63b8ff" stroke="#63b8ff" points="890.23,-244.3 899.9,-248.63 895.04,-239.21 890.23,-244.3"/>
</a>
</g>
</g>
<!-- Node25 -->
<g id="Node000025" class="node">
<title>Node25</title>
<g id="a_Node000025"><a xlink:href="parse__validate__obj__utils_8c.html#a75294ff609499aa907ba8c285855f720" target="_top" xlink:title=" ">
<polygon fill="white" stroke="#666666" points="798.62,-232.05 725.62,-232.05 725.62,-212.8 798.62,-212.8 798.62,-232.05"/>
<text text-anchor="middle" x="762.12" y="-218.55" font-family="Helvetica,sans-Serif" font-size="10.00">validate_light</text>
</a>
</g>
</g>
<!-- Node13&#45;&gt;Node25 -->
<g id="edge43_Node000013_Node000025" class="edge">
<title>Node13&#45;&gt;Node25</title>
<g id="a_edge43_Node000013_Node000025"><a xlink:title=" ">
<path fill="none" stroke="#63b8ff" d="M866.51,-248.03C844.78,-242.65 819.23,-236.32 798.96,-231.3"/>
<polygon fill="#63b8ff" stroke="#63b8ff" points="865.46,-251.38 876.01,-250.38 867.14,-244.58 865.46,-251.38"/>
</a>
</g>
</g>
<!-- Node26 -->
<g id="Node000026" class="node">
<title>Node26</title>
<g id="a_Node000026"><a xlink:href="parse__validate__assign__rgb__utils_8c.html#a00d4a3c3a01ac083aacdf897546cc68c" target="_top" xlink:title=" ">
<polygon fill="white" stroke="#666666" points="813.62,-343.05 710.62,-343.05 710.62,-323.8 813.62,-323.8 813.62,-343.05"/>
<text text-anchor="middle" x="762.12" y="-329.55" font-family="Helvetica,sans-Serif" font-size="10.00">validate_rgb_ranges</text>
</a>
</g>
</g>
<!-- Node13&#45;&gt;Node26 -->
<g id="edge45_Node000013_Node000026" class="edge">
<title>Node13&#45;&gt;Node26</title>
<g id="a_edge45_Node000013_Node000026"><a xlink:title=" ">
<path fill="none" stroke="#63b8ff" d="M891.15,-276.2C874.58,-288.52 850.62,-304.89 827.5,-315.42 820.85,-318.45 813.57,-321.08 806.38,-323.33"/>
<polygon fill="#63b8ff" stroke="#63b8ff" points="892.93,-279.23 898.78,-270.4 888.7,-273.66 892.93,-279.23"/>
</a>
</g>
</g>
<!-- Node27 -->
<g id="Node000027" class="node">
<title>Node27</title>
<g id="a_Node000027"><a xlink:href="parse__validate__obj__utils_8c.html#ad58bbd3ad3f3f914989f3c0bc27cff8e" target="_top" xlink:title=" ">
<polygon fill="white" stroke="#666666" points="804.25,-195.05 720,-195.05 720,-175.8 804.25,-175.8 804.25,-195.05"/>
<text text-anchor="middle" x="762.12" y="-181.55" font-family="Helvetica,sans-Serif" font-size="10.00">validate_sphere</text>
</a>
</g>
</g>
<!-- Node13&#45;&gt;Node27 -->
<g id="edge47_Node000013_Node000027" class="edge">
<title>Node13&#45;&gt;Node27</title>
<g id="a_edge47_Node000013_Node000027"><a xlink:title=" ">
<path fill="none" stroke="#63b8ff" d="M891.15,-242.65C874.58,-230.33 850.62,-213.96 827.5,-203.42 820.32,-200.15 812.41,-197.35 804.67,-194.99"/>
<polygon fill="#63b8ff" stroke="#63b8ff" points="888.7,-245.18 898.78,-248.45 892.93,-239.61 888.7,-245.18"/>
</a>
</g>
</g>
<!-- Node15 -->
<g id="Node000015" class="node">
<title>Node15</title>
<g id="a_Node000015"><a xlink:href="parse__utils_8c.html#aa353b138267370a075b03b29a2306573" target="_top" xlink:title=" ">
<polygon fill="white" stroke="#666666" points="657,-306.05 561.5,-306.05 561.5,-286.8 657,-286.8 657,-306.05"/>
<text text-anchor="middle" x="609.25" y="-292.55" font-family="Helvetica,sans-Serif" font-size="10.00">parse_assign_trgb</text>
</a>
</g>
</g>
<!-- Node14&#45;&gt;Node15 -->
<g id="edge17_Node000014_Node000015" class="edge">
<title>Node14&#45;&gt;Node15</title>
<g id="a_edge17_Node000014_Node000015"><a xlink:title=" ">
<path fill="none" stroke="#63b8ff" d="M700.1,-296.42C685.89,-296.42 670.97,-296.42 657.46,-296.42"/>
<polygon fill="#63b8ff" stroke="#63b8ff" points="699.79,-299.92 709.79,-296.42 699.79,-292.92 699.79,-299.92"/>
</a>
</g>
</g>
<!-- Node15&#45;&gt;Node10 -->
<g id="edge20_Node000015_Node000010" class="edge">
<title>Node15&#45;&gt;Node10</title>
<g id="a_edge20_Node000015_Node000010"><a xlink:title=" ">
<path fill="none" stroke="#63b8ff" d="M563.24,-309.7C548.04,-314.19 531.32,-319.12 517.09,-323.32"/>
<polygon fill="#63b8ff" stroke="#63b8ff" points="563.94,-313.15 572.54,-306.96 561.96,-306.43 563.94,-313.15"/>
</a>
</g>
</g>
<!-- Node15&#45;&gt;Node11 -->
<g id="edge21_Node000015_Node000011" class="edge">
<title>Node15&#45;&gt;Node11</title>
<g id="a_edge21_Node000015_Node000011"><a xlink:title=" ">
<path fill="none" stroke="#63b8ff" d="M562.99,-283.07C546.61,-278.23 528.51,-272.89 513.67,-268.51"/>
<polygon fill="#63b8ff" stroke="#63b8ff" points="561.96,-286.41 572.54,-285.88 563.94,-279.7 561.96,-286.41"/>
</a>
</g>
</g>
<!-- Node15&#45;&gt;Node12 -->
<g id="edge22_Node000015_Node000012" class="edge">
<title>Node15&#45;&gt;Node12</title>
<g id="a_edge22_Node000015_Node000012"><a xlink:title=" ">
<path fill="none" stroke="#63b8ff" d="M549.88,-296.42C538.43,-296.42 526.78,-296.42 516.48,-296.42"/>
<polygon fill="#63b8ff" stroke="#63b8ff" points="549.69,-299.92 559.69,-296.42 549.69,-292.92 549.69,-299.92"/>
</a>
</g>
</g>
<!-- Node15&#45;&gt;Node16 -->
<g id="edge18_Node000015_Node000016" class="edge">
<title>Node15&#45;&gt;Node16</title>
<g id="a_edge18_Node000015_Node000016"><a xlink:title=" ">
<path fill="none" stroke="#63b8ff" d="M591.41,-278.14C566.82,-251.47 523.78,-204.9 521.75,-203.42 517.66,-200.45 512.99,-197.79 508.36,-195.48"/>
<polygon fill="#63b8ff" stroke="#63b8ff" points="588.58,-280.23 597.93,-285.21 593.72,-275.49 588.58,-280.23"/>
</a>
</g>
</g>
<!-- Node16&#45;&gt;Node6 -->
<g id="edge19_Node000016_Node000006" class="edge">
<title>Node16&#45;&gt;Node6</title>
<g id="a_edge19_Node000016_Node000006"><a xlink:title=" ">
<path fill="none" stroke="#63b8ff" d="M446.19,-200.77C444.75,-201.63 443.35,-202.51 442,-203.42 413.48,-222.65 385.37,-252.2 371.65,-267.49"/>
<polygon fill="#63b8ff" stroke="#63b8ff" points="447.48,-204.05 454.63,-196.23 444.17,-197.88 447.48,-204.05"/>
</a>
</g>
</g>
<!-- Node18 -->
<g id="Node000018" class="node">
<title>Node18</title>
<g id="a_Node000018"><a xlink:href="parse__utils_8c.html#a70a5145ad572a59954c71984bf73ca01" target="_top" xlink:title=" ">
<polygon fill="white" stroke="#666666" points="656.62,-380.05 561.88,-380.05 561.88,-360.8 656.62,-360.8 656.62,-380.05"/>
<text text-anchor="middle" x="609.25" y="-366.55" font-family="Helvetica,sans-Serif" font-size="10.00">parse_assign_vec</text>
</a>
</g>
</g>
<!-- Node17&#45;&gt;Node18 -->
<g id="edge24_Node000017_Node000018" class="edge">
<title>Node17&#45;&gt;Node18</title>
<g id="a_edge24_Node000017_Node000018"><a xlink:title=" ">
<path fill="none" stroke="#63b8ff" d="M714.17,-480.11C708.06,-477.34 702.08,-474.13 696.75,-470.42 659.99,-444.88 629.04,-400.23 616.38,-380.4"/>
<polygon fill="#63b8ff" stroke="#63b8ff" points="712.49,-483.21 723.07,-483.77 715.16,-476.73 712.49,-483.21"/>
</a>
</g>
</g>
<!-- Node18&#45;&gt;Node5 -->
<g id="edge25_Node000018_Node000005" class="edge">
<title>Node18&#45;&gt;Node5</title>
<g id="a_edge25_Node000018_Node000005"><a xlink:title=" ">
<path fill="none" stroke="#63b8ff" d="M550.1,-370.42C540.22,-370.42 530.19,-370.42 521,-370.42"/>
<polygon fill="#63b8ff" stroke="#63b8ff" points="550.05,-373.92 560.05,-370.42 550.05,-366.92 550.05,-373.92"/>
</a>
</g>
</g>
<!-- Node18&#45;&gt;Node10 -->
<g id="edge26_Node000018_Node000010" class="edge">
<title>Node18&#45;&gt;Node10</title>
<g id="a_edge26_Node000018_Node000010"><a xlink:title=" ">
<path fill="none" stroke="#63b8ff" d="M563.24,-357.14C548.04,-352.65 531.32,-347.72 517.09,-343.52"/>
<polygon fill="#63b8ff" stroke="#63b8ff" points="561.96,-360.41 572.54,-359.88 563.94,-353.7 561.96,-360.41"/>
</a>
</g>
</g>
<!-- Node18&#45;&gt;Node12 -->
<g id="edge27_Node000018_Node000012" class="edge">
<title>Node18&#45;&gt;Node12</title>
<g id="a_edge27_Node000018_Node000012"><a xlink:title=" ">
<path fill="none" stroke="#63b8ff" d="M563.33,-355.72C561.4,-354.68 559.53,-353.58 557.75,-352.42 538.26,-339.72 540.64,-328 521.75,-314.42 517.64,-311.47 512.97,-308.82 508.33,-306.51"/>
<polygon fill="#63b8ff" stroke="#63b8ff" points="561.36,-358.66 571.9,-359.75 564.34,-352.33 561.36,-358.66"/>
</a>
</g>
</g>
<!-- Node20 -->
<g id="Node000020" class="node">
<title>Node20</title>
<g id="a_Node000020"><a xlink:href="parse__utils_8c.html#a3a792671ccd6560d6c42352319889a0c" target="_top" xlink:title=" ">
<polygon fill="white" stroke="#666666" points="657.75,-232.05 560.75,-232.05 560.75,-212.8 657.75,-212.8 657.75,-232.05"/>
<text text-anchor="middle" x="609.25" y="-218.55" font-family="Helvetica,sans-Serif" font-size="10.00">parse_validate_obj</text>
</a>
</g>
</g>
<!-- Node19&#45;&gt;Node20 -->
<g id="edge29_Node000019_Node000020" class="edge">
<title>Node19&#45;&gt;Node20</title>
<g id="a_edge29_Node000019_Node000020"><a xlink:title=" ">
<path fill="none" stroke="#63b8ff" d="M706.64,-124.28C703.2,-125.81 699.87,-127.52 696.75,-129.42 660.41,-151.56 629.7,-193.18 616.78,-212.32"/>
<polygon fill="#63b8ff" stroke="#63b8ff" points="707.7,-127.63 715.76,-120.75 705.17,-121.1 707.7,-127.63"/>
</a>
</g>
</g>
<!-- Node20&#45;&gt;Node5 -->
<g id="edge31_Node000020_Node000005" class="edge">
<title>Node20&#45;&gt;Node5</title>
<g id="a_edge31_Node000020_Node000005"><a xlink:title=" ">
<path fill="none" stroke="#63b8ff" d="M589.63,-239.97C579.39,-250.24 566.95,-263.84 557.75,-277.42 537.02,-308.04 548.08,-326.46 521.75,-352.42 518.57,-355.56 514.75,-358.21 510.76,-360.44"/>
<polygon fill="#63b8ff" stroke="#63b8ff" points="591.8,-242.74 596.5,-233.25 586.91,-237.73 591.8,-242.74"/>
</a>
</g>
</g>
<!-- Node20&#45;&gt;Node10 -->
<g id="edge32_Node000020_Node000010" class="edge">
<title>Node20&#45;&gt;Node10</title>
<g id="a_edge32_Node000020_Node000010"><a xlink:title=" ">
<path fill="none" stroke="#63b8ff" d="M591.41,-240.71C566.82,-267.37 523.78,-313.95 521.75,-315.42 517.66,-318.39 512.99,-321.05 508.36,-323.36"/>
<polygon fill="#63b8ff" stroke="#63b8ff" points="593.72,-243.36 597.93,-233.63 588.58,-238.61 593.72,-243.36"/>
</a>
</g>
</g>
<!-- Node20&#45;&gt;Node11 -->
<g id="edge33_Node000020_Node000011" class="edge">
<title>Node20&#45;&gt;Node11</title>
<g id="a_edge33_Node000020_Node000011"><a xlink:title=" ">
<path fill="none" stroke="#63b8ff" d="M562.99,-235.78C546.61,-240.61 528.51,-245.95 513.67,-250.34"/>
<polygon fill="#63b8ff" stroke="#63b8ff" points="563.94,-239.15 572.54,-232.96 561.96,-232.43 563.94,-239.15"/>
</a>
</g>
</g>
<!-- Node20&#45;&gt;Node12 -->
<g id="edge34_Node000020_Node000012" class="edge">
<title>Node20&#45;&gt;Node12</title>
<g id="a_edge34_Node000020_Node000012"><a xlink:title=" ">
<path fill="none" stroke="#63b8ff" d="M585.04,-238.73C567.93,-250.43 543.88,-266.22 521.75,-278.42 516.67,-281.22 511.08,-283.99 505.75,-286.48"/>
<polygon fill="#63b8ff" stroke="#63b8ff" points="586.76,-241.79 593,-233.23 582.78,-236.03 586.76,-241.79"/>
</a>
</g>
</g>
<!-- Node20&#45;&gt;Node16 -->
<g id="edge30_Node000020_Node000016" class="edge">
<title>Node20&#45;&gt;Node16</title>
<g id="a_edge30_Node000020_Node000016"><a xlink:title=" ">
<path fill="none" stroke="#63b8ff" d="M563.24,-209.14C548.04,-204.65 531.32,-199.72 517.09,-195.52"/>
<polygon fill="#63b8ff" stroke="#63b8ff" points="561.96,-212.41 572.54,-211.88 563.94,-205.7 561.96,-212.41"/>
</a>
</g>
</g>
<!-- Node21 -->
<g id="Node000021" class="node">
<title>Node21</title>
<g id="a_Node000021"><a xlink:href="parse__objects_8c.html#a6ab66800bec24ca2d8c0f6c781558f65" target="_top" xlink:title=" ">
<polygon fill="white" stroke="#666666" points="519.12,-232.05 444.62,-232.05 444.62,-212.8 519.12,-212.8 519.12,-232.05"/>
<text text-anchor="middle" x="481.88" y="-218.55" font-family="Helvetica,sans-Serif" font-size="10.00">parse_sphere</text>
</a>
</g>
</g>
<!-- Node20&#45;&gt;Node21 -->
<g id="edge35_Node000020_Node000021" class="edge">
<title>Node20&#45;&gt;Node21</title>
<g id="a_edge35_Node000020_Node000021"><a xlink:title=" ">
<path fill="none" stroke="#63b8ff" d="M549.2,-222.42C539.1,-222.42 528.88,-222.42 519.58,-222.42"/>
<polygon fill="#63b8ff" stroke="#63b8ff" points="548.98,-225.92 558.98,-222.42 548.98,-218.92 548.98,-225.92"/>
</a>
</g>
</g>
<!-- Node21&#45;&gt;Node6 -->
<g id="edge36_Node000021_Node000006" class="edge">
<title>Node21&#45;&gt;Node6</title>
<g id="a_edge36_Node000021_Node000006"><a xlink:title=" ">
<path fill="none" stroke="#63b8ff" d="M448.63,-237.34C446.39,-238.38 444.16,-239.42 442,-240.42 422.5,-249.5 400.33,-259.89 384.45,-267.35"/>
<polygon fill="#63b8ff" stroke="#63b8ff" points="450.1,-240.52 457.7,-233.13 447.16,-234.17 450.1,-240.52"/>
</a>
</g>
</g>
<!-- Node22&#45;&gt;Node20 -->
<g id="edge38_Node000022_Node000020" class="edge">
<title>Node22&#45;&gt;Node20</title>
<g id="a_edge38_Node000022_Node000020"><a xlink:title=" ">
<path fill="none" stroke="#63b8ff" d="M707.74,-86C703.86,-87.83 700.14,-89.96 696.75,-92.42 652,-124.92 623.64,-188.18 613.97,-212.53"/>
<polygon fill="#63b8ff" stroke="#63b8ff" points="708.9,-89.3 716.89,-82.35 706.3,-82.8 708.9,-89.3"/>
</a>
</g>
</g>
<!-- Node23&#45;&gt;Node4 -->
<g id="edge40_Node000023_Node000004" class="edge">
<title>Node23&#45;&gt;Node4</title>
<g id="a_edge40_Node000023_Node000004"><a xlink:title=" ">
<path fill="none" stroke="#63b8ff" d="M701.72,-392.5C700.02,-391.51 698.36,-390.49 696.75,-389.42 677.35,-376.58 680.24,-364.12 660.75,-351.42 655.99,-348.32 650.64,-345.68 645.23,-343.45"/>
<polygon fill="#63b8ff" stroke="#63b8ff" points="699.98,-395.54 710.47,-397.04 703.21,-389.33 699.98,-395.54"/>
</a>
</g>
</g>
<!-- Node24&#45;&gt;Node20 -->
<g id="edge42_Node000024_Node000020" class="edge">
<title>Node24&#45;&gt;Node20</title>
<g id="a_edge42_Node000024_Node000020"><a xlink:title=" ">
<path fill="none" stroke="#63b8ff" d="M707.43,-48.59C703.62,-50.52 700,-52.78 696.75,-55.42 643.55,-98.68 619.43,-183.35 612.47,-212.37"/>
<polygon fill="#63b8ff" stroke="#63b8ff" points="708.6,-51.9 716.47,-44.82 705.9,-45.44 708.6,-51.9"/>
</a>
</g>
</g>
<!-- Node25&#45;&gt;Node20 -->
<g id="edge44_Node000025_Node000020" class="edge">
<title>Node25&#45;&gt;Node20</title>
<g id="a_edge44_Node000025_Node000020"><a xlink:title=" ">
<path fill="none" stroke="#63b8ff" d="M714.06,-222.42C696.23,-222.42 675.92,-222.42 658.03,-222.42"/>
<polygon fill="#63b8ff" stroke="#63b8ff" points="713.86,-225.92 723.86,-222.42 713.86,-218.92 713.86,-225.92"/>
</a>
</g>
</g>
<!-- Node26&#45;&gt;Node15 -->
<g id="edge46_Node000026_Node000015" class="edge">
<title>Node26&#45;&gt;Node15</title>
<g id="a_edge46_Node000026_Node000015"><a xlink:title=" ">
<path fill="none" stroke="#63b8ff" d="M708.82,-320.6C690.04,-315.99 669.13,-310.86 651.43,-306.52"/>
<polygon fill="#63b8ff" stroke="#63b8ff" points="707.88,-323.97 718.43,-322.95 709.55,-317.17 707.88,-323.97"/>
</a>
</g>
</g>
<!-- Node27&#45;&gt;Node20 -->
<g id="edge48_Node000027_Node000020" class="edge">
<title>Node27&#45;&gt;Node20</title>
<g id="a_edge48_Node000027_Node000020"><a xlink:title=" ">
<path fill="none" stroke="#63b8ff" d="M708.82,-198.25C690.04,-202.86 669.13,-207.98 651.43,-212.32"/>
<polygon fill="#63b8ff" stroke="#63b8ff" points="709.55,-201.67 718.43,-195.89 707.88,-194.88 709.55,-201.67"/>
</a>
</g>
</g>
<!-- Node28&#45;&gt;Node29 -->
<g id="edge55_Node000028_Node000029" class="edge">
<title>Node28&#45;&gt;Node29</title>
<g id="a_edge55_Node000028_Node000029"><a xlink:title=" ">
<path fill="none" stroke="#63b8ff" d="M988.32,-209.92C972.03,-204.51 953.77,-198.46 939.49,-193.72"/>
<polygon fill="#63b8ff" stroke="#63b8ff" points="987.19,-213.23 997.78,-213.06 989.39,-206.59 987.19,-213.23"/>
</a>
</g>
</g>
<!-- Node29&#45;&gt;Node19 -->
<g id="edge58_Node000029_Node000019" class="edge">
<title>Node29&#45;&gt;Node19</title>
<g id="a_edge58_Node000029_Node000019"><a xlink:title=" ">
<path fill="none" stroke="#63b8ff" d="M891.15,-168.65C874.58,-156.33 850.62,-139.96 827.5,-129.42 820.85,-126.39 813.57,-123.76 806.38,-121.52"/>
<polygon fill="#63b8ff" stroke="#63b8ff" points="888.7,-171.18 898.78,-174.45 892.93,-165.61 888.7,-171.18"/>
</a>
</g>
</g>
<!-- Node29&#45;&gt;Node22 -->
<g id="edge59_Node000029_Node000022" class="edge">
<title>Node29&#45;&gt;Node22</title>
<g id="a_edge59_Node000029_Node000022"><a xlink:title=" ">
<path fill="none" stroke="#63b8ff" d="M899.8,-166.02C884.94,-144.85 858.4,-111.43 827.5,-92.42 820.98,-88.41 813.54,-85.27 806.09,-82.82"/>
<polygon fill="#63b8ff" stroke="#63b8ff" points="896.75,-167.77 905.27,-174.07 902.54,-163.83 896.75,-167.77"/>
</a>
</g>
</g>
<!-- Node29&#45;&gt;Node24 -->
<g id="edge60_Node000029_Node000024" class="edge">
<title>Node29&#45;&gt;Node24</title>
<g id="a_edge60_Node000029_Node000024"><a xlink:title=" ">
<path fill="none" stroke="#63b8ff" d="M904.69,-165.1C892.57,-136.31 866.5,-83.99 827.5,-55.42 821.23,-50.83 813.83,-47.41 806.32,-44.86"/>
<polygon fill="#63b8ff" stroke="#63b8ff" points="901.34,-166.17 908.33,-174.13 907.83,-163.55 901.34,-166.17"/>
</a>
</g>
</g>
<!-- Node29&#45;&gt;Node25 -->
<g id="edge63_Node000029_Node000025" class="edge">
<title>Node29&#45;&gt;Node25</title>
<g id="a_edge63_Node000029_Node000025"><a xlink:title=" ">
<path fill="none" stroke="#63b8ff" d="M876.57,-194.32C853.02,-200.16 822.36,-207.75 798.85,-213.57"/>
<polygon fill="#63b8ff" stroke="#63b8ff" points="877.16,-197.78 886.03,-191.98 875.48,-190.99 877.16,-197.78"/>
</a>
</g>
</g>
<!-- Node29&#45;&gt;Node27 -->
<g id="edge66_Node000029_Node000027" class="edge">
<title>Node29&#45;&gt;Node27</title>
<g id="a_edge66_Node000029_Node000027"><a xlink:title=" ">
<path fill="none" stroke="#63b8ff" d="M876.17,-185.42C854.55,-185.42 827.06,-185.42 804.6,-185.42"/>
<polygon fill="#63b8ff" stroke="#63b8ff" points="875.98,-188.92 885.98,-185.42 875.98,-181.92 875.98,-188.92"/>
</a>
</g>
</g>
<!-- Node30 -->
<g id="Node000030" class="node">
<title>Node30</title>
<g id="a_Node000030"><a xlink:href="parse__assign__vec__utils_8c.html#ab8e92dfaa96787a8924706eb0177af9c" target="_top" xlink:title=" ">
<polygon fill="white" stroke="#666666" points="803.12,-380.05 721.12,-380.05 721.12,-360.8 803.12,-360.8 803.12,-380.05"/>
<text text-anchor="middle" x="762.12" y="-366.55" font-family="Helvetica,sans-Serif" font-size="10.00">is_valid_format</text>
</a>
</g>
</g>
<!-- Node29&#45;&gt;Node30 -->
<g id="edge56_Node000029_Node000030" class="edge">
<title>Node29&#45;&gt;Node30</title>
<g id="a_edge56_Node000029_Node000030"><a xlink:title=" ">
<path fill="none" stroke="#63b8ff" d="M893.07,-203.29C883.07,-213.38 871.36,-226.68 863.5,-240.42 837.55,-285.81 865.17,-316.17 827.5,-352.42 820.89,-358.78 812.24,-362.93 803.42,-365.62"/>
<polygon fill="#63b8ff" stroke="#63b8ff" points="895.45,-205.86 900.19,-196.38 890.58,-200.83 895.45,-205.86"/>
</a>
</g>
</g>
<!-- Node31 -->
<g id="Node000031" class="node">
<title>Node31</title>
<g id="a_Node000031"><a xlink:href="parse__assign__coord__utils_8c.html#a71d2eb8bad13d888dca97ba273b97aec" target="_top" xlink:title=" ">
<polygon fill="white" stroke="#666666" points="814.75,-269.05 709.5,-269.05 709.5,-249.8 814.75,-249.8 814.75,-269.05"/>
<text text-anchor="middle" x="762.12" y="-255.55" font-family="Helvetica,sans-Serif" font-size="10.00">validate_input_string</text>
</a>
</g>
</g>
<!-- Node29&#45;&gt;Node31 -->
<g id="edge61_Node000029_Node000031" class="edge">
<title>Node29&#45;&gt;Node31</title>
<g id="a_edge61_Node000029_Node000031"><a xlink:title=" ">
<path fill="none" stroke="#63b8ff" d="M891.15,-202.2C874.58,-214.52 850.62,-230.89 827.5,-241.42 820.85,-244.45 813.57,-247.08 806.38,-249.33"/>
<polygon fill="#63b8ff" stroke="#63b8ff" points="892.93,-205.23 898.78,-196.4 888.7,-199.66 892.93,-205.23"/>
</a>
</g>
</g>
<!-- Node32 -->
<g id="Node000032" class="node">
<title>Node32</title>
<g id="a_Node000032"><a xlink:href="parse__validate__assign__rgb__utils_8c.html#a61e41bb10d4cefab87e662ece1e0b5ca" target="_top" xlink:title=" ">
<polygon fill="white" stroke="#666666" points="811,-158.05 713.25,-158.05 713.25,-138.8 811,-138.8 811,-158.05"/>
<text text-anchor="middle" x="762.12" y="-144.55" font-family="Helvetica,sans-Serif" font-size="10.00">validate_rgb_string</text>
</a>
</g>
</g>
<!-- Node29&#45;&gt;Node32 -->
<g id="edge64_Node000029_Node000032" class="edge">
<title>Node29&#45;&gt;Node32</title>
<g id="a_edge64_Node000029_Node000032"><a xlink:title=" ">
<path fill="none" stroke="#63b8ff" d="M876.34,-176.46C854.42,-171.03 826.4,-164.1 803.72,-158.48"/>
<polygon fill="#63b8ff" stroke="#63b8ff" points="875.48,-179.86 886.03,-178.87 877.16,-173.06 875.48,-179.86"/>
</a>
</g>
</g>
<!-- Node30&#45;&gt;Node18 -->
<g id="edge57_Node000030_Node000018" class="edge">
<title>Node30&#45;&gt;Node18</title>
<g id="a_edge57_Node000030_Node000018"><a xlink:title=" ">
<path fill="none" stroke="#63b8ff" d="M709.27,-370.42C692.28,-370.42 673.52,-370.42 656.94,-370.42"/>
<polygon fill="#63b8ff" stroke="#63b8ff" points="709.18,-373.92 719.18,-370.42 709.18,-366.92 709.18,-373.92"/>
</a>
</g>
</g>
<!-- Node31&#45;&gt;Node4 -->
<g id="edge62_Node000031_Node000004" class="edge">
<title>Node31&#45;&gt;Node4</title>
<g id="a_edge62_Node000031_Node000004"><a xlink:title=" ">
<path fill="none" stroke="#63b8ff" d="M703.42,-273.82C701.13,-274.93 698.89,-276.13 696.75,-277.42 676.83,-289.43 680.24,-302.72 660.75,-315.42 655.99,-318.52 650.64,-321.17 645.23,-323.4"/>
<polygon fill="#63b8ff" stroke="#63b8ff" points="704.57,-277.13 712.43,-270.02 701.85,-270.68 704.57,-277.13"/>
</a>
</g>
</g>
<!-- Node32&#45;&gt;Node15 -->
<g id="edge65_Node000032_Node000015" class="edge">
<title>Node32&#45;&gt;Node15</title>
<g id="a_edge65_Node000032_Node000015"><a xlink:title=" ">
<path fill="none" stroke="#63b8ff" d="M702.86,-162.02C700.71,-163.35 698.66,-164.82 696.75,-166.42 668.42,-190.18 681.48,-210.81 660.75,-241.42 648.98,-258.81 631.88,-276.22 620.91,-286.66"/>
<polygon fill="#63b8ff" stroke="#63b8ff" points="704.1,-165.31 711.43,-157.66 700.93,-159.08 704.1,-165.31"/>
</a>
</g>
</g>
</g>
</svg>
