<?xml version="1.0" encoding="UTF-8" standalone="no"?>
<!DOCTYPE svg PUBLIC "-//W3C//DTD SVG 1.1//EN"
 "http://www.w3.org/Graphics/SVG/1.1/DTD/svg11.dtd">
<!-- Generated by graphviz version 9.0.0 (20230911.1827)
 -->
<!-- Title: ft_strlen Pages: 1 -->
<svg width="490pt" height="394pt"
 viewBox="0.00 0.00 490.00 393.57" xmlns="http://www.w3.org/2000/svg" xmlns:xlink="http://www.w3.org/1999/xlink">
<g id="graph0" class="graph" transform="scale(1 1) rotate(0) translate(4 389.57)">
<title>ft_strlen</title>
<!-- Node1 -->
<g id="Node000001" class="node">
<title>Node1</title>
<g id="a_Node000001"><a xlink:title=" ">
<polygon fill="#999999" stroke="#666666" points="482,-206.25 430.75,-206.25 430.75,-187 482,-187 482,-206.25"/>
<text text-anchor="middle" x="456.38" y="-192.75" font-family="Helvetica,sans-Serif" font-size="10.00">ft_strlen</text>
</a>
</g>
</g>
<!-- Node2 -->
<g id="Node000002" class="node">
<title>Node2</title>
<g id="a_Node000002"><a xlink:href="check__extension_8c.html#a991a2143867a04afdf7259df90a7c33d" target="_top" xlink:title="Function specifically checking if the given file has expected extension.">
<polygon fill="white" stroke="#666666" points="394.75,-357.25 306,-357.25 306,-338 394.75,-338 394.75,-357.25"/>
<text text-anchor="middle" x="350.38" y="-343.75" font-family="Helvetica,sans-Serif" font-size="10.00">check_extension</text>
</a>
</g>
</g>
<!-- Node1&#45;&gt;Node2 -->
<g id="edge1_Node000001_Node000002" class="edge">
<title>Node1&#45;&gt;Node2</title>
<g id="a_edge1_Node000001_Node000002"><a xlink:title=" ">
<path fill="none" stroke="#63b8ff" d="M450.93,-217.55C443.8,-246.37 427.18,-298.29 394.75,-329.62 391.47,-332.8 387.54,-335.44 383.42,-337.64"/>
<polygon fill="#63b8ff" stroke="#63b8ff" points="454.32,-218.41 453.16,-207.88 447.5,-216.84 454.32,-218.41"/>
</a>
</g>
</g>
<!-- Node3 -->
<g id="Node000003" class="node">
<title>Node3</title>
<g id="a_Node000003"><a xlink:href="input__validate_8c.html#a1497d4d5fc8fdfecbe3b36df53d2195f" target="_top" xlink:title="Validating if argument count is 2 (exe and 1 extra) and the extra is a .rt file and we have permissio...">
<polygon fill="white" stroke="#666666" points="266.25,-376.25 190.25,-376.25 190.25,-357 266.25,-357 266.25,-376.25"/>
<text text-anchor="middle" x="228.25" y="-362.75" font-family="Helvetica,sans-Serif" font-size="10.00">input_validate</text>
</a>
</g>
</g>
<!-- Node1&#45;&gt;Node3 -->
<g id="edge20_Node000001_Node000003" class="edge">
<title>Node1&#45;&gt;Node3</title>
<g id="a_edge20_Node000001_Node000003"><a xlink:title=" ">
<path fill="none" stroke="#63b8ff" d="M455.06,-218.07C453.2,-255.58 443.32,-332.38 394.75,-366.62 355.65,-394.19 297.4,-385.9 261.45,-376.73"/>
<polygon fill="#63b8ff" stroke="#63b8ff" points="458.55,-218.19 455.38,-208.08 451.56,-217.97 458.55,-218.19"/>
</a>
</g>
</g>
<!-- Node5 -->
<g id="Node000005" class="node">
<title>Node5</title>
<g id="a_Node000005"><a xlink:href="ft__printf__s_8c.html#af5710a2518824759ad5ffe0d99c02002" target="_top" xlink:title=" ">
<polygon fill="white" stroke="#666666" points="380.12,-320.25 320.62,-320.25 320.62,-301 380.12,-301 380.12,-320.25"/>
<text text-anchor="middle" x="350.38" y="-306.75" font-family="Helvetica,sans-Serif" font-size="10.00">ft_printf_s</text>
</a>
</g>
</g>
<!-- Node1&#45;&gt;Node5 -->
<g id="edge4_Node000001_Node000005" class="edge">
<title>Node1&#45;&gt;Node5</title>
<g id="a_edge4_Node000001_Node000005"><a xlink:title=" ">
<path fill="none" stroke="#63b8ff" d="M445.48,-216.67C435,-236.36 416.92,-266.32 394.75,-286.62 388.79,-292.09 381.35,-296.78 374.33,-300.52"/>
<polygon fill="#63b8ff" stroke="#63b8ff" points="448.48,-218.51 449.93,-208.01 442.25,-215.31 448.48,-218.51"/>
</a>
</g>
</g>
<!-- Node7 -->
<g id="Node000007" class="node">
<title>Node7</title>
<g id="a_Node000007"><a xlink:href="ft__strdup_8c.html#aaacf33ac82063226a213d2ee49adc65f" target="_top" xlink:title=" ">
<polygon fill="white" stroke="#666666" points="255.38,-130.25 201.12,-130.25 201.12,-111 255.38,-111 255.38,-130.25"/>
<text text-anchor="middle" x="228.25" y="-116.75" font-family="Helvetica,sans-Serif" font-size="10.00">ft_strdup</text>
</a>
</g>
</g>
<!-- Node1&#45;&gt;Node7 -->
<g id="edge6_Node000001_Node000007" class="edge">
<title>Node1&#45;&gt;Node7</title>
<g id="a_edge6_Node000001_Node000007"><a xlink:title=" ">
<path fill="none" stroke="#63b8ff" d="M448.62,-175.93C440.05,-153.5 422.9,-118.88 394.75,-103.62 348.91,-78.79 285.44,-97.43 251.98,-110.58"/>
<polygon fill="#63b8ff" stroke="#63b8ff" points="445.27,-176.98 451.91,-185.23 451.87,-174.64 445.27,-176.98"/>
</a>
</g>
</g>
<!-- Node9 -->
<g id="Node000009" class="node">
<title>Node9</title>
<g id="a_Node000009"><a xlink:href="ft__substr_8c.html#a78c402cbf3d55b1374693c3b7d34f71d" target="_top" xlink:title=" ">
<polygon fill="white" stroke="#666666" points="147.88,-196.25 93.62,-196.25 93.62,-177 147.88,-177 147.88,-196.25"/>
<text text-anchor="middle" x="120.75" y="-182.75" font-family="Helvetica,sans-Serif" font-size="10.00">ft_substr</text>
</a>
</g>
</g>
<!-- Node1&#45;&gt;Node9 -->
<g id="edge19_Node000001_Node000009" class="edge">
<title>Node1&#45;&gt;Node9</title>
<g id="a_edge19_Node000001_Node000009"><a xlink:title=" ">
<path fill="none" stroke="#63b8ff" d="M419.5,-209.83C411.46,-212.24 402.9,-214.38 394.75,-215.62 303.26,-229.63 277.01,-234.97 186.5,-215.62 169.52,-212 151.6,-203.57 138.93,-196.73"/>
<polygon fill="#63b8ff" stroke="#63b8ff" points="420.52,-213.18 428.97,-206.79 418.38,-206.52 420.52,-213.18"/>
</a>
</g>
</g>
<!-- Node10 -->
<g id="Node000010" class="node">
<title>Node10</title>
<g id="a_Node000010"><a xlink:href="ft__strtrim_8c.html#a60352c5b39fab08469b3e28131a79e25" target="_top" xlink:title=" ">
<polygon fill="white" stroke="#666666" points="55,-253.25 0,-253.25 0,-234 55,-234 55,-253.25"/>
<text text-anchor="middle" x="27.5" y="-239.75" font-family="Helvetica,sans-Serif" font-size="10.00">ft_strtrim</text>
</a>
</g>
</g>
<!-- Node1&#45;&gt;Node10 -->
<g id="edge18_Node000001_Node000010" class="edge">
<title>Node1&#45;&gt;Node10</title>
<g id="a_edge18_Node000001_Node000010"><a xlink:title=" ">
<path fill="none" stroke="#63b8ff" d="M434.92,-213.33C423.76,-221.39 409.29,-230.25 394.75,-234.62 272.63,-271.36 117.14,-256.08 55.46,-247.72"/>
<polygon fill="#63b8ff" stroke="#63b8ff" points="436.74,-216.34 442.58,-207.5 432.5,-210.77 436.74,-216.34"/>
</a>
</g>
</g>
<!-- Node11 -->
<g id="Node000011" class="node">
<title>Node11</title>
<g id="a_Node000011"><a xlink:href="ft__strjoin_8c.html#a91e6e3e428bcc9f2291b700e1829b82b" target="_top" xlink:title=" ">
<polygon fill="white" stroke="#666666" points="377.12,-206.25 323.62,-206.25 323.62,-187 377.12,-187 377.12,-206.25"/>
<text text-anchor="middle" x="350.38" y="-192.75" font-family="Helvetica,sans-Serif" font-size="10.00">ft_strjoin</text>
</a>
</g>
</g>
<!-- Node1&#45;&gt;Node11 -->
<g id="edge10_Node000001_Node000011" class="edge">
<title>Node1&#45;&gt;Node11</title>
<g id="a_edge10_Node000001_Node000011"><a xlink:title=" ">
<path fill="none" stroke="#63b8ff" d="M418.98,-196.62C405.32,-196.62 390.08,-196.62 377.53,-196.62"/>
<polygon fill="#63b8ff" stroke="#63b8ff" points="418.95,-200.13 428.95,-196.63 418.95,-193.13 418.95,-200.13"/>
</a>
</g>
</g>
<!-- Node13 -->
<g id="Node000013" class="node">
<title>Node13</title>
<g id="a_Node000013"><a xlink:href="ft__strlcat_8c.html#a87a42176d750415c82eb7d453abb39ee" target="_top" xlink:title=" ">
<polygon fill="white" stroke="#666666" points="377.5,-132.25 323.25,-132.25 323.25,-113 377.5,-113 377.5,-132.25"/>
<text text-anchor="middle" x="350.38" y="-118.75" font-family="Helvetica,sans-Serif" font-size="10.00">ft_strlcat</text>
</a>
</g>
</g>
<!-- Node1&#45;&gt;Node13 -->
<g id="edge12_Node000001_Node000013" class="edge">
<title>Node1&#45;&gt;Node13</title>
<g id="a_edge12_Node000001_Node000013"><a xlink:title=" ">
<path fill="none" stroke="#63b8ff" d="M438.99,-178.45C427.5,-166.52 411.29,-151.22 394.75,-140.62 389.53,-137.28 383.59,-134.34 377.81,-131.85"/>
<polygon fill="#63b8ff" stroke="#63b8ff" points="436.36,-180.77 445.75,-185.68 441.47,-175.99 436.36,-180.77"/>
</a>
</g>
</g>
<!-- Node14 -->
<g id="Node000014" class="node">
<title>Node14</title>
<g id="a_Node000014"><a xlink:href="ft__strlcpy_8c.html#a95de924e4140ae426bf2e05acfb5fe4f" target="_top" xlink:title=" ">
<polygon fill="white" stroke="#666666" points="378.25,-169.25 322.5,-169.25 322.5,-150 378.25,-150 378.25,-169.25"/>
<text text-anchor="middle" x="350.38" y="-155.75" font-family="Helvetica,sans-Serif" font-size="10.00">ft_strlcpy</text>
</a>
</g>
</g>
<!-- Node1&#45;&gt;Node14 -->
<g id="edge13_Node000001_Node000014" class="edge">
<title>Node1&#45;&gt;Node14</title>
<g id="a_edge13_Node000001_Node000014"><a xlink:title=" ">
<path fill="none" stroke="#63b8ff" d="M419.65,-183.92C406.22,-179.14 391.18,-173.79 378.64,-169.32"/>
<polygon fill="#63b8ff" stroke="#63b8ff" points="418.44,-187.2 429.04,-187.26 420.79,-180.61 418.44,-187.2"/>
</a>
</g>
</g>
<!-- Node15 -->
<g id="Node000015" class="node">
<title>Node15</title>
<g id="a_Node000015"><a xlink:href="ft__strnstr_8c.html#a14b236fa10c117b080df2de058d2078d" target="_top" xlink:title=" ">
<polygon fill="white" stroke="#666666" points="377.88,-56.25 322.88,-56.25 322.88,-37 377.88,-37 377.88,-56.25"/>
<text text-anchor="middle" x="350.38" y="-42.75" font-family="Helvetica,sans-Serif" font-size="10.00">ft_strnstr</text>
</a>
</g>
</g>
<!-- Node1&#45;&gt;Node15 -->
<g id="edge16_Node000001_Node000015" class="edge">
<title>Node1&#45;&gt;Node15</title>
<g id="a_edge16_Node000001_Node000015"><a xlink:title=" ">
<path fill="none" stroke="#63b8ff" d="M449.67,-175.72C441.4,-148.67 423.81,-101.38 394.75,-70.62 389.43,-64.99 382.49,-60.36 375.73,-56.71"/>
<polygon fill="#63b8ff" stroke="#63b8ff" points="446.25,-176.5 452.4,-185.13 452.98,-174.56 446.25,-176.5"/>
</a>
</g>
</g>
<!-- Node16 -->
<g id="Node000016" class="node">
<title>Node16</title>
<g id="a_Node000016"><a xlink:href="ft__strrchr_8c.html#a49c260cf80f9997975d6f3ec74ead582" target="_top" xlink:title=" ">
<polygon fill="white" stroke="#666666" points="377.88,-19.25 322.88,-19.25 322.88,0 377.88,0 377.88,-19.25"/>
<text text-anchor="middle" x="350.38" y="-5.75" font-family="Helvetica,sans-Serif" font-size="10.00">ft_strrchr</text>
</a>
</g>
</g>
<!-- Node1&#45;&gt;Node16 -->
<g id="edge17_Node000001_Node000016" class="edge">
<title>Node1&#45;&gt;Node16</title>
<g id="a_edge17_Node000001_Node000016"><a xlink:title=" ">
<path fill="none" stroke="#63b8ff" d="M453.3,-175.63C448.77,-140.58 434.95,-69.85 394.75,-27.62 390.25,-22.9 384.33,-19.37 378.31,-16.75"/>
<polygon fill="#63b8ff" stroke="#63b8ff" points="449.79,-175.77 454.41,-185.3 456.75,-174.97 449.79,-175.77"/>
</a>
</g>
</g>
<!-- Node2&#45;&gt;Node3 -->
<g id="edge2_Node000002_Node000003" class="edge">
<title>Node2&#45;&gt;Node3</title>
<g id="a_edge2_Node000002_Node000003"><a xlink:title=" ">
<path fill="none" stroke="#63b8ff" d="M294.6,-356.29C285.05,-357.8 275.33,-359.34 266.39,-360.75"/>
<polygon fill="#63b8ff" stroke="#63b8ff" points="294.84,-359.79 304.17,-354.77 293.75,-352.88 294.84,-359.79"/>
</a>
</g>
</g>
<!-- Node4 -->
<g id="Node000004" class="node">
<title>Node4</title>
<g id="a_Node000004"><a xlink:href="mini__ray_8c.html#a0c99d968a34e803d378692bde2e3f18f" target="_top" xlink:title=" ">
<polygon fill="white" stroke="#666666" points="139.25,-376.25 102.25,-376.25 102.25,-357 139.25,-357 139.25,-376.25"/>
<text text-anchor="middle" x="120.75" y="-362.75" font-family="Helvetica,sans-Serif" font-size="10.00">main</text>
</a>
</g>
</g>
<!-- Node3&#45;&gt;Node4 -->
<g id="edge3_Node000003_Node000004" class="edge">
<title>Node3&#45;&gt;Node4</title>
<g id="a_edge3_Node000003_Node000004"><a xlink:title=" ">
<path fill="none" stroke="#63b8ff" d="M178.31,-366.62C164.49,-366.62 150.32,-366.62 139.62,-366.62"/>
<polygon fill="#63b8ff" stroke="#63b8ff" points="178.24,-370.13 188.24,-366.63 178.24,-363.13 178.24,-370.13"/>
</a>
</g>
</g>
<!-- Node6 -->
<g id="Node000006" class="node">
<title>Node6</title>
<g id="a_Node000006"><a xlink:href="ft__printf__p_8c.html#a8e0fc7618e3243249dcacd8ba380c337" target="_top" xlink:title=" ">
<polygon fill="white" stroke="#666666" points="258,-320.25 198.5,-320.25 198.5,-301 258,-301 258,-320.25"/>
<text text-anchor="middle" x="228.25" y="-306.75" font-family="Helvetica,sans-Serif" font-size="10.00">ft_printf_p</text>
</a>
</g>
</g>
<!-- Node5&#45;&gt;Node6 -->
<g id="edge5_Node000005_Node000006" class="edge">
<title>Node5&#45;&gt;Node6</title>
<g id="a_edge5_Node000005_Node000006"><a xlink:title=" ">
<path fill="none" stroke="#63b8ff" d="M309.24,-310.62C292.63,-310.62 273.73,-310.62 258.48,-310.62"/>
<polygon fill="#63b8ff" stroke="#63b8ff" points="308.78,-314.13 318.78,-310.63 308.78,-307.13 308.78,-314.13"/>
</a>
</g>
</g>
<!-- Node8 -->
<g id="Node000008" class="node">
<title>Node8</title>
<g id="a_Node000008"><a xlink:href="ft__strmapi_8c.html#a668b60557bfc9d60c2d3ccda8afadf49" target="_top" xlink:title=" ">
<polygon fill="white" stroke="#666666" points="150.5,-130.25 91,-130.25 91,-111 150.5,-111 150.5,-130.25"/>
<text text-anchor="middle" x="120.75" y="-116.75" font-family="Helvetica,sans-Serif" font-size="10.00">ft_strmapi</text>
</a>
</g>
</g>
<!-- Node7&#45;&gt;Node8 -->
<g id="edge7_Node000007_Node000008" class="edge">
<title>Node7&#45;&gt;Node8</title>
<g id="a_edge7_Node000007_Node000008"><a xlink:title=" ">
<path fill="none" stroke="#63b8ff" d="M189.44,-120.62C176.78,-120.62 162.87,-120.62 150.96,-120.62"/>
<polygon fill="#63b8ff" stroke="#63b8ff" points="189.11,-124.13 199.11,-120.63 189.11,-117.13 189.11,-124.13"/>
</a>
</g>
</g>
<!-- Node7&#45;&gt;Node9 -->
<g id="edge8_Node000007_Node000009" class="edge">
<title>Node7&#45;&gt;Node9</title>
<g id="a_edge8_Node000007_Node000009"><a xlink:title=" ">
<path fill="none" stroke="#63b8ff" d="M200.07,-136.41C195.52,-139.12 190.86,-141.93 186.5,-144.62 169.29,-155.27 149.86,-167.97 136.81,-176.59"/>
<polygon fill="#63b8ff" stroke="#63b8ff" points="201.56,-139.6 208.4,-131.51 198,-133.57 201.56,-139.6"/>
</a>
</g>
</g>
<!-- Node9&#45;&gt;Node10 -->
<g id="edge9_Node000009_Node000010" class="edge">
<title>Node9&#45;&gt;Node10</title>
<g id="a_edge9_Node000009_Node000010"><a xlink:title=" ">
<path fill="none" stroke="#63b8ff" d="M94.54,-202.37C78.55,-212.36 58.34,-224.98 44.52,-233.62"/>
<polygon fill="#63b8ff" stroke="#63b8ff" points="95.94,-205.62 102.57,-197.36 92.24,-199.68 95.94,-205.62"/>
</a>
</g>
</g>
<!-- Node12 -->
<g id="Node000012" class="node">
<title>Node12</title>
<g id="a_Node000012"><a xlink:href="colour__utils_8c.html#a3a794a42039dc6ada2c2e13ff4002dad" target="_top" xlink:title=" ">
<polygon fill="white" stroke="#666666" points="270,-206.25 186.5,-206.25 186.5,-187 270,-187 270,-206.25"/>
<text text-anchor="middle" x="228.25" y="-192.75" font-family="Helvetica,sans-Serif" font-size="10.00">join_rgb_values</text>
</a>
</g>
</g>
<!-- Node11&#45;&gt;Node12 -->
<g id="edge11_Node000011_Node000012" class="edge">
<title>Node11&#45;&gt;Node12</title>
<g id="a_edge11_Node000011_Node000012"><a xlink:title=" ">
<path fill="none" stroke="#63b8ff" d="M312.19,-196.62C298.94,-196.62 283.94,-196.62 270.38,-196.62"/>
<polygon fill="#63b8ff" stroke="#63b8ff" points="311.8,-200.13 321.8,-196.63 311.8,-193.13 311.8,-200.13"/>
</a>
</g>
</g>
<!-- Node14&#45;&gt;Node7 -->
<g id="edge14_Node000014_Node000007" class="edge">
<title>Node14&#45;&gt;Node7</title>
<g id="a_edge14_Node000014_Node000007"><a xlink:title=" ">
<path fill="none" stroke="#63b8ff" d="M311.29,-147.26C293.15,-141.37 271.9,-134.47 255.57,-129.17"/>
<polygon fill="#63b8ff" stroke="#63b8ff" points="310.09,-150.55 320.68,-150.31 312.25,-143.89 310.09,-150.55"/>
</a>
</g>
</g>
<!-- Node14&#45;&gt;Node9 -->
<g id="edge15_Node000014_Node000009" class="edge">
<title>Node14&#45;&gt;Node9</title>
<g id="a_edge15_Node000014_Node000009"><a xlink:title=" ">
<path fill="none" stroke="#63b8ff" d="M310.85,-163.58C277.82,-167.03 228.99,-172.33 186.5,-177.62 173.89,-179.2 159.92,-181.12 148.19,-182.78"/>
<polygon fill="#63b8ff" stroke="#63b8ff" points="311.17,-167.06 320.75,-162.54 310.44,-160.1 311.17,-167.06"/>
</a>
</g>
</g>
</g>
</svg>
