<?xml version="1.0" encoding="UTF-8" standalone="no"?>
<!DOCTYPE svg PUBLIC "-//W3C//DTD SVG 1.1//EN"
 "http://www.w3.org/Graphics/SVG/1.1/DTD/svg11.dtd">
<!-- Generated by graphviz version 9.0.0 (20230911.1827)
 -->
<!-- Title: ft_strdup Pages: 1 -->
<svg width="241pt" height="46pt"
 viewBox="0.00 0.00 241.25 46.25" xmlns="http://www.w3.org/2000/svg" xmlns:xlink="http://www.w3.org/1999/xlink">
<g id="graph0" class="graph" transform="scale(1 1) rotate(0) translate(4 42.25)">
<title>ft_strdup</title>
<!-- Node1 -->
<g id="Node000001" class="node">
<title>Node1</title>
<g id="a_Node000001"><a xlink:title=" ">
<polygon fill="#999999" stroke="#666666" points="54.25,-19.25 0,-19.25 0,0 54.25,0 54.25,-19.25"/>
<text text-anchor="middle" x="27.12" y="-5.75" font-family="Helvetica,sans-Serif" font-size="10.00">ft_strdup</text>
</a>
</g>
</g>
<!-- Node2 -->
<g id="Node000002" class="node">
<title>Node2</title>
<g id="a_Node000002"><a xlink:href="ft__strlcpy_8c.html#a95de924e4140ae426bf2e05acfb5fe4f" target="_top" xlink:title=" ">
<polygon fill="white" stroke="#666666" points="146,-38.25 90.25,-38.25 90.25,-19 146,-19 146,-38.25"/>
<text text-anchor="middle" x="118.12" y="-24.75" font-family="Helvetica,sans-Serif" font-size="10.00">ft_strlcpy</text>
</a>
</g>
</g>
<!-- Node1&#45;&gt;Node2 -->
<g id="edge1_Node000001_Node000002" class="edge">
<title>Node1&#45;&gt;Node2</title>
<g id="a_edge1_Node000001_Node000002"><a xlink:title=" ">
<path fill="none" stroke="#63b8ff" d="M54.35,-15.22C62.03,-16.86 70.6,-18.69 78.87,-20.46"/>
<polygon fill="#63b8ff" stroke="#63b8ff" points="77.86,-23.82 88.37,-22.49 79.33,-16.98 77.86,-23.82"/>
</a>
</g>
</g>
<!-- Node3 -->
<g id="Node000003" class="node">
<title>Node3</title>
<g id="a_Node000003"><a xlink:href="LIBFT_2ft__strlen_8c.html#a828402378653640f545a4be2e00e92f9" target="_top" xlink:title=" ">
<polygon fill="white" stroke="#666666" points="233.25,-19.25 182,-19.25 182,0 233.25,0 233.25,-19.25"/>
<text text-anchor="middle" x="207.62" y="-5.75" font-family="Helvetica,sans-Serif" font-size="10.00">ft_strlen</text>
</a>
</g>
</g>
<!-- Node1&#45;&gt;Node3 -->
<g id="edge3_Node000001_Node000003" class="edge">
<title>Node1&#45;&gt;Node3</title>
<g id="a_edge3_Node000001_Node000003"><a xlink:title=" ">
<path fill="none" stroke="#63b8ff" d="M54.46,-9.62C85.09,-9.62 135.81,-9.62 170.2,-9.62"/>
<polygon fill="#63b8ff" stroke="#63b8ff" points="170.11,-13.13 180.11,-9.63 170.11,-6.13 170.11,-13.13"/>
</a>
</g>
</g>
<!-- Node2&#45;&gt;Node3 -->
<g id="edge2_Node000002_Node000003" class="edge">
<title>Node2&#45;&gt;Node3</title>
<g id="a_edge2_Node000002_Node000003"><a xlink:title=" ">
<path fill="none" stroke="#63b8ff" d="M146.33,-22.72C153.97,-21.06 162.4,-19.23 170.47,-17.48"/>
<polygon fill="#63b8ff" stroke="#63b8ff" points="171.01,-20.94 180.04,-15.4 169.53,-14.1 171.01,-20.94"/>
</a>
</g>
</g>
</g>
</svg>
