<?xml version="1.0" encoding="UTF-8" standalone="no"?>
<!DOCTYPE svg PUBLIC "-//W3C//DTD SVG 1.1//EN"
 "http://www.w3.org/Graphics/SVG/1.1/DTD/svg11.dtd">
<!-- Generated by graphviz version 9.0.0 (20230911.1827)
 -->
<!-- Title: ft_putchar_fd Pages: 1 -->
<svg width="289pt" height="146pt"
 viewBox="0.00 0.00 288.50 146.25" xmlns="http://www.w3.org/2000/svg" xmlns:xlink="http://www.w3.org/1999/xlink">
<g id="graph0" class="graph" transform="scale(1 1) rotate(0) translate(4 142.25)">
<title>ft_putchar_fd</title>
<!-- Node1 -->
<g id="Node000001" class="node">
<title>Node1</title>
<g id="a_Node000001"><a xlink:title=" ">
<polygon fill="#999999" stroke="#666666" points="280.5,-74.25 207.5,-74.25 207.5,-55 280.5,-55 280.5,-74.25"/>
<text text-anchor="middle" x="244" y="-60.75" font-family="Helvetica,sans-Serif" font-size="10.00">ft_putchar_fd</text>
</a>
</g>
</g>
<!-- Node2 -->
<g id="Node000002" class="node">
<title>Node2</title>
<g id="a_Node000002"><a xlink:href="ft__printf__c_8c.html#a1a1ea1a2f302e4ced86283acae6084b6" target="_top" xlink:title=" ">
<polygon fill="white" stroke="#666666" points="165.12,-111.25 105.62,-111.25 105.62,-92 165.12,-92 165.12,-111.25"/>
<text text-anchor="middle" x="135.38" y="-97.75" font-family="Helvetica,sans-Serif" font-size="10.00">ft_printf_c</text>
</a>
</g>
</g>
<!-- Node1&#45;&gt;Node2 -->
<g id="edge1_Node000001_Node000002" class="edge">
<title>Node1&#45;&gt;Node2</title>
<g id="a_edge1_Node000001_Node000002"><a xlink:title=" ">
<path fill="none" stroke="#63b8ff" d="M203.21,-78.43C190.69,-82.78 177.11,-87.49 165.48,-91.53"/>
<polygon fill="#63b8ff" stroke="#63b8ff" points="204.13,-81.82 212.43,-75.23 201.84,-75.2 204.13,-81.82"/>
</a>
</g>
</g>
<!-- Node5 -->
<g id="Node000005" class="node">
<title>Node5</title>
<g id="a_Node000005"><a xlink:href="ft__putendl__fd_8c.html#aeb112152acfc553d58d61a5df38afcde" target="_top" xlink:title=" ">
<polygon fill="white" stroke="#666666" points="171.5,-74.25 99.25,-74.25 99.25,-55 171.5,-55 171.5,-74.25"/>
<text text-anchor="middle" x="135.38" y="-60.75" font-family="Helvetica,sans-Serif" font-size="10.00">ft_putendl_fd</text>
</a>
</g>
</g>
<!-- Node1&#45;&gt;Node5 -->
<g id="edge5_Node000001_Node000005" class="edge">
<title>Node1&#45;&gt;Node5</title>
<g id="a_edge5_Node000001_Node000005"><a xlink:title=" ">
<path fill="none" stroke="#63b8ff" d="M195.7,-64.62C187.71,-64.62 179.53,-64.62 171.9,-64.62"/>
<polygon fill="#63b8ff" stroke="#63b8ff" points="195.69,-68.13 205.69,-64.63 195.69,-61.13 195.69,-68.13"/>
</a>
</g>
</g>
<!-- Node6 -->
<g id="Node000006" class="node">
<title>Node6</title>
<g id="a_Node000006"><a xlink:href="ft__putnbr__fd_8c.html#a63cc0aec12256d125d3f85e472280972" target="_top" xlink:title=" ">
<polygon fill="white" stroke="#666666" points="169.25,-19.25 101.5,-19.25 101.5,0 169.25,0 169.25,-19.25"/>
<text text-anchor="middle" x="135.38" y="-5.75" font-family="Helvetica,sans-Serif" font-size="10.00">ft_putnbr_fd</text>
</a>
</g>
</g>
<!-- Node1&#45;&gt;Node6 -->
<g id="edge6_Node000001_Node000006" class="edge">
<title>Node1&#45;&gt;Node6</title>
<g id="a_edge6_Node000001_Node000006"><a xlink:title=" ">
<path fill="none" stroke="#63b8ff" d="M213.26,-49.28C194.89,-39.81 171.85,-27.93 155.81,-19.65"/>
<polygon fill="#63b8ff" stroke="#63b8ff" points="211.61,-52.37 222.1,-53.84 214.82,-46.15 211.61,-52.37"/>
</a>
</g>
</g>
<!-- Node3 -->
<g id="Node000003" class="node">
<title>Node3</title>
<g id="a_Node000003"><a xlink:href="ft__printf_8c.html#a0d9db352c6e9d0a0d72371be9b27f3f6" target="_top" xlink:title=" ">
<polygon fill="white" stroke="#666666" points="56.12,-138.25 7.12,-138.25 7.12,-119 56.12,-119 56.12,-138.25"/>
<text text-anchor="middle" x="31.62" y="-124.75" font-family="Helvetica,sans-Serif" font-size="10.00">ft_printf</text>
</a>
</g>
</g>
<!-- Node2&#45;&gt;Node3 -->
<g id="edge2_Node000002_Node000003" class="edge">
<title>Node2&#45;&gt;Node3</title>
<g id="a_edge2_Node000002_Node000003"><a xlink:title=" ">
<path fill="none" stroke="#63b8ff" d="M94.26,-112.27C81.41,-115.68 67.59,-119.35 56.31,-122.34"/>
<polygon fill="#63b8ff" stroke="#63b8ff" points="94.99,-115.7 103.75,-109.75 93.19,-108.93 94.99,-115.7"/>
</a>
</g>
</g>
<!-- Node4 -->
<g id="Node000004" class="node">
<title>Node4</title>
<g id="a_Node000004"><a xlink:href="ft__printf__xx_8c.html#a6d3ca9e49dd72fbb1bfb812c801224b1" target="_top" xlink:title=" ">
<polygon fill="white" stroke="#666666" points="63.25,-83.25 0,-83.25 0,-64 63.25,-64 63.25,-83.25"/>
<text text-anchor="middle" x="31.62" y="-69.75" font-family="Helvetica,sans-Serif" font-size="10.00">ft_printf_xx</text>
</a>
</g>
</g>
<!-- Node2&#45;&gt;Node4 -->
<g id="edge3_Node000002_Node000004" class="edge">
<title>Node2&#45;&gt;Node4</title>
<g id="a_edge3_Node000002_Node000004"><a xlink:title=" ">
<path fill="none" stroke="#63b8ff" d="M94.42,-90.63C84.16,-87.81 73.28,-84.81 63.56,-82.14"/>
<polygon fill="#63b8ff" stroke="#63b8ff" points="93.19,-93.92 103.76,-93.2 95.05,-87.17 93.19,-93.92"/>
</a>
</g>
</g>
<!-- Node4&#45;&gt;Node4 -->
<g id="edge4_Node000004_Node000004" class="edge">
<title>Node4&#45;&gt;Node4</title>
<g id="a_edge4_Node000004_Node000004"><a xlink:title=" ">
<path fill="none" stroke="#63b8ff" d="M50.04,-94.65C47.74,-98.53 41.6,-101.25 31.62,-101.25 13.39,-101.25 7.97,-92.15 15.38,-83.54"/>
<polygon fill="#63b8ff" stroke="#63b8ff" points="53.51,-94.17 48.16,-85.02 46.64,-95.51 53.51,-94.17"/>
</a>
</g>
</g>
<!-- Node6&#45;&gt;Node6 -->
<g id="edge8_Node000006_Node000006" class="edge">
<title>Node6&#45;&gt;Node6</title>
<g id="a_edge8_Node000006_Node000006"><a xlink:title=" ">
<path fill="none" stroke="#63b8ff" d="M153.79,-30.65C151.49,-34.53 145.35,-37.25 135.38,-37.25 117.14,-37.25 111.72,-28.15 119.13,-19.54"/>
<polygon fill="#63b8ff" stroke="#63b8ff" points="157.26,-30.17 151.91,-21.02 150.39,-31.51 157.26,-30.17"/>
</a>
</g>
</g>
<!-- Node7 -->
<g id="Node000007" class="node">
<title>Node7</title>
<g id="a_Node000007"><a xlink:href="ft__printf__di_8c.html#a81322e917858ef0bf26902742106caa7" target="_top" xlink:title=" ">
<polygon fill="white" stroke="#666666" points="62.5,-19.25 0.75,-19.25 0.75,0 62.5,0 62.5,-19.25"/>
<text text-anchor="middle" x="31.62" y="-5.75" font-family="Helvetica,sans-Serif" font-size="10.00">ft_printf_di</text>
</a>
</g>
</g>
<!-- Node6&#45;&gt;Node7 -->
<g id="edge7_Node000006_Node000007" class="edge">
<title>Node6&#45;&gt;Node7</title>
<g id="a_edge7_Node000006_Node000007"><a xlink:title=" ">
<path fill="none" stroke="#63b8ff" d="M89.79,-9.62C80.71,-9.62 71.36,-9.62 62.92,-9.62"/>
<polygon fill="#63b8ff" stroke="#63b8ff" points="89.54,-13.13 99.54,-9.63 89.54,-6.13 89.54,-13.13"/>
</a>
</g>
</g>
</g>
</svg>
