<?xml version="1.0" encoding="UTF-8" standalone="no"?>
<!DOCTYPE svg PUBLIC "-//W3C//DTD SVG 1.1//EN"
 "http://www.w3.org/Graphics/SVG/1.1/DTD/svg11.dtd">
<!-- Generated by graphviz version 9.0.0 (20230911.1827)
 -->
<!-- Title: /github/workspace/SRC/PHYSICS/LIGHT/lighting.c Pages: 1 -->
<svg width="356pt" height="204pt"
 viewBox="0.00 0.00 356.25 204.25" xmlns="http://www.w3.org/2000/svg" xmlns:xlink="http://www.w3.org/1999/xlink">
<g id="graph0" class="graph" transform="scale(1 1) rotate(0) translate(4 200.25)">
<title>/github/workspace/SRC/PHYSICS/LIGHT/lighting.c</title>
<!-- Node1 -->
<g id="Node000001" class="node">
<title>Node1</title>
<g id="a_Node000001"><a xlink:title=" ">
<polygon fill="#999999" stroke="#666666" points="263.38,-196.25 125.88,-196.25 125.88,-165.75 263.38,-165.75 263.38,-196.25"/>
<text text-anchor="start" x="133.88" y="-182.75" font-family="Helvetica,sans-Serif" font-size="10.00">/github/workspace/SRC</text>
<text text-anchor="middle" x="194.62" y="-171.5" font-family="Helvetica,sans-Serif" font-size="10.00">/PHYSICS/LIGHT/lighting.c</text>
</a>
</g>
</g>
<!-- Node2 -->
<g id="Node000002" class="node">
<title>Node2</title>
<g id="a_Node000002"><a xlink:href="base__matrices_8h.html" target="_top" xlink:title=" ">
<polygon fill="white" stroke="#666666" points="87.25,-129.75 0,-129.75 0,-110.5 87.25,-110.5 87.25,-129.75"/>
<text text-anchor="middle" x="43.62" y="-116.25" font-family="Helvetica,sans-Serif" font-size="10.00">base_matrices.h</text>
</a>
</g>
</g>
<!-- Node1&#45;&gt;Node2 -->
<g id="edge1_Node000001_Node000002" class="edge">
<title>Node1&#45;&gt;Node2</title>
<g id="a_edge1_Node000001_Node000002"><a xlink:title=" ">
<path fill="none" stroke="#63b8ff" d="M156.91,-165.3C132.48,-155.77 100.93,-143.47 77.33,-134.27"/>
<polygon fill="#63b8ff" stroke="#63b8ff" points="78.78,-131.08 68.19,-130.7 76.24,-137.6 78.78,-131.08"/>
</a>
</g>
</g>
<!-- Node7 -->
<g id="Node000007" class="node">
<title>Node7</title>
<g id="a_Node000007"><a xlink:href="base__colours_8h.html" target="_top" xlink:title=" ">
<polygon fill="white" stroke="#666666" points="186.25,-129.75 105,-129.75 105,-110.5 186.25,-110.5 186.25,-129.75"/>
<text text-anchor="middle" x="145.62" y="-116.25" font-family="Helvetica,sans-Serif" font-size="10.00">base_colours.h</text>
</a>
</g>
</g>
<!-- Node1&#45;&gt;Node7 -->
<g id="edge6_Node000001_Node000007" class="edge">
<title>Node1&#45;&gt;Node7</title>
<g id="a_edge6_Node000001_Node000007"><a xlink:title=" ">
<path fill="none" stroke="#63b8ff" d="M182.51,-165.45C175.84,-157.43 167.51,-147.42 160.45,-138.94"/>
<polygon fill="#63b8ff" stroke="#63b8ff" points="163.23,-136.81 154.15,-131.36 157.85,-141.29 163.23,-136.81"/>
</a>
</g>
</g>
<!-- Node8 -->
<g id="Node000008" class="node">
<title>Node8</title>
<g id="a_Node000008"><a xlink:href="physics__light_8h.html" target="_top" xlink:title=" ">
<polygon fill="white" stroke="#666666" points="284.5,-129.75 204.75,-129.75 204.75,-110.5 284.5,-110.5 284.5,-129.75"/>
<text text-anchor="middle" x="244.62" y="-116.25" font-family="Helvetica,sans-Serif" font-size="10.00">physics_light.h</text>
</a>
</g>
</g>
<!-- Node1&#45;&gt;Node8 -->
<g id="edge8_Node000001_Node000008" class="edge">
<title>Node1&#45;&gt;Node8</title>
<g id="a_edge8_Node000001_Node000008"><a xlink:title=" ">
<path fill="none" stroke="#63b8ff" d="M206.98,-165.45C213.79,-157.43 222.3,-147.42 229.5,-138.94"/>
<polygon fill="#63b8ff" stroke="#63b8ff" points="232.13,-141.24 235.94,-131.35 226.8,-136.71 232.13,-141.24"/>
</a>
</g>
</g>
<!-- Node9 -->
<g id="Node000009" class="node">
<title>Node9</title>
<g id="a_Node000009"><a xlink:title=" ">
<polygon fill="#e0e0e0" stroke="#999999" points="348.25,-129.75 303,-129.75 303,-110.5 348.25,-110.5 348.25,-129.75"/>
<text text-anchor="middle" x="325.62" y="-116.25" font-family="Helvetica,sans-Serif" font-size="10.00">math.h</text>
</a>
</g>
</g>
<!-- Node1&#45;&gt;Node9 -->
<g id="edge10_Node000001_Node000009" class="edge">
<title>Node1&#45;&gt;Node9</title>
<g id="a_edge10_Node000001_Node000009"><a xlink:title=" ">
<path fill="none" stroke="#63b8ff" d="M227.34,-165.3C248.16,-155.94 274.92,-143.91 295.26,-134.77"/>
<polygon fill="#63b8ff" stroke="#63b8ff" points="296.47,-138.07 304.15,-130.77 293.6,-131.68 296.47,-138.07"/>
</a>
</g>
</g>
<!-- Node3 -->
<g id="Node000003" class="node">
<title>Node3</title>
<g id="a_Node000003"><a xlink:href="types_8h.html" target="_top" xlink:title=" ">
<polygon fill="white" stroke="#666666" points="169,-74.5 122.25,-74.5 122.25,-55.25 169,-55.25 169,-74.5"/>
<text text-anchor="middle" x="145.62" y="-61" font-family="Helvetica,sans-Serif" font-size="10.00">types.h</text>
</a>
</g>
</g>
<!-- Node2&#45;&gt;Node3 -->
<g id="edge2_Node000002_Node000003" class="edge">
<title>Node2&#45;&gt;Node3</title>
<g id="a_edge2_Node000002_Node000003"><a xlink:title=" ">
<path fill="none" stroke="#63b8ff" d="M60.93,-110.09C76.61,-101.91 99.98,-89.71 118.2,-80.19"/>
<polygon fill="#63b8ff" stroke="#63b8ff" points="119.65,-83.38 126.9,-75.65 116.41,-77.18 119.65,-83.38"/>
</a>
</g>
</g>
<!-- Node4 -->
<g id="Node000004" class="node">
<title>Node4</title>
<g id="a_Node000004"><a xlink:title=" ">
<polygon fill="#e0e0e0" stroke="#999999" points="104.12,-19.25 49.12,-19.25 49.12,0 104.12,0 104.12,-19.25"/>
<text text-anchor="middle" x="76.62" y="-5.75" font-family="Helvetica,sans-Serif" font-size="10.00">stdbool.h</text>
</a>
</g>
</g>
<!-- Node3&#45;&gt;Node4 -->
<g id="edge3_Node000003_Node000004" class="edge">
<title>Node3&#45;&gt;Node4</title>
<g id="a_edge3_Node000003_Node000004"><a xlink:title=" ">
<path fill="none" stroke="#63b8ff" d="M133.92,-54.84C123.85,-47.07 109.08,-35.67 97.06,-26.4"/>
<polygon fill="#63b8ff" stroke="#63b8ff" points="99.41,-23.79 89.36,-20.45 95.13,-29.33 99.41,-23.79"/>
</a>
</g>
</g>
<!-- Node5 -->
<g id="Node000005" class="node">
<title>Node5</title>
<g id="a_Node000005"><a xlink:title=" ">
<polygon fill="#e0e0e0" stroke="#999999" points="169,-19.25 122.25,-19.25 122.25,0 169,0 169,-19.25"/>
<text text-anchor="middle" x="145.62" y="-5.75" font-family="Helvetica,sans-Serif" font-size="10.00">stdlib.h</text>
</a>
</g>
</g>
<!-- Node3&#45;&gt;Node5 -->
<g id="edge4_Node000003_Node000005" class="edge">
<title>Node3&#45;&gt;Node5</title>
<g id="a_edge4_Node000003_Node000005"><a xlink:title=" ">
<path fill="none" stroke="#63b8ff" d="M145.62,-55.08C145.62,-48.57 145.62,-39.42 145.62,-31.12"/>
<polygon fill="#63b8ff" stroke="#63b8ff" points="149.13,-31.12 145.63,-21.12 142.13,-31.12 149.13,-31.12"/>
</a>
</g>
</g>
<!-- Node6 -->
<g id="Node000006" class="node">
<title>Node6</title>
<g id="a_Node000006"><a xlink:title=" ">
<polygon fill="#e0e0e0" stroke="#999999" points="234,-19.25 187.25,-19.25 187.25,0 234,0 234,-19.25"/>
<text text-anchor="middle" x="210.62" y="-5.75" font-family="Helvetica,sans-Serif" font-size="10.00">limits.h</text>
</a>
</g>
</g>
<!-- Node3&#45;&gt;Node6 -->
<g id="edge5_Node000003_Node000006" class="edge">
<title>Node3&#45;&gt;Node6</title>
<g id="a_edge5_Node000003_Node000006"><a xlink:title=" ">
<path fill="none" stroke="#63b8ff" d="M156.65,-54.84C166.05,-47.15 179.77,-35.9 191.03,-26.68"/>
<polygon fill="#63b8ff" stroke="#63b8ff" points="193.07,-29.53 198.59,-20.48 188.64,-24.11 193.07,-29.53"/>
</a>
</g>
</g>
<!-- Node7&#45;&gt;Node3 -->
<g id="edge7_Node000007_Node000003" class="edge">
<title>Node7&#45;&gt;Node3</title>
<g id="a_edge7_Node000007_Node000003"><a xlink:title=" ">
<path fill="none" stroke="#63b8ff" d="M145.62,-110.33C145.62,-103.82 145.62,-94.67 145.62,-86.37"/>
<polygon fill="#63b8ff" stroke="#63b8ff" points="149.13,-86.37 145.63,-76.37 142.13,-86.37 149.13,-86.37"/>
</a>
</g>
</g>
<!-- Node8&#45;&gt;Node3 -->
<g id="edge9_Node000008_Node000003" class="edge">
<title>Node8&#45;&gt;Node3</title>
<g id="a_edge9_Node000008_Node000003"><a xlink:title=" ">
<path fill="none" stroke="#63b8ff" d="M227.83,-110.09C212.61,-101.91 189.93,-89.71 172.24,-80.19"/>
<polygon fill="#63b8ff" stroke="#63b8ff" points="174.3,-77.32 163.83,-75.67 170.98,-83.49 174.3,-77.32"/>
</a>
</g>
</g>
</g>
</svg>
