<?xml version="1.0" encoding="UTF-8" standalone="no"?>
<!DOCTYPE svg PUBLIC "-//W3C//DTD SVG 1.1//EN"
 "http://www.w3.org/Graphics/SVG/1.1/DTD/svg11.dtd">
<!-- Generated by graphviz version 9.0.0 (20230911.1827)
 -->
<!-- Title: lighting Pages: 1 -->
<svg width="615pt" height="216pt"
 viewBox="0.00 0.00 614.75 216.25" xmlns="http://www.w3.org/2000/svg" xmlns:xlink="http://www.w3.org/1999/xlink">
<g id="graph0" class="graph" transform="scale(1 1) rotate(0) translate(4 212.25)">
<title>lighting</title>
<!-- Node1 -->
<g id="Node000001" class="node">
<title>Node1</title>
<g id="a_Node000001"><a xlink:title=" ">
<polygon fill="#999999" stroke="#666666" points="46.75,-114.25 0,-114.25 0,-95 46.75,-95 46.75,-114.25"/>
<text text-anchor="middle" x="23.38" y="-100.75" font-family="Helvetica,sans-Serif" font-size="10.00">lighting</text>
</a>
</g>
</g>
<!-- Node2 -->
<g id="Node000002" class="node">
<title>Node2</title>
<g id="a_Node000002"><a xlink:href="matrix__free_8c.html#ab28d26aa6d34d5c2a3b83b9ee519fec6" target="_top" xlink:title=" ">
<polygon fill="white" stroke="#666666" points="288.38,-208.25 224.38,-208.25 224.38,-189 288.38,-189 288.38,-208.25"/>
<text text-anchor="middle" x="256.38" y="-194.75" font-family="Helvetica,sans-Serif" font-size="10.00">free_matrix</text>
</a>
</g>
</g>
<!-- Node1&#45;&gt;Node2 -->
<g id="edge1_Node000001_Node000002" class="edge">
<title>Node1&#45;&gt;Node2</title>
<g id="a_edge1_Node000001_Node000002"><a xlink:title=" ">
<path fill="none" stroke="#63b8ff" d="M31,-114.51C40.67,-128.1 60.01,-152.3 82.75,-164.62 123.46,-186.69 176.49,-194.55 212.97,-197.28"/>
<polygon fill="#63b8ff" stroke="#63b8ff" points="212.48,-200.76 222.69,-197.91 212.93,-193.77 212.48,-200.76"/>
</a>
</g>
</g>
<!-- Node3 -->
<g id="Node000003" class="node">
<title>Node3</title>
<g id="a_Node000003"><a xlink:href="matrix__dot_8c.html#a1e63fc9ff7ee9be50c15ed7399415881" target="_top" xlink:title="Function that finds the dot (.) product of 2 vectors.">
<polygon fill="white" stroke="#666666" points="286.88,-170.25 225.88,-170.25 225.88,-151 286.88,-151 286.88,-170.25"/>
<text text-anchor="middle" x="256.38" y="-156.75" font-family="Helvetica,sans-Serif" font-size="10.00">matrix_dot</text>
</a>
</g>
</g>
<!-- Node1&#45;&gt;Node3 -->
<g id="edge2_Node000001_Node000003" class="edge">
<title>Node1&#45;&gt;Node3</title>
<g id="a_edge2_Node000001_Node000003"><a xlink:title=" ">
<path fill="none" stroke="#63b8ff" d="M36,-114.61C47.18,-123.59 64.97,-136.33 82.75,-142.62 125.75,-157.86 178.26,-161.37 213.99,-161.7"/>
<polygon fill="#63b8ff" stroke="#63b8ff" points="213.92,-165.2 223.92,-161.7 213.92,-158.2 213.92,-165.2"/>
</a>
</g>
</g>
<!-- Node4 -->
<g id="Node000004" class="node">
<title>Node4</title>
<g id="a_Node000004"><a xlink:href="matrix__normalize_8c.html#a35a688dc70b34d031fa58218f8bcdbdd" target="_top" xlink:title=" ">
<polygon fill="white" stroke="#666666" points="171.5,-19.25 82.75,-19.25 82.75,0 171.5,0 171.5,-19.25"/>
<text text-anchor="middle" x="127.12" y="-5.75" font-family="Helvetica,sans-Serif" font-size="10.00">matrix_normalize</text>
</a>
</g>
</g>
<!-- Node1&#45;&gt;Node4 -->
<g id="edge3_Node000001_Node000004" class="edge">
<title>Node1&#45;&gt;Node4</title>
<g id="a_edge3_Node000001_Node000004"><a xlink:title=" ">
<path fill="none" stroke="#63b8ff" d="M30.59,-94.91C40.34,-80.25 60.43,-52.2 82.75,-33.62 86.4,-30.59 90.48,-27.75 94.65,-25.16"/>
<polygon fill="#63b8ff" stroke="#63b8ff" points="96.11,-28.36 103.05,-20.35 92.63,-22.29 96.11,-28.36"/>
</a>
</g>
</g>
<!-- Node6 -->
<g id="Node000006" class="node">
<title>Node6</title>
<g id="a_Node000006"><a xlink:href="matrix__scalar__mult_8c.html#ae585cf0ad839c7387a52c67339d5a871" target="_top" xlink:title=" ">
<polygon fill="white" stroke="#666666" points="305.25,-96.25 207.5,-96.25 207.5,-77 305.25,-77 305.25,-96.25"/>
<text text-anchor="middle" x="256.38" y="-82.75" font-family="Helvetica,sans-Serif" font-size="10.00">matrix_scalar_mult</text>
</a>
</g>
</g>
<!-- Node1&#45;&gt;Node6 -->
<g id="edge5_Node000001_Node000006" class="edge">
<title>Node1&#45;&gt;Node6</title>
<g id="a_edge5_Node000001_Node000006"><a xlink:title=" ">
<path fill="none" stroke="#63b8ff" d="M46.94,-102.87C81.1,-100.2 147.09,-95.06 195.71,-91.27"/>
<polygon fill="#63b8ff" stroke="#63b8ff" points="195.83,-94.78 205.53,-90.51 195.29,-87.8 195.83,-94.78"/>
</a>
</g>
</g>
<!-- Node7 -->
<g id="Node000007" class="node">
<title>Node7</title>
<g id="a_Node000007"><a xlink:href="matrix__sum_8c.html#a131fcf979705ebc7d09650c74adddfbb" target="_top" xlink:title=" ">
<polygon fill="white" stroke="#666666" points="290.62,-59.25 222.12,-59.25 222.12,-40 290.62,-40 290.62,-59.25"/>
<text text-anchor="middle" x="256.38" y="-45.75" font-family="Helvetica,sans-Serif" font-size="10.00">matrix_subs</text>
</a>
</g>
</g>
<!-- Node1&#45;&gt;Node7 -->
<g id="edge6_Node000001_Node000007" class="edge">
<title>Node1&#45;&gt;Node7</title>
<g id="a_edge6_Node000001_Node000007"><a xlink:title=" ">
<path fill="none" stroke="#63b8ff" d="M47.04,-98.15C57.83,-95.14 70.92,-91.58 82.75,-88.62 126,-77.82 175.68,-66.73 210.6,-59.16"/>
<polygon fill="#63b8ff" stroke="#63b8ff" points="211.34,-62.58 220.37,-57.05 209.86,-55.74 211.34,-62.58"/>
</a>
</g>
</g>
<!-- Node12 -->
<g id="Node000012" class="node">
<title>Node12</title>
<g id="a_Node000012"><a xlink:href="reflect_8c.html#a9a14a2740fe14a6f96d7b3ef0cffeb61" target="_top" xlink:title=" ">
<polygon fill="white" stroke="#666666" points="148.25,-133.25 106,-133.25 106,-114 148.25,-114 148.25,-133.25"/>
<text text-anchor="middle" x="127.12" y="-119.75" font-family="Helvetica,sans-Serif" font-size="10.00">reflect</text>
</a>
</g>
</g>
<!-- Node1&#45;&gt;Node12 -->
<g id="edge11_Node000001_Node000012" class="edge">
<title>Node1&#45;&gt;Node12</title>
<g id="a_edge11_Node000001_Node000012"><a xlink:title=" ">
<path fill="none" stroke="#63b8ff" d="M47.21,-108.89C61.22,-111.5 79.35,-114.89 94.7,-117.76"/>
<polygon fill="#63b8ff" stroke="#63b8ff" points="93.82,-121.15 104.29,-119.55 95.11,-114.27 93.82,-121.15"/>
</a>
</g>
</g>
<!-- Node5 -->
<g id="Node000005" class="node">
<title>Node5</title>
<g id="a_Node000005"><a xlink:href="matrix__length_8c.html#a17fc3dee2a35d639486d28c848d3bc82" target="_top" xlink:title=" ">
<polygon fill="white" stroke="#666666" points="293.25,-19.25 219.5,-19.25 219.5,0 293.25,0 293.25,-19.25"/>
<text text-anchor="middle" x="256.38" y="-5.75" font-family="Helvetica,sans-Serif" font-size="10.00">matrix_length</text>
</a>
</g>
</g>
<!-- Node4&#45;&gt;Node5 -->
<g id="edge4_Node000004_Node000005" class="edge">
<title>Node4&#45;&gt;Node5</title>
<g id="a_edge4_Node000004_Node000005"><a xlink:title=" ">
<path fill="none" stroke="#63b8ff" d="M171.92,-9.62C183.46,-9.62 195.96,-9.62 207.69,-9.62"/>
<polygon fill="#63b8ff" stroke="#63b8ff" points="207.59,-13.13 217.59,-9.63 207.59,-6.13 207.59,-13.13"/>
</a>
</g>
</g>
<!-- Node8 -->
<g id="Node000008" class="node">
<title>Node8</title>
<g id="a_Node000008"><a xlink:href="matrix__create_8c.html#a5291384d37d735f9c3fc33c03d2788ad" target="_top" xlink:title=" ">
<polygon fill="white" stroke="#666666" points="415.75,-96.25 341.25,-96.25 341.25,-77 415.75,-77 415.75,-96.25"/>
<text text-anchor="middle" x="378.5" y="-82.75" font-family="Helvetica,sans-Serif" font-size="10.00">matrix_create</text>
</a>
</g>
</g>
<!-- Node7&#45;&gt;Node8 -->
<g id="edge7_Node000007_Node000008" class="edge">
<title>Node7&#45;&gt;Node8</title>
<g id="a_edge7_Node000007_Node000008"><a xlink:title=" ">
<path fill="none" stroke="#63b8ff" d="M290.2,-59.74C303.71,-63.9 319.54,-68.77 334,-73.23"/>
<polygon fill="#63b8ff" stroke="#63b8ff" points="332.68,-76.48 343.27,-76.08 334.74,-69.79 332.68,-76.48"/>
</a>
</g>
</g>
<!-- Node9 -->
<g id="Node000009" class="node">
<title>Node9</title>
<g id="a_Node000009"><a xlink:href="free__dptr_8c.html#aaa705b6d12fb1a9a15e6103879ec0ea0" target="_top" xlink:title=" ">
<polygon fill="white" stroke="#666666" points="513.12,-115.25 458.88,-115.25 458.88,-96 513.12,-96 513.12,-115.25"/>
<text text-anchor="middle" x="486" y="-101.75" font-family="Helvetica,sans-Serif" font-size="10.00">free_dptr</text>
</a>
</g>
</g>
<!-- Node8&#45;&gt;Node9 -->
<g id="edge8_Node000008_Node000009" class="edge">
<title>Node8&#45;&gt;Node9</title>
<g id="a_edge8_Node000008_Node000009"><a xlink:title=" ">
<path fill="none" stroke="#63b8ff" d="M416.1,-93.22C426.22,-95.04 437.22,-97.02 447.39,-98.85"/>
<polygon fill="#63b8ff" stroke="#63b8ff" points="446.49,-102.25 456.95,-100.57 447.73,-95.36 446.49,-102.25"/>
</a>
</g>
</g>
<!-- Node10 -->
<g id="Node000010" class="node">
<title>Node10</title>
<g id="a_Node000010"><a xlink:href="safe__malloc_8c.html#ab8bcda0e59b6f8eab1bfd9f92de50c6c" target="_top" xlink:title=" ">
<polygon fill="white" stroke="#666666" points="520.25,-78.25 451.75,-78.25 451.75,-59 520.25,-59 520.25,-78.25"/>
<text text-anchor="middle" x="486" y="-64.75" font-family="Helvetica,sans-Serif" font-size="10.00">safe_malloc</text>
</a>
</g>
</g>
<!-- Node8&#45;&gt;Node10 -->
<g id="edge9_Node000008_Node000010" class="edge">
<title>Node8&#45;&gt;Node10</title>
<g id="a_edge9_Node000008_Node000010"><a xlink:title=" ">
<path fill="none" stroke="#63b8ff" d="M416.1,-80.38C423.87,-79.05 432.15,-77.64 440.18,-76.27"/>
<polygon fill="#63b8ff" stroke="#63b8ff" points="440.53,-79.76 449.8,-74.63 439.35,-72.86 440.53,-79.76"/>
</a>
</g>
</g>
<!-- Node11 -->
<g id="Node000011" class="node">
<title>Node11</title>
<g id="a_Node000011"><a xlink:href="LIBFT_2ft__bzero_8c.html#a5937ab0d08e31d0e3e4a16ec71e293a1" target="_top" xlink:title=" ">
<polygon fill="white" stroke="#666666" points="606.75,-78.25 556.25,-78.25 556.25,-59 606.75,-59 606.75,-78.25"/>
<text text-anchor="middle" x="581.5" y="-64.75" font-family="Helvetica,sans-Serif" font-size="10.00">ft_bzero</text>
</a>
</g>
</g>
<!-- Node10&#45;&gt;Node11 -->
<g id="edge10_Node000010_Node000011" class="edge">
<title>Node10&#45;&gt;Node11</title>
<g id="a_edge10_Node000010_Node000011"><a xlink:title=" ">
<path fill="none" stroke="#63b8ff" d="M520.49,-68.62C528.38,-68.62 536.81,-68.62 544.79,-68.62"/>
<polygon fill="#63b8ff" stroke="#63b8ff" points="544.53,-72.13 554.53,-68.63 544.53,-65.13 544.53,-72.13"/>
</a>
</g>
</g>
<!-- Node12&#45;&gt;Node2 -->
<g id="edge12_Node000012_Node000002" class="edge">
<title>Node12&#45;&gt;Node2</title>
<g id="a_edge12_Node000012_Node000002"><a xlink:title=" ">
<path fill="none" stroke="#63b8ff" d="M140.44,-133.72C155.56,-145.76 182.29,-165.98 207.5,-179.62 210.34,-181.16 213.33,-182.64 216.37,-184.05"/>
<polygon fill="#63b8ff" stroke="#63b8ff" points="214.81,-187.19 225.38,-187.95 217.59,-180.77 214.81,-187.19"/>
</a>
</g>
</g>
<!-- Node12&#45;&gt;Node3 -->
<g id="edge15_Node000012_Node000003" class="edge">
<title>Node12&#45;&gt;Node3</title>
<g id="a_edge15_Node000012_Node000003"><a xlink:title=" ">
<path fill="none" stroke="#63b8ff" d="M148.57,-129.57C166.36,-134.74 192.68,-142.39 214.74,-148.81"/>
<polygon fill="#63b8ff" stroke="#63b8ff" points="213.46,-152.08 224.04,-151.51 215.41,-145.36 213.46,-152.08"/>
</a>
</g>
</g>
<!-- Node12&#45;&gt;Node6 -->
<g id="edge16_Node000012_Node000006" class="edge">
<title>Node12&#45;&gt;Node6</title>
<g id="a_edge16_Node000012_Node000006"><a xlink:title=" ">
<path fill="none" stroke="#63b8ff" d="M148.57,-117.68C165.01,-112.9 188.72,-106.01 209.63,-99.93"/>
<polygon fill="#63b8ff" stroke="#63b8ff" points="210.5,-103.32 219.12,-97.17 208.54,-96.6 210.5,-103.32"/>
</a>
</g>
</g>
<!-- Node12&#45;&gt;Node7 -->
<g id="edge17_Node000012_Node000007" class="edge">
<title>Node12&#45;&gt;Node7</title>
<g id="a_edge17_Node000012_Node000007"><a xlink:title=" ">
<path fill="none" stroke="#63b8ff" d="M140.14,-113.67C155.16,-101.57 182.01,-81.12 207.5,-67.62 209.73,-66.44 212.06,-65.3 214.43,-64.21"/>
<polygon fill="#63b8ff" stroke="#63b8ff" points="215.76,-67.45 223.59,-60.31 213.02,-61.01 215.76,-67.45"/>
</a>
</g>
</g>
<!-- Node13 -->
<g id="Node000013" class="node">
<title>Node13</title>
<g id="a_Node000013"><a xlink:href="matrix__clone_8c.html#a664de98f31a1171b994283a70249628a" target="_top" xlink:title=" ">
<polygon fill="white" stroke="#666666" points="291.75,-133.25 221,-133.25 221,-114 291.75,-114 291.75,-133.25"/>
<text text-anchor="middle" x="256.38" y="-119.75" font-family="Helvetica,sans-Serif" font-size="10.00">matrix_clone</text>
</a>
</g>
</g>
<!-- Node12&#45;&gt;Node13 -->
<g id="edge13_Node000012_Node000013" class="edge">
<title>Node12&#45;&gt;Node13</title>
<g id="a_edge13_Node000012_Node000013"><a xlink:title=" ">
<path fill="none" stroke="#63b8ff" d="M148.57,-123.62C164.93,-123.62 188.5,-123.62 209.34,-123.62"/>
<polygon fill="#63b8ff" stroke="#63b8ff" points="209.06,-127.13 219.06,-123.63 209.06,-120.13 209.06,-127.13"/>
</a>
</g>
</g>
<!-- Node13&#45;&gt;Node8 -->
<g id="edge14_Node000013_Node000008" class="edge">
<title>Node13&#45;&gt;Node8</title>
<g id="a_edge14_Node000013_Node000008"><a xlink:title=" ">
<path fill="none" stroke="#63b8ff" d="M290.2,-113.51C303.71,-109.35 319.54,-104.48 334,-100.02"/>
<polygon fill="#63b8ff" stroke="#63b8ff" points="334.74,-103.46 343.27,-97.17 332.68,-96.77 334.74,-103.46"/>
</a>
</g>
</g>
</g>
</svg>
