<?xml version="1.0" encoding="UTF-8" standalone="no"?>
<!DOCTYPE svg PUBLIC "-//W3C//DTD SVG 1.1//EN"
 "http://www.w3.org/Graphics/SVG/1.1/DTD/svg11.dtd">
<!-- Generated by graphviz version 9.0.0 (20230911.1827)
 -->
<!-- Title: matrix_transpose Pages: 1 -->
<svg width="362pt" height="27pt"
 viewBox="0.00 0.00 362.00 27.25" xmlns="http://www.w3.org/2000/svg" xmlns:xlink="http://www.w3.org/1999/xlink">
<g id="graph0" class="graph" transform="scale(1 1) rotate(0) translate(4 23.25)">
<title>matrix_transpose</title>
<!-- Node1 -->
<g id="Node000001" class="node">
<title>Node1</title>
<g id="a_Node000001"><a xlink:title=" ">
<polygon fill="#999999" stroke="#666666" points="354,-19.25 263.75,-19.25 263.75,0 354,0 354,-19.25"/>
<text text-anchor="middle" x="308.88" y="-5.75" font-family="Helvetica,sans-Serif" font-size="10.00">matrix_transpose</text>
</a>
</g>
</g>
<!-- Node2 -->
<g id="Node000002" class="node">
<title>Node2</title>
<g id="a_Node000002"><a xlink:href="sphere__normal_8c.html#a7f90156067fc9db4452ca1b058c976e8" target="_top" xlink:title=" ">
<polygon fill="white" stroke="#666666" points="227.75,-19.25 148,-19.25 148,0 227.75,0 227.75,-19.25"/>
<text text-anchor="middle" x="187.88" y="-5.75" font-family="Helvetica,sans-Serif" font-size="10.00">sphere_normal</text>
</a>
</g>
</g>
<!-- Node1&#45;&gt;Node2 -->
<g id="edge1_Node000001_Node000002" class="edge">
<title>Node1&#45;&gt;Node2</title>
<g id="a_edge1_Node000001_Node000002"><a xlink:title=" ">
<path fill="none" stroke="#63b8ff" d="M252.2,-9.62C244.07,-9.62 235.84,-9.62 228.13,-9.62"/>
<polygon fill="#63b8ff" stroke="#63b8ff" points="252.05,-13.13 262.05,-9.63 252.05,-6.13 252.05,-13.13"/>
</a>
</g>
</g>
<!-- Node3 -->
<g id="Node000003" class="node">
<title>Node3</title>
<g id="a_Node000003"><a xlink:href="prepare__computations_8c.html#a260bb84a41e41fe52951d598804fb2fe" target="_top" xlink:title=" ">
<polygon fill="white" stroke="#666666" points="112,-19.25 0,-19.25 0,0 112,0 112,-19.25"/>
<text text-anchor="middle" x="56" y="-5.75" font-family="Helvetica,sans-Serif" font-size="10.00">prepare_computations</text>
</a>
</g>
</g>
<!-- Node2&#45;&gt;Node3 -->
<g id="edge2_Node000002_Node000003" class="edge">
<title>Node2&#45;&gt;Node3</title>
<g id="a_edge2_Node000002_Node000003"><a xlink:title=" ">
<path fill="none" stroke="#63b8ff" d="M136.08,-9.62C128.34,-9.62 120.31,-9.62 112.48,-9.62"/>
<polygon fill="#63b8ff" stroke="#63b8ff" points="136.04,-13.13 146.04,-9.63 136.04,-6.13 136.04,-13.13"/>
</a>
</g>
</g>
</g>
</svg>
