<?xml version="1.0" encoding="UTF-8" standalone="no"?>
<!DOCTYPE svg PUBLIC "-//W3C//DTD SVG 1.1//EN"
 "http://www.w3.org/Graphics/SVG/1.1/DTD/svg11.dtd">
<!-- Generated by graphviz version 9.0.0 (20230911.1827)
 -->
<!-- Title: matrix_inverse Pages: 1 -->
<svg width="503pt" height="103pt"
 viewBox="0.00 0.00 502.75 103.25" xmlns="http://www.w3.org/2000/svg" xmlns:xlink="http://www.w3.org/1999/xlink">
<g id="graph0" class="graph" transform="scale(1 1) rotate(0) translate(4 99.25)">
<title>matrix_inverse</title>
<!-- Node1 -->
<g id="Node000001" class="node">
<title>Node1</title>
<g id="a_Node000001"><a xlink:title=" ">
<polygon fill="#999999" stroke="#666666" points="79,-57.25 0,-57.25 0,-38 79,-38 79,-57.25"/>
<text text-anchor="middle" x="39.5" y="-43.75" font-family="Helvetica,sans-Serif" font-size="10.00">matrix_inverse</text>
</a>
</g>
</g>
<!-- Node2 -->
<g id="Node000002" class="node">
<title>Node2</title>
<g id="a_Node000002"><a xlink:href="matrix__free_8c.html#ab28d26aa6d34d5c2a3b83b9ee519fec6" target="_top" xlink:title=" ">
<polygon fill="white" stroke="#666666" points="186.12,-95.25 122.12,-95.25 122.12,-76 186.12,-76 186.12,-95.25"/>
<text text-anchor="middle" x="154.12" y="-81.75" font-family="Helvetica,sans-Serif" font-size="10.00">free_matrix</text>
</a>
</g>
</g>
<!-- Node1&#45;&gt;Node2 -->
<g id="edge1_Node000001_Node000002" class="edge">
<title>Node1&#45;&gt;Node2</title>
<g id="a_edge1_Node000001_Node000002"><a xlink:title=" ">
<path fill="none" stroke="#63b8ff" d="M70.39,-57.71C83.34,-62.08 98.72,-67.27 112.67,-71.98"/>
<polygon fill="#63b8ff" stroke="#63b8ff" points="111.46,-75.26 122.06,-75.14 113.7,-68.63 111.46,-75.26"/>
</a>
</g>
</g>
<!-- Node3 -->
<g id="Node000003" class="node">
<title>Node3</title>
<g id="a_Node000003"><a xlink:href="matrix__create_8c.html#a5291384d37d735f9c3fc33c03d2788ad" target="_top" xlink:title=" ">
<polygon fill="white" stroke="#666666" points="303.75,-38.25 229.25,-38.25 229.25,-19 303.75,-19 303.75,-38.25"/>
<text text-anchor="middle" x="266.5" y="-24.75" font-family="Helvetica,sans-Serif" font-size="10.00">matrix_create</text>
</a>
</g>
</g>
<!-- Node1&#45;&gt;Node3 -->
<g id="edge2_Node000001_Node000003" class="edge">
<title>Node1&#45;&gt;Node3</title>
<g id="a_edge2_Node000001_Node000003"><a xlink:title=" ">
<path fill="none" stroke="#63b8ff" d="M79.44,-44.34C117.75,-41.1 176.35,-36.15 217.52,-32.68"/>
<polygon fill="#63b8ff" stroke="#63b8ff" points="217.72,-36.17 227.39,-31.84 217.14,-29.2 217.72,-36.17"/>
</a>
</g>
</g>
<!-- Node7 -->
<g id="Node000007" class="node">
<title>Node7</title>
<g id="a_Node000007"><a xlink:href="matrix__identity_8c.html#a841c87975e3b38adb536d63ec35456e5" target="_top" xlink:title="Function that creates an identity matrix of size n 1 0 0 0 0 1 0 0 0 0 1 0 0 0 0 1.">
<polygon fill="white" stroke="#666666" points="193.25,-19.25 115,-19.25 115,0 193.25,0 193.25,-19.25"/>
<text text-anchor="middle" x="154.12" y="-5.75" font-family="Helvetica,sans-Serif" font-size="10.00">matrix_identity</text>
</a>
</g>
</g>
<!-- Node1&#45;&gt;Node7 -->
<g id="edge6_Node000001_Node000007" class="edge">
<title>Node1&#45;&gt;Node7</title>
<g id="a_edge6_Node000001_Node000007"><a xlink:title=" ">
<path fill="none" stroke="#63b8ff" d="M70.39,-37.54C83.34,-33.17 98.72,-27.98 112.67,-23.27"/>
<polygon fill="#63b8ff" stroke="#63b8ff" points="113.7,-26.62 122.06,-20.11 111.46,-19.99 113.7,-26.62"/>
</a>
</g>
</g>
<!-- Node4 -->
<g id="Node000004" class="node">
<title>Node4</title>
<g id="a_Node000004"><a xlink:href="free__dptr_8c.html#aaa705b6d12fb1a9a15e6103879ec0ea0" target="_top" xlink:title=" ">
<polygon fill="white" stroke="#666666" points="401.12,-57.25 346.88,-57.25 346.88,-38 401.12,-38 401.12,-57.25"/>
<text text-anchor="middle" x="374" y="-43.75" font-family="Helvetica,sans-Serif" font-size="10.00">free_dptr</text>
</a>
</g>
</g>
<!-- Node3&#45;&gt;Node4 -->
<g id="edge3_Node000003_Node000004" class="edge">
<title>Node3&#45;&gt;Node4</title>
<g id="a_edge3_Node000003_Node000004"><a xlink:title=" ">
<path fill="none" stroke="#63b8ff" d="M304.1,-35.22C314.22,-37.04 325.22,-39.02 335.39,-40.85"/>
<polygon fill="#63b8ff" stroke="#63b8ff" points="334.49,-44.25 344.95,-42.57 335.73,-37.36 334.49,-44.25"/>
</a>
</g>
</g>
<!-- Node5 -->
<g id="Node000005" class="node">
<title>Node5</title>
<g id="a_Node000005"><a xlink:href="safe__malloc_8c.html#ab8bcda0e59b6f8eab1bfd9f92de50c6c" target="_top" xlink:title=" ">
<polygon fill="white" stroke="#666666" points="408.25,-20.25 339.75,-20.25 339.75,-1 408.25,-1 408.25,-20.25"/>
<text text-anchor="middle" x="374" y="-6.75" font-family="Helvetica,sans-Serif" font-size="10.00">safe_malloc</text>
</a>
</g>
</g>
<!-- Node3&#45;&gt;Node5 -->
<g id="edge4_Node000003_Node000005" class="edge">
<title>Node3&#45;&gt;Node5</title>
<g id="a_edge4_Node000003_Node000005"><a xlink:title=" ">
<path fill="none" stroke="#63b8ff" d="M304.1,-22.38C311.87,-21.05 320.15,-19.64 328.18,-18.27"/>
<polygon fill="#63b8ff" stroke="#63b8ff" points="328.53,-21.76 337.8,-16.63 327.35,-14.86 328.53,-21.76"/>
</a>
</g>
</g>
<!-- Node6 -->
<g id="Node000006" class="node">
<title>Node6</title>
<g id="a_Node000006"><a xlink:href="LIBFT_2ft__bzero_8c.html#a5937ab0d08e31d0e3e4a16ec71e293a1" target="_top" xlink:title=" ">
<polygon fill="white" stroke="#666666" points="494.75,-20.25 444.25,-20.25 444.25,-1 494.75,-1 494.75,-20.25"/>
<text text-anchor="middle" x="469.5" y="-6.75" font-family="Helvetica,sans-Serif" font-size="10.00">ft_bzero</text>
</a>
</g>
</g>
<!-- Node5&#45;&gt;Node6 -->
<g id="edge5_Node000005_Node000006" class="edge">
<title>Node5&#45;&gt;Node6</title>
<g id="a_edge5_Node000005_Node000006"><a xlink:title=" ">
<path fill="none" stroke="#63b8ff" d="M408.49,-10.62C416.38,-10.62 424.81,-10.62 432.79,-10.62"/>
<polygon fill="#63b8ff" stroke="#63b8ff" points="432.53,-14.13 442.53,-10.63 432.53,-7.13 432.53,-14.13"/>
</a>
</g>
</g>
<!-- Node7&#45;&gt;Node3 -->
<g id="edge7_Node000007_Node000003" class="edge">
<title>Node7&#45;&gt;Node3</title>
<g id="a_edge7_Node000007_Node000003"><a xlink:title=" ">
<path fill="none" stroke="#63b8ff" d="M193.73,-16.27C201.5,-17.61 209.76,-19.03 217.8,-20.41"/>
<polygon fill="#63b8ff" stroke="#63b8ff" points="217.02,-23.83 227.47,-22.08 218.2,-16.93 217.02,-23.83"/>
</a>
</g>
</g>
</g>
</svg>
