<?xml version="1.0" encoding="UTF-8" standalone="no"?>
<!DOCTYPE svg PUBLIC "-//W3C//DTD SVG 1.1//EN"
 "http://www.w3.org/Graphics/SVG/1.1/DTD/svg11.dtd">
<!-- Generated by graphviz version 9.0.0 (20230911.1827)
 -->
<!-- Title: matrix_scalar_mult Pages: 1 -->
<svg width="337pt" height="79pt"
 viewBox="0.00 0.00 336.50 78.91" xmlns="http://www.w3.org/2000/svg" xmlns:xlink="http://www.w3.org/1999/xlink">
<g id="graph0" class="graph" transform="scale(1 1) rotate(0) translate(4 74.91)">
<title>matrix_scalar_mult</title>
<!-- Node1 -->
<g id="Node000001" class="node">
<title>Node1</title>
<g id="a_Node000001"><a xlink:title=" ">
<polygon fill="#999999" stroke="#666666" points="328.5,-56.25 230.75,-56.25 230.75,-37 328.5,-37 328.5,-56.25"/>
<text text-anchor="middle" x="279.62" y="-42.75" font-family="Helvetica,sans-Serif" font-size="10.00">matrix_scalar_mult</text>
</a>
</g>
</g>
<!-- Node2 -->
<g id="Node000002" class="node">
<title>Node2</title>
<g id="a_Node000002"><a xlink:href="lighting_8c.html#ad035411c7e850248af38e7d68bb0ddd4" target="_top" xlink:title=" ">
<polygon fill="white" stroke="#666666" points="46.75,-56.25 0,-56.25 0,-37 46.75,-37 46.75,-56.25"/>
<text text-anchor="middle" x="23.38" y="-42.75" font-family="Helvetica,sans-Serif" font-size="10.00">lighting</text>
</a>
</g>
</g>
<!-- Node1&#45;&gt;Node2 -->
<g id="edge1_Node000001_Node000002" class="edge">
<title>Node1&#45;&gt;Node2</title>
<g id="a_edge1_Node000001_Node000002"><a xlink:title=" ">
<path fill="none" stroke="#63b8ff" d="M231.18,-59.3C219.37,-61.92 206.67,-64.29 194.75,-65.62 145.28,-71.16 131.91,-73.42 82.75,-65.62 70.64,-63.7 57.64,-59.68 46.98,-55.82"/>
<polygon fill="#63b8ff" stroke="#63b8ff" points="231.76,-62.76 240.71,-57.08 230.17,-55.94 231.76,-62.76"/>
</a>
</g>
</g>
<!-- Node3 -->
<g id="Node000003" class="node">
<title>Node3</title>
<g id="a_Node000003"><a xlink:href="prepare__computations_8c.html#a260bb84a41e41fe52951d598804fb2fe" target="_top" xlink:title=" ">
<polygon fill="white" stroke="#666666" points="194.75,-56.25 82.75,-56.25 82.75,-37 194.75,-37 194.75,-56.25"/>
<text text-anchor="middle" x="138.75" y="-42.75" font-family="Helvetica,sans-Serif" font-size="10.00">prepare_computations</text>
</a>
</g>
</g>
<!-- Node1&#45;&gt;Node3 -->
<g id="edge2_Node000001_Node000003" class="edge">
<title>Node1&#45;&gt;Node3</title>
<g id="a_edge2_Node000001_Node000003"><a xlink:title=" ">
<path fill="none" stroke="#63b8ff" d="M218.96,-46.62C211,-46.62 202.87,-46.62 194.99,-46.62"/>
<polygon fill="#63b8ff" stroke="#63b8ff" points="218.93,-50.13 228.93,-46.63 218.93,-43.13 218.93,-50.13"/>
</a>
</g>
</g>
<!-- Node4 -->
<g id="Node000004" class="node">
<title>Node4</title>
<g id="a_Node000004"><a xlink:href="reflect_8c.html#a9a14a2740fe14a6f96d7b3ef0cffeb61" target="_top" xlink:title=" ">
<polygon fill="white" stroke="#666666" points="159.88,-19.25 117.62,-19.25 117.62,0 159.88,0 159.88,-19.25"/>
<text text-anchor="middle" x="138.75" y="-5.75" font-family="Helvetica,sans-Serif" font-size="10.00">reflect</text>
</a>
</g>
</g>
<!-- Node1&#45;&gt;Node4 -->
<g id="edge3_Node000001_Node000004" class="edge">
<title>Node1&#45;&gt;Node4</title>
<g id="a_edge3_Node000001_Node000004"><a xlink:title=" ">
<path fill="none" stroke="#63b8ff" d="M229.64,-33.57C205.73,-27.2 178.27,-19.89 160.06,-15.03"/>
<polygon fill="#63b8ff" stroke="#63b8ff" points="228.65,-36.93 239.21,-36.12 230.45,-30.17 228.65,-36.93"/>
</a>
</g>
</g>
<!-- Node4&#45;&gt;Node2 -->
<g id="edge4_Node000004_Node000002" class="edge">
<title>Node4&#45;&gt;Node2</title>
<g id="a_edge4_Node000004_Node000002"><a xlink:title=" ">
<path fill="none" stroke="#63b8ff" d="M106.49,-19.83C87.67,-25.97 64.13,-33.65 47.09,-39.21"/>
<polygon fill="#63b8ff" stroke="#63b8ff" points="107.36,-23.22 115.78,-16.8 105.19,-16.57 107.36,-23.22"/>
</a>
</g>
</g>
</g>
</svg>
