<?xml version="1.0" encoding="UTF-8" standalone="no"?>
<!DOCTYPE svg PUBLIC "-//W3C//DTD SVG 1.1//EN"
 "http://www.w3.org/Graphics/SVG/1.1/DTD/svg11.dtd">
<!-- Generated by graphviz version 9.0.0 (20230911.1827)
 -->
<!-- Title: matrix_create Pages: 1 -->
<svg width="714pt" height="662pt"
 viewBox="0.00 0.00 713.75 662.25" xmlns="http://www.w3.org/2000/svg" xmlns:xlink="http://www.w3.org/1999/xlink">
<g id="graph0" class="graph" transform="scale(1 1) rotate(0) translate(4 658.25)">
<title>matrix_create</title>
<!-- Node1 -->
<g id="Node000001" class="node">
<title>Node1</title>
<g id="a_Node000001"><a xlink:title=" ">
<polygon fill="#999999" stroke="#666666" points="705.75,-300.25 631.25,-300.25 631.25,-281 705.75,-281 705.75,-300.25"/>
<text text-anchor="middle" x="668.5" y="-286.75" font-family="Helvetica,sans-Serif" font-size="10.00">matrix_create</text>
</a>
</g>
</g>
<!-- Node2 -->
<g id="Node000002" class="node">
<title>Node2</title>
<g id="a_Node000002"><a xlink:href="matrix__point_8c.html#a51cfc0e8c33e22d4403c9e1ba8a53e0a" target="_top" xlink:title="This function creates a point in 3D space.">
<polygon fill="white" stroke="#666666" points="578,-600.25 508.75,-600.25 508.75,-581 578,-581 578,-600.25"/>
<text text-anchor="middle" x="543.38" y="-586.75" font-family="Helvetica,sans-Serif" font-size="10.00">create_point</text>
</a>
</g>
</g>
<!-- Node1&#45;&gt;Node2 -->
<g id="edge1_Node000001_Node000002" class="edge">
<title>Node1&#45;&gt;Node2</title>
<g id="a_edge1_Node000001_Node000002"><a xlink:title=" ">
<path fill="none" stroke="#63b8ff" d="M668.39,-311.94C669.36,-363.6 664.58,-496.81 595.25,-572.62 590.7,-577.6 584.68,-581.2 578.39,-583.81"/>
<polygon fill="#63b8ff" stroke="#63b8ff" points="671.9,-312.05 668.1,-302.16 664.9,-312.26 671.9,-312.05"/>
</a>
</g>
</g>
<!-- Node3 -->
<g id="Node000003" class="node">
<title>Node3</title>
<g id="a_Node000003"><a xlink:href="matrix__vector_8c.html#a1997aa61fa90423d330488fb3f8596fe" target="_top" xlink:title="This function is used to create a vector in 3D space.">
<polygon fill="white" stroke="#666666" points="581,-563.25 505.75,-563.25 505.75,-544 581,-544 581,-563.25"/>
<text text-anchor="middle" x="543.38" y="-549.75" font-family="Helvetica,sans-Serif" font-size="10.00">create_vector</text>
</a>
</g>
</g>
<!-- Node1&#45;&gt;Node3 -->
<g id="edge2_Node000001_Node000003" class="edge">
<title>Node1&#45;&gt;Node3</title>
<g id="a_edge2_Node000001_Node000003"><a xlink:title=" ">
<path fill="none" stroke="#63b8ff" d="M667.39,-311.94C665.97,-358.76 656.05,-471.5 595.25,-535.62 591.38,-539.7 586.53,-542.86 581.37,-545.3"/>
<polygon fill="#63b8ff" stroke="#63b8ff" points="670.88,-312.16 667.57,-302.09 663.88,-312.03 670.88,-312.16"/>
</a>
</g>
</g>
<!-- Node4 -->
<g id="Node000004" class="node">
<title>Node4</title>
<g id="a_Node000004"><a xlink:href="matrix__clone_8c.html#a664de98f31a1171b994283a70249628a" target="_top" xlink:title=" ">
<polygon fill="white" stroke="#666666" points="444.62,-282.25 373.88,-282.25 373.88,-263 444.62,-263 444.62,-282.25"/>
<text text-anchor="middle" x="409.25" y="-268.75" font-family="Helvetica,sans-Serif" font-size="10.00">matrix_clone</text>
</a>
</g>
</g>
<!-- Node1&#45;&gt;Node4 -->
<g id="edge3_Node000001_Node000004" class="edge">
<title>Node1&#45;&gt;Node4</title>
<g id="a_edge3_Node000001_Node000004"><a xlink:title=" ">
<path fill="none" stroke="#63b8ff" d="M619.5,-293.43C584.03,-294.83 534.62,-295.34 491.5,-290.62 475.99,-288.93 459.1,-285.46 444.77,-282.02"/>
<polygon fill="#63b8ff" stroke="#63b8ff" points="619.62,-296.93 629.46,-293 619.31,-289.94 619.62,-296.93"/>
</a>
</g>
</g>
<!-- Node10 -->
<g id="Node000010" class="node">
<title>Node10</title>
<g id="a_Node000010"><a xlink:href="matrix__determinants_8c.html#a27e06277b887c9f90b2a00a60b0c81fe" target="_top" xlink:title=" ">
<polygon fill="white" stroke="#666666" points="595.25,-471.25 491.5,-471.25 491.5,-452 595.25,-452 595.25,-471.25"/>
<text text-anchor="middle" x="543.38" y="-457.75" font-family="Helvetica,sans-Serif" font-size="10.00">matrix_determinants</text>
</a>
</g>
</g>
<!-- Node1&#45;&gt;Node10 -->
<g id="edge10_Node000001_Node000010" class="edge">
<title>Node1&#45;&gt;Node10</title>
<g id="a_edge10_Node000001_Node000010"><a xlink:title=" ">
<path fill="none" stroke="#63b8ff" d="M662.11,-311.34C653.06,-342.43 632.11,-401.35 595.25,-437.62 589.33,-443.45 581.74,-448.05 574.23,-451.6"/>
<polygon fill="#63b8ff" stroke="#63b8ff" points="665.39,-312.58 664.68,-302.01 658.65,-310.72 665.39,-312.58"/>
</a>
</g>
</g>
<!-- Node11 -->
<g id="Node000011" class="node">
<title>Node11</title>
<g id="a_Node000011"><a xlink:href="matrix__identity_8c.html#a841c87975e3b38adb536d63ec35456e5" target="_top" xlink:title="Function that creates an identity matrix of size n 1 0 0 0 0 1 0 0 0 0 1 0 0 0 0 1.">
<polygon fill="white" stroke="#666666" points="582.5,-526.25 504.25,-526.25 504.25,-507 582.5,-507 582.5,-526.25"/>
<text text-anchor="middle" x="543.38" y="-512.75" font-family="Helvetica,sans-Serif" font-size="10.00">matrix_identity</text>
</a>
</g>
</g>
<!-- Node1&#45;&gt;Node11 -->
<g id="edge12_Node000001_Node000011" class="edge">
<title>Node1&#45;&gt;Node11</title>
<g id="a_edge12_Node000001_Node000011"><a xlink:title=" ">
<path fill="none" stroke="#63b8ff" d="M666.07,-311.79C662.13,-353.3 647.65,-445.92 595.25,-498.62 591.68,-502.21 587.36,-505.09 582.75,-507.39"/>
<polygon fill="#63b8ff" stroke="#63b8ff" points="669.54,-312.2 666.87,-301.95 662.57,-311.63 669.54,-312.2"/>
</a>
</g>
</g>
<!-- Node12 -->
<g id="Node000012" class="node">
<title>Node12</title>
<g id="a_Node000012"><a xlink:href="matrix__inverse_8c.html#a38c4dbf43aa6a2d976c3f77297ecd403" target="_top" xlink:title=" ">
<polygon fill="white" stroke="#666666" points="448.75,-432.25 369.75,-432.25 369.75,-413 448.75,-413 448.75,-432.25"/>
<text text-anchor="middle" x="409.25" y="-418.75" font-family="Helvetica,sans-Serif" font-size="10.00">matrix_inverse</text>
</a>
</g>
</g>
<!-- Node1&#45;&gt;Node12 -->
<g id="edge23_Node000001_Node000012" class="edge">
<title>Node1&#45;&gt;Node12</title>
<g id="a_edge23_Node000001_Node000012"><a xlink:title=" ">
<path fill="none" stroke="#63b8ff" d="M660.75,-311.51C650.95,-338.12 630.04,-383.23 595.25,-404.62 550.86,-431.93 488.85,-431.95 449.12,-428.24"/>
<polygon fill="#63b8ff" stroke="#63b8ff" points="664.02,-312.76 663.99,-302.16 657.41,-310.47 664.02,-312.76"/>
</a>
</g>
</g>
<!-- Node21 -->
<g id="Node000021" class="node">
<title>Node21</title>
<g id="a_Node000021"><a xlink:href="matrix__multiple_8c.html#a6aa64cfb17a064fdea66fdf14a2a426e" target="_top" xlink:title=" ">
<polygon fill="white" stroke="#666666" points="584,-395.25 502.75,-395.25 502.75,-376 584,-376 584,-395.25"/>
<text text-anchor="middle" x="543.38" y="-381.75" font-family="Helvetica,sans-Serif" font-size="10.00">matrix_multiple</text>
</a>
</g>
</g>
<!-- Node1&#45;&gt;Node21 -->
<g id="edge24_Node000001_Node000021" class="edge">
<title>Node1&#45;&gt;Node21</title>
<g id="a_edge24_Node000001_Node000021"><a xlink:title=" ">
<path fill="none" stroke="#63b8ff" d="M651.92,-309.08C638.18,-324.55 616.99,-346.47 595.25,-361.62 587.56,-366.99 578.48,-371.7 570.14,-375.5"/>
<polygon fill="#63b8ff" stroke="#63b8ff" points="654.55,-311.39 658.47,-301.55 649.27,-306.8 654.55,-311.39"/>
</a>
</g>
</g>
<!-- Node23 -->
<g id="Node000023" class="node">
<title>Node23</title>
<g id="a_Node000023"><a xlink:href="matrix__sum_8c.html#a131fcf979705ebc7d09650c74adddfbb" target="_top" xlink:title=" ">
<polygon fill="white" stroke="#666666" points="443.5,-205.25 375,-205.25 375,-186 443.5,-186 443.5,-205.25"/>
<text text-anchor="middle" x="409.25" y="-191.75" font-family="Helvetica,sans-Serif" font-size="10.00">matrix_subs</text>
</a>
</g>
</g>
<!-- Node1&#45;&gt;Node23 -->
<g id="edge28_Node000001_Node000023" class="edge">
<title>Node1&#45;&gt;Node23</title>
<g id="a_edge28_Node000001_Node000023"><a xlink:title=" ">
<path fill="none" stroke="#63b8ff" d="M653.99,-271.65C640.98,-254.96 619.71,-231.52 595.25,-219.62 546.47,-195.89 482.32,-192.94 443.8,-193.74"/>
<polygon fill="#63b8ff" stroke="#63b8ff" points="650.96,-273.44 659.75,-279.34 656.56,-269.24 650.96,-273.44"/>
</a>
</g>
</g>
<!-- Node24 -->
<g id="Node000024" class="node">
<title>Node24</title>
<g id="a_Node000024"><a xlink:href="matrix__sum_8c.html#abd5e62f41c4289aea2951309cd148f61" target="_top" xlink:title=" ">
<polygon fill="white" stroke="#666666" points="576.5,-281.25 510.25,-281.25 510.25,-262 576.5,-262 576.5,-281.25"/>
<text text-anchor="middle" x="543.38" y="-267.75" font-family="Helvetica,sans-Serif" font-size="10.00">matrix_sum</text>
</a>
</g>
</g>
<!-- Node1&#45;&gt;Node24 -->
<g id="edge32_Node000001_Node000024" class="edge">
<title>Node1&#45;&gt;Node24</title>
<g id="a_edge32_Node000001_Node000024"><a xlink:title=" ">
<path fill="none" stroke="#63b8ff" d="M619.68,-283.25C605.35,-281.03 589.97,-278.66 576.87,-276.64"/>
<polygon fill="#63b8ff" stroke="#63b8ff" points="618.98,-286.68 629.4,-284.74 620.05,-279.76 618.98,-286.68"/>
</a>
</g>
</g>
<!-- Node25 -->
<g id="Node000025" class="node">
<title>Node25</title>
<g id="a_Node000025"><a xlink:href="matrix__transpose_8c.html#a70a4847189f00eb79dd2d8f03fd8afa6" target="_top" xlink:title=" ">
<polygon fill="white" stroke="#666666" points="454.38,-319.25 364.12,-319.25 364.12,-300 454.38,-300 454.38,-319.25"/>
<text text-anchor="middle" x="409.25" y="-305.75" font-family="Helvetica,sans-Serif" font-size="10.00">matrix_transpose</text>
</a>
</g>
</g>
<!-- Node1&#45;&gt;Node25 -->
<g id="edge33_Node000001_Node000025" class="edge">
<title>Node1&#45;&gt;Node25</title>
<g id="a_edge33_Node000001_Node000025"><a xlink:title=" ">
<path fill="none" stroke="#63b8ff" d="M619.71,-301.83C611.59,-303.36 603.21,-304.72 595.25,-305.62 547.37,-311.07 492.08,-311.5 454.51,-310.93"/>
<polygon fill="#63b8ff" stroke="#63b8ff" points="620.36,-305.27 629.47,-299.87 618.98,-298.41 620.36,-305.27"/>
</a>
</g>
</g>
<!-- Node26 -->
<g id="Node000026" class="node">
<title>Node26</title>
<g id="a_Node000026"><a xlink:href="parse__camera__light_8c.html#a00b9b6a4aadecaaf341d2fc409582b39" target="_top" xlink:title=" ">
<polygon fill="white" stroke="#666666" points="582.12,-56.25 504.62,-56.25 504.62,-37 582.12,-37 582.12,-56.25"/>
<text text-anchor="middle" x="543.38" y="-42.75" font-family="Helvetica,sans-Serif" font-size="10.00">parse_camera</text>
</a>
</g>
</g>
<!-- Node1&#45;&gt;Node26 -->
<g id="edge35_Node000001_Node000026" class="edge">
<title>Node1&#45;&gt;Node26</title>
<g id="a_edge35_Node000001_Node000026"><a xlink:title=" ">
<path fill="none" stroke="#63b8ff" d="M666.76,-269.48C664.09,-225.39 651.77,-122.9 595.25,-64.62 591.66,-60.93 587.27,-57.99 582.58,-55.65"/>
<polygon fill="#63b8ff" stroke="#63b8ff" points="663.26,-269.62 667.24,-279.44 670.26,-269.29 663.26,-269.62"/>
</a>
</g>
</g>
<!-- Node31 -->
<g id="Node000031" class="node">
<title>Node31</title>
<g id="a_Node000031"><a xlink:href="parse__objects_8c.html#a438a08a219ba336c395096067e52bb1b" target="_top" xlink:title=" ">
<polygon fill="white" stroke="#666666" points="582.5,-167.25 504.25,-167.25 504.25,-148 582.5,-148 582.5,-167.25"/>
<text text-anchor="middle" x="543.38" y="-153.75" font-family="Helvetica,sans-Serif" font-size="10.00">parse_cylinder</text>
</a>
</g>
</g>
<!-- Node1&#45;&gt;Node31 -->
<g id="edge40_Node000001_Node000031" class="edge">
<title>Node1&#45;&gt;Node31</title>
<g id="a_edge40_Node000001_Node000031"><a xlink:title=" ">
<path fill="none" stroke="#63b8ff" d="M658.25,-270.24C646.54,-246.33 624.32,-206.77 595.25,-181.62 588.68,-175.94 580.52,-171.31 572.69,-167.68"/>
<polygon fill="#63b8ff" stroke="#63b8ff" points="655.06,-271.67 662.5,-279.22 661.39,-268.68 655.06,-271.67"/>
</a>
</g>
</g>
<!-- Node32 -->
<g id="Node000032" class="node">
<title>Node32</title>
<g id="a_Node000032"><a xlink:href="parse__camera__light_8c.html#aaa10205c0950a79dd43566074de7b0a0" target="_top" xlink:title=" ">
<polygon fill="white" stroke="#666666" points="575,-130.25 511.75,-130.25 511.75,-111 575,-111 575,-130.25"/>
<text text-anchor="middle" x="543.38" y="-116.75" font-family="Helvetica,sans-Serif" font-size="10.00">parse_light</text>
</a>
</g>
</g>
<!-- Node1&#45;&gt;Node32 -->
<g id="edge42_Node000001_Node000032" class="edge">
<title>Node1&#45;&gt;Node32</title>
<g id="a_edge42_Node000001_Node000032"><a xlink:title=" ">
<path fill="none" stroke="#63b8ff" d="M662.99,-269.62C654.94,-237.09 635.09,-174.53 595.25,-138.62 589.61,-133.54 582.45,-129.88 575.29,-127.24"/>
<polygon fill="#63b8ff" stroke="#63b8ff" points="659.5,-270.08 665.17,-279.03 666.32,-268.49 659.5,-270.08"/>
</a>
</g>
</g>
<!-- Node33 -->
<g id="Node000033" class="node">
<title>Node33</title>
<g id="a_Node000033"><a xlink:href="parse__objects_8c.html#a7e641794acee51578d8539e361635c47" target="_top" xlink:title=" ">
<polygon fill="white" stroke="#666666" points="577.62,-93.25 509.12,-93.25 509.12,-74 577.62,-74 577.62,-93.25"/>
<text text-anchor="middle" x="543.38" y="-79.75" font-family="Helvetica,sans-Serif" font-size="10.00">parse_plane</text>
</a>
</g>
</g>
<!-- Node1&#45;&gt;Node33 -->
<g id="edge44_Node000001_Node000033" class="edge">
<title>Node1&#45;&gt;Node33</title>
<g id="a_edge44_Node000001_Node000033"><a xlink:title=" ">
<path fill="none" stroke="#63b8ff" d="M665.21,-269.54C659.92,-230.94 643.38,-148.56 595.25,-101.62 590.42,-96.92 584.28,-93.43 577.96,-90.86"/>
<polygon fill="#63b8ff" stroke="#63b8ff" points="661.72,-269.84 666.42,-279.34 668.67,-268.99 661.72,-269.84"/>
</a>
</g>
</g>
<!-- Node34 -->
<g id="Node000034" class="node">
<title>Node34</title>
<g id="a_Node000034"><a xlink:href="ray__position_8c.html#adc4013ba57492c59d6118105b0d177a6" target="_top" xlink:title=" ">
<polygon fill="white" stroke="#666666" points="307.88,-243.25 240.12,-243.25 240.12,-224 307.88,-224 307.88,-243.25"/>
<text text-anchor="middle" x="274" y="-229.75" font-family="Helvetica,sans-Serif" font-size="10.00">ray_position</text>
</a>
</g>
</g>
<!-- Node1&#45;&gt;Node34 -->
<g id="edge46_Node000001_Node000034" class="edge">
<title>Node1&#45;&gt;Node34</title>
<g id="a_edge46_Node000001_Node000034"><a xlink:title=" ">
<path fill="none" stroke="#63b8ff" d="M643.55,-274.71C629.97,-266.57 612.33,-257.38 595.25,-252.62 493.58,-224.3 366.95,-227.5 308.02,-231.07"/>
<polygon fill="#63b8ff" stroke="#63b8ff" points="641.44,-277.52 651.77,-279.85 645.14,-271.59 641.44,-277.52"/>
</a>
</g>
</g>
<!-- Node35 -->
<g id="Node000035" class="node">
<title>Node35</title>
<g id="a_Node000035"><a xlink:href="tuple__to__matrix_8c.html#a25317e2d0f5184cd0328d3cbf562ad46" target="_top" xlink:title=" ">
<polygon fill="white" stroke="#666666" points="584.38,-19.25 502.38,-19.25 502.38,0 584.38,0 584.38,-19.25"/>
<text text-anchor="middle" x="543.38" y="-5.75" font-family="Helvetica,sans-Serif" font-size="10.00">tuple_to_matrix</text>
</a>
</g>
</g>
<!-- Node1&#45;&gt;Node35 -->
<g id="edge48_Node000001_Node000035" class="edge">
<title>Node1&#45;&gt;Node35</title>
<g id="a_edge48_Node000001_Node000035"><a xlink:title=" ">
<path fill="none" stroke="#63b8ff" d="M667.91,-269.43C667.69,-220.3 660.24,-97.47 595.25,-27.62 592.19,-24.33 588.48,-21.64 584.49,-19.44"/>
<polygon fill="#63b8ff" stroke="#63b8ff" points="664.41,-269.21 667.84,-279.24 671.41,-269.26 664.41,-269.21"/>
</a>
</g>
</g>
<!-- Node5 -->
<g id="Node000005" class="node">
<title>Node5</title>
<g id="a_Node000005"><a xlink:href="prepare__computations_8c.html#a260bb84a41e41fe52951d598804fb2fe" target="_top" xlink:title=" ">
<polygon fill="white" stroke="#666666" points="185,-318.25 73,-318.25 73,-299 185,-299 185,-318.25"/>
<text text-anchor="middle" x="129" y="-304.75" font-family="Helvetica,sans-Serif" font-size="10.00">prepare_computations</text>
</a>
</g>
</g>
<!-- Node4&#45;&gt;Node5 -->
<g id="edge4_Node000004_Node000005" class="edge">
<title>Node4&#45;&gt;Node5</title>
<g id="a_edge4_Node000004_Node000005"><a xlink:title=" ">
<path fill="none" stroke="#63b8ff" d="M362.43,-283.13C350.91,-285.52 338.54,-287.87 327,-289.62 279.44,-296.87 224.99,-301.87 185.4,-304.92"/>
<polygon fill="#63b8ff" stroke="#63b8ff" points="363.08,-286.57 372.13,-281.07 361.62,-279.73 363.08,-286.57"/>
</a>
</g>
</g>
<!-- Node6 -->
<g id="Node000006" class="node">
<title>Node6</title>
<g id="a_Node000006"><a xlink:href="ray__clone_8c.html#a2cec923765c270860af3d023b8236564" target="_top" xlink:title=" ">
<polygon fill="white" stroke="#666666" points="302.62,-280.25 245.38,-280.25 245.38,-261 302.62,-261 302.62,-280.25"/>
<text text-anchor="middle" x="274" y="-266.75" font-family="Helvetica,sans-Serif" font-size="10.00">ray_clone</text>
</a>
</g>
</g>
<!-- Node4&#45;&gt;Node6 -->
<g id="edge5_Node000004_Node000006" class="edge">
<title>Node4&#45;&gt;Node6</title>
<g id="a_edge5_Node000004_Node000006"><a xlink:title=" ">
<path fill="none" stroke="#63b8ff" d="M362.3,-271.94C342.49,-271.64 319.98,-271.3 302.78,-271.04"/>
<polygon fill="#63b8ff" stroke="#63b8ff" points="362.02,-275.43 372.07,-272.08 362.13,-268.43 362.02,-275.43"/>
</a>
</g>
</g>
<!-- Node7 -->
<g id="Node000007" class="node">
<title>Node7</title>
<g id="a_Node000007"><a xlink:href="reflect_8c.html#a9a14a2740fe14a6f96d7b3ef0cffeb61" target="_top" xlink:title=" ">
<polygon fill="white" stroke="#666666" points="295.12,-206.25 252.88,-206.25 252.88,-187 295.12,-187 295.12,-206.25"/>
<text text-anchor="middle" x="274" y="-192.75" font-family="Helvetica,sans-Serif" font-size="10.00">reflect</text>
</a>
</g>
</g>
<!-- Node4&#45;&gt;Node7 -->
<g id="edge6_Node000004_Node000007" class="edge">
<title>Node4&#45;&gt;Node7</title>
<g id="a_edge6_Node000004_Node000007"><a xlink:title=" ">
<path fill="none" stroke="#63b8ff" d="M387.69,-255.42C371.88,-242.82 349.06,-226.02 327,-214.62 317.07,-209.5 305.35,-205.3 295.56,-202.25"/>
<polygon fill="#63b8ff" stroke="#63b8ff" points="385.42,-258.08 395.39,-261.67 389.84,-252.65 385.42,-258.08"/>
</a>
</g>
</g>
<!-- Node9 -->
<g id="Node000009" class="node">
<title>Node9</title>
<g id="a_Node000009"><a xlink:href="sphere__normal_8c.html#a7f90156067fc9db4452ca1b058c976e8" target="_top" xlink:title=" ">
<polygon fill="white" stroke="#666666" points="313.88,-356.25 234.12,-356.25 234.12,-337 313.88,-337 313.88,-356.25"/>
<text text-anchor="middle" x="274" y="-342.75" font-family="Helvetica,sans-Serif" font-size="10.00">sphere_normal</text>
</a>
</g>
</g>
<!-- Node4&#45;&gt;Node9 -->
<g id="edge8_Node000004_Node000009" class="edge">
<title>Node4&#45;&gt;Node9</title>
<g id="a_edge8_Node000004_Node000009"><a xlink:title=" ">
<path fill="none" stroke="#63b8ff" d="M368.72,-287.37C366.75,-288.41 364.84,-289.49 363,-290.62 344.78,-301.86 344.91,-310.9 327,-322.62 318.85,-327.96 309.32,-332.73 300.66,-336.58"/>
<polygon fill="#63b8ff" stroke="#63b8ff" points="369.89,-290.69 377.43,-283.25 366.89,-284.36 369.89,-290.69"/>
</a>
</g>
</g>
<!-- Node8 -->
<g id="Node000008" class="node">
<title>Node8</title>
<g id="a_Node000008"><a xlink:href="lighting_8c.html#ad035411c7e850248af38e7d68bb0ddd4" target="_top" xlink:title=" ">
<polygon fill="white" stroke="#666666" points="152.38,-187.25 105.62,-187.25 105.62,-168 152.38,-168 152.38,-187.25"/>
<text text-anchor="middle" x="129" y="-173.75" font-family="Helvetica,sans-Serif" font-size="10.00">lighting</text>
</a>
</g>
</g>
<!-- Node7&#45;&gt;Node8 -->
<g id="edge7_Node000007_Node000008" class="edge">
<title>Node7&#45;&gt;Node8</title>
<g id="a_edge7_Node000007_Node000008"><a xlink:title=" ">
<path fill="none" stroke="#63b8ff" d="M241.41,-192.43C214.6,-188.87 176.77,-183.84 152.81,-180.66"/>
<polygon fill="#63b8ff" stroke="#63b8ff" points="240.64,-195.86 251.01,-193.7 241.56,-188.92 240.64,-195.86"/>
</a>
</g>
</g>
<!-- Node9&#45;&gt;Node5 -->
<g id="edge9_Node000009_Node000005" class="edge">
<title>Node9&#45;&gt;Node5</title>
<g id="a_edge9_Node000009_Node000005"><a xlink:title=" ">
<path fill="none" stroke="#63b8ff" d="M224.18,-333.65C205.68,-328.74 184.93,-323.22 167.63,-318.62"/>
<polygon fill="#63b8ff" stroke="#63b8ff" points="223.03,-336.97 233.59,-336.15 224.83,-330.2 223.03,-336.97"/>
</a>
</g>
</g>
<!-- Node10&#45;&gt;Node10 -->
<g id="edge11_Node000010_Node000010" class="edge">
<title>Node10&#45;&gt;Node10</title>
<g id="a_edge11_Node000010_Node000010"><a xlink:title=" ">
<path fill="none" stroke="#63b8ff" d="M565.58,-482.65C562.81,-486.53 555.4,-489.25 543.38,-489.25 521.38,-489.25 514.85,-480.15 523.79,-471.54"/>
<polygon fill="#63b8ff" stroke="#63b8ff" points="569.01,-481.94 563.31,-473.01 562.2,-483.55 569.01,-481.94"/>
</a>
</g>
</g>
<!-- Node11&#45;&gt;Node12 -->
<g id="edge13_Node000011_Node000012" class="edge">
<title>Node11&#45;&gt;Node12</title>
<g id="a_edge13_Node000011_Node000012"><a xlink:title=" ">
<path fill="none" stroke="#63b8ff" d="M494.96,-501.18C493.76,-500.37 492.61,-499.52 491.5,-498.62 467.86,-479.6 478.76,-460.1 455.5,-440.62 451.74,-437.48 447.36,-434.83 442.84,-432.62"/>
<polygon fill="#63b8ff" stroke="#63b8ff" points="492.94,-504.06 503.38,-505.88 496.35,-497.95 492.94,-504.06"/>
</a>
</g>
</g>
<!-- Node15 -->
<g id="Node000015" class="node">
<title>Node15</title>
<g id="a_Node000015"><a xlink:href="scale_8c.html#a48fd6dec69f122197f7c6b5967c1319c" target="_top" xlink:title=" ">
<polygon fill="white" stroke="#666666" points="448.38,-654.25 370.12,-654.25 370.12,-635 448.38,-635 448.38,-654.25"/>
<text text-anchor="middle" x="409.25" y="-640.75" font-family="Helvetica,sans-Serif" font-size="10.00">object_scaling</text>
</a>
</g>
</g>
<!-- Node11&#45;&gt;Node15 -->
<g id="edge17_Node000011_Node000015" class="edge">
<title>Node11&#45;&gt;Node15</title>
<g id="a_edge17_Node000011_Node000015"><a xlink:title=" ">
<path fill="none" stroke="#63b8ff" d="M494.3,-532.16C493.33,-532.94 492.39,-533.76 491.5,-534.62 459.95,-565.16 486.46,-595.49 455.5,-626.62 452.28,-629.86 448.41,-632.53 444.3,-634.74"/>
<polygon fill="#63b8ff" stroke="#63b8ff" points="496,-535.22 502.59,-526.92 492.27,-529.3 496,-535.22"/>
</a>
</g>
</g>
<!-- Node16 -->
<g id="Node000016" class="node">
<title>Node16</title>
<g id="a_Node000016"><a xlink:href="translate_8c.html#a520d09bd7d70f7e5ab59d81bbb7468d9" target="_top" xlink:title=" ">
<polygon fill="white" stroke="#666666" points="455.5,-617.25 363,-617.25 363,-598 455.5,-598 455.5,-617.25"/>
<text text-anchor="middle" x="409.25" y="-603.75" font-family="Helvetica,sans-Serif" font-size="10.00">object_translation</text>
</a>
</g>
</g>
<!-- Node11&#45;&gt;Node16 -->
<g id="edge18_Node000011_Node000016" class="edge">
<title>Node11&#45;&gt;Node16</title>
<g id="a_edge18_Node000011_Node000016"><a xlink:title=" ">
<path fill="none" stroke="#63b8ff" d="M494.99,-532.11C493.78,-532.91 492.62,-533.75 491.5,-534.62 468.52,-552.67 478.13,-571.14 455.5,-589.62 451.7,-592.73 447.3,-595.35 442.77,-597.55"/>
<polygon fill="#63b8ff" stroke="#63b8ff" points="496.37,-535.34 503.44,-527.45 492.99,-529.21 496.37,-535.34"/>
</a>
</g>
</g>
<!-- Node17 -->
<g id="Node000017" class="node">
<title>Node17</title>
<g id="a_Node000017"><a xlink:href="rotate_8c.html#a2a9331f58a373dad2ac3c24794183cc3" target="_top" xlink:title="Creates a 4x4 rotation matrix around the X axis (left/right)">
<polygon fill="white" stroke="#666666" points="438.25,-580.25 380.25,-580.25 380.25,-561 438.25,-561 438.25,-580.25"/>
<text text-anchor="middle" x="409.25" y="-566.75" font-family="Helvetica,sans-Serif" font-size="10.00">rotation_x</text>
</a>
</g>
</g>
<!-- Node11&#45;&gt;Node17 -->
<g id="edge19_Node000011_Node000017" class="edge">
<title>Node11&#45;&gt;Node17</title>
<g id="a_edge19_Node000011_Node000017"><a xlink:title=" ">
<path fill="none" stroke="#63b8ff" d="M501.33,-530.65C497.99,-531.94 494.67,-533.28 491.5,-534.62 475.04,-541.62 471.83,-545.31 455.5,-552.62 449.48,-555.32 442.93,-558.04 436.73,-560.53"/>
<polygon fill="#63b8ff" stroke="#63b8ff" points="502.44,-533.97 510.59,-527.2 500,-527.41 502.44,-533.97"/>
</a>
</g>
</g>
<!-- Node18 -->
<g id="Node000018" class="node">
<title>Node18</title>
<g id="a_Node000018"><a xlink:href="rotate_8c.html#a37fb509db7d1ecb9a2dc830e8d6c4d3c" target="_top" xlink:title="Creates a 4x4 rotation matrix around the Y axis (front/back)">
<polygon fill="white" stroke="#666666" points="438.25,-543.25 380.25,-543.25 380.25,-524 438.25,-524 438.25,-543.25"/>
<text text-anchor="middle" x="409.25" y="-529.75" font-family="Helvetica,sans-Serif" font-size="10.00">rotation_y</text>
</a>
</g>
</g>
<!-- Node11&#45;&gt;Node18 -->
<g id="edge20_Node000011_Node000018" class="edge">
<title>Node11&#45;&gt;Node18</title>
<g id="a_edge20_Node000011_Node000018"><a xlink:title=" ">
<path fill="none" stroke="#63b8ff" d="M492.44,-523.05C474.22,-525.39 454.26,-527.96 438.57,-529.98"/>
<polygon fill="#63b8ff" stroke="#63b8ff" points="492.83,-526.53 502.3,-521.78 491.94,-519.59 492.83,-526.53"/>
</a>
</g>
</g>
<!-- Node19 -->
<g id="Node000019" class="node">
<title>Node19</title>
<g id="a_Node000019"><a xlink:href="rotate_8c.html#af3cde01a934f6c4b452608316f91bc2f" target="_top" xlink:title="Creates a 4x4 rotation matrix around the Z axis (vertical)">
<polygon fill="white" stroke="#666666" points="438.25,-506.25 380.25,-506.25 380.25,-487 438.25,-487 438.25,-506.25"/>
<text text-anchor="middle" x="409.25" y="-492.75" font-family="Helvetica,sans-Serif" font-size="10.00">rotation_z</text>
</a>
</g>
</g>
<!-- Node11&#45;&gt;Node19 -->
<g id="edge21_Node000011_Node000019" class="edge">
<title>Node11&#45;&gt;Node19</title>
<g id="a_edge21_Node000011_Node000019"><a xlink:title=" ">
<path fill="none" stroke="#63b8ff" d="M492.44,-509.07C474.22,-506.31 454.26,-503.29 438.57,-500.91"/>
<polygon fill="#63b8ff" stroke="#63b8ff" points="491.9,-512.52 502.31,-510.56 492.94,-505.6 491.9,-512.52"/>
</a>
</g>
</g>
<!-- Node20 -->
<g id="Node000020" class="node">
<title>Node20</title>
<g id="a_Node000020"><a xlink:href="shearing_8c.html#ab7ead1278f06784d5d1bb0925af42fc3" target="_top" xlink:title="This function is used to shear given objects.">
<polygon fill="white" stroke="#666666" points="435.62,-469.25 382.88,-469.25 382.88,-450 435.62,-450 435.62,-469.25"/>
<text text-anchor="middle" x="409.25" y="-455.75" font-family="Helvetica,sans-Serif" font-size="10.00">shearing</text>
</a>
</g>
</g>
<!-- Node11&#45;&gt;Node20 -->
<g id="edge22_Node000011_Node000020" class="edge">
<title>Node11&#45;&gt;Node20</title>
<g id="a_edge22_Node000011_Node000020"><a xlink:title=" ">
<path fill="none" stroke="#63b8ff" d="M500.53,-502.54C497.45,-501.28 494.41,-499.97 491.5,-498.62 474.69,-490.83 472.15,-485.74 455.5,-477.62 449.27,-474.59 442.39,-471.65 435.91,-469.06"/>
<polygon fill="#63b8ff" stroke="#63b8ff" points="499.06,-505.72 509.65,-506.05 501.57,-499.19 499.06,-505.72"/>
</a>
</g>
</g>
<!-- Node12&#45;&gt;Node9 -->
<g id="edge16_Node000012_Node000009" class="edge">
<title>Node12&#45;&gt;Node9</title>
<g id="a_edge16_Node000012_Node000009"><a xlink:title=" ">
<path fill="none" stroke="#63b8ff" d="M367.8,-407.62C366.15,-406.67 364.54,-405.67 363,-404.62 343.74,-391.58 346.33,-379.56 327,-366.62 321.13,-362.7 314.38,-359.38 307.73,-356.65"/>
<polygon fill="#63b8ff" stroke="#63b8ff" points="365.77,-410.51 376.28,-411.88 368.92,-404.26 365.77,-410.51"/>
</a>
</g>
</g>
<!-- Node13 -->
<g id="Node000013" class="node">
<title>Node13</title>
<g id="a_Node000013"><a xlink:href="ray__intersect_8c.html#a20cc82316845ecb42e8e8c218ff72a73" target="_top" xlink:title=" ">
<polygon fill="white" stroke="#666666" points="327,-395.25 221,-395.25 221,-376 327,-376 327,-395.25"/>
<text text-anchor="middle" x="274" y="-381.75" font-family="Helvetica,sans-Serif" font-size="10.00">ray_intersect_sphere</text>
</a>
</g>
</g>
<!-- Node12&#45;&gt;Node13 -->
<g id="edge14_Node000012_Node000013" class="edge">
<title>Node12&#45;&gt;Node13</title>
<g id="a_edge14_Node000012_Node000013"><a xlink:title=" ">
<path fill="none" stroke="#63b8ff" d="M360.89,-409.47C344.6,-404.95 326.64,-399.96 311.37,-395.72"/>
<polygon fill="#63b8ff" stroke="#63b8ff" points="359.81,-412.81 370.38,-412.11 361.68,-406.06 359.81,-412.81"/>
</a>
</g>
</g>
<!-- Node14 -->
<g id="Node000014" class="node">
<title>Node14</title>
<g id="a_Node000014"><a xlink:href="ray__world__intersect_8c.html#a2e629895d43f70cc7814ef4b0c89cf0d" target="_top" xlink:title=" ">
<polygon fill="white" stroke="#666666" points="179,-395.25 79,-395.25 79,-376 179,-376 179,-395.25"/>
<text text-anchor="middle" x="129" y="-381.75" font-family="Helvetica,sans-Serif" font-size="10.00">ray_intersect_world</text>
</a>
</g>
</g>
<!-- Node13&#45;&gt;Node14 -->
<g id="edge15_Node000013_Node000014" class="edge">
<title>Node13&#45;&gt;Node14</title>
<g id="a_edge15_Node000013_Node000014"><a xlink:title=" ">
<path fill="none" stroke="#63b8ff" d="M209.27,-385.62C199.15,-385.62 188.82,-385.62 179.1,-385.62"/>
<polygon fill="#63b8ff" stroke="#63b8ff" points="209.05,-389.13 219.05,-385.63 209.05,-382.13 209.05,-389.13"/>
</a>
</g>
</g>
<!-- Node21&#45;&gt;Node9 -->
<g id="edge27_Node000021_Node000009" class="edge">
<title>Node21&#45;&gt;Node9</title>
<g id="a_edge27_Node000021_Node000009"><a xlink:title=" ">
<path fill="none" stroke="#63b8ff" d="M491.34,-373.53C479.61,-371.01 467.16,-368.54 455.5,-366.62 407.12,-358.68 350.92,-353.01 314.25,-349.78"/>
<polygon fill="#63b8ff" stroke="#63b8ff" points="490.32,-376.89 500.84,-375.62 491.83,-370.05 490.32,-376.89"/>
</a>
</g>
</g>
<!-- Node22 -->
<g id="Node000022" class="node">
<title>Node22</title>
<g id="a_Node000022"><a xlink:href="ray__transform_8c.html#a4b22c1091f5143dc209773a18fd27f15" target="_top" xlink:title=" ">
<polygon fill="white" stroke="#666666" points="446.88,-395.25 371.62,-395.25 371.62,-376 446.88,-376 446.88,-395.25"/>
<text text-anchor="middle" x="409.25" y="-381.75" font-family="Helvetica,sans-Serif" font-size="10.00">ray_transform</text>
</a>
</g>
</g>
<!-- Node21&#45;&gt;Node22 -->
<g id="edge25_Node000021_Node000022" class="edge">
<title>Node21&#45;&gt;Node22</title>
<g id="a_edge25_Node000021_Node000022"><a xlink:title=" ">
<path fill="none" stroke="#63b8ff" d="M490.89,-385.62C476.23,-385.62 460.55,-385.62 446.96,-385.62"/>
<polygon fill="#63b8ff" stroke="#63b8ff" points="490.86,-389.13 500.86,-385.63 490.86,-382.13 490.86,-389.13"/>
</a>
</g>
</g>
<!-- Node22&#45;&gt;Node13 -->
<g id="edge26_Node000022_Node000013" class="edge">
<title>Node22&#45;&gt;Node13</title>
<g id="a_edge26_Node000022_Node000013"><a xlink:title=" ">
<path fill="none" stroke="#63b8ff" d="M359.96,-385.62C349.36,-385.62 338.1,-385.62 327.35,-385.62"/>
<polygon fill="#63b8ff" stroke="#63b8ff" points="359.62,-389.13 369.62,-385.63 359.62,-382.13 359.62,-389.13"/>
</a>
</g>
</g>
<!-- Node23&#45;&gt;Node7 -->
<g id="edge31_Node000023_Node000007" class="edge">
<title>Node23&#45;&gt;Node7</title>
<g id="a_edge31_Node000023_Node000007"><a xlink:title=" ">
<path fill="none" stroke="#63b8ff" d="M363.34,-195.96C340.29,-196.14 313.34,-196.34 295.33,-196.47"/>
<polygon fill="#63b8ff" stroke="#63b8ff" points="363.14,-199.46 373.11,-195.89 363.09,-192.46 363.14,-199.46"/>
</a>
</g>
</g>
<!-- Node23&#45;&gt;Node8 -->
<g id="edge29_Node000023_Node000008" class="edge">
<title>Node23&#45;&gt;Node8</title>
<g id="a_edge29_Node000023_Node000008"><a xlink:title=" ">
<path fill="none" stroke="#63b8ff" d="M363.57,-183.9C351.76,-181.3 338.97,-178.94 327,-177.62 264.27,-170.76 189.64,-173.79 152.84,-176.02"/>
<polygon fill="#63b8ff" stroke="#63b8ff" points="362.52,-187.25 373.05,-186.09 364.1,-180.43 362.52,-187.25"/>
</a>
</g>
</g>
<!-- Node23&#45;&gt;Node13 -->
<g id="edge30_Node000023_Node000013" class="edge">
<title>Node23&#45;&gt;Node13</title>
<g id="a_edge30_Node000023_Node000013"><a xlink:title=" ">
<path fill="none" stroke="#63b8ff" d="M391.1,-214.08C381.76,-224.94 370.58,-239.31 363,-253.62 338.54,-299.84 362.92,-327.63 327,-365.62 323.15,-369.7 318.37,-372.96 313.29,-375.56"/>
<polygon fill="#63b8ff" stroke="#63b8ff" points="393.67,-216.47 397.71,-206.67 388.44,-211.81 393.67,-216.47"/>
</a>
</g>
</g>
<!-- Node25&#45;&gt;Node9 -->
<g id="edge34_Node000025_Node000009" class="edge">
<title>Node25&#45;&gt;Node9</title>
<g id="a_edge34_Node000025_Node000009"><a xlink:title=" ">
<path fill="none" stroke="#63b8ff" d="M360.89,-322.78C344.6,-327.3 326.64,-332.29 311.37,-336.53"/>
<polygon fill="#63b8ff" stroke="#63b8ff" points="361.68,-326.19 370.38,-320.14 359.81,-319.44 361.68,-326.19"/>
</a>
</g>
</g>
<!-- Node27 -->
<g id="Node000027" class="node">
<title>Node27</title>
<g id="a_Node000027"><a xlink:href="parse__main_8c.html#a92aa268ea4b3d5c808364ca73d913cbe" target="_top" xlink:title=" ">
<polygon fill="white" stroke="#666666" points="453.25,-112.25 365.25,-112.25 365.25,-93 453.25,-93 453.25,-112.25"/>
<text text-anchor="middle" x="409.25" y="-98.75" font-family="Helvetica,sans-Serif" font-size="10.00">parse_func_redir</text>
</a>
</g>
</g>
<!-- Node26&#45;&gt;Node27 -->
<g id="edge36_Node000026_Node000027" class="edge">
<title>Node26&#45;&gt;Node27</title>
<g id="a_edge36_Node000026_Node000027"><a xlink:title=" ">
<path fill="none" stroke="#63b8ff" d="M501.83,-60.57C498.32,-61.89 494.84,-63.26 491.5,-64.62 470.32,-73.3 446.67,-84.54 430.38,-92.54"/>
<polygon fill="#63b8ff" stroke="#63b8ff" points="502.73,-63.96 510.91,-57.23 500.32,-57.39 502.73,-63.96"/>
</a>
</g>
</g>
<!-- Node28 -->
<g id="Node000028" class="node">
<title>Node28</title>
<g id="a_Node000028"><a xlink:href="parse__main_8c.html#a5d7da6ab7925ffda04b676ef38880723" target="_top" xlink:title="Reading a line from the given .rt file and splitting the given line with the space (&#39; &#39;) delimiter....">
<polygon fill="white" stroke="#666666" points="321.75,-112.25 226.25,-112.25 226.25,-93 321.75,-93 321.75,-112.25"/>
<text text-anchor="middle" x="274" y="-98.75" font-family="Helvetica,sans-Serif" font-size="10.00">parse_rt_read_line</text>
</a>
</g>
</g>
<!-- Node27&#45;&gt;Node28 -->
<g id="edge37_Node000027_Node000028" class="edge">
<title>Node27&#45;&gt;Node28</title>
<g id="a_edge37_Node000027_Node000028"><a xlink:title=" ">
<path fill="none" stroke="#63b8ff" d="M353.49,-102.62C343.1,-102.62 332.31,-102.62 322.19,-102.62"/>
<polygon fill="#63b8ff" stroke="#63b8ff" points="353.47,-106.13 363.47,-102.63 353.47,-99.13 353.47,-106.13"/>
</a>
</g>
</g>
<!-- Node29 -->
<g id="Node000029" class="node">
<title>Node29</title>
<g id="a_Node000029"><a xlink:href="parse__main_8c.html#a62c4de2f960942eba61e7de12c387ae4" target="_top" xlink:title="Entry function to parsing .rt file where the file is attempted to be opened, t_parse structure is ini...">
<polygon fill="white" stroke="#666666" points="167.75,-112.25 90.25,-112.25 90.25,-93 167.75,-93 167.75,-112.25"/>
<text text-anchor="middle" x="129" y="-98.75" font-family="Helvetica,sans-Serif" font-size="10.00">parse_rt_main</text>
</a>
</g>
</g>
<!-- Node28&#45;&gt;Node29 -->
<g id="edge38_Node000028_Node000029" class="edge">
<title>Node28&#45;&gt;Node29</title>
<g id="a_edge38_Node000028_Node000029"><a xlink:title=" ">
<path fill="none" stroke="#63b8ff" d="M214.57,-102.62C198.91,-102.62 182.38,-102.62 168.13,-102.62"/>
<polygon fill="#63b8ff" stroke="#63b8ff" points="214.27,-106.13 224.27,-102.63 214.27,-99.13 214.27,-106.13"/>
</a>
</g>
</g>
<!-- Node30 -->
<g id="Node000030" class="node">
<title>Node30</title>
<g id="a_Node000030"><a xlink:href="mini__ray_8c.html#a0c99d968a34e803d378692bde2e3f18f" target="_top" xlink:title=" ">
<polygon fill="white" stroke="#666666" points="37,-112.25 0,-112.25 0,-93 37,-93 37,-112.25"/>
<text text-anchor="middle" x="18.5" y="-98.75" font-family="Helvetica,sans-Serif" font-size="10.00">main</text>
</a>
</g>
</g>
<!-- Node29&#45;&gt;Node30 -->
<g id="edge39_Node000029_Node000030" class="edge">
<title>Node29&#45;&gt;Node30</title>
<g id="a_edge39_Node000029_Node000030"><a xlink:title=" ">
<path fill="none" stroke="#63b8ff" d="M78.85,-102.62C63.98,-102.62 48.59,-102.62 37.21,-102.62"/>
<polygon fill="#63b8ff" stroke="#63b8ff" points="78.54,-106.13 88.54,-102.63 78.54,-99.13 78.54,-106.13"/>
</a>
</g>
</g>
<!-- Node31&#45;&gt;Node27 -->
<g id="edge41_Node000031_Node000027" class="edge">
<title>Node31&#45;&gt;Node27</title>
<g id="a_edge41_Node000031_Node000027"><a xlink:title=" ">
<path fill="none" stroke="#63b8ff" d="M501.99,-143.7C498.42,-142.36 494.89,-140.99 491.5,-139.62 470.66,-131.21 447.36,-120.46 431.08,-112.72"/>
<polygon fill="#63b8ff" stroke="#63b8ff" points="500.6,-146.92 511.2,-147.07 503.01,-140.35 500.6,-146.92"/>
</a>
</g>
</g>
<!-- Node32&#45;&gt;Node27 -->
<g id="edge43_Node000032_Node000027" class="edge">
<title>Node32&#45;&gt;Node27</title>
<g id="a_edge43_Node000032_Node000027"><a xlink:title=" ">
<path fill="none" stroke="#63b8ff" d="M500.4,-114.91C485.45,-112.87 468.59,-110.57 453.54,-108.52"/>
<polygon fill="#63b8ff" stroke="#63b8ff" points="499.52,-118.32 509.9,-116.2 500.46,-111.38 499.52,-118.32"/>
</a>
</g>
</g>
<!-- Node33&#45;&gt;Node27 -->
<g id="edge45_Node000033_Node000027" class="edge">
<title>Node33&#45;&gt;Node27</title>
<g id="a_edge45_Node000033_Node000027"><a xlink:title=" ">
<path fill="none" stroke="#63b8ff" d="M497.61,-90.06C483.32,-92.12 467.54,-94.39 453.37,-96.42"/>
<polygon fill="#63b8ff" stroke="#63b8ff" points="497.79,-93.57 507.19,-88.68 496.8,-86.64 497.79,-93.57"/>
</a>
</g>
</g>
<!-- Node34&#45;&gt;Node5 -->
<g id="edge47_Node000034_Node000005" class="edge">
<title>Node34&#45;&gt;Node5</title>
<g id="a_edge47_Node000034_Node000005"><a xlink:title=" ">
<path fill="none" stroke="#63b8ff" d="M229.92,-247.67C226.87,-248.93 223.87,-250.25 221,-251.62 192.08,-265.47 160.94,-286.44 143.62,-298.71"/>
<polygon fill="#63b8ff" stroke="#63b8ff" points="230.88,-251.06 238.95,-244.2 228.36,-244.52 230.88,-251.06"/>
</a>
</g>
</g>
</g>
</svg>
