<?xml version="1.0" encoding="UTF-8" standalone="no"?>
<!DOCTYPE svg PUBLIC "-//W3C//DTD SVG 1.1//EN"
 "http://www.w3.org/Graphics/SVG/1.1/DTD/svg11.dtd">
<!-- Generated by graphviz version 9.0.0 (20230911.1827)
 -->
<!-- Title: matrix_dot Pages: 1 -->
<svg width="452pt" height="103pt"
 viewBox="0.00 0.00 451.50 103.25" xmlns="http://www.w3.org/2000/svg" xmlns:xlink="http://www.w3.org/1999/xlink">
<g id="graph0" class="graph" transform="scale(1 1) rotate(0) translate(4 99.25)">
<title>matrix_dot</title>
<!-- Node1 -->
<g id="Node000001" class="node">
<title>Node1</title>
<g id="a_Node000001"><a xlink:title="Function that finds the dot (.) product of 2 vectors.">
<polygon fill="#999999" stroke="#666666" points="443.5,-57.25 382.5,-57.25 382.5,-38 443.5,-38 443.5,-57.25"/>
<text text-anchor="middle" x="413" y="-43.75" font-family="Helvetica,sans-Serif" font-size="10.00">matrix_dot</text>
</a>
</g>
</g>
<!-- Node2 -->
<g id="Node000002" class="node">
<title>Node2</title>
<g id="a_Node000002"><a xlink:href="discriminant_8c.html#aec39a15e88725e65db99b439a7732f81" target="_top" xlink:title=" ">
<polygon fill="white" stroke="#666666" points="346.5,-95.25 278,-95.25 278,-76 346.5,-76 346.5,-95.25"/>
<text text-anchor="middle" x="312.25" y="-81.75" font-family="Helvetica,sans-Serif" font-size="10.00">discriminant</text>
</a>
</g>
</g>
<!-- Node1&#45;&gt;Node2 -->
<g id="edge1_Node000001_Node000002" class="edge">
<title>Node1&#45;&gt;Node2</title>
<g id="a_edge1_Node000001_Node000002"><a xlink:title=" ">
<path fill="none" stroke="#63b8ff" d="M375.2,-61.79C363.24,-66.39 350.23,-71.39 339.23,-75.63"/>
<polygon fill="#63b8ff" stroke="#63b8ff" points="376.31,-65.11 384.38,-58.25 373.79,-58.58 376.31,-65.11"/>
</a>
</g>
</g>
<!-- Node5 -->
<g id="Node000005" class="node">
<title>Node5</title>
<g id="a_Node000005"><a xlink:href="lighting_8c.html#ad035411c7e850248af38e7d68bb0ddd4" target="_top" xlink:title=" ">
<polygon fill="white" stroke="#666666" points="212.38,-38.25 165.62,-38.25 165.62,-19 212.38,-19 212.38,-38.25"/>
<text text-anchor="middle" x="189" y="-24.75" font-family="Helvetica,sans-Serif" font-size="10.00">lighting</text>
</a>
</g>
</g>
<!-- Node1&#45;&gt;Node5 -->
<g id="edge4_Node000001_Node000005" class="edge">
<title>Node1&#45;&gt;Node5</title>
<g id="a_edge4_Node000001_Node000005"><a xlink:title=" ">
<path fill="none" stroke="#63b8ff" d="M370.84,-44.1C324.23,-40.11 249.92,-33.75 212.75,-30.57"/>
<polygon fill="#63b8ff" stroke="#63b8ff" points="370.29,-47.57 380.55,-44.93 370.89,-40.59 370.29,-47.57"/>
</a>
</g>
</g>
<!-- Node6 -->
<g id="Node000006" class="node">
<title>Node6</title>
<g id="a_Node000006"><a xlink:href="reflect_8c.html#a9a14a2740fe14a6f96d7b3ef0cffeb61" target="_top" xlink:title=" ">
<polygon fill="white" stroke="#666666" points="333.38,-19.25 291.12,-19.25 291.12,0 333.38,0 333.38,-19.25"/>
<text text-anchor="middle" x="312.25" y="-5.75" font-family="Helvetica,sans-Serif" font-size="10.00">reflect</text>
</a>
</g>
</g>
<!-- Node1&#45;&gt;Node6 -->
<g id="edge5_Node000001_Node000006" class="edge">
<title>Node1&#45;&gt;Node6</title>
<g id="a_edge5_Node000001_Node000006"><a xlink:title=" ">
<path fill="none" stroke="#63b8ff" d="M375.38,-33.53C361.27,-28.1 345.66,-22.1 333.62,-17.47"/>
<polygon fill="#63b8ff" stroke="#63b8ff" points="373.79,-36.67 384.38,-37 376.31,-30.14 373.79,-36.67"/>
</a>
</g>
</g>
<!-- Node3 -->
<g id="Node000003" class="node">
<title>Node3</title>
<g id="a_Node000003"><a xlink:href="ray__intersect_8c.html#a20cc82316845ecb42e8e8c218ff72a73" target="_top" xlink:title=" ">
<polygon fill="white" stroke="#666666" points="242,-95.25 136,-95.25 136,-76 242,-76 242,-95.25"/>
<text text-anchor="middle" x="189" y="-81.75" font-family="Helvetica,sans-Serif" font-size="10.00">ray_intersect_sphere</text>
</a>
</g>
</g>
<!-- Node2&#45;&gt;Node3 -->
<g id="edge2_Node000002_Node000003" class="edge">
<title>Node2&#45;&gt;Node3</title>
<g id="a_edge2_Node000002_Node000003"><a xlink:title=" ">
<path fill="none" stroke="#63b8ff" d="M266.35,-85.62C258.56,-85.62 250.41,-85.62 242.45,-85.62"/>
<polygon fill="#63b8ff" stroke="#63b8ff" points="266.28,-89.13 276.28,-85.63 266.28,-82.13 266.28,-89.13"/>
</a>
</g>
</g>
<!-- Node4 -->
<g id="Node000004" class="node">
<title>Node4</title>
<g id="a_Node000004"><a xlink:href="ray__world__intersect_8c.html#a2e629895d43f70cc7814ef4b0c89cf0d" target="_top" xlink:title=" ">
<polygon fill="white" stroke="#666666" points="100,-95.25 0,-95.25 0,-76 100,-76 100,-95.25"/>
<text text-anchor="middle" x="50" y="-81.75" font-family="Helvetica,sans-Serif" font-size="10.00">ray_intersect_world</text>
</a>
</g>
</g>
<!-- Node3&#45;&gt;Node4 -->
<g id="edge3_Node000003_Node000004" class="edge">
<title>Node3&#45;&gt;Node4</title>
<g id="a_edge3_Node000003_Node000004"><a xlink:title=" ">
<path fill="none" stroke="#63b8ff" d="M124.47,-85.62C116.36,-85.62 108.17,-85.62 100.33,-85.62"/>
<polygon fill="#63b8ff" stroke="#63b8ff" points="124.3,-89.13 134.3,-85.63 124.3,-82.13 124.3,-89.13"/>
</a>
</g>
</g>
<!-- Node6&#45;&gt;Node5 -->
<g id="edge6_Node000006_Node000005" class="edge">
<title>Node6&#45;&gt;Node5</title>
<g id="a_edge6_Node000006_Node000005"><a xlink:title=" ">
<path fill="none" stroke="#63b8ff" d="M279.44,-14.61C258.49,-17.89 231.55,-22.11 212.74,-25.06"/>
<polygon fill="#63b8ff" stroke="#63b8ff" points="279.85,-18.09 289.19,-13.08 278.76,-11.17 279.85,-18.09"/>
</a>
</g>
</g>
</g>
</svg>
