<?xml version="1.0" encoding="UTF-8" standalone="no"?>
<!DOCTYPE svg PUBLIC "-//W3C//DTD SVG 1.1//EN"
 "http://www.w3.org/Graphics/SVG/1.1/DTD/svg11.dtd">
<!-- Generated by graphviz version 9.0.0 (20230911.1827)
 -->
<!-- Title: matrix_sum Pages: 1 -->
<svg width="376pt" height="64pt"
 viewBox="0.00 0.00 375.75 64.25" xmlns="http://www.w3.org/2000/svg" xmlns:xlink="http://www.w3.org/1999/xlink">
<g id="graph0" class="graph" transform="scale(1 1) rotate(0) translate(4 60.25)">
<title>matrix_sum</title>
<!-- Node1 -->
<g id="Node000001" class="node">
<title>Node1</title>
<g id="a_Node000001"><a xlink:title=" ">
<polygon fill="#999999" stroke="#666666" points="66.25,-37.25 0,-37.25 0,-18 66.25,-18 66.25,-37.25"/>
<text text-anchor="middle" x="33.12" y="-23.75" font-family="Helvetica,sans-Serif" font-size="10.00">matrix_sum</text>
</a>
</g>
</g>
<!-- Node2 -->
<g id="Node000002" class="node">
<title>Node2</title>
<g id="a_Node000002"><a xlink:href="matrix__create_8c.html#a5291384d37d735f9c3fc33c03d2788ad" target="_top" xlink:title=" ">
<polygon fill="white" stroke="#666666" points="176.75,-37.25 102.25,-37.25 102.25,-18 176.75,-18 176.75,-37.25"/>
<text text-anchor="middle" x="139.5" y="-23.75" font-family="Helvetica,sans-Serif" font-size="10.00">matrix_create</text>
</a>
</g>
</g>
<!-- Node1&#45;&gt;Node2 -->
<g id="edge1_Node000001_Node000002" class="edge">
<title>Node1&#45;&gt;Node2</title>
<g id="a_edge1_Node000001_Node000002"><a xlink:title=" ">
<path fill="none" stroke="#63b8ff" d="M66.58,-27.62C74.22,-27.62 82.53,-27.62 90.7,-27.62"/>
<polygon fill="#63b8ff" stroke="#63b8ff" points="90.55,-31.13 100.55,-27.63 90.55,-24.13 90.55,-31.13"/>
</a>
</g>
</g>
<!-- Node3 -->
<g id="Node000003" class="node">
<title>Node3</title>
<g id="a_Node000003"><a xlink:href="free__dptr_8c.html#aaa705b6d12fb1a9a15e6103879ec0ea0" target="_top" xlink:title=" ">
<polygon fill="white" stroke="#666666" points="274.12,-56.25 219.88,-56.25 219.88,-37 274.12,-37 274.12,-56.25"/>
<text text-anchor="middle" x="247" y="-42.75" font-family="Helvetica,sans-Serif" font-size="10.00">free_dptr</text>
</a>
</g>
</g>
<!-- Node2&#45;&gt;Node3 -->
<g id="edge2_Node000002_Node000003" class="edge">
<title>Node2&#45;&gt;Node3</title>
<g id="a_edge2_Node000002_Node000003"><a xlink:title=" ">
<path fill="none" stroke="#63b8ff" d="M177.1,-34.22C187.22,-36.04 198.22,-38.02 208.39,-39.85"/>
<polygon fill="#63b8ff" stroke="#63b8ff" points="207.49,-43.25 217.95,-41.57 208.73,-36.36 207.49,-43.25"/>
</a>
</g>
</g>
<!-- Node4 -->
<g id="Node000004" class="node">
<title>Node4</title>
<g id="a_Node000004"><a xlink:href="safe__malloc_8c.html#ab8bcda0e59b6f8eab1bfd9f92de50c6c" target="_top" xlink:title=" ">
<polygon fill="white" stroke="#666666" points="281.25,-19.25 212.75,-19.25 212.75,0 281.25,0 281.25,-19.25"/>
<text text-anchor="middle" x="247" y="-5.75" font-family="Helvetica,sans-Serif" font-size="10.00">safe_malloc</text>
</a>
</g>
</g>
<!-- Node2&#45;&gt;Node4 -->
<g id="edge3_Node000002_Node000004" class="edge">
<title>Node2&#45;&gt;Node4</title>
<g id="a_edge3_Node000002_Node000004"><a xlink:title=" ">
<path fill="none" stroke="#63b8ff" d="M177.1,-21.38C184.87,-20.05 193.15,-18.64 201.18,-17.27"/>
<polygon fill="#63b8ff" stroke="#63b8ff" points="201.53,-20.76 210.8,-15.63 200.35,-13.86 201.53,-20.76"/>
</a>
</g>
</g>
<!-- Node5 -->
<g id="Node000005" class="node">
<title>Node5</title>
<g id="a_Node000005"><a xlink:href="LIBFT_2ft__bzero_8c.html#a5937ab0d08e31d0e3e4a16ec71e293a1" target="_top" xlink:title=" ">
<polygon fill="white" stroke="#666666" points="367.75,-19.25 317.25,-19.25 317.25,0 367.75,0 367.75,-19.25"/>
<text text-anchor="middle" x="342.5" y="-5.75" font-family="Helvetica,sans-Serif" font-size="10.00">ft_bzero</text>
</a>
</g>
</g>
<!-- Node4&#45;&gt;Node5 -->
<g id="edge4_Node000004_Node000005" class="edge">
<title>Node4&#45;&gt;Node5</title>
<g id="a_edge4_Node000004_Node000005"><a xlink:title=" ">
<path fill="none" stroke="#63b8ff" d="M281.49,-9.62C289.38,-9.62 297.81,-9.62 305.79,-9.62"/>
<polygon fill="#63b8ff" stroke="#63b8ff" points="305.53,-13.13 315.53,-9.63 305.53,-6.13 305.53,-13.13"/>
</a>
</g>
</g>
</g>
</svg>
