<?xml version="1.0" encoding="UTF-8" standalone="no"?>
<!DOCTYPE svg PUBLIC "-//W3C//DTD SVG 1.1//EN"
 "http://www.w3.org/Graphics/SVG/1.1/DTD/svg11.dtd">
<!-- Generated by graphviz version 9.0.0 (20230911.1827)
 -->
<!-- Title: free_matrix Pages: 1 -->
<svg width="820pt" height="571pt"
 viewBox="0.00 0.00 819.75 571.25" xmlns="http://www.w3.org/2000/svg" xmlns:xlink="http://www.w3.org/1999/xlink">
<g id="graph0" class="graph" transform="scale(1 1) rotate(0) translate(4 567.25)">
<title>free_matrix</title>
<!-- Node1 -->
<g id="Node000001" class="node">
<title>Node1</title>
<g id="a_Node000001"><a xlink:title=" ">
<polygon fill="#999999" stroke="#666666" points="811.75,-263.25 747.75,-263.25 747.75,-244 811.75,-244 811.75,-263.25"/>
<text text-anchor="middle" x="779.75" y="-249.75" font-family="Helvetica,sans-Serif" font-size="10.00">free_matrix</text>
</a>
</g>
</g>
<!-- Node2 -->
<g id="Node000002" class="node">
<title>Node2</title>
<g id="a_Node000002"><a xlink:href="add__to__dptr_8c.html#a6bacbaa4fafa50abbd756839de2da8de" target="_top" xlink:title=" ">
<polygon fill="white" stroke="#666666" points="690.75,-508.25 629,-508.25 629,-489 690.75,-489 690.75,-508.25"/>
<text text-anchor="middle" x="659.88" y="-494.75" font-family="Helvetica,sans-Serif" font-size="10.00">add_to_ptr</text>
</a>
</g>
</g>
<!-- Node1&#45;&gt;Node2 -->
<g id="edge1_Node000001_Node000002" class="edge">
<title>Node1&#45;&gt;Node2</title>
<g id="a_edge1_Node000001_Node000002"><a xlink:title=" ">
<path fill="none" stroke="#63b8ff" d="M776.31,-274.94C770.83,-314.95 754.52,-402.57 711.75,-461.62 703.55,-472.95 690.83,-482.2 680.16,-488.62"/>
<polygon fill="#63b8ff" stroke="#63b8ff" points="779.76,-275.58 777.54,-265.22 772.81,-274.7 779.76,-275.58"/>
</a>
</g>
</g>
<!-- Node10 -->
<g id="Node000010" class="node">
<title>Node10</title>
<g id="a_Node000010"><a xlink:href="cleanup_8c.html#a4d0401c5d47d3fbe2f286eae7eea7e19" target="_top" xlink:title=" ">
<polygon fill="white" stroke="#666666" points="409,-394.25 339,-394.25 339,-375 409,-375 409,-394.25"/>
<text text-anchor="middle" x="374" y="-380.75" font-family="Helvetica,sans-Serif" font-size="10.00">exit_cleanup</text>
</a>
</g>
</g>
<!-- Node1&#45;&gt;Node10 -->
<g id="edge11_Node000001_Node000010" class="edge">
<title>Node1&#45;&gt;Node10</title>
<g id="a_edge11_Node000001_Node000010"><a xlink:title=" ">
<path fill="none" stroke="#63b8ff" d="M774.99,-274.54C768.28,-305.02 751.05,-360.72 711.75,-385.62 614.71,-447.12 468.24,-413.62 405.39,-394.73"/>
<polygon fill="#63b8ff" stroke="#63b8ff" points="778.37,-275.5 776.9,-265.01 771.5,-274.12 778.37,-275.5"/>
</a>
</g>
</g>
<!-- Node14 -->
<g id="Node000014" class="node">
<title>Node14</title>
<g id="a_Node000014"><a xlink:href="camera__free_8c.html#adb2d203dedf4bc91b4c2c6d81a4e2d09" target="_top" xlink:title=" ">
<polygon fill="white" stroke="#666666" points="694.88,-339.25 624.88,-339.25 624.88,-320 694.88,-320 694.88,-339.25"/>
<text text-anchor="middle" x="659.88" y="-325.75" font-family="Helvetica,sans-Serif" font-size="10.00">free_camera</text>
</a>
</g>
</g>
<!-- Node1&#45;&gt;Node14 -->
<g id="edge21_Node000001_Node000014" class="edge">
<title>Node1&#45;&gt;Node14</title>
<g id="a_edge21_Node000001_Node000014"><a xlink:title=" ">
<path fill="none" stroke="#63b8ff" d="M758.94,-270.87C746.02,-281.63 728.51,-295.34 711.75,-305.62 703.34,-310.78 693.65,-315.61 685,-319.56"/>
<polygon fill="#63b8ff" stroke="#63b8ff" points="760.94,-273.76 766.3,-264.63 756.41,-268.43 760.94,-273.76"/>
</a>
</g>
</g>
<!-- Node15 -->
<g id="Node000015" class="node">
<title>Node15</title>
<g id="a_Node000015"><a xlink:href="obj__free_8c.html#a9aa81c78fd96dfbf51e16b6fc0cc4eff" target="_top" xlink:title=" ">
<polygon fill="white" stroke="#666666" points="691.88,-452.25 627.88,-452.25 627.88,-433 691.88,-433 691.88,-452.25"/>
<text text-anchor="middle" x="659.88" y="-438.75" font-family="Helvetica,sans-Serif" font-size="10.00">free_object</text>
</a>
</g>
</g>
<!-- Node1&#45;&gt;Node15 -->
<g id="edge22_Node000001_Node000015" class="edge">
<title>Node1&#45;&gt;Node15</title>
<g id="a_edge22_Node000001_Node000015"><a xlink:title=" ">
<path fill="none" stroke="#63b8ff" d="M775.34,-274.44C768.76,-308.58 751.31,-376.83 711.75,-418.62 706.18,-424.51 698.87,-429.1 691.54,-432.62"/>
<polygon fill="#63b8ff" stroke="#63b8ff" points="778.71,-275.47 777.03,-265.01 771.82,-274.24 778.71,-275.47"/>
</a>
</g>
</g>
<!-- Node17 -->
<g id="Node000017" class="node">
<title>Node17</title>
<g id="a_Node000017"><a xlink:href="obj__free_8c.html#a17507d61054a4f286419903a51a478f8" target="_top" xlink:title=" ">
<polygon fill="white" stroke="#666666" points="694.5,-376.25 625.25,-376.25 625.25,-357 694.5,-357 694.5,-376.25"/>
<text text-anchor="middle" x="659.88" y="-362.75" font-family="Helvetica,sans-Serif" font-size="10.00">free_objects</text>
</a>
</g>
</g>
<!-- Node1&#45;&gt;Node17 -->
<g id="edge25_Node000001_Node000017" class="edge">
<title>Node1&#45;&gt;Node17</title>
<g id="a_edge25_Node000001_Node000017"><a xlink:title=" ">
<path fill="none" stroke="#63b8ff" d="M769.32,-273.7C758.32,-295.09 738.21,-328.58 711.75,-348.62 706.75,-352.42 700.88,-355.45 694.94,-357.88"/>
<polygon fill="#63b8ff" stroke="#63b8ff" points="772.41,-275.36 773.69,-264.84 766.13,-272.26 772.41,-275.36"/>
</a>
</g>
</g>
<!-- Node18 -->
<g id="Node000018" class="node">
<title>Node18</title>
<g id="a_Node000018"><a xlink:href="ray__free_8c.html#a9383ed085976d00ada942863da06de89" target="_top" xlink:title=" ">
<polygon fill="white" stroke="#666666" points="685.12,-263.25 634.62,-263.25 634.62,-244 685.12,-244 685.12,-263.25"/>
<text text-anchor="middle" x="659.88" y="-249.75" font-family="Helvetica,sans-Serif" font-size="10.00">free_ray</text>
</a>
</g>
</g>
<!-- Node1&#45;&gt;Node18 -->
<g id="edge27_Node000001_Node000018" class="edge">
<title>Node1&#45;&gt;Node18</title>
<g id="a_edge27_Node000001_Node000018"><a xlink:title=" ">
<path fill="none" stroke="#63b8ff" d="M736.11,-253.62C719.13,-253.62 700.2,-253.62 685.57,-253.62"/>
<polygon fill="#63b8ff" stroke="#63b8ff" points="735.96,-257.13 745.96,-253.63 735.96,-250.13 735.96,-257.13"/>
</a>
</g>
</g>
<!-- Node19 -->
<g id="Node000019" class="node">
<title>Node19</title>
<g id="a_Node000019"><a xlink:href="ray__intersect_8c.html#a20cc82316845ecb42e8e8c218ff72a73" target="_top" xlink:title=" ">
<polygon fill="white" stroke="#666666" points="572,-263.25 466,-263.25 466,-244 572,-244 572,-263.25"/>
<text text-anchor="middle" x="519" y="-249.75" font-family="Helvetica,sans-Serif" font-size="10.00">ray_intersect_sphere</text>
</a>
</g>
</g>
<!-- Node1&#45;&gt;Node19 -->
<g id="edge38_Node000001_Node000019" class="edge">
<title>Node1&#45;&gt;Node19</title>
<g id="a_edge38_Node000001_Node000019"><a xlink:title=" ">
<path fill="none" stroke="#63b8ff" d="M738.93,-266.86C730.08,-269.26 720.68,-271.38 711.75,-272.62 666.08,-278.98 653.85,-277.52 608,-272.62 591.53,-270.87 573.61,-267.31 558.26,-263.74"/>
<polygon fill="#63b8ff" stroke="#63b8ff" points="739.68,-270.29 748.32,-264.15 737.74,-263.56 739.68,-270.29"/>
</a>
</g>
</g>
<!-- Node21 -->
<g id="Node000021" class="node">
<title>Node21</title>
<g id="a_Node000021"><a xlink:href="sphere__free_8c.html#ac1f525d4000a7b4a6ef0388895487cd2" target="_top" xlink:title=" ">
<polygon fill="white" stroke="#666666" points="693.38,-150.25 626.38,-150.25 626.38,-131 693.38,-131 693.38,-150.25"/>
<text text-anchor="middle" x="659.88" y="-136.75" font-family="Helvetica,sans-Serif" font-size="10.00">free_sphere</text>
</a>
</g>
</g>
<!-- Node1&#45;&gt;Node21 -->
<g id="edge30_Node000001_Node000021" class="edge">
<title>Node1&#45;&gt;Node21</title>
<g id="a_edge30_Node000001_Node000021"><a xlink:title=" ">
<path fill="none" stroke="#63b8ff" d="M767.74,-233.82C756,-214.16 735.8,-184.2 711.75,-164.62 704.86,-159.02 696.44,-154.36 688.44,-150.69"/>
<polygon fill="#63b8ff" stroke="#63b8ff" points="764.58,-235.34 772.61,-242.24 770.64,-231.83 764.58,-235.34"/>
</a>
</g>
</g>
<!-- Node22 -->
<g id="Node000022" class="node">
<title>Node22</title>
<g id="a_Node000022"><a xlink:href="lighting_8c.html#ad035411c7e850248af38e7d68bb0ddd4" target="_top" xlink:title=" ">
<polygon fill="white" stroke="#666666" points="542.38,-93.25 495.62,-93.25 495.62,-74 542.38,-74 542.38,-93.25"/>
<text text-anchor="middle" x="519" y="-79.75" font-family="Helvetica,sans-Serif" font-size="10.00">lighting</text>
</a>
</g>
</g>
<!-- Node1&#45;&gt;Node22 -->
<g id="edge31_Node000001_Node000022" class="edge">
<title>Node1&#45;&gt;Node22</title>
<g id="a_edge31_Node000001_Node000022"><a xlink:title=" ">
<path fill="none" stroke="#63b8ff" d="M774.21,-232.71C766.64,-203.1 748.49,-149.46 711.75,-121.62 660.9,-83.1 581.32,-80.66 542.64,-82.09"/>
<polygon fill="#63b8ff" stroke="#63b8ff" points="770.77,-233.39 776.48,-242.31 777.59,-231.77 770.77,-233.39"/>
</a>
</g>
</g>
<!-- Node23 -->
<g id="Node000023" class="node">
<title>Node23</title>
<g id="a_Node000023"><a xlink:href="matrix__determinants_8c.html#a27e06277b887c9f90b2a00a60b0c81fe" target="_top" xlink:title=" ">
<polygon fill="white" stroke="#666666" points="711.75,-19.25 608,-19.25 608,0 711.75,0 711.75,-19.25"/>
<text text-anchor="middle" x="659.88" y="-5.75" font-family="Helvetica,sans-Serif" font-size="10.00">matrix_determinants</text>
</a>
</g>
</g>
<!-- Node1&#45;&gt;Node23 -->
<g id="edge32_Node000001_Node000023" class="edge">
<title>Node1&#45;&gt;Node23</title>
<g id="a_edge32_Node000001_Node000023"><a xlink:title=" ">
<path fill="none" stroke="#63b8ff" d="M776.38,-232.26C771.03,-192.16 754.9,-104.4 711.75,-45.62 703.75,-34.72 691.43,-25.88 680.92,-19.69"/>
<polygon fill="#63b8ff" stroke="#63b8ff" points="772.88,-232.5 777.58,-242 779.83,-231.65 772.88,-232.5"/>
</a>
</g>
</g>
<!-- Node24 -->
<g id="Node000024" class="node">
<title>Node24</title>
<g id="a_Node000024"><a xlink:href="matrix__inverse_8c.html#a38c4dbf43aa6a2d976c3f77297ecd403" target="_top" xlink:title=" ">
<polygon fill="white" stroke="#666666" points="699.38,-226.25 620.38,-226.25 620.38,-207 699.38,-207 699.38,-226.25"/>
<text text-anchor="middle" x="659.88" y="-212.75" font-family="Helvetica,sans-Serif" font-size="10.00">matrix_inverse</text>
</a>
</g>
</g>
<!-- Node1&#45;&gt;Node24 -->
<g id="edge34_Node000001_Node000024" class="edge">
<title>Node1&#45;&gt;Node24</title>
<g id="a_edge34_Node000001_Node000024"><a xlink:title=" ">
<path fill="none" stroke="#63b8ff" d="M736.83,-240.47C722.46,-235.96 706.61,-230.98 693.12,-226.75"/>
<polygon fill="#63b8ff" stroke="#63b8ff" points="735.44,-243.7 746.03,-243.35 737.53,-237.02 735.44,-243.7"/>
</a>
</g>
</g>
<!-- Node25 -->
<g id="Node000025" class="node">
<title>Node25</title>
<g id="a_Node000025"><a xlink:href="sphere__normal_8c.html#a7f90156067fc9db4452ca1b058c976e8" target="_top" xlink:title=" ">
<polygon fill="white" stroke="#666666" points="558.88,-207.25 479.12,-207.25 479.12,-188 558.88,-188 558.88,-207.25"/>
<text text-anchor="middle" x="519" y="-193.75" font-family="Helvetica,sans-Serif" font-size="10.00">sphere_normal</text>
</a>
</g>
</g>
<!-- Node1&#45;&gt;Node25 -->
<g id="edge41_Node000001_Node000025" class="edge">
<title>Node1&#45;&gt;Node25</title>
<g id="a_edge41_Node000001_Node000025"><a xlink:title=" ">
<path fill="none" stroke="#63b8ff" d="M763.44,-235.3C751.07,-222.01 732.36,-205.1 711.75,-197.62 661.52,-179.4 598.91,-184.03 559.18,-190.02"/>
<polygon fill="#63b8ff" stroke="#63b8ff" points="760.69,-237.47 769.94,-242.63 765.93,-232.82 760.69,-237.47"/>
</a>
</g>
</g>
<!-- Node27 -->
<g id="Node000027" class="node">
<title>Node27</title>
<g id="a_Node000027"><a xlink:href="reflect_8c.html#a9a14a2740fe14a6f96d7b3ef0cffeb61" target="_top" xlink:title=" ">
<polygon fill="white" stroke="#666666" points="681,-74.25 638.75,-74.25 638.75,-55 681,-55 681,-74.25"/>
<text text-anchor="middle" x="659.88" y="-60.75" font-family="Helvetica,sans-Serif" font-size="10.00">reflect</text>
</a>
</g>
</g>
<!-- Node1&#45;&gt;Node27 -->
<g id="edge39_Node000001_Node000027" class="edge">
<title>Node1&#45;&gt;Node27</title>
<g id="a_edge39_Node000001_Node000027"><a xlink:title=" ">
<path fill="none" stroke="#63b8ff" d="M775.34,-232.81C768.76,-198.67 751.31,-130.42 711.75,-88.62 703.56,-79.97 691.62,-74.12 681.37,-70.36"/>
<polygon fill="#63b8ff" stroke="#63b8ff" points="771.82,-233.01 777.03,-242.24 778.71,-231.78 771.82,-233.01"/>
</a>
</g>
</g>
<!-- Node3 -->
<g id="Node000003" class="node">
<title>Node3</title>
<g id="a_Node000003"><a xlink:href="parse__camera__light_8c.html#a0b2ac9083d47f8bf5eed5fbbb5576a19" target="_top" xlink:title=" ">
<polygon fill="white" stroke="#666666" points="558.88,-563.25 479.12,-563.25 479.12,-544 558.88,-544 558.88,-563.25"/>
<text text-anchor="middle" x="519" y="-549.75" font-family="Helvetica,sans-Serif" font-size="10.00">parse_ambient</text>
</a>
</g>
</g>
<!-- Node2&#45;&gt;Node3 -->
<g id="edge2_Node000002_Node000003" class="edge">
<title>Node2&#45;&gt;Node3</title>
<g id="a_edge2_Node000002_Node000003"><a xlink:title=" ">
<path fill="none" stroke="#63b8ff" d="M626.02,-513.26C609.85,-520.29 590.02,-528.68 572,-535.62 565.05,-538.31 557.5,-541.02 550.38,-543.51"/>
<polygon fill="#63b8ff" stroke="#63b8ff" points="627.41,-516.47 635.16,-509.25 624.6,-510.06 627.41,-516.47"/>
</a>
</g>
</g>
<!-- Node8 -->
<g id="Node000008" class="node">
<title>Node8</title>
<g id="a_Node000008"><a xlink:href="parse__camera__light_8c.html#a00b9b6a4aadecaaf341d2fc409582b39" target="_top" xlink:title=" ">
<polygon fill="white" stroke="#666666" points="557.75,-526.25 480.25,-526.25 480.25,-507 557.75,-507 557.75,-526.25"/>
<text text-anchor="middle" x="519" y="-512.75" font-family="Helvetica,sans-Serif" font-size="10.00">parse_camera</text>
</a>
</g>
</g>
<!-- Node2&#45;&gt;Node8 -->
<g id="edge7_Node000002_Node000008" class="edge">
<title>Node2&#45;&gt;Node8</title>
<g id="a_edge7_Node000002_Node000008"><a xlink:title=" ">
<path fill="none" stroke="#63b8ff" d="M617.49,-503.99C598.63,-506.43 576.46,-509.31 558.02,-511.7"/>
<polygon fill="#63b8ff" stroke="#63b8ff" points="617.77,-507.48 627.24,-502.73 616.87,-500.54 617.77,-507.48"/>
</a>
</g>
</g>
<!-- Node9 -->
<g id="Node000009" class="node">
<title>Node9</title>
<g id="a_Node000009"><a xlink:href="parse__camera__light_8c.html#aaa10205c0950a79dd43566074de7b0a0" target="_top" xlink:title=" ">
<polygon fill="white" stroke="#666666" points="550.62,-489.25 487.38,-489.25 487.38,-470 550.62,-470 550.62,-489.25"/>
<text text-anchor="middle" x="519" y="-475.75" font-family="Helvetica,sans-Serif" font-size="10.00">parse_light</text>
</a>
</g>
</g>
<!-- Node2&#45;&gt;Node9 -->
<g id="edge9_Node000002_Node000009" class="edge">
<title>Node2&#45;&gt;Node9</title>
<g id="a_edge9_Node000002_Node000009"><a xlink:title=" ">
<path fill="none" stroke="#63b8ff" d="M617.41,-492.95C596.12,-490.04 570.61,-486.55 551.04,-483.87"/>
<polygon fill="#63b8ff" stroke="#63b8ff" points="616.86,-496.41 627.24,-494.3 617.81,-489.47 616.86,-496.41"/>
</a>
</g>
</g>
<!-- Node4 -->
<g id="Node000004" class="node">
<title>Node4</title>
<g id="a_Node000004"><a xlink:href="parse__main_8c.html#a92aa268ea4b3d5c808364ca73d913cbe" target="_top" xlink:title=" ">
<polygon fill="white" stroke="#666666" points="418,-498.25 330,-498.25 330,-479 418,-479 418,-498.25"/>
<text text-anchor="middle" x="374" y="-484.75" font-family="Helvetica,sans-Serif" font-size="10.00">parse_func_redir</text>
</a>
</g>
</g>
<!-- Node3&#45;&gt;Node4 -->
<g id="edge3_Node000003_Node000004" class="edge">
<title>Node3&#45;&gt;Node4</title>
<g id="a_edge3_Node000003_Node000004"><a xlink:title=" ">
<path fill="none" stroke="#63b8ff" d="M475.89,-539.63C472.52,-538.33 469.19,-536.99 466,-535.62 439.69,-524.35 410.48,-508.66 392.42,-498.58"/>
<polygon fill="#63b8ff" stroke="#63b8ff" points="474.64,-542.9 485.23,-543.07 477.05,-536.33 474.64,-542.9"/>
</a>
</g>
</g>
<!-- Node5 -->
<g id="Node000005" class="node">
<title>Node5</title>
<g id="a_Node000005"><a xlink:href="parse__main_8c.html#a5d7da6ab7925ffda04b676ef38880723" target="_top" xlink:title="Reading a line from the given .rt file and splitting the given line with the space (&#39; &#39;) delimiter....">
<polygon fill="white" stroke="#666666" points="282,-498.25 186.5,-498.25 186.5,-479 282,-479 282,-498.25"/>
<text text-anchor="middle" x="234.25" y="-484.75" font-family="Helvetica,sans-Serif" font-size="10.00">parse_rt_read_line</text>
</a>
</g>
</g>
<!-- Node4&#45;&gt;Node5 -->
<g id="edge4_Node000004_Node000005" class="edge">
<title>Node4&#45;&gt;Node5</title>
<g id="a_edge4_Node000004_Node000005"><a xlink:title=" ">
<path fill="none" stroke="#63b8ff" d="M318.5,-488.62C306.47,-488.62 293.82,-488.62 282.13,-488.62"/>
<polygon fill="#63b8ff" stroke="#63b8ff" points="318.28,-492.13 328.28,-488.63 318.28,-485.13 318.28,-492.13"/>
</a>
</g>
</g>
<!-- Node6 -->
<g id="Node000006" class="node">
<title>Node6</title>
<g id="a_Node000006"><a xlink:href="parse__main_8c.html#a62c4de2f960942eba61e7de12c387ae4" target="_top" xlink:title="Entry function to parsing .rt file where the file is attempted to be opened, t_parse structure is ini...">
<polygon fill="white" stroke="#666666" points="150.5,-460.25 73,-460.25 73,-441 150.5,-441 150.5,-460.25"/>
<text text-anchor="middle" x="111.75" y="-446.75" font-family="Helvetica,sans-Serif" font-size="10.00">parse_rt_main</text>
</a>
</g>
</g>
<!-- Node5&#45;&gt;Node6 -->
<g id="edge5_Node000005_Node000006" class="edge">
<title>Node5&#45;&gt;Node6</title>
<g id="a_edge5_Node000005_Node000006"><a xlink:title=" ">
<path fill="none" stroke="#63b8ff" d="M190.57,-475.16C175.38,-470.38 158.56,-465.07 144.46,-460.62"/>
<polygon fill="#63b8ff" stroke="#63b8ff" points="189.24,-478.42 199.83,-478.09 191.35,-471.74 189.24,-478.42"/>
</a>
</g>
</g>
<!-- Node7 -->
<g id="Node000007" class="node">
<title>Node7</title>
<g id="a_Node000007"><a xlink:href="mini__ray_8c.html#a0c99d968a34e803d378692bde2e3f18f" target="_top" xlink:title=" ">
<polygon fill="white" stroke="#666666" points="37,-384.25 0,-384.25 0,-365 37,-365 37,-384.25"/>
<text text-anchor="middle" x="18.5" y="-370.75" font-family="Helvetica,sans-Serif" font-size="10.00">main</text>
</a>
</g>
</g>
<!-- Node6&#45;&gt;Node7 -->
<g id="edge6_Node000006_Node000007" class="edge">
<title>Node6&#45;&gt;Node7</title>
<g id="a_edge6_Node000006_Node000007"><a xlink:title=" ">
<path fill="none" stroke="#63b8ff" d="M83.73,-434.4C80.04,-431.92 76.37,-429.29 73,-426.62 56.13,-413.29 38.64,-395.39 28.43,-384.44"/>
<polygon fill="#63b8ff" stroke="#63b8ff" points="81.76,-437.3 92.06,-439.77 85.54,-431.41 81.76,-437.3"/>
</a>
</g>
</g>
<!-- Node8&#45;&gt;Node4 -->
<g id="edge8_Node000008_Node000004" class="edge">
<title>Node8&#45;&gt;Node4</title>
<g id="a_edge8_Node000008_Node000004"><a xlink:title=" ">
<path fill="none" stroke="#63b8ff" d="M469.02,-507.03C452.59,-503.82 434.41,-500.26 418.44,-497.13"/>
<polygon fill="#63b8ff" stroke="#63b8ff" points="468.08,-510.42 478.57,-508.9 469.43,-503.55 468.08,-510.42"/>
</a>
</g>
</g>
<!-- Node9&#45;&gt;Node4 -->
<g id="edge10_Node000009_Node000004" class="edge">
<title>Node9&#45;&gt;Node4</title>
<g id="a_edge10_Node000009_Node000004"><a xlink:title=" ">
<path fill="none" stroke="#63b8ff" d="M475.62,-482.29C457.59,-483.43 436.59,-484.75 418.44,-485.89"/>
<polygon fill="#63b8ff" stroke="#63b8ff" points="475.7,-485.79 485.46,-481.67 475.26,-478.81 475.7,-485.79"/>
</a>
</g>
</g>
<!-- Node10&#45;&gt;Node5 -->
<g id="edge20_Node000010_Node000005" class="edge">
<title>Node10&#45;&gt;Node5</title>
<g id="a_edge20_Node000010_Node000005"><a xlink:title=" ">
<path fill="none" stroke="#63b8ff" d="M355.61,-402.28C338.05,-419.51 309.64,-445.8 282,-464.62 274.31,-469.86 265.32,-474.74 257.3,-478.7"/>
<polygon fill="#63b8ff" stroke="#63b8ff" points="357.61,-405.22 362.23,-395.69 352.68,-400.26 357.61,-405.22"/>
</a>
</g>
</g>
<!-- Node10&#45;&gt;Node6 -->
<g id="edge19_Node000010_Node000006" class="edge">
<title>Node10&#45;&gt;Node6</title>
<g id="a_edge19_Node000010_Node000006"><a xlink:title=" ">
<path fill="none" stroke="#63b8ff" d="M345.34,-399.97C327.71,-409.08 304.11,-420.11 282,-426.62 238.02,-439.59 185.48,-445.65 150.73,-448.41"/>
<polygon fill="#63b8ff" stroke="#63b8ff" points="346.94,-403.08 354.14,-395.3 343.66,-396.89 346.94,-403.08"/>
</a>
</g>
</g>
<!-- Node10&#45;&gt;Node7 -->
<g id="edge18_Node000010_Node000007" class="edge">
<title>Node10&#45;&gt;Node7</title>
<g id="a_edge18_Node000010_Node000007"><a xlink:title=" ">
<path fill="none" stroke="#63b8ff" d="M327.66,-390C313.1,-391.48 296.89,-392.89 282,-393.62 189.2,-398.2 164.87,-402.51 73,-388.62 60.85,-386.79 47.47,-383.29 37.14,-380.25"/>
<polygon fill="#63b8ff" stroke="#63b8ff" points="327.84,-393.5 337.42,-388.96 327.1,-386.54 327.84,-393.5"/>
</a>
</g>
</g>
<!-- Node11 -->
<g id="Node000011" class="node">
<title>Node11</title>
<g id="a_Node000011"><a xlink:href="init__lux_8c.html#aa725d1fe6d2725add14a565bb5c1b995" target="_top" xlink:title=" ">
<polygon fill="white" stroke="#666666" points="257.25,-384.25 211.25,-384.25 211.25,-365 257.25,-365 257.25,-384.25"/>
<text text-anchor="middle" x="234.25" y="-370.75" font-family="Helvetica,sans-Serif" font-size="10.00">init_lux</text>
</a>
</g>
</g>
<!-- Node10&#45;&gt;Node11 -->
<g id="edge12_Node000010_Node000011" class="edge">
<title>Node10&#45;&gt;Node11</title>
<g id="a_edge12_Node000010_Node000011"><a xlink:title=" ">
<path fill="none" stroke="#63b8ff" d="M327.14,-381.3C303.75,-379.6 276.36,-377.61 257.6,-376.25"/>
<polygon fill="#63b8ff" stroke="#63b8ff" points="326.86,-384.78 337.09,-382.02 327.37,-377.8 326.86,-384.78"/>
</a>
</g>
</g>
<!-- Node12 -->
<g id="Node000012" class="node">
<title>Node12</title>
<g id="a_Node000012"><a xlink:href="init__mlx_8c.html#a1a6dc2f71f09a4fb49ab62f2e83ef424" target="_top" xlink:title=" ">
<polygon fill="white" stroke="#666666" points="136.25,-346.25 87.25,-346.25 87.25,-327 136.25,-327 136.25,-346.25"/>
<text text-anchor="middle" x="111.75" y="-332.75" font-family="Helvetica,sans-Serif" font-size="10.00">init_mlx</text>
</a>
</g>
</g>
<!-- Node10&#45;&gt;Node12 -->
<g id="edge14_Node000010_Node000012" class="edge">
<title>Node10&#45;&gt;Node12</title>
<g id="a_edge14_Node000010_Node000012"><a xlink:title=" ">
<path fill="none" stroke="#63b8ff" d="M335.59,-370.87C319.32,-365.37 299.92,-359.45 282,-355.62 230.82,-344.71 169.5,-339.8 136.53,-337.82"/>
<polygon fill="#63b8ff" stroke="#63b8ff" points="334.27,-374.12 344.87,-374.09 336.57,-367.51 334.27,-374.12"/>
</a>
</g>
</g>
<!-- Node13 -->
<g id="Node000013" class="node">
<title>Node13</title>
<g id="a_Node000013"><a xlink:href="input__validate_8c.html#a1497d4d5fc8fdfecbe3b36df53d2195f" target="_top" xlink:title="Validating if argument count is 2 (exe and 1 extra) and the extra is a .rt file and we have permissio...">
<polygon fill="white" stroke="#666666" points="149.75,-309.25 73.75,-309.25 73.75,-290 149.75,-290 149.75,-309.25"/>
<text text-anchor="middle" x="111.75" y="-295.75" font-family="Helvetica,sans-Serif" font-size="10.00">input_validate</text>
</a>
</g>
</g>
<!-- Node10&#45;&gt;Node13 -->
<g id="edge16_Node000010_Node000013" class="edge">
<title>Node10&#45;&gt;Node13</title>
<g id="a_edge16_Node000010_Node000013"><a xlink:title=" ">
<path fill="none" stroke="#63b8ff" d="M346.92,-368.87C329.15,-358.72 304.8,-345.92 282,-337.62 237.99,-321.62 185,-311.04 150.18,-305.2"/>
<polygon fill="#63b8ff" stroke="#63b8ff" points="345.1,-371.86 355.5,-373.88 348.62,-365.82 345.1,-371.86"/>
</a>
</g>
</g>
<!-- Node11&#45;&gt;Node7 -->
<g id="edge13_Node000011_Node000007" class="edge">
<title>Node11&#45;&gt;Node7</title>
<g id="a_edge13_Node000011_Node000007"><a xlink:title=" ">
<path fill="none" stroke="#63b8ff" d="M199.34,-374.62C153.4,-374.62 73.01,-374.62 37.38,-374.62"/>
<polygon fill="#63b8ff" stroke="#63b8ff" points="199.27,-378.13 209.27,-374.63 199.27,-371.13 199.27,-378.13"/>
</a>
</g>
</g>
<!-- Node12&#45;&gt;Node7 -->
<g id="edge15_Node000012_Node000007" class="edge">
<title>Node12&#45;&gt;Node7</title>
<g id="a_edge15_Node000012_Node000007"><a xlink:title=" ">
<path fill="none" stroke="#63b8ff" d="M76.46,-350.9C63.12,-356.46 48.4,-362.59 37.26,-367.23"/>
<polygon fill="#63b8ff" stroke="#63b8ff" points="77.49,-354.27 85.38,-347.19 74.8,-347.8 77.49,-354.27"/>
</a>
</g>
</g>
<!-- Node13&#45;&gt;Node7 -->
<g id="edge17_Node000013_Node000007" class="edge">
<title>Node13&#45;&gt;Node7</title>
<g id="a_edge17_Node000013_Node000007"><a xlink:title=" ">
<path fill="none" stroke="#63b8ff" d="M76.59,-315.17C75.35,-315.96 74.15,-316.78 73,-317.62 54.15,-331.4 36.48,-352.39 26.91,-364.69"/>
<polygon fill="#63b8ff" stroke="#63b8ff" points="78.14,-318.31 85.11,-310.32 74.68,-312.22 78.14,-318.31"/>
</a>
</g>
</g>
<!-- Node16 -->
<g id="Node000016" class="node">
<title>Node16</title>
<g id="a_Node000016"><a xlink:href="parse__objects_8c.html#a6ab66800bec24ca2d8c0f6c781558f65" target="_top" xlink:title=" ">
<polygon fill="white" stroke="#666666" points="556.25,-452.25 481.75,-452.25 481.75,-433 556.25,-433 556.25,-452.25"/>
<text text-anchor="middle" x="519" y="-438.75" font-family="Helvetica,sans-Serif" font-size="10.00">parse_sphere</text>
</a>
</g>
</g>
<!-- Node15&#45;&gt;Node16 -->
<g id="edge23_Node000015_Node000016" class="edge">
<title>Node15&#45;&gt;Node16</title>
<g id="a_edge23_Node000015_Node000016"><a xlink:title=" ">
<path fill="none" stroke="#63b8ff" d="M616.32,-442.62C597.27,-442.62 575.03,-442.62 556.72,-442.62"/>
<polygon fill="#63b8ff" stroke="#63b8ff" points="616.2,-446.13 626.2,-442.63 616.2,-439.13 616.2,-446.13"/>
</a>
</g>
</g>
<!-- Node16&#45;&gt;Node4 -->
<g id="edge24_Node000016_Node000004" class="edge">
<title>Node16&#45;&gt;Node4</title>
<g id="a_edge24_Node000016_Node000004"><a xlink:title=" ">
<path fill="none" stroke="#63b8ff" d="M475.78,-456.21C453.52,-463.37 426.69,-472 406.31,-478.55"/>
<polygon fill="#63b8ff" stroke="#63b8ff" points="476.73,-459.58 485.18,-453.18 474.59,-452.91 476.73,-459.58"/>
</a>
</g>
</g>
<!-- Node17&#45;&gt;Node10 -->
<g id="edge26_Node000017_Node000010" class="edge">
<title>Node17&#45;&gt;Node10</title>
<g id="a_edge26_Node000017_Node000010"><a xlink:title=" ">
<path fill="none" stroke="#63b8ff" d="M613.77,-369.49C556.98,-373.09 460.67,-379.19 409.44,-382.44"/>
<polygon fill="#63b8ff" stroke="#63b8ff" points="613.65,-373 623.4,-368.87 613.2,-366.01 613.65,-373"/>
</a>
</g>
</g>
<!-- Node18&#45;&gt;Node19 -->
<g id="edge28_Node000018_Node000019" class="edge">
<title>Node18&#45;&gt;Node19</title>
<g id="a_edge28_Node000018_Node000019"><a xlink:title=" ">
<path fill="none" stroke="#63b8ff" d="M623.21,-253.62C607.77,-253.62 589.39,-253.62 572.45,-253.62"/>
<polygon fill="#63b8ff" stroke="#63b8ff" points="622.85,-257.13 632.85,-253.63 622.85,-250.13 622.85,-257.13"/>
</a>
</g>
</g>
<!-- Node20 -->
<g id="Node000020" class="node">
<title>Node20</title>
<g id="a_Node000020"><a xlink:href="ray__world__intersect_8c.html#a2e629895d43f70cc7814ef4b0c89cf0d" target="_top" xlink:title=" ">
<polygon fill="white" stroke="#666666" points="424,-263.25 324,-263.25 324,-244 424,-244 424,-263.25"/>
<text text-anchor="middle" x="374" y="-249.75" font-family="Helvetica,sans-Serif" font-size="10.00">ray_intersect_world</text>
</a>
</g>
</g>
<!-- Node19&#45;&gt;Node20 -->
<g id="edge29_Node000019_Node000020" class="edge">
<title>Node19&#45;&gt;Node20</title>
<g id="a_edge29_Node000019_Node000020"><a xlink:title=" ">
<path fill="none" stroke="#63b8ff" d="M454.27,-253.62C444.15,-253.62 433.82,-253.62 424.1,-253.62"/>
<polygon fill="#63b8ff" stroke="#63b8ff" points="454.05,-257.13 464.05,-253.63 454.05,-250.13 454.05,-257.13"/>
</a>
</g>
</g>
<!-- Node23&#45;&gt;Node23 -->
<g id="edge33_Node000023_Node000023" class="edge">
<title>Node23&#45;&gt;Node23</title>
<g id="a_edge33_Node000023_Node000023"><a xlink:title=" ">
<path fill="none" stroke="#63b8ff" d="M681.15,-30.65C678.49,-34.53 671.4,-37.25 659.88,-37.25 638.8,-37.25 632.55,-28.15 641.11,-19.54"/>
<polygon fill="#63b8ff" stroke="#63b8ff" points="684.59,-30 678.98,-21.01 677.77,-31.54 684.59,-30"/>
</a>
</g>
</g>
<!-- Node24&#45;&gt;Node19 -->
<g id="edge35_Node000024_Node000019" class="edge">
<title>Node24&#45;&gt;Node19</title>
<g id="a_edge35_Node000024_Node000019"><a xlink:title=" ">
<path fill="none" stroke="#63b8ff" d="M610,-229.65C592.9,-234.2 573.97,-239.25 557.9,-243.53"/>
<polygon fill="#63b8ff" stroke="#63b8ff" points="610.7,-233.08 619.46,-227.13 608.9,-226.32 610.7,-233.08"/>
</a>
</g>
</g>
<!-- Node24&#45;&gt;Node25 -->
<g id="edge36_Node000024_Node000025" class="edge">
<title>Node24&#45;&gt;Node25</title>
<g id="a_edge36_Node000024_Node000025"><a xlink:title=" ">
<path fill="none" stroke="#63b8ff" d="M609.09,-209.81C592.6,-207.56 574.51,-205.08 558.96,-202.96"/>
<polygon fill="#63b8ff" stroke="#63b8ff" points="608.31,-213.24 618.69,-211.13 609.26,-206.3 608.31,-213.24"/>
</a>
</g>
</g>
<!-- Node26 -->
<g id="Node000026" class="node">
<title>Node26</title>
<g id="a_Node000026"><a xlink:href="prepare__computations_8c.html#a260bb84a41e41fe52951d598804fb2fe" target="_top" xlink:title=" ">
<polygon fill="white" stroke="#666666" points="430,-207.25 318,-207.25 318,-188 430,-188 430,-207.25"/>
<text text-anchor="middle" x="374" y="-193.75" font-family="Helvetica,sans-Serif" font-size="10.00">prepare_computations</text>
</a>
</g>
</g>
<!-- Node25&#45;&gt;Node26 -->
<g id="edge37_Node000025_Node000026" class="edge">
<title>Node25&#45;&gt;Node26</title>
<g id="a_edge37_Node000025_Node000026"><a xlink:title=" ">
<path fill="none" stroke="#63b8ff" d="M467.68,-197.62C455.61,-197.62 442.66,-197.62 430.38,-197.62"/>
<polygon fill="#63b8ff" stroke="#63b8ff" points="467.41,-201.13 477.41,-197.63 467.41,-194.13 467.41,-201.13"/>
</a>
</g>
</g>
<!-- Node27&#45;&gt;Node22 -->
<g id="edge40_Node000027_Node000022" class="edge">
<title>Node27&#45;&gt;Node22</title>
<g id="a_edge40_Node000027_Node000022"><a xlink:title=" ">
<path fill="none" stroke="#63b8ff" d="M627.29,-68.95C601.4,-72.49 565.42,-77.41 542.42,-80.56"/>
<polygon fill="#63b8ff" stroke="#63b8ff" points="627.45,-72.46 636.88,-67.63 626.5,-65.52 627.45,-72.46"/>
</a>
</g>
</g>
</g>
</svg>
