<?xml version="1.0" encoding="UTF-8" standalone="no"?>
<!DOCTYPE svg PUBLIC "-//W3C//DTD SVG 1.1//EN"
 "http://www.w3.org/Graphics/SVG/1.1/DTD/svg11.dtd">
<!-- Generated by graphviz version 9.0.0 (20230911.1827)
 -->
<!-- Title: /github/workspace/SRC/BASE/MATRICES/matrix_multiple.c Pages: 1 -->
<svg width="356pt" height="216pt"
 viewBox="0.00 0.00 356.29 215.50" xmlns="http://www.w3.org/2000/svg" xmlns:xlink="http://www.w3.org/1999/xlink">
<g id="graph0" class="graph" transform="scale(1 1) rotate(0) translate(4 211.5)">
<title>/github/workspace/SRC/BASE/MATRICES/matrix_multiple.c</title>
<!-- Node1 -->
<g id="Node000001" class="node">
<title>Node1</title>
<g id="a_Node000001"><a xlink:title=" ">
<polygon fill="#999999" stroke="#666666" points="242.79,-207.5 115.04,-207.5 115.04,-165.75 242.79,-165.75 242.79,-207.5"/>
<text text-anchor="start" x="123.04" y="-194" font-family="Helvetica,sans-Serif" font-size="10.00">/github/workspace/SRC</text>
<text text-anchor="start" x="123.04" y="-182.75" font-family="Helvetica,sans-Serif" font-size="10.00">/BASE/MATRICES/matrix</text>
<text text-anchor="middle" x="178.91" y="-171.5" font-family="Helvetica,sans-Serif" font-size="10.00">_multiple.c</text>
</a>
</g>
</g>
<!-- Node2 -->
<g id="Node000002" class="node">
<title>Node2</title>
<g id="a_Node000002"><a xlink:href="muk__lib_8h.html" target="_top" xlink:title=" ">
<polygon fill="white" stroke="#666666" points="162.54,-129.75 105.29,-129.75 105.29,-110.5 162.54,-110.5 162.54,-129.75"/>
<text text-anchor="middle" x="133.91" y="-116.25" font-family="Helvetica,sans-Serif" font-size="10.00">muk_lib.h</text>
</a>
</g>
</g>
<!-- Node1&#45;&gt;Node2 -->
<g id="edge1_Node000001_Node000002" class="edge">
<title>Node1&#45;&gt;Node2</title>
<g id="a_edge1_Node000001_Node000002"><a xlink:title=" ">
<path fill="none" stroke="#63b8ff" d="M164.92,-165.57C159.11,-157.25 152.42,-147.66 146.74,-139.52"/>
<polygon fill="#63b8ff" stroke="#63b8ff" points="149.7,-137.64 141.1,-131.44 143.96,-141.64 149.7,-137.64"/>
</a>
</g>
</g>
<!-- Node8 -->
<g id="Node000008" class="node">
<title>Node8</title>
<g id="a_Node000008"><a xlink:href="base__matrices_8h.html" target="_top" xlink:title=" ">
<polygon fill="white" stroke="#666666" points="300.54,-129.75 213.29,-129.75 213.29,-110.5 300.54,-110.5 300.54,-129.75"/>
<text text-anchor="middle" x="256.91" y="-116.25" font-family="Helvetica,sans-Serif" font-size="10.00">base_matrices.h</text>
</a>
</g>
</g>
<!-- Node1&#45;&gt;Node8 -->
<g id="edge7_Node000001_Node000008" class="edge">
<title>Node1&#45;&gt;Node8</title>
<g id="a_edge7_Node000001_Node000008"><a xlink:title=" ">
<path fill="none" stroke="#63b8ff" d="M203.16,-165.57C214.12,-156.51 226.9,-145.94 237.24,-137.39"/>
<polygon fill="#63b8ff" stroke="#63b8ff" points="239.3,-140.23 244.78,-131.16 234.84,-134.84 239.3,-140.23"/>
</a>
</g>
</g>
<!-- Node3 -->
<g id="Node000003" class="node">
<title>Node3</title>
<g id="a_Node000003"><a xlink:title=" ">
<polygon fill="#e0e0e0" stroke="#999999" points="127.29,-19.25 80.54,-19.25 80.54,0 127.29,0 127.29,-19.25"/>
<text text-anchor="middle" x="103.91" y="-5.75" font-family="Helvetica,sans-Serif" font-size="10.00">stdlib.h</text>
</a>
</g>
</g>
<!-- Node2&#45;&gt;Node3 -->
<g id="edge2_Node000002_Node000003" class="edge">
<title>Node2&#45;&gt;Node3</title>
<g id="a_edge2_Node000002_Node000003"><a xlink:title=" ">
<path fill="none" stroke="#63b8ff" d="M104.92,-118.27C74.34,-115.62 27.53,-106.25 4.91,-74.5 -14.9,-46.69 33.22,-27.99 69.11,-18.34"/>
<polygon fill="#63b8ff" stroke="#63b8ff" points="69.92,-21.74 78.76,-15.9 68.2,-14.96 69.92,-21.74"/>
</a>
</g>
</g>
<!-- Node4 -->
<g id="Node000004" class="node">
<title>Node4</title>
<g id="a_Node000004"><a xlink:title=" ">
<polygon fill="#e0e0e0" stroke="#999999" points="63.79,-74.5 14.04,-74.5 14.04,-55.25 63.79,-55.25 63.79,-74.5"/>
<text text-anchor="middle" x="38.91" y="-61" font-family="Helvetica,sans-Serif" font-size="10.00">unistd.h</text>
</a>
</g>
</g>
<!-- Node2&#45;&gt;Node4 -->
<g id="edge3_Node000002_Node000004" class="edge">
<title>Node2&#45;&gt;Node4</title>
<g id="a_edge3_Node000002_Node000004"><a xlink:title=" ">
<path fill="none" stroke="#63b8ff" d="M117.79,-110.09C103.33,-101.98 81.83,-89.93 64.93,-80.46"/>
<polygon fill="#63b8ff" stroke="#63b8ff" points="66.86,-77.53 56.43,-75.69 63.44,-83.64 66.86,-77.53"/>
</a>
</g>
</g>
<!-- Node5 -->
<g id="Node000005" class="node">
<title>Node5</title>
<g id="a_Node000005"><a xlink:title=" ">
<polygon fill="#e0e0e0" stroke="#999999" points="126.16,-74.5 81.66,-74.5 81.66,-55.25 126.16,-55.25 126.16,-74.5"/>
<text text-anchor="middle" x="103.91" y="-61" font-family="Helvetica,sans-Serif" font-size="10.00">stdio.h</text>
</a>
</g>
</g>
<!-- Node2&#45;&gt;Node5 -->
<g id="edge4_Node000002_Node000005" class="edge">
<title>Node2&#45;&gt;Node5</title>
<g id="a_edge4_Node000002_Node000005"><a xlink:title=" ">
<path fill="none" stroke="#63b8ff" d="M128.96,-110.33C125.03,-103.36 119.4,-93.37 114.47,-84.62"/>
<polygon fill="#63b8ff" stroke="#63b8ff" points="117.67,-83.17 109.71,-76.18 111.57,-86.61 117.67,-83.17"/>
</a>
</g>
</g>
<!-- Node6 -->
<g id="Node000006" class="node">
<title>Node6</title>
<g id="a_Node000006"><a xlink:title=" ">
<polygon fill="#e0e0e0" stroke="#999999" points="186.04,-74.5 143.79,-74.5 143.79,-55.25 186.04,-55.25 186.04,-74.5"/>
<text text-anchor="middle" x="164.91" y="-61" font-family="Helvetica,sans-Serif" font-size="10.00">fcntl.h</text>
</a>
</g>
</g>
<!-- Node2&#45;&gt;Node6 -->
<g id="edge5_Node000002_Node000006" class="edge">
<title>Node2&#45;&gt;Node6</title>
<g id="a_edge5_Node000002_Node000006"><a xlink:title=" ">
<path fill="none" stroke="#63b8ff" d="M139.03,-110.33C143.09,-103.36 148.91,-93.37 154,-84.62"/>
<polygon fill="#63b8ff" stroke="#63b8ff" points="156.91,-86.57 158.92,-76.17 150.86,-83.05 156.91,-86.57"/>
</a>
</g>
</g>
<!-- Node7 -->
<g id="Node000007" class="node">
<title>Node7</title>
<g id="a_Node000007"><a xlink:title=" ">
<polygon fill="#e0e0e0" stroke="#999999" points="249.54,-74.5 204.29,-74.5 204.29,-55.25 249.54,-55.25 249.54,-74.5"/>
<text text-anchor="middle" x="226.91" y="-61" font-family="Helvetica,sans-Serif" font-size="10.00">math.h</text>
</a>
</g>
</g>
<!-- Node2&#45;&gt;Node7 -->
<g id="edge6_Node000002_Node000007" class="edge">
<title>Node2&#45;&gt;Node7</title>
<g id="a_edge6_Node000002_Node000007"><a xlink:title=" ">
<path fill="none" stroke="#63b8ff" d="M149.69,-110.09C163.85,-101.98 184.89,-89.93 201.44,-80.46"/>
<polygon fill="#63b8ff" stroke="#63b8ff" points="202.8,-83.71 209.74,-75.7 199.33,-77.64 202.8,-83.71"/>
</a>
</g>
</g>
<!-- Node9 -->
<g id="Node000009" class="node">
<title>Node9</title>
<g id="a_Node000009"><a xlink:href="types_8h.html" target="_top" xlink:title=" ">
<polygon fill="white" stroke="#666666" points="314.29,-74.5 267.54,-74.5 267.54,-55.25 314.29,-55.25 314.29,-74.5"/>
<text text-anchor="middle" x="290.91" y="-61" font-family="Helvetica,sans-Serif" font-size="10.00">types.h</text>
</a>
</g>
</g>
<!-- Node8&#45;&gt;Node9 -->
<g id="edge8_Node000008_Node000009" class="edge">
<title>Node8&#45;&gt;Node9</title>
<g id="a_edge8_Node000008_Node000009"><a xlink:title=" ">
<path fill="none" stroke="#63b8ff" d="M262.52,-110.33C267.03,-103.28 273.5,-93.15 279.12,-84.33"/>
<polygon fill="#63b8ff" stroke="#63b8ff" points="281.93,-86.45 284.36,-76.13 276.03,-82.68 281.93,-86.45"/>
</a>
</g>
</g>
<!-- Node9&#45;&gt;Node3 -->
<g id="edge10_Node000009_Node000003" class="edge">
<title>Node9&#45;&gt;Node3</title>
<g id="a_edge10_Node000009_Node000003"><a xlink:title=" ">
<path fill="none" stroke="#63b8ff" d="M267.23,-57.13C234.72,-47.87 176.05,-31.17 138.59,-20.5"/>
<polygon fill="#63b8ff" stroke="#63b8ff" points="139.73,-17.19 129.15,-17.81 137.81,-23.92 139.73,-17.19"/>
</a>
</g>
</g>
<!-- Node10 -->
<g id="Node000010" class="node">
<title>Node10</title>
<g id="a_Node000010"><a xlink:title=" ">
<polygon fill="#e0e0e0" stroke="#999999" points="283.41,-19.25 228.41,-19.25 228.41,0 283.41,0 283.41,-19.25"/>
<text text-anchor="middle" x="255.91" y="-5.75" font-family="Helvetica,sans-Serif" font-size="10.00">stdbool.h</text>
</a>
</g>
</g>
<!-- Node9&#45;&gt;Node10 -->
<g id="edge9_Node000009_Node000010" class="edge">
<title>Node9&#45;&gt;Node10</title>
<g id="a_edge9_Node000009_Node000010"><a xlink:title=" ">
<path fill="none" stroke="#63b8ff" d="M285.13,-55.08C280.5,-48.03 273.84,-37.9 268.04,-29.08"/>
<polygon fill="#63b8ff" stroke="#63b8ff" points="271.06,-27.31 262.65,-20.87 265.21,-31.15 271.06,-27.31"/>
</a>
</g>
</g>
<!-- Node11 -->
<g id="Node000011" class="node">
<title>Node11</title>
<g id="a_Node000011"><a xlink:title=" ">
<polygon fill="#e0e0e0" stroke="#999999" points="348.29,-19.25 301.54,-19.25 301.54,0 348.29,0 348.29,-19.25"/>
<text text-anchor="middle" x="324.91" y="-5.75" font-family="Helvetica,sans-Serif" font-size="10.00">limits.h</text>
</a>
</g>
</g>
<!-- Node9&#45;&gt;Node11 -->
<g id="edge11_Node000009_Node000011" class="edge">
<title>Node9&#45;&gt;Node11</title>
<g id="a_edge11_Node000009_Node000011"><a xlink:title=" ">
<path fill="none" stroke="#63b8ff" d="M296.52,-55.08C301.03,-48.03 307.5,-37.9 313.12,-29.08"/>
<polygon fill="#63b8ff" stroke="#63b8ff" points="315.93,-31.2 318.36,-20.88 310.03,-27.43 315.93,-31.2"/>
</a>
</g>
</g>
</g>
</svg>
