<?xml version="1.0" encoding="UTF-8" standalone="no"?>
<!DOCTYPE svg PUBLIC "-//W3C//DTD SVG 1.1//EN"
 "http://www.w3.org/Graphics/SVG/1.1/DTD/svg11.dtd">
<!-- Generated by graphviz version 9.0.0 (20230911.1827)
 -->
<!-- Title: create_point Pages: 1 -->
<svg width="379pt" height="64pt"
 viewBox="0.00 0.00 378.75 64.25" xmlns="http://www.w3.org/2000/svg" xmlns:xlink="http://www.w3.org/1999/xlink">
<g id="graph0" class="graph" transform="scale(1 1) rotate(0) translate(4 60.25)">
<title>create_point</title>
<!-- Node1 -->
<g id="Node000001" class="node">
<title>Node1</title>
<g id="a_Node000001"><a xlink:title="This function creates a point in 3D space.">
<polygon fill="#999999" stroke="#666666" points="69.25,-37.25 0,-37.25 0,-18 69.25,-18 69.25,-37.25"/>
<text text-anchor="middle" x="34.62" y="-23.75" font-family="Helvetica,sans-Serif" font-size="10.00">create_point</text>
</a>
</g>
</g>
<!-- Node2 -->
<g id="Node000002" class="node">
<title>Node2</title>
<g id="a_Node000002"><a xlink:href="matrix__create_8c.html#a5291384d37d735f9c3fc33c03d2788ad" target="_top" xlink:title=" ">
<polygon fill="white" stroke="#666666" points="179.75,-37.25 105.25,-37.25 105.25,-18 179.75,-18 179.75,-37.25"/>
<text text-anchor="middle" x="142.5" y="-23.75" font-family="Helvetica,sans-Serif" font-size="10.00">matrix_create</text>
</a>
</g>
</g>
<!-- Node1&#45;&gt;Node2 -->
<g id="edge1_Node000001_Node000002" class="edge">
<title>Node1&#45;&gt;Node2</title>
<g id="a_edge1_Node000001_Node000002"><a xlink:title=" ">
<path fill="none" stroke="#63b8ff" d="M69.71,-27.62C77.35,-27.62 85.59,-27.62 93.68,-27.62"/>
<polygon fill="#63b8ff" stroke="#63b8ff" points="93.41,-31.13 103.41,-27.63 93.41,-24.13 93.41,-31.13"/>
</a>
</g>
</g>
<!-- Node3 -->
<g id="Node000003" class="node">
<title>Node3</title>
<g id="a_Node000003"><a xlink:href="free__dptr_8c.html#aaa705b6d12fb1a9a15e6103879ec0ea0" target="_top" xlink:title=" ">
<polygon fill="white" stroke="#666666" points="277.12,-56.25 222.88,-56.25 222.88,-37 277.12,-37 277.12,-56.25"/>
<text text-anchor="middle" x="250" y="-42.75" font-family="Helvetica,sans-Serif" font-size="10.00">free_dptr</text>
</a>
</g>
</g>
<!-- Node2&#45;&gt;Node3 -->
<g id="edge2_Node000002_Node000003" class="edge">
<title>Node2&#45;&gt;Node3</title>
<g id="a_edge2_Node000002_Node000003"><a xlink:title=" ">
<path fill="none" stroke="#63b8ff" d="M180.1,-34.22C190.22,-36.04 201.22,-38.02 211.39,-39.85"/>
<polygon fill="#63b8ff" stroke="#63b8ff" points="210.49,-43.25 220.95,-41.57 211.73,-36.36 210.49,-43.25"/>
</a>
</g>
</g>
<!-- Node4 -->
<g id="Node000004" class="node">
<title>Node4</title>
<g id="a_Node000004"><a xlink:href="safe__malloc_8c.html#ab8bcda0e59b6f8eab1bfd9f92de50c6c" target="_top" xlink:title=" ">
<polygon fill="white" stroke="#666666" points="284.25,-19.25 215.75,-19.25 215.75,0 284.25,0 284.25,-19.25"/>
<text text-anchor="middle" x="250" y="-5.75" font-family="Helvetica,sans-Serif" font-size="10.00">safe_malloc</text>
</a>
</g>
</g>
<!-- Node2&#45;&gt;Node4 -->
<g id="edge3_Node000002_Node000004" class="edge">
<title>Node2&#45;&gt;Node4</title>
<g id="a_edge3_Node000002_Node000004"><a xlink:title=" ">
<path fill="none" stroke="#63b8ff" d="M180.1,-21.38C187.87,-20.05 196.15,-18.64 204.18,-17.27"/>
<polygon fill="#63b8ff" stroke="#63b8ff" points="204.53,-20.76 213.8,-15.63 203.35,-13.86 204.53,-20.76"/>
</a>
</g>
</g>
<!-- Node5 -->
<g id="Node000005" class="node">
<title>Node5</title>
<g id="a_Node000005"><a xlink:href="LIBFT_2ft__bzero_8c.html#a5937ab0d08e31d0e3e4a16ec71e293a1" target="_top" xlink:title=" ">
<polygon fill="white" stroke="#666666" points="370.75,-19.25 320.25,-19.25 320.25,0 370.75,0 370.75,-19.25"/>
<text text-anchor="middle" x="345.5" y="-5.75" font-family="Helvetica,sans-Serif" font-size="10.00">ft_bzero</text>
</a>
</g>
</g>
<!-- Node4&#45;&gt;Node5 -->
<g id="edge4_Node000004_Node000005" class="edge">
<title>Node4&#45;&gt;Node5</title>
<g id="a_edge4_Node000004_Node000005"><a xlink:title=" ">
<path fill="none" stroke="#63b8ff" d="M284.49,-9.62C292.38,-9.62 300.81,-9.62 308.79,-9.62"/>
<polygon fill="#63b8ff" stroke="#63b8ff" points="308.53,-13.13 318.53,-9.63 308.53,-6.13 308.53,-13.13"/>
</a>
</g>
</g>
</g>
</svg>
