<?xml version="1.0" encoding="UTF-8" standalone="no"?>
<!DOCTYPE svg PUBLIC "-//W3C//DTD SVG 1.1//EN"
 "http://www.w3.org/Graphics/SVG/1.1/DTD/svg11.dtd">
<!-- Generated by graphviz version 9.0.0 (20230911.1827)
 -->
<!-- Title: matrix_identity Pages: 1 -->
<svg width="505pt" height="267pt"
 viewBox="0.00 0.00 504.75 267.25" xmlns="http://www.w3.org/2000/svg" xmlns:xlink="http://www.w3.org/1999/xlink">
<g id="graph0" class="graph" transform="scale(1 1) rotate(0) translate(4 263.25)">
<title>matrix_identity</title>
<!-- Node1 -->
<g id="Node000001" class="node">
<title>Node1</title>
<g id="a_Node000001"><a xlink:title="Function that creates an identity matrix of size n 1 0 0 0 0 1 0 0 0 0 1 0 0 0 0 1.">
<polygon fill="#999999" stroke="#666666" points="496.75,-130.25 418.5,-130.25 418.5,-111 496.75,-111 496.75,-130.25"/>
<text text-anchor="middle" x="457.62" y="-116.75" font-family="Helvetica,sans-Serif" font-size="10.00">matrix_identity</text>
</a>
</g>
</g>
<!-- Node2 -->
<g id="Node000002" class="node">
<title>Node2</title>
<g id="a_Node000002"><a xlink:href="matrix__inverse_8c.html#a38c4dbf43aa6a2d976c3f77297ecd403" target="_top" xlink:title=" ">
<polygon fill="white" stroke="#666666" points="375.75,-241.25 296.75,-241.25 296.75,-222 375.75,-222 375.75,-241.25"/>
<text text-anchor="middle" x="336.25" y="-227.75" font-family="Helvetica,sans-Serif" font-size="10.00">matrix_inverse</text>
</a>
</g>
</g>
<!-- Node1&#45;&gt;Node2 -->
<g id="edge1_Node000001_Node000002" class="edge">
<title>Node1&#45;&gt;Node2</title>
<g id="a_edge1_Node000001_Node000002"><a xlink:title=" ">
<path fill="none" stroke="#63b8ff" d="M445.21,-140.4C432.33,-161.16 409.61,-193.51 382.5,-213.62 378.29,-216.75 373.47,-219.41 368.57,-221.66"/>
<polygon fill="#63b8ff" stroke="#63b8ff" points="448.09,-142.4 450.23,-132.03 442.08,-138.8 448.09,-142.4"/>
</a>
</g>
</g>
<!-- Node7 -->
<g id="Node000007" class="node">
<title>Node7</title>
<g id="a_Node000007"><a xlink:href="scale_8c.html#a48fd6dec69f122197f7c6b5967c1319c" target="_top" xlink:title=" ">
<polygon fill="white" stroke="#666666" points="375.38,-204.25 297.12,-204.25 297.12,-185 375.38,-185 375.38,-204.25"/>
<text text-anchor="middle" x="336.25" y="-190.75" font-family="Helvetica,sans-Serif" font-size="10.00">object_scaling</text>
</a>
</g>
</g>
<!-- Node1&#45;&gt;Node7 -->
<g id="edge6_Node000001_Node000007" class="edge">
<title>Node1&#45;&gt;Node7</title>
<g id="a_edge6_Node000001_Node000007"><a xlink:title=" ">
<path fill="none" stroke="#63b8ff" d="M437.21,-137.6C422.82,-149.59 402.33,-165.46 382.5,-176.62 377.34,-179.53 371.62,-182.19 366.03,-184.52"/>
<polygon fill="#63b8ff" stroke="#63b8ff" points="439.22,-140.48 444.57,-131.34 434.69,-135.15 439.22,-140.48"/>
</a>
</g>
</g>
<!-- Node8 -->
<g id="Node000008" class="node">
<title>Node8</title>
<g id="a_Node000008"><a xlink:href="translate_8c.html#a520d09bd7d70f7e5ab59d81bbb7468d9" target="_top" xlink:title=" ">
<polygon fill="white" stroke="#666666" points="382.5,-167.25 290,-167.25 290,-148 382.5,-148 382.5,-167.25"/>
<text text-anchor="middle" x="336.25" y="-153.75" font-family="Helvetica,sans-Serif" font-size="10.00">object_translation</text>
</a>
</g>
</g>
<!-- Node1&#45;&gt;Node8 -->
<g id="edge7_Node000001_Node000008" class="edge">
<title>Node1&#45;&gt;Node8</title>
<g id="a_edge7_Node000001_Node000008"><a xlink:title=" ">
<path fill="none" stroke="#63b8ff" d="M413.35,-134.04C398.99,-138.49 383.25,-143.37 369.83,-147.53"/>
<polygon fill="#63b8ff" stroke="#63b8ff" points="414.04,-137.49 422.56,-131.18 411.97,-130.8 414.04,-137.49"/>
</a>
</g>
</g>
<!-- Node9 -->
<g id="Node000009" class="node">
<title>Node9</title>
<g id="a_Node000009"><a xlink:href="rotate_8c.html#a2a9331f58a373dad2ac3c24794183cc3" target="_top" xlink:title="Creates a 4x4 rotation matrix around the X axis (left/right)">
<polygon fill="white" stroke="#666666" points="365.25,-130.25 307.25,-130.25 307.25,-111 365.25,-111 365.25,-130.25"/>
<text text-anchor="middle" x="336.25" y="-116.75" font-family="Helvetica,sans-Serif" font-size="10.00">rotation_x</text>
</a>
</g>
</g>
<!-- Node1&#45;&gt;Node9 -->
<g id="edge8_Node000001_Node000009" class="edge">
<title>Node1&#45;&gt;Node9</title>
<g id="a_edge8_Node000001_Node000009"><a xlink:title=" ">
<path fill="none" stroke="#63b8ff" d="M407.03,-120.62C392.82,-120.62 377.82,-120.62 365.38,-120.62"/>
<polygon fill="#63b8ff" stroke="#63b8ff" points="406.68,-124.13 416.68,-120.63 406.68,-117.13 406.68,-124.13"/>
</a>
</g>
</g>
<!-- Node10 -->
<g id="Node000010" class="node">
<title>Node10</title>
<g id="a_Node000010"><a xlink:href="rotate_8c.html#a37fb509db7d1ecb9a2dc830e8d6c4d3c" target="_top" xlink:title="Creates a 4x4 rotation matrix around the Y axis (front/back)">
<polygon fill="white" stroke="#666666" points="365.25,-93.25 307.25,-93.25 307.25,-74 365.25,-74 365.25,-93.25"/>
<text text-anchor="middle" x="336.25" y="-79.75" font-family="Helvetica,sans-Serif" font-size="10.00">rotation_y</text>
</a>
</g>
</g>
<!-- Node1&#45;&gt;Node10 -->
<g id="edge9_Node000001_Node000010" class="edge">
<title>Node1&#45;&gt;Node10</title>
<g id="a_edge9_Node000001_Node000010"><a xlink:title=" ">
<path fill="none" stroke="#63b8ff" d="M413.28,-107.19C397.31,-102.24 379.65,-96.77 365.37,-92.34"/>
<polygon fill="#63b8ff" stroke="#63b8ff" points="411.97,-110.45 422.56,-110.07 414.04,-103.76 411.97,-110.45"/>
</a>
</g>
</g>
<!-- Node11 -->
<g id="Node000011" class="node">
<title>Node11</title>
<g id="a_Node000011"><a xlink:href="rotate_8c.html#af3cde01a934f6c4b452608316f91bc2f" target="_top" xlink:title="Creates a 4x4 rotation matrix around the Z axis (vertical)">
<polygon fill="white" stroke="#666666" points="365.25,-56.25 307.25,-56.25 307.25,-37 365.25,-37 365.25,-56.25"/>
<text text-anchor="middle" x="336.25" y="-42.75" font-family="Helvetica,sans-Serif" font-size="10.00">rotation_z</text>
</a>
</g>
</g>
<!-- Node1&#45;&gt;Node11 -->
<g id="edge10_Node000001_Node000011" class="edge">
<title>Node1&#45;&gt;Node11</title>
<g id="a_edge10_Node000001_Node000011"><a xlink:title=" ">
<path fill="none" stroke="#63b8ff" d="M437.21,-103.65C422.82,-91.66 402.33,-75.79 382.5,-64.62 377.2,-61.64 371.3,-58.91 365.55,-56.53"/>
<polygon fill="#63b8ff" stroke="#63b8ff" points="434.69,-106.1 444.57,-109.91 439.22,-100.77 434.69,-106.1"/>
</a>
</g>
</g>
<!-- Node12 -->
<g id="Node000012" class="node">
<title>Node12</title>
<g id="a_Node000012"><a xlink:href="shearing_8c.html#ab7ead1278f06784d5d1bb0925af42fc3" target="_top" xlink:title="This function is used to shear given objects.">
<polygon fill="white" stroke="#666666" points="362.62,-19.25 309.88,-19.25 309.88,0 362.62,0 362.62,-19.25"/>
<text text-anchor="middle" x="336.25" y="-5.75" font-family="Helvetica,sans-Serif" font-size="10.00">shearing</text>
</a>
</g>
</g>
<!-- Node1&#45;&gt;Node12 -->
<g id="edge11_Node000001_Node000012" class="edge">
<title>Node1&#45;&gt;Node12</title>
<g id="a_edge11_Node000001_Node000012"><a xlink:title=" ">
<path fill="none" stroke="#63b8ff" d="M445.21,-100.85C432.33,-80.09 409.61,-47.74 382.5,-27.62 376.66,-23.29 369.64,-19.84 362.89,-17.16"/>
<polygon fill="#63b8ff" stroke="#63b8ff" points="442.08,-102.45 450.23,-109.22 448.09,-98.85 442.08,-102.45"/>
</a>
</g>
</g>
<!-- Node3 -->
<g id="Node000003" class="node">
<title>Node3</title>
<g id="a_Node000003"><a xlink:href="ray__intersect_8c.html#a20cc82316845ecb42e8e8c218ff72a73" target="_top" xlink:title=" ">
<polygon fill="white" stroke="#666666" points="254,-259.25 148,-259.25 148,-240 254,-240 254,-259.25"/>
<text text-anchor="middle" x="201" y="-245.75" font-family="Helvetica,sans-Serif" font-size="10.00">ray_intersect_sphere</text>
</a>
</g>
</g>
<!-- Node2&#45;&gt;Node3 -->
<g id="edge2_Node000002_Node000003" class="edge">
<title>Node2&#45;&gt;Node3</title>
<g id="a_edge2_Node000002_Node000003"><a xlink:title=" ">
<path fill="none" stroke="#63b8ff" d="M285.17,-238.39C275.01,-239.76 264.31,-241.21 254.08,-242.59"/>
<polygon fill="#63b8ff" stroke="#63b8ff" points="285.41,-241.89 294.85,-237.08 284.47,-234.95 285.41,-241.89"/>
</a>
</g>
</g>
<!-- Node5 -->
<g id="Node000005" class="node">
<title>Node5</title>
<g id="a_Node000005"><a xlink:href="sphere__normal_8c.html#a7f90156067fc9db4452ca1b058c976e8" target="_top" xlink:title=" ">
<polygon fill="white" stroke="#666666" points="240.88,-222.25 161.12,-222.25 161.12,-203 240.88,-203 240.88,-222.25"/>
<text text-anchor="middle" x="201" y="-208.75" font-family="Helvetica,sans-Serif" font-size="10.00">sphere_normal</text>
</a>
</g>
</g>
<!-- Node2&#45;&gt;Node5 -->
<g id="edge4_Node000002_Node000005" class="edge">
<title>Node2&#45;&gt;Node5</title>
<g id="a_edge4_Node000002_Node000005"><a xlink:title=" ">
<path fill="none" stroke="#63b8ff" d="M285.01,-224.46C270.51,-222.39 254.9,-220.17 241.18,-218.21"/>
<polygon fill="#63b8ff" stroke="#63b8ff" points="284.46,-227.92 294.85,-225.86 285.45,-220.99 284.46,-227.92"/>
</a>
</g>
</g>
<!-- Node4 -->
<g id="Node000004" class="node">
<title>Node4</title>
<g id="a_Node000004"><a xlink:href="ray__world__intersect_8c.html#a2e629895d43f70cc7814ef4b0c89cf0d" target="_top" xlink:title=" ">
<polygon fill="white" stroke="#666666" points="106,-259.25 6,-259.25 6,-240 106,-240 106,-259.25"/>
<text text-anchor="middle" x="56" y="-245.75" font-family="Helvetica,sans-Serif" font-size="10.00">ray_intersect_world</text>
</a>
</g>
</g>
<!-- Node3&#45;&gt;Node4 -->
<g id="edge3_Node000003_Node000004" class="edge">
<title>Node3&#45;&gt;Node4</title>
<g id="a_edge3_Node000003_Node000004"><a xlink:title=" ">
<path fill="none" stroke="#63b8ff" d="M136.27,-249.62C126.15,-249.62 115.82,-249.62 106.1,-249.62"/>
<polygon fill="#63b8ff" stroke="#63b8ff" points="136.05,-253.13 146.05,-249.63 136.05,-246.13 136.05,-253.13"/>
</a>
</g>
</g>
<!-- Node6 -->
<g id="Node000006" class="node">
<title>Node6</title>
<g id="a_Node000006"><a xlink:href="prepare__computations_8c.html#a260bb84a41e41fe52951d598804fb2fe" target="_top" xlink:title=" ">
<polygon fill="white" stroke="#666666" points="112,-222.25 0,-222.25 0,-203 112,-203 112,-222.25"/>
<text text-anchor="middle" x="56" y="-208.75" font-family="Helvetica,sans-Serif" font-size="10.00">prepare_computations</text>
</a>
</g>
</g>
<!-- Node5&#45;&gt;Node6 -->
<g id="edge5_Node000005_Node000006" class="edge">
<title>Node5&#45;&gt;Node6</title>
<g id="a_edge5_Node000005_Node000006"><a xlink:title=" ">
<path fill="none" stroke="#63b8ff" d="M149.68,-212.62C137.61,-212.62 124.66,-212.62 112.38,-212.62"/>
<polygon fill="#63b8ff" stroke="#63b8ff" points="149.41,-216.13 159.41,-212.63 149.41,-209.13 149.41,-216.13"/>
</a>
</g>
</g>
</g>
</svg>
