<?xml version="1.0" encoding="UTF-8" standalone="no"?>
<!DOCTYPE svg PUBLIC "-//W3C//DTD SVG 1.1//EN"
 "http://www.w3.org/Graphics/SVG/1.1/DTD/svg11.dtd">
<!-- Generated by graphviz version 9.0.0 (20230911.1827)
 -->
<!-- Title: matrix_inverse Pages: 1 -->
<svg width="377pt" height="64pt"
 viewBox="0.00 0.00 377.00 64.25" xmlns="http://www.w3.org/2000/svg" xmlns:xlink="http://www.w3.org/1999/xlink">
<g id="graph0" class="graph" transform="scale(1 1) rotate(0) translate(4 60.25)">
<title>matrix_inverse</title>
<!-- Node1 -->
<g id="Node000001" class="node">
<title>Node1</title>
<g id="a_Node000001"><a xlink:title=" ">
<polygon fill="#999999" stroke="#666666" points="369,-37.25 290,-37.25 290,-18 369,-18 369,-37.25"/>
<text text-anchor="middle" x="329.5" y="-23.75" font-family="Helvetica,sans-Serif" font-size="10.00">matrix_inverse</text>
</a>
</g>
</g>
<!-- Node2 -->
<g id="Node000002" class="node">
<title>Node2</title>
<g id="a_Node000002"><a xlink:href="ray__intersect_8c.html#a20cc82316845ecb42e8e8c218ff72a73" target="_top" xlink:title=" ">
<polygon fill="white" stroke="#666666" points="254,-56.25 148,-56.25 148,-37 254,-37 254,-56.25"/>
<text text-anchor="middle" x="201" y="-42.75" font-family="Helvetica,sans-Serif" font-size="10.00">ray_intersect_sphere</text>
</a>
</g>
</g>
<!-- Node1&#45;&gt;Node2 -->
<g id="edge1_Node000001_Node000002" class="edge">
<title>Node1&#45;&gt;Node2</title>
<g id="a_edge1_Node000001_Node000002"><a xlink:title=" ">
<path fill="none" stroke="#63b8ff" d="M278.18,-35.18C270.27,-36.37 262.08,-37.6 254.13,-38.8"/>
<polygon fill="#63b8ff" stroke="#63b8ff" points="278.65,-38.65 288.02,-33.71 277.61,-31.73 278.65,-38.65"/>
</a>
</g>
</g>
<!-- Node4 -->
<g id="Node000004" class="node">
<title>Node4</title>
<g id="a_Node000004"><a xlink:href="sphere__normal_8c.html#a7f90156067fc9db4452ca1b058c976e8" target="_top" xlink:title=" ">
<polygon fill="white" stroke="#666666" points="240.88,-19.25 161.12,-19.25 161.12,0 240.88,0 240.88,-19.25"/>
<text text-anchor="middle" x="201" y="-5.75" font-family="Helvetica,sans-Serif" font-size="10.00">sphere_normal</text>
</a>
</g>
</g>
<!-- Node1&#45;&gt;Node4 -->
<g id="edge3_Node000001_Node000004" class="edge">
<title>Node1&#45;&gt;Node4</title>
<g id="a_edge3_Node000001_Node000004"><a xlink:title=" ">
<path fill="none" stroke="#63b8ff" d="M278.38,-20.49C265.97,-18.73 252.87,-16.86 241.08,-15.19"/>
<polygon fill="#63b8ff" stroke="#63b8ff" points="277.62,-23.92 288.02,-21.86 278.61,-16.99 277.62,-23.92"/>
</a>
</g>
</g>
<!-- Node3 -->
<g id="Node000003" class="node">
<title>Node3</title>
<g id="a_Node000003"><a xlink:href="ray__world__intersect_8c.html#a2e629895d43f70cc7814ef4b0c89cf0d" target="_top" xlink:title=" ">
<polygon fill="white" stroke="#666666" points="106,-56.25 6,-56.25 6,-37 106,-37 106,-56.25"/>
<text text-anchor="middle" x="56" y="-42.75" font-family="Helvetica,sans-Serif" font-size="10.00">ray_intersect_world</text>
</a>
</g>
</g>
<!-- Node2&#45;&gt;Node3 -->
<g id="edge2_Node000002_Node000003" class="edge">
<title>Node2&#45;&gt;Node3</title>
<g id="a_edge2_Node000002_Node000003"><a xlink:title=" ">
<path fill="none" stroke="#63b8ff" d="M136.27,-46.62C126.15,-46.62 115.82,-46.62 106.1,-46.62"/>
<polygon fill="#63b8ff" stroke="#63b8ff" points="136.05,-50.13 146.05,-46.63 136.05,-43.13 136.05,-50.13"/>
</a>
</g>
</g>
<!-- Node5 -->
<g id="Node000005" class="node">
<title>Node5</title>
<g id="a_Node000005"><a xlink:href="prepare__computations_8c.html#a260bb84a41e41fe52951d598804fb2fe" target="_top" xlink:title=" ">
<polygon fill="white" stroke="#666666" points="112,-19.25 0,-19.25 0,0 112,0 112,-19.25"/>
<text text-anchor="middle" x="56" y="-5.75" font-family="Helvetica,sans-Serif" font-size="10.00">prepare_computations</text>
</a>
</g>
</g>
<!-- Node4&#45;&gt;Node5 -->
<g id="edge4_Node000004_Node000005" class="edge">
<title>Node4&#45;&gt;Node5</title>
<g id="a_edge4_Node000004_Node000005"><a xlink:title=" ">
<path fill="none" stroke="#63b8ff" d="M149.68,-9.62C137.61,-9.62 124.66,-9.62 112.38,-9.62"/>
<polygon fill="#63b8ff" stroke="#63b8ff" points="149.41,-13.13 159.41,-9.63 149.41,-6.13 149.41,-13.13"/>
</a>
</g>
</g>
</g>
</svg>
