<?xml version="1.0" encoding="UTF-8" standalone="no"?>
<!DOCTYPE svg PUBLIC "-//W3C//DTD SVG 1.1//EN"
 "http://www.w3.org/Graphics/SVG/1.1/DTD/svg11.dtd">
<!-- Generated by graphviz version 9.0.0 (20230911.1827)
 -->
<!-- Title: /github/workspace/SRC/mini_ray.c Pages: 1 -->
<svg width="383pt" height="204pt"
 viewBox="0.00 0.00 382.88 204.25" xmlns="http://www.w3.org/2000/svg" xmlns:xlink="http://www.w3.org/1999/xlink">
<g id="graph0" class="graph" transform="scale(1 1) rotate(0) translate(4 200.25)">
<title>/github/workspace/SRC/mini_ray.c</title>
<!-- Node1 -->
<g id="Node000001" class="node">
<title>Node1</title>
<g id="a_Node000001"><a xlink:title=" ">
<polygon fill="#999999" stroke="#666666" points="239,-196.25 120.25,-196.25 120.25,-165.75 239,-165.75 239,-196.25"/>
<text text-anchor="start" x="128.25" y="-182.75" font-family="Helvetica,sans-Serif" font-size="10.00">/github/workspace/SRC</text>
<text text-anchor="middle" x="179.62" y="-171.5" font-family="Helvetica,sans-Serif" font-size="10.00">/mini_ray.c</text>
</a>
</g>
</g>
<!-- Node2 -->
<g id="Node000002" class="node">
<title>Node2</title>
<g id="a_Node000002"><a xlink:href="core__init_8h.html" target="_top" xlink:title=" ">
<polygon fill="white" stroke="#666666" points="340.75,-129.75 280.5,-129.75 280.5,-110.5 340.75,-110.5 340.75,-129.75"/>
<text text-anchor="middle" x="310.62" y="-116.25" font-family="Helvetica,sans-Serif" font-size="10.00">core_init.h</text>
</a>
</g>
</g>
<!-- Node1&#45;&gt;Node2 -->
<g id="edge1_Node000001_Node000002" class="edge">
<title>Node1&#45;&gt;Node2</title>
<g id="a_edge1_Node000001_Node000002"><a xlink:title=" ">
<path fill="none" stroke="#63b8ff" d="M212.34,-165.3C233.16,-155.94 259.92,-143.91 280.26,-134.77"/>
<polygon fill="#63b8ff" stroke="#63b8ff" points="281.47,-138.07 289.15,-130.77 278.6,-131.68 281.47,-138.07"/>
</a>
</g>
</g>
<!-- Node10 -->
<g id="Node000010" class="node">
<title>Node10</title>
<g id="a_Node000010"><a xlink:href="core__parse_8h.html" target="_top" xlink:title=" ">
<polygon fill="white" stroke="#666666" points="170.38,-129.75 98.88,-129.75 98.88,-110.5 170.38,-110.5 170.38,-129.75"/>
<text text-anchor="middle" x="134.62" y="-116.25" font-family="Helvetica,sans-Serif" font-size="10.00">core_parse.h</text>
</a>
</g>
</g>
<!-- Node1&#45;&gt;Node10 -->
<g id="edge9_Node000001_Node000010" class="edge">
<title>Node1&#45;&gt;Node10</title>
<g id="a_edge9_Node000001_Node000010"><a xlink:title=" ">
<path fill="none" stroke="#63b8ff" d="M168.5,-165.45C162.44,-157.52 154.88,-147.63 148.45,-139.21"/>
<polygon fill="#63b8ff" stroke="#63b8ff" points="151.33,-137.22 142.48,-131.4 145.77,-141.47 151.33,-137.22"/>
</a>
</g>
</g>
<!-- Node11 -->
<g id="Node000011" class="node">
<title>Node11</title>
<g id="a_Node000011"><a xlink:href="core__cleanup_8h.html" target="_top" xlink:title=" ">
<polygon fill="white" stroke="#666666" points="81.25,-129.75 0,-129.75 0,-110.5 81.25,-110.5 81.25,-129.75"/>
<text text-anchor="middle" x="40.62" y="-116.25" font-family="Helvetica,sans-Serif" font-size="10.00">core_cleanup.h</text>
</a>
</g>
</g>
<!-- Node1&#45;&gt;Node11 -->
<g id="edge12_Node000001_Node000011" class="edge">
<title>Node1&#45;&gt;Node11</title>
<g id="a_edge12_Node000001_Node000011"><a xlink:title=" ">
<path fill="none" stroke="#63b8ff" d="M144.91,-165.3C122.62,-155.85 93.9,-143.69 72.25,-134.52"/>
<polygon fill="#63b8ff" stroke="#63b8ff" points="73.91,-131.42 63.34,-130.74 71.18,-137.87 73.91,-131.42"/>
</a>
</g>
</g>
<!-- Node13 -->
<g id="Node000013" class="node">
<title>Node13</title>
<g id="a_Node000013"><a xlink:href="core__render_8h.html" target="_top" xlink:title=" ">
<polygon fill="white" stroke="#666666" points="262.88,-129.75 188.38,-129.75 188.38,-110.5 262.88,-110.5 262.88,-129.75"/>
<text text-anchor="middle" x="225.62" y="-116.25" font-family="Helvetica,sans-Serif" font-size="10.00">core_render.h</text>
</a>
</g>
</g>
<!-- Node1&#45;&gt;Node13 -->
<g id="edge15_Node000001_Node000013" class="edge">
<title>Node1&#45;&gt;Node13</title>
<g id="a_edge15_Node000001_Node000013"><a xlink:title=" ">
<path fill="none" stroke="#63b8ff" d="M191,-165.45C197.19,-157.52 204.92,-147.63 211.49,-139.21"/>
<polygon fill="#63b8ff" stroke="#63b8ff" points="214.2,-141.43 217.6,-131.39 208.69,-137.12 214.2,-141.43"/>
</a>
</g>
</g>
<!-- Node3 -->
<g id="Node000003" class="node">
<title>Node3</title>
<g id="a_Node000003"><a xlink:href="types_8h.html" target="_top" xlink:title=" ">
<polygon fill="white" stroke="#666666" points="158,-74.5 111.25,-74.5 111.25,-55.25 158,-55.25 158,-74.5"/>
<text text-anchor="middle" x="134.62" y="-61" font-family="Helvetica,sans-Serif" font-size="10.00">types.h</text>
</a>
</g>
</g>
<!-- Node2&#45;&gt;Node3 -->
<g id="edge2_Node000002_Node000003" class="edge">
<title>Node2&#45;&gt;Node3</title>
<g id="a_edge2_Node000002_Node000003"><a xlink:title=" ">
<path fill="none" stroke="#63b8ff" d="M280.77,-110.09C249.89,-100.75 201.72,-86.17 169.2,-76.34"/>
<polygon fill="#63b8ff" stroke="#63b8ff" points="170.44,-73.05 159.86,-73.51 168.41,-79.75 170.44,-73.05"/>
</a>
</g>
</g>
<!-- Node7 -->
<g id="Node000007" class="node">
<title>Node7</title>
<g id="a_Node000007"><a xlink:title=" ">
<polygon fill="#e0e0e0" stroke="#999999" points="374.88,-74.5 336.38,-74.5 336.38,-55.25 374.88,-55.25 374.88,-74.5"/>
<text text-anchor="middle" x="355.62" y="-61" font-family="Helvetica,sans-Serif" font-size="10.00">mlx.h</text>
</a>
</g>
</g>
<!-- Node2&#45;&gt;Node7 -->
<g id="edge6_Node000002_Node000007" class="edge">
<title>Node2&#45;&gt;Node7</title>
<g id="a_edge6_Node000002_Node000007"><a xlink:title=" ">
<path fill="none" stroke="#63b8ff" d="M318.06,-110.33C324.21,-103.05 333.14,-92.48 340.75,-83.48"/>
<polygon fill="#63b8ff" stroke="#63b8ff" points="343.27,-85.91 347.06,-76.02 337.93,-81.39 343.27,-85.91"/>
</a>
</g>
</g>
<!-- Node8 -->
<g id="Node000008" class="node">
<title>Node8</title>
<g id="a_Node000008"><a xlink:title=" ">
<polygon fill="#e0e0e0" stroke="#999999" points="221.25,-74.5 176,-74.5 176,-55.25 221.25,-55.25 221.25,-74.5"/>
<text text-anchor="middle" x="198.62" y="-61" font-family="Helvetica,sans-Serif" font-size="10.00">errno.h</text>
</a>
</g>
</g>
<!-- Node2&#45;&gt;Node8 -->
<g id="edge7_Node000002_Node000008" class="edge">
<title>Node2&#45;&gt;Node8</title>
<g id="a_edge7_Node000002_Node000008"><a xlink:title=" ">
<path fill="none" stroke="#63b8ff" d="M291.63,-110.09C274.17,-101.79 248.03,-89.36 227.9,-79.79"/>
<polygon fill="#63b8ff" stroke="#63b8ff" points="229.62,-76.74 219.08,-75.6 226.61,-83.06 229.62,-76.74"/>
</a>
</g>
</g>
<!-- Node9 -->
<g id="Node000009" class="node">
<title>Node9</title>
<g id="a_Node000009"><a xlink:href="window__size_8h.html" target="_top" xlink:title=" ">
<polygon fill="white" stroke="#666666" points="318.12,-74.5 239.12,-74.5 239.12,-55.25 318.12,-55.25 318.12,-74.5"/>
<text text-anchor="middle" x="278.62" y="-61" font-family="Helvetica,sans-Serif" font-size="10.00">window_size.h</text>
</a>
</g>
</g>
<!-- Node2&#45;&gt;Node9 -->
<g id="edge8_Node000002_Node000009" class="edge">
<title>Node2&#45;&gt;Node9</title>
<g id="a_edge8_Node000002_Node000009"><a xlink:title=" ">
<path fill="none" stroke="#63b8ff" d="M305.34,-110.33C301.15,-103.36 295.15,-93.37 289.89,-84.62"/>
<polygon fill="#63b8ff" stroke="#63b8ff" points="292.95,-82.93 284.8,-76.16 286.95,-86.53 292.95,-82.93"/>
</a>
</g>
</g>
<!-- Node4 -->
<g id="Node000004" class="node">
<title>Node4</title>
<g id="a_Node000004"><a xlink:title=" ">
<polygon fill="#e0e0e0" stroke="#999999" points="93.12,-19.25 38.12,-19.25 38.12,0 93.12,0 93.12,-19.25"/>
<text text-anchor="middle" x="65.62" y="-5.75" font-family="Helvetica,sans-Serif" font-size="10.00">stdbool.h</text>
</a>
</g>
</g>
<!-- Node3&#45;&gt;Node4 -->
<g id="edge3_Node000003_Node000004" class="edge">
<title>Node3&#45;&gt;Node4</title>
<g id="a_edge3_Node000003_Node000004"><a xlink:title=" ">
<path fill="none" stroke="#63b8ff" d="M122.92,-54.84C112.85,-47.07 98.08,-35.67 86.06,-26.4"/>
<polygon fill="#63b8ff" stroke="#63b8ff" points="88.41,-23.79 78.36,-20.45 84.13,-29.33 88.41,-23.79"/>
</a>
</g>
</g>
<!-- Node5 -->
<g id="Node000005" class="node">
<title>Node5</title>
<g id="a_Node000005"><a xlink:title=" ">
<polygon fill="#e0e0e0" stroke="#999999" points="158,-19.25 111.25,-19.25 111.25,0 158,0 158,-19.25"/>
<text text-anchor="middle" x="134.62" y="-5.75" font-family="Helvetica,sans-Serif" font-size="10.00">stdlib.h</text>
</a>
</g>
</g>
<!-- Node3&#45;&gt;Node5 -->
<g id="edge4_Node000003_Node000005" class="edge">
<title>Node3&#45;&gt;Node5</title>
<g id="a_edge4_Node000003_Node000005"><a xlink:title=" ">
<path fill="none" stroke="#63b8ff" d="M134.62,-55.08C134.62,-48.57 134.62,-39.42 134.62,-31.12"/>
<polygon fill="#63b8ff" stroke="#63b8ff" points="138.13,-31.12 134.63,-21.12 131.13,-31.12 138.13,-31.12"/>
</a>
</g>
</g>
<!-- Node6 -->
<g id="Node000006" class="node">
<title>Node6</title>
<g id="a_Node000006"><a xlink:title=" ">
<polygon fill="#e0e0e0" stroke="#999999" points="223,-19.25 176.25,-19.25 176.25,0 223,0 223,-19.25"/>
<text text-anchor="middle" x="199.62" y="-5.75" font-family="Helvetica,sans-Serif" font-size="10.00">limits.h</text>
</a>
</g>
</g>
<!-- Node3&#45;&gt;Node6 -->
<g id="edge5_Node000003_Node000006" class="edge">
<title>Node3&#45;&gt;Node6</title>
<g id="a_edge5_Node000003_Node000006"><a xlink:title=" ">
<path fill="none" stroke="#63b8ff" d="M145.65,-54.84C155.05,-47.15 168.77,-35.9 180.03,-26.68"/>
<polygon fill="#63b8ff" stroke="#63b8ff" points="182.07,-29.53 187.59,-20.48 177.64,-24.11 182.07,-29.53"/>
</a>
</g>
</g>
<!-- Node10&#45;&gt;Node3 -->
<g id="edge10_Node000010_Node000003" class="edge">
<title>Node10&#45;&gt;Node3</title>
<g id="a_edge10_Node000010_Node000003"><a xlink:title=" ">
<path fill="none" stroke="#63b8ff" d="M134.62,-110.33C134.62,-103.82 134.62,-94.67 134.62,-86.37"/>
<polygon fill="#63b8ff" stroke="#63b8ff" points="138.13,-86.37 134.63,-76.37 131.13,-86.37 138.13,-86.37"/>
</a>
</g>
</g>
<!-- Node10&#45;&gt;Node8 -->
<g id="edge11_Node000010_Node000008" class="edge">
<title>Node10&#45;&gt;Node8</title>
<g id="a_edge11_Node000010_Node000008"><a xlink:title=" ">
<path fill="none" stroke="#63b8ff" d="M145.48,-110.09C154.73,-102.4 168.25,-91.15 179.33,-81.93"/>
<polygon fill="#63b8ff" stroke="#63b8ff" points="181.32,-84.83 186.77,-75.74 176.84,-79.45 181.32,-84.83"/>
</a>
</g>
</g>
<!-- Node11&#45;&gt;Node3 -->
<g id="edge14_Node000011_Node000003" class="edge">
<title>Node11&#45;&gt;Node3</title>
<g id="a_edge14_Node000011_Node000003"><a xlink:title=" ">
<path fill="none" stroke="#63b8ff" d="M56.57,-110.09C70.89,-101.98 92.16,-89.93 108.88,-80.46"/>
<polygon fill="#63b8ff" stroke="#63b8ff" points="110.31,-83.67 117.28,-75.7 106.86,-77.58 110.31,-83.67"/>
</a>
</g>
</g>
<!-- Node12 -->
<g id="Node000012" class="node">
<title>Node12</title>
<g id="a_Node000012"><a xlink:title=" ">
<polygon fill="#e0e0e0" stroke="#999999" points="79,-74.5 2.25,-74.5 2.25,-55.25 79,-55.25 79,-74.5"/>
<text text-anchor="middle" x="40.62" y="-61" font-family="Helvetica,sans-Serif" font-size="10.00">X11/keysym.h</text>
</a>
</g>
</g>
<!-- Node11&#45;&gt;Node12 -->
<g id="edge13_Node000011_Node000012" class="edge">
<title>Node11&#45;&gt;Node12</title>
<g id="a_edge13_Node000011_Node000012"><a xlink:title=" ">
<path fill="none" stroke="#63b8ff" d="M40.62,-110.33C40.62,-103.82 40.62,-94.67 40.62,-86.37"/>
<polygon fill="#63b8ff" stroke="#63b8ff" points="44.13,-86.37 40.63,-76.37 37.13,-86.37 44.13,-86.37"/>
</a>
</g>
</g>
<!-- Node13&#45;&gt;Node3 -->
<g id="edge16_Node000013_Node000003" class="edge">
<title>Node13&#45;&gt;Node3</title>
<g id="a_edge16_Node000013_Node000003"><a xlink:title=" ">
<path fill="none" stroke="#63b8ff" d="M210.19,-110.09C196.46,-102.06 176.13,-90.16 160.01,-80.73"/>
<polygon fill="#63b8ff" stroke="#63b8ff" points="161.84,-77.75 151.44,-75.72 158.31,-83.79 161.84,-77.75"/>
</a>
</g>
</g>
<!-- Node13&#45;&gt;Node9 -->
<g id="edge17_Node000013_Node000009" class="edge">
<title>Node13&#45;&gt;Node9</title>
<g id="a_edge17_Node000013_Node000009"><a xlink:title=" ">
<path fill="none" stroke="#63b8ff" d="M234.38,-110.33C241.77,-102.9 252.59,-92.04 261.67,-82.91"/>
<polygon fill="#63b8ff" stroke="#63b8ff" points="264.04,-85.49 268.62,-75.93 259.08,-80.55 264.04,-85.49"/>
</a>
</g>
</g>
</g>
</svg>
