<?xml version="1.0" encoding="UTF-8" standalone="no"?>
<!DOCTYPE svg PUBLIC "-//W3C//DTD SVG 1.1//EN"
 "http://www.w3.org/Graphics/SVG/1.1/DTD/svg11.dtd">
<!-- Generated by graphviz version 9.0.0 (20230911.1827)
 -->
<!-- Title: free_dptr Pages: 1 -->
<svg width="963pt" height="718pt"
 viewBox="0.00 0.00 962.50 717.62" xmlns="http://www.w3.org/2000/svg" xmlns:xlink="http://www.w3.org/1999/xlink">
<g id="graph0" class="graph" transform="scale(1 1) rotate(0) translate(4 713.62)">
<title>free_dptr</title>
<!-- Node1 -->
<g id="Node000001" class="node">
<title>Node1</title>
<g id="a_Node000001"><a xlink:title=" ">
<polygon fill="#999999" stroke="#666666" points="954.5,-111.62 900.25,-111.62 900.25,-92.38 954.5,-92.38 954.5,-111.62"/>
<text text-anchor="middle" x="927.38" y="-98.12" font-family="Helvetica,sans-Serif" font-size="10.00">free_dptr</text>
</a>
</g>
</g>
<!-- Node2 -->
<g id="Node000002" class="node">
<title>Node2</title>
<g id="a_Node000002"><a xlink:href="matrix__create_8c.html#a5291384d37d735f9c3fc33c03d2788ad" target="_top" xlink:title=" ">
<polygon fill="white" stroke="#666666" points="720,-347.62 645.5,-347.62 645.5,-328.38 720,-328.38 720,-347.62"/>
<text text-anchor="middle" x="682.75" y="-334.12" font-family="Helvetica,sans-Serif" font-size="10.00">matrix_create</text>
</a>
</g>
</g>
<!-- Node1&#45;&gt;Node2 -->
<g id="edge1_Node000001_Node000002" class="edge">
<title>Node1&#45;&gt;Node2</title>
<g id="a_edge1_Node000001_Node000002"><a xlink:title=" ">
<path fill="none" stroke="#63b8ff" d="M908.29,-119.59C860.35,-166.22 731.13,-291.91 693.91,-328.12"/>
<polygon fill="#63b8ff" stroke="#63b8ff" points="910.45,-122.38 915.17,-112.9 905.56,-117.36 910.45,-122.38"/>
</a>
</g>
</g>
<!-- Node29 -->
<g id="Node000029" class="node">
<title>Node29</title>
<g id="a_Node000029"><a xlink:href="parse__main_8c.html#a5d7da6ab7925ffda04b676ef38880723" target="_top" xlink:title="Reading a line from the given .rt file and splitting the given line with the space (&#39; &#39;) delimiter....">
<polygon fill="white" stroke="#666666" points="321.75,-47.62 226.25,-47.62 226.25,-28.38 321.75,-28.38 321.75,-47.62"/>
<text text-anchor="middle" x="274" y="-34.12" font-family="Helvetica,sans-Serif" font-size="10.00">parse_rt_read_line</text>
</a>
</g>
</g>
<!-- Node1&#45;&gt;Node29 -->
<g id="edge65_Node000001_Node000029" class="edge">
<title>Node1&#45;&gt;Node29</title>
<g id="a_edge65_Node000001_Node000029"><a xlink:title=" ">
<path fill="none" stroke="#63b8ff" d="M910.71,-83.84C899.08,-71.45 882.17,-55.6 864.25,-46 791.27,-6.92 766.54,0 683.75,0 683.75,0 683.75,0 542.38,0 462.9,0 371.46,-16.66 318.73,-27.92"/>
<polygon fill="#63b8ff" stroke="#63b8ff" points="907.87,-85.92 917.18,-90.99 913.07,-81.23 907.87,-85.92"/>
</a>
</g>
</g>
<!-- Node37 -->
<g id="Node000037" class="node">
<title>Node37</title>
<g id="a_Node000037"><a xlink:href="parse__utils_8c.html#a4b09ddfa5e35fa7e45323421232772ce" target="_top" xlink:title=" ">
<polygon fill="white" stroke="#666666" points="734.25,-133.62 631.25,-133.62 631.25,-114.38 734.25,-114.38 734.25,-133.62"/>
<text text-anchor="middle" x="682.75" y="-120.12" font-family="Helvetica,sans-Serif" font-size="10.00">parse_assign_coord</text>
</a>
</g>
</g>
<!-- Node1&#45;&gt;Node37 -->
<g id="edge50_Node000001_Node000037" class="edge">
<title>Node1&#45;&gt;Node37</title>
<g id="a_edge50_Node000001_Node000037"><a xlink:title=" ">
<path fill="none" stroke="#63b8ff" d="M888.73,-105.41C847.35,-109.17 780.65,-115.21 734.63,-119.39"/>
<polygon fill="#63b8ff" stroke="#63b8ff" points="888.8,-108.92 898.44,-104.53 888.17,-101.95 888.8,-108.92"/>
</a>
</g>
</g>
<!-- Node38 -->
<g id="Node000038" class="node">
<title>Node38</title>
<g id="a_Node000038"><a xlink:href="parse__utils_8c.html#aa353b138267370a075b03b29a2306573" target="_top" xlink:title=" ">
<polygon fill="white" stroke="#666666" points="730.5,-87.62 635,-87.62 635,-68.38 730.5,-68.38 730.5,-87.62"/>
<text text-anchor="middle" x="682.75" y="-74.12" font-family="Helvetica,sans-Serif" font-size="10.00">parse_assign_trgb</text>
</a>
</g>
</g>
<!-- Node1&#45;&gt;Node38 -->
<g id="edge55_Node000001_Node000038" class="edge">
<title>Node1&#45;&gt;Node38</title>
<g id="a_edge55_Node000001_Node000038"><a xlink:title=" ">
<path fill="none" stroke="#63b8ff" d="M908.69,-84.5C897.1,-74.32 881.04,-62.44 864.25,-57 811.73,-39.98 746.67,-56.04 710.75,-67.91"/>
<polygon fill="#63b8ff" stroke="#63b8ff" points="906.12,-86.89 915.83,-91.12 910.88,-81.76 906.12,-86.89"/>
</a>
</g>
</g>
<!-- Node40 -->
<g id="Node000040" class="node">
<title>Node40</title>
<g id="a_Node000040"><a xlink:href="parse__utils_8c.html#a70a5145ad572a59954c71984bf73ca01" target="_top" xlink:title=" ">
<polygon fill="white" stroke="#666666" points="730.12,-171.62 635.38,-171.62 635.38,-152.38 730.12,-152.38 730.12,-171.62"/>
<text text-anchor="middle" x="682.75" y="-158.12" font-family="Helvetica,sans-Serif" font-size="10.00">parse_assign_vec</text>
</a>
</g>
</g>
<!-- Node1&#45;&gt;Node40 -->
<g id="edge61_Node000001_Node000040" class="edge">
<title>Node1&#45;&gt;Node40</title>
<g id="a_edge61_Node000001_Node000040"><a xlink:title=" ">
<path fill="none" stroke="#63b8ff" d="M891.25,-116.06C882.52,-119.26 873.11,-122.47 864.25,-125 819.5,-137.79 767.31,-147.99 730.59,-154.42"/>
<polygon fill="#63b8ff" stroke="#63b8ff" points="892.34,-119.39 900.46,-112.59 889.87,-112.85 892.34,-119.39"/>
</a>
</g>
</g>
<!-- Node41 -->
<g id="Node000041" class="node">
<title>Node41</title>
<g id="a_Node000041"><a xlink:href="parse__validate__assign__rgb__utils_8c.html#a38dd4510ea4653d36b16185526f288ab" target="_top" xlink:title=" ">
<polygon fill="white" stroke="#666666" points="864.25,-96.25 770.25,-96.25 770.25,-65.75 864.25,-65.75 864.25,-96.25"/>
<text text-anchor="start" x="778.25" y="-82.75" font-family="Helvetica,sans-Serif" font-size="10.00">split_and_validate</text>
<text text-anchor="middle" x="817.25" y="-71.5" font-family="Helvetica,sans-Serif" font-size="10.00">_components</text>
</a>
</g>
</g>
<!-- Node1&#45;&gt;Node41 -->
<g id="edge66_Node000001_Node000041" class="edge">
<title>Node1&#45;&gt;Node41</title>
<g id="a_edge66_Node000001_Node000041"><a xlink:title=" ">
<path fill="none" stroke="#63b8ff" d="M888.65,-94.67C880.91,-93.17 872.67,-91.57 864.66,-90.01"/>
<polygon fill="#63b8ff" stroke="#63b8ff" points="887.95,-98.1 898.44,-96.57 889.29,-91.23 887.95,-98.1"/>
</a>
</g>
</g>
<!-- Node3 -->
<g id="Node000003" class="node">
<title>Node3</title>
<g id="a_Node000003"><a xlink:href="matrix__point_8c.html#a51cfc0e8c33e22d4403c9e1ba8a53e0a" target="_top" xlink:title="This function creates a point in 3D space.">
<polygon fill="white" stroke="#666666" points="578,-422.62 508.75,-422.62 508.75,-403.38 578,-403.38 578,-422.62"/>
<text text-anchor="middle" x="543.38" y="-409.12" font-family="Helvetica,sans-Serif" font-size="10.00">create_point</text>
</a>
</g>
</g>
<!-- Node2&#45;&gt;Node3 -->
<g id="edge2_Node000002_Node000003" class="edge">
<title>Node2&#45;&gt;Node3</title>
<g id="a_edge2_Node000002_Node000003"><a xlink:title=" ">
<path fill="none" stroke="#63b8ff" d="M659.81,-354.62C642.84,-366.93 618.41,-383.49 595.25,-395 589.38,-397.92 582.91,-400.59 576.62,-402.93"/>
<polygon fill="#63b8ff" stroke="#63b8ff" points="661.68,-357.59 667.65,-348.83 657.53,-351.95 661.68,-357.59"/>
</a>
</g>
</g>
<!-- Node4 -->
<g id="Node000004" class="node">
<title>Node4</title>
<g id="a_Node000004"><a xlink:href="matrix__vector_8c.html#a1997aa61fa90423d330488fb3f8596fe" target="_top" xlink:title="This function is used to create a vector in 3D space.">
<polygon fill="white" stroke="#666666" points="581,-385.62 505.75,-385.62 505.75,-366.38 581,-366.38 581,-385.62"/>
<text text-anchor="middle" x="543.38" y="-372.12" font-family="Helvetica,sans-Serif" font-size="10.00">create_vector</text>
</a>
</g>
</g>
<!-- Node2&#45;&gt;Node4 -->
<g id="edge3_Node000002_Node000004" class="edge">
<title>Node2&#45;&gt;Node4</title>
<g id="a_edge3_Node000002_Node000004"><a xlink:title=" ">
<path fill="none" stroke="#63b8ff" d="M634.35,-351.11C616.71,-355.99 596.99,-361.45 580.52,-366"/>
<polygon fill="#63b8ff" stroke="#63b8ff" points="635.13,-354.53 643.84,-348.49 633.27,-347.78 635.13,-354.53"/>
</a>
</g>
</g>
<!-- Node5 -->
<g id="Node000005" class="node">
<title>Node5</title>
<g id="a_Node000005"><a xlink:href="matrix__clone_8c.html#a664de98f31a1171b994283a70249628a" target="_top" xlink:title=" ">
<polygon fill="white" stroke="#666666" points="444.62,-300.62 373.88,-300.62 373.88,-281.38 444.62,-281.38 444.62,-300.62"/>
<text text-anchor="middle" x="409.25" y="-287.12" font-family="Helvetica,sans-Serif" font-size="10.00">matrix_clone</text>
</a>
</g>
</g>
<!-- Node2&#45;&gt;Node5 -->
<g id="edge4_Node000002_Node000005" class="edge">
<title>Node2&#45;&gt;Node5</title>
<g id="a_edge4_Node000002_Node000005"><a xlink:title=" ">
<path fill="none" stroke="#63b8ff" d="M634.45,-326.32C621.76,-323.39 608.02,-320.4 595.25,-318 543.1,-308.18 482.1,-299.89 444.83,-295.18"/>
<polygon fill="#63b8ff" stroke="#63b8ff" points="633.26,-329.64 643.8,-328.52 634.86,-322.83 633.26,-329.64"/>
</a>
</g>
</g>
<!-- Node11 -->
<g id="Node000011" class="node">
<title>Node11</title>
<g id="a_Node000011"><a xlink:href="matrix__determinants_8c.html#a27e06277b887c9f90b2a00a60b0c81fe" target="_top" xlink:title=" ">
<polygon fill="white" stroke="#666666" points="595.25,-533.62 491.5,-533.62 491.5,-514.38 595.25,-514.38 595.25,-533.62"/>
<text text-anchor="middle" x="543.38" y="-520.12" font-family="Helvetica,sans-Serif" font-size="10.00">matrix_determinants</text>
</a>
</g>
</g>
<!-- Node2&#45;&gt;Node11 -->
<g id="edge11_Node000002_Node000011" class="edge">
<title>Node2&#45;&gt;Node11</title>
<g id="a_edge11_Node000002_Node000011"><a xlink:title=" ">
<path fill="none" stroke="#63b8ff" d="M676.49,-358.76C666.54,-393.96 641.67,-465.47 595.25,-506 591.65,-509.14 587.47,-511.75 583.07,-513.9"/>
<polygon fill="#63b8ff" stroke="#63b8ff" points="679.8,-359.96 679.01,-349.4 673.03,-358.15 679.8,-359.96"/>
</a>
</g>
</g>
<!-- Node12 -->
<g id="Node000012" class="node">
<title>Node12</title>
<g id="a_Node000012"><a xlink:href="matrix__identity_8c.html#a841c87975e3b38adb536d63ec35456e5" target="_top" xlink:title="Function that creates an identity matrix of size n 1 0 0 0 0 1 0 0 0 0 1 0 0 0 0 1.">
<polygon fill="white" stroke="#666666" points="582.5,-588.62 504.25,-588.62 504.25,-569.38 582.5,-569.38 582.5,-588.62"/>
<text text-anchor="middle" x="543.38" y="-575.12" font-family="Helvetica,sans-Serif" font-size="10.00">matrix_identity</text>
</a>
</g>
</g>
<!-- Node2&#45;&gt;Node12 -->
<g id="edge13_Node000002_Node000012" class="edge">
<title>Node2&#45;&gt;Node12</title>
<g id="a_edge13_Node000002_Node000012"><a xlink:title=" ">
<path fill="none" stroke="#63b8ff" d="M679.4,-359.27C673.45,-403.1 653.83,-504.15 595.25,-561 591.69,-564.46 587.42,-567.26 582.89,-569.52"/>
<polygon fill="#63b8ff" stroke="#63b8ff" points="682.85,-359.91 680.6,-349.56 675.9,-359.05 682.85,-359.91"/>
</a>
</g>
</g>
<!-- Node13 -->
<g id="Node000013" class="node">
<title>Node13</title>
<g id="a_Node000013"><a xlink:href="matrix__inverse_8c.html#a38c4dbf43aa6a2d976c3f77297ecd403" target="_top" xlink:title=" ">
<polygon fill="white" stroke="#666666" points="448.75,-374.62 369.75,-374.62 369.75,-355.38 448.75,-355.38 448.75,-374.62"/>
<text text-anchor="middle" x="409.25" y="-361.12" font-family="Helvetica,sans-Serif" font-size="10.00">matrix_inverse</text>
</a>
</g>
</g>
<!-- Node2&#45;&gt;Node13 -->
<g id="edge24_Node000002_Node000013" class="edge">
<title>Node2&#45;&gt;Node13</title>
<g id="a_edge24_Node000002_Node000013"><a xlink:title=" ">
<path fill="none" stroke="#63b8ff" d="M633.74,-342.77C581.06,-348.01 497.55,-356.32 448.91,-361.16"/>
<polygon fill="#63b8ff" stroke="#63b8ff" points="634.02,-346.26 643.63,-341.79 633.33,-339.3 634.02,-346.26"/>
</a>
</g>
</g>
<!-- Node22 -->
<g id="Node000022" class="node">
<title>Node22</title>
<g id="a_Node000022"><a xlink:href="matrix__multiple_8c.html#a6aa64cfb17a064fdea66fdf14a2a426e" target="_top" xlink:title=" ">
<polygon fill="white" stroke="#666666" points="584,-634.62 502.75,-634.62 502.75,-615.38 584,-615.38 584,-634.62"/>
<text text-anchor="middle" x="543.38" y="-621.12" font-family="Helvetica,sans-Serif" font-size="10.00">matrix_multiple</text>
</a>
</g>
</g>
<!-- Node2&#45;&gt;Node22 -->
<g id="edge25_Node000002_Node000022" class="edge">
<title>Node2&#45;&gt;Node22</title>
<g id="a_edge25_Node000002_Node000022"><a xlink:title=" ">
<path fill="none" stroke="#63b8ff" d="M679.97,-359.34C674.95,-407.35 656.74,-525.3 595.25,-598 589.12,-605.25 580.53,-610.84 572.15,-615"/>
<polygon fill="#63b8ff" stroke="#63b8ff" points="683.45,-359.79 680.9,-349.5 676.48,-359.13 683.45,-359.79"/>
</a>
</g>
</g>
<!-- Node24 -->
<g id="Node000024" class="node">
<title>Node24</title>
<g id="a_Node000024"><a xlink:href="matrix__sum_8c.html#a131fcf979705ebc7d09650c74adddfbb" target="_top" xlink:title=" ">
<polygon fill="white" stroke="#666666" points="443.5,-709.62 375,-709.62 375,-690.38 443.5,-690.38 443.5,-709.62"/>
<text text-anchor="middle" x="409.25" y="-696.12" font-family="Helvetica,sans-Serif" font-size="10.00">matrix_subs</text>
</a>
</g>
</g>
<!-- Node2&#45;&gt;Node24 -->
<g id="edge29_Node000002_Node000024" class="edge">
<title>Node2&#45;&gt;Node24</title>
<g id="a_edge29_Node000002_Node000024"><a xlink:title=" ">
<path fill="none" stroke="#63b8ff" d="M682.26,-359.18C682.38,-414.18 674.92,-562.85 595.25,-644 554.81,-685.19 485.2,-696.31 443.87,-699.17"/>
<polygon fill="#63b8ff" stroke="#63b8ff" points="685.76,-359.31 682.13,-349.36 678.76,-359.4 685.76,-359.31"/>
</a>
</g>
</g>
<!-- Node25 -->
<g id="Node000025" class="node">
<title>Node25</title>
<g id="a_Node000025"><a xlink:href="matrix__sum_8c.html#abd5e62f41c4289aea2951309cd148f61" target="_top" xlink:title=" ">
<polygon fill="white" stroke="#666666" points="576.5,-496.62 510.25,-496.62 510.25,-477.38 576.5,-477.38 576.5,-496.62"/>
<text text-anchor="middle" x="543.38" y="-483.12" font-family="Helvetica,sans-Serif" font-size="10.00">matrix_sum</text>
</a>
</g>
</g>
<!-- Node2&#45;&gt;Node25 -->
<g id="edge33_Node000002_Node000025" class="edge">
<title>Node2&#45;&gt;Node25</title>
<g id="a_edge33_Node000002_Node000025"><a xlink:title=" ">
<path fill="none" stroke="#63b8ff" d="M673.47,-358.13C660.75,-386.7 633.74,-438.9 595.25,-469 589.86,-473.21 583.41,-476.49 576.94,-479.01"/>
<polygon fill="#63b8ff" stroke="#63b8ff" points="676.59,-359.74 677.32,-349.17 670.16,-356.98 676.59,-359.74"/>
</a>
</g>
</g>
<!-- Node26 -->
<g id="Node000026" class="node">
<title>Node26</title>
<g id="a_Node000026"><a xlink:href="matrix__transpose_8c.html#a70a4847189f00eb79dd2d8f03fd8afa6" target="_top" xlink:title=" ">
<polygon fill="white" stroke="#666666" points="454.38,-337.62 364.12,-337.62 364.12,-318.38 454.38,-318.38 454.38,-337.62"/>
<text text-anchor="middle" x="409.25" y="-324.12" font-family="Helvetica,sans-Serif" font-size="10.00">matrix_transpose</text>
</a>
</g>
</g>
<!-- Node2&#45;&gt;Node26 -->
<g id="edge34_Node000002_Node000026" class="edge">
<title>Node2&#45;&gt;Node26</title>
<g id="a_edge34_Node000002_Node000026"><a xlink:title=" ">
<path fill="none" stroke="#63b8ff" d="M634.08,-328.88C621.5,-326.86 607.9,-325.02 595.25,-324 549.29,-320.3 537.6,-322.87 491.5,-324 479.5,-324.3 466.51,-324.84 454.51,-325.43"/>
<polygon fill="#63b8ff" stroke="#63b8ff" points="633.36,-332.31 643.8,-330.52 634.52,-325.4 633.36,-332.31"/>
</a>
</g>
</g>
<!-- Node27 -->
<g id="Node000027" class="node">
<title>Node27</title>
<g id="a_Node000027"><a xlink:href="parse__camera__light_8c.html#a00b9b6a4aadecaaf341d2fc409582b39" target="_top" xlink:title=" ">
<polygon fill="white" stroke="#666666" points="582.12,-195.62 504.62,-195.62 504.62,-176.38 582.12,-176.38 582.12,-195.62"/>
<text text-anchor="middle" x="543.38" y="-182.12" font-family="Helvetica,sans-Serif" font-size="10.00">parse_camera</text>
</a>
</g>
</g>
<!-- Node2&#45;&gt;Node27 -->
<g id="edge36_Node000002_Node000027" class="edge">
<title>Node2&#45;&gt;Node27</title>
<g id="a_edge36_Node000002_Node000027"><a xlink:title=" ">
<path fill="none" stroke="#63b8ff" d="M672.36,-317.66C658.77,-290.12 631.24,-240.85 595.25,-210 588.65,-204.34 580.49,-199.72 572.65,-196.09"/>
<polygon fill="#63b8ff" stroke="#63b8ff" points="669.19,-319.15 676.66,-326.66 675.51,-316.13 669.19,-319.15"/>
</a>
</g>
</g>
<!-- Node32 -->
<g id="Node000032" class="node">
<title>Node32</title>
<g id="a_Node000032"><a xlink:href="parse__objects_8c.html#a438a08a219ba336c395096067e52bb1b" target="_top" xlink:title=" ">
<polygon fill="white" stroke="#666666" points="582.5,-158.62 504.25,-158.62 504.25,-139.38 582.5,-139.38 582.5,-158.62"/>
<text text-anchor="middle" x="543.38" y="-145.12" font-family="Helvetica,sans-Serif" font-size="10.00">parse_cylinder</text>
</a>
</g>
</g>
<!-- Node2&#45;&gt;Node32 -->
<g id="edge41_Node000002_Node000032" class="edge">
<title>Node2&#45;&gt;Node32</title>
<g id="a_edge41_Node000002_Node000032"><a xlink:title=" ">
<path fill="none" stroke="#63b8ff" d="M676.6,-316.87C666.81,-281.05 642.18,-208.27 595.25,-167 591.59,-163.78 587.32,-161.13 582.84,-158.95"/>
<polygon fill="#63b8ff" stroke="#63b8ff" points="673.18,-317.62 679.08,-326.42 679.96,-315.87 673.18,-317.62"/>
</a>
</g>
</g>
<!-- Node33 -->
<g id="Node000033" class="node">
<title>Node33</title>
<g id="a_Node000033"><a xlink:href="parse__camera__light_8c.html#aaa10205c0950a79dd43566074de7b0a0" target="_top" xlink:title=" ">
<polygon fill="white" stroke="#666666" points="575,-84.62 511.75,-84.62 511.75,-65.38 575,-65.38 575,-84.62"/>
<text text-anchor="middle" x="543.38" y="-71.12" font-family="Helvetica,sans-Serif" font-size="10.00">parse_light</text>
</a>
</g>
</g>
<!-- Node2&#45;&gt;Node33 -->
<g id="edge43_Node000002_Node000033" class="edge">
<title>Node2&#45;&gt;Node33</title>
<g id="a_edge43_Node000002_Node000033"><a xlink:title=" ">
<path fill="none" stroke="#63b8ff" d="M674.95,-317.2C656.03,-259.55 603.59,-101.34 595.25,-93 589.82,-87.57 582.65,-83.77 575.41,-81.11"/>
<polygon fill="#63b8ff" stroke="#63b8ff" points="671.54,-318.04 677.98,-326.45 678.19,-315.86 671.54,-318.04"/>
</a>
</g>
</g>
<!-- Node34 -->
<g id="Node000034" class="node">
<title>Node34</title>
<g id="a_Node000034"><a xlink:href="parse__objects_8c.html#a7e641794acee51578d8539e361635c47" target="_top" xlink:title=" ">
<polygon fill="white" stroke="#666666" points="577.62,-121.62 509.12,-121.62 509.12,-102.38 577.62,-102.38 577.62,-121.62"/>
<text text-anchor="middle" x="543.38" y="-108.12" font-family="Helvetica,sans-Serif" font-size="10.00">parse_plane</text>
</a>
</g>
</g>
<!-- Node2&#45;&gt;Node34 -->
<g id="edge45_Node000002_Node000034" class="edge">
<title>Node2&#45;&gt;Node34</title>
<g id="a_edge45_Node000002_Node000034"><a xlink:title=" ">
<path fill="none" stroke="#63b8ff" d="M675.45,-317.09C660.85,-269.88 623.79,-157.04 595.25,-130 590.42,-125.43 584.36,-122 578.12,-119.45"/>
<polygon fill="#63b8ff" stroke="#63b8ff" points="672.09,-318.08 678.36,-326.62 678.78,-316.03 672.09,-318.08"/>
</a>
</g>
</g>
<!-- Node35 -->
<g id="Node000035" class="node">
<title>Node35</title>
<g id="a_Node000035"><a xlink:href="ray__position_8c.html#adc4013ba57492c59d6118105b0d177a6" target="_top" xlink:title=" ">
<polygon fill="white" stroke="#666666" points="307.88,-233.62 240.12,-233.62 240.12,-214.38 307.88,-214.38 307.88,-233.62"/>
<text text-anchor="middle" x="274" y="-220.12" font-family="Helvetica,sans-Serif" font-size="10.00">ray_position</text>
</a>
</g>
</g>
<!-- Node2&#45;&gt;Node35 -->
<g id="edge47_Node000002_Node000035" class="edge">
<title>Node2&#45;&gt;Node35</title>
<g id="a_edge47_Node000002_Node000035"><a xlink:title=" ">
<path fill="none" stroke="#63b8ff" d="M653.56,-322.71C636.97,-314.21 615.35,-303.96 595.25,-297 493.14,-261.64 366.72,-238.63 307.93,-229.06"/>
<polygon fill="#63b8ff" stroke="#63b8ff" points="651.85,-325.77 662.34,-327.3 655.1,-319.57 651.85,-325.77"/>
</a>
</g>
</g>
<!-- Node36 -->
<g id="Node000036" class="node">
<title>Node36</title>
<g id="a_Node000036"><a xlink:href="tuple__to__matrix_8c.html#a25317e2d0f5184cd0328d3cbf562ad46" target="_top" xlink:title=" ">
<polygon fill="white" stroke="#666666" points="584.38,-459.62 502.38,-459.62 502.38,-440.38 584.38,-440.38 584.38,-459.62"/>
<text text-anchor="middle" x="543.38" y="-446.12" font-family="Helvetica,sans-Serif" font-size="10.00">tuple_to_matrix</text>
</a>
</g>
</g>
<!-- Node2&#45;&gt;Node36 -->
<g id="edge49_Node000002_Node000036" class="edge">
<title>Node2&#45;&gt;Node36</title>
<g id="a_edge49_Node000002_Node000036"><a xlink:title=" ">
<path fill="none" stroke="#63b8ff" d="M668.55,-357.22C653.18,-378.27 625.95,-411.73 595.25,-432 590.56,-435.1 585.27,-437.73 579.93,-439.95"/>
<polygon fill="#63b8ff" stroke="#63b8ff" points="671.29,-359.4 674.23,-349.23 665.58,-355.35 671.29,-359.4"/>
</a>
</g>
</g>
<!-- Node6 -->
<g id="Node000006" class="node">
<title>Node6</title>
<g id="a_Node000006"><a xlink:href="prepare__computations_8c.html#a260bb84a41e41fe52951d598804fb2fe" target="_top" xlink:title=" ">
<polygon fill="white" stroke="#666666" points="185,-308.62 73,-308.62 73,-289.38 185,-289.38 185,-308.62"/>
<text text-anchor="middle" x="129" y="-295.12" font-family="Helvetica,sans-Serif" font-size="10.00">prepare_computations</text>
</a>
</g>
</g>
<!-- Node5&#45;&gt;Node6 -->
<g id="edge5_Node000005_Node000006" class="edge">
<title>Node5&#45;&gt;Node6</title>
<g id="a_edge5_Node000005_Node000006"><a xlink:title=" ">
<path fill="none" stroke="#63b8ff" d="M362.16,-292.33C313.59,-293.72 237.1,-295.92 185.31,-297.41"/>
<polygon fill="#63b8ff" stroke="#63b8ff" points="362.16,-295.83 372.06,-292.04 361.96,-288.83 362.16,-295.83"/>
</a>
</g>
</g>
<!-- Node7 -->
<g id="Node000007" class="node">
<title>Node7</title>
<g id="a_Node000007"><a xlink:href="ray__clone_8c.html#a2cec923765c270860af3d023b8236564" target="_top" xlink:title=" ">
<polygon fill="white" stroke="#666666" points="302.62,-270.62 245.38,-270.62 245.38,-251.38 302.62,-251.38 302.62,-270.62"/>
<text text-anchor="middle" x="274" y="-257.12" font-family="Helvetica,sans-Serif" font-size="10.00">ray_clone</text>
</a>
</g>
</g>
<!-- Node5&#45;&gt;Node7 -->
<g id="edge6_Node000005_Node000007" class="edge">
<title>Node5&#45;&gt;Node7</title>
<g id="a_edge6_Node000005_Node000007"><a xlink:title=" ">
<path fill="none" stroke="#63b8ff" d="M362.58,-280.72C342.7,-276.24 320.06,-271.14 302.78,-267.25"/>
<polygon fill="#63b8ff" stroke="#63b8ff" points="361.59,-284.08 372.11,-282.86 363.12,-277.25 361.59,-284.08"/>
</a>
</g>
</g>
<!-- Node8 -->
<g id="Node000008" class="node">
<title>Node8</title>
<g id="a_Node000008"><a xlink:href="reflect_8c.html#a9a14a2740fe14a6f96d7b3ef0cffeb61" target="_top" xlink:title=" ">
<polygon fill="white" stroke="#666666" points="295.12,-634.62 252.88,-634.62 252.88,-615.38 295.12,-615.38 295.12,-634.62"/>
<text text-anchor="middle" x="274" y="-621.12" font-family="Helvetica,sans-Serif" font-size="10.00">reflect</text>
</a>
</g>
</g>
<!-- Node5&#45;&gt;Node8 -->
<g id="edge7_Node000005_Node000008" class="edge">
<title>Node5&#45;&gt;Node8</title>
<g id="a_edge7_Node000005_Node000008"><a xlink:title=" ">
<path fill="none" stroke="#63b8ff" d="M364.43,-307.51C363.93,-307.99 363.46,-308.49 363,-309 278.32,-403.26 274.36,-572.38 274.78,-615.02"/>
<polygon fill="#63b8ff" stroke="#63b8ff" points="366.26,-310.5 372.22,-301.74 362.1,-304.87 366.26,-310.5"/>
</a>
</g>
</g>
<!-- Node10 -->
<g id="Node000010" class="node">
<title>Node10</title>
<g id="a_Node000010"><a xlink:href="sphere__normal_8c.html#a7f90156067fc9db4452ca1b058c976e8" target="_top" xlink:title=" ">
<polygon fill="white" stroke="#666666" points="313.88,-346.62 234.12,-346.62 234.12,-327.38 313.88,-327.38 313.88,-346.62"/>
<text text-anchor="middle" x="274" y="-333.12" font-family="Helvetica,sans-Serif" font-size="10.00">sphere_normal</text>
</a>
</g>
</g>
<!-- Node5&#45;&gt;Node10 -->
<g id="edge9_Node000005_Node000010" class="edge">
<title>Node5&#45;&gt;Node10</title>
<g id="a_edge9_Node000005_Node000010"><a xlink:title=" ">
<path fill="none" stroke="#63b8ff" d="M368.34,-304.78C347.71,-311.9 322.99,-320.43 304.17,-326.93"/>
<polygon fill="#63b8ff" stroke="#63b8ff" points="369.27,-308.16 377.58,-301.59 366.98,-301.54 369.27,-308.16"/>
</a>
</g>
</g>
<!-- Node9 -->
<g id="Node000009" class="node">
<title>Node9</title>
<g id="a_Node000009"><a xlink:href="lighting_8c.html#ad035411c7e850248af38e7d68bb0ddd4" target="_top" xlink:title=" ">
<polygon fill="white" stroke="#666666" points="152.38,-708.62 105.62,-708.62 105.62,-689.38 152.38,-689.38 152.38,-708.62"/>
<text text-anchor="middle" x="129" y="-695.12" font-family="Helvetica,sans-Serif" font-size="10.00">lighting</text>
</a>
</g>
</g>
<!-- Node8&#45;&gt;Node9 -->
<g id="edge8_Node000008_Node000009" class="edge">
<title>Node8&#45;&gt;Node9</title>
<g id="a_edge8_Node000008_Node000009"><a xlink:title=" ">
<path fill="none" stroke="#63b8ff" d="M241.65,-633.14C234.55,-635.7 227.27,-638.96 221,-643 201.45,-655.61 204.66,-668.56 185,-681 175.24,-687.18 163.15,-691.44 152.79,-694.26"/>
<polygon fill="#63b8ff" stroke="#63b8ff" points="242.58,-636.51 251.03,-630.12 240.44,-629.85 242.58,-636.51"/>
</a>
</g>
</g>
<!-- Node10&#45;&gt;Node6 -->
<g id="edge10_Node000010_Node000006" class="edge">
<title>Node10&#45;&gt;Node6</title>
<g id="a_edge10_Node000010_Node000006"><a xlink:title=" ">
<path fill="none" stroke="#63b8ff" d="M224.18,-324.03C205.68,-319.11 184.93,-313.6 167.63,-309"/>
<polygon fill="#63b8ff" stroke="#63b8ff" points="223.03,-327.34 233.59,-326.53 224.83,-320.58 223.03,-327.34"/>
</a>
</g>
</g>
<!-- Node11&#45;&gt;Node11 -->
<g id="edge12_Node000011_Node000011" class="edge">
<title>Node11&#45;&gt;Node11</title>
<g id="a_edge12_Node000011_Node000011"><a xlink:title=" ">
<path fill="none" stroke="#63b8ff" d="M567.18,-545.03C564.2,-548.9 556.27,-551.62 543.38,-551.62 519.8,-551.62 512.8,-542.52 522.38,-533.91"/>
<polygon fill="#63b8ff" stroke="#63b8ff" points="570.59,-544.22 564.74,-535.38 563.8,-545.93 570.59,-544.22"/>
</a>
</g>
</g>
<!-- Node12&#45;&gt;Node13 -->
<g id="edge14_Node000012_Node000013" class="edge">
<title>Node12&#45;&gt;Node13</title>
<g id="a_edge14_Node000012_Node000013"><a xlink:title=" ">
<path fill="none" stroke="#63b8ff" d="M494.55,-564.09C493.47,-563.12 492.45,-562.09 491.5,-561 438.57,-500.06 507.24,-444.95 455.5,-383 452.79,-379.76 449.41,-377.09 445.73,-374.91"/>
<polygon fill="#63b8ff" stroke="#63b8ff" points="492.29,-566.78 502.53,-569.48 496.21,-560.98 492.29,-566.78"/>
</a>
</g>
</g>
<!-- Node16 -->
<g id="Node000016" class="node">
<title>Node16</title>
<g id="a_Node000016"><a xlink:href="scale_8c.html#a48fd6dec69f122197f7c6b5967c1319c" target="_top" xlink:title=" ">
<polygon fill="white" stroke="#666666" points="448.38,-448.62 370.12,-448.62 370.12,-429.38 448.38,-429.38 448.38,-448.62"/>
<text text-anchor="middle" x="409.25" y="-435.12" font-family="Helvetica,sans-Serif" font-size="10.00">object_scaling</text>
</a>
</g>
</g>
<!-- Node12&#45;&gt;Node16 -->
<g id="edge18_Node000012_Node000016" class="edge">
<title>Node12&#45;&gt;Node16</title>
<g id="a_edge18_Node000012_Node000016"><a xlink:title=" ">
<path fill="none" stroke="#63b8ff" d="M494.31,-563.56C493.33,-562.75 492.39,-561.9 491.5,-561 457.03,-526.3 489.29,-492.36 455.5,-457 452.46,-453.82 448.79,-451.19 444.87,-449.02"/>
<polygon fill="#63b8ff" stroke="#63b8ff" points="492.41,-566.5 502.72,-568.95 496.19,-560.61 492.41,-566.5"/>
</a>
</g>
</g>
<!-- Node17 -->
<g id="Node000017" class="node">
<title>Node17</title>
<g id="a_Node000017"><a xlink:href="translate_8c.html#a520d09bd7d70f7e5ab59d81bbb7468d9" target="_top" xlink:title=" ">
<polygon fill="white" stroke="#666666" points="455.5,-411.62 363,-411.62 363,-392.38 455.5,-392.38 455.5,-411.62"/>
<text text-anchor="middle" x="409.25" y="-398.12" font-family="Helvetica,sans-Serif" font-size="10.00">object_translation</text>
</a>
</g>
</g>
<!-- Node12&#45;&gt;Node17 -->
<g id="edge19_Node000012_Node000017" class="edge">
<title>Node12&#45;&gt;Node17</title>
<g id="a_edge19_Node000012_Node000017"><a xlink:title=" ">
<path fill="none" stroke="#63b8ff" d="M494.62,-564.02C493.52,-563.08 492.48,-562.07 491.5,-561 447.87,-513.25 498.2,-468.58 455.5,-420 452.71,-416.82 449.28,-414.2 445.57,-412.04"/>
<polygon fill="#63b8ff" stroke="#63b8ff" points="492.42,-566.76 502.7,-569.34 496.27,-560.92 492.42,-566.76"/>
</a>
</g>
</g>
<!-- Node18 -->
<g id="Node000018" class="node">
<title>Node18</title>
<g id="a_Node000018"><a xlink:href="rotate_8c.html#a2a9331f58a373dad2ac3c24794183cc3" target="_top" xlink:title="Creates a 4x4 rotation matrix around the X axis (left/right)">
<polygon fill="white" stroke="#666666" points="438.25,-596.62 380.25,-596.62 380.25,-577.38 438.25,-577.38 438.25,-596.62"/>
<text text-anchor="middle" x="409.25" y="-583.12" font-family="Helvetica,sans-Serif" font-size="10.00">rotation_x</text>
</a>
</g>
</g>
<!-- Node12&#45;&gt;Node18 -->
<g id="edge20_Node000012_Node000018" class="edge">
<title>Node12&#45;&gt;Node18</title>
<g id="a_edge20_Node000012_Node000018"><a xlink:title=" ">
<path fill="none" stroke="#63b8ff" d="M492.44,-582.02C474.22,-583.13 454.26,-584.34 438.57,-585.29"/>
<polygon fill="#63b8ff" stroke="#63b8ff" points="492.52,-585.52 502.29,-581.43 492.1,-578.54 492.52,-585.52"/>
</a>
</g>
</g>
<!-- Node19 -->
<g id="Node000019" class="node">
<title>Node19</title>
<g id="a_Node000019"><a xlink:href="rotate_8c.html#a37fb509db7d1ecb9a2dc830e8d6c4d3c" target="_top" xlink:title="Creates a 4x4 rotation matrix around the Y axis (front/back)">
<polygon fill="white" stroke="#666666" points="438.25,-559.62 380.25,-559.62 380.25,-540.38 438.25,-540.38 438.25,-559.62"/>
<text text-anchor="middle" x="409.25" y="-546.12" font-family="Helvetica,sans-Serif" font-size="10.00">rotation_y</text>
</a>
</g>
</g>
<!-- Node12&#45;&gt;Node19 -->
<g id="edge21_Node000012_Node000019" class="edge">
<title>Node12&#45;&gt;Node19</title>
<g id="a_edge21_Node000012_Node000019"><a xlink:title=" ">
<path fill="none" stroke="#63b8ff" d="M492.7,-568.1C474.41,-564.08 454.34,-559.68 438.57,-556.22"/>
<polygon fill="#63b8ff" stroke="#63b8ff" points="491.81,-571.48 502.33,-570.21 493.31,-564.65 491.81,-571.48"/>
</a>
</g>
</g>
<!-- Node20 -->
<g id="Node000020" class="node">
<title>Node20</title>
<g id="a_Node000020"><a xlink:href="rotate_8c.html#af3cde01a934f6c4b452608316f91bc2f" target="_top" xlink:title="Creates a 4x4 rotation matrix around the Z axis (vertical)">
<polygon fill="white" stroke="#666666" points="438.25,-522.62 380.25,-522.62 380.25,-503.38 438.25,-503.38 438.25,-522.62"/>
<text text-anchor="middle" x="409.25" y="-509.12" font-family="Helvetica,sans-Serif" font-size="10.00">rotation_z</text>
</a>
</g>
</g>
<!-- Node12&#45;&gt;Node20 -->
<g id="edge22_Node000012_Node000020" class="edge">
<title>Node12&#45;&gt;Node20</title>
<g id="a_edge22_Node000012_Node000020"><a xlink:title=" ">
<path fill="none" stroke="#63b8ff" d="M498.2,-564.49C495.9,-563.39 493.65,-562.22 491.5,-561 473.4,-550.7 473.4,-541.65 455.5,-531 450.27,-527.89 444.4,-525.1 438.67,-522.71"/>
<polygon fill="#63b8ff" stroke="#63b8ff" points="496.55,-567.59 507.12,-568.32 499.32,-561.16 496.55,-567.59"/>
</a>
</g>
</g>
<!-- Node21 -->
<g id="Node000021" class="node">
<title>Node21</title>
<g id="a_Node000021"><a xlink:href="shearing_8c.html#ab7ead1278f06784d5d1bb0925af42fc3" target="_top" xlink:title="This function is used to shear given objects.">
<polygon fill="white" stroke="#666666" points="435.62,-485.62 382.88,-485.62 382.88,-466.38 435.62,-466.38 435.62,-485.62"/>
<text text-anchor="middle" x="409.25" y="-472.12" font-family="Helvetica,sans-Serif" font-size="10.00">shearing</text>
</a>
</g>
</g>
<!-- Node12&#45;&gt;Node21 -->
<g id="edge23_Node000012_Node000021" class="edge">
<title>Node12&#45;&gt;Node21</title>
<g id="a_edge23_Node000012_Node000021"><a xlink:title=" ">
<path fill="none" stroke="#63b8ff" d="M494.38,-563.28C493.39,-562.55 492.42,-561.79 491.5,-561 465.84,-538.99 480.73,-516.5 455.5,-494 449.95,-489.05 442.86,-485.37 435.96,-482.68"/>
<polygon fill="#63b8ff" stroke="#63b8ff" points="492.3,-566.11 502.69,-568.2 495.87,-560.09 492.3,-566.11"/>
</a>
</g>
</g>
<!-- Node13&#45;&gt;Node10 -->
<g id="edge17_Node000013_Node000010" class="edge">
<title>Node13&#45;&gt;Node10</title>
<g id="a_edge17_Node000013_Node000010"><a xlink:title=" ">
<path fill="none" stroke="#63b8ff" d="M358.44,-354.53C343.82,-351.46 328.04,-348.15 314.18,-345.23"/>
<polygon fill="#63b8ff" stroke="#63b8ff" points="357.36,-357.88 367.87,-356.51 358.8,-351.03 357.36,-357.88"/>
</a>
</g>
</g>
<!-- Node14 -->
<g id="Node000014" class="node">
<title>Node14</title>
<g id="a_Node000014"><a xlink:href="ray__intersect_8c.html#a20cc82316845ecb42e8e8c218ff72a73" target="_top" xlink:title=" ">
<polygon fill="white" stroke="#666666" points="327,-671.62 221,-671.62 221,-652.38 327,-652.38 327,-671.62"/>
<text text-anchor="middle" x="274" y="-658.12" font-family="Helvetica,sans-Serif" font-size="10.00">ray_intersect_sphere</text>
</a>
</g>
</g>
<!-- Node13&#45;&gt;Node14 -->
<g id="edge15_Node000013_Node000014" class="edge">
<title>Node13&#45;&gt;Node14</title>
<g id="a_edge15_Node000013_Node000014"><a xlink:title=" ">
<path fill="none" stroke="#63b8ff" d="M363.48,-382.41C363.32,-382.6 363.16,-382.8 363,-383 290.78,-475.17 401.29,-553.49 327,-644 324.33,-647.25 321.05,-649.91 317.43,-652.1"/>
<polygon fill="#63b8ff" stroke="#63b8ff" points="365.65,-385.15 370.98,-376 361.11,-379.83 365.65,-385.15"/>
</a>
</g>
</g>
<!-- Node15 -->
<g id="Node000015" class="node">
<title>Node15</title>
<g id="a_Node000015"><a xlink:href="ray__world__intersect_8c.html#a2e629895d43f70cc7814ef4b0c89cf0d" target="_top" xlink:title=" ">
<polygon fill="white" stroke="#666666" points="179,-671.62 79,-671.62 79,-652.38 179,-652.38 179,-671.62"/>
<text text-anchor="middle" x="129" y="-658.12" font-family="Helvetica,sans-Serif" font-size="10.00">ray_intersect_world</text>
</a>
</g>
</g>
<!-- Node14&#45;&gt;Node15 -->
<g id="edge16_Node000014_Node000015" class="edge">
<title>Node14&#45;&gt;Node15</title>
<g id="a_edge16_Node000014_Node000015"><a xlink:title=" ">
<path fill="none" stroke="#63b8ff" d="M209.27,-662C199.15,-662 188.82,-662 179.1,-662"/>
<polygon fill="#63b8ff" stroke="#63b8ff" points="209.05,-665.5 219.05,-662 209.05,-658.5 209.05,-665.5"/>
</a>
</g>
</g>
<!-- Node22&#45;&gt;Node10 -->
<g id="edge28_Node000022_Node000010" class="edge">
<title>Node22&#45;&gt;Node10</title>
<g id="a_edge28_Node000022_Node000010"><a xlink:title=" ">
<path fill="none" stroke="#63b8ff" d="M490.98,-633.43C451.72,-636.88 398.49,-634.71 363,-606 278.57,-537.71 274.33,-386.85 274.75,-346.88"/>
<polygon fill="#63b8ff" stroke="#63b8ff" points="491.34,-636.91 500.92,-632.39 490.61,-629.95 491.34,-636.91"/>
</a>
</g>
</g>
<!-- Node23 -->
<g id="Node000023" class="node">
<title>Node23</title>
<g id="a_Node000023"><a xlink:href="ray__transform_8c.html#a4b22c1091f5143dc209773a18fd27f15" target="_top" xlink:title=" ">
<polygon fill="white" stroke="#666666" points="446.88,-672.62 371.62,-672.62 371.62,-653.38 446.88,-653.38 446.88,-672.62"/>
<text text-anchor="middle" x="409.25" y="-659.12" font-family="Helvetica,sans-Serif" font-size="10.00">ray_transform</text>
</a>
</g>
</g>
<!-- Node22&#45;&gt;Node23 -->
<g id="edge26_Node000022_Node000023" class="edge">
<title>Node22&#45;&gt;Node23</title>
<g id="a_edge26_Node000022_Node000023"><a xlink:title=" ">
<path fill="none" stroke="#63b8ff" d="M496.54,-638.18C479.64,-643.04 460.78,-648.47 445.02,-653"/>
<polygon fill="#63b8ff" stroke="#63b8ff" points="497.22,-641.63 505.86,-635.5 495.28,-634.9 497.22,-641.63"/>
</a>
</g>
</g>
<!-- Node23&#45;&gt;Node14 -->
<g id="edge27_Node000023_Node000014" class="edge">
<title>Node23&#45;&gt;Node14</title>
<g id="a_edge27_Node000023_Node000014"><a xlink:title=" ">
<path fill="none" stroke="#63b8ff" d="M359.96,-662.64C349.36,-662.56 338.1,-662.47 327.35,-662.39"/>
<polygon fill="#63b8ff" stroke="#63b8ff" points="359.59,-666.13 369.62,-662.71 359.65,-659.14 359.59,-666.13"/>
</a>
</g>
</g>
<!-- Node24&#45;&gt;Node8 -->
<g id="edge32_Node000024_Node000008" class="edge">
<title>Node24&#45;&gt;Node8</title>
<g id="a_edge32_Node000024_Node000008"><a xlink:title=" ">
<path fill="none" stroke="#63b8ff" d="M367.79,-685.02C366.14,-684.06 364.53,-683.05 363,-682 343.56,-668.64 346.74,-655.91 327,-643 317.49,-636.78 305.58,-632.45 295.56,-629.6"/>
<polygon fill="#63b8ff" stroke="#63b8ff" points="365.74,-687.9 376.25,-689.3 368.91,-681.66 365.74,-687.9"/>
</a>
</g>
</g>
<!-- Node24&#45;&gt;Node9 -->
<g id="edge30_Node000024_Node000009" class="edge">
<title>Node24&#45;&gt;Node9</title>
<g id="a_edge30_Node000024_Node000009"><a xlink:title=" ">
<path fill="none" stroke="#63b8ff" d="M363.28,-699.84C303.12,-699.62 198.73,-699.25 152.8,-699.08"/>
<polygon fill="#63b8ff" stroke="#63b8ff" points="363.16,-703.34 373.17,-699.87 363.19,-696.34 363.16,-703.34"/>
</a>
</g>
</g>
<!-- Node24&#45;&gt;Node14 -->
<g id="edge31_Node000024_Node000014" class="edge">
<title>Node24&#45;&gt;Node14</title>
<g id="a_edge31_Node000024_Node000014"><a xlink:title=" ">
<path fill="none" stroke="#63b8ff" d="M363.63,-687.28C346.33,-682.34 326.8,-676.77 310.48,-672.12"/>
<polygon fill="#63b8ff" stroke="#63b8ff" points="362.59,-690.62 373.17,-690 364.51,-683.89 362.59,-690.62"/>
</a>
</g>
</g>
<!-- Node26&#45;&gt;Node10 -->
<g id="edge35_Node000026_Node000010" class="edge">
<title>Node26&#45;&gt;Node10</title>
<g id="a_edge35_Node000026_Node000010"><a xlink:title=" ">
<path fill="none" stroke="#63b8ff" d="M352.72,-331.75C339.8,-332.62 326.3,-333.53 314.25,-334.35"/>
<polygon fill="#63b8ff" stroke="#63b8ff" points="352.63,-335.26 362.37,-331.1 352.16,-328.28 352.63,-335.26"/>
</a>
</g>
</g>
<!-- Node28 -->
<g id="Node000028" class="node">
<title>Node28</title>
<g id="a_Node000028"><a xlink:href="parse__main_8c.html#a92aa268ea4b3d5c808364ca73d913cbe" target="_top" xlink:title=" ">
<polygon fill="white" stroke="#666666" points="453.25,-103.62 365.25,-103.62 365.25,-84.38 453.25,-84.38 453.25,-103.62"/>
<text text-anchor="middle" x="409.25" y="-90.12" font-family="Helvetica,sans-Serif" font-size="10.00">parse_func_redir</text>
</a>
</g>
</g>
<!-- Node27&#45;&gt;Node28 -->
<g id="edge37_Node000027_Node000028" class="edge">
<title>Node27&#45;&gt;Node28</title>
<g id="a_edge37_Node000027_Node000028"><a xlink:title=" ">
<path fill="none" stroke="#63b8ff" d="M497.41,-171.24C495.38,-170.22 493.4,-169.14 491.5,-168 461.38,-149.97 432.58,-119.63 418.77,-103.99"/>
<polygon fill="#63b8ff" stroke="#63b8ff" points="495.92,-174.41 506.48,-175.29 498.77,-168.02 495.92,-174.41"/>
</a>
</g>
</g>
<!-- Node28&#45;&gt;Node29 -->
<g id="edge38_Node000028_Node000029" class="edge">
<title>Node28&#45;&gt;Node29</title>
<g id="a_edge38_Node000028_Node000029"><a xlink:title=" ">
<path fill="none" stroke="#63b8ff" d="M373.88,-79.56C350.43,-69.7 319.95,-56.89 299.07,-48.11"/>
<polygon fill="#63b8ff" stroke="#63b8ff" points="372.46,-82.75 383.03,-83.4 375.17,-76.3 372.46,-82.75"/>
</a>
</g>
</g>
<!-- Node30 -->
<g id="Node000030" class="node">
<title>Node30</title>
<g id="a_Node000030"><a xlink:href="parse__main_8c.html#a62c4de2f960942eba61e7de12c387ae4" target="_top" xlink:title="Entry function to parsing .rt file where the file is attempted to be opened, t_parse structure is ini...">
<polygon fill="white" stroke="#666666" points="167.75,-47.62 90.25,-47.62 90.25,-28.38 167.75,-28.38 167.75,-47.62"/>
<text text-anchor="middle" x="129" y="-34.12" font-family="Helvetica,sans-Serif" font-size="10.00">parse_rt_main</text>
</a>
</g>
</g>
<!-- Node29&#45;&gt;Node30 -->
<g id="edge39_Node000029_Node000030" class="edge">
<title>Node29&#45;&gt;Node30</title>
<g id="a_edge39_Node000029_Node000030"><a xlink:title=" ">
<path fill="none" stroke="#63b8ff" d="M214.57,-38C198.91,-38 182.38,-38 168.13,-38"/>
<polygon fill="#63b8ff" stroke="#63b8ff" points="214.27,-41.5 224.27,-38 214.27,-34.5 214.27,-41.5"/>
</a>
</g>
</g>
<!-- Node31 -->
<g id="Node000031" class="node">
<title>Node31</title>
<g id="a_Node000031"><a xlink:href="mini__ray_8c.html#a0c99d968a34e803d378692bde2e3f18f" target="_top" xlink:title=" ">
<polygon fill="white" stroke="#666666" points="37,-47.62 0,-47.62 0,-28.38 37,-28.38 37,-47.62"/>
<text text-anchor="middle" x="18.5" y="-34.12" font-family="Helvetica,sans-Serif" font-size="10.00">main</text>
</a>
</g>
</g>
<!-- Node30&#45;&gt;Node31 -->
<g id="edge40_Node000030_Node000031" class="edge">
<title>Node30&#45;&gt;Node31</title>
<g id="a_edge40_Node000030_Node000031"><a xlink:title=" ">
<path fill="none" stroke="#63b8ff" d="M78.85,-38C63.98,-38 48.59,-38 37.21,-38"/>
<polygon fill="#63b8ff" stroke="#63b8ff" points="78.54,-41.5 88.54,-38 78.54,-34.5 78.54,-41.5"/>
</a>
</g>
</g>
<!-- Node32&#45;&gt;Node28 -->
<g id="edge42_Node000032_Node000028" class="edge">
<title>Node32&#45;&gt;Node28</title>
<g id="a_edge42_Node000032_Node000028"><a xlink:title=" ">
<path fill="none" stroke="#63b8ff" d="M501.99,-135.07C498.42,-133.74 494.89,-132.37 491.5,-131 470.66,-122.59 447.36,-111.83 431.08,-104.09"/>
<polygon fill="#63b8ff" stroke="#63b8ff" points="500.6,-138.3 511.2,-138.44 503.01,-131.72 500.6,-138.3"/>
</a>
</g>
</g>
<!-- Node33&#45;&gt;Node28 -->
<g id="edge44_Node000033_Node000028" class="edge">
<title>Node33&#45;&gt;Node28</title>
<g id="a_edge44_Node000033_Node000028"><a xlink:title=" ">
<path fill="none" stroke="#63b8ff" d="M500.4,-81.04C485.45,-83.19 468.59,-85.61 453.54,-87.78"/>
<polygon fill="#63b8ff" stroke="#63b8ff" points="500.5,-84.56 509.9,-79.67 499.5,-77.63 500.5,-84.56"/>
</a>
</g>
</g>
<!-- Node34&#45;&gt;Node28 -->
<g id="edge46_Node000034_Node000028" class="edge">
<title>Node34&#45;&gt;Node28</title>
<g id="a_edge46_Node000034_Node000028"><a xlink:title=" ">
<path fill="none" stroke="#63b8ff" d="M497.61,-105.9C483.32,-103.95 467.54,-101.81 453.37,-99.87"/>
<polygon fill="#63b8ff" stroke="#63b8ff" points="496.81,-109.32 507.19,-107.21 497.76,-102.39 496.81,-109.32"/>
</a>
</g>
</g>
<!-- Node35&#45;&gt;Node6 -->
<g id="edge48_Node000035_Node000006" class="edge">
<title>Node35&#45;&gt;Node6</title>
<g id="a_edge48_Node000035_Node000006"><a xlink:title=" ">
<path fill="none" stroke="#63b8ff" d="M229.92,-238.05C226.87,-239.31 223.87,-240.63 221,-242 192.08,-255.84 160.94,-276.82 143.62,-289.09"/>
<polygon fill="#63b8ff" stroke="#63b8ff" points="230.88,-241.43 238.95,-234.57 228.36,-234.9 230.88,-241.43"/>
</a>
</g>
</g>
<!-- Node37&#45;&gt;Node27 -->
<g id="edge51_Node000037_Node000027" class="edge">
<title>Node37&#45;&gt;Node27</title>
<g id="a_edge51_Node000037_Node000027"><a xlink:title=" ">
<path fill="none" stroke="#63b8ff" d="M640.8,-138.41C637.52,-139.86 634.3,-141.4 631.25,-143 614,-152.05 612.59,-159.12 595.25,-168 589.5,-170.95 583.15,-173.61 576.94,-175.94"/>
<polygon fill="#63b8ff" stroke="#63b8ff" points="642.01,-141.7 649.91,-134.64 639.33,-135.23 642.01,-141.7"/>
</a>
</g>
</g>
<!-- Node37&#45;&gt;Node32 -->
<g id="edge52_Node000037_Node000032" class="edge">
<title>Node37&#45;&gt;Node32</title>
<g id="a_edge52_Node000037_Node000032"><a xlink:title=" ">
<path fill="none" stroke="#63b8ff" d="M620.01,-135.24C607.38,-137.53 594.44,-139.89 582.9,-141.99"/>
<polygon fill="#63b8ff" stroke="#63b8ff" points="620.29,-138.74 629.5,-133.51 619.03,-131.86 620.29,-138.74"/>
</a>
</g>
</g>
<!-- Node37&#45;&gt;Node33 -->
<g id="edge53_Node000037_Node000033" class="edge">
<title>Node37&#45;&gt;Node33</title>
<g id="a_edge53_Node000037_Node000033"><a xlink:title=" ">
<path fill="none" stroke="#63b8ff" d="M643.27,-110.17C628.29,-104.8 610.97,-98.6 595.25,-93 588.01,-90.42 580.19,-87.65 572.9,-85.07"/>
<polygon fill="#63b8ff" stroke="#63b8ff" points="641.69,-113.32 652.29,-113.41 644.06,-106.74 641.69,-113.32"/>
</a>
</g>
</g>
<!-- Node37&#45;&gt;Node34 -->
<g id="edge54_Node000037_Node000034" class="edge">
<title>Node37&#45;&gt;Node34</title>
<g id="a_edge54_Node000037_Node000034"><a xlink:title=" ">
<path fill="none" stroke="#63b8ff" d="M619.59,-118.57C605.21,-117.31 590.44,-116.02 577.84,-114.92"/>
<polygon fill="#63b8ff" stroke="#63b8ff" points="619.21,-122.05 629.48,-119.43 619.82,-115.08 619.21,-122.05"/>
</a>
</g>
</g>
<!-- Node38&#45;&gt;Node32 -->
<g id="edge58_Node000038_Node000032" class="edge">
<title>Node38&#45;&gt;Node32</title>
<g id="a_edge58_Node000038_Node000032"><a xlink:title=" ">
<path fill="none" stroke="#63b8ff" d="M651.98,-93.06C645.07,-96.79 637.82,-100.9 631.25,-105 614.51,-115.45 612.73,-121.84 595.25,-131 589.61,-133.96 583.37,-136.61 577.26,-138.92"/>
<polygon fill="#63b8ff" stroke="#63b8ff" points="653.19,-96.38 660.4,-88.62 649.92,-90.19 653.19,-96.38"/>
</a>
</g>
</g>
<!-- Node38&#45;&gt;Node33 -->
<g id="edge59_Node000038_Node000033" class="edge">
<title>Node38&#45;&gt;Node33</title>
<g id="a_edge59_Node000038_Node000033"><a xlink:title=" ">
<path fill="none" stroke="#63b8ff" d="M623.52,-76.73C606.88,-76.36 589.39,-75.98 575.11,-75.67"/>
<polygon fill="#63b8ff" stroke="#63b8ff" points="623.27,-80.22 633.34,-76.94 623.42,-73.23 623.27,-80.22"/>
</a>
</g>
</g>
<!-- Node38&#45;&gt;Node34 -->
<g id="edge60_Node000038_Node000034" class="edge">
<title>Node38&#45;&gt;Node34</title>
<g id="a_edge60_Node000038_Node000034"><a xlink:title=" ">
<path fill="none" stroke="#63b8ff" d="M629.76,-90.87C612.38,-95.17 593.49,-99.84 577.9,-103.7"/>
<polygon fill="#63b8ff" stroke="#63b8ff" points="630.57,-94.27 639.44,-88.47 628.89,-87.48 630.57,-94.27"/>
</a>
</g>
</g>
<!-- Node39 -->
<g id="Node000039" class="node">
<title>Node39</title>
<g id="a_Node000039"><a xlink:href="parse__camera__light_8c.html#a0b2ac9083d47f8bf5eed5fbbb5576a19" target="_top" xlink:title=" ">
<polygon fill="white" stroke="#666666" points="583.25,-47.62 503.5,-47.62 503.5,-28.38 583.25,-28.38 583.25,-47.62"/>
<text text-anchor="middle" x="543.38" y="-34.12" font-family="Helvetica,sans-Serif" font-size="10.00">parse_ambient</text>
</a>
</g>
</g>
<!-- Node38&#45;&gt;Node39 -->
<g id="edge56_Node000038_Node000039" class="edge">
<title>Node38&#45;&gt;Node39</title>
<g id="a_edge56_Node000038_Node000039"><a xlink:title=" ">
<path fill="none" stroke="#63b8ff" d="M636.17,-64.73C617.55,-59.31 596.35,-53.14 579.03,-48.09"/>
<polygon fill="#63b8ff" stroke="#63b8ff" points="635.05,-68.05 645.63,-67.48 637.01,-61.33 635.05,-68.05"/>
</a>
</g>
</g>
<!-- Node39&#45;&gt;Node28 -->
<g id="edge57_Node000039_Node000028" class="edge">
<title>Node39&#45;&gt;Node28</title>
<g id="a_edge57_Node000039_Node000028"><a xlink:title=" ">
<path fill="none" stroke="#63b8ff" d="M501.83,-51.94C498.32,-53.27 494.84,-54.63 491.5,-56 470.32,-64.68 446.67,-75.92 430.38,-83.92"/>
<polygon fill="#63b8ff" stroke="#63b8ff" points="502.73,-55.34 510.91,-48.61 500.32,-48.77 502.73,-55.34"/>
</a>
</g>
</g>
<!-- Node40&#45;&gt;Node27 -->
<g id="edge62_Node000040_Node000027" class="edge">
<title>Node40&#45;&gt;Node27</title>
<g id="a_edge62_Node000040_Node000027"><a xlink:title=" ">
<path fill="none" stroke="#63b8ff" d="M624.18,-172.06C610.15,-174.51 595.49,-177.07 582.62,-179.32"/>
<polygon fill="#63b8ff" stroke="#63b8ff" points="624.5,-175.55 633.75,-170.39 623.3,-168.66 624.5,-175.55"/>
</a>
</g>
</g>
<!-- Node40&#45;&gt;Node32 -->
<g id="edge63_Node000040_Node000032" class="edge">
<title>Node40&#45;&gt;Node32</title>
<g id="a_edge63_Node000040_Node000032"><a xlink:title=" ">
<path fill="none" stroke="#63b8ff" d="M624.18,-156.55C610.15,-155.22 595.49,-153.84 582.62,-152.62"/>
<polygon fill="#63b8ff" stroke="#63b8ff" points="623.45,-160 633.73,-157.46 624.11,-153.03 623.45,-160"/>
</a>
</g>
</g>
<!-- Node40&#45;&gt;Node34 -->
<g id="edge64_Node000040_Node000034" class="edge">
<title>Node40&#45;&gt;Node34</title>
<g id="a_edge64_Node000040_Node000034"><a xlink:title=" ">
<path fill="none" stroke="#63b8ff" d="M644.33,-148.03C629.12,-142.38 611.36,-135.83 595.25,-130 588.11,-127.42 580.4,-124.67 573.19,-122.11"/>
<polygon fill="#63b8ff" stroke="#63b8ff" points="642.89,-151.22 653.48,-151.43 645.33,-144.66 642.89,-151.22"/>
</a>
</g>
</g>
<!-- Node41&#45;&gt;Node38 -->
<g id="edge67_Node000041_Node000038" class="edge">
<title>Node41&#45;&gt;Node38</title>
<g id="a_edge67_Node000041_Node000038"><a xlink:title=" ">
<path fill="none" stroke="#63b8ff" d="M758.69,-79.7C749.35,-79.49 739.78,-79.27 730.74,-79.06"/>
<polygon fill="#63b8ff" stroke="#63b8ff" points="758.32,-83.19 768.39,-79.92 758.48,-76.19 758.32,-83.19"/>
</a>
</g>
</g>
</g>
</svg>
