<?xml version="1.0" encoding="UTF-8" standalone="no"?>
<!DOCTYPE svg PUBLIC "-//W3C//DTD SVG 1.1//EN"
 "http://www.w3.org/Graphics/SVG/1.1/DTD/svg11.dtd">
<!-- Generated by graphviz version 9.0.0 (20230911.1827)
 -->
<!-- Title: check_range Pages: 1 -->
<svg width="943pt" height="335pt"
 viewBox="0.00 0.00 943.00 335.25" xmlns="http://www.w3.org/2000/svg" xmlns:xlink="http://www.w3.org/1999/xlink">
<g id="graph0" class="graph" transform="scale(1 1) rotate(0) translate(4 331.25)">
<title>check_range</title>
<!-- Node1 -->
<g id="Node000001" class="node">
<title>Node1</title>
<g id="a_Node000001"><a xlink:title=" ">
<polygon fill="#999999" stroke="#666666" points="935,-179.25 863.5,-179.25 863.5,-160 935,-160 935,-179.25"/>
<text text-anchor="middle" x="899.25" y="-165.75" font-family="Helvetica,sans-Serif" font-size="10.00">check_range</text>
</a>
</g>
</g>
<!-- Node2 -->
<g id="Node000002" class="node">
<title>Node2</title>
<g id="a_Node000002"><a xlink:href="parse__validate__assign__rgb__utils_8c.html#ab71c9a28c124cbbec7afa314c3595d68" target="_top" xlink:title=" ">
<polygon fill="white" stroke="#666666" points="812.5,-290.25 711.75,-290.25 711.75,-271 812.5,-271 812.5,-290.25"/>
<text text-anchor="middle" x="762.12" y="-276.75" font-family="Helvetica,sans-Serif" font-size="10.00">parse_transparency</text>
</a>
</g>
</g>
<!-- Node1&#45;&gt;Node2 -->
<g id="edge1_Node000001_Node000002" class="edge">
<title>Node1&#45;&gt;Node2</title>
<g id="a_edge1_Node000001_Node000002"><a xlink:title=" ">
<path fill="none" stroke="#63b8ff" d="M888.17,-189.61C876.43,-210.84 855.1,-243.88 827.5,-262.62 822.8,-265.82 817.53,-268.45 812.1,-270.62"/>
<polygon fill="#63b8ff" stroke="#63b8ff" points="891.25,-191.27 892.83,-180.79 885.06,-188 891.25,-191.27"/>
</a>
</g>
</g>
<!-- Node12 -->
<g id="Node000012" class="node">
<title>Node12</title>
<g id="a_Node000012"><a xlink:href="parse__assign__vec__utils_8c.html#a714588a0946a445e8f37f00e6eb68bbf" target="_top" xlink:title=" ">
<polygon fill="white" stroke="#666666" points="827.5,-19.25 696.75,-19.25 696.75,0 827.5,0 827.5,-19.25"/>
<text text-anchor="middle" x="762.12" y="-5.75" font-family="Helvetica,sans-Serif" font-size="10.00">parse_vector_components</text>
</a>
</g>
</g>
<!-- Node1&#45;&gt;Node12 -->
<g id="edge14_Node000001_Node000012" class="edge">
<title>Node1&#45;&gt;Node12</title>
<g id="a_edge14_Node000001_Node000012"><a xlink:title=" ">
<path fill="none" stroke="#63b8ff" d="M893.39,-148.63C885.16,-117.78 865.54,-60.43 827.5,-28.62 823.12,-24.96 818.06,-22.01 812.74,-19.62"/>
<polygon fill="#63b8ff" stroke="#63b8ff" points="889.98,-149.41 895.79,-158.26 896.77,-147.71 889.98,-149.41"/>
</a>
</g>
</g>
<!-- Node15 -->
<g id="Node000015" class="node">
<title>Node15</title>
<g id="a_Node000015"><a xlink:href="parse__validate__obj__utils_8c.html#afc0fb046c4f491b01a17dc19ff7e07ac" target="_top" xlink:title=" ">
<polygon fill="white" stroke="#666666" points="806.88,-105.25 717.38,-105.25 717.38,-86 806.88,-86 806.88,-105.25"/>
<text text-anchor="middle" x="762.12" y="-91.75" font-family="Helvetica,sans-Serif" font-size="10.00">validate_ambient</text>
</a>
</g>
</g>
<!-- Node1&#45;&gt;Node15 -->
<g id="edge20_Node000001_Node000015" class="edge">
<title>Node1&#45;&gt;Node15</title>
<g id="a_edge20_Node000001_Node000015"><a xlink:title=" ">
<path fill="none" stroke="#63b8ff" d="M880.27,-152.04C866.75,-139.7 847.23,-123.68 827.5,-113.62 821.19,-110.41 814.24,-107.71 807.3,-105.45"/>
<polygon fill="#63b8ff" stroke="#63b8ff" points="877.81,-154.54 887.5,-158.84 882.61,-149.44 877.81,-154.54"/>
</a>
</g>
</g>
<!-- Node18 -->
<g id="Node000018" class="node">
<title>Node18</title>
<g id="a_Node000018"><a xlink:href="parse__validate__obj__utils_8c.html#addac7b2e5dfd2ee9efe59f688946f39b" target="_top" xlink:title=" ">
<polygon fill="white" stroke="#666666" points="805.75,-253.25 718.5,-253.25 718.5,-234 805.75,-234 805.75,-253.25"/>
<text text-anchor="middle" x="762.12" y="-239.75" font-family="Helvetica,sans-Serif" font-size="10.00">validate_camera</text>
</a>
</g>
</g>
<!-- Node1&#45;&gt;Node18 -->
<g id="edge29_Node000001_Node000018" class="edge">
<title>Node1&#45;&gt;Node18</title>
<g id="a_edge29_Node000001_Node000018"><a xlink:title=" ">
<path fill="none" stroke="#63b8ff" d="M880.27,-187.21C866.75,-199.55 847.23,-215.57 827.5,-225.62 820.78,-229.05 813.32,-231.89 805.93,-234.23"/>
<polygon fill="#63b8ff" stroke="#63b8ff" points="882.61,-189.81 887.5,-180.41 877.81,-184.71 882.61,-189.81"/>
</a>
</g>
</g>
<!-- Node19 -->
<g id="Node000019" class="node">
<title>Node19</title>
<g id="a_Node000019"><a xlink:href="parse__assign__coord__utils_8c.html#a0f249ab97644690110e43ae95f50fec8" target="_top" xlink:title=" ">
<polygon fill="white" stroke="#666666" points="812.12,-67.88 712.12,-67.88 712.12,-37.38 812.12,-37.38 812.12,-67.88"/>
<text text-anchor="start" x="720.12" y="-54.38" font-family="Helvetica,sans-Serif" font-size="10.00">validate_coordinate</text>
<text text-anchor="middle" x="762.12" y="-43.12" font-family="Helvetica,sans-Serif" font-size="10.00">_values</text>
</a>
</g>
</g>
<!-- Node1&#45;&gt;Node19 -->
<g id="edge31_Node000001_Node000019" class="edge">
<title>Node1&#45;&gt;Node19</title>
<g id="a_edge31_Node000001_Node000019"><a xlink:title=" ">
<path fill="none" stroke="#63b8ff" d="M887.67,-149.76C875.63,-128.89 854.15,-96.41 827.5,-76.62 822.9,-73.21 817.77,-70.24 812.46,-67.65"/>
<polygon fill="#63b8ff" stroke="#63b8ff" points="884.56,-151.38 892.48,-158.42 890.68,-147.98 884.56,-151.38"/>
</a>
</g>
</g>
<!-- Node21 -->
<g id="Node000021" class="node">
<title>Node21</title>
<g id="a_Node000021"><a xlink:href="parse__validate__obj__utils_8c.html#a578190cd0dc27381815b6d4d98c65168" target="_top" xlink:title=" ">
<polygon fill="white" stroke="#666666" points="806.12,-216.25 718.12,-216.25 718.12,-197 806.12,-197 806.12,-216.25"/>
<text text-anchor="middle" x="762.12" y="-202.75" font-family="Helvetica,sans-Serif" font-size="10.00">validate_cylinder</text>
</a>
</g>
</g>
<!-- Node1&#45;&gt;Node21 -->
<g id="edge37_Node000001_Node000021" class="edge">
<title>Node1&#45;&gt;Node21</title>
<g id="a_edge37_Node000001_Node000021"><a xlink:title=" ">
<path fill="none" stroke="#63b8ff" d="M852.25,-182.22C835.2,-186.89 816.11,-192.12 799.99,-196.53"/>
<polygon fill="#63b8ff" stroke="#63b8ff" points="852.92,-185.67 861.64,-179.65 851.07,-178.91 852.92,-185.67"/>
</a>
</g>
</g>
<!-- Node22 -->
<g id="Node000022" class="node">
<title>Node22</title>
<g id="a_Node000022"><a xlink:href="parse__validate__obj__utils_8c.html#a75294ff609499aa907ba8c285855f720" target="_top" xlink:title=" ">
<polygon fill="white" stroke="#666666" points="798.62,-179.25 725.62,-179.25 725.62,-160 798.62,-160 798.62,-179.25"/>
<text text-anchor="middle" x="762.12" y="-165.75" font-family="Helvetica,sans-Serif" font-size="10.00">validate_light</text>
</a>
</g>
</g>
<!-- Node1&#45;&gt;Node22 -->
<g id="edge39_Node000001_Node000022" class="edge">
<title>Node1&#45;&gt;Node22</title>
<g id="a_edge39_Node000001_Node000022"><a xlink:title=" ">
<path fill="none" stroke="#63b8ff" d="M852.07,-169.62C834.73,-169.62 815.3,-169.62 799.04,-169.62"/>
<polygon fill="#63b8ff" stroke="#63b8ff" points="851.59,-173.13 861.59,-169.63 851.59,-166.13 851.59,-173.13"/>
</a>
</g>
</g>
<!-- Node23 -->
<g id="Node000023" class="node">
<title>Node23</title>
<g id="a_Node000023"><a xlink:href="parse__validate__assign__rgb__utils_8c.html#a00d4a3c3a01ac083aacdf897546cc68c" target="_top" xlink:title=" ">
<polygon fill="white" stroke="#666666" points="813.62,-327.25 710.62,-327.25 710.62,-308 813.62,-308 813.62,-327.25"/>
<text text-anchor="middle" x="762.12" y="-313.75" font-family="Helvetica,sans-Serif" font-size="10.00">validate_rgb_ranges</text>
</a>
</g>
</g>
<!-- Node1&#45;&gt;Node23 -->
<g id="edge41_Node000001_Node000023" class="edge">
<title>Node1&#45;&gt;Node23</title>
<g id="a_edge41_Node000001_Node000023"><a xlink:title=" ">
<path fill="none" stroke="#63b8ff" d="M892.59,-190.3C883.62,-219.12 863.38,-271.05 827.5,-299.62 823.41,-302.88 818.78,-305.54 813.91,-307.73"/>
<polygon fill="#63b8ff" stroke="#63b8ff" points="895.87,-191.53 895.33,-180.95 889.16,-189.56 895.87,-191.53"/>
</a>
</g>
</g>
<!-- Node24 -->
<g id="Node000024" class="node">
<title>Node24</title>
<g id="a_Node000024"><a xlink:href="parse__validate__obj__utils_8c.html#ad58bbd3ad3f3f914989f3c0bc27cff8e" target="_top" xlink:title=" ">
<polygon fill="white" stroke="#666666" points="804.25,-142.25 720,-142.25 720,-123 804.25,-123 804.25,-142.25"/>
<text text-anchor="middle" x="762.12" y="-128.75" font-family="Helvetica,sans-Serif" font-size="10.00">validate_sphere</text>
</a>
</g>
</g>
<!-- Node1&#45;&gt;Node24 -->
<g id="edge43_Node000001_Node000024" class="edge">
<title>Node1&#45;&gt;Node24</title>
<g id="a_edge43_Node000001_Node000024"><a xlink:title=" ">
<path fill="none" stroke="#63b8ff" d="M852.25,-157.03C835.2,-152.36 816.11,-147.13 799.99,-142.72"/>
<polygon fill="#63b8ff" stroke="#63b8ff" points="851.07,-160.34 861.64,-159.6 852.92,-153.58 851.07,-160.34"/>
</a>
</g>
</g>
<!-- Node3 -->
<g id="Node000003" class="node">
<title>Node3</title>
<g id="a_Node000003"><a xlink:href="parse__utils_8c.html#aa353b138267370a075b03b29a2306573" target="_top" xlink:title=" ">
<polygon fill="white" stroke="#666666" points="657,-234.25 561.5,-234.25 561.5,-215 657,-215 657,-234.25"/>
<text text-anchor="middle" x="609.25" y="-220.75" font-family="Helvetica,sans-Serif" font-size="10.00">parse_assign_trgb</text>
</a>
</g>
</g>
<!-- Node2&#45;&gt;Node3 -->
<g id="edge2_Node000002_Node000003" class="edge">
<title>Node2&#45;&gt;Node3</title>
<g id="a_edge2_Node000002_Node000003"><a xlink:title=" ">
<path fill="none" stroke="#63b8ff" d="M710.68,-267.26C705.94,-265.78 701.24,-264.23 696.75,-262.62 673.74,-254.4 648.21,-242.88 630.89,-234.68"/>
<polygon fill="#63b8ff" stroke="#63b8ff" points="709.66,-270.61 720.25,-270.12 711.67,-263.9 709.66,-270.61"/>
</a>
</g>
</g>
<!-- Node4 -->
<g id="Node000004" class="node">
<title>Node4</title>
<g id="a_Node000004"><a xlink:href="parse__camera__light_8c.html#a0b2ac9083d47f8bf5eed5fbbb5576a19" target="_top" xlink:title=" ">
<polygon fill="white" stroke="#666666" points="521.75,-271.25 442,-271.25 442,-252 521.75,-252 521.75,-271.25"/>
<text text-anchor="middle" x="481.88" y="-257.75" font-family="Helvetica,sans-Serif" font-size="10.00">parse_ambient</text>
</a>
</g>
</g>
<!-- Node3&#45;&gt;Node4 -->
<g id="edge3_Node000003_Node000004" class="edge">
<title>Node3&#45;&gt;Node4</title>
<g id="a_edge3_Node000003_Node000004"><a xlink:title=" ">
<path fill="none" stroke="#63b8ff" d="M563.24,-237.91C548.04,-242.39 531.32,-247.33 517.09,-251.53"/>
<polygon fill="#63b8ff" stroke="#63b8ff" points="563.94,-241.35 572.54,-235.16 561.96,-234.64 563.94,-241.35"/>
</a>
</g>
</g>
<!-- Node9 -->
<g id="Node000009" class="node">
<title>Node9</title>
<g id="a_Node000009"><a xlink:href="parse__objects_8c.html#a438a08a219ba336c395096067e52bb1b" target="_top" xlink:title=" ">
<polygon fill="white" stroke="#666666" points="521,-123.25 442.75,-123.25 442.75,-104 521,-104 521,-123.25"/>
<text text-anchor="middle" x="481.88" y="-109.75" font-family="Helvetica,sans-Serif" font-size="10.00">parse_cylinder</text>
</a>
</g>
</g>
<!-- Node3&#45;&gt;Node9 -->
<g id="edge8_Node000003_Node000009" class="edge">
<title>Node3&#45;&gt;Node9</title>
<g id="a_edge8_Node000003_Node000009"><a xlink:title=" ">
<path fill="none" stroke="#63b8ff" d="M581.49,-208.43C573.33,-202.76 564.69,-195.97 557.75,-188.62 537.16,-166.85 544.27,-151.39 521.75,-131.62 518.28,-128.58 514.22,-125.96 510.04,-123.73"/>
<polygon fill="#63b8ff" stroke="#63b8ff" points="579.52,-211.32 589.79,-213.9 583.37,-205.48 579.52,-211.32"/>
</a>
</g>
</g>
<!-- Node10 -->
<g id="Node000010" class="node">
<title>Node10</title>
<g id="a_Node000010"><a xlink:href="parse__camera__light_8c.html#aaa10205c0950a79dd43566074de7b0a0" target="_top" xlink:title=" ">
<polygon fill="white" stroke="#666666" points="513.5,-197.25 450.25,-197.25 450.25,-178 513.5,-178 513.5,-197.25"/>
<text text-anchor="middle" x="481.88" y="-183.75" font-family="Helvetica,sans-Serif" font-size="10.00">parse_light</text>
</a>
</g>
</g>
<!-- Node3&#45;&gt;Node10 -->
<g id="edge10_Node000003_Node000010" class="edge">
<title>Node3&#45;&gt;Node10</title>
<g id="a_edge10_Node000003_Node000010"><a xlink:title=" ">
<path fill="none" stroke="#63b8ff" d="M562.99,-211.27C546.61,-206.43 528.51,-201.09 513.67,-196.71"/>
<polygon fill="#63b8ff" stroke="#63b8ff" points="561.96,-214.61 572.54,-214.09 563.94,-207.9 561.96,-214.61"/>
</a>
</g>
</g>
<!-- Node11 -->
<g id="Node000011" class="node">
<title>Node11</title>
<g id="a_Node000011"><a xlink:href="parse__objects_8c.html#a7e641794acee51578d8539e361635c47" target="_top" xlink:title=" ">
<polygon fill="white" stroke="#666666" points="516.12,-160.25 447.62,-160.25 447.62,-141 516.12,-141 516.12,-160.25"/>
<text text-anchor="middle" x="481.88" y="-146.75" font-family="Helvetica,sans-Serif" font-size="10.00">parse_plane</text>
</a>
</g>
</g>
<!-- Node3&#45;&gt;Node11 -->
<g id="edge12_Node000003_Node000011" class="edge">
<title>Node3&#45;&gt;Node11</title>
<g id="a_edge12_Node000003_Node000011"><a xlink:title=" ">
<path fill="none" stroke="#63b8ff" d="M585.04,-208.32C567.93,-196.62 543.88,-180.83 521.75,-168.62 516.67,-165.82 511.08,-163.06 505.75,-160.57"/>
<polygon fill="#63b8ff" stroke="#63b8ff" points="582.78,-211.01 593,-213.82 586.76,-205.25 582.78,-211.01"/>
</a>
</g>
</g>
<!-- Node5 -->
<g id="Node000005" class="node">
<title>Node5</title>
<g id="a_Node000005"><a xlink:href="parse__main_8c.html#a92aa268ea4b3d5c808364ca73d913cbe" target="_top" xlink:title=" ">
<polygon fill="white" stroke="#666666" points="406,-178.25 318,-178.25 318,-159 406,-159 406,-178.25"/>
<text text-anchor="middle" x="362" y="-164.75" font-family="Helvetica,sans-Serif" font-size="10.00">parse_func_redir</text>
</a>
</g>
</g>
<!-- Node4&#45;&gt;Node5 -->
<g id="edge4_Node000004_Node000005" class="edge">
<title>Node4&#45;&gt;Node5</title>
<g id="a_edge4_Node000004_Node000005"><a xlink:title=" ">
<path fill="none" stroke="#63b8ff" d="M446.18,-246.29C444.75,-245.43 443.35,-244.54 442,-243.62 413.37,-224.18 385.3,-194.21 371.62,-178.7"/>
<polygon fill="#63b8ff" stroke="#63b8ff" points="444.16,-249.17 454.62,-250.84 447.48,-243.01 444.16,-249.17"/>
</a>
</g>
</g>
<!-- Node6 -->
<g id="Node000006" class="node">
<title>Node6</title>
<g id="a_Node000006"><a xlink:href="parse__main_8c.html#a5d7da6ab7925ffda04b676ef38880723" target="_top" xlink:title="Reading a line from the given .rt file and splitting the given line with the space (&#39; &#39;) delimiter....">
<polygon fill="white" stroke="#666666" points="282,-178.25 186.5,-178.25 186.5,-159 282,-159 282,-178.25"/>
<text text-anchor="middle" x="234.25" y="-164.75" font-family="Helvetica,sans-Serif" font-size="10.00">parse_rt_read_line</text>
</a>
</g>
</g>
<!-- Node5&#45;&gt;Node6 -->
<g id="edge5_Node000005_Node000006" class="edge">
<title>Node5&#45;&gt;Node6</title>
<g id="a_edge5_Node000005_Node000006"><a xlink:title=" ">
<path fill="none" stroke="#63b8ff" d="M306.29,-168.62C298.36,-168.62 290.25,-168.62 282.48,-168.62"/>
<polygon fill="#63b8ff" stroke="#63b8ff" points="306.21,-172.13 316.21,-168.63 306.21,-165.13 306.21,-172.13"/>
</a>
</g>
</g>
<!-- Node7 -->
<g id="Node000007" class="node">
<title>Node7</title>
<g id="a_Node000007"><a xlink:href="parse__main_8c.html#a62c4de2f960942eba61e7de12c387ae4" target="_top" xlink:title="Entry function to parsing .rt file where the file is attempted to be opened, t_parse structure is ini...">
<polygon fill="white" stroke="#666666" points="150.5,-178.25 73,-178.25 73,-159 150.5,-159 150.5,-178.25"/>
<text text-anchor="middle" x="111.75" y="-164.75" font-family="Helvetica,sans-Serif" font-size="10.00">parse_rt_main</text>
</a>
</g>
</g>
<!-- Node6&#45;&gt;Node7 -->
<g id="edge6_Node000006_Node000007" class="edge">
<title>Node6&#45;&gt;Node7</title>
<g id="a_edge6_Node000006_Node000007"><a xlink:title=" ">
<path fill="none" stroke="#63b8ff" d="M174.86,-168.62C166.69,-168.62 158.47,-168.62 150.81,-168.62"/>
<polygon fill="#63b8ff" stroke="#63b8ff" points="174.8,-172.13 184.8,-168.63 174.8,-165.13 174.8,-172.13"/>
</a>
</g>
</g>
<!-- Node8 -->
<g id="Node000008" class="node">
<title>Node8</title>
<g id="a_Node000008"><a xlink:href="mini__ray_8c.html#a0c99d968a34e803d378692bde2e3f18f" target="_top" xlink:title=" ">
<polygon fill="white" stroke="#666666" points="37,-178.25 0,-178.25 0,-159 37,-159 37,-178.25"/>
<text text-anchor="middle" x="18.5" y="-164.75" font-family="Helvetica,sans-Serif" font-size="10.00">main</text>
</a>
</g>
</g>
<!-- Node7&#45;&gt;Node8 -->
<g id="edge7_Node000007_Node000008" class="edge">
<title>Node7&#45;&gt;Node8</title>
<g id="a_edge7_Node000007_Node000008"><a xlink:title=" ">
<path fill="none" stroke="#63b8ff" d="M61.23,-168.62C52.6,-168.62 44.15,-168.62 37.14,-168.62"/>
<polygon fill="#63b8ff" stroke="#63b8ff" points="61.07,-172.13 71.07,-168.63 61.07,-165.13 61.07,-172.13"/>
</a>
</g>
</g>
<!-- Node9&#45;&gt;Node5 -->
<g id="edge9_Node000009_Node000005" class="edge">
<title>Node9&#45;&gt;Node5</title>
<g id="a_edge9_Node000009_Node000005"><a xlink:title=" ">
<path fill="none" stroke="#63b8ff" d="M448.63,-128.54C446.39,-129.58 444.16,-130.62 442,-131.62 422.5,-140.7 400.33,-151.09 384.45,-158.55"/>
<polygon fill="#63b8ff" stroke="#63b8ff" points="450.1,-131.72 457.7,-124.34 447.16,-125.37 450.1,-131.72"/>
</a>
</g>
</g>
<!-- Node10&#45;&gt;Node5 -->
<g id="edge11_Node000010_Node000005" class="edge">
<title>Node10&#45;&gt;Node5</title>
<g id="a_edge11_Node000010_Node000005"><a xlink:title=" ">
<path fill="none" stroke="#63b8ff" d="M438.79,-180.84C428.2,-179.13 416.82,-177.3 406.17,-175.58"/>
<polygon fill="#63b8ff" stroke="#63b8ff" points="437.98,-184.26 448.41,-182.39 439.09,-177.35 437.98,-184.26"/>
</a>
</g>
</g>
<!-- Node11&#45;&gt;Node5 -->
<g id="edge13_Node000011_Node000005" class="edge">
<title>Node11&#45;&gt;Node5</title>
<g id="a_edge13_Node000011_Node000005"><a xlink:title=" ">
<path fill="none" stroke="#63b8ff" d="M436.22,-157.44C426.4,-158.94 416.02,-160.53 406.25,-162.02"/>
<polygon fill="#63b8ff" stroke="#63b8ff" points="436.56,-160.93 445.92,-155.96 435.5,-154.01 436.56,-160.93"/>
</a>
</g>
</g>
<!-- Node13 -->
<g id="Node000013" class="node">
<title>Node13</title>
<g id="a_Node000013"><a xlink:href="parse__utils_8c.html#a70a5145ad572a59954c71984bf73ca01" target="_top" xlink:title=" ">
<polygon fill="white" stroke="#666666" points="656.62,-86.25 561.88,-86.25 561.88,-67 656.62,-67 656.62,-86.25"/>
<text text-anchor="middle" x="609.25" y="-72.75" font-family="Helvetica,sans-Serif" font-size="10.00">parse_assign_vec</text>
</a>
</g>
</g>
<!-- Node12&#45;&gt;Node13 -->
<g id="edge15_Node000012_Node000013" class="edge">
<title>Node12&#45;&gt;Node13</title>
<g id="a_edge15_Node000012_Node000013"><a xlink:title=" ">
<path fill="none" stroke="#63b8ff" d="M711.11,-23.2C706.21,-24.89 701.35,-26.7 696.75,-28.62 670.93,-39.44 642.92,-55.95 625.98,-66.51"/>
<polygon fill="#63b8ff" stroke="#63b8ff" points="711.96,-26.6 720.4,-20.19 709.8,-19.95 711.96,-26.6"/>
</a>
</g>
</g>
<!-- Node13&#45;&gt;Node9 -->
<g id="edge18_Node000013_Node000009" class="edge">
<title>Node13&#45;&gt;Node9</title>
<g id="a_edge18_Node000013_Node000009"><a xlink:title=" ">
<path fill="none" stroke="#63b8ff" d="M563.24,-89.91C548.04,-94.39 531.32,-99.33 517.09,-103.53"/>
<polygon fill="#63b8ff" stroke="#63b8ff" points="563.94,-93.35 572.54,-87.16 561.96,-86.64 563.94,-93.35"/>
</a>
</g>
</g>
<!-- Node13&#45;&gt;Node11 -->
<g id="edge19_Node000013_Node000011" class="edge">
<title>Node13&#45;&gt;Node11</title>
<g id="a_edge19_Node000013_Node000011"><a xlink:title=" ">
<path fill="none" stroke="#63b8ff" d="M563.33,-91.33C561.4,-92.36 559.53,-93.46 557.75,-94.62 538.26,-107.32 540.64,-119.05 521.75,-132.62 517.64,-135.58 512.97,-138.23 508.33,-140.53"/>
<polygon fill="#63b8ff" stroke="#63b8ff" points="564.34,-94.72 571.9,-87.3 561.36,-88.39 564.34,-94.72"/>
</a>
</g>
</g>
<!-- Node14 -->
<g id="Node000014" class="node">
<title>Node14</title>
<g id="a_Node000014"><a xlink:href="parse__camera__light_8c.html#a00b9b6a4aadecaaf341d2fc409582b39" target="_top" xlink:title=" ">
<polygon fill="white" stroke="#666666" points="520.62,-86.25 443.12,-86.25 443.12,-67 520.62,-67 520.62,-86.25"/>
<text text-anchor="middle" x="481.88" y="-72.75" font-family="Helvetica,sans-Serif" font-size="10.00">parse_camera</text>
</a>
</g>
</g>
<!-- Node13&#45;&gt;Node14 -->
<g id="edge16_Node000013_Node000014" class="edge">
<title>Node13&#45;&gt;Node14</title>
<g id="a_edge16_Node000013_Node000014"><a xlink:title=" ">
<path fill="none" stroke="#63b8ff" d="M550.1,-76.62C540.22,-76.62 530.19,-76.62 521,-76.62"/>
<polygon fill="#63b8ff" stroke="#63b8ff" points="550.05,-80.13 560.05,-76.63 550.05,-73.13 550.05,-80.13"/>
</a>
</g>
</g>
<!-- Node14&#45;&gt;Node5 -->
<g id="edge17_Node000014_Node000005" class="edge">
<title>Node14&#45;&gt;Node5</title>
<g id="a_edge17_Node000014_Node000005"><a xlink:title=" ">
<path fill="none" stroke="#63b8ff" d="M446.19,-91.97C444.75,-92.83 443.35,-93.72 442,-94.62 413.48,-113.85 385.37,-143.4 371.65,-158.69"/>
<polygon fill="#63b8ff" stroke="#63b8ff" points="447.48,-95.25 454.63,-87.43 444.17,-89.08 447.48,-95.25"/>
</a>
</g>
</g>
<!-- Node16 -->
<g id="Node000016" class="node">
<title>Node16</title>
<g id="a_Node000016"><a xlink:href="parse__utils_8c.html#a3a792671ccd6560d6c42352319889a0c" target="_top" xlink:title=" ">
<polygon fill="white" stroke="#666666" points="657.75,-179.25 560.75,-179.25 560.75,-160 657.75,-160 657.75,-179.25"/>
<text text-anchor="middle" x="609.25" y="-165.75" font-family="Helvetica,sans-Serif" font-size="10.00">parse_validate_obj</text>
</a>
</g>
</g>
<!-- Node15&#45;&gt;Node16 -->
<g id="edge21_Node000015_Node000016" class="edge">
<title>Node15&#45;&gt;Node16</title>
<g id="a_edge21_Node000015_Node000016"><a xlink:title=" ">
<path fill="none" stroke="#63b8ff" d="M707.63,-109.22C703.9,-110.58 700.24,-112.05 696.75,-113.62 668.7,-126.27 639.29,-147.2 623.02,-159.58"/>
<polygon fill="#63b8ff" stroke="#63b8ff" points="708.43,-112.64 716.8,-106.14 706.21,-106.01 708.43,-112.64"/>
</a>
</g>
</g>
<!-- Node16&#45;&gt;Node4 -->
<g id="edge22_Node000016_Node000004" class="edge">
<title>Node16&#45;&gt;Node4</title>
<g id="a_edge22_Node000016_Node000004"><a xlink:title=" ">
<path fill="none" stroke="#63b8ff" d="M583.32,-185.97C574.93,-191.84 565.69,-198.72 557.75,-205.62 540.2,-220.89 540.64,-230.05 521.75,-243.62 517.64,-246.58 512.97,-249.23 508.33,-251.53"/>
<polygon fill="#63b8ff" stroke="#63b8ff" points="585.11,-188.99 591.4,-180.46 581.16,-183.2 585.11,-188.99"/>
</a>
</g>
</g>
<!-- Node16&#45;&gt;Node9 -->
<g id="edge24_Node000016_Node000009" class="edge">
<title>Node16&#45;&gt;Node9</title>
<g id="a_edge24_Node000016_Node000009"><a xlink:title=" ">
<path fill="none" stroke="#63b8ff" d="M575.61,-155.05C553.59,-145.21 525.08,-132.48 505.52,-123.74"/>
<polygon fill="#63b8ff" stroke="#63b8ff" points="573.9,-158.11 584.45,-159 576.75,-151.72 573.9,-158.11"/>
</a>
</g>
</g>
<!-- Node16&#45;&gt;Node10 -->
<g id="edge25_Node000016_Node000010" class="edge">
<title>Node16&#45;&gt;Node10</title>
<g id="a_edge25_Node000016_Node000010"><a xlink:title=" ">
<path fill="none" stroke="#63b8ff" d="M549.33,-178.08C537.06,-179.85 524.6,-181.63 513.84,-183.18"/>
<polygon fill="#63b8ff" stroke="#63b8ff" points="549.59,-181.58 559,-176.7 548.6,-174.65 549.59,-181.58"/>
</a>
</g>
</g>
<!-- Node16&#45;&gt;Node11 -->
<g id="edge26_Node000016_Node000011" class="edge">
<title>Node16&#45;&gt;Node11</title>
<g id="a_edge26_Node000016_Node000011"><a xlink:title=" ">
<path fill="none" stroke="#63b8ff" d="M549.33,-160.7C538.05,-158.99 526.62,-157.25 516.48,-155.72"/>
<polygon fill="#63b8ff" stroke="#63b8ff" points="548.59,-164.12 559,-162.16 549.63,-157.2 548.59,-164.12"/>
</a>
</g>
</g>
<!-- Node16&#45;&gt;Node14 -->
<g id="edge23_Node000016_Node000014" class="edge">
<title>Node16&#45;&gt;Node14</title>
<g id="a_edge23_Node000016_Node000014"><a xlink:title=" ">
<path fill="none" stroke="#63b8ff" d="M583.72,-153.01C575.24,-146.91 565.84,-139.75 557.75,-132.62 540.3,-117.24 540.64,-108.2 521.75,-94.62 517.64,-91.67 512.97,-89.02 508.33,-86.72"/>
<polygon fill="#63b8ff" stroke="#63b8ff" points="581.69,-155.86 591.89,-158.74 585.71,-150.13 581.69,-155.86"/>
</a>
</g>
</g>
<!-- Node17 -->
<g id="Node000017" class="node">
<title>Node17</title>
<g id="a_Node000017"><a xlink:href="parse__objects_8c.html#a6ab66800bec24ca2d8c0f6c781558f65" target="_top" xlink:title=" ">
<polygon fill="white" stroke="#666666" points="519.12,-234.25 444.62,-234.25 444.62,-215 519.12,-215 519.12,-234.25"/>
<text text-anchor="middle" x="481.88" y="-220.75" font-family="Helvetica,sans-Serif" font-size="10.00">parse_sphere</text>
</a>
</g>
</g>
<!-- Node16&#45;&gt;Node17 -->
<g id="edge27_Node000016_Node000017" class="edge">
<title>Node16&#45;&gt;Node17</title>
<g id="a_edge27_Node000016_Node000017"><a xlink:title=" ">
<path fill="none" stroke="#63b8ff" d="M574.78,-184.31C552.95,-193.88 525.03,-206.13 505.72,-214.6"/>
<polygon fill="#63b8ff" stroke="#63b8ff" points="576.12,-187.54 583.87,-180.32 573.3,-181.13 576.12,-187.54"/>
</a>
</g>
</g>
<!-- Node17&#45;&gt;Node5 -->
<g id="edge28_Node000017_Node000005" class="edge">
<title>Node17&#45;&gt;Node5</title>
<g id="a_edge28_Node000017_Node000005"><a xlink:title=" ">
<path fill="none" stroke="#63b8ff" d="M448.62,-209.73C446.38,-208.69 444.15,-207.64 442,-206.62 422.18,-197.27 399.66,-186.42 383.75,-178.71"/>
<polygon fill="#63b8ff" stroke="#63b8ff" points="447.14,-212.91 457.68,-213.95 450.09,-206.56 447.14,-212.91"/>
</a>
</g>
</g>
<!-- Node18&#45;&gt;Node16 -->
<g id="edge30_Node000018_Node000016" class="edge">
<title>Node18&#45;&gt;Node16</title>
<g id="a_edge30_Node000018_Node000016"><a xlink:title=" ">
<path fill="none" stroke="#63b8ff" d="M707.63,-230.03C703.9,-228.67 700.24,-227.2 696.75,-225.62 681.99,-218.97 644.86,-193.73 624.37,-179.51"/>
<polygon fill="#63b8ff" stroke="#63b8ff" points="706.21,-233.24 716.8,-233.11 708.43,-226.61 706.21,-233.24"/>
</a>
</g>
</g>
<!-- Node20 -->
<g id="Node000020" class="node">
<title>Node20</title>
<g id="a_Node000020"><a xlink:href="parse__utils_8c.html#a4b09ddfa5e35fa7e45323421232772ce" target="_top" xlink:title=" ">
<polygon fill="white" stroke="#666666" points="660.75,-123.25 557.75,-123.25 557.75,-104 660.75,-104 660.75,-123.25"/>
<text text-anchor="middle" x="609.25" y="-109.75" font-family="Helvetica,sans-Serif" font-size="10.00">parse_assign_coord</text>
</a>
</g>
</g>
<!-- Node19&#45;&gt;Node20 -->
<g id="edge32_Node000019_Node000020" class="edge">
<title>Node19&#45;&gt;Node20</title>
<g id="a_edge32_Node000019_Node000020"><a xlink:title=" ">
<path fill="none" stroke="#63b8ff" d="M706.34,-72.49C703.08,-73.85 699.86,-75.23 696.75,-76.62 680.24,-84.02 677.31,-88.35 660.75,-95.62 654.36,-98.43 647.38,-101.14 640.7,-103.57"/>
<polygon fill="#63b8ff" stroke="#63b8ff" points="707.46,-75.82 715.44,-68.84 704.85,-69.32 707.46,-75.82"/>
</a>
</g>
</g>
<!-- Node20&#45;&gt;Node9 -->
<g id="edge34_Node000020_Node000009" class="edge">
<title>Node20&#45;&gt;Node9</title>
<g id="a_edge34_Node000020_Node000009"><a xlink:title=" ">
<path fill="none" stroke="#63b8ff" d="M545.82,-113.62C537.4,-113.62 528.96,-113.62 521.13,-113.62"/>
<polygon fill="#63b8ff" stroke="#63b8ff" points="545.74,-117.13 555.74,-113.63 545.74,-110.13 545.74,-117.13"/>
</a>
</g>
</g>
<!-- Node20&#45;&gt;Node10 -->
<g id="edge35_Node000020_Node000010" class="edge">
<title>Node20&#45;&gt;Node10</title>
<g id="a_edge35_Node000020_Node000010"><a xlink:title=" ">
<path fill="none" stroke="#63b8ff" d="M585.04,-129.93C567.93,-141.63 543.88,-157.42 521.75,-169.62 516.67,-172.43 511.08,-175.19 505.75,-177.68"/>
<polygon fill="#63b8ff" stroke="#63b8ff" points="586.76,-133 593,-124.43 582.78,-127.24 586.76,-133"/>
</a>
</g>
</g>
<!-- Node20&#45;&gt;Node11 -->
<g id="edge36_Node000020_Node000011" class="edge">
<title>Node20&#45;&gt;Node11</title>
<g id="a_edge36_Node000020_Node000011"><a xlink:title=" ">
<path fill="none" stroke="#63b8ff" d="M563.06,-126.96C547.6,-131.52 530.59,-136.54 516.23,-140.78"/>
<polygon fill="#63b8ff" stroke="#63b8ff" points="563.94,-130.35 572.54,-124.16 561.96,-123.64 563.94,-130.35"/>
</a>
</g>
</g>
<!-- Node20&#45;&gt;Node14 -->
<g id="edge33_Node000020_Node000014" class="edge">
<title>Node20&#45;&gt;Node14</title>
<g id="a_edge33_Node000020_Node000014"><a xlink:title=" ">
<path fill="none" stroke="#63b8ff" d="M563.24,-100.34C548.04,-95.86 531.32,-90.92 517.09,-86.72"/>
<polygon fill="#63b8ff" stroke="#63b8ff" points="561.96,-103.61 572.54,-103.09 563.94,-96.9 561.96,-103.61"/>
</a>
</g>
</g>
<!-- Node21&#45;&gt;Node16 -->
<g id="edge38_Node000021_Node000016" class="edge">
<title>Node21&#45;&gt;Node16</title>
<g id="a_edge38_Node000021_Node000016"><a xlink:title=" ">
<path fill="none" stroke="#63b8ff" d="M708.82,-193.8C690.04,-189.19 669.13,-184.07 651.43,-179.72"/>
<polygon fill="#63b8ff" stroke="#63b8ff" points="707.88,-197.17 718.43,-196.15 709.55,-190.37 707.88,-197.17"/>
</a>
</g>
</g>
<!-- Node22&#45;&gt;Node16 -->
<g id="edge40_Node000022_Node000016" class="edge">
<title>Node22&#45;&gt;Node16</title>
<g id="a_edge40_Node000022_Node000016"><a xlink:title=" ">
<path fill="none" stroke="#63b8ff" d="M714.06,-169.62C696.23,-169.62 675.92,-169.62 658.03,-169.62"/>
<polygon fill="#63b8ff" stroke="#63b8ff" points="713.86,-173.13 723.86,-169.63 713.86,-166.13 713.86,-173.13"/>
</a>
</g>
</g>
<!-- Node23&#45;&gt;Node3 -->
<g id="edge42_Node000023_Node000003" class="edge">
<title>Node23&#45;&gt;Node3</title>
<g id="a_edge42_Node000023_Node000003"><a xlink:title=" ">
<path fill="none" stroke="#63b8ff" d="M704.99,-303.58C702.15,-302.36 699.39,-301.04 696.75,-299.62 664.37,-282.21 633.61,-250.8 619.05,-234.71"/>
<polygon fill="#63b8ff" stroke="#63b8ff" points="703.46,-306.74 714.05,-307.04 705.96,-300.21 703.46,-306.74"/>
</a>
</g>
</g>
<!-- Node24&#45;&gt;Node16 -->
<g id="edge44_Node000024_Node000016" class="edge">
<title>Node24&#45;&gt;Node16</title>
<g id="a_edge44_Node000024_Node000016"><a xlink:title=" ">
<path fill="none" stroke="#63b8ff" d="M708.82,-145.45C690.04,-150.06 669.13,-155.18 651.43,-159.53"/>
<polygon fill="#63b8ff" stroke="#63b8ff" points="709.55,-148.88 718.43,-143.1 707.88,-142.08 709.55,-148.88"/>
</a>
</g>
</g>
</g>
</svg>
