<?xml version="1.0" encoding="UTF-8" standalone="no"?>
<!DOCTYPE svg PUBLIC "-//W3C//DTD SVG 1.1//EN"
 "http://www.w3.org/Graphics/SVG/1.1/DTD/svg11.dtd">
<!-- Generated by graphviz version 9.0.0 (20230911.1827)
 -->
<!-- Title: safe_malloc Pages: 1 -->
<svg width="826pt" height="807pt"
 viewBox="0.00 0.00 825.75 807.25" xmlns="http://www.w3.org/2000/svg" xmlns:xlink="http://www.w3.org/1999/xlink">
<g id="graph0" class="graph" transform="scale(1 1) rotate(0) translate(4 803.25)">
<title>safe_malloc</title>
<!-- Node1 -->
<g id="Node000001" class="node">
<title>Node1</title>
<g id="a_Node000001"><a xlink:title=" ">
<polygon fill="#999999" stroke="#666666" points="817.75,-610.25 749.25,-610.25 749.25,-591 817.75,-591 817.75,-610.25"/>
<text text-anchor="middle" x="783.5" y="-596.75" font-family="Helvetica,sans-Serif" font-size="10.00">safe_malloc</text>
</a>
</g>
</g>
<!-- Node2 -->
<g id="Node000002" class="node">
<title>Node2</title>
<g id="a_Node000002"><a xlink:href="create__image_8c.html#a5870ff24682e6d8f25ff2b7ec0ecc920" target="_top" xlink:title=" ">
<polygon fill="white" stroke="#666666" points="709.5,-799.25 635,-799.25 635,-780 709.5,-780 709.5,-799.25"/>
<text text-anchor="middle" x="672.25" y="-785.75" font-family="Helvetica,sans-Serif" font-size="10.00">create_image</text>
</a>
</g>
</g>
<!-- Node1&#45;&gt;Node2 -->
<g id="edge1_Node000001_Node000002" class="edge">
<title>Node1&#45;&gt;Node2</title>
<g id="a_edge1_Node000001_Node000002"><a xlink:title=" ">
<path fill="none" stroke="#63b8ff" d="M779.18,-621.77C772.6,-657.1 754.8,-728.47 713.25,-771.62 710.19,-774.81 706.46,-777.47 702.52,-779.69"/>
<polygon fill="#63b8ff" stroke="#63b8ff" points="782.61,-622.45 780.86,-612 775.71,-621.26 782.61,-622.45"/>
</a>
</g>
</g>
<!-- Node5 -->
<g id="Node000005" class="node">
<title>Node5</title>
<g id="a_Node000005"><a xlink:href="matrix__create_8c.html#a5291384d37d735f9c3fc33c03d2788ad" target="_top" xlink:title=" ">
<polygon fill="white" stroke="#666666" points="709.5,-460.25 635,-460.25 635,-441 709.5,-441 709.5,-460.25"/>
<text text-anchor="middle" x="672.25" y="-446.75" font-family="Helvetica,sans-Serif" font-size="10.00">matrix_create</text>
</a>
</g>
</g>
<!-- Node1&#45;&gt;Node5 -->
<g id="edge4_Node000001_Node000005" class="edge">
<title>Node1&#45;&gt;Node5</title>
<g id="a_edge4_Node000001_Node000005"><a xlink:title=" ">
<path fill="none" stroke="#63b8ff" d="M768.6,-581.54C745.17,-549.37 698.59,-485.41 680.59,-460.7"/>
<polygon fill="#63b8ff" stroke="#63b8ff" points="765.72,-583.54 774.44,-589.56 771.38,-579.42 765.72,-583.54"/>
</a>
</g>
</g>
<!-- Node9 -->
<g id="Node000009" class="node">
<title>Node9</title>
<g id="a_Node000009"><a xlink:href="prepare__computations_8c.html#a260bb84a41e41fe52951d598804fb2fe" target="_top" xlink:title=" ">
<polygon fill="white" stroke="#666666" points="185,-407.25 73,-407.25 73,-388 185,-388 185,-407.25"/>
<text text-anchor="middle" x="129" y="-393.75" font-family="Helvetica,sans-Serif" font-size="10.00">prepare_computations</text>
</a>
</g>
</g>
<!-- Node1&#45;&gt;Node9 -->
<g id="edge59_Node000001_Node000009" class="edge">
<title>Node1&#45;&gt;Node9</title>
<g id="a_edge59_Node000001_Node000009"><a xlink:title=" ">
<path fill="none" stroke="#63b8ff" d="M737.92,-595.43C700.03,-591.3 644.16,-585.84 595.25,-583.62 549.19,-581.54 534.86,-567.93 491.5,-583.62 471.92,-590.72 475.08,-606.53 455.5,-613.62 416.84,-627.62 401.81,-627.18 363,-613.62 249.22,-573.88 159.93,-444.63 136.21,-407.61"/>
<polygon fill="#63b8ff" stroke="#63b8ff" points="737.25,-598.88 747.57,-596.5 738.02,-591.92 737.25,-598.88"/>
</a>
</g>
</g>
<!-- Node30 -->
<g id="Node000030" class="node">
<title>Node30</title>
<g id="a_Node000030"><a xlink:href="parse__camera__light_8c.html#a00b9b6a4aadecaaf341d2fc409582b39" target="_top" xlink:title=" ">
<polygon fill="white" stroke="#666666" points="582.12,-723.25 504.62,-723.25 504.62,-704 582.12,-704 582.12,-723.25"/>
<text text-anchor="middle" x="543.38" y="-709.75" font-family="Helvetica,sans-Serif" font-size="10.00">parse_camera</text>
</a>
</g>
</g>
<!-- Node1&#45;&gt;Node30 -->
<g id="edge55_Node000001_Node000030" class="edge">
<title>Node1&#45;&gt;Node30</title>
<g id="a_edge55_Node000001_Node000030"><a xlink:title=" ">
<path fill="none" stroke="#63b8ff" d="M766.51,-618.73C753.43,-632.54 733.79,-651.09 713.25,-662.62 671.59,-686.02 618,-699.84 582.48,-707.07"/>
<polygon fill="#63b8ff" stroke="#63b8ff" points="768.9,-621.31 773.08,-611.58 763.74,-616.58 768.9,-621.31"/>
</a>
</g>
</g>
<!-- Node34 -->
<g id="Node000034" class="node">
<title>Node34</title>
<g id="a_Node000034"><a xlink:href="parse__objects_8c.html#a438a08a219ba336c395096067e52bb1b" target="_top" xlink:title=" ">
<polygon fill="white" stroke="#666666" points="582.5,-686.25 504.25,-686.25 504.25,-667 582.5,-667 582.5,-686.25"/>
<text text-anchor="middle" x="543.38" y="-672.75" font-family="Helvetica,sans-Serif" font-size="10.00">parse_cylinder</text>
</a>
</g>
</g>
<!-- Node1&#45;&gt;Node34 -->
<g id="edge56_Node000001_Node000034" class="edge">
<title>Node1&#45;&gt;Node34</title>
<g id="a_edge56_Node000001_Node000034"><a xlink:title=" ">
<path fill="none" stroke="#63b8ff" d="M756.12,-616.3C743.48,-623.29 727.93,-631.16 713.25,-636.62 669.76,-652.8 617.48,-663.99 582.73,-670.34"/>
<polygon fill="#63b8ff" stroke="#63b8ff" points="757.68,-619.44 764.64,-611.46 754.22,-613.35 757.68,-619.44"/>
</a>
</g>
</g>
<!-- Node35 -->
<g id="Node000035" class="node">
<title>Node35</title>
<g id="a_Node000035"><a xlink:href="parse__camera__light_8c.html#aaa10205c0950a79dd43566074de7b0a0" target="_top" xlink:title=" ">
<polygon fill="white" stroke="#666666" points="575,-649.25 511.75,-649.25 511.75,-630 575,-630 575,-649.25"/>
<text text-anchor="middle" x="543.38" y="-635.75" font-family="Helvetica,sans-Serif" font-size="10.00">parse_light</text>
</a>
</g>
</g>
<!-- Node1&#45;&gt;Node35 -->
<g id="edge57_Node000001_Node000035" class="edge">
<title>Node1&#45;&gt;Node35</title>
<g id="a_edge57_Node000001_Node000035"><a xlink:title=" ">
<path fill="none" stroke="#63b8ff" d="M737.61,-610.84C729.52,-612.54 721.15,-614.21 713.25,-615.62 665.3,-624.21 609.24,-631.67 575.3,-635.91"/>
<polygon fill="#63b8ff" stroke="#63b8ff" points="738.26,-614.28 747.3,-608.76 736.79,-607.44 738.26,-614.28"/>
</a>
</g>
</g>
<!-- Node36 -->
<g id="Node000036" class="node">
<title>Node36</title>
<g id="a_Node000036"><a xlink:href="parse__objects_8c.html#a7e641794acee51578d8539e361635c47" target="_top" xlink:title=" ">
<polygon fill="white" stroke="#666666" points="577.62,-612.25 509.12,-612.25 509.12,-593 577.62,-593 577.62,-612.25"/>
<text text-anchor="middle" x="543.38" y="-598.75" font-family="Helvetica,sans-Serif" font-size="10.00">parse_plane</text>
</a>
</g>
</g>
<!-- Node1&#45;&gt;Node36 -->
<g id="edge58_Node000001_Node000036" class="edge">
<title>Node1&#45;&gt;Node36</title>
<g id="a_edge58_Node000001_Node000036"><a xlink:title=" ">
<path fill="none" stroke="#63b8ff" d="M737.64,-601C691.16,-601.39 619.57,-601.99 577.82,-602.34"/>
<polygon fill="#63b8ff" stroke="#63b8ff" points="737.4,-604.5 747.37,-600.92 737.34,-597.5 737.4,-604.5"/>
</a>
</g>
</g>
<!-- Node39 -->
<g id="Node000039" class="node">
<title>Node39</title>
<g id="a_Node000039"><a xlink:href="parse__camera__light_8c.html#a0b2ac9083d47f8bf5eed5fbbb5576a19" target="_top" xlink:title=" ">
<polygon fill="white" stroke="#666666" points="712.12,-762.25 632.38,-762.25 632.38,-743 712.12,-743 712.12,-762.25"/>
<text text-anchor="middle" x="672.25" y="-748.75" font-family="Helvetica,sans-Serif" font-size="10.00">parse_ambient</text>
</a>
</g>
</g>
<!-- Node1&#45;&gt;Node39 -->
<g id="edge53_Node000001_Node000039" class="edge">
<title>Node1&#45;&gt;Node39</title>
<g id="a_edge53_Node000001_Node000039"><a xlink:title=" ">
<path fill="none" stroke="#63b8ff" d="M775.28,-621.32C764.97,-648.54 743.83,-696.66 713.25,-728.62 707.99,-734.13 701.2,-738.82 694.71,-742.57"/>
<polygon fill="#63b8ff" stroke="#63b8ff" points="778.49,-622.74 778.63,-612.15 771.91,-620.35 778.49,-622.74"/>
</a>
</g>
</g>
<!-- Node40 -->
<g id="Node000040" class="node">
<title>Node40</title>
<g id="a_Node000040"><a xlink:href="ray__create_8c.html#a6b37390392ea1308815dc9a65054ba3d" target="_top" xlink:title=" ">
<polygon fill="white" stroke="#666666" points="573.88,-39.25 512.88,-39.25 512.88,-20 573.88,-20 573.88,-39.25"/>
<text text-anchor="middle" x="543.38" y="-25.75" font-family="Helvetica,sans-Serif" font-size="10.00">ray_create</text>
</a>
</g>
</g>
<!-- Node1&#45;&gt;Node40 -->
<g id="edge60_Node000001_Node000040" class="edge">
<title>Node1&#45;&gt;Node40</title>
<g id="a_edge60_Node000001_Node000040"><a xlink:title=" ">
<path fill="none" stroke="#63b8ff" d="M779.05,-579.77C772.29,-544.93 754.23,-474.49 713.25,-431.62 685.49,-402.59 654.6,-426.31 631.25,-393.62 541.38,-267.82 690.92,-169.08 595.25,-47.62 590.03,-41 582.2,-36.81 574.23,-34.16"/>
<polygon fill="#63b8ff" stroke="#63b8ff" points="775.57,-580.17 780.78,-589.39 782.46,-578.93 775.57,-580.17"/>
</a>
</g>
</g>
<!-- Node41 -->
<g id="Node000041" class="node">
<title>Node41</title>
<g id="a_Node000041"><a xlink:href="tuple__cross_8c.html#a7d0cfebe312bceac2fb5f03aa123e7cd" target="_top" xlink:title="This function find the cross product of 2 vectors (tup1 x tup2). This is used to find a vertical vect...">
<polygon fill="white" stroke="#666666" points="705.38,-384.25 639.12,-384.25 639.12,-365 705.38,-365 705.38,-384.25"/>
<text text-anchor="middle" x="672.25" y="-370.75" font-family="Helvetica,sans-Serif" font-size="10.00">tuple_cross</text>
</a>
</g>
</g>
<!-- Node1&#45;&gt;Node41 -->
<g id="edge63_Node000001_Node000041" class="edge">
<title>Node1&#45;&gt;Node41</title>
<g id="a_edge63_Node000001_Node000041"><a xlink:title=" ">
<path fill="none" stroke="#63b8ff" d="M780.06,-579.3C774.55,-539.72 757.97,-453.9 713.25,-398.62 708.67,-392.96 702.36,-388.31 696.11,-384.66"/>
<polygon fill="#63b8ff" stroke="#63b8ff" points="776.57,-579.66 781.31,-589.14 783.52,-578.77 776.57,-579.66"/>
</a>
</g>
</g>
<!-- Node42 -->
<g id="Node000042" class="node">
<title>Node42</title>
<g id="a_Node000042"><a xlink:href="tuple__sum_8c.html#a98a28c17b26fdbfacc2a62592d4d64e7" target="_top" xlink:title="This function is used to sum or substract 2 tuples.">
<polygon fill="white" stroke="#666666" points="713.25,-347.25 631.25,-347.25 631.25,-328 713.25,-328 713.25,-347.25"/>
<text text-anchor="middle" x="672.25" y="-333.75" font-family="Helvetica,sans-Serif" font-size="10.00">tuple_sum_sub</text>
</a>
</g>
</g>
<!-- Node1&#45;&gt;Node42 -->
<g id="edge64_Node000001_Node000042" class="edge">
<title>Node1&#45;&gt;Node42</title>
<g id="a_edge64_Node000001_Node000042"><a xlink:title=" ">
<path fill="none" stroke="#63b8ff" d="M782.27,-579.39C780.66,-533.15 770.65,-422.18 713.25,-355.62 710.56,-352.51 707.23,-349.91 703.64,-347.74"/>
<polygon fill="#63b8ff" stroke="#63b8ff" points="778.77,-579.43 782.5,-589.34 785.77,-579.26 778.77,-579.43"/>
</a>
</g>
</g>
<!-- Node3 -->
<g id="Node000003" class="node">
<title>Node3</title>
<g id="a_Node000003"><a xlink:href="render_8c.html#add56bf8ab90a2ebdf530e6c360247bac" target="_top" xlink:title=" ">
<polygon fill="white" stroke="#666666" points="163.62,-787.25 94.38,-787.25 94.38,-768 163.62,-768 163.62,-787.25"/>
<text text-anchor="middle" x="129" y="-773.75" font-family="Helvetica,sans-Serif" font-size="10.00">render_main</text>
</a>
</g>
</g>
<!-- Node2&#45;&gt;Node3 -->
<g id="edge2_Node000002_Node000003" class="edge">
<title>Node2&#45;&gt;Node3</title>
<g id="a_edge2_Node000002_Node000003"><a xlink:title=" ">
<path fill="none" stroke="#63b8ff" d="M623.46,-788.57C515.95,-786.18 257.19,-780.44 164.09,-778.38"/>
<polygon fill="#63b8ff" stroke="#63b8ff" points="623.31,-792.06 633.38,-788.79 623.46,-785.06 623.31,-792.06"/>
</a>
</g>
</g>
<!-- Node4 -->
<g id="Node000004" class="node">
<title>Node4</title>
<g id="a_Node000004"><a xlink:href="mini__ray_8c.html#a0c99d968a34e803d378692bde2e3f18f" target="_top" xlink:title=" ">
<polygon fill="white" stroke="#666666" points="37,-759.25 0,-759.25 0,-740 37,-740 37,-759.25"/>
<text text-anchor="middle" x="18.5" y="-745.75" font-family="Helvetica,sans-Serif" font-size="10.00">main</text>
</a>
</g>
</g>
<!-- Node3&#45;&gt;Node4 -->
<g id="edge3_Node000003_Node000004" class="edge">
<title>Node3&#45;&gt;Node4</title>
<g id="a_edge3_Node000003_Node000004"><a xlink:title=" ">
<path fill="none" stroke="#63b8ff" d="M83.09,-766.03C67,-761.88 49.79,-757.44 37.33,-754.23"/>
<polygon fill="#63b8ff" stroke="#63b8ff" points="81.94,-769.35 92.5,-768.46 83.69,-762.58 81.94,-769.35"/>
</a>
</g>
</g>
<!-- Node6 -->
<g id="Node000006" class="node">
<title>Node6</title>
<g id="a_Node000006"><a xlink:href="matrix__point_8c.html#a51cfc0e8c33e22d4403c9e1ba8a53e0a" target="_top" xlink:title="This function creates a point in 3D space.">
<polygon fill="white" stroke="#666666" points="578,-218.25 508.75,-218.25 508.75,-199 578,-199 578,-218.25"/>
<text text-anchor="middle" x="543.38" y="-204.75" font-family="Helvetica,sans-Serif" font-size="10.00">create_point</text>
</a>
</g>
</g>
<!-- Node5&#45;&gt;Node6 -->
<g id="edge5_Node000005_Node000006" class="edge">
<title>Node5&#45;&gt;Node6</title>
<g id="a_edge5_Node000005_Node000006"><a xlink:title=" ">
<path fill="none" stroke="#63b8ff" d="M637.86,-433.94C635.37,-431.75 633.1,-429.31 631.25,-426.62 579.94,-352.3 653.74,-295.45 595.25,-226.62 590.82,-221.41 584.78,-217.71 578.41,-215.08"/>
<polygon fill="#63b8ff" stroke="#63b8ff" points="635.6,-436.63 645.77,-439.63 639.69,-430.95 635.6,-436.63"/>
</a>
</g>
</g>
<!-- Node7 -->
<g id="Node000007" class="node">
<title>Node7</title>
<g id="a_Node000007"><a xlink:href="matrix__vector_8c.html#a1997aa61fa90423d330488fb3f8596fe" target="_top" xlink:title="This function is used to create a vector in 3D space.">
<polygon fill="white" stroke="#666666" points="581,-181.25 505.75,-181.25 505.75,-162 581,-162 581,-181.25"/>
<text text-anchor="middle" x="543.38" y="-167.75" font-family="Helvetica,sans-Serif" font-size="10.00">create_vector</text>
</a>
</g>
</g>
<!-- Node5&#45;&gt;Node7 -->
<g id="edge6_Node000005_Node000007" class="edge">
<title>Node5&#45;&gt;Node7</title>
<g id="a_edge6_Node000005_Node000007"><a xlink:title=" ">
<path fill="none" stroke="#63b8ff" d="M637.78,-434C635.31,-431.79 633.07,-429.34 631.25,-426.62 571.92,-338.13 663.13,-271.74 595.25,-189.62 591.55,-185.15 586.66,-181.78 581.37,-179.26"/>
<polygon fill="#63b8ff" stroke="#63b8ff" points="635.51,-436.67 645.66,-439.7 639.61,-431 635.51,-436.67"/>
</a>
</g>
</g>
<!-- Node8 -->
<g id="Node000008" class="node">
<title>Node8</title>
<g id="a_Node000008"><a xlink:href="matrix__clone_8c.html#a664de98f31a1171b994283a70249628a" target="_top" xlink:title=" ">
<polygon fill="white" stroke="#666666" points="578.75,-384.25 508,-384.25 508,-365 578.75,-365 578.75,-384.25"/>
<text text-anchor="middle" x="543.38" y="-370.75" font-family="Helvetica,sans-Serif" font-size="10.00">matrix_clone</text>
</a>
</g>
</g>
<!-- Node5&#45;&gt;Node8 -->
<g id="edge7_Node000005_Node000008" class="edge">
<title>Node5&#45;&gt;Node8</title>
<g id="a_edge7_Node000005_Node000008"><a xlink:title=" ">
<path fill="none" stroke="#63b8ff" d="M643.78,-434.74C639.53,-432.11 635.23,-429.35 631.25,-426.62 614.53,-415.17 612.52,-409.24 595.25,-398.62 586.85,-393.46 577.15,-388.64 568.5,-384.69"/>
<polygon fill="#63b8ff" stroke="#63b8ff" points="641.77,-437.62 652.14,-439.78 645.38,-431.62 641.77,-437.62"/>
</a>
</g>
</g>
<!-- Node14 -->
<g id="Node000014" class="node">
<title>Node14</title>
<g id="a_Node000014"><a xlink:href="matrix__determinants_8c.html#a27e06277b887c9f90b2a00a60b0c81fe" target="_top" xlink:title=" ">
<polygon fill="white" stroke="#666666" points="595.25,-329.25 491.5,-329.25 491.5,-310 595.25,-310 595.25,-329.25"/>
<text text-anchor="middle" x="543.38" y="-315.75" font-family="Helvetica,sans-Serif" font-size="10.00">matrix_determinants</text>
</a>
</g>
</g>
<!-- Node5&#45;&gt;Node14 -->
<g id="edge14_Node000005_Node000014" class="edge">
<title>Node5&#45;&gt;Node14</title>
<g id="a_edge14_Node000005_Node000014"><a xlink:title=" ">
<path fill="none" stroke="#63b8ff" d="M640.28,-434.54C637.02,-432.14 633.93,-429.5 631.25,-426.62 607.14,-400.73 618.37,-382.41 595.25,-355.62 586.06,-344.98 573.08,-335.86 562.54,-329.46"/>
<polygon fill="#63b8ff" stroke="#63b8ff" points="638.14,-437.32 648.43,-439.83 641.94,-431.45 638.14,-437.32"/>
</a>
</g>
</g>
<!-- Node15 -->
<g id="Node000015" class="node">
<title>Node15</title>
<g id="a_Node000015"><a xlink:href="matrix__identity_8c.html#a841c87975e3b38adb536d63ec35456e5" target="_top" xlink:title="Function that creates an identity matrix of size n 1 0 0 0 0 1 0 0 0 0 1 0 0 0 0 1.">
<polygon fill="white" stroke="#666666" points="582.5,-498.25 504.25,-498.25 504.25,-479 582.5,-479 582.5,-498.25"/>
<text text-anchor="middle" x="543.38" y="-484.75" font-family="Helvetica,sans-Serif" font-size="10.00">matrix_identity</text>
</a>
</g>
</g>
<!-- Node5&#45;&gt;Node15 -->
<g id="edge16_Node000005_Node000015" class="edge">
<title>Node5&#45;&gt;Node15</title>
<g id="a_edge16_Node000005_Node000015"><a xlink:title=" ">
<path fill="none" stroke="#63b8ff" d="M626.77,-463.95C610.66,-468.77 592.75,-474.14 577.76,-478.63"/>
<polygon fill="#63b8ff" stroke="#63b8ff" points="627.56,-467.36 636.13,-461.14 625.55,-460.66 627.56,-467.36"/>
</a>
</g>
</g>
<!-- Node16 -->
<g id="Node000016" class="node">
<title>Node16</title>
<g id="a_Node000016"><a xlink:href="matrix__inverse_8c.html#a38c4dbf43aa6a2d976c3f77297ecd403" target="_top" xlink:title=" ">
<polygon fill="white" stroke="#666666" points="448.75,-285.25 369.75,-285.25 369.75,-266 448.75,-266 448.75,-285.25"/>
<text text-anchor="middle" x="409.25" y="-271.75" font-family="Helvetica,sans-Serif" font-size="10.00">matrix_inverse</text>
</a>
</g>
</g>
<!-- Node5&#45;&gt;Node16 -->
<g id="edge27_Node000005_Node000016" class="edge">
<title>Node5&#45;&gt;Node16</title>
<g id="a_edge27_Node000005_Node000016"><a xlink:title=" ">
<path fill="none" stroke="#63b8ff" d="M628.8,-437.21C575.77,-420.45 491.85,-393.9 491.5,-393.62 466.87,-374.02 473.33,-358.57 455.5,-332.62 443.62,-315.34 428.12,-296.5 418.69,-285.4"/>
<polygon fill="#63b8ff" stroke="#63b8ff" points="627.58,-440.5 638.17,-440.17 629.68,-433.82 627.58,-440.5"/>
</a>
</g>
</g>
<!-- Node25 -->
<g id="Node000025" class="node">
<title>Node25</title>
<g id="a_Node000025"><a xlink:href="matrix__multiple_8c.html#a6aa64cfb17a064fdea66fdf14a2a426e" target="_top" xlink:title=" ">
<polygon fill="white" stroke="#666666" points="584,-76.25 502.75,-76.25 502.75,-57 584,-57 584,-76.25"/>
<text text-anchor="middle" x="543.38" y="-62.75" font-family="Helvetica,sans-Serif" font-size="10.00">matrix_multiple</text>
</a>
</g>
</g>
<!-- Node5&#45;&gt;Node25 -->
<g id="edge28_Node000005_Node000025" class="edge">
<title>Node5&#45;&gt;Node25</title>
<g id="a_edge28_Node000005_Node000025"><a xlink:title=" ">
<path fill="none" stroke="#63b8ff" d="M637.68,-434.07C635.22,-431.84 633.02,-429.37 631.25,-426.62 555.83,-309.69 656.99,-240.32 595.25,-115.62 587.2,-99.36 571.45,-85.52 559.6,-76.75"/>
<polygon fill="#63b8ff" stroke="#63b8ff" points="635.39,-436.72 645.53,-439.78 639.51,-431.07 635.39,-436.72"/>
</a>
</g>
</g>
<!-- Node27 -->
<g id="Node000027" class="node">
<title>Node27</title>
<g id="a_Node000027"><a xlink:href="matrix__sum_8c.html#a131fcf979705ebc7d09650c74adddfbb" target="_top" xlink:title=" ">
<polygon fill="white" stroke="#666666" points="577.62,-144.25 509.12,-144.25 509.12,-125 577.62,-125 577.62,-144.25"/>
<text text-anchor="middle" x="543.38" y="-130.75" font-family="Helvetica,sans-Serif" font-size="10.00">matrix_subs</text>
</a>
</g>
</g>
<!-- Node5&#45;&gt;Node27 -->
<g id="edge32_Node000005_Node000027" class="edge">
<title>Node5&#45;&gt;Node27</title>
<g id="a_edge32_Node000005_Node000027"><a xlink:title=" ">
<path fill="none" stroke="#63b8ff" d="M637.73,-434.04C635.26,-431.82 633.04,-429.35 631.25,-426.62 563.89,-323.92 672.55,-248.08 595.25,-152.62 590.83,-147.16 584.63,-143.36 578.08,-140.71"/>
<polygon fill="#63b8ff" stroke="#63b8ff" points="635.44,-436.7 645.59,-439.75 639.55,-431.04 635.44,-436.7"/>
</a>
</g>
</g>
<!-- Node28 -->
<g id="Node000028" class="node">
<title>Node28</title>
<g id="a_Node000028"><a xlink:href="matrix__sum_8c.html#abd5e62f41c4289aea2951309cd148f61" target="_top" xlink:title=" ">
<polygon fill="white" stroke="#666666" points="576.5,-292.25 510.25,-292.25 510.25,-273 576.5,-273 576.5,-292.25"/>
<text text-anchor="middle" x="543.38" y="-278.75" font-family="Helvetica,sans-Serif" font-size="10.00">matrix_sum</text>
</a>
</g>
</g>
<!-- Node5&#45;&gt;Node28 -->
<g id="edge36_Node000005_Node000028" class="edge">
<title>Node5&#45;&gt;Node28</title>
<g id="a_edge36_Node000005_Node000028"><a xlink:title=" ">
<path fill="none" stroke="#63b8ff" d="M638.77,-434.26C635.98,-431.97 633.4,-429.43 631.25,-426.62 595.8,-380.41 635.14,-343.06 595.25,-300.62 590.31,-295.37 583.74,-291.65 576.96,-289.01"/>
<polygon fill="#63b8ff" stroke="#63b8ff" points="636.73,-437.1 646.95,-439.88 640.69,-431.33 636.73,-437.1"/>
</a>
</g>
</g>
<!-- Node29 -->
<g id="Node000029" class="node">
<title>Node29</title>
<g id="a_Node000029"><a xlink:href="matrix__transpose_8c.html#a70a4847189f00eb79dd2d8f03fd8afa6" target="_top" xlink:title=" ">
<polygon fill="white" stroke="#666666" points="454.38,-361.25 364.12,-361.25 364.12,-342 454.38,-342 454.38,-361.25"/>
<text text-anchor="middle" x="409.25" y="-347.75" font-family="Helvetica,sans-Serif" font-size="10.00">matrix_transpose</text>
</a>
</g>
</g>
<!-- Node5&#45;&gt;Node29 -->
<g id="edge37_Node000005_Node000029" class="edge">
<title>Node5&#45;&gt;Node29</title>
<g id="a_edge37_Node000005_Node000029"><a xlink:title=" ">
<path fill="none" stroke="#63b8ff" d="M623.35,-454.84C584.8,-455.88 530.77,-451.8 491.5,-426.62 466.28,-410.45 478.55,-388.77 455.5,-369.62 451.73,-366.49 447.34,-363.85 442.81,-361.65"/>
<polygon fill="#63b8ff" stroke="#63b8ff" points="623.42,-458.34 633.27,-454.43 623.13,-451.34 623.42,-458.34"/>
</a>
</g>
</g>
<!-- Node5&#45;&gt;Node30 -->
<g id="edge39_Node000005_Node000030" class="edge">
<title>Node5&#45;&gt;Node30</title>
<g id="a_edge39_Node000005_Node000030"><a xlink:title=" ">
<path fill="none" stroke="#63b8ff" d="M670.77,-471.97C668.56,-518.83 656.76,-631.66 595.25,-695.62 591.68,-699.34 587.29,-702.29 582.61,-704.63"/>
<polygon fill="#63b8ff" stroke="#63b8ff" points="674.26,-472.22 671.12,-462.1 667.27,-471.97 674.26,-472.22"/>
</a>
</g>
</g>
<!-- Node5&#45;&gt;Node34 -->
<g id="edge44_Node000005_Node000034" class="edge">
<title>Node5&#45;&gt;Node34</title>
<g id="a_edge44_Node000005_Node000034"><a xlink:title=" ">
<path fill="none" stroke="#63b8ff" d="M669.39,-471.81C664.64,-513.36 648.38,-606.04 595.25,-658.62 591.72,-662.12 587.47,-664.94 582.95,-667.21"/>
<polygon fill="#63b8ff" stroke="#63b8ff" points="672.87,-472.25 670.39,-461.95 665.9,-471.55 672.87,-472.25"/>
</a>
</g>
</g>
<!-- Node5&#45;&gt;Node35 -->
<g id="edge46_Node000005_Node000035" class="edge">
<title>Node5&#45;&gt;Node35</title>
<g id="a_edge46_Node000005_Node000035"><a xlink:title=" ">
<path fill="none" stroke="#63b8ff" d="M667.49,-471.72C660.03,-507.49 640.06,-580.19 595.25,-621.62 589.68,-626.78 582.54,-630.47 575.38,-633.11"/>
<polygon fill="#63b8ff" stroke="#63b8ff" points="670.86,-472.69 669.33,-462.2 663.99,-471.35 670.86,-472.69"/>
</a>
</g>
</g>
<!-- Node5&#45;&gt;Node36 -->
<g id="edge48_Node000005_Node000036" class="edge">
<title>Node5&#45;&gt;Node36</title>
<g id="a_edge48_Node000005_Node000036"><a xlink:title=" ">
<path fill="none" stroke="#63b8ff" d="M655.77,-469.17C628.64,-501.67 573.39,-567.86 552.57,-592.81"/>
<polygon fill="#63b8ff" stroke="#63b8ff" points="658.23,-471.68 661.96,-461.76 652.86,-467.19 658.23,-471.68"/>
</a>
</g>
</g>
<!-- Node37 -->
<g id="Node000037" class="node">
<title>Node37</title>
<g id="a_Node000037"><a xlink:href="ray__position_8c.html#adc4013ba57492c59d6118105b0d177a6" target="_top" xlink:title=" ">
<polygon fill="white" stroke="#666666" points="307.88,-491.25 240.12,-491.25 240.12,-472 307.88,-472 307.88,-491.25"/>
<text text-anchor="middle" x="274" y="-477.75" font-family="Helvetica,sans-Serif" font-size="10.00">ray_position</text>
</a>
</g>
</g>
<!-- Node5&#45;&gt;Node37 -->
<g id="edge50_Node000005_Node000037" class="edge">
<title>Node5&#45;&gt;Node37</title>
<g id="a_edge50_Node000005_Node000037"><a xlink:title=" ">
<path fill="none" stroke="#63b8ff" d="M651.02,-468.01C636.24,-480.15 615.35,-496.17 595.25,-507.62 551.89,-532.35 531.9,-521.32 491.5,-550.62 471.6,-565.06 477.84,-582.35 455.5,-592.62 418.15,-609.8 400.01,-610.52 363,-592.62 318.27,-571.01 289.34,-514.39 279.12,-491.47"/>
<polygon fill="#63b8ff" stroke="#63b8ff" points="653.2,-470.76 658.62,-461.65 648.7,-465.39 653.2,-470.76"/>
</a>
</g>
</g>
<!-- Node38 -->
<g id="Node000038" class="node">
<title>Node38</title>
<g id="a_Node000038"><a xlink:href="tuple__to__matrix_8c.html#a25317e2d0f5184cd0328d3cbf562ad46" target="_top" xlink:title=" ">
<polygon fill="white" stroke="#666666" points="584.38,-255.25 502.38,-255.25 502.38,-236 584.38,-236 584.38,-255.25"/>
<text text-anchor="middle" x="543.38" y="-241.75" font-family="Helvetica,sans-Serif" font-size="10.00">tuple_to_matrix</text>
</a>
</g>
</g>
<!-- Node5&#45;&gt;Node38 -->
<g id="edge52_Node000005_Node000038" class="edge">
<title>Node5&#45;&gt;Node38</title>
<g id="a_edge52_Node000005_Node000038"><a xlink:title=" ">
<path fill="none" stroke="#63b8ff" d="M638.41,-434.24C635.72,-431.96 633.27,-429.43 631.25,-426.62 587.91,-366.41 644.4,-319.2 595.25,-263.62 592.27,-260.26 588.62,-257.52 584.66,-255.29"/>
<polygon fill="#63b8ff" stroke="#63b8ff" points="636.12,-436.91 646.32,-439.79 640.14,-431.18 636.12,-436.91"/>
</a>
</g>
</g>
<!-- Node8&#45;&gt;Node9 -->
<g id="edge8_Node000008_Node000009" class="edge">
<title>Node8&#45;&gt;Node9</title>
<g id="a_edge8_Node000008_Node000009"><a xlink:title=" ">
<path fill="none" stroke="#63b8ff" d="M499.48,-360.32C496.75,-359.14 494.07,-357.91 491.5,-356.62 474.3,-348.02 473.9,-338.2 455.5,-332.62 341.33,-298.06 198.98,-361.89 148.66,-387.59"/>
<polygon fill="#63b8ff" stroke="#63b8ff" points="498.13,-363.55 508.71,-364.01 500.73,-357.05 498.13,-363.55"/>
</a>
</g>
</g>
<!-- Node10 -->
<g id="Node000010" class="node">
<title>Node10</title>
<g id="a_Node000010"><a xlink:href="ray__clone_8c.html#a2cec923765c270860af3d023b8236564" target="_top" xlink:title=" ">
<polygon fill="white" stroke="#666666" points="437.88,-95.25 380.62,-95.25 380.62,-76 437.88,-76 437.88,-95.25"/>
<text text-anchor="middle" x="409.25" y="-81.75" font-family="Helvetica,sans-Serif" font-size="10.00">ray_clone</text>
</a>
</g>
</g>
<!-- Node8&#45;&gt;Node10 -->
<g id="edge9_Node000008_Node000010" class="edge">
<title>Node8&#45;&gt;Node10</title>
<g id="a_edge9_Node000008_Node000010"><a xlink:title=" ">
<path fill="none" stroke="#63b8ff" d="M497.89,-362.37C495.55,-360.69 493.38,-358.79 491.5,-356.62 439.08,-296.4 480.85,-256.33 455.5,-180.62 444.65,-148.23 425.51,-112.47 415.98,-95.55"/>
<polygon fill="#63b8ff" stroke="#63b8ff" points="495.88,-365.26 506.33,-367.03 499.27,-359.13 495.88,-365.26"/>
</a>
</g>
</g>
<!-- Node11 -->
<g id="Node000011" class="node">
<title>Node11</title>
<g id="a_Node000011"><a xlink:href="reflect_8c.html#a9a14a2740fe14a6f96d7b3ef0cffeb61" target="_top" xlink:title=" ">
<polygon fill="white" stroke="#666666" points="430.38,-209.25 388.12,-209.25 388.12,-190 430.38,-190 430.38,-209.25"/>
<text text-anchor="middle" x="409.25" y="-195.75" font-family="Helvetica,sans-Serif" font-size="10.00">reflect</text>
</a>
</g>
</g>
<!-- Node8&#45;&gt;Node11 -->
<g id="edge10_Node000008_Node000011" class="edge">
<title>Node8&#45;&gt;Node11</title>
<g id="a_edge10_Node000008_Node000011"><a xlink:title=" ">
<path fill="none" stroke="#63b8ff" d="M497.94,-362.16C495.6,-360.53 493.42,-358.7 491.5,-356.62 449.87,-311.72 493.71,-271.48 455.5,-223.62 449.18,-215.7 439.51,-210.08 430.73,-206.27"/>
<polygon fill="#63b8ff" stroke="#63b8ff" points="495.84,-365 506.3,-366.71 499.19,-358.85 495.84,-365"/>
</a>
</g>
</g>
<!-- Node13 -->
<g id="Node000013" class="node">
<title>Node13</title>
<g id="a_Node000013"><a xlink:href="sphere__normal_8c.html#a7f90156067fc9db4452ca1b058c976e8" target="_top" xlink:title=" ">
<polygon fill="white" stroke="#666666" points="313.88,-285.25 234.12,-285.25 234.12,-266 313.88,-266 313.88,-285.25"/>
<text text-anchor="middle" x="274" y="-271.75" font-family="Helvetica,sans-Serif" font-size="10.00">sphere_normal</text>
</a>
</g>
</g>
<!-- Node8&#45;&gt;Node13 -->
<g id="edge12_Node000008_Node000013" class="edge">
<title>Node8&#45;&gt;Node13</title>
<g id="a_edge12_Node000008_Node000013"><a xlink:title=" ">
<path fill="none" stroke="#63b8ff" d="M497.78,-361.74C495.52,-360.22 493.41,-358.52 491.5,-356.62 458.01,-323.32 494.15,-283.79 455.5,-256.62 406.52,-222.2 330.82,-249.34 295.04,-265.62"/>
<polygon fill="#63b8ff" stroke="#63b8ff" points="495.87,-364.68 506.34,-366.31 499.17,-358.51 495.87,-364.68"/>
</a>
</g>
</g>
<!-- Node12 -->
<g id="Node000012" class="node">
<title>Node12</title>
<g id="a_Node000012"><a xlink:href="lighting_8c.html#ad035411c7e850248af38e7d68bb0ddd4" target="_top" xlink:title=" ">
<polygon fill="white" stroke="#666666" points="297.38,-190.25 250.62,-190.25 250.62,-171 297.38,-171 297.38,-190.25"/>
<text text-anchor="middle" x="274" y="-176.75" font-family="Helvetica,sans-Serif" font-size="10.00">lighting</text>
</a>
</g>
</g>
<!-- Node11&#45;&gt;Node12 -->
<g id="edge11_Node000011_Node000012" class="edge">
<title>Node11&#45;&gt;Node12</title>
<g id="a_edge11_Node000011_Node000012"><a xlink:title=" ">
<path fill="none" stroke="#63b8ff" d="M376.56,-195.11C352.24,-191.64 319.25,-186.93 297.56,-183.84"/>
<polygon fill="#63b8ff" stroke="#63b8ff" points="375.83,-198.54 386.22,-196.48 376.82,-191.61 375.83,-198.54"/>
</a>
</g>
</g>
<!-- Node13&#45;&gt;Node9 -->
<g id="edge13_Node000013_Node000009" class="edge">
<title>Node13&#45;&gt;Node9</title>
<g id="a_edge13_Node000013_Node000009"><a xlink:title=" ">
<path fill="none" stroke="#63b8ff" d="M235.98,-290.51C230.76,-293.23 225.61,-296.28 221,-299.62 184.72,-325.93 151.42,-368.27 137.23,-387.52"/>
<polygon fill="#63b8ff" stroke="#63b8ff" points="237.12,-293.85 244.61,-286.36 234.08,-287.54 237.12,-293.85"/>
</a>
</g>
</g>
<!-- Node14&#45;&gt;Node14 -->
<g id="edge15_Node000014_Node000014" class="edge">
<title>Node14&#45;&gt;Node14</title>
<g id="a_edge15_Node000014_Node000014"><a xlink:title=" ">
<path fill="none" stroke="#63b8ff" d="M566.25,-340.65C563.39,-344.53 555.76,-347.25 543.38,-347.25 520.72,-347.25 514,-338.15 523.2,-329.54"/>
<polygon fill="#63b8ff" stroke="#63b8ff" points="569.67,-339.9 563.91,-331.01 562.87,-341.55 569.67,-339.9"/>
</a>
</g>
</g>
<!-- Node15&#45;&gt;Node16 -->
<g id="edge17_Node000015_Node000016" class="edge">
<title>Node15&#45;&gt;Node16</title>
<g id="a_edge17_Node000015_Node000016"><a xlink:title=" ">
<path fill="none" stroke="#63b8ff" d="M525.08,-470.76C514.35,-458.96 500.87,-442.74 491.5,-426.62 469.02,-387.95 477.67,-371.48 455.5,-332.62 445.23,-314.63 429.55,-296.3 419.6,-285.44"/>
<polygon fill="#63b8ff" stroke="#63b8ff" points="522.22,-472.83 531.61,-477.75 527.34,-468.05 522.22,-472.83"/>
</a>
</g>
</g>
<!-- Node19 -->
<g id="Node000019" class="node">
<title>Node19</title>
<g id="a_Node000019"><a xlink:href="scale_8c.html#a48fd6dec69f122197f7c6b5967c1319c" target="_top" xlink:title=" ">
<polygon fill="white" stroke="#666666" points="448.38,-509.25 370.12,-509.25 370.12,-490 448.38,-490 448.38,-509.25"/>
<text text-anchor="middle" x="409.25" y="-495.75" font-family="Helvetica,sans-Serif" font-size="10.00">object_scaling</text>
</a>
</g>
</g>
<!-- Node15&#45;&gt;Node19 -->
<g id="edge21_Node000015_Node000019" class="edge">
<title>Node15&#45;&gt;Node19</title>
<g id="a_edge21_Node000015_Node000019"><a xlink:title=" ">
<path fill="none" stroke="#63b8ff" d="M492.46,-492.78C477.95,-493.99 462.33,-495.29 448.64,-496.43"/>
<polygon fill="#63b8ff" stroke="#63b8ff" points="492.62,-496.28 502.3,-491.96 492.04,-489.3 492.62,-496.28"/>
</a>
</g>
</g>
<!-- Node20 -->
<g id="Node000020" class="node">
<title>Node20</title>
<g id="a_Node000020"><a xlink:href="translate_8c.html#a520d09bd7d70f7e5ab59d81bbb7468d9" target="_top" xlink:title=" ">
<polygon fill="white" stroke="#666666" points="455.5,-472.25 363,-472.25 363,-453 455.5,-453 455.5,-472.25"/>
<text text-anchor="middle" x="409.25" y="-458.75" font-family="Helvetica,sans-Serif" font-size="10.00">object_translation</text>
</a>
</g>
</g>
<!-- Node15&#45;&gt;Node20 -->
<g id="edge22_Node000015_Node000020" class="edge">
<title>Node15&#45;&gt;Node20</title>
<g id="a_edge22_Node000015_Node000020"><a xlink:title=" ">
<path fill="none" stroke="#63b8ff" d="M492.87,-478.88C480.66,-476.48 467.64,-473.92 455.63,-471.56"/>
<polygon fill="#63b8ff" stroke="#63b8ff" points="491.83,-482.25 502.32,-480.74 493.18,-475.38 491.83,-482.25"/>
</a>
</g>
</g>
<!-- Node21 -->
<g id="Node000021" class="node">
<title>Node21</title>
<g id="a_Node000021"><a xlink:href="rotate_8c.html#a2a9331f58a373dad2ac3c24794183cc3" target="_top" xlink:title="Creates a 4x4 rotation matrix around the X axis (left/right)">
<polygon fill="white" stroke="#666666" points="438.25,-435.25 380.25,-435.25 380.25,-416 438.25,-416 438.25,-435.25"/>
<text text-anchor="middle" x="409.25" y="-421.75" font-family="Helvetica,sans-Serif" font-size="10.00">rotation_x</text>
</a>
</g>
</g>
<!-- Node15&#45;&gt;Node21 -->
<g id="edge23_Node000015_Node000021" class="edge">
<title>Node15&#45;&gt;Node21</title>
<g id="a_edge23_Node000015_Node000021"><a xlink:title=" ">
<path fill="none" stroke="#63b8ff" d="M509.84,-473.8C503.7,-470.85 497.37,-467.71 491.5,-464.62 475.11,-456 472.15,-451.74 455.5,-443.62 449.72,-440.81 443.39,-438.08 437.34,-435.63"/>
<polygon fill="#63b8ff" stroke="#63b8ff" points="507.97,-476.78 518.51,-477.88 510.96,-470.45 507.97,-476.78"/>
</a>
</g>
</g>
<!-- Node22 -->
<g id="Node000022" class="node">
<title>Node22</title>
<g id="a_Node000022"><a xlink:href="rotate_8c.html#a37fb509db7d1ecb9a2dc830e8d6c4d3c" target="_top" xlink:title="Creates a 4x4 rotation matrix around the Y axis (front/back)">
<polygon fill="white" stroke="#666666" points="438.25,-398.25 380.25,-398.25 380.25,-379 438.25,-379 438.25,-398.25"/>
<text text-anchor="middle" x="409.25" y="-384.75" font-family="Helvetica,sans-Serif" font-size="10.00">rotation_y</text>
</a>
</g>
</g>
<!-- Node15&#45;&gt;Node22 -->
<g id="edge24_Node000015_Node000022" class="edge">
<title>Node15&#45;&gt;Node22</title>
<g id="a_edge24_Node000015_Node000022"><a xlink:title=" ">
<path fill="none" stroke="#63b8ff" d="M503.51,-473.25C499.22,-470.71 495.11,-467.84 491.5,-464.62 468.85,-444.44 478.76,-426.1 455.5,-406.62 450.57,-402.5 444.58,-399.24 438.6,-396.69"/>
<polygon fill="#63b8ff" stroke="#63b8ff" points="501.87,-476.34 512.35,-477.87 505.11,-470.13 501.87,-476.34"/>
</a>
</g>
</g>
<!-- Node23 -->
<g id="Node000023" class="node">
<title>Node23</title>
<g id="a_Node000023"><a xlink:href="rotate_8c.html#af3cde01a934f6c4b452608316f91bc2f" target="_top" xlink:title="Creates a 4x4 rotation matrix around the Z axis (vertical)">
<polygon fill="white" stroke="#666666" points="438.25,-583.25 380.25,-583.25 380.25,-564 438.25,-564 438.25,-583.25"/>
<text text-anchor="middle" x="409.25" y="-569.75" font-family="Helvetica,sans-Serif" font-size="10.00">rotation_z</text>
</a>
</g>
</g>
<!-- Node15&#45;&gt;Node23 -->
<g id="edge25_Node000015_Node000023" class="edge">
<title>Node15&#45;&gt;Node23</title>
<g id="a_edge25_Node000015_Node000023"><a xlink:title=" ">
<path fill="none" stroke="#63b8ff" d="M505.46,-503.68C500.56,-506.34 495.77,-509.33 491.5,-512.62 471.77,-527.85 475.7,-541.02 455.5,-555.62 450.43,-559.29 444.51,-562.34 438.66,-564.83"/>
<polygon fill="#63b8ff" stroke="#63b8ff" points="506.76,-506.94 514.15,-499.35 503.64,-500.67 506.76,-506.94"/>
</a>
</g>
</g>
<!-- Node24 -->
<g id="Node000024" class="node">
<title>Node24</title>
<g id="a_Node000024"><a xlink:href="shearing_8c.html#ab7ead1278f06784d5d1bb0925af42fc3" target="_top" xlink:title="This function is used to shear given objects.">
<polygon fill="white" stroke="#666666" points="435.62,-546.25 382.88,-546.25 382.88,-527 435.62,-527 435.62,-546.25"/>
<text text-anchor="middle" x="409.25" y="-532.75" font-family="Helvetica,sans-Serif" font-size="10.00">shearing</text>
</a>
</g>
</g>
<!-- Node15&#45;&gt;Node24 -->
<g id="edge26_Node000015_Node000024" class="edge">
<title>Node15&#45;&gt;Node24</title>
<g id="a_edge26_Node000015_Node000024"><a xlink:title=" ">
<path fill="none" stroke="#63b8ff" d="M504.09,-502.53C482.26,-510.46 455.47,-520.2 436.12,-527.23"/>
<polygon fill="#63b8ff" stroke="#63b8ff" points="505.05,-505.91 513.25,-499.2 502.66,-499.33 505.05,-505.91"/>
</a>
</g>
</g>
<!-- Node16&#45;&gt;Node13 -->
<g id="edge20_Node000016_Node000013" class="edge">
<title>Node16&#45;&gt;Node13</title>
<g id="a_edge20_Node000016_Node000013"><a xlink:title=" ">
<path fill="none" stroke="#63b8ff" d="M358.01,-275.62C343.51,-275.62 327.9,-275.62 314.18,-275.62"/>
<polygon fill="#63b8ff" stroke="#63b8ff" points="357.84,-279.13 367.84,-275.63 357.84,-272.13 357.84,-279.13"/>
</a>
</g>
</g>
<!-- Node17 -->
<g id="Node000017" class="node">
<title>Node17</title>
<g id="a_Node000017"><a xlink:href="ray__intersect_8c.html#a20cc82316845ecb42e8e8c218ff72a73" target="_top" xlink:title=" ">
<polygon fill="white" stroke="#666666" points="327,-133.25 221,-133.25 221,-114 327,-114 327,-133.25"/>
<text text-anchor="middle" x="274" y="-119.75" font-family="Helvetica,sans-Serif" font-size="10.00">ray_intersect_sphere</text>
</a>
</g>
</g>
<!-- Node16&#45;&gt;Node17 -->
<g id="edge18_Node000016_Node000017" class="edge">
<title>Node16&#45;&gt;Node17</title>
<g id="a_edge18_Node000016_Node000017"><a xlink:title=" ">
<path fill="none" stroke="#63b8ff" d="M392.73,-257.12C383.74,-246.15 372.39,-231.85 363,-218.62 345.66,-194.19 347.46,-183.52 327,-161.62 316.62,-150.51 302.59,-140.48 291.72,-133.52"/>
<polygon fill="#63b8ff" stroke="#63b8ff" points="389.87,-259.15 398.94,-264.62 395.26,-254.69 389.87,-259.15"/>
</a>
</g>
</g>
<!-- Node18 -->
<g id="Node000018" class="node">
<title>Node18</title>
<g id="a_Node000018"><a xlink:href="ray__world__intersect_8c.html#a2e629895d43f70cc7814ef4b0c89cf0d" target="_top" xlink:title=" ">
<polygon fill="white" stroke="#666666" points="179,-133.25 79,-133.25 79,-114 179,-114 179,-133.25"/>
<text text-anchor="middle" x="129" y="-119.75" font-family="Helvetica,sans-Serif" font-size="10.00">ray_intersect_world</text>
</a>
</g>
</g>
<!-- Node17&#45;&gt;Node18 -->
<g id="edge19_Node000017_Node000018" class="edge">
<title>Node17&#45;&gt;Node18</title>
<g id="a_edge19_Node000017_Node000018"><a xlink:title=" ">
<path fill="none" stroke="#63b8ff" d="M209.27,-123.62C199.15,-123.62 188.82,-123.62 179.1,-123.62"/>
<polygon fill="#63b8ff" stroke="#63b8ff" points="209.05,-127.13 219.05,-123.63 209.05,-120.13 209.05,-127.13"/>
</a>
</g>
</g>
<!-- Node25&#45;&gt;Node13 -->
<g id="edge31_Node000025_Node000013" class="edge">
<title>Node25&#45;&gt;Node13</title>
<g id="a_edge31_Node000025_Node000013"><a xlink:title=" ">
<path fill="none" stroke="#63b8ff" d="M501.44,-53.63C461.86,-43.8 402.28,-36.57 363,-66.62 314.37,-103.84 352.65,-144.02 327,-199.62 315.08,-225.47 294.6,-252.11 283.22,-265.95"/>
<polygon fill="#63b8ff" stroke="#63b8ff" points="500.51,-57 511.07,-56.19 502.31,-50.24 500.51,-57"/>
</a>
</g>
</g>
<!-- Node26 -->
<g id="Node000026" class="node">
<title>Node26</title>
<g id="a_Node000026"><a xlink:href="ray__transform_8c.html#a4b22c1091f5143dc209773a18fd27f15" target="_top" xlink:title=" ">
<polygon fill="white" stroke="#666666" points="446.88,-19.25 371.62,-19.25 371.62,0 446.88,0 446.88,-19.25"/>
<text text-anchor="middle" x="409.25" y="-5.75" font-family="Helvetica,sans-Serif" font-size="10.00">ray_transform</text>
</a>
</g>
</g>
<!-- Node25&#45;&gt;Node26 -->
<g id="edge29_Node000025_Node000026" class="edge">
<title>Node25&#45;&gt;Node26</title>
<g id="a_edge29_Node000025_Node000026"><a xlink:title=" ">
<path fill="none" stroke="#63b8ff" d="M501.82,-52.72C498.31,-51.38 494.83,-50.01 491.5,-48.62 469.97,-39.68 445.98,-27.94 429.68,-19.68"/>
<polygon fill="#63b8ff" stroke="#63b8ff" points="500.3,-55.89 510.89,-56.07 502.72,-49.32 500.3,-55.89"/>
</a>
</g>
</g>
<!-- Node26&#45;&gt;Node17 -->
<g id="edge30_Node000026_Node000017" class="edge">
<title>Node26&#45;&gt;Node17</title>
<g id="a_edge30_Node000026_Node000017"><a xlink:title=" ">
<path fill="none" stroke="#63b8ff" d="M376.28,-24.97C371.68,-27.63 367.12,-30.55 363,-33.62 329.75,-58.49 297.38,-96.02 282.9,-113.72"/>
<polygon fill="#63b8ff" stroke="#63b8ff" points="377.8,-28.13 384.92,-20.29 374.46,-21.98 377.8,-28.13"/>
</a>
</g>
</g>
<!-- Node27&#45;&gt;Node11 -->
<g id="edge35_Node000027_Node000011" class="edge">
<title>Node27&#45;&gt;Node11</title>
<g id="a_edge35_Node000027_Node000011"><a xlink:title=" ">
<path fill="none" stroke="#63b8ff" d="M499.92,-148.81C497.04,-150.03 494.21,-151.3 491.5,-152.62 474.44,-160.96 471.9,-166.06 455.5,-175.62 447.2,-180.46 437.85,-185.49 429.82,-189.69"/>
<polygon fill="#63b8ff" stroke="#63b8ff" points="501.01,-152.14 509.03,-145.22 498.44,-145.63 501.01,-152.14"/>
</a>
</g>
</g>
<!-- Node27&#45;&gt;Node12 -->
<g id="edge33_Node000027_Node000012" class="edge">
<title>Node27&#45;&gt;Node12</title>
<g id="a_edge33_Node000027_Node000012"><a xlink:title=" ">
<path fill="none" stroke="#63b8ff" d="M497.46,-142.35C439.77,-152.28 341.83,-169.13 297.72,-176.72"/>
<polygon fill="#63b8ff" stroke="#63b8ff" points="498.03,-145.81 507.29,-140.66 496.84,-138.91 498.03,-145.81"/>
</a>
</g>
</g>
<!-- Node27&#45;&gt;Node17 -->
<g id="edge34_Node000027_Node000017" class="edge">
<title>Node27&#45;&gt;Node17</title>
<g id="a_edge34_Node000027_Node000017"><a xlink:title=" ">
<path fill="none" stroke="#63b8ff" d="M497.43,-132.78C450.38,-130.84 376.58,-127.8 327.04,-125.77"/>
<polygon fill="#63b8ff" stroke="#63b8ff" points="497.13,-136.27 507.27,-133.18 497.42,-129.27 497.13,-136.27"/>
</a>
</g>
</g>
<!-- Node29&#45;&gt;Node13 -->
<g id="edge38_Node000029_Node000013" class="edge">
<title>Node29&#45;&gt;Node13</title>
<g id="a_edge38_Node000029_Node000013"><a xlink:title=" ">
<path fill="none" stroke="#63b8ff" d="M380.73,-335.93C354.17,-320.78 314.79,-298.32 292.34,-285.52"/>
<polygon fill="#63b8ff" stroke="#63b8ff" points="378.82,-338.87 389.24,-340.78 382.29,-332.79 378.82,-338.87"/>
</a>
</g>
</g>
<!-- Node31 -->
<g id="Node000031" class="node">
<title>Node31</title>
<g id="a_Node000031"><a xlink:href="parse__main_8c.html#a92aa268ea4b3d5c808364ca73d913cbe" target="_top" xlink:title=" ">
<polygon fill="white" stroke="#666666" points="453.25,-716.25 365.25,-716.25 365.25,-697 453.25,-697 453.25,-716.25"/>
<text text-anchor="middle" x="409.25" y="-702.75" font-family="Helvetica,sans-Serif" font-size="10.00">parse_func_redir</text>
</a>
</g>
</g>
<!-- Node30&#45;&gt;Node31 -->
<g id="edge40_Node000030_Node000031" class="edge">
<title>Node30&#45;&gt;Node31</title>
<g id="a_edge40_Node000030_Node000031"><a xlink:title=" ">
<path fill="none" stroke="#63b8ff" d="M493.04,-711.01C480.05,-710.32 466.13,-709.59 453.49,-708.92"/>
<polygon fill="#63b8ff" stroke="#63b8ff" points="492.48,-714.49 502.65,-711.52 492.85,-707.5 492.48,-714.49"/>
</a>
</g>
</g>
<!-- Node32 -->
<g id="Node000032" class="node">
<title>Node32</title>
<g id="a_Node000032"><a xlink:href="parse__main_8c.html#a5d7da6ab7925ffda04b676ef38880723" target="_top" xlink:title="Reading a line from the given .rt file and splitting the given line with the space (&#39; &#39;) delimiter....">
<polygon fill="white" stroke="#666666" points="321.75,-726.25 226.25,-726.25 226.25,-707 321.75,-707 321.75,-726.25"/>
<text text-anchor="middle" x="274" y="-712.75" font-family="Helvetica,sans-Serif" font-size="10.00">parse_rt_read_line</text>
</a>
</g>
</g>
<!-- Node31&#45;&gt;Node32 -->
<g id="edge41_Node000031_Node000032" class="edge">
<title>Node31&#45;&gt;Node32</title>
<g id="a_edge41_Node000031_Node000032"><a xlink:title=" ">
<path fill="none" stroke="#63b8ff" d="M353.82,-710.71C343.33,-711.5 332.42,-712.32 322.19,-713.08"/>
<polygon fill="#63b8ff" stroke="#63b8ff" points="353.77,-714.22 363.48,-709.98 353.24,-707.24 353.77,-714.22"/>
</a>
</g>
</g>
<!-- Node33 -->
<g id="Node000033" class="node">
<title>Node33</title>
<g id="a_Node000033"><a xlink:href="parse__main_8c.html#a62c4de2f960942eba61e7de12c387ae4" target="_top" xlink:title="Entry function to parsing .rt file where the file is attempted to be opened, t_parse structure is ini...">
<polygon fill="white" stroke="#666666" points="167.75,-731.25 90.25,-731.25 90.25,-712 167.75,-712 167.75,-731.25"/>
<text text-anchor="middle" x="129" y="-717.75" font-family="Helvetica,sans-Serif" font-size="10.00">parse_rt_main</text>
</a>
</g>
</g>
<!-- Node32&#45;&gt;Node33 -->
<g id="edge42_Node000032_Node000033" class="edge">
<title>Node32&#45;&gt;Node33</title>
<g id="a_edge42_Node000032_Node000033"><a xlink:title=" ">
<path fill="none" stroke="#63b8ff" d="M214.57,-718.67C198.91,-719.22 182.38,-719.79 168.13,-720.29"/>
<polygon fill="#63b8ff" stroke="#63b8ff" points="214.4,-722.18 224.27,-718.33 214.15,-715.18 214.4,-722.18"/>
</a>
</g>
</g>
<!-- Node33&#45;&gt;Node4 -->
<g id="edge43_Node000033_Node000004" class="edge">
<title>Node33&#45;&gt;Node4</title>
<g id="a_edge43_Node000033_Node000004"><a xlink:title=" ">
<path fill="none" stroke="#63b8ff" d="M79.29,-734.2C64.28,-738.07 48.7,-742.09 37.21,-745.06"/>
<polygon fill="#63b8ff" stroke="#63b8ff" points="79.78,-737.68 88.59,-731.8 78.03,-730.91 79.78,-737.68"/>
</a>
</g>
</g>
<!-- Node34&#45;&gt;Node31 -->
<g id="edge45_Node000034_Node000031" class="edge">
<title>Node34&#45;&gt;Node31</title>
<g id="a_edge45_Node000034_Node000031"><a xlink:title=" ">
<path fill="none" stroke="#63b8ff" d="M492.8,-687.88C479.97,-690.8 466.24,-693.91 453.74,-696.75"/>
<polygon fill="#63b8ff" stroke="#63b8ff" points="493.35,-691.35 502.33,-685.72 491.8,-684.52 493.35,-691.35"/>
</a>
</g>
</g>
<!-- Node35&#45;&gt;Node31 -->
<g id="edge47_Node000035_Node000031" class="edge">
<title>Node35&#45;&gt;Node31</title>
<g id="a_edge47_Node000035_Node000031"><a xlink:title=" ">
<path fill="none" stroke="#63b8ff" d="M500.64,-653.61C497.51,-654.89 494.44,-656.24 491.5,-657.62 467.07,-669.17 440.6,-686.03 424.72,-696.66"/>
<polygon fill="#63b8ff" stroke="#63b8ff" points="501.82,-656.91 509.89,-650.04 499.3,-650.38 501.82,-656.91"/>
</a>
</g>
</g>
<!-- Node36&#45;&gt;Node31 -->
<g id="edge49_Node000036_Node000031" class="edge">
<title>Node36&#45;&gt;Node31</title>
<g id="a_edge49_Node000036_Node000031"><a xlink:title=" ">
<path fill="none" stroke="#63b8ff" d="M498.5,-616.37C496.06,-617.68 493.71,-619.09 491.5,-620.62 471.03,-634.84 472.56,-645.46 455.5,-663.62 444.37,-675.48 430.75,-688.2 421.38,-696.71"/>
<polygon fill="#63b8ff" stroke="#63b8ff" points="499.84,-619.61 507.45,-612.24 496.91,-613.25 499.84,-619.61"/>
</a>
</g>
</g>
<!-- Node37&#45;&gt;Node9 -->
<g id="edge51_Node000037_Node000009" class="edge">
<title>Node37&#45;&gt;Node9</title>
<g id="a_edge51_Node000037_Node000009"><a xlink:title=" ">
<path fill="none" stroke="#63b8ff" d="M246.12,-465.84C217,-448.73 171.44,-421.97 146.94,-407.58"/>
<polygon fill="#63b8ff" stroke="#63b8ff" points="244.33,-468.85 254.73,-470.89 247.88,-462.81 244.33,-468.85"/>
</a>
</g>
</g>
<!-- Node39&#45;&gt;Node31 -->
<g id="edge54_Node000039_Node000031" class="edge">
<title>Node39&#45;&gt;Node31</title>
<g id="a_edge54_Node000039_Node000031"><a xlink:title=" ">
<path fill="none" stroke="#63b8ff" d="M620.7,-749.7C584.44,-746.94 534.59,-741.82 491.5,-732.62 472.96,-728.67 452.65,-722.17 436.97,-716.66"/>
<polygon fill="#63b8ff" stroke="#63b8ff" points="620.24,-753.17 630.46,-750.4 620.74,-746.19 620.24,-753.17"/>
</a>
</g>
</g>
<!-- Node40&#45;&gt;Node10 -->
<g id="edge61_Node000040_Node000010" class="edge">
<title>Node40&#45;&gt;Node10</title>
<g id="a_edge61_Node000040_Node000010"><a xlink:title=" ">
<path fill="none" stroke="#63b8ff" d="M501.97,-43.51C498.41,-44.86 494.88,-46.24 491.5,-47.62 470.32,-56.3 446.67,-67.54 430.38,-75.54"/>
<polygon fill="#63b8ff" stroke="#63b8ff" points="503,-46.87 511.18,-40.13 500.58,-40.29 503,-46.87"/>
</a>
</g>
</g>
<!-- Node40&#45;&gt;Node26 -->
<g id="edge62_Node000040_Node000026" class="edge">
<title>Node40&#45;&gt;Node26</title>
<g id="a_edge62_Node000040_Node000026"><a xlink:title=" ">
<path fill="none" stroke="#63b8ff" d="M501.45,-23.43C484.12,-20.81 464.07,-17.77 447.19,-15.22"/>
<polygon fill="#63b8ff" stroke="#63b8ff" points="500.49,-26.82 510.9,-24.86 501.53,-19.9 500.49,-26.82"/>
</a>
</g>
</g>
</g>
</svg>
