<?xml version="1.0" encoding="UTF-8" standalone="no"?>
<!DOCTYPE svg PUBLIC "-//W3C//DTD SVG 1.1//EN"
 "http://www.w3.org/Graphics/SVG/1.1/DTD/svg11.dtd">
<!-- Generated by graphviz version 9.0.0 (20230911.1827)
 -->
<!-- Title: ft_atod Pages: 1 -->
<svg width="1054pt" height="562pt"
 viewBox="0.00 0.00 1053.50 561.86" xmlns="http://www.w3.org/2000/svg" xmlns:xlink="http://www.w3.org/1999/xlink">
<g id="graph0" class="graph" transform="scale(1 1) rotate(0) translate(4 557.86)">
<title>ft_atod</title>
<!-- Node1 -->
<g id="Node000001" class="node">
<title>Node1</title>
<g id="a_Node000001"><a xlink:title=" ">
<polygon fill="#999999" stroke="#666666" points="1045.5,-408.15 999.5,-408.15 999.5,-388.9 1045.5,-388.9 1045.5,-408.15"/>
<text text-anchor="middle" x="1022.5" y="-394.65" font-family="Helvetica,sans-Serif" font-size="10.00">ft_atod</text>
</a>
</g>
</g>
<!-- Node2 -->
<g id="Node000002" class="node">
<title>Node2</title>
<g id="a_Node000002"><a xlink:href="parse__assign__coord__utils_8c.html#acdc77317cdae9d7fca002fad8c2960a6" target="_top" xlink:title=" ">
<polygon fill="white" stroke="#666666" points="963.5,-408.15 863.5,-408.15 863.5,-388.9 963.5,-388.9 963.5,-408.15"/>
<text text-anchor="middle" x="913.5" y="-394.65" font-family="Helvetica,sans-Serif" font-size="10.00">assign_coordinates</text>
</a>
</g>
</g>
<!-- Node1&#45;&gt;Node2 -->
<g id="edge1_Node000001_Node000002" class="edge">
<title>Node1&#45;&gt;Node2</title>
<g id="a_edge1_Node000001_Node000002"><a xlink:title=" ">
<path fill="none" stroke="#63b8ff" d="M987.73,-398.53C980.12,-398.53 971.89,-398.53 963.79,-398.53"/>
<polygon fill="#63b8ff" stroke="#63b8ff" points="987.56,-402.03 997.56,-398.53 987.56,-395.03 987.56,-402.03"/>
</a>
</g>
</g>
<!-- Node4 -->
<g id="Node000004" class="node">
<title>Node4</title>
<g id="a_Node000004"><a xlink:href="parse__camera__light_8c.html#a00b9b6a4aadecaaf341d2fc409582b39" target="_top" xlink:title=" ">
<polygon fill="white" stroke="#666666" points="520.62,-377.15 443.12,-377.15 443.12,-357.9 520.62,-357.9 520.62,-377.15"/>
<text text-anchor="middle" x="481.88" y="-363.65" font-family="Helvetica,sans-Serif" font-size="10.00">parse_camera</text>
</a>
</g>
</g>
<!-- Node1&#45;&gt;Node4 -->
<g id="edge49_Node000001_Node000004" class="edge">
<title>Node1&#45;&gt;Node4</title>
<g id="a_edge49_Node000001_Node000004"><a xlink:title=" ">
<path fill="none" stroke="#63b8ff" d="M1014.86,-419.18C1006.65,-440.89 990.35,-473.89 963.5,-488.53 805.17,-574.85 715.28,-576.3 557.75,-488.53 513.73,-464 492.32,-401.73 485.44,-377.44"/>
<polygon fill="#63b8ff" stroke="#63b8ff" points="1018.11,-420.49 1018.11,-409.9 1011.5,-418.18 1018.11,-420.49"/>
</a>
</g>
</g>
<!-- Node9 -->
<g id="Node000009" class="node">
<title>Node9</title>
<g id="a_Node000009"><a xlink:href="parse__objects_8c.html#a438a08a219ba336c395096067e52bb1b" target="_top" xlink:title=" ">
<polygon fill="white" stroke="#666666" points="521,-340.15 442.75,-340.15 442.75,-320.9 521,-320.9 521,-340.15"/>
<text text-anchor="middle" x="481.88" y="-326.65" font-family="Helvetica,sans-Serif" font-size="10.00">parse_cylinder</text>
</a>
</g>
</g>
<!-- Node1&#45;&gt;Node9 -->
<g id="edge50_Node000001_Node000009" class="edge">
<title>Node1&#45;&gt;Node9</title>
<g id="a_edge50_Node000001_Node000009"><a xlink:title=" ">
<path fill="none" stroke="#63b8ff" d="M1001.65,-415.78C991.04,-424.04 977.33,-433.26 963.5,-438.53 852.49,-480.83 812.41,-482.66 696.75,-455.53 629.6,-439.78 613.21,-427.53 557.75,-386.53 539.04,-372.7 540.64,-362.1 521.75,-348.53 517.64,-345.58 512.97,-342.92 508.33,-340.62"/>
<polygon fill="#63b8ff" stroke="#63b8ff" points="1003.74,-418.59 1009.28,-409.56 999.32,-413.17 1003.74,-418.59"/>
</a>
</g>
</g>
<!-- Node10 -->
<g id="Node000010" class="node">
<title>Node10</title>
<g id="a_Node000010"><a xlink:href="parse__camera__light_8c.html#aaa10205c0950a79dd43566074de7b0a0" target="_top" xlink:title=" ">
<polygon fill="white" stroke="#666666" points="513.5,-229.15 450.25,-229.15 450.25,-209.9 513.5,-209.9 513.5,-229.15"/>
<text text-anchor="middle" x="481.88" y="-215.65" font-family="Helvetica,sans-Serif" font-size="10.00">parse_light</text>
</a>
</g>
</g>
<!-- Node1&#45;&gt;Node10 -->
<g id="edge51_Node000001_Node000010" class="edge">
<title>Node1&#45;&gt;Node10</title>
<g id="a_edge51_Node000001_Node000010"><a xlink:title=" ">
<path fill="none" stroke="#63b8ff" d="M1017.29,-377.26C1003.53,-314.57 953.36,-131.12 827.5,-71.53 774.98,-46.66 751.92,-53.28 696.75,-71.53 604.76,-101.96 605.04,-152.02 521.75,-201.53 517.02,-204.34 511.77,-207.03 506.71,-209.43"/>
<polygon fill="#63b8ff" stroke="#63b8ff" points="1013.84,-377.87 1019.31,-386.94 1020.69,-376.44 1013.84,-377.87"/>
</a>
</g>
</g>
<!-- Node12 -->
<g id="Node000012" class="node">
<title>Node12</title>
<g id="a_Node000012"><a xlink:href="check__range_8c.html#a31d1b2f2b0c6260cc272247fb1e281e4" target="_top" xlink:title=" ">
<polygon fill="white" stroke="#666666" points="949.25,-266.15 877.75,-266.15 877.75,-246.9 949.25,-246.9 949.25,-266.15"/>
<text text-anchor="middle" x="913.5" y="-252.65" font-family="Helvetica,sans-Serif" font-size="10.00">check_range</text>
</a>
</g>
</g>
<!-- Node1&#45;&gt;Node12 -->
<g id="edge14_Node000001_Node000012" class="edge">
<title>Node1&#45;&gt;Node12</title>
<g id="a_edge14_Node000001_Node000012"><a xlink:title=" ">
<path fill="none" stroke="#63b8ff" d="M1007.22,-379.58C984.16,-348.97 939.52,-289.73 921.91,-266.36"/>
<polygon fill="#63b8ff" stroke="#63b8ff" points="1004.42,-381.68 1013.23,-387.56 1010.01,-377.47 1004.42,-381.68"/>
</a>
</g>
</g>
<!-- Node15 -->
<g id="Node000015" class="node">
<title>Node15</title>
<g id="a_Node000015"><a xlink:href="parse__camera__light_8c.html#a0b2ac9083d47f8bf5eed5fbbb5576a19" target="_top" xlink:title=" ">
<polygon fill="white" stroke="#666666" points="521.75,-192.15 442,-192.15 442,-172.9 521.75,-172.9 521.75,-192.15"/>
<text text-anchor="middle" x="481.88" y="-178.65" font-family="Helvetica,sans-Serif" font-size="10.00">parse_ambient</text>
</a>
</g>
</g>
<!-- Node1&#45;&gt;Node15 -->
<g id="edge48_Node000001_Node000015" class="edge">
<title>Node1&#45;&gt;Node15</title>
<g id="a_edge48_Node000001_Node000015"><a xlink:title=" ">
<path fill="none" stroke="#63b8ff" d="M1020.31,-377.31C1016.4,-314.94 1001.9,-133.94 963.5,-91.53 842.45,42.19 709.14,14.53 557.75,-83.53 522.3,-106.49 497.24,-152.32 487.44,-172.55"/>
<polygon fill="#63b8ff" stroke="#63b8ff" points="1016.8,-377.14 1020.88,-386.91 1023.78,-376.72 1016.8,-377.14"/>
</a>
</g>
</g>
<!-- Node16 -->
<g id="Node000016" class="node">
<title>Node16</title>
<g id="a_Node000016"><a xlink:href="parse__assign__vec__utils_8c.html#a714588a0946a445e8f37f00e6eb68bbf" target="_top" xlink:title=" ">
<polygon fill="white" stroke="#666666" points="827.5,-446.15 696.75,-446.15 696.75,-426.9 827.5,-426.9 827.5,-446.15"/>
<text text-anchor="middle" x="762.12" y="-432.65" font-family="Helvetica,sans-Serif" font-size="10.00">parse_vector_components</text>
</a>
</g>
</g>
<!-- Node1&#45;&gt;Node16 -->
<g id="edge52_Node000001_Node000016" class="edge">
<title>Node1&#45;&gt;Node16</title>
<g id="a_edge52_Node000001_Node000016"><a xlink:title=" ">
<path fill="none" stroke="#63b8ff" d="M988.37,-410.78C980.32,-413.37 971.68,-415.82 963.5,-417.53 918.69,-426.87 867.27,-431.63 827.74,-434.04"/>
<polygon fill="#63b8ff" stroke="#63b8ff" points="989.44,-414.11 997.8,-407.59 987.2,-407.48 989.44,-414.11"/>
</a>
</g>
</g>
<!-- Node3 -->
<g id="Node000003" class="node">
<title>Node3</title>
<g id="a_Node000003"><a xlink:href="parse__utils_8c.html#a4b09ddfa5e35fa7e45323421232772ce" target="_top" xlink:title=" ">
<polygon fill="white" stroke="#666666" points="660.75,-340.15 557.75,-340.15 557.75,-320.9 660.75,-320.9 660.75,-340.15"/>
<text text-anchor="middle" x="609.25" y="-326.65" font-family="Helvetica,sans-Serif" font-size="10.00">parse_assign_coord</text>
</a>
</g>
</g>
<!-- Node2&#45;&gt;Node3 -->
<g id="edge2_Node000002_Node000003" class="edge">
<title>Node2&#45;&gt;Node3</title>
<g id="a_edge2_Node000002_Node000003"><a xlink:title=" ">
<path fill="none" stroke="#63b8ff" d="M852.07,-402.92C807.45,-403.89 746.15,-400.38 696.75,-379.53 677.3,-371.32 679,-359.14 660.75,-348.53 655.52,-345.49 649.69,-342.83 643.9,-340.56"/>
<polygon fill="#63b8ff" stroke="#63b8ff" points="851.93,-406.43 861.81,-402.62 851.71,-399.43 851.93,-406.43"/>
</a>
</g>
</g>
<!-- Node3&#45;&gt;Node4 -->
<g id="edge3_Node000003_Node000004" class="edge">
<title>Node3&#45;&gt;Node4</title>
<g id="a_edge3_Node000003_Node000004"><a xlink:title=" ">
<path fill="none" stroke="#63b8ff" d="M563.24,-343.81C548.04,-348.3 531.32,-353.23 517.09,-357.43"/>
<polygon fill="#63b8ff" stroke="#63b8ff" points="563.94,-347.25 572.54,-341.07 561.96,-340.54 563.94,-347.25"/>
</a>
</g>
</g>
<!-- Node3&#45;&gt;Node9 -->
<g id="edge8_Node000003_Node000009" class="edge">
<title>Node3&#45;&gt;Node9</title>
<g id="a_edge8_Node000003_Node000009"><a xlink:title=" ">
<path fill="none" stroke="#63b8ff" d="M545.82,-330.53C537.4,-330.53 528.96,-330.53 521.13,-330.53"/>
<polygon fill="#63b8ff" stroke="#63b8ff" points="545.74,-334.03 555.74,-330.53 545.74,-327.03 545.74,-334.03"/>
</a>
</g>
</g>
<!-- Node3&#45;&gt;Node10 -->
<g id="edge10_Node000003_Node000010" class="edge">
<title>Node3&#45;&gt;Node10</title>
<g id="a_edge10_Node000003_Node000010"><a xlink:title=" ">
<path fill="none" stroke="#63b8ff" d="M591.41,-312.25C566.82,-285.58 523.78,-239 521.75,-237.53 517.66,-234.56 512.99,-231.9 508.36,-229.59"/>
<polygon fill="#63b8ff" stroke="#63b8ff" points="588.58,-314.34 597.93,-319.32 593.72,-309.59 588.58,-314.34"/>
</a>
</g>
</g>
<!-- Node11 -->
<g id="Node000011" class="node">
<title>Node11</title>
<g id="a_Node000011"><a xlink:href="parse__objects_8c.html#a7e641794acee51578d8539e361635c47" target="_top" xlink:title=" ">
<polygon fill="white" stroke="#666666" points="516.12,-303.15 447.62,-303.15 447.62,-283.9 516.12,-283.9 516.12,-303.15"/>
<text text-anchor="middle" x="481.88" y="-289.65" font-family="Helvetica,sans-Serif" font-size="10.00">parse_plane</text>
</a>
</g>
</g>
<!-- Node3&#45;&gt;Node11 -->
<g id="edge12_Node000003_Node000011" class="edge">
<title>Node3&#45;&gt;Node11</title>
<g id="a_edge12_Node000003_Node000011"><a xlink:title=" ">
<path fill="none" stroke="#63b8ff" d="M563.06,-317.19C547.6,-312.63 530.59,-307.61 516.23,-303.37"/>
<polygon fill="#63b8ff" stroke="#63b8ff" points="561.96,-320.52 572.54,-319.99 563.94,-313.8 561.96,-320.52"/>
</a>
</g>
</g>
<!-- Node5 -->
<g id="Node000005" class="node">
<title>Node5</title>
<g id="a_Node000005"><a xlink:href="parse__main_8c.html#a92aa268ea4b3d5c808364ca73d913cbe" target="_top" xlink:title=" ">
<polygon fill="white" stroke="#666666" points="406,-284.15 318,-284.15 318,-264.9 406,-264.9 406,-284.15"/>
<text text-anchor="middle" x="362" y="-270.65" font-family="Helvetica,sans-Serif" font-size="10.00">parse_func_redir</text>
</a>
</g>
</g>
<!-- Node4&#45;&gt;Node5 -->
<g id="edge4_Node000004_Node000005" class="edge">
<title>Node4&#45;&gt;Node5</title>
<g id="a_edge4_Node000004_Node000005"><a xlink:title=" ">
<path fill="none" stroke="#63b8ff" d="M446.18,-352.19C444.75,-351.33 443.35,-350.44 442,-349.53 413.37,-330.09 385.3,-300.11 371.62,-284.6"/>
<polygon fill="#63b8ff" stroke="#63b8ff" points="444.16,-355.08 454.62,-356.74 447.48,-348.92 444.16,-355.08"/>
</a>
</g>
</g>
<!-- Node6 -->
<g id="Node000006" class="node">
<title>Node6</title>
<g id="a_Node000006"><a xlink:href="parse__main_8c.html#a5d7da6ab7925ffda04b676ef38880723" target="_top" xlink:title="Reading a line from the given .rt file and splitting the given line with the space (&#39; &#39;) delimiter....">
<polygon fill="white" stroke="#666666" points="282,-284.15 186.5,-284.15 186.5,-264.9 282,-264.9 282,-284.15"/>
<text text-anchor="middle" x="234.25" y="-270.65" font-family="Helvetica,sans-Serif" font-size="10.00">parse_rt_read_line</text>
</a>
</g>
</g>
<!-- Node5&#45;&gt;Node6 -->
<g id="edge5_Node000005_Node000006" class="edge">
<title>Node5&#45;&gt;Node6</title>
<g id="a_edge5_Node000005_Node000006"><a xlink:title=" ">
<path fill="none" stroke="#63b8ff" d="M306.29,-274.53C298.36,-274.53 290.25,-274.53 282.48,-274.53"/>
<polygon fill="#63b8ff" stroke="#63b8ff" points="306.21,-278.03 316.21,-274.53 306.21,-271.03 306.21,-278.03"/>
</a>
</g>
</g>
<!-- Node7 -->
<g id="Node000007" class="node">
<title>Node7</title>
<g id="a_Node000007"><a xlink:href="parse__main_8c.html#a62c4de2f960942eba61e7de12c387ae4" target="_top" xlink:title="Entry function to parsing .rt file where the file is attempted to be opened, t_parse structure is ini...">
<polygon fill="white" stroke="#666666" points="150.5,-284.15 73,-284.15 73,-264.9 150.5,-264.9 150.5,-284.15"/>
<text text-anchor="middle" x="111.75" y="-270.65" font-family="Helvetica,sans-Serif" font-size="10.00">parse_rt_main</text>
</a>
</g>
</g>
<!-- Node6&#45;&gt;Node7 -->
<g id="edge6_Node000006_Node000007" class="edge">
<title>Node6&#45;&gt;Node7</title>
<g id="a_edge6_Node000006_Node000007"><a xlink:title=" ">
<path fill="none" stroke="#63b8ff" d="M174.86,-274.53C166.69,-274.53 158.47,-274.53 150.81,-274.53"/>
<polygon fill="#63b8ff" stroke="#63b8ff" points="174.8,-278.03 184.8,-274.53 174.8,-271.03 174.8,-278.03"/>
</a>
</g>
</g>
<!-- Node8 -->
<g id="Node000008" class="node">
<title>Node8</title>
<g id="a_Node000008"><a xlink:href="mini__ray_8c.html#a0c99d968a34e803d378692bde2e3f18f" target="_top" xlink:title=" ">
<polygon fill="white" stroke="#666666" points="37,-284.15 0,-284.15 0,-264.9 37,-264.9 37,-284.15"/>
<text text-anchor="middle" x="18.5" y="-270.65" font-family="Helvetica,sans-Serif" font-size="10.00">main</text>
</a>
</g>
</g>
<!-- Node7&#45;&gt;Node8 -->
<g id="edge7_Node000007_Node000008" class="edge">
<title>Node7&#45;&gt;Node8</title>
<g id="a_edge7_Node000007_Node000008"><a xlink:title=" ">
<path fill="none" stroke="#63b8ff" d="M61.23,-274.53C52.6,-274.53 44.15,-274.53 37.14,-274.53"/>
<polygon fill="#63b8ff" stroke="#63b8ff" points="61.07,-278.03 71.07,-274.53 61.07,-271.03 61.07,-278.03"/>
</a>
</g>
</g>
<!-- Node9&#45;&gt;Node5 -->
<g id="edge9_Node000009_Node000005" class="edge">
<title>Node9&#45;&gt;Node5</title>
<g id="a_edge9_Node000009_Node000005"><a xlink:title=" ">
<path fill="none" stroke="#63b8ff" d="M448.62,-315.64C446.38,-314.59 444.15,-313.54 442,-312.53 422.18,-303.17 399.66,-292.32 383.75,-284.61"/>
<polygon fill="#63b8ff" stroke="#63b8ff" points="447.14,-318.81 457.68,-319.85 450.09,-312.46 447.14,-318.81"/>
</a>
</g>
</g>
<!-- Node10&#45;&gt;Node5 -->
<g id="edge11_Node000010_Node000005" class="edge">
<title>Node10&#45;&gt;Node5</title>
<g id="a_edge11_Node000010_Node000005"><a xlink:title=" ">
<path fill="none" stroke="#63b8ff" d="M448.63,-234.44C446.39,-235.49 444.16,-236.52 442,-237.53 422.5,-246.61 400.33,-257 384.45,-264.45"/>
<polygon fill="#63b8ff" stroke="#63b8ff" points="450.1,-237.62 457.7,-230.24 447.16,-231.27 450.1,-237.62"/>
</a>
</g>
</g>
<!-- Node11&#45;&gt;Node5 -->
<g id="edge13_Node000011_Node000005" class="edge">
<title>Node11&#45;&gt;Node5</title>
<g id="a_edge13_Node000011_Node000005"><a xlink:title=" ">
<path fill="none" stroke="#63b8ff" d="M436.22,-286.33C426.4,-284.75 416.02,-283.07 406.25,-281.5"/>
<polygon fill="#63b8ff" stroke="#63b8ff" points="435.49,-289.76 445.92,-287.89 436.6,-282.85 435.49,-289.76"/>
</a>
</g>
</g>
<!-- Node13 -->
<g id="Node000013" class="node">
<title>Node13</title>
<g id="a_Node000013"><a xlink:href="parse__validate__assign__rgb__utils_8c.html#ab71c9a28c124cbbec7afa314c3595d68" target="_top" xlink:title=" ">
<polygon fill="white" stroke="#666666" points="812.5,-100.15 711.75,-100.15 711.75,-80.9 812.5,-80.9 812.5,-100.15"/>
<text text-anchor="middle" x="762.12" y="-86.65" font-family="Helvetica,sans-Serif" font-size="10.00">parse_transparency</text>
</a>
</g>
</g>
<!-- Node12&#45;&gt;Node13 -->
<g id="edge15_Node000012_Node000013" class="edge">
<title>Node12&#45;&gt;Node13</title>
<g id="a_edge15_Node000012_Node000013"><a xlink:title=" ">
<path fill="none" stroke="#63b8ff" d="M906.24,-235.7C895.5,-203.51 870.43,-141.92 827.5,-108.53 823.1,-105.11 818.09,-102.34 812.85,-100.09"/>
<polygon fill="#63b8ff" stroke="#63b8ff" points="902.85,-236.56 909.21,-245.03 909.52,-234.44 902.85,-236.56"/>
</a>
</g>
</g>
<!-- Node12&#45;&gt;Node16 -->
<g id="edge22_Node000012_Node000016" class="edge">
<title>Node12&#45;&gt;Node16</title>
<g id="a_edge22_Node000012_Node000016"><a xlink:title=" ">
<path fill="none" stroke="#63b8ff" d="M900.98,-276.18C885.75,-301.39 857.35,-345.86 827.5,-379.53 811.46,-397.62 789.94,-415.64 776.3,-426.44"/>
<polygon fill="#63b8ff" stroke="#63b8ff" points="903.94,-278.04 906.06,-267.66 897.93,-274.46 903.94,-278.04"/>
</a>
</g>
</g>
<!-- Node18 -->
<g id="Node000018" class="node">
<title>Node18</title>
<g id="a_Node000018"><a xlink:href="parse__validate__obj__utils_8c.html#afc0fb046c4f491b01a17dc19ff7e07ac" target="_top" xlink:title=" ">
<polygon fill="white" stroke="#666666" points="806.88,-248.15 717.38,-248.15 717.38,-228.9 806.88,-228.9 806.88,-248.15"/>
<text text-anchor="middle" x="762.12" y="-234.65" font-family="Helvetica,sans-Serif" font-size="10.00">validate_ambient</text>
</a>
</g>
</g>
<!-- Node12&#45;&gt;Node18 -->
<g id="edge27_Node000012_Node000018" class="edge">
<title>Node12&#45;&gt;Node18</title>
<g id="a_edge27_Node000012_Node000018"><a xlink:title=" ">
<path fill="none" stroke="#63b8ff" d="M866.21,-250.95C847.43,-248.69 825.85,-246.09 807.3,-243.85"/>
<polygon fill="#63b8ff" stroke="#63b8ff" points="865.63,-254.41 875.98,-252.13 866.47,-247.46 865.63,-254.41"/>
</a>
</g>
</g>
<!-- Node21 -->
<g id="Node000021" class="node">
<title>Node21</title>
<g id="a_Node000021"><a xlink:href="parse__validate__obj__utils_8c.html#addac7b2e5dfd2ee9efe59f688946f39b" target="_top" xlink:title=" ">
<polygon fill="white" stroke="#666666" points="805.75,-211.15 718.5,-211.15 718.5,-191.9 805.75,-191.9 805.75,-211.15"/>
<text text-anchor="middle" x="762.12" y="-197.65" font-family="Helvetica,sans-Serif" font-size="10.00">validate_camera</text>
</a>
</g>
</g>
<!-- Node12&#45;&gt;Node21 -->
<g id="edge36_Node000012_Node000021" class="edge">
<title>Node12&#45;&gt;Node21</title>
<g id="a_edge36_Node000012_Node000021"><a xlink:title=" ">
<path fill="none" stroke="#63b8ff" d="M881.2,-241.67C865.33,-234.45 845.61,-225.97 827.5,-219.53 819.52,-216.69 810.85,-214.01 802.55,-211.62"/>
<polygon fill="#63b8ff" stroke="#63b8ff" points="879.6,-244.78 890.14,-245.79 882.53,-238.43 879.6,-244.78"/>
</a>
</g>
</g>
<!-- Node22 -->
<g id="Node000022" class="node">
<title>Node22</title>
<g id="a_Node000022"><a xlink:href="parse__assign__coord__utils_8c.html#a0f249ab97644690110e43ae95f50fec8" target="_top" xlink:title=" ">
<polygon fill="white" stroke="#666666" points="812.12,-370.78 712.12,-370.78 712.12,-340.28 812.12,-340.28 812.12,-370.78"/>
<text text-anchor="start" x="720.12" y="-357.28" font-family="Helvetica,sans-Serif" font-size="10.00">validate_coordinate</text>
<text text-anchor="middle" x="762.12" y="-346.03" font-family="Helvetica,sans-Serif" font-size="10.00">_values</text>
</a>
</g>
</g>
<!-- Node12&#45;&gt;Node22 -->
<g id="edge38_Node000012_Node000022" class="edge">
<title>Node12&#45;&gt;Node22</title>
<g id="a_edge38_Node000012_Node000022"><a xlink:title=" ">
<path fill="none" stroke="#63b8ff" d="M895.99,-274.48C879.86,-291.13 853.95,-315.68 827.5,-331.53 822.38,-334.59 816.81,-337.38 811.15,-339.87"/>
<polygon fill="#63b8ff" stroke="#63b8ff" points="898.1,-277.34 902.44,-267.67 893.02,-272.52 898.1,-277.34"/>
</a>
</g>
</g>
<!-- Node23 -->
<g id="Node000023" class="node">
<title>Node23</title>
<g id="a_Node000023"><a xlink:href="parse__validate__obj__utils_8c.html#a578190cd0dc27381815b6d4d98c65168" target="_top" xlink:title=" ">
<polygon fill="white" stroke="#666666" points="806.12,-174.15 718.12,-174.15 718.12,-154.9 806.12,-154.9 806.12,-174.15"/>
<text text-anchor="middle" x="762.12" y="-160.65" font-family="Helvetica,sans-Serif" font-size="10.00">validate_cylinder</text>
</a>
</g>
</g>
<!-- Node12&#45;&gt;Node23 -->
<g id="edge40_Node000012_Node000023" class="edge">
<title>Node12&#45;&gt;Node23</title>
<g id="a_edge40_Node000012_Node000023"><a xlink:title=" ">
<path fill="none" stroke="#63b8ff" d="M896.05,-238.14C880.08,-221.35 854.38,-197.02 827.5,-182.53 820.96,-179 813.67,-176.12 806.41,-173.77"/>
<polygon fill="#63b8ff" stroke="#63b8ff" points="893.47,-240.5 902.84,-245.46 898.61,-235.75 893.47,-240.5"/>
</a>
</g>
</g>
<!-- Node24 -->
<g id="Node000024" class="node">
<title>Node24</title>
<g id="a_Node000024"><a xlink:href="parse__validate__obj__utils_8c.html#a75294ff609499aa907ba8c285855f720" target="_top" xlink:title=" ">
<polygon fill="white" stroke="#666666" points="798.62,-322.15 725.62,-322.15 725.62,-302.9 798.62,-302.9 798.62,-322.15"/>
<text text-anchor="middle" x="762.12" y="-308.65" font-family="Helvetica,sans-Serif" font-size="10.00">validate_light</text>
</a>
</g>
</g>
<!-- Node12&#45;&gt;Node24 -->
<g id="edge42_Node000012_Node000024" class="edge">
<title>Node12&#45;&gt;Node24</title>
<g id="a_edge42_Node000012_Node000024"><a xlink:title=" ">
<path fill="none" stroke="#63b8ff" d="M881.89,-271.53C865.91,-279.02 845.91,-287.88 827.5,-294.53 818.33,-297.84 808.25,-300.91 798.84,-303.55"/>
<polygon fill="#63b8ff" stroke="#63b8ff" points="883.35,-274.71 890.87,-267.26 880.34,-268.39 883.35,-274.71"/>
</a>
</g>
</g>
<!-- Node25 -->
<g id="Node000025" class="node">
<title>Node25</title>
<g id="a_Node000025"><a xlink:href="parse__validate__assign__rgb__utils_8c.html#a00d4a3c3a01ac083aacdf897546cc68c" target="_top" xlink:title=" ">
<polygon fill="white" stroke="#666666" points="813.62,-137.15 710.62,-137.15 710.62,-117.9 813.62,-117.9 813.62,-137.15"/>
<text text-anchor="middle" x="762.12" y="-123.65" font-family="Helvetica,sans-Serif" font-size="10.00">validate_rgb_ranges</text>
</a>
</g>
</g>
<!-- Node12&#45;&gt;Node25 -->
<g id="edge44_Node000012_Node000025" class="edge">
<title>Node12&#45;&gt;Node25</title>
<g id="a_edge44_Node000012_Node000025"><a xlink:title=" ">
<path fill="none" stroke="#63b8ff" d="M902.35,-236.32C888.74,-211.27 862.19,-169 827.5,-145.53 822.79,-142.34 817.53,-139.71 812.09,-137.55"/>
<polygon fill="#63b8ff" stroke="#63b8ff" points="899.24,-237.92 906.98,-245.16 905.44,-234.67 899.24,-237.92"/>
</a>
</g>
</g>
<!-- Node26 -->
<g id="Node000026" class="node">
<title>Node26</title>
<g id="a_Node000026"><a xlink:href="parse__validate__obj__utils_8c.html#ad58bbd3ad3f3f914989f3c0bc27cff8e" target="_top" xlink:title=" ">
<polygon fill="white" stroke="#666666" points="804.25,-285.15 720,-285.15 720,-265.9 804.25,-265.9 804.25,-285.15"/>
<text text-anchor="middle" x="762.12" y="-271.65" font-family="Helvetica,sans-Serif" font-size="10.00">validate_sphere</text>
</a>
</g>
</g>
<!-- Node12&#45;&gt;Node26 -->
<g id="edge46_Node000012_Node000026" class="edge">
<title>Node12&#45;&gt;Node26</title>
<g id="a_edge46_Node000012_Node000026"><a xlink:title=" ">
<path fill="none" stroke="#63b8ff" d="M866.28,-262.41C846.56,-264.92 823.72,-267.82 804.56,-270.26"/>
<polygon fill="#63b8ff" stroke="#63b8ff" points="866.5,-265.91 875.98,-261.17 865.62,-258.96 866.5,-265.91"/>
</a>
</g>
</g>
<!-- Node14 -->
<g id="Node000014" class="node">
<title>Node14</title>
<g id="a_Node000014"><a xlink:href="parse__utils_8c.html#aa353b138267370a075b03b29a2306573" target="_top" xlink:title=" ">
<polygon fill="white" stroke="#666666" points="657,-210.15 561.5,-210.15 561.5,-190.9 657,-190.9 657,-210.15"/>
<text text-anchor="middle" x="609.25" y="-196.65" font-family="Helvetica,sans-Serif" font-size="10.00">parse_assign_trgb</text>
</a>
</g>
</g>
<!-- Node13&#45;&gt;Node14 -->
<g id="edge16_Node000013_Node000014" class="edge">
<title>Node13&#45;&gt;Node14</title>
<g id="a_edge16_Node000013_Node000014"><a xlink:title=" ">
<path fill="none" stroke="#63b8ff" d="M703.03,-105.1C700.87,-106.17 698.77,-107.31 696.75,-108.53 660.56,-130.44 629.77,-171.6 616.81,-190.54"/>
<polygon fill="#63b8ff" stroke="#63b8ff" points="704.26,-108.38 712.08,-101.24 701.51,-101.94 704.26,-108.38"/>
</a>
</g>
</g>
<!-- Node14&#45;&gt;Node9 -->
<g id="edge19_Node000014_Node000009" class="edge">
<title>Node14&#45;&gt;Node9</title>
<g id="a_edge19_Node000014_Node000009"><a xlink:title=" ">
<path fill="none" stroke="#63b8ff" d="M581.25,-216.62C572.98,-222.46 564.34,-229.59 557.75,-237.53 534.13,-265.97 548.08,-286.57 521.75,-312.53 518.57,-315.66 514.75,-318.31 510.76,-320.54"/>
<polygon fill="#63b8ff" stroke="#63b8ff" points="582.98,-219.67 589.37,-211.23 579.11,-213.84 582.98,-219.67"/>
</a>
</g>
</g>
<!-- Node14&#45;&gt;Node10 -->
<g id="edge20_Node000014_Node000010" class="edge">
<title>Node14&#45;&gt;Node10</title>
<g id="a_edge20_Node000014_Node000010"><a xlink:title=" ">
<path fill="none" stroke="#63b8ff" d="M549.89,-209.37C537.44,-211.26 524.75,-213.18 513.82,-214.84"/>
<polygon fill="#63b8ff" stroke="#63b8ff" points="550.35,-212.84 559.71,-207.88 549.3,-205.92 550.35,-212.84"/>
</a>
</g>
</g>
<!-- Node14&#45;&gt;Node11 -->
<g id="edge21_Node000014_Node000011" class="edge">
<title>Node14&#45;&gt;Node11</title>
<g id="a_edge21_Node000014_Node000011"><a xlink:title=" ">
<path fill="none" stroke="#63b8ff" d="M583.72,-217.15C575.24,-223.24 565.84,-230.4 557.75,-237.53 540.3,-252.91 540.64,-261.95 521.75,-275.53 517.64,-278.48 512.97,-281.13 508.33,-283.44"/>
<polygon fill="#63b8ff" stroke="#63b8ff" points="585.71,-220.02 591.89,-211.41 581.69,-214.3 585.71,-220.02"/>
</a>
</g>
</g>
<!-- Node14&#45;&gt;Node15 -->
<g id="edge17_Node000014_Node000015" class="edge">
<title>Node14&#45;&gt;Node15</title>
<g id="a_edge17_Node000014_Node000015"><a xlink:title=" ">
<path fill="none" stroke="#63b8ff" d="M549.82,-192.14C540.39,-190.78 530.82,-189.41 521.99,-188.14"/>
<polygon fill="#63b8ff" stroke="#63b8ff" points="549.31,-195.6 559.71,-193.56 550.31,-188.67 549.31,-195.6"/>
</a>
</g>
</g>
<!-- Node15&#45;&gt;Node5 -->
<g id="edge18_Node000015_Node000005" class="edge">
<title>Node15&#45;&gt;Node5</title>
<g id="a_edge18_Node000015_Node000005"><a xlink:title=" ">
<path fill="none" stroke="#63b8ff" d="M446.19,-197.87C444.75,-198.73 443.35,-199.62 442,-200.53 413.48,-219.75 385.37,-249.31 371.65,-264.6"/>
<polygon fill="#63b8ff" stroke="#63b8ff" points="447.48,-201.15 454.63,-193.33 444.17,-194.99 447.48,-201.15"/>
</a>
</g>
</g>
<!-- Node17 -->
<g id="Node000017" class="node">
<title>Node17</title>
<g id="a_Node000017"><a xlink:href="parse__utils_8c.html#a70a5145ad572a59954c71984bf73ca01" target="_top" xlink:title=" ">
<polygon fill="white" stroke="#666666" points="656.62,-377.15 561.88,-377.15 561.88,-357.9 656.62,-357.9 656.62,-377.15"/>
<text text-anchor="middle" x="609.25" y="-363.65" font-family="Helvetica,sans-Serif" font-size="10.00">parse_assign_vec</text>
</a>
</g>
</g>
<!-- Node16&#45;&gt;Node17 -->
<g id="edge23_Node000016_Node000017" class="edge">
<title>Node16&#45;&gt;Node17</title>
<g id="a_edge23_Node000016_Node000017"><a xlink:title=" ">
<path fill="none" stroke="#63b8ff" d="M720.92,-422.41C712.84,-419.33 704.47,-415.96 696.75,-412.53 672.31,-401.66 645.09,-387.07 627.83,-377.49"/>
<polygon fill="#63b8ff" stroke="#63b8ff" points="719.65,-425.67 730.24,-425.88 722.09,-419.11 719.65,-425.67"/>
</a>
</g>
</g>
<!-- Node17&#45;&gt;Node4 -->
<g id="edge24_Node000017_Node000004" class="edge">
<title>Node17&#45;&gt;Node4</title>
<g id="a_edge24_Node000017_Node000004"><a xlink:title=" ">
<path fill="none" stroke="#63b8ff" d="M550.1,-367.53C540.22,-367.53 530.19,-367.53 521,-367.53"/>
<polygon fill="#63b8ff" stroke="#63b8ff" points="550.05,-371.03 560.05,-367.53 550.05,-364.03 550.05,-371.03"/>
</a>
</g>
</g>
<!-- Node17&#45;&gt;Node9 -->
<g id="edge25_Node000017_Node000009" class="edge">
<title>Node17&#45;&gt;Node9</title>
<g id="a_edge25_Node000017_Node000009"><a xlink:title=" ">
<path fill="none" stroke="#63b8ff" d="M563.24,-354.25C548.04,-349.76 531.32,-344.83 517.09,-340.63"/>
<polygon fill="#63b8ff" stroke="#63b8ff" points="561.96,-357.52 572.54,-356.99 563.94,-350.8 561.96,-357.52"/>
</a>
</g>
</g>
<!-- Node17&#45;&gt;Node11 -->
<g id="edge26_Node000017_Node000011" class="edge">
<title>Node17&#45;&gt;Node11</title>
<g id="a_edge26_Node000017_Node000011"><a xlink:title=" ">
<path fill="none" stroke="#63b8ff" d="M563.33,-352.82C561.4,-351.79 559.53,-350.69 557.75,-349.53 538.26,-336.83 540.64,-325.1 521.75,-311.53 517.64,-308.58 512.97,-305.92 508.33,-303.62"/>
<polygon fill="#63b8ff" stroke="#63b8ff" points="561.36,-355.77 571.9,-356.86 564.34,-349.43 561.36,-355.77"/>
</a>
</g>
</g>
<!-- Node19 -->
<g id="Node000019" class="node">
<title>Node19</title>
<g id="a_Node000019"><a xlink:href="parse__utils_8c.html#a3a792671ccd6560d6c42352319889a0c" target="_top" xlink:title=" ">
<polygon fill="white" stroke="#666666" points="657.75,-266.15 560.75,-266.15 560.75,-246.9 657.75,-246.9 657.75,-266.15"/>
<text text-anchor="middle" x="609.25" y="-252.65" font-family="Helvetica,sans-Serif" font-size="10.00">parse_validate_obj</text>
</a>
</g>
</g>
<!-- Node18&#45;&gt;Node19 -->
<g id="edge28_Node000018_Node000019" class="edge">
<title>Node18&#45;&gt;Node19</title>
<g id="a_edge28_Node000018_Node000019"><a xlink:title=" ">
<path fill="none" stroke="#63b8ff" d="M705.92,-245.11C690.22,-246.99 673.26,-249.01 658.04,-250.83"/>
<polygon fill="#63b8ff" stroke="#63b8ff" points="706.06,-248.62 715.58,-243.96 705.23,-241.67 706.06,-248.62"/>
</a>
</g>
</g>
<!-- Node19&#45;&gt;Node4 -->
<g id="edge30_Node000019_Node000004" class="edge">
<title>Node19&#45;&gt;Node4</title>
<g id="a_edge30_Node000019_Node000004"><a xlink:title=" ">
<path fill="none" stroke="#63b8ff" d="M591.41,-274.81C566.82,-301.48 523.78,-348.05 521.75,-349.53 517.66,-352.5 512.99,-355.16 508.36,-357.47"/>
<polygon fill="#63b8ff" stroke="#63b8ff" points="593.72,-277.46 597.93,-267.74 588.58,-272.72 593.72,-277.46"/>
</a>
</g>
</g>
<!-- Node19&#45;&gt;Node9 -->
<g id="edge31_Node000019_Node000009" class="edge">
<title>Node19&#45;&gt;Node9</title>
<g id="a_edge31_Node000019_Node000009"><a xlink:title=" ">
<path fill="none" stroke="#63b8ff" d="M585.04,-272.83C567.93,-284.53 543.88,-300.32 521.75,-312.53 516.67,-315.33 511.08,-318.1 505.75,-320.59"/>
<polygon fill="#63b8ff" stroke="#63b8ff" points="586.76,-275.9 593,-267.34 582.78,-270.14 586.76,-275.9"/>
</a>
</g>
</g>
<!-- Node19&#45;&gt;Node10 -->
<g id="edge32_Node000019_Node000010" class="edge">
<title>Node19&#45;&gt;Node10</title>
<g id="a_edge32_Node000019_Node000010"><a xlink:title=" ">
<path fill="none" stroke="#63b8ff" d="M562.99,-243.17C546.61,-238.34 528.51,-233 513.67,-228.61"/>
<polygon fill="#63b8ff" stroke="#63b8ff" points="561.96,-246.52 572.54,-245.99 563.94,-239.8 561.96,-246.52"/>
</a>
</g>
</g>
<!-- Node19&#45;&gt;Node11 -->
<g id="edge33_Node000019_Node000011" class="edge">
<title>Node19&#45;&gt;Node11</title>
<g id="a_edge33_Node000019_Node000011"><a xlink:title=" ">
<path fill="none" stroke="#63b8ff" d="M563.06,-269.86C547.6,-274.43 530.59,-279.45 516.23,-283.69"/>
<polygon fill="#63b8ff" stroke="#63b8ff" points="563.94,-273.25 572.54,-267.07 561.96,-266.54 563.94,-273.25"/>
</a>
</g>
</g>
<!-- Node19&#45;&gt;Node15 -->
<g id="edge29_Node000019_Node000015" class="edge">
<title>Node19&#45;&gt;Node15</title>
<g id="a_edge29_Node000019_Node000015"><a xlink:title=" ">
<path fill="none" stroke="#63b8ff" d="M585.04,-240.22C567.93,-228.52 543.88,-212.74 521.75,-200.53 516.67,-197.73 511.08,-194.96 505.75,-192.47"/>
<polygon fill="#63b8ff" stroke="#63b8ff" points="582.78,-242.92 593,-245.72 586.76,-237.16 582.78,-242.92"/>
</a>
</g>
</g>
<!-- Node20 -->
<g id="Node000020" class="node">
<title>Node20</title>
<g id="a_Node000020"><a xlink:href="parse__objects_8c.html#a6ab66800bec24ca2d8c0f6c781558f65" target="_top" xlink:title=" ">
<polygon fill="white" stroke="#666666" points="519.12,-266.15 444.62,-266.15 444.62,-246.9 519.12,-246.9 519.12,-266.15"/>
<text text-anchor="middle" x="481.88" y="-252.65" font-family="Helvetica,sans-Serif" font-size="10.00">parse_sphere</text>
</a>
</g>
</g>
<!-- Node19&#45;&gt;Node20 -->
<g id="edge34_Node000019_Node000020" class="edge">
<title>Node19&#45;&gt;Node20</title>
<g id="a_edge34_Node000019_Node000020"><a xlink:title=" ">
<path fill="none" stroke="#63b8ff" d="M549.2,-256.53C539.1,-256.53 528.88,-256.53 519.58,-256.53"/>
<polygon fill="#63b8ff" stroke="#63b8ff" points="548.98,-260.03 558.98,-256.53 548.98,-253.03 548.98,-260.03"/>
</a>
</g>
</g>
<!-- Node20&#45;&gt;Node5 -->
<g id="edge35_Node000020_Node000005" class="edge">
<title>Node20&#45;&gt;Node5</title>
<g id="a_edge35_Node000020_Node000005"><a xlink:title=" ">
<path fill="none" stroke="#63b8ff" d="M432.89,-263.85C424.07,-265.2 414.91,-266.6 406.24,-267.92"/>
<polygon fill="#63b8ff" stroke="#63b8ff" points="433.37,-267.32 442.73,-262.35 432.31,-260.4 433.37,-267.32"/>
</a>
</g>
</g>
<!-- Node21&#45;&gt;Node19 -->
<g id="edge37_Node000021_Node000019" class="edge">
<title>Node21&#45;&gt;Node19</title>
<g id="a_edge37_Node000021_Node000019"><a xlink:title=" ">
<path fill="none" stroke="#63b8ff" d="M711.29,-214.76C706.35,-216.28 701.43,-217.88 696.75,-219.53 674.1,-227.5 648.94,-238.52 631.62,-246.45"/>
<polygon fill="#63b8ff" stroke="#63b8ff" points="712.02,-218.19 720.61,-211.99 710.03,-211.48 712.02,-218.19"/>
</a>
</g>
</g>
<!-- Node22&#45;&gt;Node3 -->
<g id="edge39_Node000022_Node000003" class="edge">
<title>Node22&#45;&gt;Node3</title>
<g id="a_edge39_Node000022_Node000003"><a xlink:title=" ">
<path fill="none" stroke="#63b8ff" d="M700.44,-345.47C687.38,-343.31 673.7,-341.04 661.06,-338.95"/>
<polygon fill="#63b8ff" stroke="#63b8ff" points="699.79,-348.91 710.23,-347.09 700.94,-342.01 699.79,-348.91"/>
</a>
</g>
</g>
<!-- Node23&#45;&gt;Node19 -->
<g id="edge41_Node000023_Node000019" class="edge">
<title>Node23&#45;&gt;Node19</title>
<g id="a_edge41_Node000023_Node000019"><a xlink:title=" ">
<path fill="none" stroke="#63b8ff" d="M707.35,-177.18C703.67,-178.77 700.09,-180.54 696.75,-182.53 677.02,-194.24 678.06,-204.47 660.75,-219.53 649.43,-229.37 635.64,-239.35 625.33,-246.46"/>
<polygon fill="#63b8ff" stroke="#63b8ff" points="708.38,-180.53 716.51,-173.74 705.92,-173.98 708.38,-180.53"/>
</a>
</g>
</g>
<!-- Node24&#45;&gt;Node19 -->
<g id="edge43_Node000024_Node000019" class="edge">
<title>Node24&#45;&gt;Node19</title>
<g id="a_edge43_Node000024_Node000019"><a xlink:title=" ">
<path fill="none" stroke="#63b8ff" d="M714.64,-300.38C708.58,-298.55 702.49,-296.58 696.75,-294.53 673.74,-286.3 648.21,-274.78 630.89,-266.58"/>
<polygon fill="#63b8ff" stroke="#63b8ff" points="713.39,-303.66 723.97,-303.09 715.35,-296.94 713.39,-303.66"/>
</a>
</g>
</g>
<!-- Node25&#45;&gt;Node14 -->
<g id="edge45_Node000025_Node000014" class="edge">
<title>Node25&#45;&gt;Node14</title>
<g id="a_edge45_Node000025_Node000014"><a xlink:title=" ">
<path fill="none" stroke="#63b8ff" d="M707.65,-141.16C703.91,-142.51 700.25,-143.97 696.75,-145.53 668.96,-157.92 639.7,-178.3 623.33,-190.46"/>
<polygon fill="#63b8ff" stroke="#63b8ff" points="708.44,-144.58 716.82,-138.09 706.23,-137.94 708.44,-144.58"/>
</a>
</g>
</g>
<!-- Node26&#45;&gt;Node19 -->
<g id="edge47_Node000026_Node000019" class="edge">
<title>Node26&#45;&gt;Node19</title>
<g id="a_edge47_Node000026_Node000019"><a xlink:title=" ">
<path fill="none" stroke="#63b8ff" d="M708.8,-268.94C692.34,-266.87 674.24,-264.59 658.1,-262.55"/>
<polygon fill="#63b8ff" stroke="#63b8ff" points="708.04,-272.37 718.4,-270.15 708.91,-265.42 708.04,-272.37"/>
</a>
</g>
</g>
</g>
</svg>
