<?xml version="1.0" encoding="UTF-8" standalone="no"?>
<!DOCTYPE svg PUBLIC "-//W3C//DTD SVG 1.1//EN"
 "http://www.w3.org/Graphics/SVG/1.1/DTD/svg11.dtd">
<!-- Generated by graphviz version 9.0.0 (20230911.1827)
 -->
<!-- Title: /github/workspace/LIB/muk_lib/muk_lib.h Pages: 1 -->
<svg width="6141pt" height="116pt"
 viewBox="0.00 0.00 6141.00 116.25" xmlns="http://www.w3.org/2000/svg" xmlns:xlink="http://www.w3.org/1999/xlink">
<g id="graph0" class="graph" transform="scale(1 1) rotate(0) translate(4 112.25)">
<title>/github/workspace/LIB/muk_lib/muk_lib.h</title>
<!-- Node1 -->
<g id="Node000001" class="node">
<title>Node1</title>
<g id="a_Node000001"><a xlink:title=" ">
<polygon fill="#999999" stroke="#666666" points="2929.25,-108.25 2815,-108.25 2815,-77.75 2929.25,-77.75 2929.25,-108.25"/>
<text text-anchor="start" x="2823" y="-94.75" font-family="Helvetica,sans-Serif" font-size="10.00">/github/workspace/LIB</text>
<text text-anchor="middle" x="2872.12" y="-83.5" font-family="Helvetica,sans-Serif" font-size="10.00">/muk_lib/muk_lib.h</text>
</a>
</g>
</g>
<!-- Node2 -->
<g id="Node000002" class="node">
<title>Node2</title>
<g id="a_Node000002"><a xlink:href="deg__to__rad_8c.html" target="_top" xlink:title=" ">
<polygon fill="white" stroke="#666666" points="114.25,-41.75 0,-41.75 0,0 114.25,0 114.25,-41.75"/>
<text text-anchor="start" x="8" y="-28.25" font-family="Helvetica,sans-Serif" font-size="10.00">/github/workspace/LIB</text>
<text text-anchor="start" x="8" y="-17" font-family="Helvetica,sans-Serif" font-size="10.00">/muk_lib/Convert/deg</text>
<text text-anchor="middle" x="57.12" y="-5.75" font-family="Helvetica,sans-Serif" font-size="10.00">_to_rad.c</text>
</a>
</g>
</g>
<!-- Node1&#45;&gt;Node2 -->
<g id="edge1_Node000001_Node000002" class="edge">
<title>Node1&#45;&gt;Node2</title>
<g id="a_edge1_Node000001_Node000002"><a xlink:title=" ">
<path fill="none" stroke="#63b8ff" d="M2803.38,-91.87C2404.41,-90.96 394.78,-84.3 123.12,-41.75 120.29,-41.31 117.4,-40.77 114.5,-40.16"/>
<polygon fill="#63b8ff" stroke="#63b8ff" points="2803.19,-95.37 2813.2,-91.89 2803.21,-88.37 2803.19,-95.37"/>
</a>
</g>
</g>
<!-- Node3 -->
<g id="Node000003" class="node">
<title>Node3</title>
<g id="a_Node000003"><a xlink:href="ft__atod_8c.html" target="_top" xlink:title=" ">
<polygon fill="white" stroke="#666666" points="262.12,-36.12 132.12,-36.12 132.12,-5.62 262.12,-5.62 262.12,-36.12"/>
<text text-anchor="start" x="140.12" y="-22.62" font-family="Helvetica,sans-Serif" font-size="10.00">/github/workspace/LIB</text>
<text text-anchor="middle" x="197.12" y="-11.38" font-family="Helvetica,sans-Serif" font-size="10.00">/muk_lib/Convert/ft_atod.c</text>
</a>
</g>
</g>
<!-- Node1&#45;&gt;Node3 -->
<g id="edge2_Node000001_Node000003" class="edge">
<title>Node1&#45;&gt;Node3</title>
<g id="a_edge2_Node000001_Node000003"><a xlink:title=" ">
<path fill="none" stroke="#63b8ff" d="M2803.43,-91.67C2417.55,-89.68 527.89,-78.16 271.12,-41.75 262.56,-40.54 253.58,-38.66 244.94,-36.53"/>
<polygon fill="#63b8ff" stroke="#63b8ff" points="2803.14,-95.17 2813.16,-91.72 2803.17,-88.17 2803.14,-95.17"/>
</a>
</g>
</g>
<!-- Node4 -->
<g id="Node000004" class="node">
<title>Node4</title>
<g id="a_Node000004"><a xlink:href="rad__to__deg_8c.html" target="_top" xlink:title=" ">
<polygon fill="white" stroke="#666666" points="394.25,-41.75 280,-41.75 280,0 394.25,0 394.25,-41.75"/>
<text text-anchor="start" x="288" y="-28.25" font-family="Helvetica,sans-Serif" font-size="10.00">/github/workspace/LIB</text>
<text text-anchor="start" x="288" y="-17" font-family="Helvetica,sans-Serif" font-size="10.00">/muk_lib/Convert/rad</text>
<text text-anchor="middle" x="337.12" y="-5.75" font-family="Helvetica,sans-Serif" font-size="10.00">_to_deg.c</text>
</a>
</g>
</g>
<!-- Node1&#45;&gt;Node4 -->
<g id="edge3_Node000001_Node000004" class="edge">
<title>Node1&#45;&gt;Node4</title>
<g id="a_edge3_Node000001_Node000004"><a xlink:title=" ">
<path fill="none" stroke="#63b8ff" d="M2803.05,-91.71C2428.12,-90.02 645.46,-79.97 403.12,-41.75 400.29,-41.3 397.4,-40.76 394.5,-40.16"/>
<polygon fill="#63b8ff" stroke="#63b8ff" points="2802.97,-95.21 2812.99,-91.76 2803,-88.21 2802.97,-95.21"/>
</a>
</g>
</g>
<!-- Node5 -->
<g id="Node000005" class="node">
<title>Node5</title>
<g id="a_Node000005"><a xlink:href="check__access_8c.html" target="_top" xlink:title=" ">
<polygon fill="white" stroke="#666666" points="526.25,-41.75 412,-41.75 412,0 526.25,0 526.25,-41.75"/>
<text text-anchor="start" x="420" y="-28.25" font-family="Helvetica,sans-Serif" font-size="10.00">/github/workspace/LIB</text>
<text text-anchor="start" x="420" y="-17" font-family="Helvetica,sans-Serif" font-size="10.00">/muk_lib/Files/check</text>
<text text-anchor="middle" x="469.12" y="-5.75" font-family="Helvetica,sans-Serif" font-size="10.00">_access.c</text>
</a>
</g>
</g>
<!-- Node1&#45;&gt;Node5 -->
<g id="edge4_Node000001_Node000005" class="edge">
<title>Node1&#45;&gt;Node5</title>
<g id="a_edge4_Node000001_Node000005"><a xlink:title=" ">
<path fill="none" stroke="#63b8ff" d="M2803.27,-91.63C2441.01,-89.54 763.75,-77.94 535.12,-41.75 532.29,-41.3 529.4,-40.76 526.5,-40.15"/>
<polygon fill="#63b8ff" stroke="#63b8ff" points="2803.07,-95.13 2813.09,-91.69 2803.11,-88.13 2803.07,-95.13"/>
</a>
</g>
</g>
<!-- Node6 -->
<g id="Node000006" class="node">
<title>Node6</title>
<g id="a_Node000006"><a xlink:href="check__extension_8c.html" target="_top" xlink:title=" ">
<polygon fill="white" stroke="#666666" points="658.25,-41.75 544,-41.75 544,0 658.25,0 658.25,-41.75"/>
<text text-anchor="start" x="552" y="-28.25" font-family="Helvetica,sans-Serif" font-size="10.00">/github/workspace/LIB</text>
<text text-anchor="start" x="552" y="-17" font-family="Helvetica,sans-Serif" font-size="10.00">/muk_lib/Files/check</text>
<text text-anchor="middle" x="601.12" y="-5.75" font-family="Helvetica,sans-Serif" font-size="10.00">_extension.c</text>
</a>
</g>
</g>
<!-- Node1&#45;&gt;Node6 -->
<g id="edge5_Node000001_Node000006" class="edge">
<title>Node1&#45;&gt;Node6</title>
<g id="a_edge5_Node000001_Node000006"><a xlink:title=" ">
<path fill="none" stroke="#63b8ff" d="M2803.27,-91.53C2453.53,-89.02 882.01,-75.91 667.12,-41.75 664.29,-41.3 661.4,-40.76 658.51,-40.15"/>
<polygon fill="#63b8ff" stroke="#63b8ff" points="2803.17,-95.03 2813.2,-91.61 2803.22,-88.03 2803.17,-95.03"/>
</a>
</g>
</g>
<!-- Node7 -->
<g id="Node000007" class="node">
<title>Node7</title>
<g id="a_Node000007"><a xlink:href="check__range_8c.html" target="_top" xlink:title=" ">
<polygon fill="white" stroke="#666666" points="790.25,-41.75 676,-41.75 676,0 790.25,0 790.25,-41.75"/>
<text text-anchor="start" x="684" y="-28.25" font-family="Helvetica,sans-Serif" font-size="10.00">/github/workspace/LIB</text>
<text text-anchor="start" x="684" y="-17" font-family="Helvetica,sans-Serif" font-size="10.00">/muk_lib/Maths/check</text>
<text text-anchor="middle" x="733.12" y="-5.75" font-family="Helvetica,sans-Serif" font-size="10.00">_range.c</text>
</a>
</g>
</g>
<!-- Node1&#45;&gt;Node7 -->
<g id="edge6_Node000001_Node000007" class="edge">
<title>Node1&#45;&gt;Node7</title>
<g id="a_edge6_Node000001_Node000007"><a xlink:title=" ">
<path fill="none" stroke="#63b8ff" d="M2803.59,-91.43C2467.35,-88.49 1000.36,-73.89 799.12,-41.75 796.29,-41.3 793.4,-40.75 790.51,-40.14"/>
<polygon fill="#63b8ff" stroke="#63b8ff" points="2803.06,-94.93 2813.09,-91.51 2803.12,-87.93 2803.06,-94.93"/>
</a>
</g>
</g>
<!-- Node8 -->
<g id="Node000008" class="node">
<title>Node8</title>
<g id="a_Node000008"><a xlink:href="add__to__dptr_8c.html" target="_top" xlink:title=" ">
<polygon fill="white" stroke="#666666" points="930.38,-41.75 807.88,-41.75 807.88,0 930.38,0 930.38,-41.75"/>
<text text-anchor="start" x="815.88" y="-28.25" font-family="Helvetica,sans-Serif" font-size="10.00">/github/workspace/LIB</text>
<text text-anchor="start" x="815.88" y="-17" font-family="Helvetica,sans-Serif" font-size="10.00">/muk_lib/Memory/add_to</text>
<text text-anchor="middle" x="869.12" y="-5.75" font-family="Helvetica,sans-Serif" font-size="10.00">_dptr.c</text>
</a>
</g>
</g>
<!-- Node1&#45;&gt;Node8 -->
<g id="edge7_Node000001_Node000008" class="edge">
<title>Node1&#45;&gt;Node8</title>
<g id="a_edge7_Node000001_Node000008"><a xlink:title=" ">
<path fill="none" stroke="#63b8ff" d="M2803.1,-91.23C2480.14,-87.49 1125.98,-70.24 939.12,-41.75 936.38,-41.33 933.59,-40.84 930.78,-40.28"/>
<polygon fill="#63b8ff" stroke="#63b8ff" points="2803.05,-94.73 2813.09,-91.35 2803.13,-87.73 2803.05,-94.73"/>
</a>
</g>
</g>
<!-- Node9 -->
<g id="Node000009" class="node">
<title>Node9</title>
<g id="a_Node000009"><a xlink:href="free__dptr_8c.html" target="_top" xlink:title=" ">
<polygon fill="white" stroke="#666666" points="1062.25,-41.75 948,-41.75 948,0 1062.25,0 1062.25,-41.75"/>
<text text-anchor="start" x="956" y="-28.25" font-family="Helvetica,sans-Serif" font-size="10.00">/github/workspace/LIB</text>
<text text-anchor="start" x="956" y="-17" font-family="Helvetica,sans-Serif" font-size="10.00">/muk_lib/Memory/free</text>
<text text-anchor="middle" x="1005.12" y="-5.75" font-family="Helvetica,sans-Serif" font-size="10.00">_dptr.c</text>
</a>
</g>
</g>
<!-- Node1&#45;&gt;Node9 -->
<g id="edge8_Node000001_Node000009" class="edge">
<title>Node1&#45;&gt;Node9</title>
<g id="a_edge8_Node000001_Node000009"><a xlink:title=" ">
<path fill="none" stroke="#63b8ff" d="M2803.33,-91.16C2494.56,-87.23 1244.14,-69.71 1071.12,-41.75 1068.29,-41.29 1065.41,-40.74 1062.51,-40.13"/>
<polygon fill="#63b8ff" stroke="#63b8ff" points="2803.22,-94.66 2813.26,-91.28 2803.3,-87.66 2803.22,-94.66"/>
</a>
</g>
</g>
<!-- Node10 -->
<g id="Node000010" class="node">
<title>Node10</title>
<g id="a_Node000010"><a xlink:href="muk__lib_2Memory_2ft__bzero_8c.html" target="_top" xlink:title=" ">
<polygon fill="white" stroke="#666666" points="1215.75,-36.12 1080.5,-36.12 1080.5,-5.62 1215.75,-5.62 1215.75,-36.12"/>
<text text-anchor="start" x="1088.5" y="-22.62" font-family="Helvetica,sans-Serif" font-size="10.00">/github/workspace/LIB</text>
<text text-anchor="middle" x="1148.12" y="-11.38" font-family="Helvetica,sans-Serif" font-size="10.00">/muk_lib/Memory/ft_bzero.c</text>
</a>
</g>
</g>
<!-- Node1&#45;&gt;Node10 -->
<g id="edge9_Node000001_Node000010" class="edge">
<title>Node1&#45;&gt;Node10</title>
<g id="a_edge9_Node000001_Node000010"><a xlink:title=" ">
<path fill="none" stroke="#63b8ff" d="M2803.3,-91.93C2532.12,-91.36 1537.13,-86.21 1225.12,-41.75 1216.38,-40.5 1207.19,-38.64 1198.33,-36.54"/>
<polygon fill="#63b8ff" stroke="#63b8ff" points="2803.01,-95.43 2813.02,-91.95 2803.03,-88.43 2803.01,-95.43"/>
</a>
</g>
</g>
<!-- Node11 -->
<g id="Node000011" class="node">
<title>Node11</title>
<g id="a_Node000011"><a xlink:href="safe__malloc_8c.html" target="_top" xlink:title=" ">
<polygon fill="white" stroke="#666666" points="1348.25,-41.75 1234,-41.75 1234,0 1348.25,0 1348.25,-41.75"/>
<text text-anchor="start" x="1242" y="-28.25" font-family="Helvetica,sans-Serif" font-size="10.00">/github/workspace/LIB</text>
<text text-anchor="start" x="1242" y="-17" font-family="Helvetica,sans-Serif" font-size="10.00">/muk_lib/Memory/safe</text>
<text text-anchor="middle" x="1291.12" y="-5.75" font-family="Helvetica,sans-Serif" font-size="10.00">_malloc.c</text>
</a>
</g>
</g>
<!-- Node1&#45;&gt;Node11 -->
<g id="edge10_Node000001_Node000011" class="edge">
<title>Node1&#45;&gt;Node11</title>
<g id="a_edge10_Node000001_Node000011"><a xlink:title=" ">
<path fill="none" stroke="#63b8ff" d="M2803.32,-92.08C2546.08,-92.02 1641.17,-88.41 1357.12,-41.75 1354.29,-41.28 1351.41,-40.73 1348.51,-40.11"/>
<polygon fill="#63b8ff" stroke="#63b8ff" points="2803.2,-95.58 2813.2,-92.08 2803.2,-88.58 2803.2,-95.58"/>
</a>
</g>
</g>
<!-- Node12 -->
<g id="Node000012" class="node">
<title>Node12</title>
<g id="a_Node000012"><a xlink:href="errmsg_8c.html" target="_top" xlink:title=" ">
<polygon fill="white" stroke="#666666" points="1482.38,-36.12 1365.88,-36.12 1365.88,-5.62 1482.38,-5.62 1482.38,-36.12"/>
<text text-anchor="start" x="1373.88" y="-22.62" font-family="Helvetica,sans-Serif" font-size="10.00">/github/workspace/LIB</text>
<text text-anchor="middle" x="1424.12" y="-11.38" font-family="Helvetica,sans-Serif" font-size="10.00">/muk_lib/Print/errmsg.c</text>
</a>
</g>
</g>
<!-- Node1&#45;&gt;Node12 -->
<g id="edge11_Node000001_Node000012" class="edge">
<title>Node1&#45;&gt;Node12</title>
<g id="a_edge11_Node000001_Node000012"><a xlink:title=" ">
<path fill="none" stroke="#63b8ff" d="M2803.45,-91.79C2561.27,-90.67 1747.95,-83.82 1491.12,-41.75 1483.58,-40.51 1475.69,-38.68 1468.09,-36.62"/>
<polygon fill="#63b8ff" stroke="#63b8ff" points="2803.35,-95.29 2813.37,-91.83 2803.38,-88.29 2803.35,-95.29"/>
</a>
</g>
</g>
<!-- Node13 -->
<g id="Node000013" class="node">
<title>Node13</title>
<g id="a_Node000013"><a xlink:href="print__dptr__debug_8c.html" target="_top" xlink:title=" ">
<polygon fill="white" stroke="#666666" points="1614.25,-41.75 1500,-41.75 1500,0 1614.25,0 1614.25,-41.75"/>
<text text-anchor="start" x="1508" y="-28.25" font-family="Helvetica,sans-Serif" font-size="10.00">/github/workspace/LIB</text>
<text text-anchor="start" x="1508" y="-17" font-family="Helvetica,sans-Serif" font-size="10.00">/muk_lib/Print/print</text>
<text text-anchor="middle" x="1557.12" y="-5.75" font-family="Helvetica,sans-Serif" font-size="10.00">_dptr_debug.c</text>
</a>
</g>
</g>
<!-- Node1&#45;&gt;Node13 -->
<g id="edge12_Node000001_Node000013" class="edge">
<title>Node1&#45;&gt;Node13</title>
<g id="a_edge12_Node000001_Node000013"><a xlink:title=" ">
<path fill="none" stroke="#63b8ff" d="M2803.3,-91.47C2576.47,-89.39 1853.84,-79.84 1624.12,-41.75 1621.01,-41.23 1617.84,-40.62 1614.66,-39.93"/>
<polygon fill="#63b8ff" stroke="#63b8ff" points="2803.13,-94.97 2813.16,-91.56 2803.2,-87.97 2803.13,-94.97"/>
</a>
</g>
</g>
<!-- Node14 -->
<g id="Node000014" class="node">
<title>Node14</title>
<g id="a_Node000014"><a xlink:href="muk__lib_2String_2ft__isalnum_8c.html" target="_top" xlink:title=" ">
<polygon fill="white" stroke="#666666" points="1769.5,-36.12 1632.75,-36.12 1632.75,-5.62 1769.5,-5.62 1769.5,-36.12"/>
<text text-anchor="start" x="1640.75" y="-22.62" font-family="Helvetica,sans-Serif" font-size="10.00">/github/workspace/LIB</text>
<text text-anchor="middle" x="1701.12" y="-11.38" font-family="Helvetica,sans-Serif" font-size="10.00">/muk_lib/String/ft_isalnum.c</text>
</a>
</g>
</g>
<!-- Node1&#45;&gt;Node14 -->
<g id="edge13_Node000001_Node000014" class="edge">
<title>Node1&#45;&gt;Node14</title>
<g id="a_edge13_Node000001_Node000014"><a xlink:title=" ">
<path fill="none" stroke="#63b8ff" d="M2803.2,-90.7C2595.41,-86.48 1977.19,-71.68 1778.12,-41.75 1769.66,-40.48 1760.78,-38.66 1752.18,-36.62"/>
<polygon fill="#63b8ff" stroke="#63b8ff" points="2802.96,-94.19 2813.03,-90.9 2803.1,-87.19 2802.96,-94.19"/>
</a>
</g>
</g>
<!-- Node15 -->
<g id="Node000015" class="node">
<title>Node15</title>
<g id="a_Node000015"><a xlink:href="muk__lib_2String_2ft__isalpha_8c.html" target="_top" xlink:title=" ">
<polygon fill="white" stroke="#666666" points="1921,-36.12 1787.25,-36.12 1787.25,-5.62 1921,-5.62 1921,-36.12"/>
<text text-anchor="start" x="1795.25" y="-22.62" font-family="Helvetica,sans-Serif" font-size="10.00">/github/workspace/LIB</text>
<text text-anchor="middle" x="1854.12" y="-11.38" font-family="Helvetica,sans-Serif" font-size="10.00">/muk_lib/String/ft_isalpha.c</text>
</a>
</g>
</g>
<!-- Node1&#45;&gt;Node15 -->
<g id="edge14_Node000001_Node000015" class="edge">
<title>Node1&#45;&gt;Node15</title>
<g id="a_edge14_Node000001_Node000015"><a xlink:title=" ">
<path fill="none" stroke="#63b8ff" d="M2803.33,-90.14C2615.81,-84.78 2098.54,-67.99 1930.12,-41.75 1921.77,-40.45 1913,-38.61 1904.52,-36.58"/>
<polygon fill="#63b8ff" stroke="#63b8ff" points="2803.06,-93.63 2813.15,-90.42 2803.26,-86.64 2803.06,-93.63"/>
</a>
</g>
</g>
<!-- Node16 -->
<g id="Node000016" class="node">
<title>Node16</title>
<g id="a_Node000016"><a xlink:href="muk__lib_2String_2ft__isdigit_8c.html" target="_top" xlink:title=" ">
<polygon fill="white" stroke="#666666" points="2067.38,-36.12 1938.88,-36.12 1938.88,-5.62 2067.38,-5.62 2067.38,-36.12"/>
<text text-anchor="start" x="1946.88" y="-22.62" font-family="Helvetica,sans-Serif" font-size="10.00">/github/workspace/LIB</text>
<text text-anchor="middle" x="2003.12" y="-11.38" font-family="Helvetica,sans-Serif" font-size="10.00">/muk_lib/String/ft_isdigit.c</text>
</a>
</g>
</g>
<!-- Node1&#45;&gt;Node16 -->
<g id="edge15_Node000001_Node000016" class="edge">
<title>Node1&#45;&gt;Node16</title>
<g id="a_edge15_Node000001_Node000016"><a xlink:title=" ">
<path fill="none" stroke="#63b8ff" d="M2803.49,-92.33C2664.98,-91.97 2342.52,-85.95 2076.12,-41.75 2068.22,-40.44 2059.94,-38.62 2051.91,-36.62"/>
<polygon fill="#63b8ff" stroke="#63b8ff" points="2803.21,-95.83 2813.21,-92.34 2803.22,-88.83 2803.21,-95.83"/>
</a>
</g>
</g>
<!-- Node17 -->
<g id="Node000017" class="node">
<title>Node17</title>
<g id="a_Node000017"><a xlink:href="muk__lib_2String_2ft__split_8c.html" target="_top" xlink:title=" ">
<polygon fill="white" stroke="#666666" points="2206.62,-36.12 2085.62,-36.12 2085.62,-5.62 2206.62,-5.62 2206.62,-36.12"/>
<text text-anchor="start" x="2093.62" y="-22.62" font-family="Helvetica,sans-Serif" font-size="10.00">/github/workspace/LIB</text>
<text text-anchor="middle" x="2146.12" y="-11.38" font-family="Helvetica,sans-Serif" font-size="10.00">/muk_lib/String/ft_split.c</text>
</a>
</g>
</g>
<!-- Node1&#45;&gt;Node17 -->
<g id="edge16_Node000001_Node000017" class="edge">
<title>Node1&#45;&gt;Node17</title>
<g id="a_edge16_Node000001_Node000017"><a xlink:title=" ">
<path fill="none" stroke="#63b8ff" d="M2803.29,-91.34C2683.03,-89.17 2427.25,-80 2215.12,-41.75 2207.64,-40.4 2199.81,-38.57 2192.21,-36.55"/>
<polygon fill="#63b8ff" stroke="#63b8ff" points="2802.93,-94.83 2812.99,-91.5 2803.05,-87.84 2802.93,-94.83"/>
</a>
</g>
</g>
<!-- Node18 -->
<g id="Node000018" class="node">
<title>Node18</title>
<g id="a_Node000018"><a xlink:href="muk__lib_2String_2ft__strlen_8c.html" target="_top" xlink:title=" ">
<polygon fill="white" stroke="#666666" points="2351.62,-36.12 2224.62,-36.12 2224.62,-5.62 2351.62,-5.62 2351.62,-36.12"/>
<text text-anchor="start" x="2232.62" y="-22.62" font-family="Helvetica,sans-Serif" font-size="10.00">/github/workspace/LIB</text>
<text text-anchor="middle" x="2288.12" y="-11.38" font-family="Helvetica,sans-Serif" font-size="10.00">/muk_lib/String/ft_strlen.c</text>
</a>
</g>
</g>
<!-- Node1&#45;&gt;Node18 -->
<g id="edge17_Node000001_Node000018" class="edge">
<title>Node1&#45;&gt;Node18</title>
<g id="a_edge17_Node000001_Node000018"><a xlink:title=" ">
<path fill="none" stroke="#63b8ff" d="M2803.55,-89.01C2704.83,-83.86 2517.24,-70.92 2360.12,-41.75 2352.6,-40.35 2344.72,-38.54 2337.05,-36.59"/>
<polygon fill="#63b8ff" stroke="#63b8ff" points="2803.18,-92.5 2813.34,-89.51 2803.53,-85.5 2803.18,-92.5"/>
</a>
</g>
</g>
<!-- Node19 -->
<g id="Node000019" class="node">
<title>Node19</title>
<g id="a_Node000019"><a xlink:href="ft__strval_8c.html" target="_top" xlink:title=" ">
<polygon fill="white" stroke="#666666" points="2496.62,-36.12 2369.62,-36.12 2369.62,-5.62 2496.62,-5.62 2496.62,-36.12"/>
<text text-anchor="start" x="2377.62" y="-22.62" font-family="Helvetica,sans-Serif" font-size="10.00">/github/workspace/LIB</text>
<text text-anchor="middle" x="2433.12" y="-11.38" font-family="Helvetica,sans-Serif" font-size="10.00">/muk_lib/String/ft_strval.c</text>
</a>
</g>
</g>
<!-- Node1&#45;&gt;Node19 -->
<g id="edge18_Node000001_Node000019" class="edge">
<title>Node1&#45;&gt;Node19</title>
<g id="a_edge18_Node000001_Node000019"><a xlink:title=" ">
<path fill="none" stroke="#63b8ff" d="M2803.48,-85.36C2729.4,-77.56 2608.18,-62.93 2505.12,-41.75 2497.88,-40.26 2490.3,-38.45 2482.88,-36.54"/>
<polygon fill="#63b8ff" stroke="#63b8ff" points="2802.7,-88.8 2813.01,-86.36 2803.42,-81.84 2802.7,-88.8"/>
</a>
</g>
</g>
<!-- Node20 -->
<g id="Node000020" class="node">
<title>Node20</title>
<g id="a_Node000020"><a xlink:href="prepare__computations_8c.html" target="_top" xlink:title=" ">
<polygon fill="white" stroke="#666666" points="2643.75,-41.75 2514.5,-41.75 2514.5,0 2643.75,0 2643.75,-41.75"/>
<text text-anchor="start" x="2522.5" y="-28.25" font-family="Helvetica,sans-Serif" font-size="10.00">/github/workspace/SRC</text>
<text text-anchor="start" x="2522.5" y="-17" font-family="Helvetica,sans-Serif" font-size="10.00">/BASE/HELPERS/prepare</text>
<text text-anchor="middle" x="2579.12" y="-5.75" font-family="Helvetica,sans-Serif" font-size="10.00">_computations.c</text>
</a>
</g>
</g>
<!-- Node1&#45;&gt;Node20 -->
<g id="edge19_Node000001_Node000020" class="edge">
<title>Node1&#45;&gt;Node20</title>
<g id="a_edge19_Node000001_Node000020"><a xlink:title=" ">
<path fill="none" stroke="#63b8ff" d="M2803.83,-77.01C2760.55,-67.34 2703.44,-54.28 2653.12,-41.75 2650.16,-41.01 2647.12,-40.24 2644.06,-39.46"/>
<polygon fill="#63b8ff" stroke="#63b8ff" points="2802.81,-80.37 2813.33,-79.13 2804.33,-73.54 2802.81,-80.37"/>
</a>
</g>
</g>
<!-- Node21 -->
<g id="Node000021" class="node">
<title>Node21</title>
<g id="a_Node000021"><a xlink:href="matrix__create_8c.html" target="_top" xlink:title=" ">
<polygon fill="white" stroke="#666666" points="2790,-41.75 2662.25,-41.75 2662.25,0 2790,0 2790,-41.75"/>
<text text-anchor="start" x="2670.25" y="-28.25" font-family="Helvetica,sans-Serif" font-size="10.00">/github/workspace/SRC</text>
<text text-anchor="start" x="2670.25" y="-17" font-family="Helvetica,sans-Serif" font-size="10.00">/BASE/MATRICES/matrix</text>
<text text-anchor="middle" x="2726.12" y="-5.75" font-family="Helvetica,sans-Serif" font-size="10.00">_create.c</text>
</a>
</g>
</g>
<!-- Node1&#45;&gt;Node21 -->
<g id="edge20_Node000001_Node000021" class="edge">
<title>Node1&#45;&gt;Node21</title>
<g id="a_edge20_Node000001_Node000021"><a xlink:title=" ">
<path fill="none" stroke="#63b8ff" d="M2831.35,-72.41C2811.7,-62.98 2788.15,-51.67 2768.32,-42.14"/>
<polygon fill="#63b8ff" stroke="#63b8ff" points="2829.62,-75.47 2840.15,-76.64 2832.66,-69.16 2829.62,-75.47"/>
</a>
</g>
</g>
<!-- Node22 -->
<g id="Node000022" class="node">
<title>Node22</title>
<g id="a_Node000022"><a xlink:href="matrix__determinants_8c.html" target="_top" xlink:title=" ">
<polygon fill="white" stroke="#666666" points="2936,-41.75 2808.25,-41.75 2808.25,0 2936,0 2936,-41.75"/>
<text text-anchor="start" x="2816.25" y="-28.25" font-family="Helvetica,sans-Serif" font-size="10.00">/github/workspace/SRC</text>
<text text-anchor="start" x="2816.25" y="-17" font-family="Helvetica,sans-Serif" font-size="10.00">/BASE/MATRICES/matrix</text>
<text text-anchor="middle" x="2872.12" y="-5.75" font-family="Helvetica,sans-Serif" font-size="10.00">_determinants.c</text>
</a>
</g>
</g>
<!-- Node1&#45;&gt;Node22 -->
<g id="edge21_Node000001_Node000022" class="edge">
<title>Node1&#45;&gt;Node22</title>
<g id="a_edge21_Node000001_Node000022"><a xlink:title=" ">
<path fill="none" stroke="#63b8ff" d="M2872.12,-66.22C2872.12,-58.31 2872.12,-49.73 2872.12,-42.24"/>
<polygon fill="#63b8ff" stroke="#63b8ff" points="2868.63,-65.96 2872.13,-75.96 2875.63,-65.96 2868.63,-65.96"/>
</a>
</g>
</g>
<!-- Node23 -->
<g id="Node000023" class="node">
<title>Node23</title>
<g id="a_Node000023"><a xlink:href="matrix__inverse_8c.html" target="_top" xlink:title=" ">
<polygon fill="white" stroke="#666666" points="3082,-41.75 2954.25,-41.75 2954.25,0 3082,0 3082,-41.75"/>
<text text-anchor="start" x="2962.25" y="-28.25" font-family="Helvetica,sans-Serif" font-size="10.00">/github/workspace/SRC</text>
<text text-anchor="start" x="2962.25" y="-17" font-family="Helvetica,sans-Serif" font-size="10.00">/BASE/MATRICES/matrix</text>
<text text-anchor="middle" x="3018.12" y="-5.75" font-family="Helvetica,sans-Serif" font-size="10.00">_inverse.c</text>
</a>
</g>
</g>
<!-- Node1&#45;&gt;Node23 -->
<g id="edge22_Node000001_Node000023" class="edge">
<title>Node1&#45;&gt;Node23</title>
<g id="a_edge22_Node000001_Node000023"><a xlink:title=" ">
<path fill="none" stroke="#63b8ff" d="M2912.9,-72.41C2932.55,-62.98 2956.1,-51.67 2975.93,-42.14"/>
<polygon fill="#63b8ff" stroke="#63b8ff" points="2911.59,-69.16 2904.1,-76.64 2914.63,-75.47 2911.59,-69.16"/>
</a>
</g>
</g>
<!-- Node24 -->
<g id="Node000024" class="node">
<title>Node24</title>
<g id="a_Node000024"><a xlink:href="matrix__multiple_8c.html" target="_top" xlink:title=" ">
<polygon fill="white" stroke="#666666" points="3228,-41.75 3100.25,-41.75 3100.25,0 3228,0 3228,-41.75"/>
<text text-anchor="start" x="3108.25" y="-28.25" font-family="Helvetica,sans-Serif" font-size="10.00">/github/workspace/SRC</text>
<text text-anchor="start" x="3108.25" y="-17" font-family="Helvetica,sans-Serif" font-size="10.00">/BASE/MATRICES/matrix</text>
<text text-anchor="middle" x="3164.12" y="-5.75" font-family="Helvetica,sans-Serif" font-size="10.00">_multiple.c</text>
</a>
</g>
</g>
<!-- Node1&#45;&gt;Node24 -->
<g id="edge23_Node000001_Node000024" class="edge">
<title>Node1&#45;&gt;Node24</title>
<g id="a_edge23_Node000001_Node000024"><a xlink:title=" ">
<path fill="none" stroke="#63b8ff" d="M2940.43,-77.07C2983.72,-67.42 3040.83,-54.36 3091.12,-41.75 3094.06,-41.02 3097.05,-40.25 3100.07,-39.47"/>
<polygon fill="#63b8ff" stroke="#63b8ff" points="2939.93,-73.59 2930.93,-79.18 2941.45,-80.43 2939.93,-73.59"/>
</a>
</g>
</g>
<!-- Node25 -->
<g id="Node000025" class="node">
<title>Node25</title>
<g id="a_Node000025"><a xlink:href="ray__create_8c.html" target="_top" xlink:title=" ">
<polygon fill="white" stroke="#666666" points="3376.5,-36.12 3245.75,-36.12 3245.75,-5.62 3376.5,-5.62 3376.5,-36.12"/>
<text text-anchor="start" x="3253.75" y="-22.62" font-family="Helvetica,sans-Serif" font-size="10.00">/github/workspace/SRC</text>
<text text-anchor="middle" x="3311.12" y="-11.38" font-family="Helvetica,sans-Serif" font-size="10.00">/BASE/RAYS/ray_create.c</text>
</a>
</g>
</g>
<!-- Node1&#45;&gt;Node25 -->
<g id="edge24_Node000001_Node000025" class="edge">
<title>Node1&#45;&gt;Node25</title>
<g id="a_edge24_Node000001_Node000025"><a xlink:title=" ">
<path fill="none" stroke="#63b8ff" d="M2941.14,-85.11C3014.86,-77.15 3134.91,-62.43 3237.12,-41.75 3244.43,-40.27 3252.07,-38.49 3259.57,-36.61"/>
<polygon fill="#63b8ff" stroke="#63b8ff" points="2940.79,-81.63 2931.22,-86.17 2941.53,-88.59 2940.79,-81.63"/>
</a>
</g>
</g>
<!-- Node26 -->
<g id="Node000026" class="node">
<title>Node26</title>
<g id="a_Node000026"><a xlink:href="ray__intersect_8c.html" target="_top" xlink:title=" ">
<polygon fill="white" stroke="#666666" points="3535.75,-36.12 3394.5,-36.12 3394.5,-5.62 3535.75,-5.62 3535.75,-36.12"/>
<text text-anchor="start" x="3402.5" y="-22.62" font-family="Helvetica,sans-Serif" font-size="10.00">/github/workspace/SRC</text>
<text text-anchor="middle" x="3465.12" y="-11.38" font-family="Helvetica,sans-Serif" font-size="10.00">/BASE/RAYS/ray_intersect.c</text>
</a>
</g>
</g>
<!-- Node1&#45;&gt;Node26 -->
<g id="edge25_Node000001_Node000026" class="edge">
<title>Node1&#45;&gt;Node26</title>
<g id="a_edge25_Node000001_Node000026"><a xlink:title=" ">
<path fill="none" stroke="#63b8ff" d="M2940.73,-88.47C3039.53,-82.66 3227.34,-68.93 3385.12,-41.75 3393.3,-40.34 3401.88,-38.55 3410.26,-36.62"/>
<polygon fill="#63b8ff" stroke="#63b8ff" points="2940.72,-84.96 2930.93,-89.03 2941.12,-91.95 2940.72,-84.96"/>
</a>
</g>
</g>
<!-- Node27 -->
<g id="Node000027" class="node">
<title>Node27</title>
<g id="a_Node000027"><a xlink:href="ray__world__intersect_8c.html" target="_top" xlink:title=" ">
<polygon fill="white" stroke="#666666" points="3672.88,-41.75 3553.38,-41.75 3553.38,0 3672.88,0 3672.88,-41.75"/>
<text text-anchor="start" x="3561.38" y="-28.25" font-family="Helvetica,sans-Serif" font-size="10.00">/github/workspace/SRC</text>
<text text-anchor="start" x="3561.38" y="-17" font-family="Helvetica,sans-Serif" font-size="10.00">/BASE/RAYS/ray_world</text>
<text text-anchor="middle" x="3613.12" y="-5.75" font-family="Helvetica,sans-Serif" font-size="10.00">_intersect.c</text>
</a>
</g>
</g>
<!-- Node1&#45;&gt;Node27 -->
<g id="edge26_Node000001_Node000027" class="edge">
<title>Node1&#45;&gt;Node27</title>
<g id="a_edge26_Node000001_Node000027"><a xlink:title=" ">
<path fill="none" stroke="#63b8ff" d="M2940.76,-91.61C3063.16,-89.86 3326.79,-81.36 3545.12,-41.75 3547.79,-41.27 3550.49,-40.72 3553.22,-40.12"/>
<polygon fill="#63b8ff" stroke="#63b8ff" points="2940.83,-88.11 2930.87,-91.74 2940.92,-95.11 2940.83,-88.11"/>
</a>
</g>
</g>
<!-- Node28 -->
<g id="Node000028" class="node">
<title>Node28</title>
<g id="a_Node000028"><a xlink:href="tuple__cross_8c.html" target="_top" xlink:title=" ">
<polygon fill="white" stroke="#666666" points="3839.12,-36.12 3691.12,-36.12 3691.12,-5.62 3839.12,-5.62 3839.12,-36.12"/>
<text text-anchor="start" x="3699.12" y="-22.62" font-family="Helvetica,sans-Serif" font-size="10.00">/github/workspace/SRC</text>
<text text-anchor="middle" x="3765.12" y="-11.38" font-family="Helvetica,sans-Serif" font-size="10.00">/BASE/TUPLES/tuple_cross.c</text>
</a>
</g>
</g>
<!-- Node1&#45;&gt;Node28 -->
<g id="edge27_Node000001_Node000028" class="edge">
<title>Node1&#45;&gt;Node28</title>
<g id="a_edge27_Node000001_Node000028"><a xlink:title=" ">
<path fill="none" stroke="#63b8ff" d="M2940.81,-91.74C3080.96,-90.32 3409.7,-82.5 3682.12,-41.75 3691.06,-40.41 3700.46,-38.58 3709.58,-36.57"/>
<polygon fill="#63b8ff" stroke="#63b8ff" points="2940.92,-88.23 2930.95,-91.83 2940.98,-95.23 2940.92,-88.23"/>
</a>
</g>
</g>
<!-- Node29 -->
<g id="Node000029" class="node">
<title>Node29</title>
<g id="a_Node000029"><a xlink:href="tuple__sum_8c.html" target="_top" xlink:title=" ">
<polygon fill="white" stroke="#666666" points="3999.5,-36.12 3856.75,-36.12 3856.75,-5.62 3999.5,-5.62 3999.5,-36.12"/>
<text text-anchor="start" x="3864.75" y="-22.62" font-family="Helvetica,sans-Serif" font-size="10.00">/github/workspace/SRC</text>
<text text-anchor="middle" x="3928.12" y="-11.38" font-family="Helvetica,sans-Serif" font-size="10.00">/BASE/TUPLES/tuple_sum.c</text>
</a>
</g>
</g>
<!-- Node1&#45;&gt;Node29 -->
<g id="edge28_Node000001_Node000029" class="edge">
<title>Node1&#45;&gt;Node29</title>
<g id="a_edge28_Node000001_Node000029"><a xlink:title=" ">
<path fill="none" stroke="#63b8ff" d="M2941.06,-90.17C3133.3,-84.81 3672.76,-67.8 3848.12,-41.75 3856.9,-40.45 3866.12,-38.61 3875.05,-36.57"/>
<polygon fill="#63b8ff" stroke="#63b8ff" points="2941.13,-86.67 2931.23,-90.45 2941.32,-93.67 2941.13,-86.67"/>
</a>
</g>
</g>
<!-- Node30 -->
<g id="Node000030" class="node">
<title>Node30</title>
<g id="a_Node000030"><a xlink:href="cleanup_8c.html" target="_top" xlink:title=" ">
<polygon fill="white" stroke="#666666" points="4158.38,-36.12 4017.88,-36.12 4017.88,-5.62 4158.38,-5.62 4158.38,-36.12"/>
<text text-anchor="start" x="4025.88" y="-22.62" font-family="Helvetica,sans-Serif" font-size="10.00">/github/workspace/SRC</text>
<text text-anchor="middle" x="4088.12" y="-11.38" font-family="Helvetica,sans-Serif" font-size="10.00">/CORE/CLEANUP/cleanup.c</text>
</a>
</g>
</g>
<!-- Node1&#45;&gt;Node30 -->
<g id="edge29_Node000001_Node000030" class="edge">
<title>Node1&#45;&gt;Node30</title>
<g id="a_edge29_Node000001_Node000030"><a xlink:title=" ">
<path fill="none" stroke="#63b8ff" d="M2940.76,-90.76C3153.56,-86.62 3800.33,-71.85 4008.12,-41.75 4017.05,-40.46 4026.42,-38.6 4035.49,-36.53"/>
<polygon fill="#63b8ff" stroke="#63b8ff" points="2940.91,-87.25 2930.98,-90.95 2941.04,-94.25 2940.91,-87.25"/>
</a>
</g>
</g>
<!-- Node31 -->
<g id="Node000031" class="node">
<title>Node31</title>
<g id="a_Node000031"><a xlink:href="input__validate_8c.html" target="_top" xlink:title=" ">
<polygon fill="white" stroke="#666666" points="4315.62,-36.12 4176.62,-36.12 4176.62,-5.62 4315.62,-5.62 4315.62,-36.12"/>
<text text-anchor="start" x="4184.62" y="-22.62" font-family="Helvetica,sans-Serif" font-size="10.00">/github/workspace/SRC</text>
<text text-anchor="middle" x="4246.12" y="-11.38" font-family="Helvetica,sans-Serif" font-size="10.00">/CORE/INIT/input_validate.c</text>
</a>
</g>
</g>
<!-- Node1&#45;&gt;Node31 -->
<g id="edge30_Node000001_Node000031" class="edge">
<title>Node1&#45;&gt;Node31</title>
<g id="a_edge30_Node000001_Node000031"><a xlink:title=" ">
<path fill="none" stroke="#63b8ff" d="M2940.73,-91.22C3172.76,-88.27 3927.03,-76.23 4167.12,-41.75 4175.94,-40.48 4185.21,-38.64 4194.16,-36.57"/>
<polygon fill="#63b8ff" stroke="#63b8ff" points="2940.9,-87.71 2930.94,-91.34 2940.99,-94.71 2940.9,-87.71"/>
</a>
</g>
</g>
<!-- Node32 -->
<g id="Node000032" class="node">
<title>Node32</title>
<g id="a_Node000032"><a xlink:href="parse__assign__coord__utils_8c.html" target="_top" xlink:title=" ">
<polygon fill="white" stroke="#666666" points="4476.5,-41.75 4333.75,-41.75 4333.75,0 4476.5,0 4476.5,-41.75"/>
<text text-anchor="start" x="4341.75" y="-28.25" font-family="Helvetica,sans-Serif" font-size="10.00">/github/workspace/SRC</text>
<text text-anchor="start" x="4341.75" y="-17" font-family="Helvetica,sans-Serif" font-size="10.00">/CORE/PARSE/parse_assign</text>
<text text-anchor="middle" x="4405.12" y="-5.75" font-family="Helvetica,sans-Serif" font-size="10.00">_coord_utils.c</text>
</a>
</g>
</g>
<!-- Node1&#45;&gt;Node32 -->
<g id="edge31_Node000001_Node000032" class="edge">
<title>Node1&#45;&gt;Node32</title>
<g id="a_edge31_Node000001_Node000032"><a xlink:title=" ">
<path fill="none" stroke="#63b8ff" d="M2940.94,-91.53C3191.24,-89.5 4052.76,-79.87 4325.12,-41.75 4327.82,-41.37 4330.55,-40.94 4333.31,-40.47"/>
<polygon fill="#63b8ff" stroke="#63b8ff" points="2940.98,-88.02 2931.01,-91.6 2941.03,-95.02 2940.98,-88.02"/>
</a>
</g>
</g>
<!-- Node33 -->
<g id="Node000033" class="node">
<title>Node33</title>
<g id="a_Node000033"><a xlink:href="parse__assign__vec__utils_8c.html" target="_top" xlink:title=" ">
<polygon fill="white" stroke="#666666" points="4637.5,-41.75 4494.75,-41.75 4494.75,0 4637.5,0 4637.5,-41.75"/>
<text text-anchor="start" x="4502.75" y="-28.25" font-family="Helvetica,sans-Serif" font-size="10.00">/github/workspace/SRC</text>
<text text-anchor="start" x="4502.75" y="-17" font-family="Helvetica,sans-Serif" font-size="10.00">/CORE/PARSE/parse_assign</text>
<text text-anchor="middle" x="4566.12" y="-5.75" font-family="Helvetica,sans-Serif" font-size="10.00">_vec_utils.c</text>
</a>
</g>
</g>
<!-- Node1&#45;&gt;Node33 -->
<g id="edge32_Node000001_Node000033" class="edge">
<title>Node1&#45;&gt;Node33</title>
<g id="a_edge32_Node000001_Node000033"><a xlink:title=" ">
<path fill="none" stroke="#63b8ff" d="M2940.81,-91.77C3208.18,-90.6 4179.81,-83.49 4485.12,-41.75 4488.14,-41.34 4491.2,-40.86 4494.29,-40.33"/>
<polygon fill="#63b8ff" stroke="#63b8ff" points="2940.85,-88.27 2930.87,-91.82 2940.88,-95.27 2940.85,-88.27"/>
</a>
</g>
</g>
<!-- Node34 -->
<g id="Node000034" class="node">
<title>Node34</title>
<g id="a_Node000034"><a xlink:href="parse__camera__light_8c.html" target="_top" xlink:title=" ">
<polygon fill="white" stroke="#666666" points="4802.38,-41.75 4655.88,-41.75 4655.88,0 4802.38,0 4802.38,-41.75"/>
<text text-anchor="start" x="4663.88" y="-28.25" font-family="Helvetica,sans-Serif" font-size="10.00">/github/workspace/SRC</text>
<text text-anchor="start" x="4663.88" y="-17" font-family="Helvetica,sans-Serif" font-size="10.00">/CORE/PARSE/parse_camera</text>
<text text-anchor="middle" x="4729.12" y="-5.75" font-family="Helvetica,sans-Serif" font-size="10.00">_light.c</text>
</a>
</g>
</g>
<!-- Node1&#45;&gt;Node34 -->
<g id="edge33_Node000001_Node000034" class="edge">
<title>Node1&#45;&gt;Node34</title>
<g id="a_edge33_Node000001_Node000034"><a xlink:title=" ">
<path fill="none" stroke="#63b8ff" d="M2940.98,-91.95C3225.15,-91.45 4307.58,-86.59 4646.12,-41.75 4649.21,-41.34 4652.35,-40.87 4655.51,-40.34"/>
<polygon fill="#63b8ff" stroke="#63b8ff" points="2941.14,-88.45 2931.14,-91.97 2941.15,-95.45 2941.14,-88.45"/>
</a>
</g>
</g>
<!-- Node35 -->
<g id="Node000035" class="node">
<title>Node35</title>
<g id="a_Node000035"><a xlink:href="parse__main_8c.html" target="_top" xlink:title=" ">
<polygon fill="white" stroke="#666666" points="4963.5,-36.12 4820.75,-36.12 4820.75,-5.62 4963.5,-5.62 4963.5,-36.12"/>
<text text-anchor="start" x="4828.75" y="-22.62" font-family="Helvetica,sans-Serif" font-size="10.00">/github/workspace/SRC</text>
<text text-anchor="middle" x="4892.12" y="-11.38" font-family="Helvetica,sans-Serif" font-size="10.00">/CORE/PARSE/parse_main.c</text>
</a>
</g>
</g>
<!-- Node1&#45;&gt;Node35 -->
<g id="edge34_Node000001_Node000035" class="edge">
<title>Node1&#45;&gt;Node35</title>
<g id="a_edge34_Node000001_Node000035"><a xlink:title=" ">
<path fill="none" stroke="#63b8ff" d="M2940.4,-92.19C3239.81,-92.75 4438.35,-91.72 4811.12,-41.75 4820.31,-40.52 4829.96,-38.66 4839.28,-36.57"/>
<polygon fill="#63b8ff" stroke="#63b8ff" points="2940.82,-88.7 2930.81,-92.18 2940.81,-95.7 2940.82,-88.7"/>
</a>
</g>
</g>
<!-- Node36 -->
<g id="Node000036" class="node">
<title>Node36</title>
<g id="a_Node000036"><a xlink:href="parse__objects_8c.html" target="_top" xlink:title=" ">
<polygon fill="white" stroke="#666666" points="5134.75,-36.12 4981.5,-36.12 4981.5,-5.62 5134.75,-5.62 5134.75,-36.12"/>
<text text-anchor="start" x="4989.5" y="-22.62" font-family="Helvetica,sans-Serif" font-size="10.00">/github/workspace/SRC</text>
<text text-anchor="middle" x="5058.12" y="-11.38" font-family="Helvetica,sans-Serif" font-size="10.00">/CORE/PARSE/parse_objects.c</text>
</a>
</g>
</g>
<!-- Node1&#45;&gt;Node36 -->
<g id="edge35_Node000001_Node000036" class="edge">
<title>Node1&#45;&gt;Node36</title>
<g id="a_edge35_Node000001_Node000036"><a xlink:title=" ">
<path fill="none" stroke="#63b8ff" d="M2940.82,-92.23C3256.02,-93.01 4565.8,-93.02 4972.12,-41.75 4981.86,-40.52 4992.1,-38.67 5001.98,-36.57"/>
<polygon fill="#63b8ff" stroke="#63b8ff" points="2941.12,-88.73 2931.11,-92.21 2941.1,-95.73 2941.12,-88.73"/>
</a>
</g>
</g>
<!-- Node37 -->
<g id="Node000037" class="node">
<title>Node37</title>
<g id="a_Node000037"><a xlink:href="parse__utils_8c.html" target="_top" xlink:title=" ">
<polygon fill="white" stroke="#666666" points="5293,-36.12 5153.25,-36.12 5153.25,-5.62 5293,-5.62 5293,-36.12"/>
<text text-anchor="start" x="5161.25" y="-22.62" font-family="Helvetica,sans-Serif" font-size="10.00">/github/workspace/SRC</text>
<text text-anchor="middle" x="5223.12" y="-11.38" font-family="Helvetica,sans-Serif" font-size="10.00">/CORE/PARSE/parse_utils.c</text>
</a>
</g>
</g>
<!-- Node1&#45;&gt;Node37 -->
<g id="edge36_Node000001_Node000037" class="edge">
<title>Node1&#45;&gt;Node37</title>
<g id="a_edge36_Node000001_Node000037"><a xlink:title=" ">
<path fill="none" stroke="#63b8ff" d="M2941.03,-91.4C3297.18,-88.16 4921.53,-71.82 5144.12,-41.75 5153.09,-40.54 5162.52,-38.69 5171.61,-36.6"/>
<polygon fill="#63b8ff" stroke="#63b8ff" points="2941.11,-87.9 2931.14,-91.49 2941.18,-94.9 2941.11,-87.9"/>
</a>
</g>
</g>
<!-- Node38 -->
<g id="Node000038" class="node">
<title>Node38</title>
<g id="a_Node000038"><a xlink:href="parse__validate__assign__rgb__utils_8c.html" target="_top" xlink:title=" ">
<polygon fill="white" stroke="#666666" points="5459.12,-41.75 5311.12,-41.75 5311.12,0 5459.12,0 5459.12,-41.75"/>
<text text-anchor="start" x="5319.12" y="-28.25" font-family="Helvetica,sans-Serif" font-size="10.00">/github/workspace/SRC</text>
<text text-anchor="start" x="5319.12" y="-17" font-family="Helvetica,sans-Serif" font-size="10.00">/CORE/PARSE/parse_validate</text>
<text text-anchor="middle" x="5385.12" y="-5.75" font-family="Helvetica,sans-Serif" font-size="10.00">_assign_rgb_utils.c</text>
</a>
</g>
</g>
<!-- Node1&#45;&gt;Node38 -->
<g id="edge37_Node000001_Node000038" class="edge">
<title>Node1&#45;&gt;Node38</title>
<g id="a_edge37_Node000001_Node000038"><a xlink:title=" ">
<path fill="none" stroke="#63b8ff" d="M2940.98,-91.46C3311.75,-88.41 5062.84,-72.51 5302.12,-41.75 5305.06,-41.37 5308.05,-40.93 5311.06,-40.44"/>
<polygon fill="#63b8ff" stroke="#63b8ff" points="2941.13,-87.96 2931.16,-91.54 2941.19,-94.96 2941.13,-87.96"/>
</a>
</g>
</g>
<!-- Node39 -->
<g id="Node000039" class="node">
<title>Node39</title>
<g id="a_Node000039"><a xlink:href="parse__validate__obj__utils_8c.html" target="_top" xlink:title=" ">
<polygon fill="white" stroke="#666666" points="5625.12,-41.75 5477.12,-41.75 5477.12,0 5625.12,0 5625.12,-41.75"/>
<text text-anchor="start" x="5485.12" y="-28.25" font-family="Helvetica,sans-Serif" font-size="10.00">/github/workspace/SRC</text>
<text text-anchor="start" x="5485.12" y="-17" font-family="Helvetica,sans-Serif" font-size="10.00">/CORE/PARSE/parse_validate</text>
<text text-anchor="middle" x="5551.12" y="-5.75" font-family="Helvetica,sans-Serif" font-size="10.00">_obj_utils.c</text>
</a>
</g>
</g>
<!-- Node1&#45;&gt;Node39 -->
<g id="edge38_Node000001_Node000039" class="edge">
<title>Node1&#45;&gt;Node39</title>
<g id="a_edge38_Node000001_Node000039"><a xlink:title=" ">
<path fill="none" stroke="#63b8ff" d="M2940.99,-91.55C3326.75,-88.94 5211.45,-74.57 5468.12,-41.75 5471.06,-41.37 5474.05,-40.94 5477.06,-40.45"/>
<polygon fill="#63b8ff" stroke="#63b8ff" points="2941.24,-88.05 2931.26,-91.62 2941.28,-95.05 2941.24,-88.05"/>
</a>
</g>
</g>
<!-- Node40 -->
<g id="Node000040" class="node">
<title>Node40</title>
<g id="a_Node000040"><a xlink:href="create__image_8c.html" target="_top" xlink:title=" ">
<polygon fill="white" stroke="#666666" points="5801,-36.12 5643.25,-36.12 5643.25,-5.62 5801,-5.62 5801,-36.12"/>
<text text-anchor="start" x="5651.25" y="-22.62" font-family="Helvetica,sans-Serif" font-size="10.00">/github/workspace/SRC</text>
<text text-anchor="middle" x="5722.12" y="-11.38" font-family="Helvetica,sans-Serif" font-size="10.00">/CORE/RENDER/create_image.c</text>
</a>
</g>
</g>
<!-- Node1&#45;&gt;Node40 -->
<g id="edge39_Node000001_Node000040" class="edge">
<title>Node1&#45;&gt;Node40</title>
<g id="a_edge39_Node000001_Node000040"><a xlink:title=" ">
<path fill="none" stroke="#63b8ff" d="M2940.83,-91.59C3340.7,-89.08 5359.78,-74.87 5634.12,-41.75 5644.08,-40.55 5654.55,-38.71 5664.67,-36.62"/>
<polygon fill="#63b8ff" stroke="#63b8ff" points="2940.97,-88.09 2930.99,-91.65 2941.01,-95.09 2940.97,-88.09"/>
</a>
</g>
</g>
<!-- Node41 -->
<g id="Node000041" class="node">
<title>Node41</title>
<g id="a_Node000041"><a xlink:href="camera__create_8c.html" target="_top" xlink:title=" ">
<polygon fill="white" stroke="#666666" points="5962.88,-41.75 5819.38,-41.75 5819.38,0 5962.88,0 5962.88,-41.75"/>
<text text-anchor="start" x="5827.38" y="-28.25" font-family="Helvetica,sans-Serif" font-size="10.00">/github/workspace/SRC</text>
<text text-anchor="start" x="5827.38" y="-17" font-family="Helvetica,sans-Serif" font-size="10.00">/OBJECTS/CAMERA/camera</text>
<text text-anchor="middle" x="5891.12" y="-5.75" font-family="Helvetica,sans-Serif" font-size="10.00">_create.c</text>
</a>
</g>
</g>
<!-- Node1&#45;&gt;Node41 -->
<g id="edge40_Node000001_Node000041" class="edge">
<title>Node1&#45;&gt;Node41</title>
<g id="a_edge40_Node000001_Node000041"><a xlink:title=" ">
<path fill="none" stroke="#63b8ff" d="M2941.19,-91.74C3356.86,-90.08 5517.69,-79.64 5810.12,-41.75 5813.14,-41.36 5816.21,-40.9 5819.29,-40.38"/>
<polygon fill="#63b8ff" stroke="#63b8ff" points="2941.19,-88.24 2931.2,-91.78 2941.21,-95.24 2941.19,-88.24"/>
</a>
</g>
</g>
<!-- Node42 -->
<g id="Node000042" class="node">
<title>Node42</title>
<g id="a_Node000042"><a xlink:href="obj__render_8c.html" target="_top" xlink:title=" ">
<polygon fill="white" stroke="#666666" points="6133,-36.12 5981.25,-36.12 5981.25,-5.62 6133,-5.62 6133,-36.12"/>
<text text-anchor="start" x="5989.25" y="-22.62" font-family="Helvetica,sans-Serif" font-size="10.00">/github/workspace/SRC</text>
<text text-anchor="middle" x="6057.12" y="-11.38" font-family="Helvetica,sans-Serif" font-size="10.00">/OBJECTS/UTILS/obj_render.c</text>
</a>
</g>
</g>
<!-- Node1&#45;&gt;Node42 -->
<g id="edge41_Node000001_Node000042" class="edge">
<title>Node1&#45;&gt;Node42</title>
<g id="a_edge41_Node000001_Node000042"><a xlink:title=" ">
<path fill="none" stroke="#63b8ff" d="M2940.87,-91.77C3369.06,-90.19 5662.36,-80.03 5972.12,-41.75 5981.9,-40.54 5992.19,-38.67 6002.11,-36.54"/>
<polygon fill="#63b8ff" stroke="#63b8ff" points="2941.13,-88.27 2931.14,-91.8 2941.16,-95.27 2941.13,-88.27"/>
</a>
</g>
</g>
</g>
</svg>
