<?xml version="1.0" encoding="UTF-8" standalone="no"?>
<!DOCTYPE svg PUBLIC "-//W3C//DTD SVG 1.1//EN"
 "http://www.w3.org/Graphics/SVG/1.1/DTD/svg11.dtd">
<!-- Generated by graphviz version 9.0.0 (20230911.1827)
 -->
<!-- Title: ft_split Pages: 1 -->
<svg width="882pt" height="204pt"
 viewBox="0.00 0.00 881.50 203.62" xmlns="http://www.w3.org/2000/svg" xmlns:xlink="http://www.w3.org/1999/xlink">
<g id="graph0" class="graph" transform="scale(1 1) rotate(0) translate(4 199.62)">
<title>ft_split</title>
<!-- Node1 -->
<g id="Node000001" class="node">
<title>Node1</title>
<g id="a_Node000001"><a xlink:title=" ">
<polygon fill="#999999" stroke="#666666" points="873.5,-114.25 828.25,-114.25 828.25,-95 873.5,-95 873.5,-114.25"/>
<text text-anchor="middle" x="850.88" y="-100.75" font-family="Helvetica,sans-Serif" font-size="10.00">ft_split</text>
</a>
</g>
</g>
<!-- Node2 -->
<g id="Node000002" class="node">
<title>Node2</title>
<g id="a_Node000002"><a xlink:href="parse__main_8c.html#a5d7da6ab7925ffda04b676ef38880723" target="_top" xlink:title="Reading a line from the given .rt file and splitting the given line with the space (&#39; &#39;) delimiter....">
<polygon fill="white" stroke="#666666" points="282,-149.25 186.5,-149.25 186.5,-130 282,-130 282,-149.25"/>
<text text-anchor="middle" x="234.25" y="-135.75" font-family="Helvetica,sans-Serif" font-size="10.00">parse_rt_read_line</text>
</a>
</g>
</g>
<!-- Node1&#45;&gt;Node2 -->
<g id="edge1_Node000001_Node000002" class="edge">
<title>Node1&#45;&gt;Node2</title>
<g id="a_edge1_Node000001_Node000002"><a xlink:title=" ">
<path fill="none" stroke="#63b8ff" d="M831.79,-122.45C821.09,-132.09 806.81,-143.45 792.25,-150.62 717.51,-187.47 693.57,-195.62 610.25,-195.62 610.25,-195.62 610.25,-195.62 480.88,-195.62 399.09,-195.62 305.72,-165.74 261.34,-149.64"/>
<polygon fill="#63b8ff" stroke="#63b8ff" points="834.19,-125.01 839.09,-115.62 829.4,-119.9 834.19,-125.01"/>
</a>
</g>
</g>
<!-- Node5 -->
<g id="Node000005" class="node">
<title>Node5</title>
<g id="a_Node000005"><a xlink:href="parse__validate__assign__rgb__utils_8c.html#a38dd4510ea4653d36b16185526f288ab" target="_top" xlink:title=" ">
<polygon fill="white" stroke="#666666" points="791.5,-141.88 697.5,-141.88 697.5,-111.38 791.5,-111.38 791.5,-141.88"/>
<text text-anchor="start" x="705.5" y="-128.38" font-family="Helvetica,sans-Serif" font-size="10.00">split_and_validate</text>
<text text-anchor="middle" x="744.5" y="-117.12" font-family="Helvetica,sans-Serif" font-size="10.00">_components</text>
</a>
</g>
</g>
<!-- Node1&#45;&gt;Node5 -->
<g id="edge4_Node000001_Node000005" class="edge">
<title>Node1&#45;&gt;Node5</title>
<g id="a_edge4_Node000001_Node000005"><a xlink:title=" ">
<path fill="none" stroke="#63b8ff" d="M816.93,-111.57C808.97,-113.25 800.31,-115.07 791.86,-116.85"/>
<polygon fill="#63b8ff" stroke="#63b8ff" points="817.45,-115.04 826.51,-109.55 816.01,-108.19 817.45,-115.04"/>
</a>
</g>
</g>
<!-- Node12 -->
<g id="Node000012" class="node">
<title>Node12</title>
<g id="a_Node000012"><a xlink:href="parse__assign__coord__utils_8c.html#af7ba7415e224810f4f203071b320ed6a" target="_top" xlink:title=" ">
<polygon fill="white" stroke="#666666" points="789.25,-93.25 699.75,-93.25 699.75,-74 789.25,-74 789.25,-93.25"/>
<text text-anchor="middle" x="744.5" y="-79.75" font-family="Helvetica,sans-Serif" font-size="10.00">split_coordinates</text>
</a>
</g>
</g>
<!-- Node1&#45;&gt;Node12 -->
<g id="edge15_Node000001_Node000012" class="edge">
<title>Node1&#45;&gt;Node12</title>
<g id="a_edge15_Node000001_Node000012"><a xlink:title=" ">
<path fill="none" stroke="#63b8ff" d="M816.86,-97.98C808.24,-96.25 798.81,-94.35 789.72,-92.52"/>
<polygon fill="#63b8ff" stroke="#63b8ff" points="816.02,-101.38 826.51,-99.92 817.4,-94.52 816.02,-101.38"/>
</a>
</g>
</g>
<!-- Node15 -->
<g id="Node000015" class="node">
<title>Node15</title>
<g id="a_Node000015"><a xlink:href="parse__assign__vec__utils_8c.html#a739e22fb23f1db98c643e53ec47625ac" target="_top" xlink:title=" ">
<polygon fill="white" stroke="#666666" points="792.25,-56.25 696.75,-56.25 696.75,-37 792.25,-37 792.25,-56.25"/>
<text text-anchor="middle" x="744.5" y="-42.75" font-family="Helvetica,sans-Serif" font-size="10.00">split_vector_string</text>
</a>
</g>
</g>
<!-- Node1&#45;&gt;Node15 -->
<g id="edge22_Node000001_Node000015" class="edge">
<title>Node1&#45;&gt;Node15</title>
<g id="a_edge22_Node000001_Node000015"><a xlink:title=" ">
<path fill="none" stroke="#63b8ff" d="M828.74,-88.13C818.16,-80.36 804.94,-71.35 792.25,-64.62 786.72,-61.69 780.6,-58.99 774.66,-56.61"/>
<polygon fill="#63b8ff" stroke="#63b8ff" points="826.31,-90.69 836.4,-93.91 830.52,-85.09 826.31,-90.69"/>
</a>
</g>
</g>
<!-- Node3 -->
<g id="Node000003" class="node">
<title>Node3</title>
<g id="a_Node000003"><a xlink:href="parse__main_8c.html#a62c4de2f960942eba61e7de12c387ae4" target="_top" xlink:title="Entry function to parsing .rt file where the file is attempted to be opened, t_parse structure is ini...">
<polygon fill="white" stroke="#666666" points="150.5,-149.25 73,-149.25 73,-130 150.5,-130 150.5,-149.25"/>
<text text-anchor="middle" x="111.75" y="-135.75" font-family="Helvetica,sans-Serif" font-size="10.00">parse_rt_main</text>
</a>
</g>
</g>
<!-- Node2&#45;&gt;Node3 -->
<g id="edge2_Node000002_Node000003" class="edge">
<title>Node2&#45;&gt;Node3</title>
<g id="a_edge2_Node000002_Node000003"><a xlink:title=" ">
<path fill="none" stroke="#63b8ff" d="M174.86,-139.62C166.69,-139.62 158.47,-139.62 150.81,-139.62"/>
<polygon fill="#63b8ff" stroke="#63b8ff" points="174.8,-143.13 184.8,-139.63 174.8,-136.13 174.8,-143.13"/>
</a>
</g>
</g>
<!-- Node4 -->
<g id="Node000004" class="node">
<title>Node4</title>
<g id="a_Node000004"><a xlink:href="mini__ray_8c.html#a0c99d968a34e803d378692bde2e3f18f" target="_top" xlink:title=" ">
<polygon fill="white" stroke="#666666" points="37,-149.25 0,-149.25 0,-130 37,-130 37,-149.25"/>
<text text-anchor="middle" x="18.5" y="-135.75" font-family="Helvetica,sans-Serif" font-size="10.00">main</text>
</a>
</g>
</g>
<!-- Node3&#45;&gt;Node4 -->
<g id="edge3_Node000003_Node000004" class="edge">
<title>Node3&#45;&gt;Node4</title>
<g id="a_edge3_Node000003_Node000004"><a xlink:title=" ">
<path fill="none" stroke="#63b8ff" d="M61.23,-139.62C52.6,-139.62 44.15,-139.62 37.14,-139.62"/>
<polygon fill="#63b8ff" stroke="#63b8ff" points="61.07,-143.13 71.07,-139.63 61.07,-136.13 61.07,-143.13"/>
</a>
</g>
</g>
<!-- Node6 -->
<g id="Node000006" class="node">
<title>Node6</title>
<g id="a_Node000006"><a xlink:href="parse__utils_8c.html#aa353b138267370a075b03b29a2306573" target="_top" xlink:title=" ">
<polygon fill="white" stroke="#666666" points="657,-130.25 561.5,-130.25 561.5,-111 657,-111 657,-130.25"/>
<text text-anchor="middle" x="609.25" y="-116.75" font-family="Helvetica,sans-Serif" font-size="10.00">parse_assign_trgb</text>
</a>
</g>
</g>
<!-- Node5&#45;&gt;Node6 -->
<g id="edge5_Node000005_Node000006" class="edge">
<title>Node5&#45;&gt;Node6</title>
<g id="a_edge5_Node000005_Node000006"><a xlink:title=" ">
<path fill="none" stroke="#63b8ff" d="M685.83,-124.03C676.3,-123.6 666.53,-123.16 657.3,-122.74"/>
<polygon fill="#63b8ff" stroke="#63b8ff" points="685.61,-127.52 695.76,-124.48 685.93,-120.53 685.61,-127.52"/>
</a>
</g>
</g>
<!-- Node7 -->
<g id="Node000007" class="node">
<title>Node7</title>
<g id="a_Node000007"><a xlink:href="parse__camera__light_8c.html#a0b2ac9083d47f8bf5eed5fbbb5576a19" target="_top" xlink:title=" ">
<polygon fill="white" stroke="#666666" points="521.75,-167.25 442,-167.25 442,-148 521.75,-148 521.75,-167.25"/>
<text text-anchor="middle" x="481.88" y="-153.75" font-family="Helvetica,sans-Serif" font-size="10.00">parse_ambient</text>
</a>
</g>
</g>
<!-- Node6&#45;&gt;Node7 -->
<g id="edge6_Node000006_Node000007" class="edge">
<title>Node6&#45;&gt;Node7</title>
<g id="a_edge6_Node000006_Node000007"><a xlink:title=" ">
<path fill="none" stroke="#63b8ff" d="M563.24,-133.91C548.04,-138.39 531.32,-143.33 517.09,-147.53"/>
<polygon fill="#63b8ff" stroke="#63b8ff" points="563.94,-137.35 572.54,-131.16 561.96,-130.64 563.94,-137.35"/>
</a>
</g>
</g>
<!-- Node9 -->
<g id="Node000009" class="node">
<title>Node9</title>
<g id="a_Node000009"><a xlink:href="parse__objects_8c.html#a438a08a219ba336c395096067e52bb1b" target="_top" xlink:title=" ">
<polygon fill="white" stroke="#666666" points="521,-93.25 442.75,-93.25 442.75,-74 521,-74 521,-93.25"/>
<text text-anchor="middle" x="481.88" y="-79.75" font-family="Helvetica,sans-Serif" font-size="10.00">parse_cylinder</text>
</a>
</g>
</g>
<!-- Node6&#45;&gt;Node9 -->
<g id="edge9_Node000006_Node000009" class="edge">
<title>Node6&#45;&gt;Node9</title>
<g id="a_edge9_Node000006_Node000009"><a xlink:title=" ">
<path fill="none" stroke="#63b8ff" d="M563.24,-107.34C548.04,-102.86 531.32,-97.92 517.09,-93.72"/>
<polygon fill="#63b8ff" stroke="#63b8ff" points="561.96,-110.61 572.54,-110.09 563.94,-103.9 561.96,-110.61"/>
</a>
</g>
</g>
<!-- Node10 -->
<g id="Node000010" class="node">
<title>Node10</title>
<g id="a_Node000010"><a xlink:href="parse__camera__light_8c.html#aaa10205c0950a79dd43566074de7b0a0" target="_top" xlink:title=" ">
<polygon fill="white" stroke="#666666" points="513.5,-130.25 450.25,-130.25 450.25,-111 513.5,-111 513.5,-130.25"/>
<text text-anchor="middle" x="481.88" y="-116.75" font-family="Helvetica,sans-Serif" font-size="10.00">parse_light</text>
</a>
</g>
</g>
<!-- Node6&#45;&gt;Node10 -->
<g id="edge11_Node000006_Node000010" class="edge">
<title>Node6&#45;&gt;Node10</title>
<g id="a_edge11_Node000006_Node000010"><a xlink:title=" ">
<path fill="none" stroke="#63b8ff" d="M549.89,-120.62C537.44,-120.62 524.75,-120.62 513.82,-120.62"/>
<polygon fill="#63b8ff" stroke="#63b8ff" points="549.69,-124.13 559.69,-120.63 549.69,-117.13 549.69,-124.13"/>
</a>
</g>
</g>
<!-- Node11 -->
<g id="Node000011" class="node">
<title>Node11</title>
<g id="a_Node000011"><a xlink:href="parse__objects_8c.html#a7e641794acee51578d8539e361635c47" target="_top" xlink:title=" ">
<polygon fill="white" stroke="#666666" points="516.12,-56.25 447.62,-56.25 447.62,-37 516.12,-37 516.12,-56.25"/>
<text text-anchor="middle" x="481.88" y="-42.75" font-family="Helvetica,sans-Serif" font-size="10.00">parse_plane</text>
</a>
</g>
</g>
<!-- Node6&#45;&gt;Node11 -->
<g id="edge13_Node000006_Node000011" class="edge">
<title>Node6&#45;&gt;Node11</title>
<g id="a_edge13_Node000006_Node000011"><a xlink:title=" ">
<path fill="none" stroke="#63b8ff" d="M563.33,-105.92C561.4,-104.89 559.53,-103.79 557.75,-102.62 538.26,-89.93 540.64,-78.2 521.75,-64.62 517.64,-61.67 512.97,-59.02 508.33,-56.72"/>
<polygon fill="#63b8ff" stroke="#63b8ff" points="561.36,-108.86 571.9,-109.95 564.34,-102.53 561.36,-108.86"/>
</a>
</g>
</g>
<!-- Node8 -->
<g id="Node000008" class="node">
<title>Node8</title>
<g id="a_Node000008"><a xlink:href="parse__main_8c.html#a92aa268ea4b3d5c808364ca73d913cbe" target="_top" xlink:title=" ">
<polygon fill="white" stroke="#666666" points="406,-112.25 318,-112.25 318,-93 406,-93 406,-112.25"/>
<text text-anchor="middle" x="362" y="-98.75" font-family="Helvetica,sans-Serif" font-size="10.00">parse_func_redir</text>
</a>
</g>
</g>
<!-- Node7&#45;&gt;Node8 -->
<g id="edge7_Node000007_Node000008" class="edge">
<title>Node7&#45;&gt;Node8</title>
<g id="a_edge7_Node000007_Node000008"><a xlink:title=" ">
<path fill="none" stroke="#63b8ff" d="M448.63,-142.71C446.39,-141.67 444.16,-140.63 442,-139.62 422.5,-130.55 400.33,-120.16 384.45,-112.7"/>
<polygon fill="#63b8ff" stroke="#63b8ff" points="447.16,-145.88 457.7,-146.91 450.1,-139.53 447.16,-145.88"/>
</a>
</g>
</g>
<!-- Node8&#45;&gt;Node2 -->
<g id="edge8_Node000008_Node000002" class="edge">
<title>Node8&#45;&gt;Node2</title>
<g id="a_edge8_Node000008_Node000002"><a xlink:title=" ">
<path fill="none" stroke="#63b8ff" d="M315.86,-115.91C300.61,-120.39 283.84,-125.33 269.57,-129.53"/>
<polygon fill="#63b8ff" stroke="#63b8ff" points="316.58,-119.34 325.19,-113.16 314.6,-112.63 316.58,-119.34"/>
</a>
</g>
</g>
<!-- Node9&#45;&gt;Node8 -->
<g id="edge10_Node000009_Node000008" class="edge">
<title>Node9&#45;&gt;Node8</title>
<g id="a_edge10_Node000009_Node000008"><a xlink:title=" ">
<path fill="none" stroke="#63b8ff" d="M431.17,-91.64C422.86,-92.98 414.3,-94.36 406.17,-95.67"/>
<polygon fill="#63b8ff" stroke="#63b8ff" points="431.47,-95.13 440.78,-90.09 430.35,-88.22 431.47,-95.13"/>
</a>
</g>
</g>
<!-- Node10&#45;&gt;Node8 -->
<g id="edge12_Node000010_Node000008" class="edge">
<title>Node10&#45;&gt;Node8</title>
<g id="a_edge12_Node000010_Node000008"><a xlink:title=" ">
<path fill="none" stroke="#63b8ff" d="M438.79,-114.2C428.2,-112.58 416.82,-110.84 406.17,-109.22"/>
<polygon fill="#63b8ff" stroke="#63b8ff" points="437.99,-117.62 448.41,-115.67 439.05,-110.7 437.99,-117.62"/>
</a>
</g>
</g>
<!-- Node11&#45;&gt;Node8 -->
<g id="edge14_Node000011_Node000008" class="edge">
<title>Node11&#45;&gt;Node8</title>
<g id="a_edge14_Node000011_Node000008"><a xlink:title=" ">
<path fill="none" stroke="#63b8ff" d="M448.62,-61.52C446.38,-62.56 444.15,-63.61 442,-64.62 422.18,-73.98 399.66,-84.83 383.75,-92.54"/>
<polygon fill="#63b8ff" stroke="#63b8ff" points="450.09,-64.69 457.68,-57.3 447.14,-58.34 450.09,-64.69"/>
</a>
</g>
</g>
<!-- Node13 -->
<g id="Node000013" class="node">
<title>Node13</title>
<g id="a_Node000013"><a xlink:href="parse__utils_8c.html#a4b09ddfa5e35fa7e45323421232772ce" target="_top" xlink:title=" ">
<polygon fill="white" stroke="#666666" points="660.75,-93.25 557.75,-93.25 557.75,-74 660.75,-74 660.75,-93.25"/>
<text text-anchor="middle" x="609.25" y="-79.75" font-family="Helvetica,sans-Serif" font-size="10.00">parse_assign_coord</text>
</a>
</g>
</g>
<!-- Node12&#45;&gt;Node13 -->
<g id="edge16_Node000012_Node000013" class="edge">
<title>Node12&#45;&gt;Node13</title>
<g id="a_edge16_Node000012_Node000013"><a xlink:title=" ">
<path fill="none" stroke="#63b8ff" d="M688.01,-83.62C679.1,-83.62 669.92,-83.62 661.13,-83.62"/>
<polygon fill="#63b8ff" stroke="#63b8ff" points="687.99,-87.13 697.99,-83.63 687.99,-80.13 687.99,-87.13"/>
</a>
</g>
</g>
<!-- Node13&#45;&gt;Node9 -->
<g id="edge19_Node000013_Node000009" class="edge">
<title>Node13&#45;&gt;Node9</title>
<g id="a_edge19_Node000013_Node000009"><a xlink:title=" ">
<path fill="none" stroke="#63b8ff" d="M545.82,-83.62C537.4,-83.62 528.96,-83.62 521.13,-83.62"/>
<polygon fill="#63b8ff" stroke="#63b8ff" points="545.74,-87.13 555.74,-83.63 545.74,-80.13 545.74,-87.13"/>
</a>
</g>
</g>
<!-- Node13&#45;&gt;Node10 -->
<g id="edge20_Node000013_Node000010" class="edge">
<title>Node13&#45;&gt;Node10</title>
<g id="a_edge20_Node000013_Node000010"><a xlink:title=" ">
<path fill="none" stroke="#63b8ff" d="M562.99,-96.98C546.61,-101.82 528.51,-107.16 513.67,-111.54"/>
<polygon fill="#63b8ff" stroke="#63b8ff" points="563.94,-100.35 572.54,-94.16 561.96,-93.64 563.94,-100.35"/>
</a>
</g>
</g>
<!-- Node13&#45;&gt;Node11 -->
<g id="edge21_Node000013_Node000011" class="edge">
<title>Node13&#45;&gt;Node11</title>
<g id="a_edge21_Node000013_Node000011"><a xlink:title=" ">
<path fill="none" stroke="#63b8ff" d="M563.06,-70.29C547.6,-65.73 530.59,-60.71 516.23,-56.47"/>
<polygon fill="#63b8ff" stroke="#63b8ff" points="561.96,-73.61 572.54,-73.09 563.94,-66.9 561.96,-73.61"/>
</a>
</g>
</g>
<!-- Node14 -->
<g id="Node000014" class="node">
<title>Node14</title>
<g id="a_Node000014"><a xlink:href="parse__camera__light_8c.html#a00b9b6a4aadecaaf341d2fc409582b39" target="_top" xlink:title=" ">
<polygon fill="white" stroke="#666666" points="520.62,-19.25 443.12,-19.25 443.12,0 520.62,0 520.62,-19.25"/>
<text text-anchor="middle" x="481.88" y="-5.75" font-family="Helvetica,sans-Serif" font-size="10.00">parse_camera</text>
</a>
</g>
</g>
<!-- Node13&#45;&gt;Node14 -->
<g id="edge17_Node000013_Node000014" class="edge">
<title>Node13&#45;&gt;Node14</title>
<g id="a_edge17_Node000013_Node000014"><a xlink:title=" ">
<path fill="none" stroke="#63b8ff" d="M563.33,-68.92C561.4,-67.89 559.53,-66.79 557.75,-65.62 538.26,-52.93 540.64,-41.2 521.75,-27.62 517.64,-24.67 512.97,-22.02 508.33,-19.72"/>
<polygon fill="#63b8ff" stroke="#63b8ff" points="561.36,-71.86 571.9,-72.95 564.34,-65.53 561.36,-71.86"/>
</a>
</g>
</g>
<!-- Node14&#45;&gt;Node8 -->
<g id="edge18_Node000014_Node000008" class="edge">
<title>Node14&#45;&gt;Node8</title>
<g id="a_edge18_Node000014_Node000008"><a xlink:title=" ">
<path fill="none" stroke="#63b8ff" d="M446.18,-24.96C444.75,-25.82 443.35,-26.71 442,-27.62 413.37,-47.07 385.3,-77.04 371.62,-92.55"/>
<polygon fill="#63b8ff" stroke="#63b8ff" points="447.48,-28.24 454.62,-20.41 444.16,-22.08 447.48,-28.24"/>
</a>
</g>
</g>
<!-- Node16 -->
<g id="Node000016" class="node">
<title>Node16</title>
<g id="a_Node000016"><a xlink:href="parse__utils_8c.html#a70a5145ad572a59954c71984bf73ca01" target="_top" xlink:title=" ">
<polygon fill="white" stroke="#666666" points="656.62,-56.25 561.88,-56.25 561.88,-37 656.62,-37 656.62,-56.25"/>
<text text-anchor="middle" x="609.25" y="-42.75" font-family="Helvetica,sans-Serif" font-size="10.00">parse_assign_vec</text>
</a>
</g>
</g>
<!-- Node15&#45;&gt;Node16 -->
<g id="edge23_Node000015_Node000016" class="edge">
<title>Node15&#45;&gt;Node16</title>
<g id="a_edge23_Node000015_Node000016"><a xlink:title=" ">
<path fill="none" stroke="#63b8ff" d="M685.13,-46.62C675.65,-46.62 665.95,-46.62 656.8,-46.62"/>
<polygon fill="#63b8ff" stroke="#63b8ff" points="685.01,-50.13 695.01,-46.63 685.01,-43.13 685.01,-50.13"/>
</a>
</g>
</g>
<!-- Node16&#45;&gt;Node9 -->
<g id="edge25_Node000016_Node000009" class="edge">
<title>Node16&#45;&gt;Node9</title>
<g id="a_edge25_Node000016_Node000009"><a xlink:title=" ">
<path fill="none" stroke="#63b8ff" d="M563.24,-59.91C548.04,-64.39 531.32,-69.33 517.09,-73.53"/>
<polygon fill="#63b8ff" stroke="#63b8ff" points="563.94,-63.35 572.54,-57.16 561.96,-56.64 563.94,-63.35"/>
</a>
</g>
</g>
<!-- Node16&#45;&gt;Node11 -->
<g id="edge26_Node000016_Node000011" class="edge">
<title>Node16&#45;&gt;Node11</title>
<g id="a_edge26_Node000016_Node000011"><a xlink:title=" ">
<path fill="none" stroke="#63b8ff" d="M550.1,-46.62C538.5,-46.62 526.7,-46.62 516.29,-46.62"/>
<polygon fill="#63b8ff" stroke="#63b8ff" points="550.05,-50.13 560.05,-46.63 550.05,-43.13 550.05,-50.13"/>
</a>
</g>
</g>
<!-- Node16&#45;&gt;Node14 -->
<g id="edge24_Node000016_Node000014" class="edge">
<title>Node16&#45;&gt;Node14</title>
<g id="a_edge24_Node000016_Node000014"><a xlink:title=" ">
<path fill="none" stroke="#63b8ff" d="M563.24,-33.34C548.04,-28.86 531.32,-23.92 517.09,-19.72"/>
<polygon fill="#63b8ff" stroke="#63b8ff" points="561.96,-36.61 572.54,-36.09 563.94,-29.9 561.96,-36.61"/>
</a>
</g>
</g>
</g>
</svg>
