<?xml version="1.0" encoding="UTF-8" standalone="no"?>
<!DOCTYPE svg PUBLIC "-//W3C//DTD SVG 1.1//EN"
 "http://www.w3.org/Graphics/SVG/1.1/DTD/svg11.dtd">
<!-- Generated by graphviz version 9.0.0 (20230911.1827)
 -->
<!-- Title: /github/workspace/SRC/OBJECTS/UTILS/obj_render.c Pages: 1 -->
<svg width="546pt" height="204pt"
 viewBox="0.00 0.00 546.38 204.25" xmlns="http://www.w3.org/2000/svg" xmlns:xlink="http://www.w3.org/1999/xlink">
<g id="graph0" class="graph" transform="scale(1 1) rotate(0) translate(4 200.25)">
<title>/github/workspace/SRC/OBJECTS/UTILS/obj_render.c</title>
<!-- Node1 -->
<g id="Node000001" class="node">
<title>Node1</title>
<g id="a_Node000001"><a xlink:title=" ">
<polygon fill="#999999" stroke="#666666" points="322.62,-196.25 170.88,-196.25 170.88,-165.75 322.62,-165.75 322.62,-196.25"/>
<text text-anchor="start" x="178.88" y="-182.75" font-family="Helvetica,sans-Serif" font-size="10.00">/github/workspace/SRC</text>
<text text-anchor="middle" x="246.75" y="-171.5" font-family="Helvetica,sans-Serif" font-size="10.00">/OBJECTS/UTILS/obj_render.c</text>
</a>
</g>
</g>
<!-- Node2 -->
<g id="Node000002" class="node">
<title>Node2</title>
<g id="a_Node000002"><a xlink:href="objects__sphere_8h.html" target="_top" xlink:title=" ">
<polygon fill="white" stroke="#666666" points="89.5,-129.75 0,-129.75 0,-110.5 89.5,-110.5 89.5,-129.75"/>
<text text-anchor="middle" x="44.75" y="-116.25" font-family="Helvetica,sans-Serif" font-size="10.00">objects_sphere.h</text>
</a>
</g>
</g>
<!-- Node1&#45;&gt;Node2 -->
<g id="edge1_Node000001_Node000002" class="edge">
<title>Node1&#45;&gt;Node2</title>
<g id="a_edge1_Node000001_Node000002"><a xlink:title=" ">
<path fill="none" stroke="#63b8ff" d="M196.3,-165.3C162.53,-155.45 118.62,-142.65 86.76,-133.37"/>
<polygon fill="#63b8ff" stroke="#63b8ff" points="88.06,-130.1 77.48,-130.66 86.1,-136.82 88.06,-130.1"/>
</a>
</g>
</g>
<!-- Node7 -->
<g id="Node000007" class="node">
<title>Node7</title>
<g id="a_Node000007"><a xlink:href="base__matrices_8h.html" target="_top" xlink:title=" ">
<polygon fill="white" stroke="#666666" points="194.38,-129.75 107.12,-129.75 107.12,-110.5 194.38,-110.5 194.38,-129.75"/>
<text text-anchor="middle" x="150.75" y="-116.25" font-family="Helvetica,sans-Serif" font-size="10.00">base_matrices.h</text>
</a>
</g>
</g>
<!-- Node1&#45;&gt;Node7 -->
<g id="edge6_Node000001_Node000007" class="edge">
<title>Node1&#45;&gt;Node7</title>
<g id="a_edge6_Node000001_Node000007"><a xlink:title=" ">
<path fill="none" stroke="#63b8ff" d="M223.02,-165.45C208.4,-156.48 189.71,-145.02 175,-136"/>
<polygon fill="#63b8ff" stroke="#63b8ff" points="177.19,-133.24 166.84,-130.99 173.53,-139.2 177.19,-133.24"/>
</a>
</g>
</g>
<!-- Node8 -->
<g id="Node000008" class="node">
<title>Node8</title>
<g id="a_Node000008"><a xlink:href="base__rays_8h.html" target="_top" xlink:title=" ">
<polygon fill="white" stroke="#666666" points="280.62,-129.75 212.88,-129.75 212.88,-110.5 280.62,-110.5 280.62,-129.75"/>
<text text-anchor="middle" x="246.75" y="-116.25" font-family="Helvetica,sans-Serif" font-size="10.00">base_rays.h</text>
</a>
</g>
</g>
<!-- Node1&#45;&gt;Node8 -->
<g id="edge8_Node000001_Node000008" class="edge">
<title>Node1&#45;&gt;Node8</title>
<g id="a_edge8_Node000001_Node000008"><a xlink:title=" ">
<path fill="none" stroke="#63b8ff" d="M246.75,-165.45C246.75,-158.21 246.75,-149.34 246.75,-141.44"/>
<polygon fill="#63b8ff" stroke="#63b8ff" points="250.25,-141.71 246.75,-131.71 243.25,-141.71 250.25,-141.71"/>
</a>
</g>
</g>
<!-- Node9 -->
<g id="Node000009" class="node">
<title>Node9</title>
<g id="a_Node000009"><a xlink:href="window__size_8h.html" target="_top" xlink:title=" ">
<polygon fill="white" stroke="#666666" points="377.25,-129.75 298.25,-129.75 298.25,-110.5 377.25,-110.5 377.25,-129.75"/>
<text text-anchor="middle" x="337.75" y="-116.25" font-family="Helvetica,sans-Serif" font-size="10.00">window_size.h</text>
</a>
</g>
</g>
<!-- Node1&#45;&gt;Node9 -->
<g id="edge10_Node000001_Node000009" class="edge">
<title>Node1&#45;&gt;Node9</title>
<g id="a_edge10_Node000001_Node000009"><a xlink:title=" ">
<path fill="none" stroke="#63b8ff" d="M269.24,-165.45C282.97,-156.57 300.48,-145.24 314.36,-136.26"/>
<polygon fill="#63b8ff" stroke="#63b8ff" points="315.96,-139.39 322.45,-131.02 312.15,-133.52 315.96,-139.39"/>
</a>
</g>
</g>
<!-- Node10 -->
<g id="Node000010" class="node">
<title>Node10</title>
<g id="a_Node000010"><a xlink:href="muk__lib_8h.html" target="_top" xlink:title=" ">
<polygon fill="white" stroke="#666666" points="452.38,-129.75 395.12,-129.75 395.12,-110.5 452.38,-110.5 452.38,-129.75"/>
<text text-anchor="middle" x="423.75" y="-116.25" font-family="Helvetica,sans-Serif" font-size="10.00">muk_lib.h</text>
</a>
</g>
</g>
<!-- Node1&#45;&gt;Node10 -->
<g id="edge11_Node000001_Node000010" class="edge">
<title>Node1&#45;&gt;Node10</title>
<g id="a_edge11_Node000001_Node000010"><a xlink:title=" ">
<path fill="none" stroke="#63b8ff" d="M290.96,-165.3C320.03,-155.63 357.68,-143.1 385.47,-133.86"/>
<polygon fill="#63b8ff" stroke="#63b8ff" points="386.52,-137.2 394.91,-130.72 384.32,-130.55 386.52,-137.2"/>
</a>
</g>
</g>
<!-- Node3 -->
<g id="Node000003" class="node">
<title>Node3</title>
<g id="a_Node000003"><a xlink:href="types_8h.html" target="_top" xlink:title=" ">
<polygon fill="white" stroke="#666666" points="181.12,-74.5 134.38,-74.5 134.38,-55.25 181.12,-55.25 181.12,-74.5"/>
<text text-anchor="middle" x="157.75" y="-61" font-family="Helvetica,sans-Serif" font-size="10.00">types.h</text>
</a>
</g>
</g>
<!-- Node2&#45;&gt;Node3 -->
<g id="edge2_Node000002_Node000003" class="edge">
<title>Node2&#45;&gt;Node3</title>
<g id="a_edge2_Node000002_Node000003"><a xlink:title=" ">
<path fill="none" stroke="#63b8ff" d="M63.92,-110.09C81.53,-101.79 107.91,-89.36 128.21,-79.79"/>
<polygon fill="#63b8ff" stroke="#63b8ff" points="129.56,-83.03 137.12,-75.6 126.58,-76.69 129.56,-83.03"/>
</a>
</g>
</g>
<!-- Node4 -->
<g id="Node000004" class="node">
<title>Node4</title>
<g id="a_Node000004"><a xlink:title=" ">
<polygon fill="#e0e0e0" stroke="#999999" points="148.25,-19.25 93.25,-19.25 93.25,0 148.25,0 148.25,-19.25"/>
<text text-anchor="middle" x="120.75" y="-5.75" font-family="Helvetica,sans-Serif" font-size="10.00">stdbool.h</text>
</a>
</g>
</g>
<!-- Node3&#45;&gt;Node4 -->
<g id="edge3_Node000003_Node000004" class="edge">
<title>Node3&#45;&gt;Node4</title>
<g id="a_edge3_Node000003_Node000004"><a xlink:title=" ">
<path fill="none" stroke="#63b8ff" d="M151.64,-55.08C146.69,-47.96 139.55,-37.68 133.38,-28.8"/>
<polygon fill="#63b8ff" stroke="#63b8ff" points="136.44,-27.07 127.86,-20.85 130.69,-31.06 136.44,-27.07"/>
</a>
</g>
</g>
<!-- Node5 -->
<g id="Node000005" class="node">
<title>Node5</title>
<g id="a_Node000005"><a xlink:title=" ">
<polygon fill="#e0e0e0" stroke="#999999" points="292.12,-19.25 245.38,-19.25 245.38,0 292.12,0 292.12,-19.25"/>
<text text-anchor="middle" x="268.75" y="-5.75" font-family="Helvetica,sans-Serif" font-size="10.00">stdlib.h</text>
</a>
</g>
</g>
<!-- Node3&#45;&gt;Node5 -->
<g id="edge4_Node000003_Node000005" class="edge">
<title>Node3&#45;&gt;Node5</title>
<g id="a_edge4_Node000003_Node000005"><a xlink:title=" ">
<path fill="none" stroke="#63b8ff" d="M176.58,-54.84C193.8,-46.58 219.55,-34.23 239.46,-24.68"/>
<polygon fill="#63b8ff" stroke="#63b8ff" points="240.96,-27.84 248.46,-20.36 237.93,-21.53 240.96,-27.84"/>
</a>
</g>
</g>
<!-- Node6 -->
<g id="Node000006" class="node">
<title>Node6</title>
<g id="a_Node000006"><a xlink:title=" ">
<polygon fill="#e0e0e0" stroke="#999999" points="213.12,-19.25 166.38,-19.25 166.38,0 213.12,0 213.12,-19.25"/>
<text text-anchor="middle" x="189.75" y="-5.75" font-family="Helvetica,sans-Serif" font-size="10.00">limits.h</text>
</a>
</g>
</g>
<!-- Node3&#45;&gt;Node6 -->
<g id="edge5_Node000003_Node000006" class="edge">
<title>Node3&#45;&gt;Node6</title>
<g id="a_edge5_Node000003_Node000006"><a xlink:title=" ">
<path fill="none" stroke="#63b8ff" d="M163.03,-55.08C167.22,-48.11 173.23,-38.12 178.48,-29.37"/>
<polygon fill="#63b8ff" stroke="#63b8ff" points="181.42,-31.28 183.57,-20.91 175.42,-27.68 181.42,-31.28"/>
</a>
</g>
</g>
<!-- Node7&#45;&gt;Node3 -->
<g id="edge7_Node000007_Node000003" class="edge">
<title>Node7&#45;&gt;Node3</title>
<g id="a_edge7_Node000007_Node000003"><a xlink:title=" ">
<path fill="none" stroke="#63b8ff" d="M151.91,-110.33C152.77,-103.74 153.99,-94.46 155.09,-86.07"/>
<polygon fill="#63b8ff" stroke="#63b8ff" points="158.54,-86.73 156.37,-76.36 151.6,-85.82 158.54,-86.73"/>
</a>
</g>
</g>
<!-- Node8&#45;&gt;Node3 -->
<g id="edge9_Node000008_Node000003" class="edge">
<title>Node8&#45;&gt;Node3</title>
<g id="a_edge9_Node000008_Node000003"><a xlink:title=" ">
<path fill="none" stroke="#63b8ff" d="M231.65,-110.09C218.23,-102.06 198.34,-90.16 182.58,-80.73"/>
<polygon fill="#63b8ff" stroke="#63b8ff" points="184.6,-77.86 174.22,-75.73 181,-83.87 184.6,-77.86"/>
</a>
</g>
</g>
<!-- Node10&#45;&gt;Node5 -->
<g id="edge12_Node000010_Node000005" class="edge">
<title>Node10&#45;&gt;Node5</title>
<g id="a_edge12_Node000010_Node000005"><a xlink:title=" ">
<path fill="none" stroke="#63b8ff" d="M394.85,-112.23C361.22,-103.7 308.44,-88.58 293.75,-74.5 281.52,-62.77 275.16,-44.34 271.92,-30.29"/>
<polygon fill="#63b8ff" stroke="#63b8ff" points="275.43,-29.99 270.1,-20.83 268.56,-31.31 275.43,-29.99"/>
</a>
</g>
</g>
<!-- Node11 -->
<g id="Node000011" class="node">
<title>Node11</title>
<g id="a_Node000011"><a xlink:title=" ">
<polygon fill="#e0e0e0" stroke="#999999" points="352.62,-74.5 302.88,-74.5 302.88,-55.25 352.62,-55.25 352.62,-74.5"/>
<text text-anchor="middle" x="327.75" y="-61" font-family="Helvetica,sans-Serif" font-size="10.00">unistd.h</text>
</a>
</g>
</g>
<!-- Node10&#45;&gt;Node11 -->
<g id="edge13_Node000010_Node000011" class="edge">
<title>Node10&#45;&gt;Node11</title>
<g id="a_edge13_Node000010_Node000011"><a xlink:title=" ">
<path fill="none" stroke="#63b8ff" d="M407.46,-110.09C392.85,-101.98 371.12,-89.93 354.04,-80.46"/>
<polygon fill="#63b8ff" stroke="#63b8ff" points="355.88,-77.48 345.44,-75.69 352.49,-83.6 355.88,-77.48"/>
</a>
</g>
</g>
<!-- Node12 -->
<g id="Node000012" class="node">
<title>Node12</title>
<g id="a_Node000012"><a xlink:title=" ">
<polygon fill="#e0e0e0" stroke="#999999" points="415,-74.5 370.5,-74.5 370.5,-55.25 415,-55.25 415,-74.5"/>
<text text-anchor="middle" x="392.75" y="-61" font-family="Helvetica,sans-Serif" font-size="10.00">stdio.h</text>
</a>
</g>
</g>
<!-- Node10&#45;&gt;Node12 -->
<g id="edge14_Node000010_Node000012" class="edge">
<title>Node10&#45;&gt;Node12</title>
<g id="a_edge14_Node000010_Node000012"><a xlink:title=" ">
<path fill="none" stroke="#63b8ff" d="M418.63,-110.33C414.57,-103.36 408.76,-93.37 403.66,-84.62"/>
<polygon fill="#63b8ff" stroke="#63b8ff" points="406.8,-83.05 398.74,-76.17 400.75,-86.57 406.8,-83.05"/>
</a>
</g>
</g>
<!-- Node13 -->
<g id="Node000013" class="node">
<title>Node13</title>
<g id="a_Node000013"><a xlink:title=" ">
<polygon fill="#e0e0e0" stroke="#999999" points="474.88,-74.5 432.62,-74.5 432.62,-55.25 474.88,-55.25 474.88,-74.5"/>
<text text-anchor="middle" x="453.75" y="-61" font-family="Helvetica,sans-Serif" font-size="10.00">fcntl.h</text>
</a>
</g>
</g>
<!-- Node10&#45;&gt;Node13 -->
<g id="edge15_Node000010_Node000013" class="edge">
<title>Node10&#45;&gt;Node13</title>
<g id="a_edge15_Node000010_Node000013"><a xlink:title=" ">
<path fill="none" stroke="#63b8ff" d="M428.7,-110.33C432.63,-103.36 438.26,-93.37 443.19,-84.62"/>
<polygon fill="#63b8ff" stroke="#63b8ff" points="446.09,-86.61 447.95,-76.18 439.99,-83.17 446.09,-86.61"/>
</a>
</g>
</g>
<!-- Node14 -->
<g id="Node000014" class="node">
<title>Node14</title>
<g id="a_Node000014"><a xlink:title=" ">
<polygon fill="#e0e0e0" stroke="#999999" points="538.38,-74.5 493.12,-74.5 493.12,-55.25 538.38,-55.25 538.38,-74.5"/>
<text text-anchor="middle" x="515.75" y="-61" font-family="Helvetica,sans-Serif" font-size="10.00">math.h</text>
</a>
</g>
</g>
<!-- Node10&#45;&gt;Node14 -->
<g id="edge16_Node000010_Node000014" class="edge">
<title>Node10&#45;&gt;Node14</title>
<g id="a_edge16_Node000010_Node000014"><a xlink:title=" ">
<path fill="none" stroke="#63b8ff" d="M439.36,-110.09C453.37,-101.98 474.18,-89.93 490.55,-80.46"/>
<polygon fill="#63b8ff" stroke="#63b8ff" points="491.86,-83.75 498.76,-75.71 488.35,-77.69 491.86,-83.75"/>
</a>
</g>
</g>
</g>
</svg>
