<?xml version="1.0" encoding="UTF-8" standalone="no"?>
<!DOCTYPE svg PUBLIC "-//W3C//DTD SVG 1.1//EN"
 "http://www.w3.org/Graphics/SVG/1.1/DTD/svg11.dtd">
<!-- Generated by graphviz version 9.0.0 (20230911.1827)
 -->
<!-- Title: free_objects Pages: 1 -->
<svg width="501pt" height="217pt"
 viewBox="0.00 0.00 501.25 217.25" xmlns="http://www.w3.org/2000/svg" xmlns:xlink="http://www.w3.org/1999/xlink">
<g id="graph0" class="graph" transform="scale(1 1) rotate(0) translate(4 213.25)">
<title>free_objects</title>
<!-- Node1 -->
<g id="Node000001" class="node">
<title>Node1</title>
<g id="a_Node000001"><a xlink:title=" ">
<polygon fill="#999999" stroke="#666666" points="493.25,-114.25 424,-114.25 424,-95 493.25,-95 493.25,-114.25"/>
<text text-anchor="middle" x="458.62" y="-100.75" font-family="Helvetica,sans-Serif" font-size="10.00">free_objects</text>
</a>
</g>
</g>
<!-- Node2 -->
<g id="Node000002" class="node">
<title>Node2</title>
<g id="a_Node000002"><a xlink:href="cleanup_8c.html#a4d0401c5d47d3fbe2f286eae7eea7e19" target="_top" xlink:title=" ">
<polygon fill="white" stroke="#666666" points="388,-114.25 318,-114.25 318,-95 388,-95 388,-114.25"/>
<text text-anchor="middle" x="353" y="-100.75" font-family="Helvetica,sans-Serif" font-size="10.00">exit_cleanup</text>
</a>
</g>
</g>
<!-- Node1&#45;&gt;Node2 -->
<g id="edge1_Node000001_Node000002" class="edge">
<title>Node1&#45;&gt;Node2</title>
<g id="a_edge1_Node000001_Node000002"><a xlink:title=" ">
<path fill="none" stroke="#63b8ff" d="M412.21,-104.62C404.21,-104.62 396,-104.62 388.36,-104.62"/>
<polygon fill="#63b8ff" stroke="#63b8ff" points="412.18,-108.13 422.18,-104.63 412.18,-101.13 412.18,-108.13"/>
</a>
</g>
</g>
<!-- Node3 -->
<g id="Node000003" class="node">
<title>Node3</title>
<g id="a_Node000003"><a xlink:href="init__lux_8c.html#aa725d1fe6d2725add14a565bb5c1b995" target="_top" xlink:title=" ">
<polygon fill="white" stroke="#666666" points="134.75,-209.25 88.75,-209.25 88.75,-190 134.75,-190 134.75,-209.25"/>
<text text-anchor="middle" x="111.75" y="-195.75" font-family="Helvetica,sans-Serif" font-size="10.00">init_lux</text>
</a>
</g>
</g>
<!-- Node2&#45;&gt;Node3 -->
<g id="edge2_Node000002_Node000003" class="edge">
<title>Node2&#45;&gt;Node3</title>
<g id="a_edge2_Node000002_Node000003"><a xlink:title=" ">
<path fill="none" stroke="#63b8ff" d="M339.01,-123.54C326.47,-140.18 305.91,-163.58 282,-175.62 233.89,-199.86 168.93,-201.79 135.19,-200.87"/>
<polygon fill="#63b8ff" stroke="#63b8ff" points="341.52,-126.04 344.55,-115.88 335.85,-121.94 341.52,-126.04"/>
</a>
</g>
</g>
<!-- Node4 -->
<g id="Node000004" class="node">
<title>Node4</title>
<g id="a_Node000004"><a xlink:href="mini__ray_8c.html#a0c99d968a34e803d378692bde2e3f18f" target="_top" xlink:title=" ">
<polygon fill="white" stroke="#666666" points="37,-133.25 0,-133.25 0,-114 37,-114 37,-133.25"/>
<text text-anchor="middle" x="18.5" y="-119.75" font-family="Helvetica,sans-Serif" font-size="10.00">main</text>
</a>
</g>
</g>
<!-- Node2&#45;&gt;Node4 -->
<g id="edge8_Node000002_Node000004" class="edge">
<title>Node2&#45;&gt;Node4</title>
<g id="a_edge8_Node000002_Node000004"><a xlink:title=" ">
<path fill="none" stroke="#63b8ff" d="M315.18,-118.28C304.59,-121.78 292.94,-125.23 282,-127.62 191.03,-147.54 164.78,-158.44 73,-142.62 60.76,-140.52 47.61,-135.88 37.41,-131.72"/>
<polygon fill="#63b8ff" stroke="#63b8ff" points="316,-121.7 324.33,-115.15 313.73,-115.08 316,-121.7"/>
</a>
</g>
</g>
<!-- Node5 -->
<g id="Node000005" class="node">
<title>Node5</title>
<g id="a_Node000005"><a xlink:href="init__mlx_8c.html#a1a6dc2f71f09a4fb49ab62f2e83ef424" target="_top" xlink:title=" ">
<polygon fill="white" stroke="#666666" points="136.25,-133.25 87.25,-133.25 87.25,-114 136.25,-114 136.25,-133.25"/>
<text text-anchor="middle" x="111.75" y="-119.75" font-family="Helvetica,sans-Serif" font-size="10.00">init_mlx</text>
</a>
</g>
</g>
<!-- Node2&#45;&gt;Node5 -->
<g id="edge4_Node000002_Node000005" class="edge">
<title>Node2&#45;&gt;Node5</title>
<g id="a_edge4_Node000002_Node000005"><a xlink:title=" ">
<path fill="none" stroke="#63b8ff" d="M306.45,-108.24C255.81,-112.26 175.95,-118.61 136.47,-121.74"/>
<polygon fill="#63b8ff" stroke="#63b8ff" points="306.52,-111.75 316.21,-107.47 305.97,-104.77 306.52,-111.75"/>
</a>
</g>
</g>
<!-- Node6 -->
<g id="Node000006" class="node">
<title>Node6</title>
<g id="a_Node000006"><a xlink:href="input__validate_8c.html#a1497d4d5fc8fdfecbe3b36df53d2195f" target="_top" xlink:title="Validating if argument count is 2 (exe and 1 extra) and the extra is a .rt file and we have permissio...">
<polygon fill="white" stroke="#666666" points="272.25,-95.25 196.25,-95.25 196.25,-76 272.25,-76 272.25,-95.25"/>
<text text-anchor="middle" x="234.25" y="-81.75" font-family="Helvetica,sans-Serif" font-size="10.00">input_validate</text>
</a>
</g>
</g>
<!-- Node2&#45;&gt;Node6 -->
<g id="edge6_Node000002_Node000006" class="edge">
<title>Node2&#45;&gt;Node6</title>
<g id="a_edge6_Node000002_Node000006"><a xlink:title=" ">
<path fill="none" stroke="#63b8ff" d="M306.3,-97.19C295.16,-95.37 283.37,-93.46 272.66,-91.71"/>
<polygon fill="#63b8ff" stroke="#63b8ff" points="305.68,-100.63 316.11,-98.78 306.8,-93.72 305.68,-100.63"/>
</a>
</g>
</g>
<!-- Node7 -->
<g id="Node000007" class="node">
<title>Node7</title>
<g id="a_Node000007"><a xlink:href="parse__main_8c.html#a62c4de2f960942eba61e7de12c387ae4" target="_top" xlink:title="Entry function to parsing .rt file where the file is attempted to be opened, t_parse structure is ini...">
<polygon fill="white" stroke="#666666" points="150.5,-57.25 73,-57.25 73,-38 150.5,-38 150.5,-57.25"/>
<text text-anchor="middle" x="111.75" y="-43.75" font-family="Helvetica,sans-Serif" font-size="10.00">parse_rt_main</text>
</a>
</g>
</g>
<!-- Node2&#45;&gt;Node7 -->
<g id="edge9_Node000002_Node000007" class="edge">
<title>Node2&#45;&gt;Node7</title>
<g id="a_edge9_Node000002_Node000007"><a xlink:title=" ">
<path fill="none" stroke="#63b8ff" d="M327.87,-88.51C314.83,-80.6 298.13,-71.7 282,-66.62 238.42,-52.93 185.8,-48.84 150.92,-47.76"/>
<polygon fill="#63b8ff" stroke="#63b8ff" points="325.85,-91.37 336.18,-93.74 329.58,-85.45 325.85,-91.37"/>
</a>
</g>
</g>
<!-- Node8 -->
<g id="Node000008" class="node">
<title>Node8</title>
<g id="a_Node000008"><a xlink:href="parse__main_8c.html#a5d7da6ab7925ffda04b676ef38880723" target="_top" xlink:title="Reading a line from the given .rt file and splitting the given line with the space (&#39; &#39;) delimiter....">
<polygon fill="white" stroke="#666666" points="282,-19.25 186.5,-19.25 186.5,0 282,0 282,-19.25"/>
<text text-anchor="middle" x="234.25" y="-5.75" font-family="Helvetica,sans-Serif" font-size="10.00">parse_rt_read_line</text>
</a>
</g>
</g>
<!-- Node2&#45;&gt;Node8 -->
<g id="edge11_Node000002_Node000008" class="edge">
<title>Node2&#45;&gt;Node8</title>
<g id="a_edge11_Node000002_Node000008"><a xlink:title=" ">
<path fill="none" stroke="#63b8ff" d="M336.89,-86.31C323.56,-70.94 303.03,-49.07 282,-33.62 274.79,-28.33 266.25,-23.58 258.46,-19.72"/>
<polygon fill="#63b8ff" stroke="#63b8ff" points="334.08,-88.41 343.22,-93.78 339.42,-83.89 334.08,-88.41"/>
</a>
</g>
</g>
<!-- Node3&#45;&gt;Node4 -->
<g id="edge3_Node000003_Node000004" class="edge">
<title>Node3&#45;&gt;Node4</title>
<g id="a_edge3_Node000003_Node000004"><a xlink:title=" ">
<path fill="none" stroke="#63b8ff" d="M83.73,-183.4C80.04,-180.92 76.37,-178.29 73,-175.62 56.13,-162.29 38.64,-144.39 28.43,-133.44"/>
<polygon fill="#63b8ff" stroke="#63b8ff" points="81.76,-186.3 92.06,-188.77 85.54,-180.41 81.76,-186.3"/>
</a>
</g>
</g>
<!-- Node5&#45;&gt;Node4 -->
<g id="edge5_Node000005_Node000004" class="edge">
<title>Node5&#45;&gt;Node4</title>
<g id="a_edge5_Node000005_Node000004"><a xlink:title=" ">
<path fill="none" stroke="#63b8ff" d="M75.27,-123.62C62.25,-123.62 48.06,-123.62 37.26,-123.62"/>
<polygon fill="#63b8ff" stroke="#63b8ff" points="75.26,-127.13 85.26,-123.63 75.26,-120.13 75.26,-127.13"/>
</a>
</g>
</g>
<!-- Node6&#45;&gt;Node4 -->
<g id="edge7_Node000006_Node000004" class="edge">
<title>Node6&#45;&gt;Node4</title>
<g id="a_edge7_Node000006_Node000004"><a xlink:title=" ">
<path fill="none" stroke="#63b8ff" d="M184.64,-88.55C152.62,-91.18 109.93,-95.99 73,-104.62 60.71,-107.5 47.34,-112.25 37.04,-116.28"/>
<polygon fill="#63b8ff" stroke="#63b8ff" points="184.72,-92.06 194.42,-87.8 184.18,-85.08 184.72,-92.06"/>
</a>
</g>
</g>
<!-- Node7&#45;&gt;Node4 -->
<g id="edge10_Node000007_Node000004" class="edge">
<title>Node7&#45;&gt;Node4</title>
<g id="a_edge10_Node000007_Node000004"><a xlink:title=" ">
<path fill="none" stroke="#63b8ff" d="M83.73,-63.85C80.04,-66.33 76.37,-68.96 73,-71.62 56.13,-84.96 38.64,-102.86 28.43,-113.81"/>
<polygon fill="#63b8ff" stroke="#63b8ff" points="85.54,-66.84 92.06,-58.48 81.76,-60.95 85.54,-66.84"/>
</a>
</g>
</g>
<!-- Node8&#45;&gt;Node7 -->
<g id="edge12_Node000008_Node000007" class="edge">
<title>Node8&#45;&gt;Node7</title>
<g id="a_edge12_Node000008_Node000007"><a xlink:title=" ">
<path fill="none" stroke="#63b8ff" d="M190.57,-23.09C175.38,-27.87 158.56,-33.18 144.46,-37.63"/>
<polygon fill="#63b8ff" stroke="#63b8ff" points="191.35,-26.51 199.83,-20.16 189.24,-19.83 191.35,-26.51"/>
</a>
</g>
</g>
</g>
</svg>
