<?xml version="1.0" encoding="UTF-8" standalone="no"?>
<!DOCTYPE svg PUBLIC "-//W3C//DTD SVG 1.1//EN"
 "http://www.w3.org/Graphics/SVG/1.1/DTD/svg11.dtd">
<!-- Generated by graphviz version 9.0.0 (20230911.1827)
 -->
<!-- Title: sphere_normal Pages: 1 -->
<svg width="640pt" height="292pt"
 viewBox="0.00 0.00 640.25 292.25" xmlns="http://www.w3.org/2000/svg" xmlns:xlink="http://www.w3.org/1999/xlink">
<g id="graph0" class="graph" transform="scale(1 1) rotate(0) translate(4 288.25)">
<title>sphere_normal</title>
<!-- Node1 -->
<g id="Node000001" class="node">
<title>Node1</title>
<g id="a_Node000001"><a xlink:title=" ">
<polygon fill="#999999" stroke="#666666" points="79.75,-152.25 0,-152.25 0,-133 79.75,-133 79.75,-152.25"/>
<text text-anchor="middle" x="39.88" y="-138.75" font-family="Helvetica,sans-Serif" font-size="10.00">sphere_normal</text>
</a>
</g>
</g>
<!-- Node2 -->
<g id="Node000002" class="node">
<title>Node2</title>
<g id="a_Node000002"><a xlink:href="matrix__free_8c.html#ab28d26aa6d34d5c2a3b83b9ee519fec6" target="_top" xlink:title=" ">
<polygon fill="white" stroke="#666666" points="317.62,-284.25 253.62,-284.25 253.62,-265 317.62,-265 317.62,-284.25"/>
<text text-anchor="middle" x="285.62" y="-270.75" font-family="Helvetica,sans-Serif" font-size="10.00">free_matrix</text>
</a>
</g>
</g>
<!-- Node1&#45;&gt;Node2 -->
<g id="edge1_Node000001_Node000002" class="edge">
<title>Node1&#45;&gt;Node2</title>
<g id="a_edge1_Node000001_Node000002"><a xlink:title=" ">
<path fill="none" stroke="#63b8ff" d="M45.89,-152.71C56.14,-172.23 81.45,-215.13 115.75,-236.62 154.24,-260.74 206.15,-269.63 242.21,-272.86"/>
<polygon fill="#63b8ff" stroke="#63b8ff" points="241.58,-276.32 251.82,-273.61 242.12,-269.34 241.58,-276.32"/>
</a>
</g>
</g>
<!-- Node3 -->
<g id="Node000003" class="node">
<title>Node3</title>
<g id="a_Node000003"><a xlink:href="matrix__clone_8c.html#a664de98f31a1171b994283a70249628a" target="_top" xlink:title=" ">
<polygon fill="white" stroke="#666666" points="195.5,-86.25 124.75,-86.25 124.75,-67 195.5,-67 195.5,-86.25"/>
<text text-anchor="middle" x="160.12" y="-72.75" font-family="Helvetica,sans-Serif" font-size="10.00">matrix_clone</text>
</a>
</g>
</g>
<!-- Node1&#45;&gt;Node3 -->
<g id="edge2_Node000001_Node000003" class="edge">
<title>Node1&#45;&gt;Node3</title>
<g id="a_edge2_Node000001_Node000003"><a xlink:title=" ">
<path fill="none" stroke="#63b8ff" d="M58.83,-132.6C78.02,-121.89 108.69,-104.77 131.07,-92.29"/>
<polygon fill="#63b8ff" stroke="#63b8ff" points="132.65,-95.41 139.67,-87.48 129.24,-89.3 132.65,-95.41"/>
</a>
</g>
</g>
<!-- Node8 -->
<g id="Node000008" class="node">
<title>Node8</title>
<g id="a_Node000008"><a xlink:href="matrix__inverse_8c.html#a38c4dbf43aa6a2d976c3f77297ecd403" target="_top" xlink:title=" ">
<polygon fill="white" stroke="#666666" points="199.62,-227.25 120.62,-227.25 120.62,-208 199.62,-208 199.62,-227.25"/>
<text text-anchor="middle" x="160.12" y="-213.75" font-family="Helvetica,sans-Serif" font-size="10.00">matrix_inverse</text>
</a>
</g>
</g>
<!-- Node1&#45;&gt;Node8 -->
<g id="edge7_Node000001_Node000008" class="edge">
<title>Node1&#45;&gt;Node8</title>
<g id="a_edge7_Node000001_Node000008"><a xlink:title=" ">
<path fill="none" stroke="#63b8ff" d="M56.82,-152.74C76.59,-165.28 110.52,-186.8 133.85,-201.59"/>
<polygon fill="#63b8ff" stroke="#63b8ff" points="131.83,-204.46 142.15,-206.86 135.58,-198.55 131.83,-204.46"/>
</a>
</g>
</g>
<!-- Node10 -->
<g id="Node000010" class="node">
<title>Node10</title>
<g id="a_Node000010"><a xlink:href="matrix__multiple_8c.html#a6aa64cfb17a064fdea66fdf14a2a426e" target="_top" xlink:title=" ">
<polygon fill="white" stroke="#666666" points="200.75,-133.25 119.5,-133.25 119.5,-114 200.75,-114 200.75,-133.25"/>
<text text-anchor="middle" x="160.12" y="-119.75" font-family="Helvetica,sans-Serif" font-size="10.00">matrix_multiple</text>
</a>
</g>
</g>
<!-- Node1&#45;&gt;Node10 -->
<g id="edge12_Node000001_Node000010" class="edge">
<title>Node1&#45;&gt;Node10</title>
<g id="a_edge12_Node000001_Node000010"><a xlink:title=" ">
<path fill="none" stroke="#63b8ff" d="M79.92,-136.35C88.91,-134.91 98.61,-133.35 108.03,-131.84"/>
<polygon fill="#63b8ff" stroke="#63b8ff" points="108.5,-135.3 117.82,-130.26 107.39,-128.39 108.5,-135.3"/>
</a>
</g>
</g>
<!-- Node12 -->
<g id="Node000012" class="node">
<title>Node12</title>
<g id="a_Node000012"><a xlink:href="matrix__normalize_8c.html#a35a688dc70b34d031fa58218f8bcdbdd" target="_top" xlink:title=" ">
<polygon fill="white" stroke="#666666" points="204.5,-29.25 115.75,-29.25 115.75,-10 204.5,-10 204.5,-29.25"/>
<text text-anchor="middle" x="160.12" y="-15.75" font-family="Helvetica,sans-Serif" font-size="10.00">matrix_normalize</text>
</a>
</g>
</g>
<!-- Node1&#45;&gt;Node12 -->
<g id="edge15_Node000001_Node000012" class="edge">
<title>Node1&#45;&gt;Node12</title>
<g id="a_edge15_Node000001_Node000012"><a xlink:title=" ">
<path fill="none" stroke="#63b8ff" d="M49.01,-132.57C62.36,-116.27 89.99,-83.32 115.75,-57.62 122.83,-50.57 130.98,-43.23 138.3,-36.91"/>
<polygon fill="#63b8ff" stroke="#63b8ff" points="140.46,-39.67 145.82,-30.53 135.93,-34.33 140.46,-39.67"/>
</a>
</g>
</g>
<!-- Node14 -->
<g id="Node000014" class="node">
<title>Node14</title>
<g id="a_Node000014"><a xlink:href="matrix__transpose_8c.html#a70a4847189f00eb79dd2d8f03fd8afa6" target="_top" xlink:title=" ">
<polygon fill="white" stroke="#666666" points="330.75,-171.25 240.5,-171.25 240.5,-152 330.75,-152 330.75,-171.25"/>
<text text-anchor="middle" x="285.62" y="-157.75" font-family="Helvetica,sans-Serif" font-size="10.00">matrix_transpose</text>
</a>
</g>
</g>
<!-- Node1&#45;&gt;Node14 -->
<g id="edge17_Node000001_Node000014" class="edge">
<title>Node1&#45;&gt;Node14</title>
<g id="a_edge17_Node000001_Node000014"><a xlink:title=" ">
<path fill="none" stroke="#63b8ff" d="M80.04,-145.68C120.27,-148.81 183.28,-153.73 228.74,-157.27"/>
<polygon fill="#63b8ff" stroke="#63b8ff" points="228.44,-160.76 238.68,-158.04 228.98,-153.78 228.44,-160.76"/>
</a>
</g>
</g>
<!-- Node4 -->
<g id="Node000004" class="node">
<title>Node4</title>
<g id="a_Node000004"><a xlink:href="matrix__create_8c.html#a5291384d37d735f9c3fc33c03d2788ad" target="_top" xlink:title=" ">
<polygon fill="white" stroke="#666666" points="441.25,-171.25 366.75,-171.25 366.75,-152 441.25,-152 441.25,-171.25"/>
<text text-anchor="middle" x="404" y="-157.75" font-family="Helvetica,sans-Serif" font-size="10.00">matrix_create</text>
</a>
</g>
</g>
<!-- Node3&#45;&gt;Node4 -->
<g id="edge3_Node000003_Node000004" class="edge">
<title>Node3&#45;&gt;Node4</title>
<g id="a_edge3_Node000003_Node000004"><a xlink:title=" ">
<path fill="none" stroke="#63b8ff" d="M190.17,-66.55C225.41,-56.14 285.69,-44.28 330.75,-66.62 362.04,-82.14 383.44,-118.4 394.42,-141.36"/>
<polygon fill="#63b8ff" stroke="#63b8ff" points="391.16,-142.65 398.46,-150.32 397.54,-139.77 391.16,-142.65"/>
</a>
</g>
</g>
<!-- Node5 -->
<g id="Node000005" class="node">
<title>Node5</title>
<g id="a_Node000005"><a xlink:href="free__dptr_8c.html#aaa705b6d12fb1a9a15e6103879ec0ea0" target="_top" xlink:title=" ">
<polygon fill="white" stroke="#666666" points="538.62,-190.25 484.38,-190.25 484.38,-171 538.62,-171 538.62,-190.25"/>
<text text-anchor="middle" x="511.5" y="-176.75" font-family="Helvetica,sans-Serif" font-size="10.00">free_dptr</text>
</a>
</g>
</g>
<!-- Node4&#45;&gt;Node5 -->
<g id="edge4_Node000004_Node000005" class="edge">
<title>Node4&#45;&gt;Node5</title>
<g id="a_edge4_Node000004_Node000005"><a xlink:title=" ">
<path fill="none" stroke="#63b8ff" d="M441.6,-168.22C451.72,-170.04 462.72,-172.02 472.89,-173.85"/>
<polygon fill="#63b8ff" stroke="#63b8ff" points="471.99,-177.25 482.45,-175.57 473.23,-170.36 471.99,-177.25"/>
</a>
</g>
</g>
<!-- Node6 -->
<g id="Node000006" class="node">
<title>Node6</title>
<g id="a_Node000006"><a xlink:href="safe__malloc_8c.html#ab8bcda0e59b6f8eab1bfd9f92de50c6c" target="_top" xlink:title=" ">
<polygon fill="white" stroke="#666666" points="545.75,-153.25 477.25,-153.25 477.25,-134 545.75,-134 545.75,-153.25"/>
<text text-anchor="middle" x="511.5" y="-139.75" font-family="Helvetica,sans-Serif" font-size="10.00">safe_malloc</text>
</a>
</g>
</g>
<!-- Node4&#45;&gt;Node6 -->
<g id="edge5_Node000004_Node000006" class="edge">
<title>Node4&#45;&gt;Node6</title>
<g id="a_edge5_Node000004_Node000006"><a xlink:title=" ">
<path fill="none" stroke="#63b8ff" d="M441.6,-155.38C449.37,-154.05 457.65,-152.64 465.68,-151.27"/>
<polygon fill="#63b8ff" stroke="#63b8ff" points="466.03,-154.76 475.3,-149.63 464.85,-147.86 466.03,-154.76"/>
</a>
</g>
</g>
<!-- Node7 -->
<g id="Node000007" class="node">
<title>Node7</title>
<g id="a_Node000007"><a xlink:href="LIBFT_2ft__bzero_8c.html#a5937ab0d08e31d0e3e4a16ec71e293a1" target="_top" xlink:title=" ">
<polygon fill="white" stroke="#666666" points="632.25,-153.25 581.75,-153.25 581.75,-134 632.25,-134 632.25,-153.25"/>
<text text-anchor="middle" x="607" y="-139.75" font-family="Helvetica,sans-Serif" font-size="10.00">ft_bzero</text>
</a>
</g>
</g>
<!-- Node6&#45;&gt;Node7 -->
<g id="edge6_Node000006_Node000007" class="edge">
<title>Node6&#45;&gt;Node7</title>
<g id="a_edge6_Node000006_Node000007"><a xlink:title=" ">
<path fill="none" stroke="#63b8ff" d="M545.99,-143.62C553.88,-143.62 562.31,-143.62 570.29,-143.62"/>
<polygon fill="#63b8ff" stroke="#63b8ff" points="570.03,-147.13 580.03,-143.63 570.03,-140.13 570.03,-147.13"/>
</a>
</g>
</g>
<!-- Node8&#45;&gt;Node2 -->
<g id="edge8_Node000008_Node000002" class="edge">
<title>Node8&#45;&gt;Node2</title>
<g id="a_edge8_Node000008_Node000002"><a xlink:title=" ">
<path fill="none" stroke="#63b8ff" d="M180.52,-227.62C196.48,-235.74 219.77,-247.32 240.5,-256.62 243.24,-257.85 246.08,-259.09 248.95,-260.32"/>
<polygon fill="#63b8ff" stroke="#63b8ff" points="247.32,-263.43 257.9,-264.06 250.02,-256.98 247.32,-263.43"/>
</a>
</g>
</g>
<!-- Node8&#45;&gt;Node4 -->
<g id="edge9_Node000008_Node000004" class="edge">
<title>Node8&#45;&gt;Node4</title>
<g id="a_edge9_Node000008_Node000004"><a xlink:title=" ">
<path fill="none" stroke="#63b8ff" d="M199.97,-209.64C234.42,-202.44 286.06,-191.37 330.75,-180.62 338.73,-178.71 347.17,-176.58 355.37,-174.46"/>
<polygon fill="#63b8ff" stroke="#63b8ff" points="356.07,-177.89 364.86,-171.98 354.3,-171.12 356.07,-177.89"/>
</a>
</g>
</g>
<!-- Node9 -->
<g id="Node000009" class="node">
<title>Node9</title>
<g id="a_Node000009"><a xlink:href="matrix__identity_8c.html#a841c87975e3b38adb536d63ec35456e5" target="_top" xlink:title="Function that creates an identity matrix of size n 1 0 0 0 0 1 0 0 0 0 1 0 0 0 0 1.">
<polygon fill="white" stroke="#666666" points="324.75,-247.25 246.5,-247.25 246.5,-228 324.75,-228 324.75,-247.25"/>
<text text-anchor="middle" x="285.62" y="-233.75" font-family="Helvetica,sans-Serif" font-size="10.00">matrix_identity</text>
</a>
</g>
</g>
<!-- Node8&#45;&gt;Node9 -->
<g id="edge10_Node000008_Node000009" class="edge">
<title>Node8&#45;&gt;Node9</title>
<g id="a_edge10_Node000008_Node000009"><a xlink:title=" ">
<path fill="none" stroke="#63b8ff" d="M199.86,-223.9C210.9,-225.69 223.08,-227.66 234.68,-229.54"/>
<polygon fill="#63b8ff" stroke="#63b8ff" points="234.1,-232.99 244.53,-231.13 235.22,-226.08 234.1,-232.99"/>
</a>
</g>
</g>
<!-- Node9&#45;&gt;Node4 -->
<g id="edge11_Node000009_Node000004" class="edge">
<title>Node9&#45;&gt;Node4</title>
<g id="a_edge11_Node000009_Node000004"><a xlink:title=" ">
<path fill="none" stroke="#63b8ff" d="M306.26,-227.63C314.01,-223.5 322.92,-218.54 330.75,-213.62 348.19,-202.67 367.05,-189.03 381.12,-178.47"/>
<polygon fill="#63b8ff" stroke="#63b8ff" points="382.97,-181.46 388.82,-172.64 378.74,-175.89 382.97,-181.46"/>
</a>
</g>
</g>
<!-- Node10&#45;&gt;Node4 -->
<g id="edge14_Node000010_Node000004" class="edge">
<title>Node10&#45;&gt;Node4</title>
<g id="a_edge14_Node000010_Node000004"><a xlink:title=" ">
<path fill="none" stroke="#63b8ff" d="M201.12,-126.45C235.65,-129.29 286.76,-134.42 330.75,-142.62 339.54,-144.26 348.83,-146.4 357.71,-148.64"/>
<polygon fill="#63b8ff" stroke="#63b8ff" points="356.66,-151.98 367.22,-151.13 358.43,-145.21 356.66,-151.98"/>
</a>
</g>
</g>
<!-- Node11 -->
<g id="Node000011" class="node">
<title>Node11</title>
<g id="a_Node000011"><a xlink:href="errmsg_8c.html#a2fad0db9f0b078aa69ed34ccd60ad0c1" target="_top" xlink:title=" ">
<polygon fill="white" stroke="#666666" points="308.62,-95.25 262.62,-95.25 262.62,-76 308.62,-76 308.62,-95.25"/>
<text text-anchor="middle" x="285.62" y="-81.75" font-family="Helvetica,sans-Serif" font-size="10.00">errmsg</text>
</a>
</g>
</g>
<!-- Node10&#45;&gt;Node11 -->
<g id="edge13_Node000010_Node000011" class="edge">
<title>Node10&#45;&gt;Node11</title>
<g id="a_edge13_Node000010_Node000011"><a xlink:title=" ">
<path fill="none" stroke="#63b8ff" d="M193.9,-113.54C211.68,-108.07 233.62,-101.32 251.47,-95.83"/>
<polygon fill="#63b8ff" stroke="#63b8ff" points="252.27,-99.24 260.8,-92.96 250.21,-92.55 252.27,-99.24"/>
</a>
</g>
</g>
<!-- Node13 -->
<g id="Node000013" class="node">
<title>Node13</title>
<g id="a_Node000013"><a xlink:href="matrix__length_8c.html#a17fc3dee2a35d639486d28c848d3bc82" target="_top" xlink:title=" ">
<polygon fill="white" stroke="#666666" points="322.5,-19.25 248.75,-19.25 248.75,0 322.5,0 322.5,-19.25"/>
<text text-anchor="middle" x="285.62" y="-5.75" font-family="Helvetica,sans-Serif" font-size="10.00">matrix_length</text>
</a>
</g>
</g>
<!-- Node12&#45;&gt;Node13 -->
<g id="edge16_Node000012_Node000013" class="edge">
<title>Node12&#45;&gt;Node13</title>
<g id="a_edge16_Node000012_Node000013"><a xlink:title=" ">
<path fill="none" stroke="#63b8ff" d="M204.67,-16.1C215.17,-15.25 226.45,-14.34 237.13,-13.47"/>
<polygon fill="#63b8ff" stroke="#63b8ff" points="237.22,-16.98 246.9,-12.68 236.65,-10 237.22,-16.98"/>
</a>
</g>
</g>
<!-- Node14&#45;&gt;Node4 -->
<g id="edge18_Node000014_Node000004" class="edge">
<title>Node14&#45;&gt;Node4</title>
<g id="a_edge18_Node000014_Node000004"><a xlink:title=" ">
<path fill="none" stroke="#63b8ff" d="M330.95,-161.62C338.81,-161.62 347.02,-161.62 354.97,-161.62"/>
<polygon fill="#63b8ff" stroke="#63b8ff" points="354.85,-165.13 364.85,-161.63 354.85,-158.13 354.85,-165.13"/>
</a>
</g>
</g>
</g>
</svg>
