<?xml version="1.0" encoding="UTF-8" standalone="no"?>
<!DOCTYPE svg PUBLIC "-//W3C//DTD SVG 1.1//EN"
 "http://www.w3.org/Graphics/SVG/1.1/DTD/svg11.dtd">
<!-- Generated by graphviz version 9.0.0 (20230911.1827)
 -->
<!-- Title: /github/workspace/INC/objects_camera.h Pages: 1 -->
<svg width="316pt" height="116pt"
 viewBox="0.00 0.00 316.00 116.25" xmlns="http://www.w3.org/2000/svg" xmlns:xlink="http://www.w3.org/1999/xlink">
<g id="graph0" class="graph" transform="scale(1 1) rotate(0) translate(4 112.25)">
<title>/github/workspace/INC/objects_camera.h</title>
<!-- Node1 -->
<g id="Node000001" class="node">
<title>Node1</title>
<g id="a_Node000001"><a xlink:title=" ">
<polygon fill="#999999" stroke="#666666" points="212.12,-108.25 96.38,-108.25 96.38,-77.75 212.12,-77.75 212.12,-108.25"/>
<text text-anchor="start" x="104.38" y="-94.75" font-family="Helvetica,sans-Serif" font-size="10.00">/github/workspace/INC</text>
<text text-anchor="middle" x="154.25" y="-83.5" font-family="Helvetica,sans-Serif" font-size="10.00">/objects_camera.h</text>
</a>
</g>
</g>
<!-- Node2 -->
<g id="Node000002" class="node">
<title>Node2</title>
<g id="a_Node000002"><a xlink:href="parse__camera__light_8c.html" target="_top" xlink:title=" ">
<polygon fill="white" stroke="#666666" points="146.5,-41.75 0,-41.75 0,0 146.5,0 146.5,-41.75"/>
<text text-anchor="start" x="8" y="-28.25" font-family="Helvetica,sans-Serif" font-size="10.00">/github/workspace/SRC</text>
<text text-anchor="start" x="8" y="-17" font-family="Helvetica,sans-Serif" font-size="10.00">/CORE/PARSE/parse_camera</text>
<text text-anchor="middle" x="73.25" y="-5.75" font-family="Helvetica,sans-Serif" font-size="10.00">_light.c</text>
</a>
</g>
</g>
<!-- Node1&#45;&gt;Node2 -->
<g id="edge1_Node000001_Node000002" class="edge">
<title>Node1&#45;&gt;Node2</title>
<g id="a_edge1_Node000001_Node000002"><a xlink:title=" ">
<path fill="none" stroke="#63b8ff" d="M128.91,-70.06C118.64,-61.17 106.85,-50.96 96.77,-42.24"/>
<polygon fill="#63b8ff" stroke="#63b8ff" points="126.47,-72.58 136.32,-76.48 131.05,-67.29 126.47,-72.58"/>
</a>
</g>
</g>
<!-- Node3 -->
<g id="Node000003" class="node">
<title>Node3</title>
<g id="a_Node000003"><a xlink:href="camera__create_8c.html" target="_top" xlink:title=" ">
<polygon fill="white" stroke="#666666" points="308,-41.75 164.5,-41.75 164.5,0 308,0 308,-41.75"/>
<text text-anchor="start" x="172.5" y="-28.25" font-family="Helvetica,sans-Serif" font-size="10.00">/github/workspace/SRC</text>
<text text-anchor="start" x="172.5" y="-17" font-family="Helvetica,sans-Serif" font-size="10.00">/OBJECTS/CAMERA/camera</text>
<text text-anchor="middle" x="236.25" y="-5.75" font-family="Helvetica,sans-Serif" font-size="10.00">_create.c</text>
</a>
</g>
</g>
<!-- Node1&#45;&gt;Node3 -->
<g id="edge2_Node000001_Node000003" class="edge">
<title>Node1&#45;&gt;Node3</title>
<g id="a_edge2_Node000001_Node000003"><a xlink:title=" ">
<path fill="none" stroke="#63b8ff" d="M179.9,-70.06C190.3,-61.17 202.24,-50.96 212.44,-42.24"/>
<polygon fill="#63b8ff" stroke="#63b8ff" points="177.72,-67.33 172.39,-76.49 182.27,-72.65 177.72,-67.33"/>
</a>
</g>
</g>
</g>
</svg>
