<?xml version="1.0" encoding="UTF-8" standalone="no"?>
<!DOCTYPE svg PUBLIC "-//W3C//DTD SVG 1.1//EN"
 "http://www.w3.org/Graphics/SVG/1.1/DTD/svg11.dtd">
<!-- Generated by graphviz version 9.0.0 (20230911.1827)
 -->
<!-- Title: /github/workspace/INC/objects_sphere.h Pages: 1 -->
<svg width="464pt" height="116pt"
 viewBox="0.00 0.00 463.50 116.25" xmlns="http://www.w3.org/2000/svg" xmlns:xlink="http://www.w3.org/1999/xlink">
<g id="graph0" class="graph" transform="scale(1 1) rotate(0) translate(4 112.25)">
<title>/github/workspace/INC/objects_sphere.h</title>
<!-- Node1 -->
<g id="Node000001" class="node">
<title>Node1</title>
<g id="a_Node000001"><a xlink:title=" ">
<polygon fill="#999999" stroke="#666666" points="274.5,-108.25 158.75,-108.25 158.75,-77.75 274.5,-77.75 274.5,-108.25"/>
<text text-anchor="start" x="166.75" y="-94.75" font-family="Helvetica,sans-Serif" font-size="10.00">/github/workspace/INC</text>
<text text-anchor="middle" x="216.62" y="-83.5" font-family="Helvetica,sans-Serif" font-size="10.00">/objects_sphere.h</text>
</a>
</g>
</g>
<!-- Node2 -->
<g id="Node000002" class="node">
<title>Node2</title>
<g id="a_Node000002"><a xlink:href="prepare__computations_8c.html" target="_top" xlink:title=" ">
<polygon fill="white" stroke="#666666" points="129.25,-41.75 0,-41.75 0,0 129.25,0 129.25,-41.75"/>
<text text-anchor="start" x="8" y="-28.25" font-family="Helvetica,sans-Serif" font-size="10.00">/github/workspace/SRC</text>
<text text-anchor="start" x="8" y="-17" font-family="Helvetica,sans-Serif" font-size="10.00">/BASE/HELPERS/prepare</text>
<text text-anchor="middle" x="64.62" y="-5.75" font-family="Helvetica,sans-Serif" font-size="10.00">_computations.c</text>
</a>
</g>
</g>
<!-- Node1&#45;&gt;Node2 -->
<g id="edge1_Node000001_Node000002" class="edge">
<title>Node1&#45;&gt;Node2</title>
<g id="a_edge1_Node000001_Node000002"><a xlink:title=" ">
<path fill="none" stroke="#63b8ff" d="M174.45,-72.54C153.94,-63.08 129.29,-51.71 108.55,-42.14"/>
<polygon fill="#63b8ff" stroke="#63b8ff" points="172.84,-75.65 183.39,-76.67 175.77,-69.3 172.84,-75.65"/>
</a>
</g>
</g>
<!-- Node3 -->
<g id="Node000003" class="node">
<title>Node3</title>
<g id="a_Node000003"><a xlink:href="sphere__free_8c.html" target="_top" xlink:title=" ">
<polygon fill="white" stroke="#666666" points="286.12,-41.75 147.12,-41.75 147.12,0 286.12,0 286.12,-41.75"/>
<text text-anchor="start" x="155.12" y="-28.25" font-family="Helvetica,sans-Serif" font-size="10.00">/github/workspace/SRC</text>
<text text-anchor="start" x="155.12" y="-17" font-family="Helvetica,sans-Serif" font-size="10.00">/OBJECTS/SPHERE/sphere</text>
<text text-anchor="middle" x="216.62" y="-5.75" font-family="Helvetica,sans-Serif" font-size="10.00">_free.c</text>
</a>
</g>
</g>
<!-- Node1&#45;&gt;Node3 -->
<g id="edge2_Node000001_Node000003" class="edge">
<title>Node1&#45;&gt;Node3</title>
<g id="a_edge2_Node000001_Node000003"><a xlink:title=" ">
<path fill="none" stroke="#63b8ff" d="M216.62,-66.22C216.62,-58.31 216.62,-49.73 216.62,-42.24"/>
<polygon fill="#63b8ff" stroke="#63b8ff" points="213.13,-65.96 216.63,-75.96 220.13,-65.96 213.13,-65.96"/>
</a>
</g>
</g>
<!-- Node4 -->
<g id="Node000004" class="node">
<title>Node4</title>
<g id="a_Node000004"><a xlink:href="obj__render_8c.html" target="_top" xlink:title=" ">
<polygon fill="white" stroke="#666666" points="455.5,-36.12 303.75,-36.12 303.75,-5.62 455.5,-5.62 455.5,-36.12"/>
<text text-anchor="start" x="311.75" y="-22.62" font-family="Helvetica,sans-Serif" font-size="10.00">/github/workspace/SRC</text>
<text text-anchor="middle" x="379.62" y="-11.38" font-family="Helvetica,sans-Serif" font-size="10.00">/OBJECTS/UTILS/obj_render.c</text>
</a>
</g>
</g>
<!-- Node1&#45;&gt;Node4 -->
<g id="edge3_Node000001_Node000004" class="edge">
<title>Node1&#45;&gt;Node4</title>
<g id="a_edge3_Node000001_Node000004"><a xlink:title=" ">
<path fill="none" stroke="#63b8ff" d="M261.36,-72.76C287.91,-61.33 321.06,-47.07 345.5,-36.56"/>
<polygon fill="#63b8ff" stroke="#63b8ff" points="259.99,-69.53 252.19,-76.7 262.75,-75.96 259.99,-69.53"/>
</a>
</g>
</g>
</g>
</svg>
