<?xml version="1.0" encoding="UTF-8" standalone="no"?>
<!DOCTYPE svg PUBLIC "-//W3C//DTD SVG 1.1//EN"
 "http://www.w3.org/Graphics/SVG/1.1/DTD/svg11.dtd">
<!-- Generated by graphviz version 9.0.0 (20230911.1827)
 -->
<!-- Title: /github/workspace/SRC/CORE/PARSE/parse_camera_light.c Pages: 1 -->
<svg width="538pt" height="216pt"
 viewBox="0.00 0.00 538.25 215.50" xmlns="http://www.w3.org/2000/svg" xmlns:xlink="http://www.w3.org/1999/xlink">
<g id="graph0" class="graph" transform="scale(1 1) rotate(0) translate(4 211.5)">
<title>/github/workspace/SRC/CORE/PARSE/parse_camera_light.c</title>
<!-- Node1 -->
<g id="Node000001" class="node">
<title>Node1</title>
<g id="a_Node000001"><a xlink:title=" ">
<polygon fill="#999999" stroke="#666666" points="274.88,-207.5 128.38,-207.5 128.38,-165.75 274.88,-165.75 274.88,-207.5"/>
<text text-anchor="start" x="136.38" y="-194" font-family="Helvetica,sans-Serif" font-size="10.00">/github/workspace/SRC</text>
<text text-anchor="start" x="136.38" y="-182.75" font-family="Helvetica,sans-Serif" font-size="10.00">/CORE/PARSE/parse_camera</text>
<text text-anchor="middle" x="201.62" y="-171.5" font-family="Helvetica,sans-Serif" font-size="10.00">_light.c</text>
</a>
</g>
</g>
<!-- Node2 -->
<g id="Node000002" class="node">
<title>Node2</title>
<g id="a_Node000002"><a xlink:href="core__parse_8h.html" target="_top" xlink:title=" ">
<polygon fill="white" stroke="#666666" points="287.38,-129.75 215.88,-129.75 215.88,-110.5 287.38,-110.5 287.38,-129.75"/>
<text text-anchor="middle" x="251.62" y="-116.25" font-family="Helvetica,sans-Serif" font-size="10.00">core_parse.h</text>
</a>
</g>
</g>
<!-- Node1&#45;&gt;Node2 -->
<g id="edge1_Node000001_Node000002" class="edge">
<title>Node1&#45;&gt;Node2</title>
<g id="a_edge1_Node000001_Node000002"><a xlink:title=" ">
<path fill="none" stroke="#63b8ff" d="M217.17,-165.57C223.69,-157.16 231.22,-147.45 237.57,-139.25"/>
<polygon fill="#63b8ff" stroke="#63b8ff" points="240.31,-141.44 243.67,-131.39 234.77,-137.15 240.31,-141.44"/>
</a>
</g>
</g>
<!-- Node8 -->
<g id="Node000008" class="node">
<title>Node8</title>
<g id="a_Node000008"><a xlink:href="base__matrices_8h.html" target="_top" xlink:title=" ">
<polygon fill="white" stroke="#666666" points="87.25,-129.75 0,-129.75 0,-110.5 87.25,-110.5 87.25,-129.75"/>
<text text-anchor="middle" x="43.62" y="-116.25" font-family="Helvetica,sans-Serif" font-size="10.00">base_matrices.h</text>
</a>
</g>
</g>
<!-- Node1&#45;&gt;Node8 -->
<g id="edge7_Node000001_Node000008" class="edge">
<title>Node1&#45;&gt;Node8</title>
<g id="a_edge7_Node000001_Node000008"><a xlink:title=" ">
<path fill="none" stroke="#63b8ff" d="M152.07,-165.39C127.29,-155.28 98.01,-143.33 76.12,-134.39"/>
<polygon fill="#63b8ff" stroke="#63b8ff" points="77.7,-131.26 67.12,-130.72 75.06,-137.74 77.7,-131.26"/>
</a>
</g>
</g>
<!-- Node9 -->
<g id="Node000009" class="node">
<title>Node9</title>
<g id="a_Node000009"><a xlink:href="objects__camera_8h.html" target="_top" xlink:title=" ">
<polygon fill="white" stroke="#666666" points="197.88,-129.75 105.38,-129.75 105.38,-110.5 197.88,-110.5 197.88,-129.75"/>
<text text-anchor="middle" x="151.62" y="-116.25" font-family="Helvetica,sans-Serif" font-size="10.00">objects_camera.h</text>
</a>
</g>
</g>
<!-- Node1&#45;&gt;Node9 -->
<g id="edge9_Node000001_Node000009" class="edge">
<title>Node1&#45;&gt;Node9</title>
<g id="a_edge9_Node000001_Node000009"><a xlink:title=" ">
<path fill="none" stroke="#63b8ff" d="M186.08,-165.57C179.56,-157.16 172.03,-147.45 165.68,-139.25"/>
<polygon fill="#63b8ff" stroke="#63b8ff" points="168.48,-137.15 159.58,-131.39 162.94,-141.44 168.48,-137.15"/>
</a>
</g>
</g>
<!-- Node10 -->
<g id="Node000010" class="node">
<title>Node10</title>
<g id="a_Node000010"><a xlink:href="muk__lib_8h.html" target="_top" xlink:title=" ">
<polygon fill="white" stroke="#666666" points="388.25,-129.75 331,-129.75 331,-110.5 388.25,-110.5 388.25,-129.75"/>
<text text-anchor="middle" x="359.62" y="-116.25" font-family="Helvetica,sans-Serif" font-size="10.00">muk_lib.h</text>
</a>
</g>
</g>
<!-- Node1&#45;&gt;Node10 -->
<g id="edge11_Node000001_Node000010" class="edge">
<title>Node1&#45;&gt;Node10</title>
<g id="a_edge11_Node000001_Node000010"><a xlink:title=" ">
<path fill="none" stroke="#63b8ff" d="M251.18,-165.39C275.96,-155.28 305.24,-143.33 327.13,-134.39"/>
<polygon fill="#63b8ff" stroke="#63b8ff" points="328.19,-137.74 336.13,-130.72 325.55,-131.26 328.19,-137.74"/>
</a>
</g>
</g>
<!-- Node3 -->
<g id="Node000003" class="node">
<title>Node3</title>
<g id="a_Node000003"><a xlink:href="types_8h.html" target="_top" xlink:title=" ">
<polygon fill="white" stroke="#666666" points="175,-74.5 128.25,-74.5 128.25,-55.25 175,-55.25 175,-74.5"/>
<text text-anchor="middle" x="151.62" y="-61" font-family="Helvetica,sans-Serif" font-size="10.00">types.h</text>
</a>
</g>
</g>
<!-- Node2&#45;&gt;Node3 -->
<g id="edge2_Node000002_Node000003" class="edge">
<title>Node2&#45;&gt;Node3</title>
<g id="a_edge2_Node000002_Node000003"><a xlink:title=" ">
<path fill="none" stroke="#63b8ff" d="M234.66,-110.09C219.36,-101.94 196.59,-89.82 178.76,-80.33"/>
<polygon fill="#63b8ff" stroke="#63b8ff" points="180.48,-77.27 170.01,-75.66 177.19,-83.45 180.48,-77.27"/>
</a>
</g>
</g>
<!-- Node7 -->
<g id="Node000007" class="node">
<title>Node7</title>
<g id="a_Node000007"><a xlink:title=" ">
<polygon fill="#e0e0e0" stroke="#999999" points="238.25,-74.5 193,-74.5 193,-55.25 238.25,-55.25 238.25,-74.5"/>
<text text-anchor="middle" x="215.62" y="-61" font-family="Helvetica,sans-Serif" font-size="10.00">errno.h</text>
</a>
</g>
</g>
<!-- Node2&#45;&gt;Node7 -->
<g id="edge6_Node000002_Node000007" class="edge">
<title>Node2&#45;&gt;Node7</title>
<g id="a_edge6_Node000002_Node000007"><a xlink:title=" ">
<path fill="none" stroke="#63b8ff" d="M245.68,-110.33C240.91,-103.28 234.06,-93.15 228.1,-84.33"/>
<polygon fill="#63b8ff" stroke="#63b8ff" points="231.05,-82.44 222.55,-76.11 225.25,-86.36 231.05,-82.44"/>
</a>
</g>
</g>
<!-- Node4 -->
<g id="Node000004" class="node">
<title>Node4</title>
<g id="a_Node000004"><a xlink:title=" ">
<polygon fill="#e0e0e0" stroke="#999999" points="123.12,-19.25 68.12,-19.25 68.12,0 123.12,0 123.12,-19.25"/>
<text text-anchor="middle" x="95.62" y="-5.75" font-family="Helvetica,sans-Serif" font-size="10.00">stdbool.h</text>
</a>
</g>
</g>
<!-- Node3&#45;&gt;Node4 -->
<g id="edge3_Node000003_Node000004" class="edge">
<title>Node3&#45;&gt;Node4</title>
<g id="a_edge3_Node000003_Node000004"><a xlink:title=" ">
<path fill="none" stroke="#63b8ff" d="M142.13,-54.84C134.19,-47.3 122.68,-36.35 113.09,-27.23"/>
<polygon fill="#63b8ff" stroke="#63b8ff" points="115.74,-24.92 106.08,-20.57 110.92,-29.99 115.74,-24.92"/>
</a>
</g>
</g>
<!-- Node5 -->
<g id="Node000005" class="node">
<title>Node5</title>
<g id="a_Node000005"><a xlink:title=" ">
<polygon fill="#e0e0e0" stroke="#999999" points="278,-19.25 231.25,-19.25 231.25,0 278,0 278,-19.25"/>
<text text-anchor="middle" x="254.62" y="-5.75" font-family="Helvetica,sans-Serif" font-size="10.00">stdlib.h</text>
</a>
</g>
</g>
<!-- Node3&#45;&gt;Node5 -->
<g id="edge4_Node000003_Node000005" class="edge">
<title>Node3&#45;&gt;Node5</title>
<g id="a_edge4_Node000003_Node000005"><a xlink:title=" ">
<path fill="none" stroke="#63b8ff" d="M169.1,-54.84C184.93,-46.66 208.53,-34.46 226.93,-24.94"/>
<polygon fill="#63b8ff" stroke="#63b8ff" points="228.45,-28.1 235.72,-20.4 225.23,-21.88 228.45,-28.1"/>
</a>
</g>
</g>
<!-- Node6 -->
<g id="Node000006" class="node">
<title>Node6</title>
<g id="a_Node000006"><a xlink:title=" ">
<polygon fill="#e0e0e0" stroke="#999999" points="188,-19.25 141.25,-19.25 141.25,0 188,0 188,-19.25"/>
<text text-anchor="middle" x="164.62" y="-5.75" font-family="Helvetica,sans-Serif" font-size="10.00">limits.h</text>
</a>
</g>
</g>
<!-- Node3&#45;&gt;Node6 -->
<g id="edge5_Node000003_Node000006" class="edge">
<title>Node3&#45;&gt;Node6</title>
<g id="a_edge5_Node000003_Node000006"><a xlink:title=" ">
<path fill="none" stroke="#63b8ff" d="M153.77,-55.08C155.4,-48.42 157.7,-38.99 159.77,-30.53"/>
<polygon fill="#63b8ff" stroke="#63b8ff" points="163.1,-31.62 162.07,-21.08 156.3,-29.96 163.1,-31.62"/>
</a>
</g>
</g>
<!-- Node8&#45;&gt;Node3 -->
<g id="edge8_Node000008_Node000003" class="edge">
<title>Node8&#45;&gt;Node3</title>
<g id="a_edge8_Node000008_Node000003"><a xlink:title=" ">
<path fill="none" stroke="#63b8ff" d="M61.95,-110.09C78.7,-101.83 103.76,-89.48 123.13,-79.93"/>
<polygon fill="#63b8ff" stroke="#63b8ff" points="124.44,-83.18 131.86,-75.62 121.34,-76.9 124.44,-83.18"/>
</a>
</g>
</g>
<!-- Node9&#45;&gt;Node3 -->
<g id="edge10_Node000009_Node000003" class="edge">
<title>Node9&#45;&gt;Node3</title>
<g id="a_edge10_Node000009_Node000003"><a xlink:title=" ">
<path fill="none" stroke="#63b8ff" d="M151.62,-110.33C151.62,-103.82 151.62,-94.67 151.62,-86.37"/>
<polygon fill="#63b8ff" stroke="#63b8ff" points="155.13,-86.37 151.63,-76.37 148.13,-86.37 155.13,-86.37"/>
</a>
</g>
</g>
<!-- Node10&#45;&gt;Node5 -->
<g id="edge12_Node000010_Node000005" class="edge">
<title>Node10&#45;&gt;Node5</title>
<g id="a_edge12_Node000010_Node000005"><a xlink:title=" ">
<path fill="none" stroke="#63b8ff" d="M337.89,-110.14C321.79,-102.58 300.19,-90.45 285.62,-74.5 273.93,-61.69 265.72,-43.65 260.7,-30.01"/>
<polygon fill="#63b8ff" stroke="#63b8ff" points="264.12,-29.18 257.59,-20.83 257.49,-31.43 264.12,-29.18"/>
</a>
</g>
</g>
<!-- Node11 -->
<g id="Node000011" class="node">
<title>Node11</title>
<g id="a_Node000011"><a xlink:title=" ">
<polygon fill="#e0e0e0" stroke="#999999" points="344.5,-74.5 294.75,-74.5 294.75,-55.25 344.5,-55.25 344.5,-74.5"/>
<text text-anchor="middle" x="319.62" y="-61" font-family="Helvetica,sans-Serif" font-size="10.00">unistd.h</text>
</a>
</g>
</g>
<!-- Node10&#45;&gt;Node11 -->
<g id="edge13_Node000010_Node000011" class="edge">
<title>Node10&#45;&gt;Node11</title>
<g id="a_edge13_Node000010_Node000011"><a xlink:title=" ">
<path fill="none" stroke="#63b8ff" d="M353.02,-110.33C347.67,-103.21 339.95,-92.93 333.28,-84.05"/>
<polygon fill="#63b8ff" stroke="#63b8ff" points="336.09,-81.96 327.28,-76.07 330.49,-86.17 336.09,-81.96"/>
</a>
</g>
</g>
<!-- Node12 -->
<g id="Node000012" class="node">
<title>Node12</title>
<g id="a_Node000012"><a xlink:title=" ">
<polygon fill="#e0e0e0" stroke="#999999" points="406.88,-74.5 362.38,-74.5 362.38,-55.25 406.88,-55.25 406.88,-74.5"/>
<text text-anchor="middle" x="384.62" y="-61" font-family="Helvetica,sans-Serif" font-size="10.00">stdio.h</text>
</a>
</g>
</g>
<!-- Node10&#45;&gt;Node12 -->
<g id="edge14_Node000010_Node000012" class="edge">
<title>Node10&#45;&gt;Node12</title>
<g id="a_edge14_Node000010_Node000012"><a xlink:title=" ">
<path fill="none" stroke="#63b8ff" d="M363.75,-110.33C366.95,-103.51 371.51,-93.81 375.55,-85.2"/>
<polygon fill="#63b8ff" stroke="#63b8ff" points="378.68,-86.77 379.76,-76.23 372.35,-83.79 378.68,-86.77"/>
</a>
</g>
</g>
<!-- Node13 -->
<g id="Node000013" class="node">
<title>Node13</title>
<g id="a_Node000013"><a xlink:title=" ">
<polygon fill="#e0e0e0" stroke="#999999" points="466.75,-74.5 424.5,-74.5 424.5,-55.25 466.75,-55.25 466.75,-74.5"/>
<text text-anchor="middle" x="445.62" y="-61" font-family="Helvetica,sans-Serif" font-size="10.00">fcntl.h</text>
</a>
</g>
</g>
<!-- Node10&#45;&gt;Node13 -->
<g id="edge15_Node000010_Node000013" class="edge">
<title>Node10&#45;&gt;Node13</title>
<g id="a_edge15_Node000010_Node000013"><a xlink:title=" ">
<path fill="none" stroke="#63b8ff" d="M374.21,-110.09C387.06,-102.14 406.04,-90.39 421.2,-81"/>
<polygon fill="#63b8ff" stroke="#63b8ff" points="423.02,-83.99 429.68,-75.75 419.33,-78.04 423.02,-83.99"/>
</a>
</g>
</g>
<!-- Node14 -->
<g id="Node000014" class="node">
<title>Node14</title>
<g id="a_Node000014"><a xlink:title=" ">
<polygon fill="#e0e0e0" stroke="#999999" points="530.25,-74.5 485,-74.5 485,-55.25 530.25,-55.25 530.25,-74.5"/>
<text text-anchor="middle" x="507.62" y="-61" font-family="Helvetica,sans-Serif" font-size="10.00">math.h</text>
</a>
</g>
</g>
<!-- Node10&#45;&gt;Node14 -->
<g id="edge16_Node000010_Node000014" class="edge">
<title>Node10&#45;&gt;Node14</title>
<g id="a_edge16_Node000010_Node000014"><a xlink:title=" ">
<path fill="none" stroke="#63b8ff" d="M384.73,-110.09C409.38,-101.22 447.12,-87.65 474.27,-77.88"/>
<polygon fill="#63b8ff" stroke="#63b8ff" points="475.18,-81.27 483.41,-74.59 472.81,-74.68 475.18,-81.27"/>
</a>
</g>
</g>
</g>
</svg>
