<?xml version="1.0" encoding="UTF-8" standalone="no"?>
<!DOCTYPE svg PUBLIC "-//W3C//DTD SVG 1.1//EN"
 "http://www.w3.org/Graphics/SVG/1.1/DTD/svg11.dtd">
<!-- Generated by graphviz version 9.0.0 (20230911.1827)
 -->
<!-- Title: /github/workspace/SRC/CORE/PARSE/parse_main.c Pages: 1 -->
<svg width="671pt" height="204pt"
 viewBox="0.00 0.00 671.12 204.25" xmlns="http://www.w3.org/2000/svg" xmlns:xlink="http://www.w3.org/1999/xlink">
<g id="graph0" class="graph" transform="scale(1 1) rotate(0) translate(4 200.25)">
<title>/github/workspace/SRC/CORE/PARSE/parse_main.c</title>
<!-- Node1 -->
<g id="Node000001" class="node">
<title>Node1</title>
<g id="a_Node000001"><a xlink:title=" ">
<polygon fill="#999999" stroke="#666666" points="288.75,-196.25 146,-196.25 146,-165.75 288.75,-165.75 288.75,-196.25"/>
<text text-anchor="start" x="154" y="-182.75" font-family="Helvetica,sans-Serif" font-size="10.00">/github/workspace/SRC</text>
<text text-anchor="middle" x="217.38" y="-171.5" font-family="Helvetica,sans-Serif" font-size="10.00">/CORE/PARSE/parse_main.c</text>
</a>
</g>
</g>
<!-- Node2 -->
<g id="Node000002" class="node">
<title>Node2</title>
<g id="a_Node000002"><a xlink:href="core__parse_8h.html" target="_top" xlink:title=" ">
<polygon fill="white" stroke="#666666" points="219.12,-129.75 147.62,-129.75 147.62,-110.5 219.12,-110.5 219.12,-129.75"/>
<text text-anchor="middle" x="183.38" y="-116.25" font-family="Helvetica,sans-Serif" font-size="10.00">core_parse.h</text>
</a>
</g>
</g>
<!-- Node1&#45;&gt;Node2 -->
<g id="edge1_Node000001_Node000002" class="edge">
<title>Node1&#45;&gt;Node2</title>
<g id="a_edge1_Node000001_Node000002"><a xlink:title=" ">
<path fill="none" stroke="#63b8ff" d="M208.97,-165.45C204.54,-157.78 199.05,-148.27 194.3,-140.04"/>
<polygon fill="#63b8ff" stroke="#63b8ff" points="197.41,-138.42 189.37,-131.51 191.34,-141.92 197.41,-138.42"/>
</a>
</g>
</g>
<!-- Node8 -->
<g id="Node000008" class="node">
<title>Node8</title>
<g id="a_Node000008"><a xlink:href="core__cleanup_8h.html" target="_top" xlink:title=" ">
<polygon fill="white" stroke="#666666" points="130,-129.75 48.75,-129.75 48.75,-110.5 130,-110.5 130,-129.75"/>
<text text-anchor="middle" x="89.38" y="-116.25" font-family="Helvetica,sans-Serif" font-size="10.00">core_cleanup.h</text>
</a>
</g>
</g>
<!-- Node1&#45;&gt;Node8 -->
<g id="edge7_Node000001_Node000008" class="edge">
<title>Node1&#45;&gt;Node8</title>
<g id="a_edge7_Node000001_Node000008"><a xlink:title=" ">
<path fill="none" stroke="#63b8ff" d="M185.41,-165.3C165.16,-155.98 139.16,-144.02 119.32,-134.9"/>
<polygon fill="#63b8ff" stroke="#63b8ff" points="120.93,-131.79 110.38,-130.79 118,-138.15 120.93,-131.79"/>
</a>
</g>
</g>
<!-- Node10 -->
<g id="Node000010" class="node">
<title>Node10</title>
<g id="a_Node000010"><a xlink:href="muk__lib_8h.html" target="_top" xlink:title=" ">
<polygon fill="white" stroke="#666666" points="280,-74.5 222.75,-74.5 222.75,-55.25 280,-55.25 280,-74.5"/>
<text text-anchor="middle" x="251.38" y="-61" font-family="Helvetica,sans-Serif" font-size="10.00">muk_lib.h</text>
</a>
</g>
</g>
<!-- Node1&#45;&gt;Node10 -->
<g id="edge10_Node000001_Node000010" class="edge">
<title>Node1&#45;&gt;Node10</title>
<g id="a_edge10_Node000001_Node000010"><a xlink:title=" ">
<path fill="none" stroke="#63b8ff" d="M221.68,-165.55C227.71,-145.31 238.69,-108.47 245.47,-85.69"/>
<polygon fill="#63b8ff" stroke="#63b8ff" points="248.74,-86.98 248.24,-76.4 242.03,-84.98 248.74,-86.98"/>
</a>
</g>
</g>
<!-- Node15 -->
<g id="Node000015" class="node">
<title>Node15</title>
<g id="a_Node000015"><a xlink:href="libft_8h.html" target="_top" xlink:title=" ">
<polygon fill="white" stroke="#666666" points="492,-129.75 452.75,-129.75 452.75,-110.5 492,-110.5 492,-129.75"/>
<text text-anchor="middle" x="472.38" y="-116.25" font-family="Helvetica,sans-Serif" font-size="10.00">libft.h</text>
</a>
</g>
</g>
<!-- Node1&#45;&gt;Node15 -->
<g id="edge16_Node000001_Node000015" class="edge">
<title>Node1&#45;&gt;Node15</title>
<g id="a_edge16_Node000001_Node000015"><a xlink:title=" ">
<path fill="none" stroke="#63b8ff" d="M281.06,-165.3C332.24,-153.48 401.9,-137.4 441.5,-128.25"/>
<polygon fill="#63b8ff" stroke="#63b8ff" points="442.11,-131.71 451.06,-126.05 440.53,-124.89 442.11,-131.71"/>
</a>
</g>
</g>
<!-- Node3 -->
<g id="Node000003" class="node">
<title>Node3</title>
<g id="a_Node000003"><a xlink:href="types_8h.html" target="_top" xlink:title=" ">
<polygon fill="white" stroke="#666666" points="141.75,-74.5 95,-74.5 95,-55.25 141.75,-55.25 141.75,-74.5"/>
<text text-anchor="middle" x="118.38" y="-61" font-family="Helvetica,sans-Serif" font-size="10.00">types.h</text>
</a>
</g>
</g>
<!-- Node2&#45;&gt;Node3 -->
<g id="edge2_Node000002_Node000003" class="edge">
<title>Node2&#45;&gt;Node3</title>
<g id="a_edge2_Node000002_Node000003"><a xlink:title=" ">
<path fill="none" stroke="#63b8ff" d="M172.35,-110.09C162.95,-102.4 149.23,-91.15 137.97,-81.93"/>
<polygon fill="#63b8ff" stroke="#63b8ff" points="140.36,-79.36 130.41,-75.73 135.93,-84.78 140.36,-79.36"/>
</a>
</g>
</g>
<!-- Node7 -->
<g id="Node000007" class="node">
<title>Node7</title>
<g id="a_Node000007"><a xlink:title=" ">
<polygon fill="#e0e0e0" stroke="#999999" points="205,-74.5 159.75,-74.5 159.75,-55.25 205,-55.25 205,-74.5"/>
<text text-anchor="middle" x="182.38" y="-61" font-family="Helvetica,sans-Serif" font-size="10.00">errno.h</text>
</a>
</g>
</g>
<!-- Node2&#45;&gt;Node7 -->
<g id="edge6_Node000002_Node000007" class="edge">
<title>Node2&#45;&gt;Node7</title>
<g id="a_edge6_Node000002_Node000007"><a xlink:title=" ">
<path fill="none" stroke="#63b8ff" d="M183.21,-110.33C183.09,-103.82 182.92,-94.67 182.76,-86.37"/>
<polygon fill="#63b8ff" stroke="#63b8ff" points="186.26,-86.3 182.57,-76.37 179.26,-86.44 186.26,-86.3"/>
</a>
</g>
</g>
<!-- Node4 -->
<g id="Node000004" class="node">
<title>Node4</title>
<g id="a_Node000004"><a xlink:title=" ">
<polygon fill="#e0e0e0" stroke="#999999" points="76.88,-19.25 21.88,-19.25 21.88,0 76.88,0 76.88,-19.25"/>
<text text-anchor="middle" x="49.38" y="-5.75" font-family="Helvetica,sans-Serif" font-size="10.00">stdbool.h</text>
</a>
</g>
</g>
<!-- Node3&#45;&gt;Node4 -->
<g id="edge3_Node000003_Node000004" class="edge">
<title>Node3&#45;&gt;Node4</title>
<g id="a_edge3_Node000003_Node000004"><a xlink:title=" ">
<path fill="none" stroke="#63b8ff" d="M106.67,-54.84C96.6,-47.07 81.83,-35.67 69.81,-26.4"/>
<polygon fill="#63b8ff" stroke="#63b8ff" points="72.16,-23.79 62.11,-20.45 67.88,-29.33 72.16,-23.79"/>
</a>
</g>
</g>
<!-- Node5 -->
<g id="Node000005" class="node">
<title>Node5</title>
<g id="a_Node000005"><a xlink:title=" ">
<polygon fill="#e0e0e0" stroke="#999999" points="332.75,-19.25 286,-19.25 286,0 332.75,0 332.75,-19.25"/>
<text text-anchor="middle" x="309.38" y="-5.75" font-family="Helvetica,sans-Serif" font-size="10.00">stdlib.h</text>
</a>
</g>
</g>
<!-- Node3&#45;&gt;Node5 -->
<g id="edge4_Node000003_Node000005" class="edge">
<title>Node3&#45;&gt;Node5</title>
<g id="a_edge4_Node000003_Node000005"><a xlink:title=" ">
<path fill="none" stroke="#63b8ff" d="M142.18,-57.24C175.58,-47.93 236.56,-30.92 274.92,-20.23"/>
<polygon fill="#63b8ff" stroke="#63b8ff" points="275.42,-23.72 284.11,-17.67 273.54,-16.98 275.42,-23.72"/>
</a>
</g>
</g>
<!-- Node6 -->
<g id="Node000006" class="node">
<title>Node6</title>
<g id="a_Node000006"><a xlink:title=" ">
<polygon fill="#e0e0e0" stroke="#999999" points="141.75,-19.25 95,-19.25 95,0 141.75,0 141.75,-19.25"/>
<text text-anchor="middle" x="118.38" y="-5.75" font-family="Helvetica,sans-Serif" font-size="10.00">limits.h</text>
</a>
</g>
</g>
<!-- Node3&#45;&gt;Node6 -->
<g id="edge5_Node000003_Node000006" class="edge">
<title>Node3&#45;&gt;Node6</title>
<g id="a_edge5_Node000003_Node000006"><a xlink:title=" ">
<path fill="none" stroke="#63b8ff" d="M118.38,-55.08C118.38,-48.57 118.38,-39.42 118.38,-31.12"/>
<polygon fill="#63b8ff" stroke="#63b8ff" points="121.88,-31.12 118.38,-21.12 114.88,-31.12 121.88,-31.12"/>
</a>
</g>
</g>
<!-- Node8&#45;&gt;Node3 -->
<g id="edge9_Node000008_Node000003" class="edge">
<title>Node8&#45;&gt;Node3</title>
<g id="a_edge9_Node000008_Node000003"><a xlink:title=" ">
<path fill="none" stroke="#63b8ff" d="M94.16,-110.33C97.92,-103.44 103.28,-93.59 108.01,-84.91"/>
<polygon fill="#63b8ff" stroke="#63b8ff" points="111.05,-86.64 112.76,-76.19 104.9,-83.3 111.05,-86.64"/>
</a>
</g>
</g>
<!-- Node9 -->
<g id="Node000009" class="node">
<title>Node9</title>
<g id="a_Node000009"><a xlink:title=" ">
<polygon fill="#e0e0e0" stroke="#999999" points="76.75,-74.5 0,-74.5 0,-55.25 76.75,-55.25 76.75,-74.5"/>
<text text-anchor="middle" x="38.38" y="-61" font-family="Helvetica,sans-Serif" font-size="10.00">X11/keysym.h</text>
</a>
</g>
</g>
<!-- Node8&#45;&gt;Node9 -->
<g id="edge8_Node000008_Node000009" class="edge">
<title>Node8&#45;&gt;Node9</title>
<g id="a_edge8_Node000008_Node000009"><a xlink:title=" ">
<path fill="none" stroke="#63b8ff" d="M80.95,-110.33C73.84,-102.9 63.43,-92.04 54.69,-82.91"/>
<polygon fill="#63b8ff" stroke="#63b8ff" points="57.47,-80.75 48.03,-75.95 52.42,-85.6 57.47,-80.75"/>
</a>
</g>
</g>
<!-- Node10&#45;&gt;Node5 -->
<g id="edge11_Node000010_Node000005" class="edge">
<title>Node10&#45;&gt;Node5</title>
<g id="a_edge11_Node000010_Node000005"><a xlink:title=" ">
<path fill="none" stroke="#63b8ff" d="M261.21,-54.84C269.43,-47.3 281.36,-36.35 291.29,-27.23"/>
<polygon fill="#63b8ff" stroke="#63b8ff" points="293.57,-29.89 298.57,-20.55 288.83,-24.73 293.57,-29.89"/>
</a>
</g>
</g>
<!-- Node11 -->
<g id="Node000011" class="node">
<title>Node11</title>
<g id="a_Node000011"><a xlink:title=" ">
<polygon fill="#e0e0e0" stroke="#999999" points="461.25,-19.25 411.5,-19.25 411.5,0 461.25,0 461.25,-19.25"/>
<text text-anchor="middle" x="436.38" y="-5.75" font-family="Helvetica,sans-Serif" font-size="10.00">unistd.h</text>
</a>
</g>
</g>
<!-- Node10&#45;&gt;Node11 -->
<g id="edge12_Node000010_Node000011" class="edge">
<title>Node10&#45;&gt;Node11</title>
<g id="a_edge12_Node000010_Node000011"><a xlink:title=" ">
<path fill="none" stroke="#63b8ff" d="M280.28,-55.55C312.74,-46.21 365.46,-31.04 400.52,-20.95"/>
<polygon fill="#63b8ff" stroke="#63b8ff" points="401.14,-24.41 409.78,-18.28 399.2,-17.68 401.14,-24.41"/>
</a>
</g>
</g>
<!-- Node12 -->
<g id="Node000012" class="node">
<title>Node12</title>
<g id="a_Node000012"><a xlink:title=" ">
<polygon fill="#e0e0e0" stroke="#999999" points="204.62,-19.25 160.12,-19.25 160.12,0 204.62,0 204.62,-19.25"/>
<text text-anchor="middle" x="182.38" y="-5.75" font-family="Helvetica,sans-Serif" font-size="10.00">stdio.h</text>
</a>
</g>
</g>
<!-- Node10&#45;&gt;Node12 -->
<g id="edge13_Node000010_Node000012" class="edge">
<title>Node10&#45;&gt;Node12</title>
<g id="a_edge13_Node000010_Node000012"><a xlink:title=" ">
<path fill="none" stroke="#63b8ff" d="M239.67,-54.84C229.6,-47.07 214.83,-35.67 202.81,-26.4"/>
<polygon fill="#63b8ff" stroke="#63b8ff" points="205.16,-23.79 195.11,-20.45 200.88,-29.33 205.16,-23.79"/>
</a>
</g>
</g>
<!-- Node13 -->
<g id="Node000013" class="node">
<title>Node13</title>
<g id="a_Node000013"><a xlink:title=" ">
<polygon fill="#e0e0e0" stroke="#999999" points="393.5,-19.25 351.25,-19.25 351.25,0 393.5,0 393.5,-19.25"/>
<text text-anchor="middle" x="372.38" y="-5.75" font-family="Helvetica,sans-Serif" font-size="10.00">fcntl.h</text>
</a>
</g>
</g>
<!-- Node10&#45;&gt;Node13 -->
<g id="edge14_Node000010_Node000013" class="edge">
<title>Node10&#45;&gt;Node13</title>
<g id="a_edge14_Node000010_Node000013"><a xlink:title=" ">
<path fill="none" stroke="#63b8ff" d="M271.9,-54.84C290.94,-46.47 319.53,-33.88 341.35,-24.28"/>
<polygon fill="#63b8ff" stroke="#63b8ff" points="342.62,-27.54 350.36,-20.31 339.8,-21.14 342.62,-27.54"/>
</a>
</g>
</g>
<!-- Node14 -->
<g id="Node000014" class="node">
<title>Node14</title>
<g id="a_Node000014"><a xlink:title=" ">
<polygon fill="#e0e0e0" stroke="#999999" points="268,-19.25 222.75,-19.25 222.75,0 268,0 268,-19.25"/>
<text text-anchor="middle" x="245.38" y="-5.75" font-family="Helvetica,sans-Serif" font-size="10.00">math.h</text>
</a>
</g>
</g>
<!-- Node10&#45;&gt;Node14 -->
<g id="edge15_Node000010_Node000014" class="edge">
<title>Node10&#45;&gt;Node14</title>
<g id="a_edge15_Node000010_Node000014"><a xlink:title=" ">
<path fill="none" stroke="#63b8ff" d="M250.38,-55.08C249.64,-48.49 248.6,-39.21 247.65,-30.82"/>
<polygon fill="#63b8ff" stroke="#63b8ff" points="251.15,-30.66 246.56,-21.11 244.2,-31.44 251.15,-30.66"/>
</a>
</g>
</g>
<!-- Node15&#45;&gt;Node5 -->
<g id="edge17_Node000015_Node000005" class="edge">
<title>Node15&#45;&gt;Node5</title>
<g id="a_edge17_Node000015_Node000005"><a xlink:title=" ">
<path fill="none" stroke="#63b8ff" d="M452.45,-118.75C421.33,-117.06 361.23,-109.18 327.38,-74.5 316.04,-62.89 311.73,-44.71 310.14,-30.71"/>
<polygon fill="#63b8ff" stroke="#63b8ff" points="313.64,-30.58 309.44,-20.85 306.66,-31.07 313.64,-30.58"/>
</a>
</g>
</g>
<!-- Node15&#45;&gt;Node11 -->
<g id="edge18_Node000015_Node000011" class="edge">
<title>Node15&#45;&gt;Node11</title>
<g id="a_edge18_Node000015_Node000011"><a xlink:title=" ">
<path fill="none" stroke="#63b8ff" d="M469.43,-110.25C463.68,-92.92 450.84,-54.23 442.97,-30.49"/>
<polygon fill="#63b8ff" stroke="#63b8ff" points="446.31,-29.45 439.84,-21.06 439.67,-31.66 446.31,-29.45"/>
</a>
</g>
</g>
<!-- Node16 -->
<g id="Node000016" class="node">
<title>Node16</title>
<g id="a_Node000016"><a xlink:title=" ">
<polygon fill="#e0e0e0" stroke="#999999" points="597.62,-74.5 547.12,-74.5 547.12,-55.25 597.62,-55.25 597.62,-74.5"/>
<text text-anchor="middle" x="572.38" y="-61" font-family="Helvetica,sans-Serif" font-size="10.00">stddef.h</text>
</a>
</g>
</g>
<!-- Node15&#45;&gt;Node16 -->
<g id="edge19_Node000015_Node000016" class="edge">
<title>Node15&#45;&gt;Node16</title>
<g id="a_edge19_Node000015_Node000016"><a xlink:title=" ">
<path fill="none" stroke="#63b8ff" d="M489.34,-110.09C504.64,-101.94 527.41,-89.82 545.24,-80.33"/>
<polygon fill="#63b8ff" stroke="#63b8ff" points="546.81,-83.45 553.99,-75.66 543.52,-77.27 546.81,-83.45"/>
</a>
</g>
</g>
<!-- Node17 -->
<g id="Node000017" class="node">
<title>Node17</title>
<g id="a_Node000017"><a xlink:title=" ">
<polygon fill="#e0e0e0" stroke="#999999" points="663.12,-74.5 615.62,-74.5 615.62,-55.25 663.12,-55.25 663.12,-74.5"/>
<text text-anchor="middle" x="639.38" y="-61" font-family="Helvetica,sans-Serif" font-size="10.00">stdint.h</text>
</a>
</g>
</g>
<!-- Node15&#45;&gt;Node17 -->
<g id="edge20_Node000015_Node000017" class="edge">
<title>Node15&#45;&gt;Node17</title>
<g id="a_edge20_Node000015_Node000017"><a xlink:title=" ">
<path fill="none" stroke="#63b8ff" d="M492.19,-112.81C519.82,-104 570.37,-87.88 604.42,-77.02"/>
<polygon fill="#63b8ff" stroke="#63b8ff" points="605.37,-80.39 613.83,-74.02 603.24,-73.72 605.37,-80.39"/>
</a>
</g>
</g>
<!-- Node18 -->
<g id="Node000018" class="node">
<title>Node18</title>
<g id="a_Node000018"><a xlink:href="get__next__line_8h.html" target="_top" xlink:title=" ">
<polygon fill="white" stroke="#666666" points="416.62,-74.5 336.12,-74.5 336.12,-55.25 416.62,-55.25 416.62,-74.5"/>
<text text-anchor="middle" x="376.38" y="-61" font-family="Helvetica,sans-Serif" font-size="10.00">get_next_line.h</text>
</a>
</g>
</g>
<!-- Node15&#45;&gt;Node18 -->
<g id="edge21_Node000015_Node000018" class="edge">
<title>Node15&#45;&gt;Node18</title>
<g id="a_edge21_Node000015_Node000018"><a xlink:title=" ">
<path fill="none" stroke="#63b8ff" d="M456.09,-110.09C441.47,-101.98 419.75,-89.93 402.67,-80.46"/>
<polygon fill="#63b8ff" stroke="#63b8ff" points="404.51,-77.48 394.06,-75.69 401.11,-83.6 404.51,-77.48"/>
</a>
</g>
</g>
<!-- Node19 -->
<g id="Node000019" class="node">
<title>Node19</title>
<g id="a_Node000019"><a xlink:href="ft__printf_8h.html" target="_top" xlink:title=" ">
<polygon fill="white" stroke="#666666" points="528.62,-74.5 472.12,-74.5 472.12,-55.25 528.62,-55.25 528.62,-74.5"/>
<text text-anchor="middle" x="500.38" y="-61" font-family="Helvetica,sans-Serif" font-size="10.00">ft_printf.h</text>
</a>
</g>
</g>
<!-- Node15&#45;&gt;Node19 -->
<g id="edge25_Node000015_Node000019" class="edge">
<title>Node15&#45;&gt;Node19</title>
<g id="a_edge25_Node000015_Node000019"><a xlink:title=" ">
<path fill="none" stroke="#63b8ff" d="M471.83,-110.33C474.03,-103.28 478.93,-93.15 484.21,-84.33"/>
<polygon fill="#63b8ff" stroke="#63b8ff" points="487.04,-86.4 489.61,-76.12 481.19,-82.55 487.04,-86.4"/>
</a>
</g>
</g>
<!-- Node18&#45;&gt;Node5 -->
<g id="edge22_Node000018_Node000005" class="edge">
<title>Node18&#45;&gt;Node5</title>
<g id="a_edge22_Node000018_Node000005"><a xlink:title=" ">
<path fill="none" stroke="#63b8ff" d="M365.01,-54.84C355.33,-47.15 341.18,-35.9 329.57,-26.68"/>
<polygon fill="#63b8ff" stroke="#63b8ff" points="331.76,-23.95 321.76,-20.47 327.41,-29.43 331.76,-23.95"/>
</a>
</g>
</g>
<!-- Node18&#45;&gt;Node11 -->
<g id="edge24_Node000018_Node000011" class="edge">
<title>Node18&#45;&gt;Node11</title>
<g id="a_edge24_Node000018_Node000011"><a xlink:title=" ">
<path fill="none" stroke="#63b8ff" d="M386.55,-54.84C395.14,-47.22 407.64,-36.12 417.98,-26.95"/>
<polygon fill="#63b8ff" stroke="#63b8ff" points="420.06,-29.79 425.22,-20.53 415.41,-24.55 420.06,-29.79"/>
</a>
</g>
</g>
<!-- Node18&#45;&gt;Node13 -->
<g id="edge23_Node000018_Node000013" class="edge">
<title>Node18&#45;&gt;Node13</title>
<g id="a_edge23_Node000018_Node000013"><a xlink:title=" ">
<path fill="none" stroke="#63b8ff" d="M375.71,-55.08C375.22,-48.49 374.52,-39.21 373.89,-30.82"/>
<polygon fill="#63b8ff" stroke="#63b8ff" points="377.4,-30.83 373.16,-21.12 370.42,-31.35 377.4,-30.83"/>
</a>
</g>
</g>
<!-- Node19&#45;&gt;Node11 -->
<g id="edge27_Node000019_Node000011" class="edge">
<title>Node19&#45;&gt;Node11</title>
<g id="a_edge27_Node000019_Node000011"><a xlink:title=" ">
<path fill="none" stroke="#63b8ff" d="M489.52,-54.84C480.27,-47.15 466.75,-35.9 455.67,-26.68"/>
<polygon fill="#63b8ff" stroke="#63b8ff" points="458.16,-24.2 448.23,-20.49 453.68,-29.58 458.16,-24.2"/>
</a>
</g>
</g>
<!-- Node19&#45;&gt;Node15 -->
<g id="edge28_Node000019_Node000015" class="edge">
<title>Node19&#45;&gt;Node15</title>
<g id="a_edge28_Node000019_Node000015"><a xlink:title=" ">
<path fill="none" stroke="#63b8ff" d="M500.86,-74.86C498.61,-81.96 493.68,-92.11 488.4,-100.9"/>
<polygon fill="#63b8ff" stroke="#63b8ff" points="485.59,-98.8 483,-109.07 491.43,-102.66 485.59,-98.8"/>
</a>
</g>
</g>
<!-- Node20 -->
<g id="Node000020" class="node">
<title>Node20</title>
<g id="a_Node000020"><a xlink:title=" ">
<polygon fill="#e0e0e0" stroke="#999999" points="529.62,-19.25 479.12,-19.25 479.12,0 529.62,0 529.62,-19.25"/>
<text text-anchor="middle" x="504.38" y="-5.75" font-family="Helvetica,sans-Serif" font-size="10.00">stdarg.h</text>
</a>
</g>
</g>
<!-- Node19&#45;&gt;Node20 -->
<g id="edge26_Node000019_Node000020" class="edge">
<title>Node19&#45;&gt;Node20</title>
<g id="a_edge26_Node000019_Node000020"><a xlink:title=" ">
<path fill="none" stroke="#63b8ff" d="M501.04,-55.08C501.53,-48.49 502.23,-39.21 502.86,-30.82"/>
<polygon fill="#63b8ff" stroke="#63b8ff" points="506.33,-31.35 503.59,-21.12 499.35,-30.83 506.33,-31.35"/>
</a>
</g>
</g>
</g>
</svg>
