<?xml version="1.0" encoding="UTF-8" standalone="no"?>
<!DOCTYPE svg PUBLIC "-//W3C//DTD SVG 1.1//EN"
 "http://www.w3.org/Graphics/SVG/1.1/DTD/svg11.dtd">
<!-- Generated by graphviz version 9.0.0 (20230911.1827)
 -->
<!-- Title: parse_check_length Pages: 1 -->
<svg width="945pt" height="411pt"
 viewBox="0.00 0.00 944.50 411.01" xmlns="http://www.w3.org/2000/svg" xmlns:xlink="http://www.w3.org/1999/xlink">
<g id="graph0" class="graph" transform="scale(1 1) rotate(0) translate(4 407.01)">
<title>parse_check_length</title>
<!-- Node1 -->
<g id="Node000001" class="node">
<title>Node1</title>
<g id="a_Node000001"><a xlink:title=" ">
<polygon fill="#999999" stroke="#666666" points="936.5,-205.01 833.5,-205.01 833.5,-185.76 936.5,-185.76 936.5,-205.01"/>
<text text-anchor="middle" x="885" y="-191.51" font-family="Helvetica,sans-Serif" font-size="10.00">parse_check_length</text>
</a>
</g>
</g>
<!-- Node2 -->
<g id="Node000002" class="node">
<title>Node2</title>
<g id="a_Node000002"><a xlink:href="parse__utils_8c.html#aa353b138267370a075b03b29a2306573" target="_top" xlink:title=" ">
<polygon fill="white" stroke="#666666" points="657,-316.01 561.5,-316.01 561.5,-296.76 657,-296.76 657,-316.01"/>
<text text-anchor="middle" x="609.25" y="-302.51" font-family="Helvetica,sans-Serif" font-size="10.00">parse_assign_trgb</text>
</a>
</g>
</g>
<!-- Node1&#45;&gt;Node2 -->
<g id="edge1_Node000001_Node000002" class="edge">
<title>Node1&#45;&gt;Node2</title>
<g id="a_edge1_Node000001_Node000002"><a xlink:title=" ">
<path fill="none" stroke="#63b8ff" d="M872.03,-215.15C857.45,-237.23 830.63,-272.02 797.5,-288.38 753.58,-310.07 696.84,-312.53 657.38,-310.84"/>
<polygon fill="#63b8ff" stroke="#63b8ff" points="874.96,-217.06 877.36,-206.74 869.05,-213.31 874.96,-217.06"/>
</a>
</g>
</g>
<!-- Node11 -->
<g id="Node000011" class="node">
<title>Node11</title>
<g id="a_Node000011"><a xlink:href="parse__utils_8c.html#a70a5145ad572a59954c71984bf73ca01" target="_top" xlink:title=" ">
<polygon fill="white" stroke="#666666" points="656.62,-131.01 561.88,-131.01 561.88,-111.76 656.62,-111.76 656.62,-131.01"/>
<text text-anchor="middle" x="609.25" y="-117.51" font-family="Helvetica,sans-Serif" font-size="10.00">parse_assign_vec</text>
</a>
</g>
</g>
<!-- Node1&#45;&gt;Node11 -->
<g id="edge13_Node000001_Node000011" class="edge">
<title>Node1&#45;&gt;Node11</title>
<g id="a_edge13_Node000001_Node000011"><a xlink:title=" ">
<path fill="none" stroke="#63b8ff" d="M881.08,-174.44C874.37,-135.27 853.83,-51.73 797.5,-16.38 759.57,7.42 737.25,2.72 696.75,-16.38 654.03,-36.54 625.26,-89.29 614.72,-111.4"/>
<polygon fill="#63b8ff" stroke="#63b8ff" points="877.6,-174.84 882.6,-184.18 884.52,-173.76 877.6,-174.84"/>
</a>
</g>
</g>
<!-- Node13 -->
<g id="Node000013" class="node">
<title>Node13</title>
<g id="a_Node000013"><a xlink:href="parse__validate__assign__rgb__utils_8c.html#ab71c9a28c124cbbec7afa314c3595d68" target="_top" xlink:title=" ">
<polygon fill="white" stroke="#666666" points="797.5,-403.01 696.75,-403.01 696.75,-383.76 797.5,-383.76 797.5,-403.01"/>
<text text-anchor="middle" x="747.12" y="-389.51" font-family="Helvetica,sans-Serif" font-size="10.00">parse_transparency</text>
</a>
</g>
</g>
<!-- Node1&#45;&gt;Node13 -->
<g id="edge18_Node000001_Node000013" class="edge">
<title>Node1&#45;&gt;Node13</title>
<g id="a_edge18_Node000001_Node000013"><a xlink:title=" ">
<path fill="none" stroke="#63b8ff" d="M879.27,-216.34C869.92,-253.23 845.64,-330.07 797.5,-374.38 793.58,-377.99 788.9,-380.94 784.01,-383.34"/>
<polygon fill="#63b8ff" stroke="#63b8ff" points="882.6,-217.47 881.53,-206.93 875.79,-215.84 882.6,-217.47"/>
</a>
</g>
</g>
<!-- Node14 -->
<g id="Node000014" class="node">
<title>Node14</title>
<g id="a_Node000014"><a xlink:href="parse__utils_8c.html#a3a792671ccd6560d6c42352319889a0c" target="_top" xlink:title=" ">
<polygon fill="white" stroke="#666666" points="657.75,-205.01 560.75,-205.01 560.75,-185.76 657.75,-185.76 657.75,-205.01"/>
<text text-anchor="middle" x="609.25" y="-191.51" font-family="Helvetica,sans-Serif" font-size="10.00">parse_validate_obj</text>
</a>
</g>
</g>
<!-- Node1&#45;&gt;Node14 -->
<g id="edge20_Node000001_Node000014" class="edge">
<title>Node1&#45;&gt;Node14</title>
<g id="a_edge20_Node000001_Node000014"><a xlink:title=" ">
<path fill="none" stroke="#63b8ff" d="M872.71,-175.7C858.48,-153.11 831.71,-117.28 797.5,-102.38 756.45,-84.5 734.65,-78.53 696.75,-102.38 665.46,-122.07 688.23,-152.65 660.75,-177.38 657.22,-180.56 653.09,-183.18 648.75,-185.35"/>
<polygon fill="#63b8ff" stroke="#63b8ff" points="869.56,-177.25 877.72,-184 875.55,-173.63 869.56,-177.25"/>
</a>
</g>
</g>
<!-- Node16 -->
<g id="Node000016" class="node">
<title>Node16</title>
<g id="a_Node000016"><a xlink:href="parse__validate__assign__rgb__utils_8c.html#a38dd4510ea4653d36b16185526f288ab" target="_top" xlink:title=" ">
<polygon fill="white" stroke="#666666" points="794.12,-365.63 700.12,-365.63 700.12,-335.13 794.12,-335.13 794.12,-365.63"/>
<text text-anchor="start" x="708.12" y="-352.13" font-family="Helvetica,sans-Serif" font-size="10.00">split_and_validate</text>
<text text-anchor="middle" x="747.12" y="-340.88" font-family="Helvetica,sans-Serif" font-size="10.00">_components</text>
</a>
</g>
</g>
<!-- Node1&#45;&gt;Node16 -->
<g id="edge28_Node000001_Node000016" class="edge">
<title>Node1&#45;&gt;Node16</title>
<g id="a_edge28_Node000001_Node000016"><a xlink:title=" ">
<path fill="none" stroke="#63b8ff" d="M873.92,-215.34C859.7,-242 831.64,-289.57 797.5,-321.38 792.19,-326.33 785.89,-330.81 779.61,-334.7"/>
<polygon fill="#63b8ff" stroke="#63b8ff" points="876.93,-217.13 878.44,-206.64 870.72,-213.89 876.93,-217.13"/>
</a>
</g>
</g>
<!-- Node17 -->
<g id="Node000017" class="node">
<title>Node17</title>
<g id="a_Node000017"><a xlink:href="parse__validate__obj__utils_8c.html#afc0fb046c4f491b01a17dc19ff7e07ac" target="_top" xlink:title=" ">
<polygon fill="white" stroke="#666666" points="791.88,-279.01 702.38,-279.01 702.38,-259.76 791.88,-259.76 791.88,-279.01"/>
<text text-anchor="middle" x="747.12" y="-265.51" font-family="Helvetica,sans-Serif" font-size="10.00">validate_ambient</text>
</a>
</g>
</g>
<!-- Node1&#45;&gt;Node17 -->
<g id="edge30_Node000001_Node000017" class="edge">
<title>Node1&#45;&gt;Node17</title>
<g id="a_edge30_Node000001_Node000017"><a xlink:title=" ">
<path fill="none" stroke="#63b8ff" d="M861.38,-212.04C844.4,-224.04 820.26,-240.05 797.5,-251.38 791.7,-254.27 785.32,-256.94 779.13,-259.29"/>
<polygon fill="#63b8ff" stroke="#63b8ff" points="863.18,-215.06 869.26,-206.39 859.1,-209.38 863.18,-215.06"/>
</a>
</g>
</g>
<!-- Node18 -->
<g id="Node000018" class="node">
<title>Node18</title>
<g id="a_Node000018"><a xlink:href="parse__validate__obj__utils_8c.html#addac7b2e5dfd2ee9efe59f688946f39b" target="_top" xlink:title=" ">
<polygon fill="white" stroke="#666666" points="790.75,-242.01 703.5,-242.01 703.5,-222.76 790.75,-222.76 790.75,-242.01"/>
<text text-anchor="middle" x="747.12" y="-228.51" font-family="Helvetica,sans-Serif" font-size="10.00">validate_camera</text>
</a>
</g>
</g>
<!-- Node1&#45;&gt;Node18 -->
<g id="edge32_Node000001_Node000018" class="edge">
<title>Node1&#45;&gt;Node18</title>
<g id="a_edge32_Node000001_Node000018"><a xlink:title=" ">
<path fill="none" stroke="#63b8ff" d="M836.18,-208.4C819.45,-212.96 800.93,-218 785.21,-222.28"/>
<polygon fill="#63b8ff" stroke="#63b8ff" points="836.68,-211.9 845.41,-205.89 834.84,-205.14 836.68,-211.9"/>
</a>
</g>
</g>
<!-- Node19 -->
<g id="Node000019" class="node">
<title>Node19</title>
<g id="a_Node000019"><a xlink:href="parse__assign__coord__utils_8c.html#a0f249ab97644690110e43ae95f50fec8" target="_top" xlink:title=" ">
<polygon fill="white" stroke="#666666" points="797.12,-55.63 697.12,-55.63 697.12,-25.13 797.12,-25.13 797.12,-55.63"/>
<text text-anchor="start" x="705.12" y="-42.13" font-family="Helvetica,sans-Serif" font-size="10.00">validate_coordinate</text>
<text text-anchor="middle" x="747.12" y="-30.88" font-family="Helvetica,sans-Serif" font-size="10.00">_values</text>
</a>
</g>
</g>
<!-- Node1&#45;&gt;Node19 -->
<g id="edge34_Node000001_Node000019" class="edge">
<title>Node1&#45;&gt;Node19</title>
<g id="a_edge34_Node000001_Node000019"><a xlink:title=" ">
<path fill="none" stroke="#63b8ff" d="M873.92,-175.43C859.7,-148.77 831.64,-101.2 797.5,-69.38 792.19,-64.44 785.89,-59.95 779.61,-56.07"/>
<polygon fill="#63b8ff" stroke="#63b8ff" points="870.72,-176.87 878.44,-184.13 876.93,-173.64 870.72,-176.87"/>
</a>
</g>
</g>
<!-- Node21 -->
<g id="Node000021" class="node">
<title>Node21</title>
<g id="a_Node000021"><a xlink:href="parse__validate__obj__utils_8c.html#a578190cd0dc27381815b6d4d98c65168" target="_top" xlink:title=" ">
<polygon fill="white" stroke="#666666" points="791.12,-205.01 703.12,-205.01 703.12,-185.76 791.12,-185.76 791.12,-205.01"/>
<text text-anchor="middle" x="747.12" y="-191.51" font-family="Helvetica,sans-Serif" font-size="10.00">validate_cylinder</text>
</a>
</g>
</g>
<!-- Node1&#45;&gt;Node21 -->
<g id="edge40_Node000001_Node000021" class="edge">
<title>Node1&#45;&gt;Node21</title>
<g id="a_edge40_Node000001_Node000021"><a xlink:title=" ">
<path fill="none" stroke="#63b8ff" d="M821.61,-195.38C811.39,-195.38 801,-195.38 791.38,-195.38"/>
<polygon fill="#63b8ff" stroke="#63b8ff" points="821.51,-198.88 831.51,-195.38 821.51,-191.88 821.51,-198.88"/>
</a>
</g>
</g>
<!-- Node22 -->
<g id="Node000022" class="node">
<title>Node22</title>
<g id="a_Node000022"><a xlink:href="parse__validate__obj__utils_8c.html#a75294ff609499aa907ba8c285855f720" target="_top" xlink:title=" ">
<polygon fill="white" stroke="#666666" points="783.62,-168.01 710.62,-168.01 710.62,-148.76 783.62,-148.76 783.62,-168.01"/>
<text text-anchor="middle" x="747.12" y="-154.51" font-family="Helvetica,sans-Serif" font-size="10.00">validate_light</text>
</a>
</g>
</g>
<!-- Node1&#45;&gt;Node22 -->
<g id="edge42_Node000001_Node000022" class="edge">
<title>Node1&#45;&gt;Node22</title>
<g id="a_edge42_Node000001_Node000022"><a xlink:title=" ">
<path fill="none" stroke="#63b8ff" d="M835.91,-182.29C818.75,-177.61 799.73,-172.44 783.8,-168.1"/>
<polygon fill="#63b8ff" stroke="#63b8ff" points="834.84,-185.62 845.41,-184.87 836.68,-178.87 834.84,-185.62"/>
</a>
</g>
</g>
<!-- Node23 -->
<g id="Node000023" class="node">
<title>Node23</title>
<g id="a_Node000023"><a xlink:href="parse__validate__obj__utils_8c.html#ad58bbd3ad3f3f914989f3c0bc27cff8e" target="_top" xlink:title=" ">
<polygon fill="white" stroke="#666666" points="789.25,-131.01 705,-131.01 705,-111.76 789.25,-111.76 789.25,-131.01"/>
<text text-anchor="middle" x="747.12" y="-117.51" font-family="Helvetica,sans-Serif" font-size="10.00">validate_sphere</text>
</a>
</g>
</g>
<!-- Node1&#45;&gt;Node23 -->
<g id="edge44_Node000001_Node000023" class="edge">
<title>Node1&#45;&gt;Node23</title>
<g id="a_edge44_Node000001_Node000023"><a xlink:title=" ">
<path fill="none" stroke="#63b8ff" d="M861.38,-178.72C844.4,-166.72 820.26,-150.72 797.5,-139.38 791.7,-136.49 785.32,-133.82 779.13,-131.47"/>
<polygon fill="#63b8ff" stroke="#63b8ff" points="859.1,-181.39 869.26,-184.38 863.18,-175.7 859.1,-181.39"/>
</a>
</g>
</g>
<!-- Node3 -->
<g id="Node000003" class="node">
<title>Node3</title>
<g id="a_Node000003"><a xlink:href="parse__camera__light_8c.html#a0b2ac9083d47f8bf5eed5fbbb5576a19" target="_top" xlink:title=" ">
<polygon fill="white" stroke="#666666" points="521.75,-316.01 442,-316.01 442,-296.76 521.75,-296.76 521.75,-316.01"/>
<text text-anchor="middle" x="481.88" y="-302.51" font-family="Helvetica,sans-Serif" font-size="10.00">parse_ambient</text>
</a>
</g>
</g>
<!-- Node2&#45;&gt;Node3 -->
<g id="edge2_Node000002_Node000003" class="edge">
<title>Node2&#45;&gt;Node3</title>
<g id="a_edge2_Node000002_Node000003"><a xlink:title=" ">
<path fill="none" stroke="#63b8ff" d="M549.82,-306.38C540.39,-306.38 530.82,-306.38 521.99,-306.38"/>
<polygon fill="#63b8ff" stroke="#63b8ff" points="549.69,-309.88 559.69,-306.38 549.69,-302.88 549.69,-309.88"/>
</a>
</g>
</g>
<!-- Node8 -->
<g id="Node000008" class="node">
<title>Node8</title>
<g id="a_Node000008"><a xlink:href="parse__objects_8c.html#a438a08a219ba336c395096067e52bb1b" target="_top" xlink:title=" ">
<polygon fill="white" stroke="#666666" points="521,-168.01 442.75,-168.01 442.75,-148.76 521,-148.76 521,-168.01"/>
<text text-anchor="middle" x="481.88" y="-154.51" font-family="Helvetica,sans-Serif" font-size="10.00">parse_cylinder</text>
</a>
</g>
</g>
<!-- Node2&#45;&gt;Node8 -->
<g id="edge7_Node000002_Node000008" class="edge">
<title>Node2&#45;&gt;Node8</title>
<g id="a_edge7_Node000002_Node000008"><a xlink:title=" ">
<path fill="none" stroke="#63b8ff" d="M599.35,-286.47C586.02,-258.61 558.47,-207.86 521.75,-176.38 518.14,-173.28 513.9,-170.61 509.58,-168.34"/>
<polygon fill="#63b8ff" stroke="#63b8ff" points="596.02,-287.61 603.4,-295.21 602.37,-284.66 596.02,-287.61"/>
</a>
</g>
</g>
<!-- Node9 -->
<g id="Node000009" class="node">
<title>Node9</title>
<g id="a_Node000009"><a xlink:href="parse__camera__light_8c.html#aaa10205c0950a79dd43566074de7b0a0" target="_top" xlink:title=" ">
<polygon fill="white" stroke="#666666" points="513.5,-242.01 450.25,-242.01 450.25,-222.76 513.5,-222.76 513.5,-242.01"/>
<text text-anchor="middle" x="481.88" y="-228.51" font-family="Helvetica,sans-Serif" font-size="10.00">parse_light</text>
</a>
</g>
</g>
<!-- Node2&#45;&gt;Node9 -->
<g id="edge9_Node000002_Node000009" class="edge">
<title>Node2&#45;&gt;Node9</title>
<g id="a_edge9_Node000002_Node000009"><a xlink:title=" ">
<path fill="none" stroke="#63b8ff" d="M585.04,-290.08C567.93,-278.38 543.88,-262.59 521.75,-250.38 516.67,-247.58 511.08,-244.81 505.75,-242.32"/>
<polygon fill="#63b8ff" stroke="#63b8ff" points="582.78,-292.77 593,-295.57 586.76,-287.01 582.78,-292.77"/>
</a>
</g>
</g>
<!-- Node10 -->
<g id="Node000010" class="node">
<title>Node10</title>
<g id="a_Node000010"><a xlink:href="parse__objects_8c.html#a7e641794acee51578d8539e361635c47" target="_top" xlink:title=" ">
<polygon fill="white" stroke="#666666" points="516.12,-205.01 447.62,-205.01 447.62,-185.76 516.12,-185.76 516.12,-205.01"/>
<text text-anchor="middle" x="481.88" y="-191.51" font-family="Helvetica,sans-Serif" font-size="10.00">parse_plane</text>
</a>
</g>
</g>
<!-- Node2&#45;&gt;Node10 -->
<g id="edge11_Node000002_Node000010" class="edge">
<title>Node2&#45;&gt;Node10</title>
<g id="a_edge11_Node000002_Node000010"><a xlink:title=" ">
<path fill="none" stroke="#63b8ff" d="M594.39,-287.58C578.62,-267.21 551.2,-234.75 521.75,-213.38 517.66,-210.41 512.99,-207.75 508.36,-205.44"/>
<polygon fill="#63b8ff" stroke="#63b8ff" points="591.42,-289.45 600.25,-295.31 597,-285.22 591.42,-289.45"/>
</a>
</g>
</g>
<!-- Node4 -->
<g id="Node000004" class="node">
<title>Node4</title>
<g id="a_Node000004"><a xlink:href="parse__main_8c.html#a92aa268ea4b3d5c808364ca73d913cbe" target="_top" xlink:title=" ">
<polygon fill="white" stroke="#666666" points="406,-223.01 318,-223.01 318,-203.76 406,-203.76 406,-223.01"/>
<text text-anchor="middle" x="362" y="-209.51" font-family="Helvetica,sans-Serif" font-size="10.00">parse_func_redir</text>
</a>
</g>
</g>
<!-- Node3&#45;&gt;Node4 -->
<g id="edge3_Node000003_Node000004" class="edge">
<title>Node3&#45;&gt;Node4</title>
<g id="a_edge3_Node000003_Node000004"><a xlink:title=" ">
<path fill="none" stroke="#63b8ff" d="M446.18,-291.05C444.75,-290.19 443.35,-289.3 442,-288.38 413.37,-268.94 385.3,-238.97 371.62,-223.46"/>
<polygon fill="#63b8ff" stroke="#63b8ff" points="444.16,-293.93 454.62,-295.6 447.48,-287.77 444.16,-293.93"/>
</a>
</g>
</g>
<!-- Node5 -->
<g id="Node000005" class="node">
<title>Node5</title>
<g id="a_Node000005"><a xlink:href="parse__main_8c.html#a5d7da6ab7925ffda04b676ef38880723" target="_top" xlink:title="Reading a line from the given .rt file and splitting the given line with the space (&#39; &#39;) delimiter....">
<polygon fill="white" stroke="#666666" points="282,-223.01 186.5,-223.01 186.5,-203.76 282,-203.76 282,-223.01"/>
<text text-anchor="middle" x="234.25" y="-209.51" font-family="Helvetica,sans-Serif" font-size="10.00">parse_rt_read_line</text>
</a>
</g>
</g>
<!-- Node4&#45;&gt;Node5 -->
<g id="edge4_Node000004_Node000005" class="edge">
<title>Node4&#45;&gt;Node5</title>
<g id="a_edge4_Node000004_Node000005"><a xlink:title=" ">
<path fill="none" stroke="#63b8ff" d="M306.29,-213.38C298.36,-213.38 290.25,-213.38 282.48,-213.38"/>
<polygon fill="#63b8ff" stroke="#63b8ff" points="306.21,-216.88 316.21,-213.38 306.21,-209.88 306.21,-216.88"/>
</a>
</g>
</g>
<!-- Node6 -->
<g id="Node000006" class="node">
<title>Node6</title>
<g id="a_Node000006"><a xlink:href="parse__main_8c.html#a62c4de2f960942eba61e7de12c387ae4" target="_top" xlink:title="Entry function to parsing .rt file where the file is attempted to be opened, t_parse structure is ini...">
<polygon fill="white" stroke="#666666" points="150.5,-223.01 73,-223.01 73,-203.76 150.5,-203.76 150.5,-223.01"/>
<text text-anchor="middle" x="111.75" y="-209.51" font-family="Helvetica,sans-Serif" font-size="10.00">parse_rt_main</text>
</a>
</g>
</g>
<!-- Node5&#45;&gt;Node6 -->
<g id="edge5_Node000005_Node000006" class="edge">
<title>Node5&#45;&gt;Node6</title>
<g id="a_edge5_Node000005_Node000006"><a xlink:title=" ">
<path fill="none" stroke="#63b8ff" d="M174.86,-213.38C166.69,-213.38 158.47,-213.38 150.81,-213.38"/>
<polygon fill="#63b8ff" stroke="#63b8ff" points="174.8,-216.88 184.8,-213.38 174.8,-209.88 174.8,-216.88"/>
</a>
</g>
</g>
<!-- Node7 -->
<g id="Node000007" class="node">
<title>Node7</title>
<g id="a_Node000007"><a xlink:href="mini__ray_8c.html#a0c99d968a34e803d378692bde2e3f18f" target="_top" xlink:title=" ">
<polygon fill="white" stroke="#666666" points="37,-223.01 0,-223.01 0,-203.76 37,-203.76 37,-223.01"/>
<text text-anchor="middle" x="18.5" y="-209.51" font-family="Helvetica,sans-Serif" font-size="10.00">main</text>
</a>
</g>
</g>
<!-- Node6&#45;&gt;Node7 -->
<g id="edge6_Node000006_Node000007" class="edge">
<title>Node6&#45;&gt;Node7</title>
<g id="a_edge6_Node000006_Node000007"><a xlink:title=" ">
<path fill="none" stroke="#63b8ff" d="M61.23,-213.38C52.6,-213.38 44.15,-213.38 37.14,-213.38"/>
<polygon fill="#63b8ff" stroke="#63b8ff" points="61.07,-216.88 71.07,-213.38 61.07,-209.88 61.07,-216.88"/>
</a>
</g>
</g>
<!-- Node8&#45;&gt;Node4 -->
<g id="edge8_Node000008_Node000004" class="edge">
<title>Node8&#45;&gt;Node4</title>
<g id="a_edge8_Node000008_Node000004"><a xlink:title=" ">
<path fill="none" stroke="#63b8ff" d="M448.63,-173.3C446.39,-174.34 444.16,-175.38 442,-176.38 422.5,-185.46 400.33,-195.85 384.45,-203.31"/>
<polygon fill="#63b8ff" stroke="#63b8ff" points="450.1,-176.48 457.7,-169.09 447.16,-170.13 450.1,-176.48"/>
</a>
</g>
</g>
<!-- Node9&#45;&gt;Node4 -->
<g id="edge10_Node000009_Node000004" class="edge">
<title>Node9&#45;&gt;Node4</title>
<g id="a_edge10_Node000009_Node000004"><a xlink:title=" ">
<path fill="none" stroke="#63b8ff" d="M438.79,-225.6C428.2,-223.89 416.82,-222.06 406.17,-220.34"/>
<polygon fill="#63b8ff" stroke="#63b8ff" points="437.98,-229.01 448.41,-227.15 439.09,-222.1 437.98,-229.01"/>
</a>
</g>
</g>
<!-- Node10&#45;&gt;Node4 -->
<g id="edge12_Node000010_Node000004" class="edge">
<title>Node10&#45;&gt;Node4</title>
<g id="a_edge12_Node000010_Node000004"><a xlink:title=" ">
<path fill="none" stroke="#63b8ff" d="M436.22,-202.2C426.4,-203.7 416.02,-205.29 406.25,-206.78"/>
<polygon fill="#63b8ff" stroke="#63b8ff" points="436.56,-205.69 445.92,-200.72 435.5,-198.77 436.56,-205.69"/>
</a>
</g>
</g>
<!-- Node11&#45;&gt;Node8 -->
<g id="edge16_Node000011_Node000008" class="edge">
<title>Node11&#45;&gt;Node8</title>
<g id="a_edge16_Node000011_Node000008"><a xlink:title=" ">
<path fill="none" stroke="#63b8ff" d="M563.24,-134.66C548.04,-139.15 531.32,-144.08 517.09,-148.28"/>
<polygon fill="#63b8ff" stroke="#63b8ff" points="563.94,-138.11 572.54,-131.92 561.96,-131.39 563.94,-138.11"/>
</a>
</g>
</g>
<!-- Node11&#45;&gt;Node10 -->
<g id="edge17_Node000011_Node000010" class="edge">
<title>Node11&#45;&gt;Node10</title>
<g id="a_edge17_Node000011_Node000010"><a xlink:title=" ">
<path fill="none" stroke="#63b8ff" d="M563.33,-136.09C561.4,-137.12 559.53,-138.22 557.75,-139.38 538.26,-152.08 540.64,-163.81 521.75,-177.38 517.64,-180.33 512.97,-182.99 508.33,-185.29"/>
<polygon fill="#63b8ff" stroke="#63b8ff" points="564.34,-139.48 571.9,-132.05 561.36,-133.14 564.34,-139.48"/>
</a>
</g>
</g>
<!-- Node12 -->
<g id="Node000012" class="node">
<title>Node12</title>
<g id="a_Node000012"><a xlink:href="parse__camera__light_8c.html#a00b9b6a4aadecaaf341d2fc409582b39" target="_top" xlink:title=" ">
<polygon fill="white" stroke="#666666" points="520.62,-131.01 443.12,-131.01 443.12,-111.76 520.62,-111.76 520.62,-131.01"/>
<text text-anchor="middle" x="481.88" y="-117.51" font-family="Helvetica,sans-Serif" font-size="10.00">parse_camera</text>
</a>
</g>
</g>
<!-- Node11&#45;&gt;Node12 -->
<g id="edge14_Node000011_Node000012" class="edge">
<title>Node11&#45;&gt;Node12</title>
<g id="a_edge14_Node000011_Node000012"><a xlink:title=" ">
<path fill="none" stroke="#63b8ff" d="M550.1,-121.38C540.22,-121.38 530.19,-121.38 521,-121.38"/>
<polygon fill="#63b8ff" stroke="#63b8ff" points="550.05,-124.88 560.05,-121.38 550.05,-117.88 550.05,-124.88"/>
</a>
</g>
</g>
<!-- Node12&#45;&gt;Node4 -->
<g id="edge15_Node000012_Node000004" class="edge">
<title>Node12&#45;&gt;Node4</title>
<g id="a_edge15_Node000012_Node000004"><a xlink:title=" ">
<path fill="none" stroke="#63b8ff" d="M446.19,-136.73C444.75,-137.59 443.35,-138.47 442,-139.38 413.48,-158.61 385.37,-188.16 371.65,-203.45"/>
<polygon fill="#63b8ff" stroke="#63b8ff" points="447.48,-140.01 454.63,-132.19 444.17,-133.84 447.48,-140.01"/>
</a>
</g>
</g>
<!-- Node13&#45;&gt;Node2 -->
<g id="edge19_Node000013_Node000002" class="edge">
<title>Node13&#45;&gt;Node2</title>
<g id="a_edge19_Node000013_Node000002"><a xlink:title=" ">
<path fill="none" stroke="#63b8ff" d="M705.43,-378.86C702.45,-377.45 699.52,-375.96 696.75,-374.38 666.86,-357.39 636.24,-330.68 620.69,-316.31"/>
<polygon fill="#63b8ff" stroke="#63b8ff" points="703.75,-381.95 714.31,-382.72 706.53,-375.53 703.75,-381.95"/>
</a>
</g>
</g>
<!-- Node14&#45;&gt;Node3 -->
<g id="edge21_Node000014_Node000003" class="edge">
<title>Node14&#45;&gt;Node3</title>
<g id="a_edge21_Node000014_Node000003"><a xlink:title=" ">
<path fill="none" stroke="#63b8ff" d="M594.39,-214.18C578.62,-234.56 551.2,-267.02 521.75,-288.38 517.66,-291.35 512.99,-294.01 508.36,-296.32"/>
<polygon fill="#63b8ff" stroke="#63b8ff" points="597,-216.54 600.25,-206.46 591.42,-212.32 597,-216.54"/>
</a>
</g>
</g>
<!-- Node14&#45;&gt;Node8 -->
<g id="edge23_Node000014_Node000008" class="edge">
<title>Node14&#45;&gt;Node8</title>
<g id="a_edge23_Node000014_Node000008"><a xlink:title=" ">
<path fill="none" stroke="#63b8ff" d="M563.24,-182.1C548.04,-177.61 531.32,-172.68 517.09,-168.48"/>
<polygon fill="#63b8ff" stroke="#63b8ff" points="561.96,-185.37 572.54,-184.84 563.94,-178.66 561.96,-185.37"/>
</a>
</g>
</g>
<!-- Node14&#45;&gt;Node9 -->
<g id="edge24_Node000014_Node000009" class="edge">
<title>Node14&#45;&gt;Node9</title>
<g id="a_edge24_Node000014_Node000009"><a xlink:title=" ">
<path fill="none" stroke="#63b8ff" d="M562.99,-208.74C546.61,-213.57 528.51,-218.91 513.67,-223.3"/>
<polygon fill="#63b8ff" stroke="#63b8ff" points="563.94,-212.11 572.54,-205.92 561.96,-205.39 563.94,-212.11"/>
</a>
</g>
</g>
<!-- Node14&#45;&gt;Node10 -->
<g id="edge25_Node000014_Node000010" class="edge">
<title>Node14&#45;&gt;Node10</title>
<g id="a_edge25_Node000014_Node000010"><a xlink:title=" ">
<path fill="none" stroke="#63b8ff" d="M549.33,-195.38C538.05,-195.38 526.62,-195.38 516.48,-195.38"/>
<polygon fill="#63b8ff" stroke="#63b8ff" points="548.98,-198.88 558.98,-195.38 548.98,-191.88 548.98,-198.88"/>
</a>
</g>
</g>
<!-- Node14&#45;&gt;Node12 -->
<g id="edge22_Node000014_Node000012" class="edge">
<title>Node14&#45;&gt;Node12</title>
<g id="a_edge22_Node000014_Node000012"><a xlink:title=" ">
<path fill="none" stroke="#63b8ff" d="M563.33,-180.68C561.4,-179.64 559.53,-178.54 557.75,-177.38 538.26,-164.68 540.64,-152.96 521.75,-139.38 517.64,-136.43 512.97,-133.78 508.33,-131.47"/>
<polygon fill="#63b8ff" stroke="#63b8ff" points="561.36,-183.62 571.9,-184.71 564.34,-177.29 561.36,-183.62"/>
</a>
</g>
</g>
<!-- Node15 -->
<g id="Node000015" class="node">
<title>Node15</title>
<g id="a_Node000015"><a xlink:href="parse__objects_8c.html#a6ab66800bec24ca2d8c0f6c781558f65" target="_top" xlink:title=" ">
<polygon fill="white" stroke="#666666" points="519.12,-279.01 444.62,-279.01 444.62,-259.76 519.12,-259.76 519.12,-279.01"/>
<text text-anchor="middle" x="481.88" y="-265.51" font-family="Helvetica,sans-Serif" font-size="10.00">parse_sphere</text>
</a>
</g>
</g>
<!-- Node14&#45;&gt;Node15 -->
<g id="edge26_Node000014_Node000015" class="edge">
<title>Node14&#45;&gt;Node15</title>
<g id="a_edge26_Node000014_Node000015"><a xlink:title=" ">
<path fill="none" stroke="#63b8ff" d="M585.04,-211.69C567.93,-223.39 543.88,-239.18 521.75,-251.38 516.67,-254.18 511.08,-256.95 505.75,-259.44"/>
<polygon fill="#63b8ff" stroke="#63b8ff" points="586.76,-214.75 593,-206.19 582.78,-208.99 586.76,-214.75"/>
</a>
</g>
</g>
<!-- Node15&#45;&gt;Node4 -->
<g id="edge27_Node000015_Node000004" class="edge">
<title>Node15&#45;&gt;Node4</title>
<g id="a_edge27_Node000015_Node000004"><a xlink:title=" ">
<path fill="none" stroke="#63b8ff" d="M448.62,-254.49C446.38,-253.44 444.15,-252.4 442,-251.38 422.18,-242.03 399.66,-231.17 383.75,-223.47"/>
<polygon fill="#63b8ff" stroke="#63b8ff" points="447.14,-257.66 457.68,-258.71 450.09,-251.32 447.14,-257.66"/>
</a>
</g>
</g>
<!-- Node16&#45;&gt;Node2 -->
<g id="edge29_Node000016_Node000002" class="edge">
<title>Node16&#45;&gt;Node2</title>
<g id="a_edge29_Node000016_Node000002"><a xlink:title=" ">
<path fill="none" stroke="#63b8ff" d="M689.18,-331.94C672.84,-326.65 655.63,-321.08 641.47,-316.49"/>
<polygon fill="#63b8ff" stroke="#63b8ff" points="687.71,-335.15 698.3,-334.9 689.87,-328.49 687.71,-335.15"/>
</a>
</g>
</g>
<!-- Node17&#45;&gt;Node14 -->
<g id="edge31_Node000017_Node000014" class="edge">
<title>Node17&#45;&gt;Node14</title>
<g id="a_edge31_Node000017_Node000014"><a xlink:title=" ">
<path fill="none" stroke="#63b8ff" d="M704.63,-255.04C701.94,-253.87 699.29,-252.65 696.75,-251.38 669.53,-237.82 640.31,-217.58 623.76,-205.51"/>
<polygon fill="#63b8ff" stroke="#63b8ff" points="703.14,-258.21 713.72,-258.72 705.77,-251.72 703.14,-258.21"/>
</a>
</g>
</g>
<!-- Node18&#45;&gt;Node14 -->
<g id="edge33_Node000018_Node000014" class="edge">
<title>Node18&#45;&gt;Node14</title>
<g id="a_edge33_Node000018_Node000014"><a xlink:title=" ">
<path fill="none" stroke="#63b8ff" d="M698.31,-219.36C681.58,-214.81 663.06,-209.76 647.33,-205.48"/>
<polygon fill="#63b8ff" stroke="#63b8ff" points="696.97,-222.62 707.54,-221.87 698.81,-215.87 696.97,-222.62"/>
</a>
</g>
</g>
<!-- Node20 -->
<g id="Node000020" class="node">
<title>Node20</title>
<g id="a_Node000020"><a xlink:href="parse__utils_8c.html#a4b09ddfa5e35fa7e45323421232772ce" target="_top" xlink:title=" ">
<polygon fill="white" stroke="#666666" points="660.75,-168.01 557.75,-168.01 557.75,-148.76 660.75,-148.76 660.75,-168.01"/>
<text text-anchor="middle" x="609.25" y="-154.51" font-family="Helvetica,sans-Serif" font-size="10.00">parse_assign_coord</text>
</a>
</g>
</g>
<!-- Node19&#45;&gt;Node20 -->
<g id="edge35_Node000019_Node000020" class="edge">
<title>Node19&#45;&gt;Node20</title>
<g id="a_edge35_Node000019_Node000020"><a xlink:title=" ">
<path fill="none" stroke="#63b8ff" d="M704.07,-62.66C701.46,-64.76 698.98,-67.01 696.75,-69.38 672.52,-95.16 687.3,-117 660.75,-140.38 657.19,-143.52 653.04,-146.12 648.68,-148.28"/>
<polygon fill="#63b8ff" stroke="#63b8ff" points="706.01,-65.57 712.12,-56.91 701.95,-59.87 706.01,-65.57"/>
</a>
</g>
</g>
<!-- Node20&#45;&gt;Node8 -->
<g id="edge37_Node000020_Node000008" class="edge">
<title>Node20&#45;&gt;Node8</title>
<g id="a_edge37_Node000020_Node000008"><a xlink:title=" ">
<path fill="none" stroke="#63b8ff" d="M545.82,-158.38C537.4,-158.38 528.96,-158.38 521.13,-158.38"/>
<polygon fill="#63b8ff" stroke="#63b8ff" points="545.74,-161.88 555.74,-158.38 545.74,-154.88 545.74,-161.88"/>
</a>
</g>
</g>
<!-- Node20&#45;&gt;Node9 -->
<g id="edge38_Node000020_Node000009" class="edge">
<title>Node20&#45;&gt;Node9</title>
<g id="a_edge38_Node000020_Node000009"><a xlink:title=" ">
<path fill="none" stroke="#63b8ff" d="M563.33,-173.09C561.4,-174.12 559.53,-175.22 557.75,-176.38 538.26,-189.08 540.64,-200.81 521.75,-214.38 517.64,-217.33 512.97,-219.99 508.33,-222.29"/>
<polygon fill="#63b8ff" stroke="#63b8ff" points="564.34,-176.48 571.9,-169.05 561.36,-170.14 564.34,-176.48"/>
</a>
</g>
</g>
<!-- Node20&#45;&gt;Node10 -->
<g id="edge39_Node000020_Node000010" class="edge">
<title>Node20&#45;&gt;Node10</title>
<g id="a_edge39_Node000020_Node000010"><a xlink:title=" ">
<path fill="none" stroke="#63b8ff" d="M563.06,-171.72C547.6,-176.28 530.59,-181.3 516.23,-185.54"/>
<polygon fill="#63b8ff" stroke="#63b8ff" points="563.94,-175.11 572.54,-168.92 561.96,-168.39 563.94,-175.11"/>
</a>
</g>
</g>
<!-- Node20&#45;&gt;Node12 -->
<g id="edge36_Node000020_Node000012" class="edge">
<title>Node20&#45;&gt;Node12</title>
<g id="a_edge36_Node000020_Node000012"><a xlink:title=" ">
<path fill="none" stroke="#63b8ff" d="M563.24,-145.1C548.04,-140.61 531.32,-135.68 517.09,-131.48"/>
<polygon fill="#63b8ff" stroke="#63b8ff" points="561.96,-148.37 572.54,-147.84 563.94,-141.66 561.96,-148.37"/>
</a>
</g>
</g>
<!-- Node21&#45;&gt;Node14 -->
<g id="edge41_Node000021_Node000014" class="edge">
<title>Node21&#45;&gt;Node14</title>
<g id="a_edge41_Node000021_Node000014"><a xlink:title=" ">
<path fill="none" stroke="#63b8ff" d="M691.42,-195.38C680.33,-195.38 668.74,-195.38 657.91,-195.38"/>
<polygon fill="#63b8ff" stroke="#63b8ff" points="691.25,-198.88 701.25,-195.38 691.25,-191.88 691.25,-198.88"/>
</a>
</g>
</g>
<!-- Node22&#45;&gt;Node14 -->
<g id="edge43_Node000022_Node000014" class="edge">
<title>Node22&#45;&gt;Node14</title>
<g id="a_edge43_Node000022_Node000014"><a xlink:title=" ">
<path fill="none" stroke="#63b8ff" d="M699.52,-171.07C682.4,-175.73 663.28,-180.94 647.13,-185.34"/>
<polygon fill="#63b8ff" stroke="#63b8ff" points="700.24,-174.51 708.97,-168.5 698.4,-167.75 700.24,-174.51"/>
</a>
</g>
</g>
<!-- Node23&#45;&gt;Node14 -->
<g id="edge45_Node000023_Node000014" class="edge">
<title>Node23&#45;&gt;Node14</title>
<g id="a_edge45_Node000023_Node000014"><a xlink:title=" ">
<path fill="none" stroke="#63b8ff" d="M701.73,-136.38C700.02,-137.33 698.35,-138.33 696.75,-139.38 677.3,-152.15 680.24,-164.68 660.75,-177.38 655.99,-180.48 650.64,-183.13 645.23,-185.36"/>
<polygon fill="#63b8ff" stroke="#63b8ff" points="703.06,-139.63 710.56,-132.14 700.03,-133.32 703.06,-139.63"/>
</a>
</g>
</g>
</g>
</svg>
