<?xml version="1.0" encoding="UTF-8" standalone="no"?>
<!DOCTYPE svg PUBLIC "-//W3C//DTD SVG 1.1//EN"
 "http://www.w3.org/Graphics/SVG/1.1/DTD/svg11.dtd">
<!-- Generated by graphviz version 9.0.0 (20230911.1827)
 -->
<!-- Title: parse_assign_vec Pages: 1 -->
<svg width="568pt" height="177pt"
 viewBox="0.00 0.00 568.00 177.25" xmlns="http://www.w3.org/2000/svg" xmlns:xlink="http://www.w3.org/1999/xlink">
<g id="graph0" class="graph" transform="scale(1 1) rotate(0) translate(4 173.25)">
<title>parse_assign_vec</title>
<!-- Node1 -->
<g id="Node000001" class="node">
<title>Node1</title>
<g id="a_Node000001"><a xlink:title=" ">
<polygon fill="#999999" stroke="#666666" points="94.75,-95.25 0,-95.25 0,-76 94.75,-76 94.75,-95.25"/>
<text text-anchor="middle" x="47.38" y="-81.75" font-family="Helvetica,sans-Serif" font-size="10.00">parse_assign_vec</text>
</a>
</g>
</g>
<!-- Node2 -->
<g id="Node000002" class="node">
<title>Node2</title>
<g id="a_Node000002"><a xlink:href="free__dptr_8c.html#aaa705b6d12fb1a9a15e6103879ec0ea0" target="_top" xlink:title=" ">
<polygon fill="white" stroke="#666666" points="223.25,-169.25 169,-169.25 169,-150 223.25,-150 223.25,-169.25"/>
<text text-anchor="middle" x="196.12" y="-155.75" font-family="Helvetica,sans-Serif" font-size="10.00">free_dptr</text>
</a>
</g>
</g>
<!-- Node1&#45;&gt;Node2 -->
<g id="edge1_Node000001_Node000002" class="edge">
<title>Node1&#45;&gt;Node2</title>
<g id="a_edge1_Node000001_Node000002"><a xlink:title=" ">
<path fill="none" stroke="#63b8ff" d="M60.45,-95.71C75.86,-108.12 103.77,-129.09 130.75,-141.62 139.19,-145.54 148.65,-148.77 157.67,-151.36"/>
<polygon fill="#63b8ff" stroke="#63b8ff" points="156.73,-154.73 167.29,-153.91 158.52,-147.96 156.73,-154.73"/>
</a>
</g>
</g>
<!-- Node3 -->
<g id="Node000003" class="node">
<title>Node3</title>
<g id="a_Node000003"><a xlink:href="parse__assign__vec__utils_8c.html#ab8e92dfaa96787a8924706eb0177af9c" target="_top" xlink:title=" ">
<polygon fill="white" stroke="#666666" points="237.12,-132.25 155.12,-132.25 155.12,-113 237.12,-113 237.12,-132.25"/>
<text text-anchor="middle" x="196.12" y="-118.75" font-family="Helvetica,sans-Serif" font-size="10.00">is_valid_format</text>
</a>
</g>
</g>
<!-- Node1&#45;&gt;Node3 -->
<g id="edge2_Node000001_Node000003" class="edge">
<title>Node1&#45;&gt;Node3</title>
<g id="a_edge2_Node000001_Node000003"><a xlink:title=" ">
<path fill="none" stroke="#63b8ff" d="M88.48,-95.74C105.62,-100.06 125.85,-105.16 144.05,-109.75"/>
<polygon fill="#63b8ff" stroke="#63b8ff" points="143.05,-113.11 153.61,-112.16 144.76,-106.32 143.05,-113.11"/>
</a>
</g>
</g>
<!-- Node8 -->
<g id="Node000008" class="node">
<title>Node8</title>
<g id="a_Node000008"><a xlink:href="parse__utils_8c.html#a14e4a06978d8374fc830989e94b08140" target="_top" xlink:title=" ">
<polygon fill="white" stroke="#666666" points="247.62,-95.25 144.62,-95.25 144.62,-76 247.62,-76 247.62,-95.25"/>
<text text-anchor="middle" x="196.12" y="-81.75" font-family="Helvetica,sans-Serif" font-size="10.00">parse_check_length</text>
</a>
</g>
</g>
<!-- Node1&#45;&gt;Node8 -->
<g id="edge9_Node000001_Node000008" class="edge">
<title>Node1&#45;&gt;Node8</title>
<g id="a_edge9_Node000001_Node000008"><a xlink:title=" ">
<path fill="none" stroke="#63b8ff" d="M95.21,-85.62C107.16,-85.62 120.19,-85.62 132.77,-85.62"/>
<polygon fill="#63b8ff" stroke="#63b8ff" points="132.65,-89.13 142.65,-85.63 132.65,-82.13 132.65,-89.13"/>
</a>
</g>
</g>
<!-- Node9 -->
<g id="Node000009" class="node">
<title>Node9</title>
<g id="a_Node000009"><a xlink:href="parse__assign__vec__utils_8c.html#a714588a0946a445e8f37f00e6eb68bbf" target="_top" xlink:title=" ">
<polygon fill="white" stroke="#666666" points="261.5,-58.25 130.75,-58.25 130.75,-39 261.5,-39 261.5,-58.25"/>
<text text-anchor="middle" x="196.12" y="-44.75" font-family="Helvetica,sans-Serif" font-size="10.00">parse_vector_components</text>
</a>
</g>
</g>
<!-- Node1&#45;&gt;Node9 -->
<g id="edge10_Node000001_Node000009" class="edge">
<title>Node1&#45;&gt;Node9</title>
<g id="a_edge10_Node000001_Node000009"><a xlink:title=" ">
<path fill="none" stroke="#63b8ff" d="M88.48,-75.51C105.62,-71.19 125.85,-66.09 144.05,-61.5"/>
<polygon fill="#63b8ff" stroke="#63b8ff" points="144.76,-64.93 153.61,-59.09 143.05,-58.14 144.76,-64.93"/>
</a>
</g>
</g>
<!-- Node12 -->
<g id="Node000012" class="node">
<title>Node12</title>
<g id="a_Node000012"><a xlink:href="parse__assign__vec__utils_8c.html#a739e22fb23f1db98c643e53ec47625ac" target="_top" xlink:title=" ">
<polygon fill="white" stroke="#666666" points="243.88,-21.25 148.38,-21.25 148.38,-2 243.88,-2 243.88,-21.25"/>
<text text-anchor="middle" x="196.12" y="-7.75" font-family="Helvetica,sans-Serif" font-size="10.00">split_vector_string</text>
</a>
</g>
</g>
<!-- Node1&#45;&gt;Node12 -->
<g id="edge15_Node000001_Node000012" class="edge">
<title>Node1&#45;&gt;Node12</title>
<g id="a_edge15_Node000001_Node000012"><a xlink:title=" ">
<path fill="none" stroke="#63b8ff" d="M60.45,-75.54C75.86,-63.13 103.77,-42.16 130.75,-29.62 134.01,-28.11 137.43,-26.7 140.91,-25.38"/>
<polygon fill="#63b8ff" stroke="#63b8ff" points="141.74,-28.8 150.06,-22.24 139.47,-22.18 141.74,-28.8"/>
</a>
</g>
</g>
<!-- Node4 -->
<g id="Node000004" class="node">
<title>Node4</title>
<g id="a_Node000004"><a xlink:href="ft__strval_8c.html#adc216c7cf83a710b028bd1501e3d4e6b" target="_top" xlink:title="Checks if a given string consists of valid characters.">
<polygon fill="white" stroke="#666666" points="358.88,-133.25 307.62,-133.25 307.62,-114 358.88,-114 358.88,-133.25"/>
<text text-anchor="middle" x="333.25" y="-119.75" font-family="Helvetica,sans-Serif" font-size="10.00">ft_strval</text>
</a>
</g>
</g>
<!-- Node3&#45;&gt;Node4 -->
<g id="edge3_Node000003_Node000004" class="edge">
<title>Node3&#45;&gt;Node4</title>
<g id="a_edge3_Node000003_Node000004"><a xlink:title=" ">
<path fill="none" stroke="#63b8ff" d="M237.3,-122.92C255.94,-123.06 277.92,-123.22 296.03,-123.36"/>
<polygon fill="#63b8ff" stroke="#63b8ff" points="295.77,-126.85 305.79,-123.43 295.82,-119.86 295.77,-126.85"/>
</a>
</g>
</g>
<!-- Node5 -->
<g id="Node000005" class="node">
<title>Node5</title>
<g id="a_Node000005"><a xlink:href="LIBFT_2ft__isalnum_8c.html#a9c2c3821ea43ebdf97de07b123503f8b" target="_top" xlink:title=" ">
<polygon fill="white" stroke="#666666" points="466,-133.25 405,-133.25 405,-114 466,-114 466,-133.25"/>
<text text-anchor="middle" x="435.5" y="-119.75" font-family="Helvetica,sans-Serif" font-size="10.00">ft_isalnum</text>
</a>
</g>
</g>
<!-- Node4&#45;&gt;Node5 -->
<g id="edge4_Node000004_Node000005" class="edge">
<title>Node4&#45;&gt;Node5</title>
<g id="a_edge4_Node000004_Node000005"><a xlink:title=" ">
<path fill="none" stroke="#63b8ff" d="M359.29,-123.62C369.64,-123.62 381.92,-123.62 393.52,-123.62"/>
<polygon fill="#63b8ff" stroke="#63b8ff" points="393.28,-127.13 403.28,-123.63 393.28,-120.13 393.28,-127.13"/>
</a>
</g>
</g>
<!-- Node6 -->
<g id="Node000006" class="node">
<title>Node6</title>
<g id="a_Node000006"><a xlink:href="LIBFT_2ft__isalpha_8c.html#ac283963beaa3b8c7d09b78851cda297e" target="_top" xlink:title=" ">
<polygon fill="white" stroke="#666666" points="560,-152.25 502,-152.25 502,-133 560,-133 560,-152.25"/>
<text text-anchor="middle" x="531" y="-138.75" font-family="Helvetica,sans-Serif" font-size="10.00">ft_isalpha</text>
</a>
</g>
</g>
<!-- Node4&#45;&gt;Node6 -->
<g id="edge7_Node000004_Node000006" class="edge">
<title>Node4&#45;&gt;Node6</title>
<g id="a_edge7_Node000004_Node000006"><a xlink:title=" ">
<path fill="none" stroke="#63b8ff" d="M359.14,-132.02C372.55,-136.11 389.49,-140.58 405,-142.62 433.29,-146.36 465.49,-146.26 490.13,-145.27"/>
<polygon fill="#63b8ff" stroke="#63b8ff" points="490.23,-148.77 500.05,-144.81 489.9,-141.78 490.23,-148.77"/>
</a>
</g>
</g>
<!-- Node7 -->
<g id="Node000007" class="node">
<title>Node7</title>
<g id="a_Node000007"><a xlink:href="LIBFT_2ft__isdigit_8c.html#a2cf15b8a1a277d1e2ce3654101a2003d" target="_top" xlink:title=" ">
<polygon fill="white" stroke="#666666" points="557.38,-95.25 504.62,-95.25 504.62,-76 557.38,-76 557.38,-95.25"/>
<text text-anchor="middle" x="531" y="-81.75" font-family="Helvetica,sans-Serif" font-size="10.00">ft_isdigit</text>
</a>
</g>
</g>
<!-- Node4&#45;&gt;Node7 -->
<g id="edge8_Node000004_Node000007" class="edge">
<title>Node4&#45;&gt;Node7</title>
<g id="a_edge8_Node000004_Node000007"><a xlink:title=" ">
<path fill="none" stroke="#63b8ff" d="M359.3,-116.17C372.76,-112.35 389.69,-107.83 405,-104.62 434.49,-98.44 468.29,-93.43 493.3,-90.11"/>
<polygon fill="#63b8ff" stroke="#63b8ff" points="493.51,-93.61 502.97,-88.85 492.61,-86.67 493.51,-93.61"/>
</a>
</g>
</g>
<!-- Node5&#45;&gt;Node6 -->
<g id="edge5_Node000005_Node000006" class="edge">
<title>Node5&#45;&gt;Node6</title>
<g id="a_edge5_Node000005_Node000006"><a xlink:title=" ">
<path fill="none" stroke="#63b8ff" d="M466.34,-129.69C474.04,-131.25 482.45,-132.96 490.56,-134.61"/>
<polygon fill="#63b8ff" stroke="#63b8ff" points="489.74,-138.01 500.23,-136.58 491.13,-131.15 489.74,-138.01"/>
</a>
</g>
</g>
<!-- Node5&#45;&gt;Node7 -->
<g id="edge6_Node000005_Node000007" class="edge">
<title>Node5&#45;&gt;Node7</title>
<g id="a_edge6_Node000005_Node000007"><a xlink:title=" ">
<path fill="none" stroke="#63b8ff" d="M461.07,-113.64C471.4,-109.44 483.61,-104.48 494.87,-99.9"/>
<polygon fill="#63b8ff" stroke="#63b8ff" points="495.92,-103.25 503.87,-96.24 493.29,-96.77 495.92,-103.25"/>
</a>
</g>
</g>
<!-- Node10 -->
<g id="Node000010" class="node">
<title>Node10</title>
<g id="a_Node000010"><a xlink:href="check__range_8c.html#a31d1b2f2b0c6260cc272247fb1e281e4" target="_top" xlink:title=" ">
<polygon fill="white" stroke="#666666" points="369,-95.25 297.5,-95.25 297.5,-76 369,-76 369,-95.25"/>
<text text-anchor="middle" x="333.25" y="-81.75" font-family="Helvetica,sans-Serif" font-size="10.00">check_range</text>
</a>
</g>
</g>
<!-- Node9&#45;&gt;Node10 -->
<g id="edge11_Node000009_Node000010" class="edge">
<title>Node9&#45;&gt;Node10</title>
<g id="a_edge11_Node000009_Node000010"><a xlink:title=" ">
<path fill="none" stroke="#63b8ff" d="M234.05,-58.74C250.2,-63.16 269.32,-68.39 286.37,-73.06"/>
<polygon fill="#63b8ff" stroke="#63b8ff" points="285.2,-76.37 295.77,-75.64 287.05,-69.62 285.2,-76.37"/>
</a>
</g>
</g>
<!-- Node11 -->
<g id="Node000011" class="node">
<title>Node11</title>
<g id="a_Node000011"><a xlink:href="ft__atod_8c.html#ad55518c88cf22904ac355596269be400" target="_top" xlink:title=" ">
<polygon fill="white" stroke="#666666" points="458.5,-57.25 412.5,-57.25 412.5,-38 458.5,-38 458.5,-57.25"/>
<text text-anchor="middle" x="435.5" y="-43.75" font-family="Helvetica,sans-Serif" font-size="10.00">ft_atod</text>
</a>
</g>
</g>
<!-- Node9&#45;&gt;Node11 -->
<g id="edge14_Node000009_Node000011" class="edge">
<title>Node9&#45;&gt;Node11</title>
<g id="a_edge14_Node000009_Node000011"><a xlink:title=" ">
<path fill="none" stroke="#63b8ff" d="M261.99,-48.35C306.88,-48.16 364.81,-47.92 400.8,-47.77"/>
<polygon fill="#63b8ff" stroke="#63b8ff" points="400.62,-51.27 410.6,-47.73 400.59,-44.27 400.62,-51.27"/>
</a>
</g>
</g>
<!-- Node10&#45;&gt;Node11 -->
<g id="edge12_Node000010_Node000011" class="edge">
<title>Node10&#45;&gt;Node11</title>
<g id="a_edge12_Node000010_Node000011"><a xlink:title=" ">
<path fill="none" stroke="#63b8ff" d="M360.85,-75.54C373.36,-70.8 388.39,-65.1 401.61,-60.09"/>
<polygon fill="#63b8ff" stroke="#63b8ff" points="402.66,-63.44 410.77,-56.62 400.18,-56.89 402.66,-63.44"/>
</a>
</g>
</g>
<!-- Node11&#45;&gt;Node7 -->
<g id="edge13_Node000011_Node000007" class="edge">
<title>Node11&#45;&gt;Node7</title>
<g id="a_edge13_Node000011_Node000007"><a xlink:title=" ">
<path fill="none" stroke="#63b8ff" d="M458.66,-56.63C469.52,-61.04 482.85,-66.46 495.04,-71.42"/>
<polygon fill="#63b8ff" stroke="#63b8ff" points="493.38,-74.52 503.97,-75.04 496.02,-68.04 493.38,-74.52"/>
</a>
</g>
</g>
<!-- Node13 -->
<g id="Node000013" class="node">
<title>Node13</title>
<g id="a_Node000013"><a xlink:href="LIBFT_2ft__split_8c.html#aa65c9de65051c8c589286cf133c4a1f4" target="_top" xlink:title=" ">
<polygon fill="white" stroke="#666666" points="355.88,-19.25 310.62,-19.25 310.62,0 355.88,0 355.88,-19.25"/>
<text text-anchor="middle" x="333.25" y="-5.75" font-family="Helvetica,sans-Serif" font-size="10.00">ft_split</text>
</a>
</g>
</g>
<!-- Node12&#45;&gt;Node13 -->
<g id="edge16_Node000012_Node000013" class="edge">
<title>Node12&#45;&gt;Node13</title>
<g id="a_edge16_Node000012_Node000013"><a xlink:title=" ">
<path fill="none" stroke="#63b8ff" d="M244.01,-10.93C262.16,-10.66 282.52,-10.36 299.11,-10.12"/>
<polygon fill="#63b8ff" stroke="#63b8ff" points="298.97,-13.62 308.92,-9.97 298.87,-6.62 298.97,-13.62"/>
</a>
</g>
</g>
</g>
</svg>
