<?xml version="1.0" encoding="UTF-8" standalone="no"?>
<!DOCTYPE svg PUBLIC "-//W3C//DTD SVG 1.1//EN"
 "http://www.w3.org/Graphics/SVG/1.1/DTD/svg11.dtd">
<!-- Generated by graphviz version 9.0.0 (20230911.1827)
 -->
<!-- Title: is_valid_format Pages: 1 -->
<svg width="368pt" height="64pt"
 viewBox="0.00 0.00 368.25 64.25" xmlns="http://www.w3.org/2000/svg" xmlns:xlink="http://www.w3.org/1999/xlink">
<g id="graph0" class="graph" transform="scale(1 1) rotate(0) translate(4 60.25)">
<title>is_valid_format</title>
<!-- Node1 -->
<g id="Node000001" class="node">
<title>Node1</title>
<g id="a_Node000001"><a xlink:title=" ">
<polygon fill="#999999" stroke="#666666" points="82,-38.25 0,-38.25 0,-19 82,-19 82,-38.25"/>
<text text-anchor="middle" x="41" y="-24.75" font-family="Helvetica,sans-Serif" font-size="10.00">is_valid_format</text>
</a>
</g>
</g>
<!-- Node2 -->
<g id="Node000002" class="node">
<title>Node2</title>
<g id="a_Node000002"><a xlink:href="ft__strval_8c.html#adc216c7cf83a710b028bd1501e3d4e6b" target="_top" xlink:title="Checks if a given string consists of valid characters.">
<polygon fill="white" stroke="#666666" points="169.25,-38.25 118,-38.25 118,-19 169.25,-19 169.25,-38.25"/>
<text text-anchor="middle" x="143.62" y="-24.75" font-family="Helvetica,sans-Serif" font-size="10.00">ft_strval</text>
</a>
</g>
</g>
<!-- Node1&#45;&gt;Node2 -->
<g id="edge1_Node000001_Node000002" class="edge">
<title>Node1&#45;&gt;Node2</title>
<g id="a_edge1_Node000001_Node000002"><a xlink:title=" ">
<path fill="none" stroke="#63b8ff" d="M82.35,-28.62C90.26,-28.62 98.52,-28.62 106.3,-28.62"/>
<polygon fill="#63b8ff" stroke="#63b8ff" points="106.1,-32.13 116.1,-28.63 106.1,-25.13 106.1,-32.13"/>
</a>
</g>
</g>
<!-- Node3 -->
<g id="Node000003" class="node">
<title>Node3</title>
<g id="a_Node000003"><a xlink:href="LIBFT_2ft__isalnum_8c.html#a9c2c3821ea43ebdf97de07b123503f8b" target="_top" xlink:title=" ">
<polygon fill="white" stroke="#666666" points="266.25,-38.25 205.25,-38.25 205.25,-19 266.25,-19 266.25,-38.25"/>
<text text-anchor="middle" x="235.75" y="-24.75" font-family="Helvetica,sans-Serif" font-size="10.00">ft_isalnum</text>
</a>
</g>
</g>
<!-- Node2&#45;&gt;Node3 -->
<g id="edge2_Node000002_Node000003" class="edge">
<title>Node2&#45;&gt;Node3</title>
<g id="a_edge2_Node000002_Node000003"><a xlink:title=" ">
<path fill="none" stroke="#63b8ff" d="M169.73,-28.62C177.16,-28.62 185.51,-28.62 193.67,-28.62"/>
<polygon fill="#63b8ff" stroke="#63b8ff" points="193.47,-32.13 203.47,-28.63 193.47,-25.13 193.47,-32.13"/>
</a>
</g>
</g>
<!-- Node4 -->
<g id="Node000004" class="node">
<title>Node4</title>
<g id="a_Node000004"><a xlink:href="LIBFT_2ft__isalpha_8c.html#ac283963beaa3b8c7d09b78851cda297e" target="_top" xlink:title=" ">
<polygon fill="white" stroke="#666666" points="360.25,-56.25 302.25,-56.25 302.25,-37 360.25,-37 360.25,-56.25"/>
<text text-anchor="middle" x="331.25" y="-42.75" font-family="Helvetica,sans-Serif" font-size="10.00">ft_isalpha</text>
</a>
</g>
</g>
<!-- Node2&#45;&gt;Node4 -->
<g id="edge5_Node000002_Node000004" class="edge">
<title>Node2&#45;&gt;Node4</title>
<g id="a_edge5_Node000002_Node000004"><a xlink:title=" ">
<path fill="none" stroke="#63b8ff" d="M169.59,-38.32C180.38,-42.02 193.26,-45.79 205.25,-47.62 233.46,-51.94 265.66,-51.56 290.32,-50.17"/>
<polygon fill="#63b8ff" stroke="#63b8ff" points="290.51,-53.66 300.26,-49.52 290.05,-46.68 290.51,-53.66"/>
</a>
</g>
</g>
<!-- Node5 -->
<g id="Node000005" class="node">
<title>Node5</title>
<g id="a_Node000005"><a xlink:href="LIBFT_2ft__isdigit_8c.html#a2cf15b8a1a277d1e2ce3654101a2003d" target="_top" xlink:title=" ">
<polygon fill="white" stroke="#666666" points="357.62,-19.25 304.88,-19.25 304.88,0 357.62,0 357.62,-19.25"/>
<text text-anchor="middle" x="331.25" y="-5.75" font-family="Helvetica,sans-Serif" font-size="10.00">ft_isdigit</text>
</a>
</g>
</g>
<!-- Node2&#45;&gt;Node5 -->
<g id="edge6_Node000002_Node000005" class="edge">
<title>Node2&#45;&gt;Node5</title>
<g id="a_edge6_Node000002_Node000005"><a xlink:title=" ">
<path fill="none" stroke="#63b8ff" d="M169.59,-18.93C180.38,-15.23 193.26,-11.46 205.25,-9.62 234.69,-5.12 268.5,-5.45 293.53,-6.72"/>
<polygon fill="#63b8ff" stroke="#63b8ff" points="293,-10.19 303.19,-7.29 293.41,-3.2 293,-10.19"/>
</a>
</g>
</g>
<!-- Node3&#45;&gt;Node4 -->
<g id="edge3_Node000003_Node000004" class="edge">
<title>Node3&#45;&gt;Node4</title>
<g id="a_edge3_Node000003_Node000004"><a xlink:title=" ">
<path fill="none" stroke="#63b8ff" d="M266.59,-34.37C274.29,-35.85 282.7,-37.47 290.81,-39.03"/>
<polygon fill="#63b8ff" stroke="#63b8ff" points="290,-42.44 300.48,-40.89 291.32,-35.57 290,-42.44"/>
</a>
</g>
</g>
<!-- Node3&#45;&gt;Node5 -->
<g id="edge4_Node000003_Node000005" class="edge">
<title>Node3&#45;&gt;Node5</title>
<g id="a_edge4_Node000003_Node000005"><a xlink:title=" ">
<path fill="none" stroke="#63b8ff" d="M266.59,-22.56C275.06,-20.84 284.39,-18.94 293.24,-17.15"/>
<polygon fill="#63b8ff" stroke="#63b8ff" points="293.88,-20.59 302.98,-15.17 292.49,-13.73 293.88,-20.59"/>
</a>
</g>
</g>
</g>
</svg>
