<?xml version="1.0" encoding="UTF-8" standalone="no"?>
<!DOCTYPE svg PUBLIC "-//W3C//DTD SVG 1.1//EN"
 "http://www.w3.org/Graphics/SVG/1.1/DTD/svg11.dtd">
<!-- Generated by graphviz version 9.0.0 (20230911.1827)
 -->
<!-- Title: /github/workspace/SRC/CORE/PARSE/parse_assign_vec_utils.c Pages: 1 -->
<svg width="625pt" height="216pt"
 viewBox="0.00 0.00 624.75 215.50" xmlns="http://www.w3.org/2000/svg" xmlns:xlink="http://www.w3.org/1999/xlink">
<g id="graph0" class="graph" transform="scale(1 1) rotate(0) translate(4 211.5)">
<title>/github/workspace/SRC/CORE/PARSE/parse_assign_vec_utils.c</title>
<!-- Node1 -->
<g id="Node000001" class="node">
<title>Node1</title>
<g id="a_Node000001"><a xlink:title=" ">
<polygon fill="#999999" stroke="#666666" points="275.88,-207.5 133.12,-207.5 133.12,-165.75 275.88,-165.75 275.88,-207.5"/>
<text text-anchor="start" x="141.12" y="-194" font-family="Helvetica,sans-Serif" font-size="10.00">/github/workspace/SRC</text>
<text text-anchor="start" x="141.12" y="-182.75" font-family="Helvetica,sans-Serif" font-size="10.00">/CORE/PARSE/parse_assign</text>
<text text-anchor="middle" x="204.5" y="-171.5" font-family="Helvetica,sans-Serif" font-size="10.00">_vec_utils.c</text>
</a>
</g>
</g>
<!-- Node2 -->
<g id="Node000002" class="node">
<title>Node2</title>
<g id="a_Node000002"><a xlink:href="types_8h.html" target="_top" xlink:title=" ">
<polygon fill="white" stroke="#666666" points="145.88,-129.75 99.12,-129.75 99.12,-110.5 145.88,-110.5 145.88,-129.75"/>
<text text-anchor="middle" x="122.5" y="-116.25" font-family="Helvetica,sans-Serif" font-size="10.00">types.h</text>
</a>
</g>
</g>
<!-- Node1&#45;&gt;Node2 -->
<g id="edge1_Node000001_Node000002" class="edge">
<title>Node1&#45;&gt;Node2</title>
<g id="a_edge1_Node000001_Node000002"><a xlink:title=" ">
<path fill="none" stroke="#63b8ff" d="M179,-165.57C167.37,-156.42 153.78,-145.73 142.84,-137.13"/>
<polygon fill="#63b8ff" stroke="#63b8ff" points="145.24,-134.56 135.22,-131.13 140.92,-140.06 145.24,-134.56"/>
</a>
</g>
</g>
<!-- Node6 -->
<g id="Node000006" class="node">
<title>Node6</title>
<g id="a_Node000006"><a xlink:href="muk__lib_8h.html" target="_top" xlink:title=" ">
<polygon fill="white" stroke="#666666" points="233.12,-74.5 175.88,-74.5 175.88,-55.25 233.12,-55.25 233.12,-74.5"/>
<text text-anchor="middle" x="204.5" y="-61" font-family="Helvetica,sans-Serif" font-size="10.00">muk_lib.h</text>
</a>
</g>
</g>
<!-- Node1&#45;&gt;Node6 -->
<g id="edge5_Node000001_Node000006" class="edge">
<title>Node1&#45;&gt;Node6</title>
<g id="a_edge5_Node000001_Node000006"><a xlink:title=" ">
<path fill="none" stroke="#63b8ff" d="M204.5,-165.31C204.5,-143.22 204.5,-108.13 204.5,-86.08"/>
<polygon fill="#63b8ff" stroke="#63b8ff" points="208,-86.32 204.5,-76.32 201,-86.32 208,-86.32"/>
</a>
</g>
</g>
<!-- Node11 -->
<g id="Node000011" class="node">
<title>Node11</title>
<g id="a_Node000011"><a xlink:href="libft_8h.html" target="_top" xlink:title=" ">
<polygon fill="white" stroke="#666666" points="449.12,-129.75 409.88,-129.75 409.88,-110.5 449.12,-110.5 449.12,-129.75"/>
<text text-anchor="middle" x="429.5" y="-116.25" font-family="Helvetica,sans-Serif" font-size="10.00">libft.h</text>
</a>
</g>
</g>
<!-- Node1&#45;&gt;Node11 -->
<g id="edge11_Node000001_Node000011" class="edge">
<title>Node1&#45;&gt;Node11</title>
<g id="a_edge11_Node000001_Node000011"><a xlink:title=" ">
<path fill="none" stroke="#63b8ff" d="M275.38,-165.31C316.91,-153.4 367.25,-138.97 398.84,-129.92"/>
<polygon fill="#63b8ff" stroke="#63b8ff" points="399.47,-133.37 408.12,-127.25 397.54,-126.65 399.47,-133.37"/>
</a>
</g>
</g>
<!-- Node3 -->
<g id="Node000003" class="node">
<title>Node3</title>
<g id="a_Node000003"><a xlink:title=" ">
<polygon fill="#e0e0e0" stroke="#999999" points="55,-74.5 0,-74.5 0,-55.25 55,-55.25 55,-74.5"/>
<text text-anchor="middle" x="27.5" y="-61" font-family="Helvetica,sans-Serif" font-size="10.00">stdbool.h</text>
</a>
</g>
</g>
<!-- Node2&#45;&gt;Node3 -->
<g id="edge2_Node000002_Node000003" class="edge">
<title>Node2&#45;&gt;Node3</title>
<g id="a_edge2_Node000002_Node000003"><a xlink:title=" ">
<path fill="none" stroke="#63b8ff" d="M106.38,-110.09C91.92,-101.98 70.42,-89.93 53.52,-80.46"/>
<polygon fill="#63b8ff" stroke="#63b8ff" points="55.45,-77.53 45.01,-75.69 52.03,-83.64 55.45,-77.53"/>
</a>
</g>
</g>
<!-- Node4 -->
<g id="Node000004" class="node">
<title>Node4</title>
<g id="a_Node000004"><a xlink:title=" ">
<polygon fill="#e0e0e0" stroke="#999999" points="286.88,-19.25 240.12,-19.25 240.12,0 286.88,0 286.88,-19.25"/>
<text text-anchor="middle" x="263.5" y="-5.75" font-family="Helvetica,sans-Serif" font-size="10.00">stdlib.h</text>
</a>
</g>
</g>
<!-- Node2&#45;&gt;Node4 -->
<g id="edge3_Node000002_Node000004" class="edge">
<title>Node2&#45;&gt;Node4</title>
<g id="a_edge3_Node000002_Node000004"><a xlink:title=" ">
<path fill="none" stroke="#63b8ff" d="M126.7,-110.15C133.42,-96.66 147.75,-71.03 166.5,-55.25 184.85,-39.82 209.41,-28.59 229.23,-21.25"/>
<polygon fill="#63b8ff" stroke="#63b8ff" points="230.27,-24.6 238.55,-17.98 227.96,-17.99 230.27,-24.6"/>
</a>
</g>
</g>
<!-- Node5 -->
<g id="Node000005" class="node">
<title>Node5</title>
<g id="a_Node000005"><a xlink:title=" ">
<polygon fill="#e0e0e0" stroke="#999999" points="119.88,-74.5 73.12,-74.5 73.12,-55.25 119.88,-55.25 119.88,-74.5"/>
<text text-anchor="middle" x="96.5" y="-61" font-family="Helvetica,sans-Serif" font-size="10.00">limits.h</text>
</a>
</g>
</g>
<!-- Node2&#45;&gt;Node5 -->
<g id="edge4_Node000002_Node000005" class="edge">
<title>Node2&#45;&gt;Node5</title>
<g id="a_edge4_Node000002_Node000005"><a xlink:title=" ">
<path fill="none" stroke="#63b8ff" d="M118.21,-110.33C114.88,-103.51 110.14,-93.81 105.94,-85.2"/>
<polygon fill="#63b8ff" stroke="#63b8ff" points="109.08,-83.67 101.55,-76.22 102.79,-86.74 109.08,-83.67"/>
</a>
</g>
</g>
<!-- Node6&#45;&gt;Node4 -->
<g id="edge6_Node000006_Node000004" class="edge">
<title>Node6&#45;&gt;Node4</title>
<g id="a_edge6_Node000006_Node000004"><a xlink:title=" ">
<path fill="none" stroke="#63b8ff" d="M214.51,-54.84C222.87,-47.3 235,-36.35 245.1,-27.23"/>
<polygon fill="#63b8ff" stroke="#63b8ff" points="247.44,-29.84 252.52,-20.54 242.75,-24.64 247.44,-29.84"/>
</a>
</g>
</g>
<!-- Node7 -->
<g id="Node000007" class="node">
<title>Node7</title>
<g id="a_Node000007"><a xlink:title=" ">
<polygon fill="#e0e0e0" stroke="#999999" points="448.38,-19.25 398.62,-19.25 398.62,0 448.38,0 448.38,-19.25"/>
<text text-anchor="middle" x="423.5" y="-5.75" font-family="Helvetica,sans-Serif" font-size="10.00">unistd.h</text>
</a>
</g>
</g>
<!-- Node6&#45;&gt;Node7 -->
<g id="edge7_Node000006_Node000007" class="edge">
<title>Node6&#45;&gt;Node7</title>
<g id="a_edge7_Node000006_Node000007"><a xlink:title=" ">
<path fill="none" stroke="#63b8ff" d="M233.58,-56.8C273.23,-47.16 344.23,-29.9 387.28,-19.43"/>
<polygon fill="#63b8ff" stroke="#63b8ff" points="388.01,-22.86 396.9,-17.09 386.36,-16.05 388.01,-22.86"/>
</a>
</g>
</g>
<!-- Node8 -->
<g id="Node000008" class="node">
<title>Node8</title>
<g id="a_Node000008"><a xlink:title=" ">
<polygon fill="#e0e0e0" stroke="#999999" points="158.75,-19.25 114.25,-19.25 114.25,0 158.75,0 158.75,-19.25"/>
<text text-anchor="middle" x="136.5" y="-5.75" font-family="Helvetica,sans-Serif" font-size="10.00">stdio.h</text>
</a>
</g>
</g>
<!-- Node6&#45;&gt;Node8 -->
<g id="edge8_Node000006_Node000008" class="edge">
<title>Node6&#45;&gt;Node8</title>
<g id="a_edge8_Node000006_Node000008"><a xlink:title=" ">
<path fill="none" stroke="#63b8ff" d="M192.96,-54.84C183.04,-47.07 168.49,-35.67 156.64,-26.4"/>
<polygon fill="#63b8ff" stroke="#63b8ff" points="159.09,-23.87 149.06,-20.46 154.77,-29.38 159.09,-23.87"/>
</a>
</g>
</g>
<!-- Node9 -->
<g id="Node000009" class="node">
<title>Node9</title>
<g id="a_Node000009"><a xlink:title=" ">
<polygon fill="#e0e0e0" stroke="#999999" points="377.62,-19.25 335.38,-19.25 335.38,0 377.62,0 377.62,-19.25"/>
<text text-anchor="middle" x="356.5" y="-5.75" font-family="Helvetica,sans-Serif" font-size="10.00">fcntl.h</text>
</a>
</g>
</g>
<!-- Node6&#45;&gt;Node9 -->
<g id="edge9_Node000006_Node000009" class="edge">
<title>Node6&#45;&gt;Node9</title>
<g id="a_edge9_Node000006_Node000009"><a xlink:title=" ">
<path fill="none" stroke="#63b8ff" d="M230.28,-54.84C256.19,-45.77 296.19,-31.75 324.19,-21.94"/>
<polygon fill="#63b8ff" stroke="#63b8ff" points="325.31,-25.26 333.59,-18.65 323,-18.65 325.31,-25.26"/>
</a>
</g>
</g>
<!-- Node10 -->
<g id="Node000010" class="node">
<title>Node10</title>
<g id="a_Node000010"><a xlink:title=" ">
<polygon fill="#e0e0e0" stroke="#999999" points="222.12,-19.25 176.88,-19.25 176.88,0 222.12,0 222.12,-19.25"/>
<text text-anchor="middle" x="199.5" y="-5.75" font-family="Helvetica,sans-Serif" font-size="10.00">math.h</text>
</a>
</g>
</g>
<!-- Node6&#45;&gt;Node10 -->
<g id="edge10_Node000006_Node000010" class="edge">
<title>Node6&#45;&gt;Node10</title>
<g id="a_edge10_Node000006_Node000010"><a xlink:title=" ">
<path fill="none" stroke="#63b8ff" d="M203.67,-55.08C203.06,-48.49 202.18,-39.21 201.4,-30.82"/>
<polygon fill="#63b8ff" stroke="#63b8ff" points="204.9,-30.75 200.49,-21.12 197.94,-31.4 204.9,-30.75"/>
</a>
</g>
</g>
<!-- Node11&#45;&gt;Node4 -->
<g id="edge12_Node000011_Node000004" class="edge">
<title>Node11&#45;&gt;Node4</title>
<g id="a_edge12_Node000011_Node000004"><a xlink:title=" ">
<path fill="none" stroke="#63b8ff" d="M409.5,-119.01C377.6,-117.7 315.27,-110.37 280.5,-74.5 269.25,-62.89 265.23,-44.72 263.89,-30.72"/>
<polygon fill="#63b8ff" stroke="#63b8ff" points="267.4,-30.65 263.37,-20.85 260.41,-31.03 267.4,-30.65"/>
</a>
</g>
</g>
<!-- Node11&#45;&gt;Node7 -->
<g id="edge13_Node000011_Node000007" class="edge">
<title>Node11&#45;&gt;Node7</title>
<g id="a_edge13_Node000011_Node000007"><a xlink:title=" ">
<path fill="none" stroke="#63b8ff" d="M434.26,-110.04C440.14,-97.67 448.87,-74.82 444.5,-55.25 442.52,-46.38 438.57,-37.19 434.62,-29.48"/>
<polygon fill="#63b8ff" stroke="#63b8ff" points="437.71,-27.82 429.81,-20.76 431.58,-31.2 437.71,-27.82"/>
</a>
</g>
</g>
<!-- Node12 -->
<g id="Node000012" class="node">
<title>Node12</title>
<g id="a_Node000012"><a xlink:title=" ">
<polygon fill="#e0e0e0" stroke="#999999" points="616.75,-74.5 566.25,-74.5 566.25,-55.25 616.75,-55.25 616.75,-74.5"/>
<text text-anchor="middle" x="591.5" y="-61" font-family="Helvetica,sans-Serif" font-size="10.00">stddef.h</text>
</a>
</g>
</g>
<!-- Node11&#45;&gt;Node12 -->
<g id="edge14_Node000011_Node000012" class="edge">
<title>Node11&#45;&gt;Node12</title>
<g id="a_edge14_Node000011_Node000012"><a xlink:title=" ">
<path fill="none" stroke="#63b8ff" d="M449.36,-112.6C475.59,-103.97 522.26,-88.64 554.94,-77.89"/>
<polygon fill="#63b8ff" stroke="#63b8ff" points="556.02,-81.22 564.43,-74.77 553.83,-74.57 556.02,-81.22"/>
</a>
</g>
</g>
<!-- Node13 -->
<g id="Node000013" class="node">
<title>Node13</title>
<g id="a_Node000013"><a xlink:title=" ">
<polygon fill="#e0e0e0" stroke="#999999" points="337.25,-74.5 289.75,-74.5 289.75,-55.25 337.25,-55.25 337.25,-74.5"/>
<text text-anchor="middle" x="313.5" y="-61" font-family="Helvetica,sans-Serif" font-size="10.00">stdint.h</text>
</a>
</g>
</g>
<!-- Node11&#45;&gt;Node13 -->
<g id="edge15_Node000011_Node000013" class="edge">
<title>Node11&#45;&gt;Node13</title>
<g id="a_edge15_Node000011_Node000013"><a xlink:title=" ">
<path fill="none" stroke="#63b8ff" d="M409.82,-110.09C391.66,-101.75 364.42,-89.25 343.53,-79.66"/>
<polygon fill="#63b8ff" stroke="#63b8ff" points="345.2,-76.58 334.65,-75.58 342.28,-82.94 345.2,-76.58"/>
</a>
</g>
</g>
<!-- Node14 -->
<g id="Node000014" class="node">
<title>Node14</title>
<g id="a_Node000014"><a xlink:href="get__next__line_8h.html" target="_top" xlink:title=" ">
<polygon fill="white" stroke="#666666" points="435.75,-74.5 355.25,-74.5 355.25,-55.25 435.75,-55.25 435.75,-74.5"/>
<text text-anchor="middle" x="395.5" y="-61" font-family="Helvetica,sans-Serif" font-size="10.00">get_next_line.h</text>
</a>
</g>
</g>
<!-- Node11&#45;&gt;Node14 -->
<g id="edge16_Node000011_Node000014" class="edge">
<title>Node11&#45;&gt;Node14</title>
<g id="a_edge16_Node000011_Node000014"><a xlink:title=" ">
<path fill="none" stroke="#63b8ff" d="M423.89,-110.33C419.38,-103.28 412.91,-93.15 407.29,-84.33"/>
<polygon fill="#63b8ff" stroke="#63b8ff" points="410.38,-82.68 402.05,-76.13 404.48,-86.45 410.38,-82.68"/>
</a>
</g>
</g>
<!-- Node15 -->
<g id="Node000015" class="node">
<title>Node15</title>
<g id="a_Node000015"><a xlink:href="ft__printf_8h.html" target="_top" xlink:title=" ">
<polygon fill="white" stroke="#666666" points="547.75,-74.5 491.25,-74.5 491.25,-55.25 547.75,-55.25 547.75,-74.5"/>
<text text-anchor="middle" x="519.5" y="-61" font-family="Helvetica,sans-Serif" font-size="10.00">ft_printf.h</text>
</a>
</g>
</g>
<!-- Node11&#45;&gt;Node15 -->
<g id="edge20_Node000011_Node000015" class="edge">
<title>Node11&#45;&gt;Node15</title>
<g id="a_edge20_Node000011_Node000015"><a xlink:title=" ">
<path fill="none" stroke="#63b8ff" d="M439.55,-110.09C451.68,-101.91 472.02,-89.71 489.24,-80.19"/>
<polygon fill="#63b8ff" stroke="#63b8ff" points="490.47,-83.51 497.6,-75.67 487.14,-77.35 490.47,-83.51"/>
</a>
</g>
</g>
<!-- Node14&#45;&gt;Node4 -->
<g id="edge17_Node000014_Node000004" class="edge">
<title>Node14&#45;&gt;Node4</title>
<g id="a_edge17_Node000014_Node000004"><a xlink:title=" ">
<path fill="none" stroke="#63b8ff" d="M373.11,-54.84C352.06,-46.35 320.3,-33.54 296.38,-23.89"/>
<polygon fill="#63b8ff" stroke="#63b8ff" points="297.99,-20.76 287.41,-20.27 295.37,-27.26 297.99,-20.76"/>
</a>
</g>
</g>
<!-- Node14&#45;&gt;Node7 -->
<g id="edge19_Node000014_Node000007" class="edge">
<title>Node14&#45;&gt;Node7</title>
<g id="a_edge19_Node000014_Node000007"><a xlink:title=" ">
<path fill="none" stroke="#63b8ff" d="M400.12,-55.08C403.75,-48.19 408.93,-38.34 413.49,-29.66"/>
<polygon fill="#63b8ff" stroke="#63b8ff" points="416.52,-31.43 418.07,-20.95 410.32,-28.17 416.52,-31.43"/>
</a>
</g>
</g>
<!-- Node14&#45;&gt;Node9 -->
<g id="edge18_Node000014_Node000009" class="edge">
<title>Node14&#45;&gt;Node9</title>
<g id="a_edge18_Node000014_Node000009"><a xlink:title=" ">
<path fill="none" stroke="#63b8ff" d="M389.06,-55.08C383.84,-47.96 376.31,-37.68 369.81,-28.8"/>
<polygon fill="#63b8ff" stroke="#63b8ff" points="372.71,-26.83 363.97,-20.83 367.06,-30.97 372.71,-26.83"/>
</a>
</g>
</g>
<!-- Node15&#45;&gt;Node7 -->
<g id="edge22_Node000015_Node000007" class="edge">
<title>Node15&#45;&gt;Node7</title>
<g id="a_edge22_Node000015_Node000007"><a xlink:title=" ">
<path fill="none" stroke="#63b8ff" d="M503.21,-54.84C488.6,-46.73 466.87,-34.68 449.79,-25.21"/>
<polygon fill="#63b8ff" stroke="#63b8ff" points="451.63,-22.23 441.19,-20.44 448.24,-28.35 451.63,-22.23"/>
</a>
</g>
</g>
<!-- Node15&#45;&gt;Node11 -->
<g id="edge23_Node000015_Node000011" class="edge">
<title>Node15&#45;&gt;Node11</title>
<g id="a_edge23_Node000015_Node000011"><a xlink:title=" ">
<path fill="none" stroke="#63b8ff" d="M509.52,-74.86C497.29,-83.12 476.63,-95.51 459.28,-105.07"/>
<polygon fill="#63b8ff" stroke="#63b8ff" points="458,-101.79 450.86,-109.61 461.32,-107.95 458,-101.79"/>
</a>
</g>
</g>
<!-- Node16 -->
<g id="Node000016" class="node">
<title>Node16</title>
<g id="a_Node000016"><a xlink:title=" ">
<polygon fill="#e0e0e0" stroke="#999999" points="544.75,-19.25 494.25,-19.25 494.25,0 544.75,0 544.75,-19.25"/>
<text text-anchor="middle" x="519.5" y="-5.75" font-family="Helvetica,sans-Serif" font-size="10.00">stdarg.h</text>
</a>
</g>
</g>
<!-- Node15&#45;&gt;Node16 -->
<g id="edge21_Node000015_Node000016" class="edge">
<title>Node15&#45;&gt;Node16</title>
<g id="a_edge21_Node000015_Node000016"><a xlink:title=" ">
<path fill="none" stroke="#63b8ff" d="M519.5,-55.08C519.5,-48.57 519.5,-39.42 519.5,-31.12"/>
<polygon fill="#63b8ff" stroke="#63b8ff" points="523,-31.12 519.5,-21.12 516,-31.12 523,-31.12"/>
</a>
</g>
</g>
</g>
</svg>
