<?xml version="1.0" encoding="UTF-8" standalone="no"?>
<!DOCTYPE svg PUBLIC "-//W3C//DTD SVG 1.1//EN"
 "http://www.w3.org/Graphics/SVG/1.1/DTD/svg11.dtd">
<!-- Generated by graphviz version 9.0.0 (20230911.1827)
 -->
<!-- Title: split_vector_string Pages: 1 -->
<svg width="791pt" height="101pt"
 viewBox="0.00 0.00 790.50 101.25" xmlns="http://www.w3.org/2000/svg" xmlns:xlink="http://www.w3.org/1999/xlink">
<g id="graph0" class="graph" transform="scale(1 1) rotate(0) translate(4 97.25)">
<title>split_vector_string</title>
<!-- Node1 -->
<g id="Node000001" class="node">
<title>Node1</title>
<g id="a_Node000001"><a xlink:title=" ">
<polygon fill="#999999" stroke="#666666" points="782.5,-56.25 687,-56.25 687,-37 782.5,-37 782.5,-56.25"/>
<text text-anchor="middle" x="734.75" y="-42.75" font-family="Helvetica,sans-Serif" font-size="10.00">split_vector_string</text>
</a>
</g>
</g>
<!-- Node2 -->
<g id="Node000002" class="node">
<title>Node2</title>
<g id="a_Node000002"><a xlink:href="parse__utils_8c.html#a70a5145ad572a59954c71984bf73ca01" target="_top" xlink:title=" ">
<polygon fill="white" stroke="#666666" points="651,-56.25 556.25,-56.25 556.25,-37 651,-37 651,-56.25"/>
<text text-anchor="middle" x="603.62" y="-42.75" font-family="Helvetica,sans-Serif" font-size="10.00">parse_assign_vec</text>
</a>
</g>
</g>
<!-- Node1&#45;&gt;Node2 -->
<g id="edge1_Node000001_Node000002" class="edge">
<title>Node1&#45;&gt;Node2</title>
<g id="a_edge1_Node000001_Node000002"><a xlink:title=" ">
<path fill="none" stroke="#63b8ff" d="M675.48,-46.62C667.4,-46.62 659.19,-46.62 651.36,-46.62"/>
<polygon fill="#63b8ff" stroke="#63b8ff" points="675.25,-50.13 685.25,-46.63 675.25,-43.13 675.25,-50.13"/>
</a>
</g>
</g>
<!-- Node3 -->
<g id="Node000003" class="node">
<title>Node3</title>
<g id="a_Node000003"><a xlink:href="parse__camera__light_8c.html#a00b9b6a4aadecaaf341d2fc409582b39" target="_top" xlink:title=" ">
<polygon fill="white" stroke="#666666" points="519.88,-93.25 442.38,-93.25 442.38,-74 519.88,-74 519.88,-93.25"/>
<text text-anchor="middle" x="481.12" y="-79.75" font-family="Helvetica,sans-Serif" font-size="10.00">parse_camera</text>
</a>
</g>
</g>
<!-- Node2&#45;&gt;Node3 -->
<g id="edge2_Node000002_Node000003" class="edge">
<title>Node2&#45;&gt;Node3</title>
<g id="a_edge2_Node000002_Node000003"><a xlink:title=" ">
<path fill="none" stroke="#63b8ff" d="M558.94,-60.04C544.44,-64.49 528.56,-69.37 515.01,-73.53"/>
<polygon fill="#63b8ff" stroke="#63b8ff" points="559.72,-63.46 568.25,-57.18 557.66,-56.77 559.72,-63.46"/>
</a>
</g>
</g>
<!-- Node8 -->
<g id="Node000008" class="node">
<title>Node8</title>
<g id="a_Node000008"><a xlink:href="parse__objects_8c.html#a438a08a219ba336c395096067e52bb1b" target="_top" xlink:title=" ">
<polygon fill="white" stroke="#666666" points="520.25,-56.25 442,-56.25 442,-37 520.25,-37 520.25,-56.25"/>
<text text-anchor="middle" x="481.12" y="-42.75" font-family="Helvetica,sans-Serif" font-size="10.00">parse_cylinder</text>
</a>
</g>
</g>
<!-- Node2&#45;&gt;Node8 -->
<g id="edge7_Node000002_Node000008" class="edge">
<title>Node2&#45;&gt;Node8</title>
<g id="a_edge7_Node000002_Node000008"><a xlink:title=" ">
<path fill="none" stroke="#63b8ff" d="M544.55,-46.62C536.35,-46.62 528.1,-46.62 520.4,-46.62"/>
<polygon fill="#63b8ff" stroke="#63b8ff" points="544.52,-50.13 554.52,-46.63 544.52,-43.13 544.52,-50.13"/>
</a>
</g>
</g>
<!-- Node9 -->
<g id="Node000009" class="node">
<title>Node9</title>
<g id="a_Node000009"><a xlink:href="parse__objects_8c.html#a7e641794acee51578d8539e361635c47" target="_top" xlink:title=" ">
<polygon fill="white" stroke="#666666" points="515.38,-19.25 446.88,-19.25 446.88,0 515.38,0 515.38,-19.25"/>
<text text-anchor="middle" x="481.12" y="-5.75" font-family="Helvetica,sans-Serif" font-size="10.00">parse_plane</text>
</a>
</g>
</g>
<!-- Node2&#45;&gt;Node9 -->
<g id="edge9_Node000002_Node000009" class="edge">
<title>Node2&#45;&gt;Node9</title>
<g id="a_edge9_Node000002_Node000009"><a xlink:title=" ">
<path fill="none" stroke="#63b8ff" d="M558.94,-33.21C544.44,-28.76 528.56,-23.88 515.01,-19.72"/>
<polygon fill="#63b8ff" stroke="#63b8ff" points="557.66,-36.48 568.25,-36.07 559.72,-29.79 557.66,-36.48"/>
</a>
</g>
</g>
<!-- Node4 -->
<g id="Node000004" class="node">
<title>Node4</title>
<g id="a_Node000004"><a xlink:href="parse__main_8c.html#a92aa268ea4b3d5c808364ca73d913cbe" target="_top" xlink:title=" ">
<polygon fill="white" stroke="#666666" points="406,-56.25 318,-56.25 318,-37 406,-37 406,-56.25"/>
<text text-anchor="middle" x="362" y="-42.75" font-family="Helvetica,sans-Serif" font-size="10.00">parse_func_redir</text>
</a>
</g>
</g>
<!-- Node3&#45;&gt;Node4 -->
<g id="edge3_Node000003_Node000004" class="edge">
<title>Node3&#45;&gt;Node4</title>
<g id="a_edge3_Node000003_Node000004"><a xlink:title=" ">
<path fill="none" stroke="#63b8ff" d="M437.25,-70.08C423.27,-65.66 408,-60.84 394.97,-56.72"/>
<polygon fill="#63b8ff" stroke="#63b8ff" points="436.09,-73.38 446.68,-73.06 438.2,-66.71 436.09,-73.38"/>
</a>
</g>
</g>
<!-- Node5 -->
<g id="Node000005" class="node">
<title>Node5</title>
<g id="a_Node000005"><a xlink:href="parse__main_8c.html#a5d7da6ab7925ffda04b676ef38880723" target="_top" xlink:title="Reading a line from the given .rt file and splitting the given line with the space (&#39; &#39;) delimiter....">
<polygon fill="white" stroke="#666666" points="282,-56.25 186.5,-56.25 186.5,-37 282,-37 282,-56.25"/>
<text text-anchor="middle" x="234.25" y="-42.75" font-family="Helvetica,sans-Serif" font-size="10.00">parse_rt_read_line</text>
</a>
</g>
</g>
<!-- Node4&#45;&gt;Node5 -->
<g id="edge4_Node000004_Node000005" class="edge">
<title>Node4&#45;&gt;Node5</title>
<g id="a_edge4_Node000004_Node000005"><a xlink:title=" ">
<path fill="none" stroke="#63b8ff" d="M306.29,-46.62C298.36,-46.62 290.25,-46.62 282.48,-46.62"/>
<polygon fill="#63b8ff" stroke="#63b8ff" points="306.21,-50.13 316.21,-46.63 306.21,-43.13 306.21,-50.13"/>
</a>
</g>
</g>
<!-- Node6 -->
<g id="Node000006" class="node">
<title>Node6</title>
<g id="a_Node000006"><a xlink:href="parse__main_8c.html#a62c4de2f960942eba61e7de12c387ae4" target="_top" xlink:title="Entry function to parsing .rt file where the file is attempted to be opened, t_parse structure is ini...">
<polygon fill="white" stroke="#666666" points="150.5,-56.25 73,-56.25 73,-37 150.5,-37 150.5,-56.25"/>
<text text-anchor="middle" x="111.75" y="-42.75" font-family="Helvetica,sans-Serif" font-size="10.00">parse_rt_main</text>
</a>
</g>
</g>
<!-- Node5&#45;&gt;Node6 -->
<g id="edge5_Node000005_Node000006" class="edge">
<title>Node5&#45;&gt;Node6</title>
<g id="a_edge5_Node000005_Node000006"><a xlink:title=" ">
<path fill="none" stroke="#63b8ff" d="M174.86,-46.62C166.69,-46.62 158.47,-46.62 150.81,-46.62"/>
<polygon fill="#63b8ff" stroke="#63b8ff" points="174.8,-50.13 184.8,-46.63 174.8,-43.13 174.8,-50.13"/>
</a>
</g>
</g>
<!-- Node7 -->
<g id="Node000007" class="node">
<title>Node7</title>
<g id="a_Node000007"><a xlink:href="mini__ray_8c.html#a0c99d968a34e803d378692bde2e3f18f" target="_top" xlink:title=" ">
<polygon fill="white" stroke="#666666" points="37,-56.25 0,-56.25 0,-37 37,-37 37,-56.25"/>
<text text-anchor="middle" x="18.5" y="-42.75" font-family="Helvetica,sans-Serif" font-size="10.00">main</text>
</a>
</g>
</g>
<!-- Node6&#45;&gt;Node7 -->
<g id="edge6_Node000006_Node000007" class="edge">
<title>Node6&#45;&gt;Node7</title>
<g id="a_edge6_Node000006_Node000007"><a xlink:title=" ">
<path fill="none" stroke="#63b8ff" d="M61.23,-46.62C52.6,-46.62 44.15,-46.62 37.14,-46.62"/>
<polygon fill="#63b8ff" stroke="#63b8ff" points="61.07,-50.13 71.07,-46.63 61.07,-43.13 61.07,-50.13"/>
</a>
</g>
</g>
<!-- Node8&#45;&gt;Node4 -->
<g id="edge8_Node000008_Node000004" class="edge">
<title>Node8&#45;&gt;Node4</title>
<g id="a_edge8_Node000008_Node000004"><a xlink:title=" ">
<path fill="none" stroke="#63b8ff" d="M430.31,-46.62C422.33,-46.62 414.12,-46.62 406.31,-46.62"/>
<polygon fill="#63b8ff" stroke="#63b8ff" points="430.26,-50.13 440.26,-46.63 430.26,-43.13 430.26,-50.13"/>
</a>
</g>
</g>
<!-- Node9&#45;&gt;Node4 -->
<g id="edge10_Node000009_Node000004" class="edge">
<title>Node9&#45;&gt;Node4</title>
<g id="a_edge10_Node000009_Node000004"><a xlink:title=" ">
<path fill="none" stroke="#63b8ff" d="M437.25,-23.17C423.27,-27.59 408,-32.41 394.97,-36.53"/>
<polygon fill="#63b8ff" stroke="#63b8ff" points="438.2,-26.54 446.68,-20.19 436.09,-19.87 438.2,-26.54"/>
</a>
</g>
</g>
</g>
</svg>
