<?xml version="1.0" encoding="UTF-8" standalone="no"?>
<!DOCTYPE svg PUBLIC "-//W3C//DTD SVG 1.1//EN"
 "http://www.w3.org/Graphics/SVG/1.1/DTD/svg11.dtd">
<!-- Generated by graphviz version 9.0.0 (20230911.1827)
 -->
<!-- Title: parse_camera Pages: 1 -->
<svg width="721pt" height="734pt"
 viewBox="0.00 0.00 721.25 734.48" xmlns="http://www.w3.org/2000/svg" xmlns:xlink="http://www.w3.org/1999/xlink">
<g id="graph0" class="graph" transform="scale(1 1) rotate(0) translate(4 730.48)">
<title>parse_camera</title>
<!-- Node1 -->
<g id="Node000001" class="node">
<title>Node1</title>
<g id="a_Node000001"><a xlink:title=" ">
<polygon fill="#999999" stroke="#666666" points="77.5,-220.48 0,-220.48 0,-201.23 77.5,-201.23 77.5,-220.48"/>
<text text-anchor="middle" x="38.75" y="-206.98" font-family="Helvetica,sans-Serif" font-size="10.00">parse_camera</text>
</a>
</g>
</g>
<!-- Node2 -->
<g id="Node000002" class="node">
<title>Node2</title>
<g id="a_Node000002"><a xlink:href="add__to__dptr_8c.html#a6bacbaa4fafa50abbd756839de2da8de" target="_top" xlink:title=" ">
<polygon fill="white" stroke="#666666" points="195.88,-688.48 134.12,-688.48 134.12,-669.23 195.88,-669.23 195.88,-688.48"/>
<text text-anchor="middle" x="165" y="-674.98" font-family="Helvetica,sans-Serif" font-size="10.00">add_to_ptr</text>
</a>
</g>
</g>
<!-- Node1&#45;&gt;Node2 -->
<g id="edge1_Node000001_Node000002" class="edge">
<title>Node1&#45;&gt;Node2</title>
<g id="a_edge1_Node000001_Node000002"><a xlink:title=" ">
<path fill="none" stroke="#63b8ff" d="M39.57,-220.73C39.1,-268.11 41.42,-475.7 113.5,-622.85 120.7,-637.55 132.91,-651.24 143.52,-661.41"/>
<polygon fill="#63b8ff" stroke="#63b8ff" points="141.04,-663.89 150.79,-668.05 145.76,-658.72 141.04,-663.89"/>
</a>
</g>
</g>
<!-- Node4 -->
<g id="Node000004" class="node">
<title>Node4</title>
<g id="a_Node000004"><a xlink:href="camera__create_8c.html#a1ea48ef2d900d0cc512be703bb36b33e" target="_top" xlink:title=" ">
<polygon fill="white" stroke="#666666" points="198.12,-613.48 131.88,-613.48 131.88,-594.23 198.12,-594.23 198.12,-613.48"/>
<text text-anchor="middle" x="165" y="-599.98" font-family="Helvetica,sans-Serif" font-size="10.00">camera_init</text>
</a>
</g>
</g>
<!-- Node1&#45;&gt;Node4 -->
<g id="edge3_Node000001_Node000004" class="edge">
<title>Node1&#45;&gt;Node4</title>
<g id="a_edge3_Node000001_Node000004"><a xlink:title=" ">
<path fill="none" stroke="#63b8ff" d="M41.27,-220.97C47.27,-259.64 71.11,-401.31 113.5,-510.85 123.81,-537.49 140.23,-566.08 151.53,-584.42"/>
<polygon fill="#63b8ff" stroke="#63b8ff" points="148.42,-586.05 156.7,-592.66 154.35,-582.33 148.42,-586.05"/>
</a>
</g>
</g>
<!-- Node6 -->
<g id="Node000006" class="node">
<title>Node6</title>
<g id="a_Node000006"><a xlink:href="ft__atod_8c.html#ad55518c88cf22904ac355596269be400" target="_top" xlink:title=" ">
<polygon fill="white" stroke="#666666" points="611.75,-267.48 565.75,-267.48 565.75,-248.23 611.75,-248.23 611.75,-267.48"/>
<text text-anchor="middle" x="588.75" y="-253.98" font-family="Helvetica,sans-Serif" font-size="10.00">ft_atod</text>
</a>
</g>
</g>
<!-- Node1&#45;&gt;Node6 -->
<g id="edge5_Node000001_Node000006" class="edge">
<title>Node1&#45;&gt;Node6</title>
<g id="a_edge5_Node000001_Node000006"><a xlink:title=" ">
<path fill="none" stroke="#63b8ff" d="M51.67,-200.93C82.47,-176.03 168.16,-111.32 252.5,-88.85 308.65,-73.89 325.66,-81.12 383.25,-88.85 446.73,-97.37 472.73,-86.23 522.25,-126.85 557.34,-155.64 575.34,-207.97 583.02,-237.02"/>
<polygon fill="#63b8ff" stroke="#63b8ff" points="579.55,-237.56 585.34,-246.43 586.35,-235.89 579.55,-237.56"/>
</a>
</g>
</g>
<!-- Node8 -->
<g id="Node000008" class="node">
<title>Node8</title>
<g id="a_Node000008"><a xlink:href="matrix__create_8c.html#a5291384d37d735f9c3fc33c03d2788ad" target="_top" xlink:title=" ">
<polygon fill="white" stroke="#666666" points="202.25,-51.48 127.75,-51.48 127.75,-32.23 202.25,-32.23 202.25,-51.48"/>
<text text-anchor="middle" x="165" y="-37.98" font-family="Helvetica,sans-Serif" font-size="10.00">matrix_create</text>
</a>
</g>
</g>
<!-- Node1&#45;&gt;Node8 -->
<g id="edge7_Node000001_Node000008" class="edge">
<title>Node1&#45;&gt;Node8</title>
<g id="a_edge7_Node000001_Node000008"><a xlink:title=" ">
<path fill="none" stroke="#63b8ff" d="M42.32,-201.06C49.46,-175.59 71.81,-106.43 113.5,-65.85 116.73,-62.7 120.46,-59.91 124.39,-57.44"/>
<polygon fill="#63b8ff" stroke="#63b8ff" points="125.99,-60.55 133.09,-52.69 122.64,-54.41 125.99,-60.55"/>
</a>
</g>
</g>
<!-- Node10 -->
<g id="Node000010" class="node">
<title>Node10</title>
<g id="a_Node000010"><a xlink:href="safe__malloc_8c.html#ab8bcda0e59b6f8eab1bfd9f92de50c6c" target="_top" xlink:title=" ">
<polygon fill="white" stroke="#666666" points="352.12,-32.48 283.62,-32.48 283.62,-13.23 352.12,-13.23 352.12,-32.48"/>
<text text-anchor="middle" x="317.88" y="-18.98" font-family="Helvetica,sans-Serif" font-size="10.00">safe_malloc</text>
</a>
</g>
</g>
<!-- Node1&#45;&gt;Node10 -->
<g id="edge60_Node000001_Node000010" class="edge">
<title>Node1&#45;&gt;Node10</title>
<g id="a_edge60_Node000001_Node000010"><a xlink:title=" ">
<path fill="none" stroke="#63b8ff" d="M40.05,-200.74C41.62,-168.09 51.51,-65.12 113.5,-22.85 161,9.54 230.35,0.73 274.54,-9.98"/>
<polygon fill="#63b8ff" stroke="#63b8ff" points="273.45,-13.31 284.01,-12.41 275.2,-6.53 273.45,-13.31"/>
</a>
</g>
</g>
<!-- Node12 -->
<g id="Node000012" class="node">
<title>Node12</title>
<g id="a_Node000012"><a xlink:href="parse__utils_8c.html#a4b09ddfa5e35fa7e45323421232772ce" target="_top" xlink:title=" ">
<polygon fill="white" stroke="#666666" points="216.5,-202.48 113.5,-202.48 113.5,-183.23 216.5,-183.23 216.5,-202.48"/>
<text text-anchor="middle" x="165" y="-188.98" font-family="Helvetica,sans-Serif" font-size="10.00">parse_assign_coord</text>
</a>
</g>
</g>
<!-- Node1&#45;&gt;Node12 -->
<g id="edge11_Node000001_Node000012" class="edge">
<title>Node1&#45;&gt;Node12</title>
<g id="a_edge11_Node000001_Node000012"><a xlink:title=" ">
<path fill="none" stroke="#63b8ff" d="M77.7,-205.35C85.36,-204.24 93.59,-203.05 101.83,-201.86"/>
<polygon fill="#63b8ff" stroke="#63b8ff" points="102.11,-205.35 111.51,-200.45 101.11,-198.42 102.11,-205.35"/>
</a>
</g>
</g>
<!-- Node23 -->
<g id="Node000023" class="node">
<title>Node23</title>
<g id="a_Node000023"><a xlink:href="parse__utils_8c.html#a70a5145ad572a59954c71984bf73ca01" target="_top" xlink:title=" ">
<polygon fill="white" stroke="#666666" points="212.38,-257.48 117.62,-257.48 117.62,-238.23 212.38,-238.23 212.38,-257.48"/>
<text text-anchor="middle" x="165" y="-243.98" font-family="Helvetica,sans-Serif" font-size="10.00">parse_assign_vec</text>
</a>
</g>
</g>
<!-- Node1&#45;&gt;Node23 -->
<g id="edge28_Node000001_Node000023" class="edge">
<title>Node1&#45;&gt;Node23</title>
<g id="a_edge28_Node000001_Node000023"><a xlink:title=" ">
<path fill="none" stroke="#63b8ff" d="M73.7,-220.96C87.81,-225.16 104.38,-230.09 119.44,-234.58"/>
<polygon fill="#63b8ff" stroke="#63b8ff" points="118.06,-237.82 128.64,-237.32 120.05,-231.11 118.06,-237.82"/>
</a>
</g>
</g>
<!-- Node27 -->
<g id="Node000027" class="node">
<title>Node27</title>
<g id="a_Node000027"><a xlink:href="parse__utils_8c.html#a3a792671ccd6560d6c42352319889a0c" target="_top" xlink:title=" ">
<polygon fill="white" stroke="#666666" points="213.5,-501.48 116.5,-501.48 116.5,-482.23 213.5,-482.23 213.5,-501.48"/>
<text text-anchor="middle" x="165" y="-487.98" font-family="Helvetica,sans-Serif" font-size="10.00">parse_validate_obj</text>
</a>
</g>
</g>
<!-- Node1&#45;&gt;Node27 -->
<g id="edge38_Node000001_Node000027" class="edge">
<title>Node1&#45;&gt;Node27</title>
<g id="a_edge38_Node000001_Node000027"><a xlink:title=" ">
<path fill="none" stroke="#63b8ff" d="M44.17,-220.85C62.21,-261.65 130.45,-415.98 155.07,-471.66"/>
<polygon fill="#63b8ff" stroke="#63b8ff" points="151.77,-472.85 159.02,-480.58 158.18,-470.02 151.77,-472.85"/>
</a>
</g>
</g>
<!-- Node3 -->
<g id="Node000003" class="node">
<title>Node3</title>
<g id="a_Node000003"><a xlink:href="matrix__free_8c.html#ab28d26aa6d34d5c2a3b83b9ee519fec6" target="_top" xlink:title=" ">
<polygon fill="white" stroke="#666666" points="349.88,-726.48 285.88,-726.48 285.88,-707.23 349.88,-707.23 349.88,-726.48"/>
<text text-anchor="middle" x="317.88" y="-712.98" font-family="Helvetica,sans-Serif" font-size="10.00">free_matrix</text>
</a>
</g>
</g>
<!-- Node2&#45;&gt;Node3 -->
<g id="edge2_Node000002_Node000003" class="edge">
<title>Node2&#45;&gt;Node3</title>
<g id="a_edge2_Node000002_Node000003"><a xlink:title=" ">
<path fill="none" stroke="#63b8ff" d="M196.17,-686.45C218.62,-692.1 249.55,-699.89 274.48,-706.17"/>
<polygon fill="#63b8ff" stroke="#63b8ff" points="273.44,-709.52 283.99,-708.57 275.15,-702.73 273.44,-709.52"/>
</a>
</g>
</g>
<!-- Node5 -->
<g id="Node000005" class="node">
<title>Node5</title>
<g id="a_Node000005"><a xlink:href="camera__utils_8c.html#a624bb69fa501523088a65734a6d2f67a" target="_top" xlink:title=" ">
<polygon fill="white" stroke="#666666" points="352.5,-689.48 283.25,-689.48 283.25,-670.23 352.5,-670.23 352.5,-689.48"/>
<text text-anchor="middle" x="317.88" y="-675.98" font-family="Helvetica,sans-Serif" font-size="10.00">aspect_ratio</text>
</a>
</g>
</g>
<!-- Node4&#45;&gt;Node5 -->
<g id="edge4_Node000004_Node000005" class="edge">
<title>Node4&#45;&gt;Node5</title>
<g id="a_edge4_Node000004_Node000005"><a xlink:title=" ">
<path fill="none" stroke="#63b8ff" d="M180.84,-613.93C197.71,-625.11 226.3,-643.22 252.5,-655.85 259.8,-659.37 267.77,-662.71 275.52,-665.72"/>
<polygon fill="#63b8ff" stroke="#63b8ff" points="274.25,-668.99 284.85,-669.21 276.71,-662.43 274.25,-668.99"/>
</a>
</g>
</g>
<!-- Node7 -->
<g id="Node000007" class="node">
<title>Node7</title>
<g id="a_Node000007"><a xlink:href="LIBFT_2ft__isdigit_8c.html#a2cf15b8a1a277d1e2ce3654101a2003d" target="_top" xlink:title=" ">
<polygon fill="white" stroke="#666666" points="710.62,-407.48 657.88,-407.48 657.88,-388.23 710.62,-388.23 710.62,-407.48"/>
<text text-anchor="middle" x="684.25" y="-393.98" font-family="Helvetica,sans-Serif" font-size="10.00">ft_isdigit</text>
</a>
</g>
</g>
<!-- Node6&#45;&gt;Node7 -->
<g id="edge6_Node000006_Node000007" class="edge">
<title>Node6&#45;&gt;Node7</title>
<g id="a_edge6_Node000006_Node000007"><a xlink:title=" ">
<path fill="none" stroke="#63b8ff" d="M596.47,-267.92C611.91,-291.03 650.08,-348.19 670.27,-378.41"/>
<polygon fill="#63b8ff" stroke="#63b8ff" points="667.28,-380.24 675.75,-386.61 673.1,-376.35 667.28,-380.24"/>
</a>
</g>
</g>
<!-- Node9 -->
<g id="Node000009" class="node">
<title>Node9</title>
<g id="a_Node000009"><a xlink:href="free__dptr_8c.html#aaa705b6d12fb1a9a15e6103879ec0ea0" target="_top" xlink:title=" ">
<polygon fill="white" stroke="#666666" points="345,-117.48 290.75,-117.48 290.75,-98.23 345,-98.23 345,-117.48"/>
<text text-anchor="middle" x="317.88" y="-103.98" font-family="Helvetica,sans-Serif" font-size="10.00">free_dptr</text>
</a>
</g>
</g>
<!-- Node8&#45;&gt;Node9 -->
<g id="edge8_Node000008_Node000009" class="edge">
<title>Node8&#45;&gt;Node9</title>
<g id="a_edge8_Node000008_Node000009"><a xlink:title=" ">
<path fill="none" stroke="#63b8ff" d="M188.91,-51.87C214.06,-62.87 254.66,-80.63 283.38,-93.2"/>
<polygon fill="#63b8ff" stroke="#63b8ff" points="281.79,-96.32 292.36,-97.13 284.6,-89.91 281.79,-96.32"/>
</a>
</g>
</g>
<!-- Node8&#45;&gt;Node10 -->
<g id="edge9_Node000008_Node000010" class="edge">
<title>Node8&#45;&gt;Node10</title>
<g id="a_edge9_Node000008_Node000010"><a xlink:title=" ">
<path fill="none" stroke="#63b8ff" d="M202.52,-37.25C223.47,-34.61 249.92,-31.28 272.11,-28.49"/>
<polygon fill="#63b8ff" stroke="#63b8ff" points="272.28,-31.99 281.77,-27.27 271.41,-25.05 272.28,-31.99"/>
</a>
</g>
</g>
<!-- Node11 -->
<g id="Node000011" class="node">
<title>Node11</title>
<g id="a_Node000011"><a xlink:href="LIBFT_2ft__bzero_8c.html#a5937ab0d08e31d0e3e4a16ec71e293a1" target="_top" xlink:title=" ">
<polygon fill="white" stroke="#666666" points="496,-32.48 445.5,-32.48 445.5,-13.23 496,-13.23 496,-32.48"/>
<text text-anchor="middle" x="470.75" y="-18.98" font-family="Helvetica,sans-Serif" font-size="10.00">ft_bzero</text>
</a>
</g>
</g>
<!-- Node10&#45;&gt;Node11 -->
<g id="edge10_Node000010_Node000011" class="edge">
<title>Node10&#45;&gt;Node11</title>
<g id="a_edge10_Node000010_Node000011"><a xlink:title=" ">
<path fill="none" stroke="#63b8ff" d="M352.36,-22.85C376.53,-22.85 409.13,-22.85 433.84,-22.85"/>
<polygon fill="#63b8ff" stroke="#63b8ff" points="433.75,-26.35 443.75,-22.85 433.75,-19.35 433.75,-26.35"/>
</a>
</g>
</g>
<!-- Node12&#45;&gt;Node9 -->
<g id="edge14_Node000012_Node000009" class="edge">
<title>Node12&#45;&gt;Node9</title>
<g id="a_edge14_Node000012_Node000009"><a xlink:title=" ">
<path fill="none" stroke="#63b8ff" d="M177.96,-182.9C194.08,-169.85 224.06,-146.86 252.5,-131.85 261.05,-127.34 270.64,-123.28 279.75,-119.84"/>
<polygon fill="#63b8ff" stroke="#63b8ff" points="280.88,-123.15 289.1,-116.47 278.51,-116.56 280.88,-123.15"/>
</a>
</g>
</g>
<!-- Node13 -->
<g id="Node000013" class="node">
<title>Node13</title>
<g id="a_Node000013"><a xlink:href="parse__assign__coord__utils_8c.html#acdc77317cdae9d7fca002fad8c2960a6" target="_top" xlink:title=" ">
<polygon fill="white" stroke="#666666" points="520.75,-155.48 420.75,-155.48 420.75,-136.23 520.75,-136.23 520.75,-155.48"/>
<text text-anchor="middle" x="470.75" y="-141.98" font-family="Helvetica,sans-Serif" font-size="10.00">assign_coordinates</text>
</a>
</g>
</g>
<!-- Node12&#45;&gt;Node13 -->
<g id="edge12_Node000012_Node000013" class="edge">
<title>Node12&#45;&gt;Node13</title>
<g id="a_edge12_Node000012_Node000013"><a xlink:title=" ">
<path fill="none" stroke="#63b8ff" d="M191.71,-182.84C208.7,-176.64 231.62,-169.09 252.5,-164.85 304.78,-154.24 365.33,-149.56 409.2,-147.49"/>
<polygon fill="#63b8ff" stroke="#63b8ff" points="409.2,-150.99 419.04,-147.06 408.89,-144 409.2,-150.99"/>
</a>
</g>
</g>
<!-- Node14 -->
<g id="Node000014" class="node">
<title>Node14</title>
<g id="a_Node000014"><a xlink:href="parse__assign__coord__utils_8c.html#af7ba7415e224810f4f203071b320ed6a" target="_top" xlink:title=" ">
<polygon fill="white" stroke="#666666" points="362.62,-193.48 273.12,-193.48 273.12,-174.23 362.62,-174.23 362.62,-193.48"/>
<text text-anchor="middle" x="317.88" y="-179.98" font-family="Helvetica,sans-Serif" font-size="10.00">split_coordinates</text>
</a>
</g>
</g>
<!-- Node12&#45;&gt;Node14 -->
<g id="edge15_Node000012_Node000014" class="edge">
<title>Node12&#45;&gt;Node14</title>
<g id="a_edge15_Node000012_Node000014"><a xlink:title=" ">
<path fill="none" stroke="#63b8ff" d="M216.66,-189.83C230.98,-188.97 246.64,-188.04 261.24,-187.17"/>
<polygon fill="#63b8ff" stroke="#63b8ff" points="261.38,-190.67 271.16,-186.58 260.97,-183.68 261.38,-190.67"/>
</a>
</g>
</g>
<!-- Node16 -->
<g id="Node000016" class="node">
<title>Node16</title>
<g id="a_Node000016"><a xlink:href="parse__assign__coord__utils_8c.html#a0f249ab97644690110e43ae95f50fec8" target="_top" xlink:title=" ">
<polygon fill="white" stroke="#666666" points="367.88,-316.1 267.88,-316.1 267.88,-285.6 367.88,-285.6 367.88,-316.1"/>
<text text-anchor="start" x="275.88" y="-302.6" font-family="Helvetica,sans-Serif" font-size="10.00">validate_coordinate</text>
<text text-anchor="middle" x="317.88" y="-291.35" font-family="Helvetica,sans-Serif" font-size="10.00">_values</text>
</a>
</g>
</g>
<!-- Node12&#45;&gt;Node16 -->
<g id="edge17_Node000012_Node000016" class="edge">
<title>Node12&#45;&gt;Node16</title>
<g id="a_edge17_Node000012_Node000016"><a xlink:title=" ">
<path fill="none" stroke="#63b8ff" d="M182.44,-202.72C192.82,-209.38 206.18,-218.77 216.5,-228.85 235.58,-247.48 231.14,-260.88 252.5,-276.85 254.22,-278.14 256.02,-279.36 257.87,-280.52"/>
<polygon fill="#63b8ff" stroke="#63b8ff" points="255.75,-283.35 266.2,-285.12 259.14,-277.22 255.75,-283.35"/>
</a>
</g>
</g>
<!-- Node19 -->
<g id="Node000019" class="node">
<title>Node19</title>
<g id="a_Node000019"><a xlink:href="parse__assign__coord__utils_8c.html#a71d2eb8bad13d888dca97ba273b97aec" target="_top" xlink:title=" ">
<polygon fill="white" stroke="#666666" points="370.5,-353.48 265.25,-353.48 265.25,-334.23 370.5,-334.23 370.5,-353.48"/>
<text text-anchor="middle" x="317.88" y="-339.98" font-family="Helvetica,sans-Serif" font-size="10.00">validate_input_string</text>
</a>
</g>
</g>
<!-- Node12&#45;&gt;Node19 -->
<g id="edge21_Node000012_Node000019" class="edge">
<title>Node12&#45;&gt;Node19</title>
<g id="a_edge21_Node000012_Node000019"><a xlink:title=" ">
<path fill="none" stroke="#63b8ff" d="M185.45,-202.95C195.87,-209.2 208.23,-218.09 216.5,-228.85 244.26,-264.98 219.14,-293.81 252.5,-324.85 253.73,-325.99 255.02,-327.06 256.36,-328.07"/>
<polygon fill="#63b8ff" stroke="#63b8ff" points="254.25,-330.88 264.61,-333.06 257.87,-324.89 254.25,-330.88"/>
</a>
</g>
</g>
<!-- Node13&#45;&gt;Node6 -->
<g id="edge13_Node000013_Node000006" class="edge">
<title>Node13&#45;&gt;Node6</title>
<g id="a_edge13_Node000013_Node000006"><a xlink:title=" ">
<path fill="none" stroke="#63b8ff" d="M487,-155.72C497.39,-162.75 511.2,-172.71 522.25,-182.85 541.45,-200.47 560.74,-223.34 573.37,-239.17"/>
<polygon fill="#63b8ff" stroke="#63b8ff" points="570.44,-241.11 579.37,-246.82 575.95,-236.79 570.44,-241.11"/>
</a>
</g>
</g>
<!-- Node15 -->
<g id="Node000015" class="node">
<title>Node15</title>
<g id="a_Node000015"><a xlink:href="LIBFT_2ft__split_8c.html#aa65c9de65051c8c589286cf133c4a1f4" target="_top" xlink:title=" ">
<polygon fill="white" stroke="#666666" points="493.38,-211.48 448.12,-211.48 448.12,-192.23 493.38,-192.23 493.38,-211.48"/>
<text text-anchor="middle" x="470.75" y="-197.98" font-family="Helvetica,sans-Serif" font-size="10.00">ft_split</text>
</a>
</g>
</g>
<!-- Node14&#45;&gt;Node15 -->
<g id="edge16_Node000014_Node000015" class="edge">
<title>Node14&#45;&gt;Node15</title>
<g id="a_edge16_Node000014_Node000015"><a xlink:title=" ">
<path fill="none" stroke="#63b8ff" d="M362.92,-189.1C386.4,-191.91 414.83,-195.3 436.45,-197.88"/>
<polygon fill="#63b8ff" stroke="#63b8ff" points="435.84,-201.33 446.19,-199.04 436.67,-194.38 435.84,-201.33"/>
</a>
</g>
</g>
<!-- Node17 -->
<g id="Node000017" class="node">
<title>Node17</title>
<g id="a_Node000017"><a xlink:href="check__range_8c.html#a31d1b2f2b0c6260cc272247fb1e281e4" target="_top" xlink:title=" ">
<polygon fill="white" stroke="#666666" points="506.5,-427.48 435,-427.48 435,-408.23 506.5,-408.23 506.5,-427.48"/>
<text text-anchor="middle" x="470.75" y="-413.98" font-family="Helvetica,sans-Serif" font-size="10.00">check_range</text>
</a>
</g>
</g>
<!-- Node16&#45;&gt;Node17 -->
<g id="edge18_Node000016_Node000017" class="edge">
<title>Node16&#45;&gt;Node17</title>
<g id="a_edge18_Node000016_Node000017"><a xlink:title=" ">
<path fill="none" stroke="#63b8ff" d="M368.22,-316.49C373.47,-318.95 378.59,-321.73 383.25,-324.85 413.5,-345.07 440.69,-377.86 456.2,-398.61"/>
<polygon fill="#63b8ff" stroke="#63b8ff" points="453.23,-400.48 461.94,-406.51 458.89,-396.36 453.23,-400.48"/>
</a>
</g>
</g>
<!-- Node18 -->
<g id="Node000018" class="node">
<title>Node18</title>
<g id="a_Node000018"><a xlink:href="parse__utils_8c.html#a14e4a06978d8374fc830989e94b08140" target="_top" xlink:title=" ">
<polygon fill="white" stroke="#666666" points="522.25,-519.48 419.25,-519.48 419.25,-500.23 522.25,-500.23 522.25,-519.48"/>
<text text-anchor="middle" x="470.75" y="-505.98" font-family="Helvetica,sans-Serif" font-size="10.00">parse_check_length</text>
</a>
</g>
</g>
<!-- Node16&#45;&gt;Node18 -->
<g id="edge20_Node000016_Node000018" class="edge">
<title>Node16&#45;&gt;Node18</title>
<g id="a_edge20_Node000016_Node000018"><a xlink:title=" ">
<path fill="none" stroke="#63b8ff" d="M368.2,-313.27C373.84,-316.32 379.06,-320.12 383.25,-324.85 428.45,-375.82 381.1,-417.4 419.25,-473.85 424.51,-481.63 432.04,-488.28 439.69,-493.68"/>
<polygon fill="#63b8ff" stroke="#63b8ff" points="437.7,-496.56 448.01,-499.01 441.48,-490.67 437.7,-496.56"/>
</a>
</g>
</g>
<!-- Node17&#45;&gt;Node6 -->
<g id="edge19_Node000017_Node000006" class="edge">
<title>Node17&#45;&gt;Node6</title>
<g id="a_edge19_Node000017_Node000006"><a xlink:title=" ">
<path fill="none" stroke="#63b8ff" d="M479.01,-407.84C497.97,-381.69 549.23,-310.98 573.99,-276.82"/>
<polygon fill="#63b8ff" stroke="#63b8ff" points="576.57,-279.23 579.61,-269.08 570.9,-275.12 576.57,-279.23"/>
</a>
</g>
</g>
<!-- Node20 -->
<g id="Node000020" class="node">
<title>Node20</title>
<g id="a_Node000020"><a xlink:href="ft__strval_8c.html#adc216c7cf83a710b028bd1501e3d4e6b" target="_top" xlink:title="Checks if a given string consists of valid characters.">
<polygon fill="white" stroke="#666666" points="496.38,-464.48 445.12,-464.48 445.12,-445.23 496.38,-445.23 496.38,-464.48"/>
<text text-anchor="middle" x="470.75" y="-450.98" font-family="Helvetica,sans-Serif" font-size="10.00">ft_strval</text>
</a>
</g>
</g>
<!-- Node19&#45;&gt;Node20 -->
<g id="edge22_Node000019_Node000020" class="edge">
<title>Node19&#45;&gt;Node20</title>
<g id="a_edge22_Node000019_Node000020"><a xlink:title=" ">
<path fill="none" stroke="#63b8ff" d="M370.47,-353.84C375.07,-356.01 379.43,-358.64 383.25,-361.85 411.58,-385.61 391.77,-412.11 419.25,-436.85 423.59,-440.76 428.84,-443.83 434.29,-446.25"/>
<polygon fill="#63b8ff" stroke="#63b8ff" points="432.82,-449.43 443.41,-449.6 435.23,-442.86 432.82,-449.43"/>
</a>
</g>
</g>
<!-- Node20&#45;&gt;Node7 -->
<g id="edge27_Node000020_Node000007" class="edge">
<title>Node20&#45;&gt;Node7</title>
<g id="a_edge27_Node000020_Node000007"><a xlink:title=" ">
<path fill="none" stroke="#63b8ff" d="M496.73,-446.86C504.97,-443.98 514.11,-440.53 522.25,-436.85 538.93,-429.31 540.93,-422.76 558.25,-416.85 586.94,-407.05 621.06,-402.3 646.4,-400"/>
<polygon fill="#63b8ff" stroke="#63b8ff" points="646.53,-403.5 656.21,-399.2 645.96,-396.52 646.53,-403.5"/>
</a>
</g>
</g>
<!-- Node21 -->
<g id="Node000021" class="node">
<title>Node21</title>
<g id="a_Node000021"><a xlink:href="LIBFT_2ft__isalnum_8c.html#a9c2c3821ea43ebdf97de07b123503f8b" target="_top" xlink:title=" ">
<polygon fill="white" stroke="#666666" points="619.25,-445.48 558.25,-445.48 558.25,-426.23 619.25,-426.23 619.25,-445.48"/>
<text text-anchor="middle" x="588.75" y="-431.98" font-family="Helvetica,sans-Serif" font-size="10.00">ft_isalnum</text>
</a>
</g>
</g>
<!-- Node20&#45;&gt;Node21 -->
<g id="edge23_Node000020_Node000021" class="edge">
<title>Node20&#45;&gt;Node21</title>
<g id="a_edge23_Node000020_Node000021"><a xlink:title=" ">
<path fill="none" stroke="#63b8ff" d="M496.63,-450.77C511.24,-448.38 530.06,-445.3 546.79,-442.56"/>
<polygon fill="#63b8ff" stroke="#63b8ff" points="547.18,-446.04 556.48,-440.97 546.04,-439.13 547.18,-446.04"/>
</a>
</g>
</g>
<!-- Node22 -->
<g id="Node000022" class="node">
<title>Node22</title>
<g id="a_Node000022"><a xlink:href="LIBFT_2ft__isalpha_8c.html#ac283963beaa3b8c7d09b78851cda297e" target="_top" xlink:title=" ">
<polygon fill="white" stroke="#666666" points="713.25,-464.48 655.25,-464.48 655.25,-445.23 713.25,-445.23 713.25,-464.48"/>
<text text-anchor="middle" x="684.25" y="-450.98" font-family="Helvetica,sans-Serif" font-size="10.00">ft_isalpha</text>
</a>
</g>
</g>
<!-- Node20&#45;&gt;Node22 -->
<g id="edge26_Node000020_Node000022" class="edge">
<title>Node20&#45;&gt;Node22</title>
<g id="a_edge26_Node000020_Node000022"><a xlink:title=" ">
<path fill="none" stroke="#63b8ff" d="M496.84,-454.85C533.05,-454.85 600.31,-454.85 643.37,-454.85"/>
<polygon fill="#63b8ff" stroke="#63b8ff" points="643.31,-458.35 653.31,-454.85 643.31,-451.35 643.31,-458.35"/>
</a>
</g>
</g>
<!-- Node21&#45;&gt;Node7 -->
<g id="edge25_Node000021_Node000007" class="edge">
<title>Node21&#45;&gt;Node7</title>
<g id="a_edge25_Node000021_Node000007"><a xlink:title=" ">
<path fill="none" stroke="#63b8ff" d="M614.32,-425.87C624.65,-421.67 636.86,-416.7 648.12,-412.13"/>
<polygon fill="#63b8ff" stroke="#63b8ff" points="649.17,-415.48 657.12,-408.47 646.54,-408.99 649.17,-415.48"/>
</a>
</g>
</g>
<!-- Node21&#45;&gt;Node22 -->
<g id="edge24_Node000021_Node000022" class="edge">
<title>Node21&#45;&gt;Node22</title>
<g id="a_edge24_Node000021_Node000022"><a xlink:title=" ">
<path fill="none" stroke="#63b8ff" d="M619.59,-441.91C627.29,-443.48 635.7,-445.19 643.81,-446.84"/>
<polygon fill="#63b8ff" stroke="#63b8ff" points="642.99,-450.24 653.48,-448.8 644.38,-443.38 642.99,-450.24"/>
</a>
</g>
</g>
<!-- Node23&#45;&gt;Node9 -->
<g id="edge29_Node000023_Node000009" class="edge">
<title>Node23&#45;&gt;Node9</title>
<g id="a_edge29_Node000023_Node000009"><a xlink:title=" ">
<path fill="none" stroke="#63b8ff" d="M182.41,-237.95C192.77,-231.27 206.12,-221.88 216.5,-211.85 235.42,-193.57 234.57,-184.11 252.5,-164.85 265.93,-150.43 282.62,-135.73 295.64,-124.87"/>
<polygon fill="#63b8ff" stroke="#63b8ff" points="297.7,-127.71 303.2,-118.66 293.25,-122.3 297.7,-127.71"/>
</a>
</g>
</g>
<!-- Node23&#45;&gt;Node18 -->
<g id="edge32_Node000023_Node000018" class="edge">
<title>Node23&#45;&gt;Node18</title>
<g id="a_edge32_Node000023_Node000018"><a xlink:title=" ">
<path fill="none" stroke="#63b8ff" d="M168.23,-257.95C180.4,-312.95 238.84,-574.25 252.5,-584.85 298.42,-620.47 328.81,-605.17 383.25,-584.85 413.22,-573.67 439.7,-546.9 455.23,-528.57"/>
<polygon fill="#63b8ff" stroke="#63b8ff" points="457.75,-531.01 461.35,-521.05 452.32,-526.59 457.75,-531.01"/>
</a>
</g>
</g>
<!-- Node24 -->
<g id="Node000024" class="node">
<title>Node24</title>
<g id="a_Node000024"><a xlink:href="parse__assign__vec__utils_8c.html#ab8e92dfaa96787a8924706eb0177af9c" target="_top" xlink:title=" ">
<polygon fill="white" stroke="#666666" points="358.88,-390.48 276.88,-390.48 276.88,-371.23 358.88,-371.23 358.88,-390.48"/>
<text text-anchor="middle" x="317.88" y="-376.98" font-family="Helvetica,sans-Serif" font-size="10.00">is_valid_format</text>
</a>
</g>
</g>
<!-- Node23&#45;&gt;Node24 -->
<g id="edge30_Node000023_Node000024" class="edge">
<title>Node23&#45;&gt;Node24</title>
<g id="a_edge30_Node000023_Node000024"><a xlink:title=" ">
<path fill="none" stroke="#63b8ff" d="M170.68,-257.91C181.65,-280.33 211.24,-334.67 252.5,-362.85 256.65,-365.69 261.25,-368.08 266.01,-370.1"/>
<polygon fill="#63b8ff" stroke="#63b8ff" points="264.6,-373.31 275.19,-373.43 266.99,-366.73 264.6,-373.31"/>
</a>
</g>
</g>
<!-- Node25 -->
<g id="Node000025" class="node">
<title>Node25</title>
<g id="a_Node000025"><a xlink:href="parse__assign__vec__utils_8c.html#a714588a0946a445e8f37f00e6eb68bbf" target="_top" xlink:title=" ">
<polygon fill="white" stroke="#666666" points="383.25,-267.48 252.5,-267.48 252.5,-248.23 383.25,-248.23 383.25,-267.48"/>
<text text-anchor="middle" x="317.88" y="-253.98" font-family="Helvetica,sans-Serif" font-size="10.00">parse_vector_components</text>
</a>
</g>
</g>
<!-- Node23&#45;&gt;Node25 -->
<g id="edge33_Node000023_Node000025" class="edge">
<title>Node23&#45;&gt;Node25</title>
<g id="a_edge33_Node000023_Node000025"><a xlink:title=" ">
<path fill="none" stroke="#63b8ff" d="M212.5,-250.93C221.52,-251.53 231.2,-252.17 240.88,-252.81"/>
<polygon fill="#63b8ff" stroke="#63b8ff" points="240.5,-256.3 250.71,-253.46 240.97,-249.31 240.5,-256.3"/>
</a>
</g>
</g>
<!-- Node26 -->
<g id="Node000026" class="node">
<title>Node26</title>
<g id="a_Node000026"><a xlink:href="parse__assign__vec__utils_8c.html#a739e22fb23f1db98c643e53ec47625ac" target="_top" xlink:title=" ">
<polygon fill="white" stroke="#666666" points="365.62,-230.48 270.12,-230.48 270.12,-211.23 365.62,-211.23 365.62,-230.48"/>
<text text-anchor="middle" x="317.88" y="-216.98" font-family="Helvetica,sans-Serif" font-size="10.00">split_vector_string</text>
</a>
</g>
</g>
<!-- Node23&#45;&gt;Node26 -->
<g id="edge36_Node000023_Node000026" class="edge">
<title>Node23&#45;&gt;Node26</title>
<g id="a_edge36_Node000023_Node000026"><a xlink:title=" ">
<path fill="none" stroke="#63b8ff" d="M212.5,-239.53C227.13,-236.91 243.47,-233.99 258.8,-231.24"/>
<polygon fill="#63b8ff" stroke="#63b8ff" points="259.03,-234.76 268.26,-229.55 257.8,-227.87 259.03,-234.76"/>
</a>
</g>
</g>
<!-- Node24&#45;&gt;Node20 -->
<g id="edge31_Node000024_Node000020" class="edge">
<title>Node24&#45;&gt;Node20</title>
<g id="a_edge31_Node000024_Node000020"><a xlink:title=" ">
<path fill="none" stroke="#63b8ff" d="M359.07,-388.48C367.41,-391.04 375.9,-394.42 383.25,-398.85 403.17,-410.86 399.76,-424.15 419.25,-436.85 423.83,-439.84 428.98,-442.4 434.18,-444.58"/>
<polygon fill="#63b8ff" stroke="#63b8ff" points="432.77,-447.79 443.36,-447.99 435.2,-441.23 432.77,-447.79"/>
</a>
</g>
</g>
<!-- Node25&#45;&gt;Node6 -->
<g id="edge35_Node000025_Node000006" class="edge">
<title>Node25&#45;&gt;Node6</title>
<g id="a_edge35_Node000025_Node000006"><a xlink:title=" ">
<path fill="none" stroke="#63b8ff" d="M383.62,-257.85C437.34,-257.85 511.57,-257.85 554.13,-257.85"/>
<polygon fill="#63b8ff" stroke="#63b8ff" points="553.99,-261.35 563.99,-257.85 553.99,-254.35 553.99,-261.35"/>
</a>
</g>
</g>
<!-- Node25&#45;&gt;Node17 -->
<g id="edge34_Node000025_Node000017" class="edge">
<title>Node25&#45;&gt;Node17</title>
<g id="a_edge34_Node000025_Node000017"><a xlink:title=" ">
<path fill="none" stroke="#63b8ff" d="M367.53,-267.94C373.14,-270.31 378.53,-273.24 383.25,-276.85 424.71,-308.61 450.92,-366.4 462.62,-397.21"/>
<polygon fill="#63b8ff" stroke="#63b8ff" points="459.29,-398.31 466,-406.51 465.87,-395.92 459.29,-398.31"/>
</a>
</g>
</g>
<!-- Node26&#45;&gt;Node15 -->
<g id="edge37_Node000026_Node000015" class="edge">
<title>Node26&#45;&gt;Node15</title>
<g id="a_edge37_Node000026_Node000015"><a xlink:title=" ">
<path fill="none" stroke="#63b8ff" d="M365.79,-214.94C388.64,-212.06 415.58,-208.67 436.31,-206.06"/>
<polygon fill="#63b8ff" stroke="#63b8ff" points="436.74,-209.53 446.22,-204.81 435.87,-202.59 436.74,-209.53"/>
</a>
</g>
</g>
<!-- Node27&#45;&gt;Node18 -->
<g id="edge39_Node000027_Node000018" class="edge">
<title>Node27&#45;&gt;Node18</title>
<g id="a_edge39_Node000027_Node000018"><a xlink:title=" ">
<path fill="none" stroke="#63b8ff" d="M171.2,-501.73C185.84,-529.13 227.96,-604.93 252.5,-617.85 303.92,-644.92 330.87,-643.01 383.25,-617.85 421.16,-599.64 447.68,-555.82 460.65,-529.94"/>
<polygon fill="#63b8ff" stroke="#63b8ff" points="463.71,-531.67 464.86,-521.13 457.39,-528.65 463.71,-531.67"/>
</a>
</g>
</g>
<!-- Node28 -->
<g id="Node000028" class="node">
<title>Node28</title>
<g id="a_Node000028"><a xlink:href="parse__validate__obj__utils_8c.html#afc0fb046c4f491b01a17dc19ff7e07ac" target="_top" xlink:title=" ">
<polygon fill="white" stroke="#666666" points="362.62,-575.48 273.12,-575.48 273.12,-556.23 362.62,-556.23 362.62,-575.48"/>
<text text-anchor="middle" x="317.88" y="-561.98" font-family="Helvetica,sans-Serif" font-size="10.00">validate_ambient</text>
</a>
</g>
</g>
<!-- Node27&#45;&gt;Node28 -->
<g id="edge40_Node000027_Node000028" class="edge">
<title>Node27&#45;&gt;Node28</title>
<g id="a_edge40_Node000027_Node000028"><a xlink:title=" ">
<path fill="none" stroke="#63b8ff" d="M178.77,-501.9C195.04,-514.27 224.45,-535.2 252.5,-547.85 255.99,-549.42 259.65,-550.89 263.38,-552.25"/>
<polygon fill="#63b8ff" stroke="#63b8ff" points="261.96,-555.47 272.55,-555.33 264.18,-548.83 261.96,-555.47"/>
</a>
</g>
</g>
<!-- Node29 -->
<g id="Node000029" class="node">
<title>Node29</title>
<g id="a_Node000029"><a xlink:href="parse__validate__obj__utils_8c.html#addac7b2e5dfd2ee9efe59f688946f39b" target="_top" xlink:title=" ">
<polygon fill="white" stroke="#666666" points="361.5,-538.48 274.25,-538.48 274.25,-519.23 361.5,-519.23 361.5,-538.48"/>
<text text-anchor="middle" x="317.88" y="-524.98" font-family="Helvetica,sans-Serif" font-size="10.00">validate_camera</text>
</a>
</g>
</g>
<!-- Node27&#45;&gt;Node29 -->
<g id="edge44_Node000027_Node000029" class="edge">
<title>Node27&#45;&gt;Node29</title>
<g id="a_edge44_Node000027_Node000029"><a xlink:title=" ">
<path fill="none" stroke="#63b8ff" d="M207.23,-501.96C224.94,-506.3 245.85,-511.43 264.63,-516.04"/>
<polygon fill="#63b8ff" stroke="#63b8ff" points="263.68,-519.41 274.23,-518.39 265.35,-512.61 263.68,-519.41"/>
</a>
</g>
</g>
<!-- Node30 -->
<g id="Node000030" class="node">
<title>Node30</title>
<g id="a_Node000030"><a xlink:href="parse__validate__obj__utils_8c.html#a578190cd0dc27381815b6d4d98c65168" target="_top" xlink:title=" ">
<polygon fill="white" stroke="#666666" points="361.88,-427.48 273.88,-427.48 273.88,-408.23 361.88,-408.23 361.88,-427.48"/>
<text text-anchor="middle" x="317.88" y="-413.98" font-family="Helvetica,sans-Serif" font-size="10.00">validate_cylinder</text>
</a>
</g>
</g>
<!-- Node27&#45;&gt;Node30 -->
<g id="edge48_Node000027_Node000030" class="edge">
<title>Node27&#45;&gt;Node30</title>
<g id="a_edge48_Node000027_Node000030"><a xlink:title=" ">
<path fill="none" stroke="#63b8ff" d="M178.77,-481.8C195.04,-469.43 224.45,-448.5 252.5,-435.85 255.99,-434.28 259.65,-432.81 263.38,-431.45"/>
<polygon fill="#63b8ff" stroke="#63b8ff" points="264.18,-434.87 272.55,-428.37 261.96,-428.23 264.18,-434.87"/>
</a>
</g>
</g>
<!-- Node31 -->
<g id="Node000031" class="node">
<title>Node31</title>
<g id="a_Node000031"><a xlink:href="parse__validate__obj__utils_8c.html#a75294ff609499aa907ba8c285855f720" target="_top" xlink:title=" ">
<polygon fill="white" stroke="#666666" points="354.38,-501.48 281.38,-501.48 281.38,-482.23 354.38,-482.23 354.38,-501.48"/>
<text text-anchor="middle" x="317.88" y="-487.98" font-family="Helvetica,sans-Serif" font-size="10.00">validate_light</text>
</a>
</g>
</g>
<!-- Node27&#45;&gt;Node31 -->
<g id="edge52_Node000027_Node000031" class="edge">
<title>Node27&#45;&gt;Node31</title>
<g id="a_edge52_Node000027_Node000031"><a xlink:title=" ">
<path fill="none" stroke="#63b8ff" d="M213.74,-491.85C231.58,-491.85 251.83,-491.85 269.63,-491.85"/>
<polygon fill="#63b8ff" stroke="#63b8ff" points="269.41,-495.35 279.41,-491.85 269.41,-488.35 269.41,-495.35"/>
</a>
</g>
</g>
<!-- Node32 -->
<g id="Node000032" class="node">
<title>Node32</title>
<g id="a_Node000032"><a xlink:href="parse__validate__obj__utils_8c.html#ad58bbd3ad3f3f914989f3c0bc27cff8e" target="_top" xlink:title=" ">
<polygon fill="white" stroke="#666666" points="360,-464.48 275.75,-464.48 275.75,-445.23 360,-445.23 360,-464.48"/>
<text text-anchor="middle" x="317.88" y="-450.98" font-family="Helvetica,sans-Serif" font-size="10.00">validate_sphere</text>
</a>
</g>
</g>
<!-- Node27&#45;&gt;Node32 -->
<g id="edge56_Node000027_Node000032" class="edge">
<title>Node27&#45;&gt;Node32</title>
<g id="a_edge56_Node000027_Node000032"><a xlink:title=" ">
<path fill="none" stroke="#63b8ff" d="M207.23,-481.74C224.94,-477.4 245.85,-472.27 264.63,-467.66"/>
<polygon fill="#63b8ff" stroke="#63b8ff" points="265.35,-471.09 274.23,-465.31 263.68,-464.29 265.35,-471.09"/>
</a>
</g>
</g>
<!-- Node28&#45;&gt;Node17 -->
<g id="edge41_Node000028_Node000017" class="edge">
<title>Node28&#45;&gt;Node17</title>
<g id="a_edge41_Node000028_Node000017"><a xlink:title=" ">
<path fill="none" stroke="#63b8ff" d="M362.84,-559.84C370.36,-557.16 377.56,-553.32 383.25,-547.85 420.92,-511.59 382.86,-473.4 419.25,-435.85 420.99,-434.06 422.91,-432.44 424.97,-430.99"/>
<polygon fill="#63b8ff" stroke="#63b8ff" points="426.3,-434.25 433.33,-426.33 422.89,-428.14 426.3,-434.25"/>
</a>
</g>
</g>
<!-- Node28&#45;&gt;Node18 -->
<g id="edge43_Node000028_Node000018" class="edge">
<title>Node28&#45;&gt;Node18</title>
<g id="a_edge43_Node000028_Node000018"><a xlink:title=" ">
<path fill="none" stroke="#63b8ff" d="M358.3,-555.78C366.61,-553.39 375.27,-550.7 383.25,-547.85 402.13,-541.1 422.7,-532.14 439.04,-524.61"/>
<polygon fill="#63b8ff" stroke="#63b8ff" points="440.16,-527.95 447.74,-520.55 437.2,-521.61 440.16,-527.95"/>
</a>
</g>
</g>
<!-- Node28&#45;&gt;Node20 -->
<g id="edge42_Node000028_Node000020" class="edge">
<title>Node28&#45;&gt;Node20</title>
<g id="a_edge42_Node000028_Node000020"><a xlink:title=" ">
<path fill="none" stroke="#63b8ff" d="M362.8,-558.27C370.07,-555.73 377.2,-552.36 383.25,-547.85 407.28,-529.95 398.66,-512.62 419.25,-490.85 426.19,-483.51 434.83,-476.71 442.99,-471.05"/>
<polygon fill="#63b8ff" stroke="#63b8ff" points="444.87,-474 451.29,-465.57 441.02,-468.15 444.87,-474"/>
</a>
</g>
</g>
<!-- Node29&#45;&gt;Node17 -->
<g id="edge45_Node000029_Node000017" class="edge">
<title>Node29&#45;&gt;Node17</title>
<g id="a_edge45_Node000029_Node000017"><a xlink:title=" ">
<path fill="none" stroke="#63b8ff" d="M361.92,-522.31C369.61,-519.68 377.12,-516 383.25,-510.85 411.58,-487.09 391.77,-460.59 419.25,-435.85 420.91,-434.36 422.7,-432.98 424.59,-431.72"/>
<polygon fill="#63b8ff" stroke="#63b8ff" points="426.14,-434.86 433.28,-427.03 422.82,-428.7 426.14,-434.86"/>
</a>
</g>
</g>
<!-- Node29&#45;&gt;Node18 -->
<g id="edge47_Node000029_Node000018" class="edge">
<title>Node29&#45;&gt;Node18</title>
<g id="a_edge47_Node000029_Node000018"><a xlink:title=" ">
<path fill="none" stroke="#63b8ff" d="M361.71,-523.46C376.01,-521.66 392.24,-519.61 407.71,-517.66"/>
<polygon fill="#63b8ff" stroke="#63b8ff" points="407.8,-521.18 417.29,-516.46 406.93,-514.23 407.8,-521.18"/>
</a>
</g>
</g>
<!-- Node29&#45;&gt;Node20 -->
<g id="edge46_Node000029_Node000020" class="edge">
<title>Node29&#45;&gt;Node20</title>
<g id="a_edge46_Node000029_Node000020"><a xlink:title=" ">
<path fill="none" stroke="#63b8ff" d="M361.77,-518.81C369.07,-516.55 376.48,-513.9 383.25,-510.85 395.99,-505.11 425.4,-485.51 446.39,-471.11"/>
<polygon fill="#63b8ff" stroke="#63b8ff" points="448.14,-474.16 454.38,-465.6 444.16,-468.4 448.14,-474.16"/>
</a>
</g>
</g>
<!-- Node30&#45;&gt;Node17 -->
<g id="edge49_Node000030_Node000017" class="edge">
<title>Node30&#45;&gt;Node17</title>
<g id="a_edge49_Node000030_Node000017"><a xlink:title=" ">
<path fill="none" stroke="#63b8ff" d="M362.11,-417.85C381.24,-417.85 403.76,-417.85 423.25,-417.85"/>
<polygon fill="#63b8ff" stroke="#63b8ff" points="423.12,-421.35 433.12,-417.85 423.12,-414.35 423.12,-421.35"/>
</a>
</g>
</g>
<!-- Node30&#45;&gt;Node18 -->
<g id="edge51_Node000030_Node000018" class="edge">
<title>Node30&#45;&gt;Node18</title>
<g id="a_edge51_Node000030_Node000018"><a xlink:title=" ">
<path fill="none" stroke="#63b8ff" d="M362.12,-426.45C369.46,-428.88 376.79,-431.96 383.25,-435.85 403.17,-447.86 401.7,-458.58 419.25,-473.85 427.19,-480.76 436.43,-487.64 444.82,-493.51"/>
<polygon fill="#63b8ff" stroke="#63b8ff" points="442.66,-496.27 452.9,-499.02 446.61,-490.49 442.66,-496.27"/>
</a>
</g>
</g>
<!-- Node30&#45;&gt;Node20 -->
<g id="edge50_Node000030_Node000020" class="edge">
<title>Node30&#45;&gt;Node20</title>
<g id="a_edge50_Node000030_Node000020"><a xlink:title=" ">
<path fill="none" stroke="#63b8ff" d="M360.1,-427.96C383.13,-433.61 411.56,-440.58 433.7,-446.01"/>
<polygon fill="#63b8ff" stroke="#63b8ff" points="432.63,-449.35 443.18,-448.33 434.3,-442.55 432.63,-449.35"/>
</a>
</g>
</g>
<!-- Node31&#45;&gt;Node17 -->
<g id="edge53_Node000031_Node000017" class="edge">
<title>Node31&#45;&gt;Node17</title>
<g id="a_edge53_Node000031_Node000017"><a xlink:title=" ">
<path fill="none" stroke="#63b8ff" d="M354.69,-485.49C364.4,-482.81 374.6,-479.06 383.25,-473.85 403.17,-461.84 399.76,-448.55 419.25,-435.85 421.03,-434.69 422.9,-433.59 424.83,-432.55"/>
<polygon fill="#63b8ff" stroke="#63b8ff" points="425.84,-435.95 433.4,-428.52 422.86,-429.61 425.84,-435.95"/>
</a>
</g>
</g>
<!-- Node31&#45;&gt;Node18 -->
<g id="edge55_Node000031_Node000018" class="edge">
<title>Node31&#45;&gt;Node18</title>
<g id="a_edge55_Node000031_Node000018"><a xlink:title=" ">
<path fill="none" stroke="#63b8ff" d="M354.63,-496.12C370.43,-498 389.48,-500.27 407.49,-502.42"/>
<polygon fill="#63b8ff" stroke="#63b8ff" points="406.99,-505.89 417.33,-503.6 407.82,-498.94 406.99,-505.89"/>
</a>
</g>
</g>
<!-- Node31&#45;&gt;Node20 -->
<g id="edge54_Node000031_Node000020" class="edge">
<title>Node31&#45;&gt;Node20</title>
<g id="a_edge54_Node000031_Node000020"><a xlink:title=" ">
<path fill="none" stroke="#63b8ff" d="M354.63,-483.08C378.44,-477.24 409.63,-469.59 433.54,-463.73"/>
<polygon fill="#63b8ff" stroke="#63b8ff" points="434.28,-467.15 443.16,-461.37 432.61,-460.35 434.28,-467.15"/>
</a>
</g>
</g>
<!-- Node32&#45;&gt;Node17 -->
<g id="edge57_Node000032_Node000017" class="edge">
<title>Node32&#45;&gt;Node17</title>
<g id="a_edge57_Node000032_Node000017"><a xlink:title=" ">
<path fill="none" stroke="#63b8ff" d="M360.1,-444.74C379.74,-439.92 403.3,-434.15 423.54,-429.18"/>
<polygon fill="#63b8ff" stroke="#63b8ff" points="424.36,-432.58 433.24,-426.8 422.69,-425.79 424.36,-432.58"/>
</a>
</g>
</g>
<!-- Node32&#45;&gt;Node18 -->
<g id="edge59_Node000032_Node000018" class="edge">
<title>Node32&#45;&gt;Node18</title>
<g id="a_edge59_Node000032_Node000018"><a xlink:title=" ">
<path fill="none" stroke="#63b8ff" d="M357.94,-464.88C366.35,-467.29 375.15,-470 383.25,-472.85 401.83,-479.39 422.1,-487.98 438.34,-495.23"/>
<polygon fill="#63b8ff" stroke="#63b8ff" points="436.44,-498.22 447,-499.15 439.33,-491.84 436.44,-498.22"/>
</a>
</g>
</g>
<!-- Node32&#45;&gt;Node20 -->
<g id="edge58_Node000032_Node000020" class="edge">
<title>Node32&#45;&gt;Node20</title>
<g id="a_edge58_Node000032_Node000020"><a xlink:title=" ">
<path fill="none" stroke="#63b8ff" d="M360.1,-454.85C383.03,-454.85 411.3,-454.85 433.4,-454.85"/>
<polygon fill="#63b8ff" stroke="#63b8ff" points="433.13,-458.35 443.13,-454.85 433.13,-451.35 433.13,-458.35"/>
</a>
</g>
</g>
</g>
</svg>
