<?xml version="1.0" encoding="UTF-8" standalone="no"?>
<!DOCTYPE svg PUBLIC "-//W3C//DTD SVG 1.1//EN"
 "http://www.w3.org/Graphics/SVG/1.1/DTD/svg11.dtd">
<!-- Generated by graphviz version 9.0.0 (20230911.1827)
 -->
<!-- Title: /github/workspace/SRC/CORE/PARSE/parse_objects.c Pages: 1 -->
<svg width="591pt" height="204pt"
 viewBox="0.00 0.00 591.38 204.25" xmlns="http://www.w3.org/2000/svg" xmlns:xlink="http://www.w3.org/1999/xlink">
<g id="graph0" class="graph" transform="scale(1 1) rotate(0) translate(4 200.25)">
<title>/github/workspace/SRC/CORE/PARSE/parse_objects.c</title>
<!-- Node1 -->
<g id="Node000001" class="node">
<title>Node1</title>
<g id="a_Node000001"><a xlink:title=" ">
<polygon fill="#999999" stroke="#666666" points="321.38,-196.25 168.12,-196.25 168.12,-165.75 321.38,-165.75 321.38,-196.25"/>
<text text-anchor="start" x="176.12" y="-182.75" font-family="Helvetica,sans-Serif" font-size="10.00">/github/workspace/SRC</text>
<text text-anchor="middle" x="244.75" y="-171.5" font-family="Helvetica,sans-Serif" font-size="10.00">/CORE/PARSE/parse_objects.c</text>
</a>
</g>
</g>
<!-- Node2 -->
<g id="Node000002" class="node">
<title>Node2</title>
<g id="a_Node000002"><a xlink:href="core__parse_8h.html" target="_top" xlink:title=" ">
<polygon fill="white" stroke="#666666" points="71.5,-129.75 0,-129.75 0,-110.5 71.5,-110.5 71.5,-129.75"/>
<text text-anchor="middle" x="35.75" y="-116.25" font-family="Helvetica,sans-Serif" font-size="10.00">core_parse.h</text>
</a>
</g>
</g>
<!-- Node1&#45;&gt;Node2 -->
<g id="edge1_Node000001_Node000002" class="edge">
<title>Node1&#45;&gt;Node2</title>
<g id="a_edge1_Node000001_Node000002"><a xlink:title=" ">
<path fill="none" stroke="#63b8ff" d="M192.55,-165.3C157.46,-155.41 111.78,-142.54 78.78,-133.25"/>
<polygon fill="#63b8ff" stroke="#63b8ff" points="80.14,-129.99 69.57,-130.65 78.24,-136.73 80.14,-129.99"/>
</a>
</g>
</g>
<!-- Node8 -->
<g id="Node000008" class="node">
<title>Node8</title>
<g id="a_Node000008"><a xlink:href="base__matrices_8h.html" target="_top" xlink:title=" ">
<polygon fill="white" stroke="#666666" points="176.38,-129.75 89.12,-129.75 89.12,-110.5 176.38,-110.5 176.38,-129.75"/>
<text text-anchor="middle" x="132.75" y="-116.25" font-family="Helvetica,sans-Serif" font-size="10.00">base_matrices.h</text>
</a>
</g>
</g>
<!-- Node1&#45;&gt;Node8 -->
<g id="edge7_Node000001_Node000008" class="edge">
<title>Node1&#45;&gt;Node8</title>
<g id="a_edge7_Node000001_Node000008"><a xlink:title=" ">
<path fill="none" stroke="#63b8ff" d="M216.78,-165.3C199.39,-156.16 177.15,-144.47 159.92,-135.41"/>
<polygon fill="#63b8ff" stroke="#63b8ff" points="161.75,-132.41 151.27,-130.86 158.49,-138.61 161.75,-132.41"/>
</a>
</g>
</g>
<!-- Node9 -->
<g id="Node000009" class="node">
<title>Node9</title>
<g id="a_Node000009"><a xlink:href="muk__lib_8h.html" target="_top" xlink:title=" ">
<polygon fill="white" stroke="#666666" points="467.38,-129.75 410.12,-129.75 410.12,-110.5 467.38,-110.5 467.38,-129.75"/>
<text text-anchor="middle" x="438.75" y="-116.25" font-family="Helvetica,sans-Serif" font-size="10.00">muk_lib.h</text>
</a>
</g>
</g>
<!-- Node1&#45;&gt;Node9 -->
<g id="edge9_Node000001_Node000009" class="edge">
<title>Node1&#45;&gt;Node9</title>
<g id="a_edge9_Node000001_Node000009"><a xlink:title=" ">
<path fill="none" stroke="#63b8ff" d="M293.2,-165.3C325.89,-155.38 368.48,-142.45 399.14,-133.15"/>
<polygon fill="#63b8ff" stroke="#63b8ff" points="399.85,-136.59 408.4,-130.34 397.82,-129.89 399.85,-136.59"/>
</a>
</g>
</g>
<!-- Node14 -->
<g id="Node000014" class="node">
<title>Node14</title>
<g id="a_Node000014"><a xlink:href="objects__transform_8h.html" target="_top" xlink:title=" ">
<polygon fill="white" stroke="#666666" points="295.5,-129.75 194,-129.75 194,-110.5 295.5,-110.5 295.5,-129.75"/>
<text text-anchor="middle" x="244.75" y="-116.25" font-family="Helvetica,sans-Serif" font-size="10.00">objects_transform.h</text>
</a>
</g>
</g>
<!-- Node1&#45;&gt;Node14 -->
<g id="edge15_Node000001_Node000014" class="edge">
<title>Node1&#45;&gt;Node14</title>
<g id="a_edge15_Node000001_Node000014"><a xlink:title=" ">
<path fill="none" stroke="#63b8ff" d="M244.75,-165.45C244.75,-158.21 244.75,-149.34 244.75,-141.44"/>
<polygon fill="#63b8ff" stroke="#63b8ff" points="248.25,-141.71 244.75,-131.71 241.25,-141.71 248.25,-141.71"/>
</a>
</g>
</g>
<!-- Node15 -->
<g id="Node000015" class="node">
<title>Node15</title>
<g id="a_Node000015"><a xlink:href="objects__utils_8h.html" target="_top" xlink:title=" ">
<polygon fill="white" stroke="#666666" points="391.88,-129.75 313.62,-129.75 313.62,-110.5 391.88,-110.5 391.88,-129.75"/>
<text text-anchor="middle" x="352.75" y="-116.25" font-family="Helvetica,sans-Serif" font-size="10.00">objects_utils.h</text>
</a>
</g>
</g>
<!-- Node1&#45;&gt;Node15 -->
<g id="edge17_Node000001_Node000015" class="edge">
<title>Node1&#45;&gt;Node15</title>
<g id="a_edge17_Node000001_Node000015"><a xlink:title=" ">
<path fill="none" stroke="#63b8ff" d="M271.72,-165.3C288.33,-156.24 309.53,-144.69 326.08,-135.66"/>
<polygon fill="#63b8ff" stroke="#63b8ff" points="327.75,-138.74 334.86,-130.88 324.4,-132.59 327.75,-138.74"/>
</a>
</g>
</g>
<!-- Node3 -->
<g id="Node000003" class="node">
<title>Node3</title>
<g id="a_Node000003"><a xlink:href="types_8h.html" target="_top" xlink:title=" ">
<polygon fill="white" stroke="#666666" points="268.12,-74.5 221.38,-74.5 221.38,-55.25 268.12,-55.25 268.12,-74.5"/>
<text text-anchor="middle" x="244.75" y="-61" font-family="Helvetica,sans-Serif" font-size="10.00">types.h</text>
</a>
</g>
</g>
<!-- Node2&#45;&gt;Node3 -->
<g id="edge2_Node000002_Node000003" class="edge">
<title>Node2&#45;&gt;Node3</title>
<g id="a_edge2_Node000002_Node000003"><a xlink:title=" ">
<path fill="none" stroke="#63b8ff" d="M71.2,-110.09C109.94,-100.22 171.58,-84.52 210.03,-74.72"/>
<polygon fill="#63b8ff" stroke="#63b8ff" points="210.87,-78.12 219.69,-72.26 209.14,-71.34 210.87,-78.12"/>
</a>
</g>
</g>
<!-- Node7 -->
<g id="Node000007" class="node">
<title>Node7</title>
<g id="a_Node000007"><a xlink:title=" ">
<polygon fill="#e0e0e0" stroke="#999999" points="58.38,-74.5 13.12,-74.5 13.12,-55.25 58.38,-55.25 58.38,-74.5"/>
<text text-anchor="middle" x="35.75" y="-61" font-family="Helvetica,sans-Serif" font-size="10.00">errno.h</text>
</a>
</g>
</g>
<!-- Node2&#45;&gt;Node7 -->
<g id="edge6_Node000002_Node000007" class="edge">
<title>Node2&#45;&gt;Node7</title>
<g id="a_edge6_Node000002_Node000007"><a xlink:title=" ">
<path fill="none" stroke="#63b8ff" d="M35.75,-110.33C35.75,-103.82 35.75,-94.67 35.75,-86.37"/>
<polygon fill="#63b8ff" stroke="#63b8ff" points="39.25,-86.37 35.75,-76.37 32.25,-86.37 39.25,-86.37"/>
</a>
</g>
</g>
<!-- Node4 -->
<g id="Node000004" class="node">
<title>Node4</title>
<g id="a_Node000004"><a xlink:title=" ">
<polygon fill="#e0e0e0" stroke="#999999" points="204.25,-19.25 149.25,-19.25 149.25,0 204.25,0 204.25,-19.25"/>
<text text-anchor="middle" x="176.75" y="-5.75" font-family="Helvetica,sans-Serif" font-size="10.00">stdbool.h</text>
</a>
</g>
</g>
<!-- Node3&#45;&gt;Node4 -->
<g id="edge3_Node000003_Node000004" class="edge">
<title>Node3&#45;&gt;Node4</title>
<g id="a_edge3_Node000003_Node000004"><a xlink:title=" ">
<path fill="none" stroke="#63b8ff" d="M233.21,-54.84C223.29,-47.07 208.74,-35.67 196.89,-26.4"/>
<polygon fill="#63b8ff" stroke="#63b8ff" points="199.34,-23.87 189.31,-20.46 195.02,-29.38 199.34,-23.87"/>
</a>
</g>
</g>
<!-- Node5 -->
<g id="Node000005" class="node">
<title>Node5</title>
<g id="a_Node000005"><a xlink:title=" ">
<polygon fill="#e0e0e0" stroke="#999999" points="339.12,-19.25 292.38,-19.25 292.38,0 339.12,0 339.12,-19.25"/>
<text text-anchor="middle" x="315.75" y="-5.75" font-family="Helvetica,sans-Serif" font-size="10.00">stdlib.h</text>
</a>
</g>
</g>
<!-- Node3&#45;&gt;Node5 -->
<g id="edge4_Node000003_Node000005" class="edge">
<title>Node3&#45;&gt;Node5</title>
<g id="a_edge4_Node000003_Node000005"><a xlink:title=" ">
<path fill="none" stroke="#63b8ff" d="M256.79,-54.84C267.16,-47.07 282.35,-35.67 294.72,-26.4"/>
<polygon fill="#63b8ff" stroke="#63b8ff" points="296.77,-29.23 302.67,-20.43 292.57,-23.63 296.77,-29.23"/>
</a>
</g>
</g>
<!-- Node6 -->
<g id="Node000006" class="node">
<title>Node6</title>
<g id="a_Node000006"><a xlink:title=" ">
<polygon fill="#e0e0e0" stroke="#999999" points="269.12,-19.25 222.38,-19.25 222.38,0 269.12,0 269.12,-19.25"/>
<text text-anchor="middle" x="245.75" y="-5.75" font-family="Helvetica,sans-Serif" font-size="10.00">limits.h</text>
</a>
</g>
</g>
<!-- Node3&#45;&gt;Node6 -->
<g id="edge5_Node000003_Node000006" class="edge">
<title>Node3&#45;&gt;Node6</title>
<g id="a_edge5_Node000003_Node000006"><a xlink:title=" ">
<path fill="none" stroke="#63b8ff" d="M244.92,-55.08C245.04,-48.57 245.21,-39.42 245.37,-31.12"/>
<polygon fill="#63b8ff" stroke="#63b8ff" points="248.86,-31.19 245.55,-21.12 241.87,-31.05 248.86,-31.19"/>
</a>
</g>
</g>
<!-- Node8&#45;&gt;Node3 -->
<g id="edge8_Node000008_Node000003" class="edge">
<title>Node8&#45;&gt;Node3</title>
<g id="a_edge8_Node000008_Node000003"><a xlink:title=" ">
<path fill="none" stroke="#63b8ff" d="M151.75,-110.09C169.21,-101.79 195.35,-89.36 215.47,-79.79"/>
<polygon fill="#63b8ff" stroke="#63b8ff" points="216.76,-83.06 224.29,-75.6 213.76,-76.74 216.76,-83.06"/>
</a>
</g>
</g>
<!-- Node9&#45;&gt;Node5 -->
<g id="edge10_Node000009_Node000005" class="edge">
<title>Node9&#45;&gt;Node5</title>
<g id="a_edge10_Node000009_Node000005"><a xlink:title=" ">
<path fill="none" stroke="#63b8ff" d="M409.69,-112.75C387.51,-106.49 357.64,-94.84 338.75,-74.5 327.57,-62.46 321.75,-44.61 318.76,-30.83"/>
<polygon fill="#63b8ff" stroke="#63b8ff" points="322.23,-30.32 317.01,-21.1 315.34,-31.56 322.23,-30.32"/>
</a>
</g>
</g>
<!-- Node10 -->
<g id="Node000010" class="node">
<title>Node10</title>
<g id="a_Node000010"><a xlink:title=" ">
<polygon fill="#e0e0e0" stroke="#999999" points="397.62,-74.5 347.88,-74.5 347.88,-55.25 397.62,-55.25 397.62,-74.5"/>
<text text-anchor="middle" x="372.75" y="-61" font-family="Helvetica,sans-Serif" font-size="10.00">unistd.h</text>
</a>
</g>
</g>
<!-- Node9&#45;&gt;Node10 -->
<g id="edge11_Node000009_Node000010" class="edge">
<title>Node9&#45;&gt;Node10</title>
<g id="a_edge11_Node000009_Node000010"><a xlink:title=" ">
<path fill="none" stroke="#63b8ff" d="M427.55,-110.09C418.01,-102.4 404.08,-91.15 392.64,-81.93"/>
<polygon fill="#63b8ff" stroke="#63b8ff" points="394.94,-79.28 384.96,-75.73 390.54,-84.73 394.94,-79.28"/>
</a>
</g>
</g>
<!-- Node11 -->
<g id="Node000011" class="node">
<title>Node11</title>
<g id="a_Node000011"><a xlink:title=" ">
<polygon fill="#e0e0e0" stroke="#999999" points="460,-74.5 415.5,-74.5 415.5,-55.25 460,-55.25 460,-74.5"/>
<text text-anchor="middle" x="437.75" y="-61" font-family="Helvetica,sans-Serif" font-size="10.00">stdio.h</text>
</a>
</g>
</g>
<!-- Node9&#45;&gt;Node11 -->
<g id="edge12_Node000009_Node000011" class="edge">
<title>Node9&#45;&gt;Node11</title>
<g id="a_edge12_Node000009_Node000011"><a xlink:title=" ">
<path fill="none" stroke="#63b8ff" d="M438.58,-110.33C438.46,-103.82 438.29,-94.67 438.13,-86.37"/>
<polygon fill="#63b8ff" stroke="#63b8ff" points="441.63,-86.3 437.95,-76.37 434.64,-86.44 441.63,-86.3"/>
</a>
</g>
</g>
<!-- Node12 -->
<g id="Node000012" class="node">
<title>Node12</title>
<g id="a_Node000012"><a xlink:title=" ">
<polygon fill="#e0e0e0" stroke="#999999" points="519.88,-74.5 477.62,-74.5 477.62,-55.25 519.88,-55.25 519.88,-74.5"/>
<text text-anchor="middle" x="498.75" y="-61" font-family="Helvetica,sans-Serif" font-size="10.00">fcntl.h</text>
</a>
</g>
</g>
<!-- Node9&#45;&gt;Node12 -->
<g id="edge13_Node000009_Node000012" class="edge">
<title>Node9&#45;&gt;Node12</title>
<g id="a_edge13_Node000009_Node000012"><a xlink:title=" ">
<path fill="none" stroke="#63b8ff" d="M448.93,-110.09C457.51,-102.47 470.02,-91.37 480.35,-82.2"/>
<polygon fill="#63b8ff" stroke="#63b8ff" points="482.43,-85.04 487.59,-75.78 477.79,-79.8 482.43,-85.04"/>
</a>
</g>
</g>
<!-- Node13 -->
<g id="Node000013" class="node">
<title>Node13</title>
<g id="a_Node000013"><a xlink:title=" ">
<polygon fill="#e0e0e0" stroke="#999999" points="583.38,-74.5 538.12,-74.5 538.12,-55.25 583.38,-55.25 583.38,-74.5"/>
<text text-anchor="middle" x="560.75" y="-61" font-family="Helvetica,sans-Serif" font-size="10.00">math.h</text>
</a>
</g>
</g>
<!-- Node9&#45;&gt;Node13 -->
<g id="edge14_Node000009_Node000013" class="edge">
<title>Node9&#45;&gt;Node13</title>
<g id="a_edge14_Node000009_Node000013"><a xlink:title=" ">
<path fill="none" stroke="#63b8ff" d="M459.45,-110.09C478.64,-101.72 507.46,-89.13 529.47,-79.53"/>
<polygon fill="#63b8ff" stroke="#63b8ff" points="530.8,-82.77 538.57,-75.56 528,-76.35 530.8,-82.77"/>
</a>
</g>
</g>
<!-- Node14&#45;&gt;Node3 -->
<g id="edge16_Node000014_Node000003" class="edge">
<title>Node14&#45;&gt;Node3</title>
<g id="a_edge16_Node000014_Node000003"><a xlink:title=" ">
<path fill="none" stroke="#63b8ff" d="M244.75,-110.33C244.75,-103.82 244.75,-94.67 244.75,-86.37"/>
<polygon fill="#63b8ff" stroke="#63b8ff" points="248.25,-86.37 244.75,-76.37 241.25,-86.37 248.25,-86.37"/>
</a>
</g>
</g>
<!-- Node15&#45;&gt;Node3 -->
<g id="edge18_Node000015_Node000003" class="edge">
<title>Node15&#45;&gt;Node3</title>
<g id="a_edge18_Node000015_Node000003"><a xlink:title=" ">
<path fill="none" stroke="#63b8ff" d="M334.43,-110.09C317.67,-101.83 292.62,-89.48 273.25,-79.93"/>
<polygon fill="#63b8ff" stroke="#63b8ff" points="275.03,-76.9 264.52,-75.62 271.94,-83.18 275.03,-76.9"/>
</a>
</g>
</g>
</g>
</svg>
