<?xml version="1.0" encoding="UTF-8" standalone="no"?>
<!DOCTYPE svg PUBLIC "-//W3C//DTD SVG 1.1//EN"
 "http://www.w3.org/Graphics/SVG/1.1/DTD/svg11.dtd">
<!-- Generated by graphviz version 9.0.0 (20230911.1827)
 -->
<!-- Title: parse_assign_coord Pages: 1 -->
<svg width="582pt" height="201pt"
 viewBox="0.00 0.00 582.25 201.25" xmlns="http://www.w3.org/2000/svg" xmlns:xlink="http://www.w3.org/1999/xlink">
<g id="graph0" class="graph" transform="scale(1 1) rotate(0) translate(4 197.25)">
<title>parse_assign_coord</title>
<!-- Node1 -->
<g id="Node000001" class="node">
<title>Node1</title>
<g id="a_Node000001"><a xlink:title=" ">
<polygon fill="#999999" stroke="#666666" points="103,-124.25 0,-124.25 0,-105 103,-105 103,-124.25"/>
<text text-anchor="middle" x="51.5" y="-110.75" font-family="Helvetica,sans-Serif" font-size="10.00">parse_assign_coord</text>
</a>
</g>
</g>
<!-- Node2 -->
<g id="Node000002" class="node">
<title>Node2</title>
<g id="a_Node000002"><a xlink:href="parse__assign__coord__utils_8c.html#acdc77317cdae9d7fca002fad8c2960a6" target="_top" xlink:title=" ">
<polygon fill="white" stroke="#666666" points="381.75,-193.25 281.75,-193.25 281.75,-174 381.75,-174 381.75,-193.25"/>
<text text-anchor="middle" x="331.75" y="-179.75" font-family="Helvetica,sans-Serif" font-size="10.00">assign_coordinates</text>
</a>
</g>
</g>
<!-- Node1&#45;&gt;Node2 -->
<g id="edge1_Node000001_Node000002" class="edge">
<title>Node1&#45;&gt;Node2</title>
<g id="a_edge1_Node000001_Node000002"><a xlink:title=" ">
<path fill="none" stroke="#63b8ff" d="M63.81,-124.7C79.44,-137.95 109.12,-160.69 139,-170.62 181.36,-184.72 231.82,-187.63 270.34,-187.2"/>
<polygon fill="#63b8ff" stroke="#63b8ff" points="269.94,-190.71 279.86,-187.01 269.8,-183.71 269.94,-190.71"/>
</a>
</g>
</g>
<!-- Node5 -->
<g id="Node000005" class="node">
<title>Node5</title>
<g id="a_Node000005"><a xlink:href="free__dptr_8c.html#aaa705b6d12fb1a9a15e6103879ec0ea0" target="_top" xlink:title=" ">
<polygon fill="white" stroke="#666666" points="218.75,-161.25 164.5,-161.25 164.5,-142 218.75,-142 218.75,-161.25"/>
<text text-anchor="middle" x="191.62" y="-147.75" font-family="Helvetica,sans-Serif" font-size="10.00">free_dptr</text>
</a>
</g>
</g>
<!-- Node1&#45;&gt;Node5 -->
<g id="edge4_Node000001_Node000005" class="edge">
<title>Node1&#45;&gt;Node5</title>
<g id="a_edge4_Node000001_Node000005"><a xlink:title=" ">
<path fill="none" stroke="#63b8ff" d="M90.24,-124.74C109.87,-129.99 133.79,-136.4 153.35,-141.64"/>
<polygon fill="#63b8ff" stroke="#63b8ff" points="152.27,-144.97 162.84,-144.18 154.08,-138.21 152.27,-144.97"/>
</a>
</g>
</g>
<!-- Node6 -->
<g id="Node000006" class="node">
<title>Node6</title>
<g id="a_Node000006"><a xlink:href="parse__assign__coord__utils_8c.html#af7ba7415e224810f4f203071b320ed6a" target="_top" xlink:title=" ">
<polygon fill="white" stroke="#666666" points="236.38,-124.25 146.88,-124.25 146.88,-105 236.38,-105 236.38,-124.25"/>
<text text-anchor="middle" x="191.62" y="-110.75" font-family="Helvetica,sans-Serif" font-size="10.00">split_coordinates</text>
</a>
</g>
</g>
<!-- Node1&#45;&gt;Node6 -->
<g id="edge5_Node000001_Node000006" class="edge">
<title>Node1&#45;&gt;Node6</title>
<g id="a_edge5_Node000001_Node000006"><a xlink:title=" ">
<path fill="none" stroke="#63b8ff" d="M103.15,-114.62C113.67,-114.62 124.8,-114.62 135.47,-114.62"/>
<polygon fill="#63b8ff" stroke="#63b8ff" points="135.3,-118.13 145.3,-114.63 135.3,-111.13 135.3,-118.13"/>
</a>
</g>
</g>
<!-- Node8 -->
<g id="Node000008" class="node">
<title>Node8</title>
<g id="a_Node000008"><a xlink:href="parse__assign__coord__utils_8c.html#a0f249ab97644690110e43ae95f50fec8" target="_top" xlink:title=" ">
<polygon fill="white" stroke="#666666" points="241.62,-86.88 141.62,-86.88 141.62,-56.38 241.62,-56.38 241.62,-86.88"/>
<text text-anchor="start" x="149.62" y="-73.38" font-family="Helvetica,sans-Serif" font-size="10.00">validate_coordinate</text>
<text text-anchor="middle" x="191.62" y="-62.12" font-family="Helvetica,sans-Serif" font-size="10.00">_values</text>
</a>
</g>
</g>
<!-- Node1&#45;&gt;Node8 -->
<g id="edge7_Node000001_Node000008" class="edge">
<title>Node1&#45;&gt;Node8</title>
<g id="a_edge7_Node000001_Node000008"><a xlink:title=" ">
<path fill="none" stroke="#63b8ff" d="M84.88,-104.54C98.49,-100.31 114.77,-95.24 130.43,-90.36"/>
<polygon fill="#63b8ff" stroke="#63b8ff" points="131.18,-93.8 139.69,-87.48 129.1,-87.11 131.18,-93.8"/>
</a>
</g>
</g>
<!-- Node11 -->
<g id="Node000011" class="node">
<title>Node11</title>
<g id="a_Node000011"><a xlink:href="parse__assign__coord__utils_8c.html#a71d2eb8bad13d888dca97ba273b97aec" target="_top" xlink:title=" ">
<polygon fill="white" stroke="#666666" points="244.25,-38.25 139,-38.25 139,-19 244.25,-19 244.25,-38.25"/>
<text text-anchor="middle" x="191.62" y="-24.75" font-family="Helvetica,sans-Serif" font-size="10.00">validate_input_string</text>
</a>
</g>
</g>
<!-- Node1&#45;&gt;Node11 -->
<g id="edge11_Node000001_Node000011" class="edge">
<title>Node1&#45;&gt;Node11</title>
<g id="a_edge11_Node000001_Node000011"><a xlink:title=" ">
<path fill="none" stroke="#63b8ff" d="M63.2,-104.56C78.82,-90.29 109.26,-64.1 139,-47.62 141.86,-46.04 144.88,-44.54 147.96,-43.13"/>
<polygon fill="#63b8ff" stroke="#63b8ff" points="149.28,-46.37 157.15,-39.28 146.58,-39.92 149.28,-46.37"/>
</a>
</g>
</g>
<!-- Node3 -->
<g id="Node000003" class="node">
<title>Node3</title>
<g id="a_Node000003"><a xlink:href="ft__atod_8c.html#ad55518c88cf22904ac355596269be400" target="_top" xlink:title=" ">
<polygon fill="white" stroke="#666666" points="472.75,-114.25 426.75,-114.25 426.75,-95 472.75,-95 472.75,-114.25"/>
<text text-anchor="middle" x="449.75" y="-100.75" font-family="Helvetica,sans-Serif" font-size="10.00">ft_atod</text>
</a>
</g>
</g>
<!-- Node2&#45;&gt;Node3 -->
<g id="edge2_Node000002_Node000003" class="edge">
<title>Node2&#45;&gt;Node3</title>
<g id="a_edge2_Node000002_Node000003"><a xlink:title=" ">
<path fill="none" stroke="#63b8ff" d="M357.06,-173.6C365.59,-169.68 375.08,-164.87 383.25,-159.62 400.34,-148.65 417.87,-133.7 430.49,-122.15"/>
<polygon fill="#63b8ff" stroke="#63b8ff" points="432.7,-124.87 437.62,-115.49 427.93,-119.75 432.7,-124.87"/>
</a>
</g>
</g>
<!-- Node4 -->
<g id="Node000004" class="node">
<title>Node4</title>
<g id="a_Node000004"><a xlink:href="LIBFT_2ft__isdigit_8c.html#a2cf15b8a1a277d1e2ce3654101a2003d" target="_top" xlink:title=" ">
<polygon fill="white" stroke="#666666" points="571.62,-76.25 518.88,-76.25 518.88,-57 571.62,-57 571.62,-76.25"/>
<text text-anchor="middle" x="545.25" y="-62.75" font-family="Helvetica,sans-Serif" font-size="10.00">ft_isdigit</text>
</a>
</g>
</g>
<!-- Node3&#45;&gt;Node4 -->
<g id="edge3_Node000003_Node000004" class="edge">
<title>Node3&#45;&gt;Node4</title>
<g id="a_edge3_Node000003_Node000004"><a xlink:title=" ">
<path fill="none" stroke="#63b8ff" d="M472.91,-95.62C483.77,-91.21 497.1,-85.79 509.29,-80.83"/>
<polygon fill="#63b8ff" stroke="#63b8ff" points="510.27,-84.21 518.22,-77.21 507.63,-77.73 510.27,-84.21"/>
</a>
</g>
</g>
<!-- Node7 -->
<g id="Node000007" class="node">
<title>Node7</title>
<g id="a_Node000007"><a xlink:href="LIBFT_2ft__split_8c.html#aa65c9de65051c8c589286cf133c4a1f4" target="_top" xlink:title=" ">
<polygon fill="white" stroke="#666666" points="354.38,-150.25 309.12,-150.25 309.12,-131 354.38,-131 354.38,-150.25"/>
<text text-anchor="middle" x="331.75" y="-136.75" font-family="Helvetica,sans-Serif" font-size="10.00">ft_split</text>
</a>
</g>
</g>
<!-- Node6&#45;&gt;Node7 -->
<g id="edge6_Node000006_Node000007" class="edge">
<title>Node6&#45;&gt;Node7</title>
<g id="a_edge6_Node000006_Node000007"><a xlink:title=" ">
<path fill="none" stroke="#63b8ff" d="M236.71,-122.92C256.4,-126.63 279.22,-130.92 297.44,-134.36"/>
<polygon fill="#63b8ff" stroke="#63b8ff" points="296.72,-137.78 307.19,-136.19 298.01,-130.9 296.72,-137.78"/>
</a>
</g>
</g>
<!-- Node9 -->
<g id="Node000009" class="node">
<title>Node9</title>
<g id="a_Node000009"><a xlink:href="check__range_8c.html#a31d1b2f2b0c6260cc272247fb1e281e4" target="_top" xlink:title=" ">
<polygon fill="white" stroke="#666666" points="367.5,-113.25 296,-113.25 296,-94 367.5,-94 367.5,-113.25"/>
<text text-anchor="middle" x="331.75" y="-99.75" font-family="Helvetica,sans-Serif" font-size="10.00">check_range</text>
</a>
</g>
</g>
<!-- Node8&#45;&gt;Node9 -->
<g id="edge8_Node000008_Node000009" class="edge">
<title>Node8&#45;&gt;Node9</title>
<g id="a_edge8_Node000008_Node000009"><a xlink:title=" ">
<path fill="none" stroke="#63b8ff" d="M242.1,-83.09C256.01,-86.31 271.08,-89.8 284.77,-92.97"/>
<polygon fill="#63b8ff" stroke="#63b8ff" points="283.89,-96.36 294.42,-95.21 285.47,-89.54 283.89,-96.36"/>
</a>
</g>
</g>
<!-- Node10 -->
<g id="Node000010" class="node">
<title>Node10</title>
<g id="a_Node000010"><a xlink:href="parse__utils_8c.html#a14e4a06978d8374fc830989e94b08140" target="_top" xlink:title=" ">
<polygon fill="white" stroke="#666666" points="383.25,-76.25 280.25,-76.25 280.25,-57 383.25,-57 383.25,-76.25"/>
<text text-anchor="middle" x="331.75" y="-62.75" font-family="Helvetica,sans-Serif" font-size="10.00">parse_check_length</text>
</a>
</g>
</g>
<!-- Node8&#45;&gt;Node10 -->
<g id="edge10_Node000008_Node000010" class="edge">
<title>Node8&#45;&gt;Node10</title>
<g id="a_edge10_Node000008_Node000010"><a xlink:title=" ">
<path fill="none" stroke="#63b8ff" d="M242.1,-69.83C250.61,-69.53 259.54,-69.2 268.33,-68.88"/>
<polygon fill="#63b8ff" stroke="#63b8ff" points="268.38,-72.39 278.24,-68.53 268.12,-65.39 268.38,-72.39"/>
</a>
</g>
</g>
<!-- Node9&#45;&gt;Node3 -->
<g id="edge9_Node000009_Node000003" class="edge">
<title>Node9&#45;&gt;Node3</title>
<g id="a_edge9_Node000009_Node000003"><a xlink:title=" ">
<path fill="none" stroke="#63b8ff" d="M367.87,-103.93C382.92,-104.06 400.41,-104.21 415.28,-104.34"/>
<polygon fill="#63b8ff" stroke="#63b8ff" points="414.99,-107.83 425.02,-104.42 415.05,-100.83 414.99,-107.83"/>
</a>
</g>
</g>
<!-- Node12 -->
<g id="Node000012" class="node">
<title>Node12</title>
<g id="a_Node000012"><a xlink:href="ft__strval_8c.html#adc216c7cf83a710b028bd1501e3d4e6b" target="_top" xlink:title="Checks if a given string consists of valid characters.">
<polygon fill="white" stroke="#666666" points="357.38,-38.25 306.12,-38.25 306.12,-19 357.38,-19 357.38,-38.25"/>
<text text-anchor="middle" x="331.75" y="-24.75" font-family="Helvetica,sans-Serif" font-size="10.00">ft_strval</text>
</a>
</g>
</g>
<!-- Node11&#45;&gt;Node12 -->
<g id="edge12_Node000011_Node000012" class="edge">
<title>Node11&#45;&gt;Node12</title>
<g id="a_edge12_Node000011_Node000012"><a xlink:title=" ">
<path fill="none" stroke="#63b8ff" d="M244.45,-28.62C261.16,-28.62 279.32,-28.62 294.64,-28.62"/>
<polygon fill="#63b8ff" stroke="#63b8ff" points="294.23,-32.13 304.23,-28.63 294.23,-25.13 294.23,-32.13"/>
</a>
</g>
</g>
<!-- Node12&#45;&gt;Node4 -->
<g id="edge17_Node000012_Node000004" class="edge">
<title>Node12&#45;&gt;Node4</title>
<g id="a_edge17_Node000012_Node000004"><a xlink:title=" ">
<path fill="none" stroke="#63b8ff" d="M357.64,-34.55C374.88,-38.53 398.39,-43.75 419.25,-47.62 448.87,-53.12 482.67,-58.19 507.64,-61.7"/>
<polygon fill="#63b8ff" stroke="#63b8ff" points="506.91,-65.13 517.29,-63.04 507.87,-58.2 506.91,-65.13"/>
</a>
</g>
</g>
<!-- Node13 -->
<g id="Node000013" class="node">
<title>Node13</title>
<g id="a_Node000013"><a xlink:href="LIBFT_2ft__isalnum_8c.html#a9c2c3821ea43ebdf97de07b123503f8b" target="_top" xlink:title=" ">
<polygon fill="white" stroke="#666666" points="480.25,-38.25 419.25,-38.25 419.25,-19 480.25,-19 480.25,-38.25"/>
<text text-anchor="middle" x="449.75" y="-24.75" font-family="Helvetica,sans-Serif" font-size="10.00">ft_isalnum</text>
</a>
</g>
</g>
<!-- Node12&#45;&gt;Node13 -->
<g id="edge13_Node000012_Node000013" class="edge">
<title>Node12&#45;&gt;Node13</title>
<g id="a_edge13_Node000012_Node000013"><a xlink:title=" ">
<path fill="none" stroke="#63b8ff" d="M357.63,-28.62C372.24,-28.62 391.06,-28.62 407.79,-28.62"/>
<polygon fill="#63b8ff" stroke="#63b8ff" points="407.46,-32.13 417.46,-28.63 407.46,-25.13 407.46,-32.13"/>
</a>
</g>
</g>
<!-- Node14 -->
<g id="Node000014" class="node">
<title>Node14</title>
<g id="a_Node000014"><a xlink:href="LIBFT_2ft__isalpha_8c.html#ac283963beaa3b8c7d09b78851cda297e" target="_top" xlink:title=" ">
<polygon fill="white" stroke="#666666" points="574.25,-19.25 516.25,-19.25 516.25,0 574.25,0 574.25,-19.25"/>
<text text-anchor="middle" x="545.25" y="-5.75" font-family="Helvetica,sans-Serif" font-size="10.00">ft_isalpha</text>
</a>
</g>
</g>
<!-- Node12&#45;&gt;Node14 -->
<g id="edge16_Node000012_Node000014" class="edge">
<title>Node12&#45;&gt;Node14</title>
<g id="a_edge16_Node000012_Node000014"><a xlink:title=" ">
<path fill="none" stroke="#63b8ff" d="M357.87,-21.6C375.01,-17.18 398.31,-11.9 419.25,-9.62 447.62,-6.55 479.82,-6.63 504.43,-7.44"/>
<polygon fill="#63b8ff" stroke="#63b8ff" points="504.22,-10.93 514.35,-7.83 504.49,-3.94 504.22,-10.93"/>
</a>
</g>
</g>
<!-- Node13&#45;&gt;Node4 -->
<g id="edge15_Node000013_Node000004" class="edge">
<title>Node13&#45;&gt;Node4</title>
<g id="a_edge15_Node000013_Node000004"><a xlink:title=" ">
<path fill="none" stroke="#63b8ff" d="M475.32,-38.61C485.65,-42.81 497.86,-47.77 509.12,-52.35"/>
<polygon fill="#63b8ff" stroke="#63b8ff" points="507.54,-55.48 518.12,-56.01 510.17,-49 507.54,-55.48"/>
</a>
</g>
</g>
<!-- Node13&#45;&gt;Node14 -->
<g id="edge14_Node000013_Node000014" class="edge">
<title>Node13&#45;&gt;Node14</title>
<g id="a_edge14_Node000013_Node000014"><a xlink:title=" ">
<path fill="none" stroke="#63b8ff" d="M480.59,-22.56C488.29,-21 496.7,-19.29 504.81,-17.64"/>
<polygon fill="#63b8ff" stroke="#63b8ff" points="505.38,-21.1 514.48,-15.67 503.99,-14.24 505.38,-21.1"/>
</a>
</g>
</g>
</g>
</svg>
