<?xml version="1.0" encoding="UTF-8" standalone="no"?>
<!DOCTYPE svg PUBLIC "-//W3C//DTD SVG 1.1//EN"
 "http://www.w3.org/Graphics/SVG/1.1/DTD/svg11.dtd">
<!-- Generated by graphviz version 9.0.0 (20230911.1827)
 -->
<!-- Title: reflect Pages: 1 -->
<svg width="486pt" height="175pt"
 viewBox="0.00 0.00 485.50 175.25" xmlns="http://www.w3.org/2000/svg" xmlns:xlink="http://www.w3.org/1999/xlink">
<g id="graph0" class="graph" transform="scale(1 1) rotate(0) translate(4 171.25)">
<title>reflect</title>
<!-- Node1 -->
<g id="Node000001" class="node">
<title>Node1</title>
<g id="a_Node000001"><a xlink:title=" ">
<polygon fill="#999999" stroke="#666666" points="42.25,-93.25 0,-93.25 0,-74 42.25,-74 42.25,-93.25"/>
<text text-anchor="middle" x="21.12" y="-79.75" font-family="Helvetica,sans-Serif" font-size="10.00">reflect</text>
</a>
</g>
</g>
<!-- Node2 -->
<g id="Node000002" class="node">
<title>Node2</title>
<g id="a_Node000002"><a xlink:href="matrix__free_8c.html#ab28d26aa6d34d5c2a3b83b9ee519fec6" target="_top" xlink:title=" ">
<polygon fill="white" stroke="#666666" points="159.12,-167.25 95.12,-167.25 95.12,-148 159.12,-148 159.12,-167.25"/>
<text text-anchor="middle" x="127.12" y="-153.75" font-family="Helvetica,sans-Serif" font-size="10.00">free_matrix</text>
</a>
</g>
</g>
<!-- Node1&#45;&gt;Node2 -->
<g id="edge1_Node000001_Node000002" class="edge">
<title>Node1&#45;&gt;Node2</title>
<g id="a_edge1_Node000001_Node000002"><a xlink:title=" ">
<path fill="none" stroke="#63b8ff" d="M29.86,-93.62C39.85,-105.94 58.34,-126.81 78.25,-139.62 80.23,-140.9 82.32,-142.11 84.47,-143.24"/>
<polygon fill="#63b8ff" stroke="#63b8ff" points="82.89,-146.37 93.43,-147.41 85.84,-140.02 82.89,-146.37"/>
</a>
</g>
</g>
<!-- Node3 -->
<g id="Node000003" class="node">
<title>Node3</title>
<g id="a_Node000003"><a xlink:href="matrix__clone_8c.html#a664de98f31a1171b994283a70249628a" target="_top" xlink:title=" ">
<polygon fill="white" stroke="#666666" points="162.5,-130.25 91.75,-130.25 91.75,-111 162.5,-111 162.5,-130.25"/>
<text text-anchor="middle" x="127.12" y="-116.75" font-family="Helvetica,sans-Serif" font-size="10.00">matrix_clone</text>
</a>
</g>
</g>
<!-- Node1&#45;&gt;Node3 -->
<g id="edge2_Node000001_Node000003" class="edge">
<title>Node1&#45;&gt;Node3</title>
<g id="a_edge2_Node000001_Node000003"><a xlink:title=" ">
<path fill="none" stroke="#63b8ff" d="M42.67,-90.94C55.34,-95.44 72,-101.37 87.11,-106.74"/>
<polygon fill="#63b8ff" stroke="#63b8ff" points="85.73,-109.97 96.32,-110.02 88.07,-103.37 85.73,-109.97"/>
</a>
</g>
</g>
<!-- Node8 -->
<g id="Node000008" class="node">
<title>Node8</title>
<g id="a_Node000008"><a xlink:href="matrix__dot_8c.html#a1e63fc9ff7ee9be50c15ed7399415881" target="_top" xlink:title="Function that finds the dot (.) product of 2 vectors.">
<polygon fill="white" stroke="#666666" points="157.62,-93.25 96.62,-93.25 96.62,-74 157.62,-74 157.62,-93.25"/>
<text text-anchor="middle" x="127.12" y="-79.75" font-family="Helvetica,sans-Serif" font-size="10.00">matrix_dot</text>
</a>
</g>
</g>
<!-- Node1&#45;&gt;Node8 -->
<g id="edge7_Node000001_Node000008" class="edge">
<title>Node1&#45;&gt;Node8</title>
<g id="a_edge7_Node000001_Node000008"><a xlink:title=" ">
<path fill="none" stroke="#63b8ff" d="M42.67,-83.62C54.72,-83.62 70.38,-83.62 84.88,-83.62"/>
<polygon fill="#63b8ff" stroke="#63b8ff" points="84.65,-87.13 94.65,-83.63 84.65,-80.13 84.65,-87.13"/>
</a>
</g>
</g>
<!-- Node9 -->
<g id="Node000009" class="node">
<title>Node9</title>
<g id="a_Node000009"><a xlink:href="matrix__scalar__mult_8c.html#ae585cf0ad839c7387a52c67339d5a871" target="_top" xlink:title=" ">
<polygon fill="white" stroke="#666666" points="176,-56.25 78.25,-56.25 78.25,-37 176,-37 176,-56.25"/>
<text text-anchor="middle" x="127.12" y="-42.75" font-family="Helvetica,sans-Serif" font-size="10.00">matrix_scalar_mult</text>
</a>
</g>
</g>
<!-- Node1&#45;&gt;Node9 -->
<g id="edge8_Node000001_Node000009" class="edge">
<title>Node1&#45;&gt;Node9</title>
<g id="a_edge8_Node000001_Node000009"><a xlink:title=" ">
<path fill="none" stroke="#63b8ff" d="M42.67,-76.31C55.34,-71.81 72,-65.88 87.11,-60.51"/>
<polygon fill="#63b8ff" stroke="#63b8ff" points="88.07,-63.88 96.32,-57.23 85.73,-57.28 88.07,-63.88"/>
</a>
</g>
</g>
<!-- Node10 -->
<g id="Node000010" class="node">
<title>Node10</title>
<g id="a_Node000010"><a xlink:href="matrix__sum_8c.html#a131fcf979705ebc7d09650c74adddfbb" target="_top" xlink:title=" ">
<polygon fill="white" stroke="#666666" points="161.38,-19.25 92.88,-19.25 92.88,0 161.38,0 161.38,-19.25"/>
<text text-anchor="middle" x="127.12" y="-5.75" font-family="Helvetica,sans-Serif" font-size="10.00">matrix_subs</text>
</a>
</g>
</g>
<!-- Node1&#45;&gt;Node10 -->
<g id="edge9_Node000001_Node000010" class="edge">
<title>Node1&#45;&gt;Node10</title>
<g id="a_edge9_Node000001_Node000010"><a xlink:title=" ">
<path fill="none" stroke="#63b8ff" d="M29.86,-73.63C39.85,-61.31 58.34,-40.44 78.25,-27.62 79.87,-26.58 81.55,-25.59 83.28,-24.64"/>
<polygon fill="#63b8ff" stroke="#63b8ff" points="84.67,-27.86 92.18,-20.38 81.65,-21.55 84.67,-27.86"/>
</a>
</g>
</g>
<!-- Node4 -->
<g id="Node000004" class="node">
<title>Node4</title>
<g id="a_Node000004"><a xlink:href="matrix__create_8c.html#a5291384d37d735f9c3fc33c03d2788ad" target="_top" xlink:title=" ">
<polygon fill="white" stroke="#666666" points="286.5,-74.25 212,-74.25 212,-55 286.5,-55 286.5,-74.25"/>
<text text-anchor="middle" x="249.25" y="-60.75" font-family="Helvetica,sans-Serif" font-size="10.00">matrix_create</text>
</a>
</g>
</g>
<!-- Node3&#45;&gt;Node4 -->
<g id="edge3_Node000003_Node000004" class="edge">
<title>Node3&#45;&gt;Node4</title>
<g id="a_edge3_Node000003_Node000004"><a xlink:title=" ">
<path fill="none" stroke="#63b8ff" d="M156.72,-110.54C163.12,-108.1 169.84,-105.39 176,-102.62 191.1,-95.85 207.46,-87.35 220.78,-80.1"/>
<polygon fill="#63b8ff" stroke="#63b8ff" points="222.34,-83.24 229.41,-75.35 218.97,-77.11 222.34,-83.24"/>
</a>
</g>
</g>
<!-- Node5 -->
<g id="Node000005" class="node">
<title>Node5</title>
<g id="a_Node000005"><a xlink:href="free__dptr_8c.html#aaa705b6d12fb1a9a15e6103879ec0ea0" target="_top" xlink:title=" ">
<polygon fill="white" stroke="#666666" points="383.88,-93.25 329.62,-93.25 329.62,-74 383.88,-74 383.88,-93.25"/>
<text text-anchor="middle" x="356.75" y="-79.75" font-family="Helvetica,sans-Serif" font-size="10.00">free_dptr</text>
</a>
</g>
</g>
<!-- Node4&#45;&gt;Node5 -->
<g id="edge4_Node000004_Node000005" class="edge">
<title>Node4&#45;&gt;Node5</title>
<g id="a_edge4_Node000004_Node000005"><a xlink:title=" ">
<path fill="none" stroke="#63b8ff" d="M286.85,-71.22C296.97,-73.04 307.97,-75.02 318.14,-76.85"/>
<polygon fill="#63b8ff" stroke="#63b8ff" points="317.24,-80.25 327.7,-78.57 318.48,-73.36 317.24,-80.25"/>
</a>
</g>
</g>
<!-- Node6 -->
<g id="Node000006" class="node">
<title>Node6</title>
<g id="a_Node000006"><a xlink:href="safe__malloc_8c.html#ab8bcda0e59b6f8eab1bfd9f92de50c6c" target="_top" xlink:title=" ">
<polygon fill="white" stroke="#666666" points="391,-56.25 322.5,-56.25 322.5,-37 391,-37 391,-56.25"/>
<text text-anchor="middle" x="356.75" y="-42.75" font-family="Helvetica,sans-Serif" font-size="10.00">safe_malloc</text>
</a>
</g>
</g>
<!-- Node4&#45;&gt;Node6 -->
<g id="edge5_Node000004_Node000006" class="edge">
<title>Node4&#45;&gt;Node6</title>
<g id="a_edge5_Node000004_Node000006"><a xlink:title=" ">
<path fill="none" stroke="#63b8ff" d="M286.85,-58.38C294.62,-57.05 302.9,-55.64 310.93,-54.27"/>
<polygon fill="#63b8ff" stroke="#63b8ff" points="311.28,-57.76 320.55,-52.63 310.1,-50.86 311.28,-57.76"/>
</a>
</g>
</g>
<!-- Node7 -->
<g id="Node000007" class="node">
<title>Node7</title>
<g id="a_Node000007"><a xlink:href="LIBFT_2ft__bzero_8c.html#a5937ab0d08e31d0e3e4a16ec71e293a1" target="_top" xlink:title=" ">
<polygon fill="white" stroke="#666666" points="477.5,-56.25 427,-56.25 427,-37 477.5,-37 477.5,-56.25"/>
<text text-anchor="middle" x="452.25" y="-42.75" font-family="Helvetica,sans-Serif" font-size="10.00">ft_bzero</text>
</a>
</g>
</g>
<!-- Node6&#45;&gt;Node7 -->
<g id="edge6_Node000006_Node000007" class="edge">
<title>Node6&#45;&gt;Node7</title>
<g id="a_edge6_Node000006_Node000007"><a xlink:title=" ">
<path fill="none" stroke="#63b8ff" d="M391.24,-46.62C399.13,-46.62 407.56,-46.62 415.54,-46.62"/>
<polygon fill="#63b8ff" stroke="#63b8ff" points="415.28,-50.13 425.28,-46.63 415.28,-43.13 415.28,-50.13"/>
</a>
</g>
</g>
<!-- Node10&#45;&gt;Node4 -->
<g id="edge10_Node000010_Node000004" class="edge">
<title>Node10&#45;&gt;Node4</title>
<g id="a_edge10_Node000010_Node000004"><a xlink:title=" ">
<path fill="none" stroke="#63b8ff" d="M156.44,-19.66C162.92,-22.13 169.75,-24.86 176,-27.62 190.85,-34.19 206.96,-42.34 220.2,-49.32"/>
<polygon fill="#63b8ff" stroke="#63b8ff" points="218.31,-52.28 228.78,-53.9 221.61,-46.1 218.31,-52.28"/>
</a>
</g>
</g>
</g>
</svg>
