<?xml version="1.0" encoding="UTF-8" standalone="no"?>
<!DOCTYPE svg PUBLIC "-//W3C//DTD SVG 1.1//EN"
 "http://www.w3.org/Graphics/SVG/1.1/DTD/svg11.dtd">
<!-- Generated by graphviz version 9.0.0 (20230911.1827)
 -->
<!-- Title: /github/workspace/SRC/BASE/HELPERS/prepare_computations.c Pages: 1 -->
<svg width="497pt" height="216pt"
 viewBox="0.00 0.00 496.59 215.50" xmlns="http://www.w3.org/2000/svg" xmlns:xlink="http://www.w3.org/1999/xlink">
<g id="graph0" class="graph" transform="scale(1 1) rotate(0) translate(4 211.5)">
<title>/github/workspace/SRC/BASE/HELPERS/prepare_computations.c</title>
<!-- Node1 -->
<g id="Node000001" class="node">
<title>Node1</title>
<g id="a_Node000001"><a xlink:title=" ">
<polygon fill="#999999" stroke="#666666" points="220.59,-207.5 91.34,-207.5 91.34,-165.75 220.59,-165.75 220.59,-207.5"/>
<text text-anchor="start" x="99.34" y="-194" font-family="Helvetica,sans-Serif" font-size="10.00">/github/workspace/SRC</text>
<text text-anchor="start" x="99.34" y="-182.75" font-family="Helvetica,sans-Serif" font-size="10.00">/BASE/HELPERS/prepare</text>
<text text-anchor="middle" x="155.97" y="-171.5" font-family="Helvetica,sans-Serif" font-size="10.00">_computations.c</text>
</a>
</g>
</g>
<!-- Node2 -->
<g id="Node000002" class="node">
<title>Node2</title>
<g id="a_Node000002"><a xlink:href="types_8h.html" target="_top" xlink:title=" ">
<polygon fill="white" stroke="#666666" points="179.34,-74.5 132.59,-74.5 132.59,-55.25 179.34,-55.25 179.34,-74.5"/>
<text text-anchor="middle" x="155.97" y="-61" font-family="Helvetica,sans-Serif" font-size="10.00">types.h</text>
</a>
</g>
</g>
<!-- Node1&#45;&gt;Node2 -->
<g id="edge1_Node000001_Node000002" class="edge">
<title>Node1&#45;&gt;Node2</title>
<g id="a_edge1_Node000001_Node000002"><a xlink:title=" ">
<path fill="none" stroke="#63b8ff" d="M90.92,-176.34C39.47,-166.14 -19.63,-146.23 6.97,-110.5 33.12,-75.37 85.93,-66.84 121.13,-65.31"/>
<polygon fill="#63b8ff" stroke="#63b8ff" points="120.9,-68.82 130.81,-65.07 120.73,-61.82 120.9,-68.82"/>
</a>
</g>
</g>
<!-- Node6 -->
<g id="Node000006" class="node">
<title>Node6</title>
<g id="a_Node000006"><a xlink:href="muk__lib_8h.html" target="_top" xlink:title=" ">
<polygon fill="white" stroke="#666666" points="372.59,-129.75 315.34,-129.75 315.34,-110.5 372.59,-110.5 372.59,-129.75"/>
<text text-anchor="middle" x="343.97" y="-116.25" font-family="Helvetica,sans-Serif" font-size="10.00">muk_lib.h</text>
</a>
</g>
</g>
<!-- Node1&#45;&gt;Node6 -->
<g id="edge5_Node000001_Node000006" class="edge">
<title>Node1&#45;&gt;Node6</title>
<g id="a_edge5_Node000001_Node000006"><a xlink:title=" ">
<path fill="none" stroke="#63b8ff" d="M215.19,-165.31C245.24,-155 280.8,-142.8 306.93,-133.83"/>
<polygon fill="#63b8ff" stroke="#63b8ff" points="307.75,-137.25 316.07,-130.7 305.48,-130.63 307.75,-137.25"/>
</a>
</g>
</g>
<!-- Node11 -->
<g id="Node000011" class="node">
<title>Node11</title>
<g id="a_Node000011"><a xlink:href="base__matrices_8h.html" target="_top" xlink:title=" ">
<polygon fill="white" stroke="#666666" points="103.59,-129.75 16.34,-129.75 16.34,-110.5 103.59,-110.5 103.59,-129.75"/>
<text text-anchor="middle" x="59.97" y="-116.25" font-family="Helvetica,sans-Serif" font-size="10.00">base_matrices.h</text>
</a>
</g>
</g>
<!-- Node1&#45;&gt;Node11 -->
<g id="edge11_Node000001_Node000011" class="edge">
<title>Node1&#45;&gt;Node11</title>
<g id="a_edge11_Node000001_Node000011"><a xlink:title=" ">
<path fill="none" stroke="#63b8ff" d="M125.86,-165.39C111.97,-156.07 95.76,-145.17 82.89,-136.52"/>
<polygon fill="#63b8ff" stroke="#63b8ff" points="84.9,-133.66 74.65,-130.99 81,-139.47 84.9,-133.66"/>
</a>
</g>
</g>
<!-- Node12 -->
<g id="Node000012" class="node">
<title>Node12</title>
<g id="a_Node000012"><a xlink:href="base__rays_8h.html" target="_top" xlink:title=" ">
<polygon fill="white" stroke="#666666" points="189.84,-129.75 122.09,-129.75 122.09,-110.5 189.84,-110.5 189.84,-129.75"/>
<text text-anchor="middle" x="155.97" y="-116.25" font-family="Helvetica,sans-Serif" font-size="10.00">base_rays.h</text>
</a>
</g>
</g>
<!-- Node1&#45;&gt;Node12 -->
<g id="edge13_Node000001_Node000012" class="edge">
<title>Node1&#45;&gt;Node12</title>
<g id="a_edge13_Node000001_Node000012"><a xlink:title=" ">
<path fill="none" stroke="#63b8ff" d="M155.97,-165.57C155.97,-157.9 155.97,-149.14 155.97,-141.45"/>
<polygon fill="#63b8ff" stroke="#63b8ff" points="159.47,-141.71 155.97,-131.71 152.47,-141.71 159.47,-141.71"/>
</a>
</g>
</g>
<!-- Node13 -->
<g id="Node000013" class="node">
<title>Node13</title>
<g id="a_Node000013"><a xlink:href="objects__sphere_8h.html" target="_top" xlink:title=" ">
<polygon fill="white" stroke="#666666" points="297.72,-129.75 208.22,-129.75 208.22,-110.5 297.72,-110.5 297.72,-129.75"/>
<text text-anchor="middle" x="252.97" y="-116.25" font-family="Helvetica,sans-Serif" font-size="10.00">objects_sphere.h</text>
</a>
</g>
</g>
<!-- Node1&#45;&gt;Node13 -->
<g id="edge15_Node000001_Node000013" class="edge">
<title>Node1&#45;&gt;Node13</title>
<g id="a_edge15_Node000001_Node000013"><a xlink:title=" ">
<path fill="none" stroke="#63b8ff" d="M186.39,-165.39C200.56,-155.97 217.13,-144.96 230.19,-136.27"/>
<polygon fill="#63b8ff" stroke="#63b8ff" points="231.75,-139.43 238.14,-130.98 227.88,-133.61 231.75,-139.43"/>
</a>
</g>
</g>
<!-- Node3 -->
<g id="Node000003" class="node">
<title>Node3</title>
<g id="a_Node000003"><a xlink:title=" ">
<polygon fill="#e0e0e0" stroke="#999999" points="115.47,-19.25 60.47,-19.25 60.47,0 115.47,0 115.47,-19.25"/>
<text text-anchor="middle" x="87.97" y="-5.75" font-family="Helvetica,sans-Serif" font-size="10.00">stdbool.h</text>
</a>
</g>
</g>
<!-- Node2&#45;&gt;Node3 -->
<g id="edge2_Node000002_Node000003" class="edge">
<title>Node2&#45;&gt;Node3</title>
<g id="a_edge2_Node000002_Node000003"><a xlink:title=" ">
<path fill="none" stroke="#63b8ff" d="M144.43,-54.84C134.51,-47.07 119.96,-35.67 108.11,-26.4"/>
<polygon fill="#63b8ff" stroke="#63b8ff" points="110.56,-23.87 100.52,-20.46 106.24,-29.38 110.56,-23.87"/>
</a>
</g>
</g>
<!-- Node4 -->
<g id="Node000004" class="node">
<title>Node4</title>
<g id="a_Node000004"><a xlink:title=" ">
<polygon fill="#e0e0e0" stroke="#999999" points="247.34,-19.25 200.59,-19.25 200.59,0 247.34,0 247.34,-19.25"/>
<text text-anchor="middle" x="223.97" y="-5.75" font-family="Helvetica,sans-Serif" font-size="10.00">stdlib.h</text>
</a>
</g>
</g>
<!-- Node2&#45;&gt;Node4 -->
<g id="edge3_Node000002_Node000004" class="edge">
<title>Node2&#45;&gt;Node4</title>
<g id="a_edge3_Node000002_Node000004"><a xlink:title=" ">
<path fill="none" stroke="#63b8ff" d="M167.5,-54.84C177.43,-47.07 191.98,-35.67 203.82,-26.4"/>
<polygon fill="#63b8ff" stroke="#63b8ff" points="205.7,-29.38 211.41,-20.46 201.38,-23.87 205.7,-29.38"/>
</a>
</g>
</g>
<!-- Node5 -->
<g id="Node000005" class="node">
<title>Node5</title>
<g id="a_Node000005"><a xlink:title=" ">
<polygon fill="#e0e0e0" stroke="#999999" points="180.34,-19.25 133.59,-19.25 133.59,0 180.34,0 180.34,-19.25"/>
<text text-anchor="middle" x="156.97" y="-5.75" font-family="Helvetica,sans-Serif" font-size="10.00">limits.h</text>
</a>
</g>
</g>
<!-- Node2&#45;&gt;Node5 -->
<g id="edge4_Node000002_Node000005" class="edge">
<title>Node2&#45;&gt;Node5</title>
<g id="a_edge4_Node000002_Node000005"><a xlink:title=" ">
<path fill="none" stroke="#63b8ff" d="M156.13,-55.08C156.26,-48.57 156.43,-39.42 156.58,-31.12"/>
<polygon fill="#63b8ff" stroke="#63b8ff" points="160.08,-31.19 156.77,-21.12 153.08,-31.05 160.08,-31.19"/>
</a>
</g>
</g>
<!-- Node6&#45;&gt;Node4 -->
<g id="edge6_Node000006_Node000004" class="edge">
<title>Node6&#45;&gt;Node4</title>
<g id="a_edge6_Node000006_Node000004"><a xlink:title=" ">
<path fill="none" stroke="#63b8ff" d="M317.56,-110.15C291.53,-100.82 254.21,-86 243.97,-74.5 233.2,-62.4 228.23,-44.55 225.94,-30.79"/>
<polygon fill="#63b8ff" stroke="#63b8ff" points="229.44,-30.56 224.68,-21.09 222.49,-31.46 229.44,-30.56"/>
</a>
</g>
</g>
<!-- Node7 -->
<g id="Node000007" class="node">
<title>Node7</title>
<g id="a_Node000007"><a xlink:title=" ">
<polygon fill="#e0e0e0" stroke="#999999" points="302.84,-74.5 253.09,-74.5 253.09,-55.25 302.84,-55.25 302.84,-74.5"/>
<text text-anchor="middle" x="277.97" y="-61" font-family="Helvetica,sans-Serif" font-size="10.00">unistd.h</text>
</a>
</g>
</g>
<!-- Node6&#45;&gt;Node7 -->
<g id="edge7_Node000006_Node000007" class="edge">
<title>Node6&#45;&gt;Node7</title>
<g id="a_edge7_Node000006_Node000007"><a xlink:title=" ">
<path fill="none" stroke="#63b8ff" d="M332.77,-110.09C323.23,-102.4 309.29,-91.15 297.86,-81.93"/>
<polygon fill="#63b8ff" stroke="#63b8ff" points="300.16,-79.28 290.18,-75.73 295.76,-84.73 300.16,-79.28"/>
</a>
</g>
</g>
<!-- Node8 -->
<g id="Node000008" class="node">
<title>Node8</title>
<g id="a_Node000008"><a xlink:title=" ">
<polygon fill="#e0e0e0" stroke="#999999" points="365.22,-74.5 320.72,-74.5 320.72,-55.25 365.22,-55.25 365.22,-74.5"/>
<text text-anchor="middle" x="342.97" y="-61" font-family="Helvetica,sans-Serif" font-size="10.00">stdio.h</text>
</a>
</g>
</g>
<!-- Node6&#45;&gt;Node8 -->
<g id="edge8_Node000006_Node000008" class="edge">
<title>Node6&#45;&gt;Node8</title>
<g id="a_edge8_Node000006_Node000008"><a xlink:title=" ">
<path fill="none" stroke="#63b8ff" d="M343.8,-110.33C343.68,-103.82 343.51,-94.67 343.35,-86.37"/>
<polygon fill="#63b8ff" stroke="#63b8ff" points="346.85,-86.3 343.17,-76.37 339.85,-86.44 346.85,-86.3"/>
</a>
</g>
</g>
<!-- Node9 -->
<g id="Node000009" class="node">
<title>Node9</title>
<g id="a_Node000009"><a xlink:title=" ">
<polygon fill="#e0e0e0" stroke="#999999" points="425.09,-74.5 382.84,-74.5 382.84,-55.25 425.09,-55.25 425.09,-74.5"/>
<text text-anchor="middle" x="403.97" y="-61" font-family="Helvetica,sans-Serif" font-size="10.00">fcntl.h</text>
</a>
</g>
</g>
<!-- Node6&#45;&gt;Node9 -->
<g id="edge9_Node000006_Node000009" class="edge">
<title>Node6&#45;&gt;Node9</title>
<g id="a_edge9_Node000006_Node000009"><a xlink:title=" ">
<path fill="none" stroke="#63b8ff" d="M354.15,-110.09C362.73,-102.47 375.24,-91.37 385.57,-82.2"/>
<polygon fill="#63b8ff" stroke="#63b8ff" points="387.65,-85.04 392.81,-75.78 383.01,-79.8 387.65,-85.04"/>
</a>
</g>
</g>
<!-- Node10 -->
<g id="Node000010" class="node">
<title>Node10</title>
<g id="a_Node000010"><a xlink:title=" ">
<polygon fill="#e0e0e0" stroke="#999999" points="488.59,-74.5 443.34,-74.5 443.34,-55.25 488.59,-55.25 488.59,-74.5"/>
<text text-anchor="middle" x="465.97" y="-61" font-family="Helvetica,sans-Serif" font-size="10.00">math.h</text>
</a>
</g>
</g>
<!-- Node6&#45;&gt;Node10 -->
<g id="edge10_Node000006_Node000010" class="edge">
<title>Node6&#45;&gt;Node10</title>
<g id="a_edge10_Node000006_Node000010"><a xlink:title=" ">
<path fill="none" stroke="#63b8ff" d="M364.66,-110.09C383.86,-101.72 412.68,-89.13 434.68,-79.53"/>
<polygon fill="#63b8ff" stroke="#63b8ff" points="436.02,-82.77 443.78,-75.56 433.22,-76.35 436.02,-82.77"/>
</a>
</g>
</g>
<!-- Node11&#45;&gt;Node2 -->
<g id="edge12_Node000011_Node000002" class="edge">
<title>Node11&#45;&gt;Node2</title>
<g id="a_edge12_Node000011_Node000002"><a xlink:title=" ">
<path fill="none" stroke="#63b8ff" d="M76.25,-110.09C90.87,-101.98 112.6,-89.93 129.67,-80.46"/>
<polygon fill="#63b8ff" stroke="#63b8ff" points="131.23,-83.6 138.28,-75.69 127.84,-77.48 131.23,-83.6"/>
</a>
</g>
</g>
<!-- Node12&#45;&gt;Node2 -->
<g id="edge14_Node000012_Node000002" class="edge">
<title>Node12&#45;&gt;Node2</title>
<g id="a_edge14_Node000012_Node000002"><a xlink:title=" ">
<path fill="none" stroke="#63b8ff" d="M155.97,-110.33C155.97,-103.82 155.97,-94.67 155.97,-86.37"/>
<polygon fill="#63b8ff" stroke="#63b8ff" points="159.47,-86.37 155.97,-76.37 152.47,-86.37 159.47,-86.37"/>
</a>
</g>
</g>
<!-- Node13&#45;&gt;Node2 -->
<g id="edge16_Node000013_Node000002" class="edge">
<title>Node13&#45;&gt;Node2</title>
<g id="a_edge16_Node000013_Node000002"><a xlink:title=" ">
<path fill="none" stroke="#63b8ff" d="M236.51,-110.09C221.74,-101.98 199.79,-89.93 182.54,-80.46"/>
<polygon fill="#63b8ff" stroke="#63b8ff" points="184.28,-77.43 173.83,-75.68 180.91,-83.56 184.28,-77.43"/>
</a>
</g>
</g>
</g>
</svg>
