<?xml version="1.0" encoding="UTF-8" standalone="no"?>
<!DOCTYPE svg PUBLIC "-//W3C//DTD SVG 1.1//EN"
 "http://www.w3.org/Graphics/SVG/1.1/DTD/svg11.dtd">
<!-- Generated by graphviz version 9.0.0 (20230911.1827)
 -->
<!-- Title: ray_create Pages: 1 -->
<svg width="458pt" height="64pt"
 viewBox="0.00 0.00 458.25 64.25" xmlns="http://www.w3.org/2000/svg" xmlns:xlink="http://www.w3.org/1999/xlink">
<g id="graph0" class="graph" transform="scale(1 1) rotate(0) translate(4 60.25)">
<title>ray_create</title>
<!-- Node1 -->
<g id="Node000001" class="node">
<title>Node1</title>
<g id="a_Node000001"><a xlink:title=" ">
<polygon fill="#999999" stroke="#666666" points="450.25,-37.25 389.25,-37.25 389.25,-18 450.25,-18 450.25,-37.25"/>
<text text-anchor="middle" x="419.75" y="-23.75" font-family="Helvetica,sans-Serif" font-size="10.00">ray_create</text>
</a>
</g>
</g>
<!-- Node2 -->
<g id="Node000002" class="node">
<title>Node2</title>
<g id="a_Node000002"><a xlink:href="ray__clone_8c.html#a2cec923765c270860af3d023b8236564" target="_top" xlink:title=" ">
<polygon fill="white" stroke="#666666" points="344.25,-56.25 287,-56.25 287,-37 344.25,-37 344.25,-56.25"/>
<text text-anchor="middle" x="315.62" y="-42.75" font-family="Helvetica,sans-Serif" font-size="10.00">ray_clone</text>
</a>
</g>
</g>
<!-- Node1&#45;&gt;Node2 -->
<g id="edge1_Node000001_Node000002" class="edge">
<title>Node1&#45;&gt;Node2</title>
<g id="a_edge1_Node000001_Node000002"><a xlink:title=" ">
<path fill="none" stroke="#63b8ff" d="M377.67,-35.27C366.55,-37.34 354.77,-39.53 344.55,-41.43"/>
<polygon fill="#63b8ff" stroke="#63b8ff" points="378.26,-38.72 387.45,-33.45 376.98,-31.84 378.26,-38.72"/>
</a>
</g>
</g>
<!-- Node3 -->
<g id="Node000003" class="node">
<title>Node3</title>
<g id="a_Node000003"><a xlink:href="ray__transform_8c.html#a4b22c1091f5143dc209773a18fd27f15" target="_top" xlink:title=" ">
<polygon fill="white" stroke="#666666" points="353.25,-19.25 278,-19.25 278,0 353.25,0 353.25,-19.25"/>
<text text-anchor="middle" x="315.62" y="-5.75" font-family="Helvetica,sans-Serif" font-size="10.00">ray_transform</text>
</a>
</g>
</g>
<!-- Node1&#45;&gt;Node3 -->
<g id="edge2_Node000001_Node000003" class="edge">
<title>Node1&#45;&gt;Node3</title>
<g id="a_edge2_Node000001_Node000003"><a xlink:title=" ">
<path fill="none" stroke="#63b8ff" d="M377.61,-20.37C369.66,-18.97 361.36,-17.51 353.55,-16.13"/>
<polygon fill="#63b8ff" stroke="#63b8ff" points="376.99,-23.82 387.45,-22.11 378.21,-16.92 376.99,-23.82"/>
</a>
</g>
</g>
<!-- Node4 -->
<g id="Node000004" class="node">
<title>Node4</title>
<g id="a_Node000004"><a xlink:href="ray__intersect_8c.html#a20cc82316845ecb42e8e8c218ff72a73" target="_top" xlink:title=" ">
<polygon fill="white" stroke="#666666" points="242,-19.25 136,-19.25 136,0 242,0 242,-19.25"/>
<text text-anchor="middle" x="189" y="-5.75" font-family="Helvetica,sans-Serif" font-size="10.00">ray_intersect_sphere</text>
</a>
</g>
</g>
<!-- Node3&#45;&gt;Node4 -->
<g id="edge3_Node000003_Node000004" class="edge">
<title>Node3&#45;&gt;Node4</title>
<g id="a_edge3_Node000003_Node000004"><a xlink:title=" ">
<path fill="none" stroke="#63b8ff" d="M266.07,-9.62C258.3,-9.62 250.22,-9.62 242.36,-9.62"/>
<polygon fill="#63b8ff" stroke="#63b8ff" points="266.06,-13.13 276.06,-9.63 266.06,-6.13 266.06,-13.13"/>
</a>
</g>
</g>
<!-- Node5 -->
<g id="Node000005" class="node">
<title>Node5</title>
<g id="a_Node000005"><a xlink:href="ray__world__intersect_8c.html#a2e629895d43f70cc7814ef4b0c89cf0d" target="_top" xlink:title=" ">
<polygon fill="white" stroke="#666666" points="100,-19.25 0,-19.25 0,0 100,0 100,-19.25"/>
<text text-anchor="middle" x="50" y="-5.75" font-family="Helvetica,sans-Serif" font-size="10.00">ray_intersect_world</text>
</a>
</g>
</g>
<!-- Node4&#45;&gt;Node5 -->
<g id="edge4_Node000004_Node000005" class="edge">
<title>Node4&#45;&gt;Node5</title>
<g id="a_edge4_Node000004_Node000005"><a xlink:title=" ">
<path fill="none" stroke="#63b8ff" d="M124.47,-9.62C116.36,-9.62 108.17,-9.62 100.33,-9.62"/>
<polygon fill="#63b8ff" stroke="#63b8ff" points="124.3,-13.13 134.3,-9.63 124.3,-6.13 124.3,-13.13"/>
</a>
</g>
</g>
</g>
</svg>
