<?xml version="1.0" encoding="UTF-8" standalone="no"?>
<!DOCTYPE svg PUBLIC "-//W3C//DTD SVG 1.1//EN"
 "http://www.w3.org/Graphics/SVG/1.1/DTD/svg11.dtd">
<!-- Generated by graphviz version 9.0.0 (20230911.1827)
 -->
<!-- Title: /github/workspace/SRC/BASE/RAYS/ray_world_intersect.c Pages: 1 -->
<svg width="429pt" height="216pt"
 viewBox="0.00 0.00 429.12 215.50" xmlns="http://www.w3.org/2000/svg" xmlns:xlink="http://www.w3.org/1999/xlink">
<g id="graph0" class="graph" transform="scale(1 1) rotate(0) translate(4 211.5)">
<title>/github/workspace/SRC/BASE/RAYS/ray_world_intersect.c</title>
<!-- Node1 -->
<g id="Node000001" class="node">
<title>Node1</title>
<g id="a_Node000001"><a xlink:title=" ">
<polygon fill="#999999" stroke="#666666" points="225.25,-207.5 105.75,-207.5 105.75,-165.75 225.25,-165.75 225.25,-207.5"/>
<text text-anchor="start" x="113.75" y="-194" font-family="Helvetica,sans-Serif" font-size="10.00">/github/workspace/SRC</text>
<text text-anchor="start" x="113.75" y="-182.75" font-family="Helvetica,sans-Serif" font-size="10.00">/BASE/RAYS/ray_world</text>
<text text-anchor="middle" x="165.5" y="-171.5" font-family="Helvetica,sans-Serif" font-size="10.00">_intersect.c</text>
</a>
</g>
</g>
<!-- Node2 -->
<g id="Node000002" class="node">
<title>Node2</title>
<g id="a_Node000002"><a xlink:href="types_8h.html" target="_top" xlink:title=" ">
<polygon fill="white" stroke="#666666" points="126.88,-74.5 80.12,-74.5 80.12,-55.25 126.88,-55.25 126.88,-74.5"/>
<text text-anchor="middle" x="103.5" y="-61" font-family="Helvetica,sans-Serif" font-size="10.00">types.h</text>
</a>
</g>
</g>
<!-- Node1&#45;&gt;Node2 -->
<g id="edge1_Node000001_Node000002" class="edge">
<title>Node1&#45;&gt;Node2</title>
<g id="a_edge1_Node000001_Node000002"><a xlink:title=" ">
<path fill="none" stroke="#63b8ff" d="M147,-165.37C138.56,-155.27 129.02,-142.5 122.5,-129.75 115.4,-115.85 110.5,-98.87 107.46,-85.91"/>
<polygon fill="#63b8ff" stroke="#63b8ff" points="110.95,-85.46 105.42,-76.42 104.11,-86.94 110.95,-85.46"/>
</a>
</g>
</g>
<!-- Node6 -->
<g id="Node000006" class="node">
<title>Node6</title>
<g id="a_Node000006"><a xlink:href="base__rays_8h.html" target="_top" xlink:title=" ">
<polygon fill="white" stroke="#666666" points="199.38,-129.75 131.62,-129.75 131.62,-110.5 199.38,-110.5 199.38,-129.75"/>
<text text-anchor="middle" x="165.5" y="-116.25" font-family="Helvetica,sans-Serif" font-size="10.00">base_rays.h</text>
</a>
</g>
</g>
<!-- Node1&#45;&gt;Node6 -->
<g id="edge5_Node000001_Node000006" class="edge">
<title>Node1&#45;&gt;Node6</title>
<g id="a_edge5_Node000001_Node000006"><a xlink:title=" ">
<path fill="none" stroke="#63b8ff" d="M165.5,-165.57C165.5,-157.9 165.5,-149.14 165.5,-141.45"/>
<polygon fill="#63b8ff" stroke="#63b8ff" points="169,-141.71 165.5,-131.71 162,-141.71 169,-141.71"/>
</a>
</g>
</g>
<!-- Node7 -->
<g id="Node000007" class="node">
<title>Node7</title>
<g id="a_Node000007"><a xlink:href="muk__lib_8h.html" target="_top" xlink:title=" ">
<polygon fill="white" stroke="#666666" points="288.12,-129.75 230.88,-129.75 230.88,-110.5 288.12,-110.5 288.12,-129.75"/>
<text text-anchor="middle" x="259.5" y="-116.25" font-family="Helvetica,sans-Serif" font-size="10.00">muk_lib.h</text>
</a>
</g>
</g>
<!-- Node1&#45;&gt;Node7 -->
<g id="edge7_Node000001_Node000007" class="edge">
<title>Node1&#45;&gt;Node7</title>
<g id="a_edge7_Node000001_Node000007"><a xlink:title=" ">
<path fill="none" stroke="#63b8ff" d="M194.98,-165.39C208.58,-156.07 224.46,-145.17 237.06,-136.52"/>
<polygon fill="#63b8ff" stroke="#63b8ff" points="238.84,-139.54 245.11,-131 234.88,-133.77 238.84,-139.54"/>
</a>
</g>
</g>
<!-- Node3 -->
<g id="Node000003" class="node">
<title>Node3</title>
<g id="a_Node000003"><a xlink:title=" ">
<polygon fill="#e0e0e0" stroke="#999999" points="55,-19.25 0,-19.25 0,0 55,0 55,-19.25"/>
<text text-anchor="middle" x="27.5" y="-5.75" font-family="Helvetica,sans-Serif" font-size="10.00">stdbool.h</text>
</a>
</g>
</g>
<!-- Node2&#45;&gt;Node3 -->
<g id="edge2_Node000002_Node000003" class="edge">
<title>Node2&#45;&gt;Node3</title>
<g id="a_edge2_Node000002_Node000003"><a xlink:title=" ">
<path fill="none" stroke="#63b8ff" d="M90.61,-54.84C79.47,-47.04 63.13,-35.59 49.86,-26.29"/>
<polygon fill="#63b8ff" stroke="#63b8ff" points="51.89,-23.44 41.7,-20.57 47.88,-29.18 51.89,-23.44"/>
</a>
</g>
</g>
<!-- Node4 -->
<g id="Node000004" class="node">
<title>Node4</title>
<g id="a_Node000004"><a xlink:title=" ">
<polygon fill="#e0e0e0" stroke="#999999" points="184.88,-19.25 138.12,-19.25 138.12,0 184.88,0 184.88,-19.25"/>
<text text-anchor="middle" x="161.5" y="-5.75" font-family="Helvetica,sans-Serif" font-size="10.00">stdlib.h</text>
</a>
</g>
</g>
<!-- Node2&#45;&gt;Node4 -->
<g id="edge3_Node000002_Node000004" class="edge">
<title>Node2&#45;&gt;Node4</title>
<g id="a_edge3_Node000002_Node000004"><a xlink:title=" ">
<path fill="none" stroke="#63b8ff" d="M113.34,-54.84C121.55,-47.3 133.48,-36.35 143.41,-27.23"/>
<polygon fill="#63b8ff" stroke="#63b8ff" points="145.69,-29.89 150.69,-20.55 140.96,-24.73 145.69,-29.89"/>
</a>
</g>
</g>
<!-- Node5 -->
<g id="Node000005" class="node">
<title>Node5</title>
<g id="a_Node000005"><a xlink:title=" ">
<polygon fill="#e0e0e0" stroke="#999999" points="119.88,-19.25 73.12,-19.25 73.12,0 119.88,0 119.88,-19.25"/>
<text text-anchor="middle" x="96.5" y="-5.75" font-family="Helvetica,sans-Serif" font-size="10.00">limits.h</text>
</a>
</g>
</g>
<!-- Node2&#45;&gt;Node5 -->
<g id="edge4_Node000002_Node000005" class="edge">
<title>Node2&#45;&gt;Node5</title>
<g id="a_edge4_Node000002_Node000005"><a xlink:title=" ">
<path fill="none" stroke="#63b8ff" d="M102.34,-55.08C101.48,-48.49 100.26,-39.21 99.16,-30.82"/>
<polygon fill="#63b8ff" stroke="#63b8ff" points="102.65,-30.57 97.88,-21.11 95.71,-31.48 102.65,-30.57"/>
</a>
</g>
</g>
<!-- Node6&#45;&gt;Node2 -->
<g id="edge6_Node000006_Node000002" class="edge">
<title>Node6&#45;&gt;Node2</title>
<g id="a_edge6_Node000006_Node000002"><a xlink:title=" ">
<path fill="none" stroke="#63b8ff" d="M154.98,-110.09C146.11,-102.47 133.19,-91.37 122.51,-82.2"/>
<polygon fill="#63b8ff" stroke="#63b8ff" points="124.88,-79.62 115.01,-75.76 120.32,-84.93 124.88,-79.62"/>
</a>
</g>
</g>
<!-- Node7&#45;&gt;Node4 -->
<g id="edge8_Node000007_Node000004" class="edge">
<title>Node7&#45;&gt;Node4</title>
<g id="a_edge8_Node000007_Node000004"><a xlink:title=" ">
<path fill="none" stroke="#63b8ff" d="M230.41,-110.39C212.28,-103.48 189.94,-92.03 176.5,-74.5 166.94,-62.03 163.33,-44.46 162.03,-30.9"/>
<polygon fill="#63b8ff" stroke="#63b8ff" points="165.52,-30.72 161.46,-20.94 158.54,-31.12 165.52,-30.72"/>
</a>
</g>
</g>
<!-- Node8 -->
<g id="Node000008" class="node">
<title>Node8</title>
<g id="a_Node000008"><a xlink:title=" ">
<polygon fill="#e0e0e0" stroke="#999999" points="235.38,-74.5 185.62,-74.5 185.62,-55.25 235.38,-55.25 235.38,-74.5"/>
<text text-anchor="middle" x="210.5" y="-61" font-family="Helvetica,sans-Serif" font-size="10.00">unistd.h</text>
</a>
</g>
</g>
<!-- Node7&#45;&gt;Node8 -->
<g id="edge9_Node000007_Node000008" class="edge">
<title>Node7&#45;&gt;Node8</title>
<g id="a_edge9_Node000007_Node000008"><a xlink:title=" ">
<path fill="none" stroke="#63b8ff" d="M251.41,-110.33C244.64,-102.98 234.78,-92.26 226.44,-83.19"/>
<polygon fill="#63b8ff" stroke="#63b8ff" points="229.14,-80.96 219.79,-75.97 223.99,-85.7 229.14,-80.96"/>
</a>
</g>
</g>
<!-- Node9 -->
<g id="Node000009" class="node">
<title>Node9</title>
<g id="a_Node000009"><a xlink:title=" ">
<polygon fill="#e0e0e0" stroke="#999999" points="297.75,-74.5 253.25,-74.5 253.25,-55.25 297.75,-55.25 297.75,-74.5"/>
<text text-anchor="middle" x="275.5" y="-61" font-family="Helvetica,sans-Serif" font-size="10.00">stdio.h</text>
</a>
</g>
</g>
<!-- Node7&#45;&gt;Node9 -->
<g id="edge10_Node000007_Node000009" class="edge">
<title>Node7&#45;&gt;Node9</title>
<g id="a_edge10_Node000007_Node000009"><a xlink:title=" ">
<path fill="none" stroke="#63b8ff" d="M262.14,-110.33C264.14,-103.67 266.98,-94.24 269.52,-85.78"/>
<polygon fill="#63b8ff" stroke="#63b8ff" points="272.84,-86.89 272.36,-76.31 266.14,-84.88 272.84,-86.89"/>
</a>
</g>
</g>
<!-- Node10 -->
<g id="Node000010" class="node">
<title>Node10</title>
<g id="a_Node000010"><a xlink:title=" ">
<polygon fill="#e0e0e0" stroke="#999999" points="357.62,-74.5 315.38,-74.5 315.38,-55.25 357.62,-55.25 357.62,-74.5"/>
<text text-anchor="middle" x="336.5" y="-61" font-family="Helvetica,sans-Serif" font-size="10.00">fcntl.h</text>
</a>
</g>
</g>
<!-- Node7&#45;&gt;Node10 -->
<g id="edge11_Node000007_Node000010" class="edge">
<title>Node7&#45;&gt;Node10</title>
<g id="a_edge11_Node000007_Node000010"><a xlink:title=" ">
<path fill="none" stroke="#63b8ff" d="M272.56,-110.09C283.96,-102.21 300.73,-90.61 314.24,-81.27"/>
<polygon fill="#63b8ff" stroke="#63b8ff" points="315.9,-84.38 322.13,-75.81 311.91,-78.62 315.9,-84.38"/>
</a>
</g>
</g>
<!-- Node11 -->
<g id="Node000011" class="node">
<title>Node11</title>
<g id="a_Node000011"><a xlink:title=" ">
<polygon fill="#e0e0e0" stroke="#999999" points="421.12,-74.5 375.88,-74.5 375.88,-55.25 421.12,-55.25 421.12,-74.5"/>
<text text-anchor="middle" x="398.5" y="-61" font-family="Helvetica,sans-Serif" font-size="10.00">math.h</text>
</a>
</g>
</g>
<!-- Node7&#45;&gt;Node11 -->
<g id="edge12_Node000007_Node000011" class="edge">
<title>Node7&#45;&gt;Node11</title>
<g id="a_edge12_Node000007_Node000011"><a xlink:title=" ">
<path fill="none" stroke="#63b8ff" d="M283.08,-110.09C305.61,-101.46 339.81,-88.36 365.14,-78.66"/>
<polygon fill="#63b8ff" stroke="#63b8ff" points="366.23,-81.99 374.32,-75.14 363.73,-75.45 366.23,-81.99"/>
</a>
</g>
</g>
</g>
</svg>
