<?xml version="1.0" encoding="UTF-8" standalone="no"?>
<!DOCTYPE svg PUBLIC "-//W3C//DTD SVG 1.1//EN"
 "http://www.w3.org/Graphics/SVG/1.1/DTD/svg11.dtd">
<!-- Generated by graphviz version 9.0.0 (20230911.1827)
 -->
<!-- Title: /github/workspace/SRC/BASE/RAYS/ray_intersect.c Pages: 1 -->
<svg width="478pt" height="204pt"
 viewBox="0.00 0.00 478.25 204.25" xmlns="http://www.w3.org/2000/svg" xmlns:xlink="http://www.w3.org/1999/xlink">
<g id="graph0" class="graph" transform="scale(1 1) rotate(0) translate(4 200.25)">
<title>/github/workspace/SRC/BASE/RAYS/ray_intersect.c</title>
<!-- Node1 -->
<g id="Node000001" class="node">
<title>Node1</title>
<g id="a_Node000001"><a xlink:title=" ">
<polygon fill="#999999" stroke="#666666" points="262.25,-196.25 121,-196.25 121,-165.75 262.25,-165.75 262.25,-196.25"/>
<text text-anchor="start" x="129" y="-182.75" font-family="Helvetica,sans-Serif" font-size="10.00">/github/workspace/SRC</text>
<text text-anchor="middle" x="191.62" y="-171.5" font-family="Helvetica,sans-Serif" font-size="10.00">/BASE/RAYS/ray_intersect.c</text>
</a>
</g>
</g>
<!-- Node2 -->
<g id="Node000002" class="node">
<title>Node2</title>
<g id="a_Node000002"><a xlink:href="base__matrices_8h.html" target="_top" xlink:title=" ">
<polygon fill="white" stroke="#666666" points="87.25,-129.75 0,-129.75 0,-110.5 87.25,-110.5 87.25,-129.75"/>
<text text-anchor="middle" x="43.62" y="-116.25" font-family="Helvetica,sans-Serif" font-size="10.00">base_matrices.h</text>
</a>
</g>
</g>
<!-- Node1&#45;&gt;Node2 -->
<g id="edge1_Node000001_Node000002" class="edge">
<title>Node1&#45;&gt;Node2</title>
<g id="a_edge1_Node000001_Node000002"><a xlink:title=" ">
<path fill="none" stroke="#63b8ff" d="M154.66,-165.3C130.82,-155.81 100.07,-143.58 76.98,-134.39"/>
<polygon fill="#63b8ff" stroke="#63b8ff" points="78.31,-131.16 67.73,-130.71 75.73,-137.66 78.31,-131.16"/>
</a>
</g>
</g>
<!-- Node7 -->
<g id="Node000007" class="node">
<title>Node7</title>
<g id="a_Node000007"><a xlink:href="base__helpers_8h.html" target="_top" xlink:title=" ">
<polygon fill="white" stroke="#666666" points="186.25,-129.75 105,-129.75 105,-110.5 186.25,-110.5 186.25,-129.75"/>
<text text-anchor="middle" x="145.62" y="-116.25" font-family="Helvetica,sans-Serif" font-size="10.00">base_helpers.h</text>
</a>
</g>
</g>
<!-- Node1&#45;&gt;Node7 -->
<g id="edge6_Node000001_Node000007" class="edge">
<title>Node1&#45;&gt;Node7</title>
<g id="a_edge6_Node000001_Node000007"><a xlink:title=" ">
<path fill="none" stroke="#63b8ff" d="M180.25,-165.45C174.06,-157.52 166.33,-147.63 159.76,-139.21"/>
<polygon fill="#63b8ff" stroke="#63b8ff" points="162.56,-137.12 153.65,-131.39 157.05,-141.43 162.56,-137.12"/>
</a>
</g>
</g>
<!-- Node8 -->
<g id="Node000008" class="node">
<title>Node8</title>
<g id="a_Node000008"><a xlink:href="base__rays_8h.html" target="_top" xlink:title=" ">
<polygon fill="white" stroke="#666666" points="272.5,-129.75 204.75,-129.75 204.75,-110.5 272.5,-110.5 272.5,-129.75"/>
<text text-anchor="middle" x="238.62" y="-116.25" font-family="Helvetica,sans-Serif" font-size="10.00">base_rays.h</text>
</a>
</g>
</g>
<!-- Node1&#45;&gt;Node8 -->
<g id="edge8_Node000001_Node000008" class="edge">
<title>Node1&#45;&gt;Node8</title>
<g id="a_edge8_Node000001_Node000008"><a xlink:title=" ">
<path fill="none" stroke="#63b8ff" d="M203.24,-165.45C209.64,-157.43 217.64,-147.42 224.41,-138.94"/>
<polygon fill="#63b8ff" stroke="#63b8ff" points="226.93,-141.38 230.44,-131.38 221.46,-137.02 226.93,-141.38"/>
</a>
</g>
</g>
<!-- Node9 -->
<g id="Node000009" class="node">
<title>Node9</title>
<g id="a_Node000009"><a xlink:href="muk__lib_8h.html" target="_top" xlink:title=" ">
<polygon fill="white" stroke="#666666" points="352.25,-129.75 295,-129.75 295,-110.5 352.25,-110.5 352.25,-129.75"/>
<text text-anchor="middle" x="323.62" y="-116.25" font-family="Helvetica,sans-Serif" font-size="10.00">muk_lib.h</text>
</a>
</g>
</g>
<!-- Node1&#45;&gt;Node9 -->
<g id="edge10_Node000001_Node000009" class="edge">
<title>Node1&#45;&gt;Node9</title>
<g id="a_edge10_Node000001_Node000009"><a xlink:title=" ">
<path fill="none" stroke="#63b8ff" d="M224.59,-165.3C245.57,-155.94 272.53,-143.91 293.03,-134.77"/>
<polygon fill="#63b8ff" stroke="#63b8ff" points="294.29,-138.04 302,-130.77 291.44,-131.65 294.29,-138.04"/>
</a>
</g>
</g>
<!-- Node3 -->
<g id="Node000003" class="node">
<title>Node3</title>
<g id="a_Node000003"><a xlink:href="types_8h.html" target="_top" xlink:title=" ">
<polygon fill="white" stroke="#666666" points="168,-74.5 121.25,-74.5 121.25,-55.25 168,-55.25 168,-74.5"/>
<text text-anchor="middle" x="144.62" y="-61" font-family="Helvetica,sans-Serif" font-size="10.00">types.h</text>
</a>
</g>
</g>
<!-- Node2&#45;&gt;Node3 -->
<g id="edge2_Node000002_Node000003" class="edge">
<title>Node2&#45;&gt;Node3</title>
<g id="a_edge2_Node000002_Node000003"><a xlink:title=" ">
<path fill="none" stroke="#63b8ff" d="M60.76,-110.09C76.28,-101.91 99.43,-89.71 117.47,-80.19"/>
<polygon fill="#63b8ff" stroke="#63b8ff" points="118.86,-83.42 126.07,-75.66 115.59,-77.23 118.86,-83.42"/>
</a>
</g>
</g>
<!-- Node4 -->
<g id="Node000004" class="node">
<title>Node4</title>
<g id="a_Node000004"><a xlink:title=" ">
<polygon fill="#e0e0e0" stroke="#999999" points="101.12,-19.25 46.12,-19.25 46.12,0 101.12,0 101.12,-19.25"/>
<text text-anchor="middle" x="73.62" y="-5.75" font-family="Helvetica,sans-Serif" font-size="10.00">stdbool.h</text>
</a>
</g>
</g>
<!-- Node3&#45;&gt;Node4 -->
<g id="edge3_Node000003_Node000004" class="edge">
<title>Node3&#45;&gt;Node4</title>
<g id="a_edge3_Node000003_Node000004"><a xlink:title=" ">
<path fill="none" stroke="#63b8ff" d="M132.58,-54.84C122.22,-47.07 107.02,-35.67 94.66,-26.4"/>
<polygon fill="#63b8ff" stroke="#63b8ff" points="96.8,-23.63 86.7,-20.43 92.6,-29.23 96.8,-23.63"/>
</a>
</g>
</g>
<!-- Node5 -->
<g id="Node000005" class="node">
<title>Node5</title>
<g id="a_Node000005"><a xlink:title=" ">
<polygon fill="#e0e0e0" stroke="#999999" points="231,-19.25 184.25,-19.25 184.25,0 231,0 231,-19.25"/>
<text text-anchor="middle" x="207.62" y="-5.75" font-family="Helvetica,sans-Serif" font-size="10.00">stdlib.h</text>
</a>
</g>
</g>
<!-- Node3&#45;&gt;Node5 -->
<g id="edge4_Node000003_Node000005" class="edge">
<title>Node3&#45;&gt;Node5</title>
<g id="a_edge4_Node000003_Node000005"><a xlink:title=" ">
<path fill="none" stroke="#63b8ff" d="M155.31,-54.84C164.33,-47.22 177.46,-36.12 188.31,-26.95"/>
<polygon fill="#63b8ff" stroke="#63b8ff" points="190.56,-29.63 195.94,-20.5 186.04,-24.28 190.56,-29.63"/>
</a>
</g>
</g>
<!-- Node6 -->
<g id="Node000006" class="node">
<title>Node6</title>
<g id="a_Node000006"><a xlink:title=" ">
<polygon fill="#e0e0e0" stroke="#999999" points="166,-19.25 119.25,-19.25 119.25,0 166,0 166,-19.25"/>
<text text-anchor="middle" x="142.62" y="-5.75" font-family="Helvetica,sans-Serif" font-size="10.00">limits.h</text>
</a>
</g>
</g>
<!-- Node3&#45;&gt;Node6 -->
<g id="edge5_Node000003_Node000006" class="edge">
<title>Node3&#45;&gt;Node6</title>
<g id="a_edge5_Node000003_Node000006"><a xlink:title=" ">
<path fill="none" stroke="#63b8ff" d="M144.29,-55.08C144.05,-48.49 143.7,-39.21 143.38,-30.82"/>
<polygon fill="#63b8ff" stroke="#63b8ff" points="146.89,-30.98 143.02,-21.12 139.9,-31.25 146.89,-30.98"/>
</a>
</g>
</g>
<!-- Node7&#45;&gt;Node3 -->
<g id="edge7_Node000007_Node000003" class="edge">
<title>Node7&#45;&gt;Node3</title>
<g id="a_edge7_Node000007_Node000003"><a xlink:title=" ">
<path fill="none" stroke="#63b8ff" d="M145.46,-110.33C145.34,-103.82 145.17,-94.67 145.01,-86.37"/>
<polygon fill="#63b8ff" stroke="#63b8ff" points="148.51,-86.3 144.82,-76.37 141.51,-86.44 148.51,-86.3"/>
</a>
</g>
</g>
<!-- Node8&#45;&gt;Node3 -->
<g id="edge9_Node000008_Node000003" class="edge">
<title>Node8&#45;&gt;Node3</title>
<g id="a_edge9_Node000008_Node000003"><a xlink:title=" ">
<path fill="none" stroke="#63b8ff" d="M222.68,-110.09C208.36,-101.98 187.09,-89.93 170.37,-80.46"/>
<polygon fill="#63b8ff" stroke="#63b8ff" points="172.39,-77.58 161.97,-75.7 168.94,-83.67 172.39,-77.58"/>
</a>
</g>
</g>
<!-- Node9&#45;&gt;Node5 -->
<g id="edge11_Node000009_Node000005" class="edge">
<title>Node9&#45;&gt;Node5</title>
<g id="a_edge11_Node000009_Node000005"><a xlink:title=" ">
<path fill="none" stroke="#63b8ff" d="M294.74,-112.96C272.77,-106.82 243.4,-95.22 225.62,-74.5 215.17,-62.32 210.76,-44.47 208.92,-30.74"/>
<polygon fill="#63b8ff" stroke="#63b8ff" points="212.43,-30.69 207.99,-21.07 205.46,-31.36 212.43,-30.69"/>
</a>
</g>
</g>
<!-- Node10 -->
<g id="Node000010" class="node">
<title>Node10</title>
<g id="a_Node000010"><a xlink:title=" ">
<polygon fill="#e0e0e0" stroke="#999999" points="284.5,-74.5 234.75,-74.5 234.75,-55.25 284.5,-55.25 284.5,-74.5"/>
<text text-anchor="middle" x="259.62" y="-61" font-family="Helvetica,sans-Serif" font-size="10.00">unistd.h</text>
</a>
</g>
</g>
<!-- Node9&#45;&gt;Node10 -->
<g id="edge12_Node000009_Node000010" class="edge">
<title>Node9&#45;&gt;Node10</title>
<g id="a_edge12_Node000009_Node000010"><a xlink:title=" ">
<path fill="none" stroke="#63b8ff" d="M312.77,-110.09C303.52,-102.4 290,-91.15 278.92,-81.93"/>
<polygon fill="#63b8ff" stroke="#63b8ff" points="281.41,-79.45 271.48,-75.74 276.93,-84.83 281.41,-79.45"/>
</a>
</g>
</g>
<!-- Node11 -->
<g id="Node000011" class="node">
<title>Node11</title>
<g id="a_Node000011"><a xlink:title=" ">
<polygon fill="#e0e0e0" stroke="#999999" points="346.88,-74.5 302.38,-74.5 302.38,-55.25 346.88,-55.25 346.88,-74.5"/>
<text text-anchor="middle" x="324.62" y="-61" font-family="Helvetica,sans-Serif" font-size="10.00">stdio.h</text>
</a>
</g>
</g>
<!-- Node9&#45;&gt;Node11 -->
<g id="edge13_Node000009_Node000011" class="edge">
<title>Node9&#45;&gt;Node11</title>
<g id="a_edge13_Node000009_Node000011"><a xlink:title=" ">
<path fill="none" stroke="#63b8ff" d="M323.79,-110.33C323.91,-103.82 324.08,-94.67 324.24,-86.37"/>
<polygon fill="#63b8ff" stroke="#63b8ff" points="327.74,-86.44 324.43,-76.37 320.74,-86.3 327.74,-86.44"/>
</a>
</g>
</g>
<!-- Node12 -->
<g id="Node000012" class="node">
<title>Node12</title>
<g id="a_Node000012"><a xlink:title=" ">
<polygon fill="#e0e0e0" stroke="#999999" points="406.75,-74.5 364.5,-74.5 364.5,-55.25 406.75,-55.25 406.75,-74.5"/>
<text text-anchor="middle" x="385.62" y="-61" font-family="Helvetica,sans-Serif" font-size="10.00">fcntl.h</text>
</a>
</g>
</g>
<!-- Node9&#45;&gt;Node12 -->
<g id="edge14_Node000009_Node000012" class="edge">
<title>Node9&#45;&gt;Node12</title>
<g id="a_edge14_Node000009_Node000012"><a xlink:title=" ">
<path fill="none" stroke="#63b8ff" d="M334.14,-110.09C343.01,-102.47 355.94,-91.37 366.61,-82.2"/>
<polygon fill="#63b8ff" stroke="#63b8ff" points="368.81,-84.93 374.11,-75.76 364.25,-79.62 368.81,-84.93"/>
</a>
</g>
</g>
<!-- Node13 -->
<g id="Node000013" class="node">
<title>Node13</title>
<g id="a_Node000013"><a xlink:title=" ">
<polygon fill="#e0e0e0" stroke="#999999" points="470.25,-74.5 425,-74.5 425,-55.25 470.25,-55.25 470.25,-74.5"/>
<text text-anchor="middle" x="447.62" y="-61" font-family="Helvetica,sans-Serif" font-size="10.00">math.h</text>
</a>
</g>
</g>
<!-- Node9&#45;&gt;Node13 -->
<g id="edge15_Node000009_Node000013" class="edge">
<title>Node9&#45;&gt;Node13</title>
<g id="a_edge15_Node000009_Node000013"><a xlink:title=" ">
<path fill="none" stroke="#63b8ff" d="M344.66,-110.09C364.26,-101.68 393.73,-89.02 416.13,-79.4"/>
<polygon fill="#63b8ff" stroke="#63b8ff" points="417.29,-82.71 425.1,-75.55 414.53,-76.28 417.29,-82.71"/>
</a>
</g>
</g>
</g>
</svg>
