<?xml version="1.0" encoding="UTF-8" standalone="no"?>
<!DOCTYPE svg PUBLIC "-//W3C//DTD SVG 1.1//EN"
 "http://www.w3.org/Graphics/SVG/1.1/DTD/svg11.dtd">
<!-- Generated by graphviz version 9.0.0 (20230911.1827)
 -->
<!-- Title: ray_intersect_sphere Pages: 1 -->
<svg width="648pt" height="254pt"
 viewBox="0.00 0.00 647.75 254.25" xmlns="http://www.w3.org/2000/svg" xmlns:xlink="http://www.w3.org/1999/xlink">
<g id="graph0" class="graph" transform="scale(1 1) rotate(0) translate(4 250.25)">
<title>ray_intersect_sphere</title>
<!-- Node1 -->
<g id="Node000001" class="node">
<title>Node1</title>
<g id="a_Node000001"><a xlink:title=" ">
<polygon fill="#999999" stroke="#666666" points="106,-151.25 0,-151.25 0,-132 106,-132 106,-151.25"/>
<text text-anchor="middle" x="53" y="-137.75" font-family="Helvetica,sans-Serif" font-size="10.00">ray_intersect_sphere</text>
</a>
</g>
</g>
<!-- Node2 -->
<g id="Node000002" class="node">
<title>Node2</title>
<g id="a_Node000002"><a xlink:href="discriminant_8c.html#aec39a15e88725e65db99b439a7732f81" target="_top" xlink:title=" ">
<polygon fill="white" stroke="#666666" points="215.75,-246.25 147.25,-246.25 147.25,-227 215.75,-227 215.75,-246.25"/>
<text text-anchor="middle" x="181.5" y="-232.75" font-family="Helvetica,sans-Serif" font-size="10.00">discriminant</text>
</a>
</g>
</g>
<!-- Node1&#45;&gt;Node2 -->
<g id="edge1_Node000001_Node000002" class="edge">
<title>Node1&#45;&gt;Node2</title>
<g id="a_edge1_Node000001_Node000002"><a xlink:title=" ">
<path fill="none" stroke="#63b8ff" d="M65.6,-151.74C82.1,-165.96 113.52,-192.37 142,-212.62 145.72,-215.27 149.73,-217.95 153.71,-220.51"/>
<polygon fill="#63b8ff" stroke="#63b8ff" points="151.73,-223.4 162.06,-225.74 155.44,-217.47 151.73,-223.4"/>
</a>
</g>
</g>
<!-- Node4 -->
<g id="Node000004" class="node">
<title>Node4</title>
<g id="a_Node000004"><a xlink:href="matrix__free_8c.html#ab28d26aa6d34d5c2a3b83b9ee519fec6" target="_top" xlink:title=" ">
<polygon fill="white" stroke="#666666" points="329.62,-208.25 265.62,-208.25 265.62,-189 329.62,-189 329.62,-208.25"/>
<text text-anchor="middle" x="297.62" y="-194.75" font-family="Helvetica,sans-Serif" font-size="10.00">free_matrix</text>
</a>
</g>
</g>
<!-- Node1&#45;&gt;Node4 -->
<g id="edge3_Node000001_Node000004" class="edge">
<title>Node1&#45;&gt;Node4</title>
<g id="a_edge3_Node000001_Node000004"><a xlink:title=" ">
<path fill="none" stroke="#63b8ff" d="M73,-151.72C90.45,-160.53 117.27,-172.91 142,-179.62 179.03,-189.67 222.51,-194.42 253.91,-196.65"/>
<polygon fill="#63b8ff" stroke="#63b8ff" points="253.6,-200.14 263.81,-197.3 254.06,-193.16 253.6,-200.14"/>
</a>
</g>
</g>
<!-- Node5 -->
<g id="Node000005" class="node">
<title>Node5</title>
<g id="a_Node000005"><a xlink:href="ray__free_8c.html#a9383ed085976d00ada942863da06de89" target="_top" xlink:title=" ">
<polygon fill="white" stroke="#666666" points="206.75,-170.25 156.25,-170.25 156.25,-151 206.75,-151 206.75,-170.25"/>
<text text-anchor="middle" x="181.5" y="-156.75" font-family="Helvetica,sans-Serif" font-size="10.00">free_ray</text>
</a>
</g>
</g>
<!-- Node1&#45;&gt;Node5 -->
<g id="edge4_Node000001_Node000005" class="edge">
<title>Node1&#45;&gt;Node5</title>
<g id="a_edge4_Node000001_Node000005"><a xlink:title=" ">
<path fill="none" stroke="#63b8ff" d="M106.18,-149.46C119.15,-151.41 132.75,-153.45 144.73,-155.25"/>
<polygon fill="#63b8ff" stroke="#63b8ff" points="144.17,-158.71 154.58,-156.73 145.21,-151.78 144.17,-158.71"/>
</a>
</g>
</g>
<!-- Node6 -->
<g id="Node000006" class="node">
<title>Node6</title>
<g id="a_Node000006"><a xlink:href="matrix__inverse_8c.html#a38c4dbf43aa6a2d976c3f77297ecd403" target="_top" xlink:title=" ">
<polygon fill="white" stroke="#666666" points="221,-133.25 142,-133.25 142,-114 221,-114 221,-133.25"/>
<text text-anchor="middle" x="181.5" y="-119.75" font-family="Helvetica,sans-Serif" font-size="10.00">matrix_inverse</text>
</a>
</g>
</g>
<!-- Node1&#45;&gt;Node6 -->
<g id="edge6_Node000001_Node000006" class="edge">
<title>Node1&#45;&gt;Node6</title>
<g id="a_edge6_Node000001_Node000006"><a xlink:title=" ">
<path fill="none" stroke="#63b8ff" d="M106.18,-134.2C114.14,-133.07 122.34,-131.9 130.25,-130.78"/>
<polygon fill="#63b8ff" stroke="#63b8ff" points="130.68,-134.25 140.08,-129.38 129.69,-127.32 130.68,-134.25"/>
</a>
</g>
</g>
<!-- Node12 -->
<g id="Node000012" class="node">
<title>Node12</title>
<g id="a_Node000012"><a xlink:href="matrix__sum_8c.html#a131fcf979705ebc7d09650c74adddfbb" target="_top" xlink:title=" ">
<polygon fill="white" stroke="#666666" points="215.75,-95.25 147.25,-95.25 147.25,-76 215.75,-76 215.75,-95.25"/>
<text text-anchor="middle" x="181.5" y="-81.75" font-family="Helvetica,sans-Serif" font-size="10.00">matrix_subs</text>
</a>
</g>
</g>
<!-- Node1&#45;&gt;Node12 -->
<g id="edge14_Node000001_Node000012" class="edge">
<title>Node1&#45;&gt;Node12</title>
<g id="a_edge14_Node000001_Node000012"><a xlink:title=" ">
<path fill="none" stroke="#63b8ff" d="M76.62,-131.61C96.28,-122.91 125.03,-110.18 147.31,-100.32"/>
<polygon fill="#63b8ff" stroke="#63b8ff" points="148.54,-103.6 156.27,-96.35 145.71,-97.2 148.54,-103.6"/>
</a>
</g>
</g>
<!-- Node13 -->
<g id="Node000013" class="node">
<title>Node13</title>
<g id="a_Node000013"><a xlink:href="ray__transform_8c.html#a4b22c1091f5143dc209773a18fd27f15" target="_top" xlink:title=" ">
<polygon fill="white" stroke="#666666" points="219.12,-56.25 143.88,-56.25 143.88,-37 219.12,-37 219.12,-56.25"/>
<text text-anchor="middle" x="181.5" y="-42.75" font-family="Helvetica,sans-Serif" font-size="10.00">ray_transform</text>
</a>
</g>
</g>
<!-- Node1&#45;&gt;Node13 -->
<g id="edge16_Node000001_Node000013" class="edge">
<title>Node1&#45;&gt;Node13</title>
<g id="a_edge16_Node000001_Node000013"><a xlink:title=" ">
<path fill="none" stroke="#63b8ff" d="M64.21,-131.56C80,-116.33 111.69,-87.03 142,-66.62 144.35,-65.04 146.84,-63.49 149.38,-62"/>
<polygon fill="#63b8ff" stroke="#63b8ff" points="150.83,-65.2 157.9,-57.31 147.45,-59.07 150.83,-65.2"/>
</a>
</g>
</g>
<!-- Node3 -->
<g id="Node000003" class="node">
<title>Node3</title>
<g id="a_Node000003"><a xlink:href="matrix__dot_8c.html#a1e63fc9ff7ee9be50c15ed7399415881" target="_top" xlink:title="Function that finds the dot (.) product of 2 vectors.">
<polygon fill="white" stroke="#666666" points="328.12,-246.25 267.12,-246.25 267.12,-227 328.12,-227 328.12,-246.25"/>
<text text-anchor="middle" x="297.62" y="-232.75" font-family="Helvetica,sans-Serif" font-size="10.00">matrix_dot</text>
</a>
</g>
</g>
<!-- Node2&#45;&gt;Node3 -->
<g id="edge2_Node000002_Node000003" class="edge">
<title>Node2&#45;&gt;Node3</title>
<g id="a_edge2_Node000002_Node000003"><a xlink:title=" ">
<path fill="none" stroke="#63b8ff" d="M216.12,-236.62C228.41,-236.62 242.44,-236.62 255.32,-236.62"/>
<polygon fill="#63b8ff" stroke="#63b8ff" points="255.22,-240.13 265.22,-236.63 255.22,-233.13 255.22,-240.13"/>
</a>
</g>
</g>
<!-- Node5&#45;&gt;Node4 -->
<g id="edge5_Node000005_Node000004" class="edge">
<title>Node5&#45;&gt;Node4</title>
<g id="a_edge5_Node000005_Node000004"><a xlink:title=" ">
<path fill="none" stroke="#63b8ff" d="M206.98,-168.78C221.14,-173.49 239.32,-179.54 255.6,-184.96"/>
<polygon fill="#63b8ff" stroke="#63b8ff" points="254.46,-188.28 265.06,-188.11 256.68,-181.63 254.46,-188.28"/>
</a>
</g>
</g>
<!-- Node6&#45;&gt;Node4 -->
<g id="edge7_Node000006_Node000004" class="edge">
<title>Node6&#45;&gt;Node4</title>
<g id="a_edge7_Node000006_Node000004"><a xlink:title=" ">
<path fill="none" stroke="#63b8ff" d="M206.73,-133.58C211.61,-135.95 216.58,-138.67 221,-141.62 239.04,-153.69 239.63,-161.61 257,-174.62 260.66,-177.37 264.65,-180.08 268.64,-182.63"/>
<polygon fill="#63b8ff" stroke="#63b8ff" points="266.74,-185.57 277.09,-187.81 270.39,-179.6 266.74,-185.57"/>
</a>
</g>
</g>
<!-- Node7 -->
<g id="Node000007" class="node">
<title>Node7</title>
<g id="a_Node000007"><a xlink:href="matrix__create_8c.html#a5291384d37d735f9c3fc33c03d2788ad" target="_top" xlink:title=" ">
<polygon fill="white" stroke="#666666" points="448.75,-94.25 374.25,-94.25 374.25,-75 448.75,-75 448.75,-94.25"/>
<text text-anchor="middle" x="411.5" y="-80.75" font-family="Helvetica,sans-Serif" font-size="10.00">matrix_create</text>
</a>
</g>
</g>
<!-- Node6&#45;&gt;Node7 -->
<g id="edge8_Node000006_Node000007" class="edge">
<title>Node6&#45;&gt;Node7</title>
<g id="a_edge8_Node000006_Node000007"><a xlink:title=" ">
<path fill="none" stroke="#63b8ff" d="M209.18,-133.67C240.83,-144.03 294.79,-156.7 338.25,-141.62 360.29,-133.98 380.69,-116.51 394.16,-102.91"/>
<polygon fill="#63b8ff" stroke="#63b8ff" points="396.58,-105.45 400.91,-95.78 391.49,-100.64 396.58,-105.45"/>
</a>
</g>
</g>
<!-- Node11 -->
<g id="Node000011" class="node">
<title>Node11</title>
<g id="a_Node000011"><a xlink:href="matrix__identity_8c.html#a841c87975e3b38adb536d63ec35456e5" target="_top" xlink:title="Function that creates an identity matrix of size n 1 0 0 0 0 1 0 0 0 0 1 0 0 0 0 1.">
<polygon fill="white" stroke="#666666" points="336.75,-132.25 258.5,-132.25 258.5,-113 336.75,-113 336.75,-132.25"/>
<text text-anchor="middle" x="297.62" y="-118.75" font-family="Helvetica,sans-Serif" font-size="10.00">matrix_identity</text>
</a>
</g>
</g>
<!-- Node6&#45;&gt;Node11 -->
<g id="edge12_Node000006_Node000011" class="edge">
<title>Node6&#45;&gt;Node11</title>
<g id="a_edge12_Node000006_Node000011"><a xlink:title=" ">
<path fill="none" stroke="#63b8ff" d="M221.46,-123.28C229.62,-123.21 238.35,-123.14 246.85,-123.06"/>
<polygon fill="#63b8ff" stroke="#63b8ff" points="246.75,-126.56 256.72,-122.97 246.69,-119.56 246.75,-126.56"/>
</a>
</g>
</g>
<!-- Node8 -->
<g id="Node000008" class="node">
<title>Node8</title>
<g id="a_Node000008"><a xlink:href="free__dptr_8c.html#aaa705b6d12fb1a9a15e6103879ec0ea0" target="_top" xlink:title=" ">
<polygon fill="white" stroke="#666666" points="546.12,-94.25 491.88,-94.25 491.88,-75 546.12,-75 546.12,-94.25"/>
<text text-anchor="middle" x="519" y="-80.75" font-family="Helvetica,sans-Serif" font-size="10.00">free_dptr</text>
</a>
</g>
</g>
<!-- Node7&#45;&gt;Node8 -->
<g id="edge9_Node000007_Node000008" class="edge">
<title>Node7&#45;&gt;Node8</title>
<g id="a_edge9_Node000007_Node000008"><a xlink:title=" ">
<path fill="none" stroke="#63b8ff" d="M449.1,-84.62C459.11,-84.62 469.98,-84.62 480.06,-84.62"/>
<polygon fill="#63b8ff" stroke="#63b8ff" points="479.93,-88.13 489.93,-84.63 479.92,-81.13 479.93,-88.13"/>
</a>
</g>
</g>
<!-- Node9 -->
<g id="Node000009" class="node">
<title>Node9</title>
<g id="a_Node000009"><a xlink:href="safe__malloc_8c.html#ab8bcda0e59b6f8eab1bfd9f92de50c6c" target="_top" xlink:title=" ">
<polygon fill="white" stroke="#666666" points="553.25,-38.25 484.75,-38.25 484.75,-19 553.25,-19 553.25,-38.25"/>
<text text-anchor="middle" x="519" y="-24.75" font-family="Helvetica,sans-Serif" font-size="10.00">safe_malloc</text>
</a>
</g>
</g>
<!-- Node7&#45;&gt;Node9 -->
<g id="edge10_Node000007_Node000009" class="edge">
<title>Node7&#45;&gt;Node9</title>
<g id="a_edge10_Node000007_Node000009"><a xlink:title=" ">
<path fill="none" stroke="#63b8ff" d="M431.7,-74.6C437.21,-71.71 443.22,-68.55 448.75,-65.62 462.12,-58.55 476.9,-50.66 489.37,-43.99"/>
<polygon fill="#63b8ff" stroke="#63b8ff" points="490.71,-47.24 497.88,-39.43 487.41,-41.07 490.71,-47.24"/>
</a>
</g>
</g>
<!-- Node10 -->
<g id="Node000010" class="node">
<title>Node10</title>
<g id="a_Node000010"><a xlink:href="LIBFT_2ft__bzero_8c.html#a5937ab0d08e31d0e3e4a16ec71e293a1" target="_top" xlink:title=" ">
<polygon fill="white" stroke="#666666" points="639.75,-38.25 589.25,-38.25 589.25,-19 639.75,-19 639.75,-38.25"/>
<text text-anchor="middle" x="614.5" y="-24.75" font-family="Helvetica,sans-Serif" font-size="10.00">ft_bzero</text>
</a>
</g>
</g>
<!-- Node9&#45;&gt;Node10 -->
<g id="edge11_Node000009_Node000010" class="edge">
<title>Node9&#45;&gt;Node10</title>
<g id="a_edge11_Node000009_Node000010"><a xlink:title=" ">
<path fill="none" stroke="#63b8ff" d="M553.49,-28.62C561.38,-28.62 569.81,-28.62 577.79,-28.62"/>
<polygon fill="#63b8ff" stroke="#63b8ff" points="577.53,-32.13 587.53,-28.63 577.53,-25.13 577.53,-32.13"/>
</a>
</g>
</g>
<!-- Node11&#45;&gt;Node7 -->
<g id="edge13_Node000011_Node000007" class="edge">
<title>Node11&#45;&gt;Node7</title>
<g id="a_edge13_Node000011_Node000007"><a xlink:title=" ">
<path fill="none" stroke="#63b8ff" d="M328.31,-112.54C341.18,-108.17 356.45,-102.98 370.32,-98.27"/>
<polygon fill="#63b8ff" stroke="#63b8ff" points="371.29,-101.64 379.63,-95.11 369.04,-95.01 371.29,-101.64"/>
</a>
</g>
</g>
<!-- Node12&#45;&gt;Node7 -->
<g id="edge15_Node000012_Node000007" class="edge">
<title>Node12&#45;&gt;Node7</title>
<g id="a_edge15_Node000012_Node000007"><a xlink:title=" ">
<path fill="none" stroke="#63b8ff" d="M216.14,-85.48C254.92,-85.31 318.93,-85.03 362.82,-84.83"/>
<polygon fill="#63b8ff" stroke="#63b8ff" points="362.58,-88.34 372.56,-84.79 362.55,-81.34 362.58,-88.34"/>
</a>
</g>
</g>
<!-- Node14 -->
<g id="Node000014" class="node">
<title>Node14</title>
<g id="a_Node000014"><a xlink:href="matrix__multiple_8c.html#a6aa64cfb17a064fdea66fdf14a2a426e" target="_top" xlink:title=" ">
<polygon fill="white" stroke="#666666" points="338.25,-56.25 257,-56.25 257,-37 338.25,-37 338.25,-56.25"/>
<text text-anchor="middle" x="297.62" y="-42.75" font-family="Helvetica,sans-Serif" font-size="10.00">matrix_multiple</text>
</a>
</g>
</g>
<!-- Node13&#45;&gt;Node14 -->
<g id="edge17_Node000013_Node000014" class="edge">
<title>Node13&#45;&gt;Node14</title>
<g id="a_edge17_Node000013_Node000014"><a xlink:title=" ">
<path fill="none" stroke="#63b8ff" d="M219.55,-46.62C227.79,-46.62 236.66,-46.62 245.35,-46.62"/>
<polygon fill="#63b8ff" stroke="#63b8ff" points="245.09,-50.13 255.09,-46.63 245.09,-43.13 245.09,-50.13"/>
</a>
</g>
</g>
<!-- Node16 -->
<g id="Node000016" class="node">
<title>Node16</title>
<g id="a_Node000016"><a xlink:href="ray__create_8c.html#a6b37390392ea1308815dc9a65054ba3d" target="_top" xlink:title=" ">
<polygon fill="white" stroke="#666666" points="442,-19.25 381,-19.25 381,0 442,0 442,-19.25"/>
<text text-anchor="middle" x="411.5" y="-5.75" font-family="Helvetica,sans-Serif" font-size="10.00">ray_create</text>
</a>
</g>
</g>
<!-- Node13&#45;&gt;Node16 -->
<g id="edge20_Node000013_Node000016" class="edge">
<title>Node13&#45;&gt;Node16</title>
<g id="a_edge20_Node000013_Node000016"><a xlink:title=" ">
<path fill="none" stroke="#63b8ff" d="M217.91,-36.57C230.21,-33.35 244.14,-30.01 257,-27.62 294.78,-20.62 338.33,-15.82 369.37,-12.95"/>
<polygon fill="#63b8ff" stroke="#63b8ff" points="369.45,-16.46 379.1,-12.08 368.83,-9.49 369.45,-16.46"/>
</a>
</g>
</g>
<!-- Node14&#45;&gt;Node7 -->
<g id="edge19_Node000014_Node000007" class="edge">
<title>Node14&#45;&gt;Node7</title>
<g id="a_edge19_Node000014_Node000007"><a xlink:title=" ">
<path fill="none" stroke="#63b8ff" d="M328.31,-56.71C341.18,-61.08 356.45,-66.27 370.32,-70.98"/>
<polygon fill="#63b8ff" stroke="#63b8ff" points="369.04,-74.24 379.63,-74.14 371.29,-67.61 369.04,-74.24"/>
</a>
</g>
</g>
<!-- Node15 -->
<g id="Node000015" class="node">
<title>Node15</title>
<g id="a_Node000015"><a xlink:href="errmsg_8c.html#a2fad0db9f0b078aa69ed34ccd60ad0c1" target="_top" xlink:title=" ">
<polygon fill="white" stroke="#666666" points="434.5,-56.25 388.5,-56.25 388.5,-37 434.5,-37 434.5,-56.25"/>
<text text-anchor="middle" x="411.5" y="-42.75" font-family="Helvetica,sans-Serif" font-size="10.00">errmsg</text>
</a>
</g>
</g>
<!-- Node14&#45;&gt;Node15 -->
<g id="edge18_Node000014_Node000015" class="edge">
<title>Node14&#45;&gt;Node15</title>
<g id="a_edge18_Node000014_Node000015"><a xlink:title=" ">
<path fill="none" stroke="#63b8ff" d="M338.7,-46.62C351.21,-46.62 364.87,-46.62 376.89,-46.62"/>
<polygon fill="#63b8ff" stroke="#63b8ff" points="376.74,-50.13 386.74,-46.63 376.74,-43.13 376.74,-50.13"/>
</a>
</g>
</g>
<!-- Node16&#45;&gt;Node9 -->
<g id="edge21_Node000016_Node000009" class="edge">
<title>Node16&#45;&gt;Node9</title>
<g id="a_edge21_Node000016_Node000009"><a xlink:title=" ">
<path fill="none" stroke="#63b8ff" d="M442.45,-15.02C452.02,-16.74 462.84,-18.69 473.23,-20.56"/>
<polygon fill="#63b8ff" stroke="#63b8ff" points="472.31,-23.95 482.77,-22.28 473.55,-17.06 472.31,-23.95"/>
</a>
</g>
</g>
</g>
</svg>
