<?xml version="1.0" encoding="UTF-8" standalone="no"?>
<!DOCTYPE svg PUBLIC "-//W3C//DTD SVG 1.1//EN"
 "http://www.w3.org/Graphics/SVG/1.1/DTD/svg11.dtd">
<!-- Generated by graphviz version 9.0.0 (20230911.1827)
 -->
<!-- Title: /github/workspace/SRC/BASE/RAYS/ray_create.c Pages: 1 -->
<svg width="446pt" height="149pt"
 viewBox="0.00 0.00 446.12 149.00" xmlns="http://www.w3.org/2000/svg" xmlns:xlink="http://www.w3.org/1999/xlink">
<g id="graph0" class="graph" transform="scale(1 1) rotate(0) translate(4 145)">
<title>/github/workspace/SRC/BASE/RAYS/ray_create.c</title>
<!-- Node1 -->
<g id="Node000001" class="node">
<title>Node1</title>
<g id="a_Node000001"><a xlink:title=" ">
<polygon fill="#999999" stroke="#666666" points="244.88,-141 114.12,-141 114.12,-110.5 244.88,-110.5 244.88,-141"/>
<text text-anchor="start" x="122.12" y="-127.5" font-family="Helvetica,sans-Serif" font-size="10.00">/github/workspace/SRC</text>
<text text-anchor="middle" x="179.5" y="-116.25" font-family="Helvetica,sans-Serif" font-size="10.00">/BASE/RAYS/ray_create.c</text>
</a>
</g>
</g>
<!-- Node2 -->
<g id="Node000002" class="node">
<title>Node2</title>
<g id="a_Node000002"><a xlink:href="types_8h.html" target="_top" xlink:title=" ">
<polygon fill="white" stroke="#666666" points="167.88,-74.5 121.12,-74.5 121.12,-55.25 167.88,-55.25 167.88,-74.5"/>
<text text-anchor="middle" x="144.5" y="-61" font-family="Helvetica,sans-Serif" font-size="10.00">types.h</text>
</a>
</g>
</g>
<!-- Node1&#45;&gt;Node2 -->
<g id="edge1_Node000001_Node000002" class="edge">
<title>Node1&#45;&gt;Node2</title>
<g id="a_edge1_Node000001_Node000002"><a xlink:title=" ">
<path fill="none" stroke="#63b8ff" d="M170.85,-110.2C166.29,-102.53 160.64,-93.02 155.74,-84.79"/>
<polygon fill="#63b8ff" stroke="#63b8ff" points="158.79,-83.06 150.67,-76.25 152.77,-86.64 158.79,-83.06"/>
</a>
</g>
</g>
<!-- Node6 -->
<g id="Node000006" class="node">
<title>Node6</title>
<g id="a_Node000006"><a xlink:href="muk__lib_8h.html" target="_top" xlink:title=" ">
<polygon fill="white" stroke="#666666" points="273.12,-74.5 215.88,-74.5 215.88,-55.25 273.12,-55.25 273.12,-74.5"/>
<text text-anchor="middle" x="244.5" y="-61" font-family="Helvetica,sans-Serif" font-size="10.00">muk_lib.h</text>
</a>
</g>
</g>
<!-- Node1&#45;&gt;Node6 -->
<g id="edge5_Node000001_Node000006" class="edge">
<title>Node1&#45;&gt;Node6</title>
<g id="a_edge5_Node000001_Node000006"><a xlink:title=" ">
<path fill="none" stroke="#63b8ff" d="M195.57,-110.2C204.8,-101.84 216.43,-91.3 226.03,-82.6"/>
<polygon fill="#63b8ff" stroke="#63b8ff" points="228.3,-85.27 233.36,-75.97 223.6,-80.09 228.3,-85.27"/>
</a>
</g>
</g>
<!-- Node3 -->
<g id="Node000003" class="node">
<title>Node3</title>
<g id="a_Node000003"><a xlink:title=" ">
<polygon fill="#e0e0e0" stroke="#999999" points="55,-19.25 0,-19.25 0,0 55,0 55,-19.25"/>
<text text-anchor="middle" x="27.5" y="-5.75" font-family="Helvetica,sans-Serif" font-size="10.00">stdbool.h</text>
</a>
</g>
</g>
<!-- Node2&#45;&gt;Node3 -->
<g id="edge2_Node000002_Node000003" class="edge">
<title>Node2&#45;&gt;Node3</title>
<g id="a_edge2_Node000002_Node000003"><a xlink:title=" ">
<path fill="none" stroke="#63b8ff" d="M124.65,-54.84C106.33,-46.5 78.85,-34 57.79,-24.41"/>
<polygon fill="#63b8ff" stroke="#63b8ff" points="59.37,-21.29 48.82,-20.33 56.47,-27.66 59.37,-21.29"/>
</a>
</g>
</g>
<!-- Node4 -->
<g id="Node000004" class="node">
<title>Node4</title>
<g id="a_Node000004"><a xlink:title=" ">
<polygon fill="#e0e0e0" stroke="#999999" points="184.88,-19.25 138.12,-19.25 138.12,0 184.88,0 184.88,-19.25"/>
<text text-anchor="middle" x="161.5" y="-5.75" font-family="Helvetica,sans-Serif" font-size="10.00">stdlib.h</text>
</a>
</g>
</g>
<!-- Node2&#45;&gt;Node4 -->
<g id="edge3_Node000002_Node000004" class="edge">
<title>Node2&#45;&gt;Node4</title>
<g id="a_edge3_Node000002_Node000004"><a xlink:title=" ">
<path fill="none" stroke="#63b8ff" d="M147.31,-55.08C149.44,-48.42 152.44,-38.99 155.14,-30.53"/>
<polygon fill="#63b8ff" stroke="#63b8ff" points="158.46,-31.64 158.17,-21.05 151.8,-29.51 158.46,-31.64"/>
</a>
</g>
</g>
<!-- Node5 -->
<g id="Node000005" class="node">
<title>Node5</title>
<g id="a_Node000005"><a xlink:title=" ">
<polygon fill="#e0e0e0" stroke="#999999" points="119.88,-19.25 73.12,-19.25 73.12,0 119.88,0 119.88,-19.25"/>
<text text-anchor="middle" x="96.5" y="-5.75" font-family="Helvetica,sans-Serif" font-size="10.00">limits.h</text>
</a>
</g>
</g>
<!-- Node2&#45;&gt;Node5 -->
<g id="edge4_Node000002_Node000005" class="edge">
<title>Node2&#45;&gt;Node5</title>
<g id="a_edge4_Node000002_Node000005"><a xlink:title=" ">
<path fill="none" stroke="#63b8ff" d="M136.57,-55.08C129.94,-47.73 120.28,-37.01 112.11,-27.94"/>
<polygon fill="#63b8ff" stroke="#63b8ff" points="114.91,-25.82 105.61,-20.73 109.71,-30.5 114.91,-25.82"/>
</a>
</g>
</g>
<!-- Node6&#45;&gt;Node4 -->
<g id="edge6_Node000006_Node000004" class="edge">
<title>Node6&#45;&gt;Node4</title>
<g id="a_edge6_Node000006_Node000004"><a xlink:title=" ">
<path fill="none" stroke="#63b8ff" d="M230.42,-54.84C218.02,-46.89 199.71,-35.14 185.07,-25.75"/>
<polygon fill="#63b8ff" stroke="#63b8ff" points="187.23,-22.97 176.92,-20.52 183.45,-28.87 187.23,-22.97"/>
</a>
</g>
</g>
<!-- Node7 -->
<g id="Node000007" class="node">
<title>Node7</title>
<g id="a_Node000007"><a xlink:title=" ">
<polygon fill="#e0e0e0" stroke="#999999" points="252.38,-19.25 202.62,-19.25 202.62,0 252.38,0 252.38,-19.25"/>
<text text-anchor="middle" x="227.5" y="-5.75" font-family="Helvetica,sans-Serif" font-size="10.00">unistd.h</text>
</a>
</g>
</g>
<!-- Node6&#45;&gt;Node7 -->
<g id="edge7_Node000006_Node000007" class="edge">
<title>Node6&#45;&gt;Node7</title>
<g id="a_edge7_Node000006_Node000007"><a xlink:title=" ">
<path fill="none" stroke="#63b8ff" d="M241.69,-55.08C239.56,-48.42 236.56,-38.99 233.86,-30.53"/>
<polygon fill="#63b8ff" stroke="#63b8ff" points="237.2,-29.51 230.83,-21.05 230.54,-31.64 237.2,-29.51"/>
</a>
</g>
</g>
<!-- Node8 -->
<g id="Node000008" class="node">
<title>Node8</title>
<g id="a_Node000008"><a xlink:title=" ">
<polygon fill="#e0e0e0" stroke="#999999" points="314.75,-19.25 270.25,-19.25 270.25,0 314.75,0 314.75,-19.25"/>
<text text-anchor="middle" x="292.5" y="-5.75" font-family="Helvetica,sans-Serif" font-size="10.00">stdio.h</text>
</a>
</g>
</g>
<!-- Node6&#45;&gt;Node8 -->
<g id="edge8_Node000006_Node000008" class="edge">
<title>Node6&#45;&gt;Node8</title>
<g id="a_edge8_Node000006_Node000008"><a xlink:title=" ">
<path fill="none" stroke="#63b8ff" d="M252.43,-55.08C259.06,-47.73 268.72,-37.01 276.89,-27.94"/>
<polygon fill="#63b8ff" stroke="#63b8ff" points="279.29,-30.5 283.39,-20.73 274.09,-25.82 279.29,-30.5"/>
</a>
</g>
</g>
<!-- Node9 -->
<g id="Node000009" class="node">
<title>Node9</title>
<g id="a_Node000009"><a xlink:title=" ">
<polygon fill="#e0e0e0" stroke="#999999" points="374.62,-19.25 332.38,-19.25 332.38,0 374.62,0 374.62,-19.25"/>
<text text-anchor="middle" x="353.5" y="-5.75" font-family="Helvetica,sans-Serif" font-size="10.00">fcntl.h</text>
</a>
</g>
</g>
<!-- Node6&#45;&gt;Node9 -->
<g id="edge9_Node000006_Node000009" class="edge">
<title>Node6&#45;&gt;Node9</title>
<g id="a_edge9_Node000006_Node000009"><a xlink:title=" ">
<path fill="none" stroke="#63b8ff" d="M262.99,-54.84C279.9,-46.58 305.19,-34.23 324.74,-24.68"/>
<polygon fill="#63b8ff" stroke="#63b8ff" points="326.11,-27.9 333.56,-20.37 323.04,-21.61 326.11,-27.9"/>
</a>
</g>
</g>
<!-- Node10 -->
<g id="Node000010" class="node">
<title>Node10</title>
<g id="a_Node000010"><a xlink:title=" ">
<polygon fill="#e0e0e0" stroke="#999999" points="438.12,-19.25 392.88,-19.25 392.88,0 438.12,0 438.12,-19.25"/>
<text text-anchor="middle" x="415.5" y="-5.75" font-family="Helvetica,sans-Serif" font-size="10.00">math.h</text>
</a>
</g>
</g>
<!-- Node6&#45;&gt;Node10 -->
<g id="edge10_Node000006_Node000010" class="edge">
<title>Node6&#45;&gt;Node10</title>
<g id="a_edge10_Node000006_Node000010"><a xlink:title=" ">
<path fill="none" stroke="#63b8ff" d="M273.51,-54.84C303.38,-45.54 349.91,-31.05 381.49,-21.22"/>
<polygon fill="#63b8ff" stroke="#63b8ff" points="382.44,-24.59 390.95,-18.27 380.36,-17.9 382.44,-24.59"/>
</a>
</g>
</g>
</g>
</svg>
