<?xml version="1.0" encoding="UTF-8" standalone="no"?>
<!DOCTYPE svg PUBLIC "-//W3C//DTD SVG 1.1//EN"
 "http://www.w3.org/Graphics/SVG/1.1/DTD/svg11.dtd">
<!-- Generated by graphviz version 9.0.0 (20230911.1827)
 -->
<!-- Title: ray_transform Pages: 1 -->
<svg width="502pt" height="101pt"
 viewBox="0.00 0.00 502.00 101.25" xmlns="http://www.w3.org/2000/svg" xmlns:xlink="http://www.w3.org/1999/xlink">
<g id="graph0" class="graph" transform="scale(1 1) rotate(0) translate(4 97.25)">
<title>ray_transform</title>
<!-- Node1 -->
<g id="Node000001" class="node">
<title>Node1</title>
<g id="a_Node000001"><a xlink:title=" ">
<polygon fill="#999999" stroke="#666666" points="75.25,-37.25 0,-37.25 0,-18 75.25,-18 75.25,-37.25"/>
<text text-anchor="middle" x="37.62" y="-23.75" font-family="Helvetica,sans-Serif" font-size="10.00">ray_transform</text>
</a>
</g>
</g>
<!-- Node2 -->
<g id="Node000002" class="node">
<title>Node2</title>
<g id="a_Node000002"><a xlink:href="matrix__multiple_8c.html#a6aa64cfb17a064fdea66fdf14a2a426e" target="_top" xlink:title=" ">
<polygon fill="white" stroke="#666666" points="192.5,-56.25 111.25,-56.25 111.25,-37 192.5,-37 192.5,-56.25"/>
<text text-anchor="middle" x="151.88" y="-42.75" font-family="Helvetica,sans-Serif" font-size="10.00">matrix_multiple</text>
</a>
</g>
</g>
<!-- Node1&#45;&gt;Node2 -->
<g id="edge1_Node000001_Node000002" class="edge">
<title>Node1&#45;&gt;Node2</title>
<g id="a_edge1_Node000001_Node000002"><a xlink:title=" ">
<path fill="none" stroke="#63b8ff" d="M75.69,-33.9C83.33,-35.19 91.5,-36.58 99.55,-37.94"/>
<polygon fill="#63b8ff" stroke="#63b8ff" points="98.82,-41.36 109.26,-39.58 99.99,-34.46 98.82,-41.36"/>
</a>
</g>
</g>
<!-- Node8 -->
<g id="Node000008" class="node">
<title>Node8</title>
<g id="a_Node000008"><a xlink:href="ray__create_8c.html#a6b37390392ea1308815dc9a65054ba3d" target="_top" xlink:title=" ">
<polygon fill="white" stroke="#666666" points="182.38,-19.25 121.38,-19.25 121.38,0 182.38,0 182.38,-19.25"/>
<text text-anchor="middle" x="151.88" y="-5.75" font-family="Helvetica,sans-Serif" font-size="10.00">ray_create</text>
</a>
</g>
</g>
<!-- Node1&#45;&gt;Node8 -->
<g id="edge7_Node000001_Node000008" class="edge">
<title>Node1&#45;&gt;Node8</title>
<g id="a_edge7_Node000001_Node000008"><a xlink:title=" ">
<path fill="none" stroke="#63b8ff" d="M75.69,-21.68C86.59,-19.93 98.58,-18.01 109.72,-16.22"/>
<polygon fill="#63b8ff" stroke="#63b8ff" points="110.13,-19.7 119.45,-14.66 109.02,-12.79 110.13,-19.7"/>
</a>
</g>
</g>
<!-- Node3 -->
<g id="Node000003" class="node">
<title>Node3</title>
<g id="a_Node000003"><a xlink:href="errmsg_8c.html#a2fad0db9f0b078aa69ed34ccd60ad0c1" target="_top" xlink:title=" ">
<polygon fill="white" stroke="#666666" points="288.75,-93.25 242.75,-93.25 242.75,-74 288.75,-74 288.75,-93.25"/>
<text text-anchor="middle" x="265.75" y="-79.75" font-family="Helvetica,sans-Serif" font-size="10.00">errmsg</text>
</a>
</g>
</g>
<!-- Node2&#45;&gt;Node3 -->
<g id="edge2_Node000002_Node000003" class="edge">
<title>Node2&#45;&gt;Node3</title>
<g id="a_edge2_Node000002_Node000003"><a xlink:title=" ">
<path fill="none" stroke="#63b8ff" d="M183.45,-56.74C198.44,-61.69 216.52,-67.67 231.81,-72.73"/>
<polygon fill="#63b8ff" stroke="#63b8ff" points="230.35,-75.93 240.94,-75.75 232.55,-69.29 230.35,-75.93"/>
</a>
</g>
</g>
<!-- Node4 -->
<g id="Node000004" class="node">
<title>Node4</title>
<g id="a_Node000004"><a xlink:href="matrix__create_8c.html#a5291384d37d735f9c3fc33c03d2788ad" target="_top" xlink:title=" ">
<polygon fill="white" stroke="#666666" points="303,-56.25 228.5,-56.25 228.5,-37 303,-37 303,-56.25"/>
<text text-anchor="middle" x="265.75" y="-42.75" font-family="Helvetica,sans-Serif" font-size="10.00">matrix_create</text>
</a>
</g>
</g>
<!-- Node2&#45;&gt;Node4 -->
<g id="edge3_Node000002_Node000004" class="edge">
<title>Node2&#45;&gt;Node4</title>
<g id="a_edge3_Node000002_Node000004"><a xlink:title=" ">
<path fill="none" stroke="#63b8ff" d="M192.95,-46.62C200.7,-46.62 208.89,-46.62 216.86,-46.62"/>
<polygon fill="#63b8ff" stroke="#63b8ff" points="216.79,-50.13 226.79,-46.63 216.79,-43.13 216.79,-50.13"/>
</a>
</g>
</g>
<!-- Node5 -->
<g id="Node000005" class="node">
<title>Node5</title>
<g id="a_Node000005"><a xlink:href="free__dptr_8c.html#aaa705b6d12fb1a9a15e6103879ec0ea0" target="_top" xlink:title=" ">
<polygon fill="white" stroke="#666666" points="400.38,-56.25 346.12,-56.25 346.12,-37 400.38,-37 400.38,-56.25"/>
<text text-anchor="middle" x="373.25" y="-42.75" font-family="Helvetica,sans-Serif" font-size="10.00">free_dptr</text>
</a>
</g>
</g>
<!-- Node4&#45;&gt;Node5 -->
<g id="edge4_Node000004_Node000005" class="edge">
<title>Node4&#45;&gt;Node5</title>
<g id="a_edge4_Node000004_Node000005"><a xlink:title=" ">
<path fill="none" stroke="#63b8ff" d="M303.35,-46.62C313.36,-46.62 324.23,-46.62 334.31,-46.62"/>
<polygon fill="#63b8ff" stroke="#63b8ff" points="334.18,-50.13 344.18,-46.63 334.17,-43.13 334.18,-50.13"/>
</a>
</g>
</g>
<!-- Node6 -->
<g id="Node000006" class="node">
<title>Node6</title>
<g id="a_Node000006"><a xlink:href="safe__malloc_8c.html#ab8bcda0e59b6f8eab1bfd9f92de50c6c" target="_top" xlink:title=" ">
<polygon fill="white" stroke="#666666" points="407.5,-19.25 339,-19.25 339,0 407.5,0 407.5,-19.25"/>
<text text-anchor="middle" x="373.25" y="-5.75" font-family="Helvetica,sans-Serif" font-size="10.00">safe_malloc</text>
</a>
</g>
</g>
<!-- Node4&#45;&gt;Node6 -->
<g id="edge5_Node000004_Node000006" class="edge">
<title>Node4&#45;&gt;Node6</title>
<g id="a_edge5_Node000004_Node000006"><a xlink:title=" ">
<path fill="none" stroke="#63b8ff" d="M295.58,-36.51C307.09,-32.48 320.53,-27.76 332.92,-23.42"/>
<polygon fill="#63b8ff" stroke="#63b8ff" points="333.75,-26.84 342.03,-20.22 331.43,-20.23 333.75,-26.84"/>
</a>
</g>
</g>
<!-- Node7 -->
<g id="Node000007" class="node">
<title>Node7</title>
<g id="a_Node000007"><a xlink:href="LIBFT_2ft__bzero_8c.html#a5937ab0d08e31d0e3e4a16ec71e293a1" target="_top" xlink:title=" ">
<polygon fill="white" stroke="#666666" points="494,-19.25 443.5,-19.25 443.5,0 494,0 494,-19.25"/>
<text text-anchor="middle" x="468.75" y="-5.75" font-family="Helvetica,sans-Serif" font-size="10.00">ft_bzero</text>
</a>
</g>
</g>
<!-- Node6&#45;&gt;Node7 -->
<g id="edge6_Node000006_Node000007" class="edge">
<title>Node6&#45;&gt;Node7</title>
<g id="a_edge6_Node000006_Node000007"><a xlink:title=" ">
<path fill="none" stroke="#63b8ff" d="M407.74,-9.62C415.63,-9.62 424.06,-9.62 432.04,-9.62"/>
<polygon fill="#63b8ff" stroke="#63b8ff" points="431.78,-13.13 441.78,-9.63 431.78,-6.13 431.78,-13.13"/>
</a>
</g>
</g>
<!-- Node8&#45;&gt;Node6 -->
<g id="edge8_Node000008_Node000006" class="edge">
<title>Node8&#45;&gt;Node6</title>
<g id="a_edge8_Node000008_Node000006"><a xlink:title=" ">
<path fill="none" stroke="#63b8ff" d="M182.46,-9.62C219.74,-9.62 284.17,-9.62 327.49,-9.62"/>
<polygon fill="#63b8ff" stroke="#63b8ff" points="327.32,-13.13 337.32,-9.63 327.32,-6.13 327.32,-13.13"/>
</a>
</g>
</g>
</g>
</svg>
