<?xml version="1.0" encoding="UTF-8" standalone="no"?>
<!DOCTYPE svg PUBLIC "-//W3C//DTD SVG 1.1//EN"
 "http://www.w3.org/Graphics/SVG/1.1/DTD/svg11.dtd">
<!-- Generated by graphviz version 9.0.0 (20230911.1827)
 -->
<!-- Title: ray_intersect_world Pages: 1 -->
<svg width="784pt" height="254pt"
 viewBox="0.00 0.00 783.75 254.25" xmlns="http://www.w3.org/2000/svg" xmlns:xlink="http://www.w3.org/1999/xlink">
<g id="graph0" class="graph" transform="scale(1 1) rotate(0) translate(4 250.25)">
<title>ray_intersect_world</title>
<!-- Node1 -->
<g id="Node000001" class="node">
<title>Node1</title>
<g id="a_Node000001"><a xlink:title=" ">
<polygon fill="#999999" stroke="#666666" points="100,-169.25 0,-169.25 0,-150 100,-150 100,-169.25"/>
<text text-anchor="middle" x="50" y="-155.75" font-family="Helvetica,sans-Serif" font-size="10.00">ray_intersect_world</text>
</a>
</g>
</g>
<!-- Node2 -->
<g id="Node000002" class="node">
<title>Node2</title>
<g id="a_Node000002"><a xlink:href="add__to__dptr_8c.html#a87c44ad76517c5ecf00aaaee8585a9f1" target="_top" xlink:title=" ">
<polygon fill="white" stroke="#666666" points="222.5,-188.25 155.5,-188.25 155.5,-169 222.5,-169 222.5,-188.25"/>
<text text-anchor="middle" x="189" y="-174.75" font-family="Helvetica,sans-Serif" font-size="10.00">add_to_dptr</text>
</a>
</g>
</g>
<!-- Node1&#45;&gt;Node2 -->
<g id="edge1_Node000001_Node000002" class="edge">
<title>Node1&#45;&gt;Node2</title>
<g id="a_edge1_Node000001_Node000002"><a xlink:title=" ">
<path fill="none" stroke="#63b8ff" d="M100.46,-166.48C114.71,-168.46 130.16,-170.6 144.05,-172.53"/>
<polygon fill="#63b8ff" stroke="#63b8ff" points="143.41,-175.97 153.79,-173.88 144.37,-169.04 143.41,-175.97"/>
</a>
</g>
</g>
<!-- Node3 -->
<g id="Node000003" class="node">
<title>Node3</title>
<g id="a_Node000003"><a xlink:href="ray__intersect_8c.html#a20cc82316845ecb42e8e8c218ff72a73" target="_top" xlink:title=" ">
<polygon fill="white" stroke="#666666" points="242,-151.25 136,-151.25 136,-132 242,-132 242,-151.25"/>
<text text-anchor="middle" x="189" y="-137.75" font-family="Helvetica,sans-Serif" font-size="10.00">ray_intersect_sphere</text>
</a>
</g>
</g>
<!-- Node1&#45;&gt;Node3 -->
<g id="edge2_Node000001_Node000003" class="edge">
<title>Node1&#45;&gt;Node3</title>
<g id="a_edge2_Node000001_Node000003"><a xlink:title=" ">
<path fill="none" stroke="#63b8ff" d="M100.46,-153.13C108.27,-152.1 116.45,-151.03 124.53,-149.96"/>
<polygon fill="#63b8ff" stroke="#63b8ff" points="124.88,-153.45 134.34,-148.68 123.97,-146.51 124.88,-153.45"/>
</a>
</g>
</g>
<!-- Node4 -->
<g id="Node000004" class="node">
<title>Node4</title>
<g id="a_Node000004"><a xlink:href="discriminant_8c.html#aec39a15e88725e65db99b439a7732f81" target="_top" xlink:title=" ">
<polygon fill="white" stroke="#666666" points="351.75,-246.25 283.25,-246.25 283.25,-227 351.75,-227 351.75,-246.25"/>
<text text-anchor="middle" x="317.5" y="-232.75" font-family="Helvetica,sans-Serif" font-size="10.00">discriminant</text>
</a>
</g>
</g>
<!-- Node3&#45;&gt;Node4 -->
<g id="edge3_Node000003_Node000004" class="edge">
<title>Node3&#45;&gt;Node4</title>
<g id="a_edge3_Node000003_Node000004"><a xlink:title=" ">
<path fill="none" stroke="#63b8ff" d="M228.39,-151.7C233.22,-153.87 237.9,-156.49 242,-159.62 264.61,-176.94 257.47,-192.89 278,-212.62 280.87,-215.38 284.11,-217.99 287.45,-220.39"/>
<polygon fill="#63b8ff" stroke="#63b8ff" points="285.41,-223.24 295.7,-225.77 289.23,-217.38 285.41,-223.24"/>
</a>
</g>
</g>
<!-- Node6 -->
<g id="Node000006" class="node">
<title>Node6</title>
<g id="a_Node000006"><a xlink:href="matrix__free_8c.html#ab28d26aa6d34d5c2a3b83b9ee519fec6" target="_top" xlink:title=" ">
<polygon fill="white" stroke="#666666" points="465.62,-208.25 401.62,-208.25 401.62,-189 465.62,-189 465.62,-208.25"/>
<text text-anchor="middle" x="433.62" y="-194.75" font-family="Helvetica,sans-Serif" font-size="10.00">free_matrix</text>
</a>
</g>
</g>
<!-- Node3&#45;&gt;Node6 -->
<g id="edge5_Node000003_Node000006" class="edge">
<title>Node3&#45;&gt;Node6</title>
<g id="a_edge5_Node000003_Node000006"><a xlink:title=" ">
<path fill="none" stroke="#63b8ff" d="M221.97,-151.71C228.67,-154.09 235.63,-156.78 242,-159.62 258.71,-167.09 260.6,-173.96 278,-179.62 314.6,-191.54 358.3,-196.08 389.88,-197.76"/>
<polygon fill="#63b8ff" stroke="#63b8ff" points="389.7,-201.26 399.85,-198.21 390.01,-194.26 389.7,-201.26"/>
</a>
</g>
</g>
<!-- Node7 -->
<g id="Node000007" class="node">
<title>Node7</title>
<g id="a_Node000007"><a xlink:href="ray__free_8c.html#a9383ed085976d00ada942863da06de89" target="_top" xlink:title=" ">
<polygon fill="white" stroke="#666666" points="342.75,-170.25 292.25,-170.25 292.25,-151 342.75,-151 342.75,-170.25"/>
<text text-anchor="middle" x="317.5" y="-156.75" font-family="Helvetica,sans-Serif" font-size="10.00">free_ray</text>
</a>
</g>
</g>
<!-- Node3&#45;&gt;Node7 -->
<g id="edge6_Node000003_Node000007" class="edge">
<title>Node3&#45;&gt;Node7</title>
<g id="a_edge6_Node000003_Node000007"><a xlink:title=" ">
<path fill="none" stroke="#63b8ff" d="M242.18,-149.46C255.15,-151.41 268.75,-153.45 280.73,-155.25"/>
<polygon fill="#63b8ff" stroke="#63b8ff" points="280.17,-158.71 290.58,-156.73 281.21,-151.78 280.17,-158.71"/>
</a>
</g>
</g>
<!-- Node8 -->
<g id="Node000008" class="node">
<title>Node8</title>
<g id="a_Node000008"><a xlink:href="matrix__inverse_8c.html#a38c4dbf43aa6a2d976c3f77297ecd403" target="_top" xlink:title=" ">
<polygon fill="white" stroke="#666666" points="357,-133.25 278,-133.25 278,-114 357,-114 357,-133.25"/>
<text text-anchor="middle" x="317.5" y="-119.75" font-family="Helvetica,sans-Serif" font-size="10.00">matrix_inverse</text>
</a>
</g>
</g>
<!-- Node3&#45;&gt;Node8 -->
<g id="edge8_Node000003_Node000008" class="edge">
<title>Node3&#45;&gt;Node8</title>
<g id="a_edge8_Node000003_Node000008"><a xlink:title=" ">
<path fill="none" stroke="#63b8ff" d="M242.18,-134.2C250.14,-133.07 258.34,-131.9 266.25,-130.78"/>
<polygon fill="#63b8ff" stroke="#63b8ff" points="266.68,-134.25 276.08,-129.38 265.69,-127.32 266.68,-134.25"/>
</a>
</g>
</g>
<!-- Node14 -->
<g id="Node000014" class="node">
<title>Node14</title>
<g id="a_Node000014"><a xlink:href="matrix__sum_8c.html#a131fcf979705ebc7d09650c74adddfbb" target="_top" xlink:title=" ">
<polygon fill="white" stroke="#666666" points="351.75,-95.25 283.25,-95.25 283.25,-76 351.75,-76 351.75,-95.25"/>
<text text-anchor="middle" x="317.5" y="-81.75" font-family="Helvetica,sans-Serif" font-size="10.00">matrix_subs</text>
</a>
</g>
</g>
<!-- Node3&#45;&gt;Node14 -->
<g id="edge16_Node000003_Node000014" class="edge">
<title>Node3&#45;&gt;Node14</title>
<g id="a_edge16_Node000003_Node000014"><a xlink:title=" ">
<path fill="none" stroke="#63b8ff" d="M212.62,-131.61C232.28,-122.91 261.03,-110.18 283.31,-100.32"/>
<polygon fill="#63b8ff" stroke="#63b8ff" points="284.54,-103.6 292.27,-96.35 281.71,-97.2 284.54,-103.6"/>
</a>
</g>
</g>
<!-- Node15 -->
<g id="Node000015" class="node">
<title>Node15</title>
<g id="a_Node000015"><a xlink:href="ray__transform_8c.html#a4b22c1091f5143dc209773a18fd27f15" target="_top" xlink:title=" ">
<polygon fill="white" stroke="#666666" points="355.12,-56.25 279.88,-56.25 279.88,-37 355.12,-37 355.12,-56.25"/>
<text text-anchor="middle" x="317.5" y="-42.75" font-family="Helvetica,sans-Serif" font-size="10.00">ray_transform</text>
</a>
</g>
</g>
<!-- Node3&#45;&gt;Node15 -->
<g id="edge18_Node000003_Node000015" class="edge">
<title>Node3&#45;&gt;Node15</title>
<g id="a_edge18_Node000003_Node000015"><a xlink:title=" ">
<path fill="none" stroke="#63b8ff" d="M200.21,-131.56C216,-116.33 247.69,-87.03 278,-66.62 280.35,-65.04 282.84,-63.49 285.38,-62"/>
<polygon fill="#63b8ff" stroke="#63b8ff" points="286.83,-65.2 293.9,-57.31 283.45,-59.07 286.83,-65.2"/>
</a>
</g>
</g>
<!-- Node5 -->
<g id="Node000005" class="node">
<title>Node5</title>
<g id="a_Node000005"><a xlink:href="matrix__dot_8c.html#a1e63fc9ff7ee9be50c15ed7399415881" target="_top" xlink:title="Function that finds the dot (.) product of 2 vectors.">
<polygon fill="white" stroke="#666666" points="464.12,-246.25 403.12,-246.25 403.12,-227 464.12,-227 464.12,-246.25"/>
<text text-anchor="middle" x="433.62" y="-232.75" font-family="Helvetica,sans-Serif" font-size="10.00">matrix_dot</text>
</a>
</g>
</g>
<!-- Node4&#45;&gt;Node5 -->
<g id="edge4_Node000004_Node000005" class="edge">
<title>Node4&#45;&gt;Node5</title>
<g id="a_edge4_Node000004_Node000005"><a xlink:title=" ">
<path fill="none" stroke="#63b8ff" d="M352.12,-236.62C364.41,-236.62 378.44,-236.62 391.32,-236.62"/>
<polygon fill="#63b8ff" stroke="#63b8ff" points="391.22,-240.13 401.22,-236.63 391.22,-233.13 391.22,-240.13"/>
</a>
</g>
</g>
<!-- Node7&#45;&gt;Node6 -->
<g id="edge7_Node000007_Node000006" class="edge">
<title>Node7&#45;&gt;Node6</title>
<g id="a_edge7_Node000007_Node000006"><a xlink:title=" ">
<path fill="none" stroke="#63b8ff" d="M342.98,-168.78C357.14,-173.49 375.32,-179.54 391.6,-184.96"/>
<polygon fill="#63b8ff" stroke="#63b8ff" points="390.46,-188.28 401.06,-188.11 392.68,-181.63 390.46,-188.28"/>
</a>
</g>
</g>
<!-- Node8&#45;&gt;Node6 -->
<g id="edge9_Node000008_Node000006" class="edge">
<title>Node8&#45;&gt;Node6</title>
<g id="a_edge9_Node000008_Node000006"><a xlink:title=" ">
<path fill="none" stroke="#63b8ff" d="M342.73,-133.58C347.61,-135.95 352.58,-138.67 357,-141.62 375.04,-153.69 375.63,-161.61 393,-174.62 396.66,-177.37 400.65,-180.08 404.64,-182.63"/>
<polygon fill="#63b8ff" stroke="#63b8ff" points="402.74,-185.57 413.09,-187.81 406.39,-179.6 402.74,-185.57"/>
</a>
</g>
</g>
<!-- Node9 -->
<g id="Node000009" class="node">
<title>Node9</title>
<g id="a_Node000009"><a xlink:href="matrix__create_8c.html#a5291384d37d735f9c3fc33c03d2788ad" target="_top" xlink:title=" ">
<polygon fill="white" stroke="#666666" points="584.75,-94.25 510.25,-94.25 510.25,-75 584.75,-75 584.75,-94.25"/>
<text text-anchor="middle" x="547.5" y="-80.75" font-family="Helvetica,sans-Serif" font-size="10.00">matrix_create</text>
</a>
</g>
</g>
<!-- Node8&#45;&gt;Node9 -->
<g id="edge10_Node000008_Node000009" class="edge">
<title>Node8&#45;&gt;Node9</title>
<g id="a_edge10_Node000008_Node000009"><a xlink:title=" ">
<path fill="none" stroke="#63b8ff" d="M345.18,-133.67C376.83,-144.03 430.79,-156.7 474.25,-141.62 496.29,-133.98 516.69,-116.51 530.16,-102.91"/>
<polygon fill="#63b8ff" stroke="#63b8ff" points="532.58,-105.45 536.91,-95.78 527.49,-100.64 532.58,-105.45"/>
</a>
</g>
</g>
<!-- Node13 -->
<g id="Node000013" class="node">
<title>Node13</title>
<g id="a_Node000013"><a xlink:href="matrix__identity_8c.html#a841c87975e3b38adb536d63ec35456e5" target="_top" xlink:title="Function that creates an identity matrix of size n 1 0 0 0 0 1 0 0 0 0 1 0 0 0 0 1.">
<polygon fill="white" stroke="#666666" points="472.75,-132.25 394.5,-132.25 394.5,-113 472.75,-113 472.75,-132.25"/>
<text text-anchor="middle" x="433.62" y="-118.75" font-family="Helvetica,sans-Serif" font-size="10.00">matrix_identity</text>
</a>
</g>
</g>
<!-- Node8&#45;&gt;Node13 -->
<g id="edge14_Node000008_Node000013" class="edge">
<title>Node8&#45;&gt;Node13</title>
<g id="a_edge14_Node000008_Node000013"><a xlink:title=" ">
<path fill="none" stroke="#63b8ff" d="M357.46,-123.28C365.62,-123.21 374.35,-123.14 382.85,-123.06"/>
<polygon fill="#63b8ff" stroke="#63b8ff" points="382.75,-126.56 392.72,-122.97 382.69,-119.56 382.75,-126.56"/>
</a>
</g>
</g>
<!-- Node10 -->
<g id="Node000010" class="node">
<title>Node10</title>
<g id="a_Node000010"><a xlink:href="free__dptr_8c.html#aaa705b6d12fb1a9a15e6103879ec0ea0" target="_top" xlink:title=" ">
<polygon fill="white" stroke="#666666" points="682.12,-94.25 627.88,-94.25 627.88,-75 682.12,-75 682.12,-94.25"/>
<text text-anchor="middle" x="655" y="-80.75" font-family="Helvetica,sans-Serif" font-size="10.00">free_dptr</text>
</a>
</g>
</g>
<!-- Node9&#45;&gt;Node10 -->
<g id="edge11_Node000009_Node000010" class="edge">
<title>Node9&#45;&gt;Node10</title>
<g id="a_edge11_Node000009_Node000010"><a xlink:title=" ">
<path fill="none" stroke="#63b8ff" d="M585.1,-84.62C595.11,-84.62 605.98,-84.62 616.06,-84.62"/>
<polygon fill="#63b8ff" stroke="#63b8ff" points="615.93,-88.13 625.93,-84.63 615.92,-81.13 615.93,-88.13"/>
</a>
</g>
</g>
<!-- Node11 -->
<g id="Node000011" class="node">
<title>Node11</title>
<g id="a_Node000011"><a xlink:href="safe__malloc_8c.html#ab8bcda0e59b6f8eab1bfd9f92de50c6c" target="_top" xlink:title=" ">
<polygon fill="white" stroke="#666666" points="689.25,-38.25 620.75,-38.25 620.75,-19 689.25,-19 689.25,-38.25"/>
<text text-anchor="middle" x="655" y="-24.75" font-family="Helvetica,sans-Serif" font-size="10.00">safe_malloc</text>
</a>
</g>
</g>
<!-- Node9&#45;&gt;Node11 -->
<g id="edge12_Node000009_Node000011" class="edge">
<title>Node9&#45;&gt;Node11</title>
<g id="a_edge12_Node000009_Node000011"><a xlink:title=" ">
<path fill="none" stroke="#63b8ff" d="M567.7,-74.6C573.21,-71.71 579.22,-68.55 584.75,-65.62 598.12,-58.55 612.9,-50.66 625.37,-43.99"/>
<polygon fill="#63b8ff" stroke="#63b8ff" points="626.71,-47.24 633.88,-39.43 623.41,-41.07 626.71,-47.24"/>
</a>
</g>
</g>
<!-- Node12 -->
<g id="Node000012" class="node">
<title>Node12</title>
<g id="a_Node000012"><a xlink:href="LIBFT_2ft__bzero_8c.html#a5937ab0d08e31d0e3e4a16ec71e293a1" target="_top" xlink:title=" ">
<polygon fill="white" stroke="#666666" points="775.75,-38.25 725.25,-38.25 725.25,-19 775.75,-19 775.75,-38.25"/>
<text text-anchor="middle" x="750.5" y="-24.75" font-family="Helvetica,sans-Serif" font-size="10.00">ft_bzero</text>
</a>
</g>
</g>
<!-- Node11&#45;&gt;Node12 -->
<g id="edge13_Node000011_Node000012" class="edge">
<title>Node11&#45;&gt;Node12</title>
<g id="a_edge13_Node000011_Node000012"><a xlink:title=" ">
<path fill="none" stroke="#63b8ff" d="M689.49,-28.62C697.38,-28.62 705.81,-28.62 713.79,-28.62"/>
<polygon fill="#63b8ff" stroke="#63b8ff" points="713.53,-32.13 723.53,-28.63 713.53,-25.13 713.53,-32.13"/>
</a>
</g>
</g>
<!-- Node13&#45;&gt;Node9 -->
<g id="edge15_Node000013_Node000009" class="edge">
<title>Node13&#45;&gt;Node9</title>
<g id="a_edge15_Node000013_Node000009"><a xlink:title=" ">
<path fill="none" stroke="#63b8ff" d="M464.31,-112.54C477.18,-108.17 492.45,-102.98 506.32,-98.27"/>
<polygon fill="#63b8ff" stroke="#63b8ff" points="507.29,-101.64 515.63,-95.11 505.04,-95.01 507.29,-101.64"/>
</a>
</g>
</g>
<!-- Node14&#45;&gt;Node9 -->
<g id="edge17_Node000014_Node000009" class="edge">
<title>Node14&#45;&gt;Node9</title>
<g id="a_edge17_Node000014_Node000009"><a xlink:title=" ">
<path fill="none" stroke="#63b8ff" d="M352.14,-85.48C390.92,-85.31 454.93,-85.03 498.82,-84.83"/>
<polygon fill="#63b8ff" stroke="#63b8ff" points="498.58,-88.34 508.56,-84.79 498.55,-81.34 498.58,-88.34"/>
</a>
</g>
</g>
<!-- Node16 -->
<g id="Node000016" class="node">
<title>Node16</title>
<g id="a_Node000016"><a xlink:href="matrix__multiple_8c.html#a6aa64cfb17a064fdea66fdf14a2a426e" target="_top" xlink:title=" ">
<polygon fill="white" stroke="#666666" points="474.25,-56.25 393,-56.25 393,-37 474.25,-37 474.25,-56.25"/>
<text text-anchor="middle" x="433.62" y="-42.75" font-family="Helvetica,sans-Serif" font-size="10.00">matrix_multiple</text>
</a>
</g>
</g>
<!-- Node15&#45;&gt;Node16 -->
<g id="edge19_Node000015_Node000016" class="edge">
<title>Node15&#45;&gt;Node16</title>
<g id="a_edge19_Node000015_Node000016"><a xlink:title=" ">
<path fill="none" stroke="#63b8ff" d="M355.55,-46.62C363.79,-46.62 372.66,-46.62 381.35,-46.62"/>
<polygon fill="#63b8ff" stroke="#63b8ff" points="381.09,-50.13 391.09,-46.63 381.09,-43.13 381.09,-50.13"/>
</a>
</g>
</g>
<!-- Node18 -->
<g id="Node000018" class="node">
<title>Node18</title>
<g id="a_Node000018"><a xlink:href="ray__create_8c.html#a6b37390392ea1308815dc9a65054ba3d" target="_top" xlink:title=" ">
<polygon fill="white" stroke="#666666" points="578,-19.25 517,-19.25 517,0 578,0 578,-19.25"/>
<text text-anchor="middle" x="547.5" y="-5.75" font-family="Helvetica,sans-Serif" font-size="10.00">ray_create</text>
</a>
</g>
</g>
<!-- Node15&#45;&gt;Node18 -->
<g id="edge22_Node000015_Node000018" class="edge">
<title>Node15&#45;&gt;Node18</title>
<g id="a_edge22_Node000015_Node000018"><a xlink:title=" ">
<path fill="none" stroke="#63b8ff" d="M353.91,-36.57C366.21,-33.35 380.14,-30.01 393,-27.62 430.78,-20.62 474.33,-15.82 505.37,-12.95"/>
<polygon fill="#63b8ff" stroke="#63b8ff" points="505.45,-16.46 515.1,-12.08 504.83,-9.49 505.45,-16.46"/>
</a>
</g>
</g>
<!-- Node16&#45;&gt;Node9 -->
<g id="edge21_Node000016_Node000009" class="edge">
<title>Node16&#45;&gt;Node9</title>
<g id="a_edge21_Node000016_Node000009"><a xlink:title=" ">
<path fill="none" stroke="#63b8ff" d="M464.31,-56.71C477.18,-61.08 492.45,-66.27 506.32,-70.98"/>
<polygon fill="#63b8ff" stroke="#63b8ff" points="505.04,-74.24 515.63,-74.14 507.29,-67.61 505.04,-74.24"/>
</a>
</g>
</g>
<!-- Node17 -->
<g id="Node000017" class="node">
<title>Node17</title>
<g id="a_Node000017"><a xlink:href="errmsg_8c.html#a2fad0db9f0b078aa69ed34ccd60ad0c1" target="_top" xlink:title=" ">
<polygon fill="white" stroke="#666666" points="570.5,-56.25 524.5,-56.25 524.5,-37 570.5,-37 570.5,-56.25"/>
<text text-anchor="middle" x="547.5" y="-42.75" font-family="Helvetica,sans-Serif" font-size="10.00">errmsg</text>
</a>
</g>
</g>
<!-- Node16&#45;&gt;Node17 -->
<g id="edge20_Node000016_Node000017" class="edge">
<title>Node16&#45;&gt;Node17</title>
<g id="a_edge20_Node000016_Node000017"><a xlink:title=" ">
<path fill="none" stroke="#63b8ff" d="M474.7,-46.62C487.21,-46.62 500.87,-46.62 512.89,-46.62"/>
<polygon fill="#63b8ff" stroke="#63b8ff" points="512.74,-50.13 522.74,-46.63 512.74,-43.13 512.74,-50.13"/>
</a>
</g>
</g>
<!-- Node18&#45;&gt;Node11 -->
<g id="edge23_Node000018_Node000011" class="edge">
<title>Node18&#45;&gt;Node11</title>
<g id="a_edge23_Node000018_Node000011"><a xlink:title=" ">
<path fill="none" stroke="#63b8ff" d="M578.45,-15.02C588.02,-16.74 598.84,-18.69 609.23,-20.56"/>
<polygon fill="#63b8ff" stroke="#63b8ff" points="608.31,-23.95 618.77,-22.28 609.55,-17.06 608.31,-23.95"/>
</a>
</g>
</g>
</g>
</svg>
