<?xml version="1.0" encoding="UTF-8" standalone="no"?>
<!DOCTYPE svg PUBLIC "-//W3C//DTD SVG 1.1//EN"
 "http://www.w3.org/Graphics/SVG/1.1/DTD/svg11.dtd">
<!-- Generated by graphviz version 9.0.0 (20230911.1827)
 -->
<!-- Title: ray_position Pages: 1 -->
<svg width="377pt" height="64pt"
 viewBox="0.00 0.00 377.25 64.25" xmlns="http://www.w3.org/2000/svg" xmlns:xlink="http://www.w3.org/1999/xlink">
<g id="graph0" class="graph" transform="scale(1 1) rotate(0) translate(4 60.25)">
<title>ray_position</title>
<!-- Node1 -->
<g id="Node000001" class="node">
<title>Node1</title>
<g id="a_Node000001"><a xlink:title=" ">
<polygon fill="#999999" stroke="#666666" points="67.75,-37.25 0,-37.25 0,-18 67.75,-18 67.75,-37.25"/>
<text text-anchor="middle" x="33.88" y="-23.75" font-family="Helvetica,sans-Serif" font-size="10.00">ray_position</text>
</a>
</g>
</g>
<!-- Node2 -->
<g id="Node000002" class="node">
<title>Node2</title>
<g id="a_Node000002"><a xlink:href="matrix__create_8c.html#a5291384d37d735f9c3fc33c03d2788ad" target="_top" xlink:title=" ">
<polygon fill="white" stroke="#666666" points="178.25,-37.25 103.75,-37.25 103.75,-18 178.25,-18 178.25,-37.25"/>
<text text-anchor="middle" x="141" y="-23.75" font-family="Helvetica,sans-Serif" font-size="10.00">matrix_create</text>
</a>
</g>
</g>
<!-- Node1&#45;&gt;Node2 -->
<g id="edge1_Node000001_Node000002" class="edge">
<title>Node1&#45;&gt;Node2</title>
<g id="a_edge1_Node000001_Node000002"><a xlink:title=" ">
<path fill="none" stroke="#63b8ff" d="M68.14,-27.62C75.74,-27.62 83.97,-27.62 92.06,-27.62"/>
<polygon fill="#63b8ff" stroke="#63b8ff" points="91.79,-31.13 101.79,-27.63 91.79,-24.13 91.79,-31.13"/>
</a>
</g>
</g>
<!-- Node3 -->
<g id="Node000003" class="node">
<title>Node3</title>
<g id="a_Node000003"><a xlink:href="free__dptr_8c.html#aaa705b6d12fb1a9a15e6103879ec0ea0" target="_top" xlink:title=" ">
<polygon fill="white" stroke="#666666" points="275.62,-56.25 221.38,-56.25 221.38,-37 275.62,-37 275.62,-56.25"/>
<text text-anchor="middle" x="248.5" y="-42.75" font-family="Helvetica,sans-Serif" font-size="10.00">free_dptr</text>
</a>
</g>
</g>
<!-- Node2&#45;&gt;Node3 -->
<g id="edge2_Node000002_Node000003" class="edge">
<title>Node2&#45;&gt;Node3</title>
<g id="a_edge2_Node000002_Node000003"><a xlink:title=" ">
<path fill="none" stroke="#63b8ff" d="M178.6,-34.22C188.72,-36.04 199.72,-38.02 209.89,-39.85"/>
<polygon fill="#63b8ff" stroke="#63b8ff" points="208.99,-43.25 219.45,-41.57 210.23,-36.36 208.99,-43.25"/>
</a>
</g>
</g>
<!-- Node4 -->
<g id="Node000004" class="node">
<title>Node4</title>
<g id="a_Node000004"><a xlink:href="safe__malloc_8c.html#ab8bcda0e59b6f8eab1bfd9f92de50c6c" target="_top" xlink:title=" ">
<polygon fill="white" stroke="#666666" points="282.75,-19.25 214.25,-19.25 214.25,0 282.75,0 282.75,-19.25"/>
<text text-anchor="middle" x="248.5" y="-5.75" font-family="Helvetica,sans-Serif" font-size="10.00">safe_malloc</text>
</a>
</g>
</g>
<!-- Node2&#45;&gt;Node4 -->
<g id="edge3_Node000002_Node000004" class="edge">
<title>Node2&#45;&gt;Node4</title>
<g id="a_edge3_Node000002_Node000004"><a xlink:title=" ">
<path fill="none" stroke="#63b8ff" d="M178.6,-21.38C186.37,-20.05 194.65,-18.64 202.68,-17.27"/>
<polygon fill="#63b8ff" stroke="#63b8ff" points="203.03,-20.76 212.3,-15.63 201.85,-13.86 203.03,-20.76"/>
</a>
</g>
</g>
<!-- Node5 -->
<g id="Node000005" class="node">
<title>Node5</title>
<g id="a_Node000005"><a xlink:href="LIBFT_2ft__bzero_8c.html#a5937ab0d08e31d0e3e4a16ec71e293a1" target="_top" xlink:title=" ">
<polygon fill="white" stroke="#666666" points="369.25,-19.25 318.75,-19.25 318.75,0 369.25,0 369.25,-19.25"/>
<text text-anchor="middle" x="344" y="-5.75" font-family="Helvetica,sans-Serif" font-size="10.00">ft_bzero</text>
</a>
</g>
</g>
<!-- Node4&#45;&gt;Node5 -->
<g id="edge4_Node000004_Node000005" class="edge">
<title>Node4&#45;&gt;Node5</title>
<g id="a_edge4_Node000004_Node000005"><a xlink:title=" ">
<path fill="none" stroke="#63b8ff" d="M282.99,-9.62C290.88,-9.62 299.31,-9.62 307.29,-9.62"/>
<polygon fill="#63b8ff" stroke="#63b8ff" points="307.03,-13.13 317.03,-9.63 307.03,-6.13 307.03,-13.13"/>
</a>
</g>
</g>
</g>
</svg>
