<?xml version="1.0" encoding="UTF-8" standalone="no"?>
<!DOCTYPE svg PUBLIC "-//W3C//DTD SVG 1.1//EN"
 "http://www.w3.org/Graphics/SVG/1.1/DTD/svg11.dtd">
<!-- Generated by graphviz version 9.0.0 (20230911.1827)
 -->
<!-- Title: ray_clone Pages: 1 -->
<svg width="474pt" height="65pt"
 viewBox="0.00 0.00 473.50 65.25" xmlns="http://www.w3.org/2000/svg" xmlns:xlink="http://www.w3.org/1999/xlink">
<g id="graph0" class="graph" transform="scale(1 1) rotate(0) translate(4 61.25)">
<title>ray_clone</title>
<!-- Node1 -->
<g id="Node000001" class="node">
<title>Node1</title>
<g id="a_Node000001"><a xlink:title=" ">
<polygon fill="#999999" stroke="#666666" points="57.25,-38.25 0,-38.25 0,-19 57.25,-19 57.25,-38.25"/>
<text text-anchor="middle" x="28.62" y="-24.75" font-family="Helvetica,sans-Serif" font-size="10.00">ray_clone</text>
</a>
</g>
</g>
<!-- Node2 -->
<g id="Node000002" class="node">
<title>Node2</title>
<g id="a_Node000002"><a xlink:href="matrix__clone_8c.html#a664de98f31a1171b994283a70249628a" target="_top" xlink:title=" ">
<polygon fill="white" stroke="#666666" points="164,-57.25 93.25,-57.25 93.25,-38 164,-38 164,-57.25"/>
<text text-anchor="middle" x="128.62" y="-43.75" font-family="Helvetica,sans-Serif" font-size="10.00">matrix_clone</text>
</a>
</g>
</g>
<!-- Node1&#45;&gt;Node2 -->
<g id="edge1_Node000001_Node000002" class="edge">
<title>Node1&#45;&gt;Node2</title>
<g id="a_edge1_Node000001_Node000002"><a xlink:title=" ">
<path fill="none" stroke="#63b8ff" d="M57.71,-34.07C65.25,-35.53 73.61,-37.15 81.85,-38.75"/>
<polygon fill="#63b8ff" stroke="#63b8ff" points="80.94,-42.14 91.43,-40.61 82.28,-35.27 80.94,-42.14"/>
</a>
</g>
</g>
<!-- Node7 -->
<g id="Node000007" class="node">
<title>Node7</title>
<g id="a_Node000007"><a xlink:href="ray__create_8c.html#a6b37390392ea1308815dc9a65054ba3d" target="_top" xlink:title=" ">
<polygon fill="white" stroke="#666666" points="267.75,-19.25 206.75,-19.25 206.75,0 267.75,0 267.75,-19.25"/>
<text text-anchor="middle" x="237.25" y="-5.75" font-family="Helvetica,sans-Serif" font-size="10.00">ray_create</text>
</a>
</g>
</g>
<!-- Node1&#45;&gt;Node7 -->
<g id="edge6_Node000001_Node000007" class="edge">
<title>Node1&#45;&gt;Node7</title>
<g id="a_edge6_Node000001_Node000007"><a xlink:title=" ">
<path fill="none" stroke="#63b8ff" d="M57.49,-26.06C92.88,-22.81 154.25,-17.17 195.05,-13.41"/>
<polygon fill="#63b8ff" stroke="#63b8ff" points="195.34,-16.9 204.98,-12.5 194.7,-9.93 195.34,-16.9"/>
</a>
</g>
</g>
<!-- Node3 -->
<g id="Node000003" class="node">
<title>Node3</title>
<g id="a_Node000003"><a xlink:href="matrix__create_8c.html#a5291384d37d735f9c3fc33c03d2788ad" target="_top" xlink:title=" ">
<polygon fill="white" stroke="#666666" points="274.5,-56.25 200,-56.25 200,-37 274.5,-37 274.5,-56.25"/>
<text text-anchor="middle" x="237.25" y="-42.75" font-family="Helvetica,sans-Serif" font-size="10.00">matrix_create</text>
</a>
</g>
</g>
<!-- Node2&#45;&gt;Node3 -->
<g id="edge2_Node000002_Node000003" class="edge">
<title>Node2&#45;&gt;Node3</title>
<g id="a_edge2_Node000002_Node000003"><a xlink:title=" ">
<path fill="none" stroke="#63b8ff" d="M164.24,-47.3C171.93,-47.23 180.21,-47.15 188.32,-47.07"/>
<polygon fill="#63b8ff" stroke="#63b8ff" points="188.12,-50.58 198.09,-46.98 188.06,-43.58 188.12,-50.58"/>
</a>
</g>
</g>
<!-- Node4 -->
<g id="Node000004" class="node">
<title>Node4</title>
<g id="a_Node000004"><a xlink:href="free__dptr_8c.html#aaa705b6d12fb1a9a15e6103879ec0ea0" target="_top" xlink:title=" ">
<polygon fill="white" stroke="#666666" points="371.88,-56.25 317.62,-56.25 317.62,-37 371.88,-37 371.88,-56.25"/>
<text text-anchor="middle" x="344.75" y="-42.75" font-family="Helvetica,sans-Serif" font-size="10.00">free_dptr</text>
</a>
</g>
</g>
<!-- Node3&#45;&gt;Node4 -->
<g id="edge3_Node000003_Node000004" class="edge">
<title>Node3&#45;&gt;Node4</title>
<g id="a_edge3_Node000003_Node000004"><a xlink:title=" ">
<path fill="none" stroke="#63b8ff" d="M274.85,-46.62C284.86,-46.62 295.73,-46.62 305.81,-46.62"/>
<polygon fill="#63b8ff" stroke="#63b8ff" points="305.68,-50.13 315.68,-46.63 305.67,-43.13 305.68,-50.13"/>
</a>
</g>
</g>
<!-- Node5 -->
<g id="Node000005" class="node">
<title>Node5</title>
<g id="a_Node000005"><a xlink:href="safe__malloc_8c.html#ab8bcda0e59b6f8eab1bfd9f92de50c6c" target="_top" xlink:title=" ">
<polygon fill="white" stroke="#666666" points="379,-19.25 310.5,-19.25 310.5,0 379,0 379,-19.25"/>
<text text-anchor="middle" x="344.75" y="-5.75" font-family="Helvetica,sans-Serif" font-size="10.00">safe_malloc</text>
</a>
</g>
</g>
<!-- Node3&#45;&gt;Node5 -->
<g id="edge4_Node000003_Node000005" class="edge">
<title>Node3&#45;&gt;Node5</title>
<g id="a_edge4_Node000003_Node000005"><a xlink:title=" ">
<path fill="none" stroke="#63b8ff" d="M267.08,-36.51C278.59,-32.48 292.03,-27.76 304.42,-23.42"/>
<polygon fill="#63b8ff" stroke="#63b8ff" points="305.25,-26.84 313.53,-20.22 302.93,-20.23 305.25,-26.84"/>
</a>
</g>
</g>
<!-- Node6 -->
<g id="Node000006" class="node">
<title>Node6</title>
<g id="a_Node000006"><a xlink:href="LIBFT_2ft__bzero_8c.html#a5937ab0d08e31d0e3e4a16ec71e293a1" target="_top" xlink:title=" ">
<polygon fill="white" stroke="#666666" points="465.5,-19.25 415,-19.25 415,0 465.5,0 465.5,-19.25"/>
<text text-anchor="middle" x="440.25" y="-5.75" font-family="Helvetica,sans-Serif" font-size="10.00">ft_bzero</text>
</a>
</g>
</g>
<!-- Node5&#45;&gt;Node6 -->
<g id="edge5_Node000005_Node000006" class="edge">
<title>Node5&#45;&gt;Node6</title>
<g id="a_edge5_Node000005_Node000006"><a xlink:title=" ">
<path fill="none" stroke="#63b8ff" d="M379.24,-9.62C387.13,-9.62 395.56,-9.62 403.54,-9.62"/>
<polygon fill="#63b8ff" stroke="#63b8ff" points="403.28,-13.13 413.28,-9.63 403.28,-6.13 403.28,-13.13"/>
</a>
</g>
</g>
<!-- Node7&#45;&gt;Node5 -->
<g id="edge7_Node000007_Node000005" class="edge">
<title>Node7&#45;&gt;Node5</title>
<g id="a_edge7_Node000007_Node000005"><a xlink:title=" ">
<path fill="none" stroke="#63b8ff" d="M268.2,-9.62C277.67,-9.62 288.36,-9.62 298.65,-9.62"/>
<polygon fill="#63b8ff" stroke="#63b8ff" points="298.5,-13.13 308.5,-9.63 298.5,-6.13 298.5,-13.13"/>
</a>
</g>
</g>
</g>
</svg>
