<?xml version="1.0" encoding="UTF-8" standalone="no"?>
<!DOCTYPE svg PUBLIC "-//W3C//DTD SVG 1.1//EN"
 "http://www.w3.org/Graphics/SVG/1.1/DTD/svg11.dtd">
<!-- Generated by graphviz version 9.0.0 (20230911.1827)
 -->
<!-- Title: render_main Pages: 1 -->
<svg width="407pt" height="156pt"
 viewBox="0.00 0.00 407.25 156.25" xmlns="http://www.w3.org/2000/svg" xmlns:xlink="http://www.w3.org/1999/xlink">
<g id="graph0" class="graph" transform="scale(1 1) rotate(0) translate(4 152.25)">
<title>render_main</title>
<!-- Node1 -->
<g id="Node000001" class="node">
<title>Node1</title>
<g id="a_Node000001"><a xlink:title=" ">
<polygon fill="#999999" stroke="#666666" points="69.25,-56.25 0,-56.25 0,-37 69.25,-37 69.25,-56.25"/>
<text text-anchor="middle" x="34.62" y="-42.75" font-family="Helvetica,sans-Serif" font-size="10.00">render_main</text>
</a>
</g>
</g>
<!-- Node2 -->
<g id="Node000002" class="node">
<title>Node2</title>
<g id="a_Node000002"><a xlink:href="create__image_8c.html#a5870ff24682e6d8f25ff2b7ec0ecc920" target="_top" xlink:title=" ">
<polygon fill="white" stroke="#666666" points="185.75,-93.25 111.25,-93.25 111.25,-74 185.75,-74 185.75,-93.25"/>
<text text-anchor="middle" x="148.5" y="-79.75" font-family="Helvetica,sans-Serif" font-size="10.00">create_image</text>
</a>
</g>
</g>
<!-- Node1&#45;&gt;Node2 -->
<g id="edge1_Node000001_Node000002" class="edge">
<title>Node1&#45;&gt;Node2</title>
<g id="a_edge1_Node000001_Node000002"><a xlink:title=" ">
<path fill="none" stroke="#63b8ff" d="M66.2,-56.74C78.53,-60.81 92.95,-65.58 106.19,-69.96"/>
<polygon fill="#63b8ff" stroke="#63b8ff" points="104.94,-73.23 115.53,-73.05 107.13,-66.59 104.94,-73.23"/>
</a>
</g>
</g>
<!-- Node8 -->
<g id="Node000008" class="node">
<title>Node8</title>
<g id="a_Node000008"><a xlink:href="cleanup_8c.html#abe685ee14db8cb48a187ccdbedadca30" target="_top" xlink:title=" ">
<polygon fill="white" stroke="#666666" points="183.5,-56.25 113.5,-56.25 113.5,-37 183.5,-37 183.5,-56.25"/>
<text text-anchor="middle" x="148.5" y="-42.75" font-family="Helvetica,sans-Serif" font-size="10.00">handle_keys</text>
</a>
</g>
</g>
<!-- Node1&#45;&gt;Node8 -->
<g id="edge7_Node000001_Node000008" class="edge">
<title>Node1&#45;&gt;Node8</title>
<g id="a_edge7_Node000001_Node000008"><a xlink:title=" ">
<path fill="none" stroke="#63b8ff" d="M69.49,-46.62C79.7,-46.62 91.06,-46.62 101.9,-46.62"/>
<polygon fill="#63b8ff" stroke="#63b8ff" points="101.85,-50.13 111.85,-46.63 101.85,-43.13 101.85,-50.13"/>
</a>
</g>
</g>
<!-- Node9 -->
<g id="Node000009" class="node">
<title>Node9</title>
<g id="a_Node000009"><a xlink:href="cleanup_8c.html#ab1315e0ec5e8591f9dcfd84f1fdcd624" target="_top" xlink:title=" ">
<polygon fill="white" stroke="#666666" points="191.75,-19.25 105.25,-19.25 105.25,0 191.75,0 191.75,-19.25"/>
<text text-anchor="middle" x="148.5" y="-5.75" font-family="Helvetica,sans-Serif" font-size="10.00">handle_x_button</text>
</a>
</g>
</g>
<!-- Node1&#45;&gt;Node9 -->
<g id="edge8_Node000001_Node000009" class="edge">
<title>Node1&#45;&gt;Node9</title>
<g id="a_edge8_Node000001_Node000009"><a xlink:title=" ">
<path fill="none" stroke="#63b8ff" d="M66.2,-36.51C78.53,-32.44 92.95,-27.67 106.19,-23.29"/>
<polygon fill="#63b8ff" stroke="#63b8ff" points="107.13,-26.66 115.53,-20.2 104.94,-20.02 107.13,-26.66"/>
</a>
</g>
</g>
<!-- Node3 -->
<g id="Node000003" class="node">
<title>Node3</title>
<g id="a_Node000003"><a xlink:href="create__ppm_8c.html#a53e58fa0b2bc265bf63827fef5488f92" target="_top" xlink:title="This function create PPM file based on ASCII characters.">
<polygon fill="white" stroke="#666666" points="312.75,-148.25 227.75,-148.25 227.75,-129 312.75,-129 312.75,-148.25"/>
<text text-anchor="middle" x="270.25" y="-134.75" font-family="Helvetica,sans-Serif" font-size="10.00">canvas_to_ppm</text>
</a>
</g>
</g>
<!-- Node2&#45;&gt;Node3 -->
<g id="edge2_Node000002_Node000003" class="edge">
<title>Node2&#45;&gt;Node3</title>
<g id="a_edge2_Node000002_Node000003"><a xlink:title=" ">
<path fill="none" stroke="#63b8ff" d="M170.34,-93.7C186.05,-101.25 208.18,-111.76 227.75,-120.62 230.32,-121.79 232.98,-122.98 235.66,-124.17"/>
<polygon fill="#63b8ff" stroke="#63b8ff" points="233.98,-127.25 244.54,-128.06 236.79,-120.84 233.98,-127.25"/>
</a>
</g>
</g>
<!-- Node4 -->
<g id="Node000004" class="node">
<title>Node4</title>
<g id="a_Node000004"><a xlink:href="obj__render_8c.html#af31454c51253a1a45f89fed96eecb24e" target="_top" xlink:title=" ">
<polygon fill="white" stroke="#666666" points="300.75,-111.25 239.75,-111.25 239.75,-92 300.75,-92 300.75,-111.25"/>
<text text-anchor="middle" x="270.25" y="-97.75" font-family="Helvetica,sans-Serif" font-size="10.00">obj_render</text>
</a>
</g>
</g>
<!-- Node2&#45;&gt;Node4 -->
<g id="edge3_Node000002_Node000004" class="edge">
<title>Node2&#45;&gt;Node4</title>
<g id="a_edge3_Node000002_Node000004"><a xlink:title=" ">
<path fill="none" stroke="#63b8ff" d="M186.08,-89.12C199.41,-91.13 214.56,-93.4 228.24,-95.46"/>
<polygon fill="#63b8ff" stroke="#63b8ff" points="227.42,-98.88 237.82,-96.9 228.46,-91.95 227.42,-98.88"/>
</a>
</g>
</g>
<!-- Node5 -->
<g id="Node000005" class="node">
<title>Node5</title>
<g id="a_Node000005"><a xlink:href="create__image_8c.html#aecb792df82df4a862294d3c25be0f7be" target="_top" xlink:title=" ">
<polygon fill="white" stroke="#666666" points="310.5,-74.25 230,-74.25 230,-55 310.5,-55 310.5,-74.25"/>
<text text-anchor="middle" x="270.25" y="-60.75" font-family="Helvetica,sans-Serif" font-size="10.00">pixel_to_image</text>
</a>
</g>
</g>
<!-- Node2&#45;&gt;Node5 -->
<g id="edge4_Node000002_Node000005" class="edge">
<title>Node2&#45;&gt;Node5</title>
<g id="a_edge4_Node000002_Node000005"><a xlink:title=" ">
<path fill="none" stroke="#63b8ff" d="M186.08,-77.82C196.29,-76.2 207.57,-74.41 218.44,-72.69"/>
<polygon fill="#63b8ff" stroke="#63b8ff" points="218.74,-76.18 228.07,-71.16 217.64,-69.27 218.74,-76.18"/>
</a>
</g>
</g>
<!-- Node6 -->
<g id="Node000006" class="node">
<title>Node6</title>
<g id="a_Node000006"><a xlink:href="safe__malloc_8c.html#ab8bcda0e59b6f8eab1bfd9f92de50c6c" target="_top" xlink:title=" ">
<polygon fill="white" stroke="#666666" points="304.5,-37.25 236,-37.25 236,-18 304.5,-18 304.5,-37.25"/>
<text text-anchor="middle" x="270.25" y="-23.75" font-family="Helvetica,sans-Serif" font-size="10.00">safe_malloc</text>
</a>
</g>
</g>
<!-- Node2&#45;&gt;Node6 -->
<g id="edge5_Node000002_Node000006" class="edge">
<title>Node2&#45;&gt;Node6</title>
<g id="a_edge5_Node000002_Node000006"><a xlink:title=" ">
<path fill="none" stroke="#63b8ff" d="M174.27,-73.58C180.06,-71.1 186.16,-68.36 191.75,-65.62 208.19,-57.58 211.33,-53.72 227.75,-45.62 229.98,-44.52 232.3,-43.42 234.64,-42.33"/>
<polygon fill="#63b8ff" stroke="#63b8ff" points="235.87,-45.62 243.55,-38.32 232.99,-39.23 235.87,-45.62"/>
</a>
</g>
</g>
<!-- Node7 -->
<g id="Node000007" class="node">
<title>Node7</title>
<g id="a_Node000007"><a xlink:href="LIBFT_2ft__bzero_8c.html#a5937ab0d08e31d0e3e4a16ec71e293a1" target="_top" xlink:title=" ">
<polygon fill="white" stroke="#666666" points="399.25,-37.25 348.75,-37.25 348.75,-18 399.25,-18 399.25,-37.25"/>
<text text-anchor="middle" x="374" y="-23.75" font-family="Helvetica,sans-Serif" font-size="10.00">ft_bzero</text>
</a>
</g>
</g>
<!-- Node6&#45;&gt;Node7 -->
<g id="edge6_Node000006_Node000007" class="edge">
<title>Node6&#45;&gt;Node7</title>
<g id="a_edge6_Node000006_Node000007"><a xlink:title=" ">
<path fill="none" stroke="#63b8ff" d="M304.85,-27.62C315.19,-27.62 326.62,-27.62 337.12,-27.62"/>
<polygon fill="#63b8ff" stroke="#63b8ff" points="336.95,-31.13 346.95,-27.63 336.95,-24.13 336.95,-31.13"/>
</a>
</g>
</g>
</g>
</svg>
