<?xml version="1.0" encoding="UTF-8" standalone="no"?>
<!DOCTYPE svg PUBLIC "-//W3C//DTD SVG 1.1//EN"
 "http://www.w3.org/Graphics/SVG/1.1/DTD/svg11.dtd">
<!-- Generated by graphviz version 9.0.0 (20230911.1827)
 -->
<!-- Title: join_rgb_values Pages: 1 -->
<svg width="356pt" height="82pt"
 viewBox="0.00 0.00 356.25 82.25" xmlns="http://www.w3.org/2000/svg" xmlns:xlink="http://www.w3.org/1999/xlink">
<g id="graph0" class="graph" transform="scale(1 1) rotate(0) translate(4 78.25)">
<title>join_rgb_values</title>
<!-- Node1 -->
<g id="Node000001" class="node">
<title>Node1</title>
<g id="a_Node000001"><a xlink:title=" ">
<polygon fill="#999999" stroke="#666666" points="83.5,-55.25 0,-55.25 0,-36 83.5,-36 83.5,-55.25"/>
<text text-anchor="middle" x="41.75" y="-41.75" font-family="Helvetica,sans-Serif" font-size="10.00">join_rgb_values</text>
</a>
</g>
</g>
<!-- Node2 -->
<g id="Node000002" class="node">
<title>Node2</title>
<g id="a_Node000002"><a xlink:href="ft__itoa_8c.html#a8a6ea3765dfd826eabfc00d36e28ea38" target="_top" xlink:title=" ">
<polygon fill="white" stroke="#666666" points="167.75,-74.25 124.75,-74.25 124.75,-55 167.75,-55 167.75,-74.25"/>
<text text-anchor="middle" x="146.25" y="-60.75" font-family="Helvetica,sans-Serif" font-size="10.00">ft_itoa</text>
</a>
</g>
</g>
<!-- Node1&#45;&gt;Node2 -->
<g id="edge1_Node000001_Node000002" class="edge">
<title>Node1&#45;&gt;Node2</title>
<g id="a_edge1_Node000001_Node000002"><a xlink:title=" ">
<path fill="none" stroke="#63b8ff" d="M83.85,-53.24C93.64,-55.06 103.95,-56.97 113.26,-58.69"/>
<polygon fill="#63b8ff" stroke="#63b8ff" points="112.45,-62.1 122.92,-60.49 113.73,-55.22 112.45,-62.1"/>
</a>
</g>
</g>
<!-- Node3 -->
<g id="Node000003" class="node">
<title>Node3</title>
<g id="a_Node000003"><a xlink:href="ft__strjoin_8c.html#a91e6e3e428bcc9f2291b700e1829b82b" target="_top" xlink:title=" ">
<polygon fill="white" stroke="#666666" points="173,-37.25 119.5,-37.25 119.5,-18 173,-18 173,-37.25"/>
<text text-anchor="middle" x="146.25" y="-23.75" font-family="Helvetica,sans-Serif" font-size="10.00">ft_strjoin</text>
</a>
</g>
</g>
<!-- Node1&#45;&gt;Node3 -->
<g id="edge2_Node000001_Node000003" class="edge">
<title>Node1&#45;&gt;Node3</title>
<g id="a_edge2_Node000001_Node000003"><a xlink:title=" ">
<path fill="none" stroke="#63b8ff" d="M83.85,-38.41C91.86,-37 100.21,-35.53 108.08,-34.15"/>
<polygon fill="#63b8ff" stroke="#63b8ff" points="108.44,-37.64 117.68,-32.47 107.23,-30.75 108.44,-37.64"/>
</a>
</g>
</g>
<!-- Node4 -->
<g id="Node000004" class="node">
<title>Node4</title>
<g id="a_Node000004"><a xlink:href="ft__calloc_8c.html#a55cb9602200ccf92a7f43e58c6ee2679" target="_top" xlink:title=" ">
<polygon fill="white" stroke="#666666" points="261.75,-56.25 209,-56.25 209,-37 261.75,-37 261.75,-56.25"/>
<text text-anchor="middle" x="235.38" y="-42.75" font-family="Helvetica,sans-Serif" font-size="10.00">ft_calloc</text>
</a>
</g>
</g>
<!-- Node3&#45;&gt;Node4 -->
<g id="edge3_Node000003_Node000004" class="edge">
<title>Node3&#45;&gt;Node4</title>
<g id="a_edge3_Node000003_Node000004"><a xlink:title=" ">
<path fill="none" stroke="#63b8ff" d="M173.39,-33.33C180.95,-34.97 189.36,-36.81 197.45,-38.57"/>
<polygon fill="#63b8ff" stroke="#63b8ff" points="196.56,-41.96 207.07,-40.67 198.05,-35.12 196.56,-41.96"/>
</a>
</g>
</g>
<!-- Node6 -->
<g id="Node000006" class="node">
<title>Node6</title>
<g id="a_Node000006"><a xlink:href="LIBFT_2ft__strlen_8c.html#a828402378653640f545a4be2e00e92f9" target="_top" xlink:title=" ">
<polygon fill="white" stroke="#666666" points="261,-19.25 209.75,-19.25 209.75,0 261,0 261,-19.25"/>
<text text-anchor="middle" x="235.38" y="-5.75" font-family="Helvetica,sans-Serif" font-size="10.00">ft_strlen</text>
</a>
</g>
</g>
<!-- Node3&#45;&gt;Node6 -->
<g id="edge5_Node000003_Node000006" class="edge">
<title>Node3&#45;&gt;Node6</title>
<g id="a_edge5_Node000003_Node000006"><a xlink:title=" ">
<path fill="none" stroke="#63b8ff" d="M173.39,-22.22C181.25,-20.6 190.01,-18.79 198.39,-17.06"/>
<polygon fill="#63b8ff" stroke="#63b8ff" points="198.88,-20.53 207.97,-15.08 197.46,-13.68 198.88,-20.53"/>
</a>
</g>
</g>
<!-- Node5 -->
<g id="Node000005" class="node">
<title>Node5</title>
<g id="a_Node000005"><a xlink:href="LIBFT_2ft__bzero_8c.html#a5937ab0d08e31d0e3e4a16ec71e293a1" target="_top" xlink:title=" ">
<polygon fill="white" stroke="#666666" points="348.25,-56.25 297.75,-56.25 297.75,-37 348.25,-37 348.25,-56.25"/>
<text text-anchor="middle" x="323" y="-42.75" font-family="Helvetica,sans-Serif" font-size="10.00">ft_bzero</text>
</a>
</g>
</g>
<!-- Node4&#45;&gt;Node5 -->
<g id="edge4_Node000004_Node000005" class="edge">
<title>Node4&#45;&gt;Node5</title>
<g id="a_edge4_Node000004_Node000005"><a xlink:title=" ">
<path fill="none" stroke="#63b8ff" d="M262.07,-46.62C269.61,-46.62 278.01,-46.62 286.07,-46.62"/>
<polygon fill="#63b8ff" stroke="#63b8ff" points="285.99,-50.13 295.99,-46.63 285.99,-43.13 285.99,-50.13"/>
</a>
</g>
</g>
</g>
</svg>
