<?xml version="1.0" encoding="UTF-8" standalone="no"?>
<!DOCTYPE svg PUBLIC "-//W3C//DTD SVG 1.1//EN"
 "http://www.w3.org/Graphics/SVG/1.1/DTD/svg11.dtd">
<!-- Generated by graphviz version 9.0.0 (20230911.1827)
 -->
<!-- Title: /github/workspace/SRC/CORE/RENDER/render.c Pages: 1 -->
<svg width="336pt" height="204pt"
 viewBox="0.00 0.00 335.75 204.25" xmlns="http://www.w3.org/2000/svg" xmlns:xlink="http://www.w3.org/1999/xlink">
<g id="graph0" class="graph" transform="scale(1 1) rotate(0) translate(4 200.25)">
<title>/github/workspace/SRC/CORE/RENDER/render.c</title>
<!-- Node1 -->
<g id="Node000001" class="node">
<title>Node1</title>
<g id="a_Node000001"><a xlink:title=" ">
<polygon fill="#999999" stroke="#666666" points="270.62,-196.25 144.38,-196.25 144.38,-165.75 270.62,-165.75 270.62,-196.25"/>
<text text-anchor="start" x="152.38" y="-182.75" font-family="Helvetica,sans-Serif" font-size="10.00">/github/workspace/SRC</text>
<text text-anchor="middle" x="207.5" y="-171.5" font-family="Helvetica,sans-Serif" font-size="10.00">/CORE/RENDER/render.c</text>
</a>
</g>
</g>
<!-- Node2 -->
<g id="Node000002" class="node">
<title>Node2</title>
<g id="a_Node000002"><a xlink:href="core__render_8h.html" target="_top" xlink:title=" ">
<polygon fill="white" stroke="#666666" points="108.75,-129.75 34.25,-129.75 34.25,-110.5 108.75,-110.5 108.75,-129.75"/>
<text text-anchor="middle" x="71.5" y="-116.25" font-family="Helvetica,sans-Serif" font-size="10.00">core_render.h</text>
</a>
</g>
</g>
<!-- Node1&#45;&gt;Node2 -->
<g id="edge1_Node000001_Node000002" class="edge">
<title>Node1&#45;&gt;Node2</title>
<g id="a_edge1_Node000001_Node000002"><a xlink:title=" ">
<path fill="none" stroke="#63b8ff" d="M173.53,-165.3C151.83,-155.9 123.88,-143.8 102.73,-134.64"/>
<polygon fill="#63b8ff" stroke="#63b8ff" points="104.31,-131.52 93.75,-130.76 101.53,-137.94 104.31,-131.52"/>
</a>
</g>
</g>
<!-- Node8 -->
<g id="Node000008" class="node">
<title>Node8</title>
<g id="a_Node000008"><a xlink:href="core__cleanup_8h.html" target="_top" xlink:title=" ">
<polygon fill="white" stroke="#666666" points="208.12,-129.75 126.88,-129.75 126.88,-110.5 208.12,-110.5 208.12,-129.75"/>
<text text-anchor="middle" x="167.5" y="-116.25" font-family="Helvetica,sans-Serif" font-size="10.00">core_cleanup.h</text>
</a>
</g>
</g>
<!-- Node1&#45;&gt;Node8 -->
<g id="edge7_Node000001_Node000008" class="edge">
<title>Node1&#45;&gt;Node8</title>
<g id="a_edge7_Node000001_Node000008"><a xlink:title=" ">
<path fill="none" stroke="#63b8ff" d="M197.61,-165.45C192.28,-157.6 185.65,-147.85 179.97,-139.49"/>
<polygon fill="#63b8ff" stroke="#63b8ff" points="183.03,-137.76 174.52,-131.45 177.24,-141.69 183.03,-137.76"/>
</a>
</g>
</g>
<!-- Node10 -->
<g id="Node000010" class="node">
<title>Node10</title>
<g id="a_Node000010"><a xlink:title=" ">
<polygon fill="#e0e0e0" stroke="#999999" points="270.75,-129.75 226.25,-129.75 226.25,-110.5 270.75,-110.5 270.75,-129.75"/>
<text text-anchor="middle" x="248.5" y="-116.25" font-family="Helvetica,sans-Serif" font-size="10.00">stdio.h</text>
</a>
</g>
</g>
<!-- Node1&#45;&gt;Node10 -->
<g id="edge10_Node000001_Node000010" class="edge">
<title>Node1&#45;&gt;Node10</title>
<g id="a_edge10_Node000001_Node000010"><a xlink:title=" ">
<path fill="none" stroke="#63b8ff" d="M217.63,-165.45C223.1,-157.6 229.89,-147.85 235.71,-139.49"/>
<polygon fill="#63b8ff" stroke="#63b8ff" points="238.47,-141.65 241.31,-131.44 232.73,-137.65 238.47,-141.65"/>
</a>
</g>
</g>
<!-- Node11 -->
<g id="Node000011" class="node">
<title>Node11</title>
<g id="a_Node000011"><a xlink:title=" ">
<polygon fill="#e0e0e0" stroke="#999999" points="327.75,-129.75 289.25,-129.75 289.25,-110.5 327.75,-110.5 327.75,-129.75"/>
<text text-anchor="middle" x="308.5" y="-116.25" font-family="Helvetica,sans-Serif" font-size="10.00">mlx.h</text>
</a>
</g>
</g>
<!-- Node1&#45;&gt;Node11 -->
<g id="edge11_Node000001_Node000011" class="edge">
<title>Node1&#45;&gt;Node11</title>
<g id="a_edge11_Node000001_Node000011"><a xlink:title=" ">
<path fill="none" stroke="#63b8ff" d="M232.73,-165.3C248.11,-156.33 267.7,-144.91 283.11,-135.92"/>
<polygon fill="#63b8ff" stroke="#63b8ff" points="284.83,-138.98 291.7,-130.92 281.3,-132.93 284.83,-138.98"/>
</a>
</g>
</g>
<!-- Node3 -->
<g id="Node000003" class="node">
<title>Node3</title>
<g id="a_Node000003"><a xlink:href="types_8h.html" target="_top" xlink:title=" ">
<polygon fill="white" stroke="#666666" points="143.88,-74.5 97.12,-74.5 97.12,-55.25 143.88,-55.25 143.88,-74.5"/>
<text text-anchor="middle" x="120.5" y="-61" font-family="Helvetica,sans-Serif" font-size="10.00">types.h</text>
</a>
</g>
</g>
<!-- Node2&#45;&gt;Node3 -->
<g id="edge2_Node000002_Node000003" class="edge">
<title>Node2&#45;&gt;Node3</title>
<g id="a_edge2_Node000002_Node000003"><a xlink:title=" ">
<path fill="none" stroke="#63b8ff" d="M79.59,-110.33C86.36,-102.98 96.22,-92.26 104.56,-83.19"/>
<polygon fill="#63b8ff" stroke="#63b8ff" points="107.01,-85.7 111.21,-75.97 101.86,-80.96 107.01,-85.7"/>
</a>
</g>
</g>
<!-- Node7 -->
<g id="Node000007" class="node">
<title>Node7</title>
<g id="a_Node000007"><a xlink:href="window__size_8h.html" target="_top" xlink:title=" ">
<polygon fill="white" stroke="#666666" points="79,-74.5 0,-74.5 0,-55.25 79,-55.25 79,-74.5"/>
<text text-anchor="middle" x="39.5" y="-61" font-family="Helvetica,sans-Serif" font-size="10.00">window_size.h</text>
</a>
</g>
</g>
<!-- Node2&#45;&gt;Node7 -->
<g id="edge6_Node000002_Node000007" class="edge">
<title>Node2&#45;&gt;Node7</title>
<g id="a_edge6_Node000002_Node000007"><a xlink:title=" ">
<path fill="none" stroke="#63b8ff" d="M66.22,-110.33C62.03,-103.36 56.02,-93.37 50.77,-84.62"/>
<polygon fill="#63b8ff" stroke="#63b8ff" points="53.83,-82.93 45.68,-76.16 47.83,-86.53 53.83,-82.93"/>
</a>
</g>
</g>
<!-- Node4 -->
<g id="Node000004" class="node">
<title>Node4</title>
<g id="a_Node000004"><a xlink:title=" ">
<polygon fill="#e0e0e0" stroke="#999999" points="79,-19.25 24,-19.25 24,0 79,0 79,-19.25"/>
<text text-anchor="middle" x="51.5" y="-5.75" font-family="Helvetica,sans-Serif" font-size="10.00">stdbool.h</text>
</a>
</g>
</g>
<!-- Node3&#45;&gt;Node4 -->
<g id="edge3_Node000003_Node000004" class="edge">
<title>Node3&#45;&gt;Node4</title>
<g id="a_edge3_Node000003_Node000004"><a xlink:title=" ">
<path fill="none" stroke="#63b8ff" d="M108.8,-54.84C98.72,-47.07 83.96,-35.67 71.94,-26.4"/>
<polygon fill="#63b8ff" stroke="#63b8ff" points="74.29,-23.79 64.23,-20.45 70.01,-29.33 74.29,-23.79"/>
</a>
</g>
</g>
<!-- Node5 -->
<g id="Node000005" class="node">
<title>Node5</title>
<g id="a_Node000005"><a xlink:title=" ">
<polygon fill="#e0e0e0" stroke="#999999" points="143.88,-19.25 97.12,-19.25 97.12,0 143.88,0 143.88,-19.25"/>
<text text-anchor="middle" x="120.5" y="-5.75" font-family="Helvetica,sans-Serif" font-size="10.00">stdlib.h</text>
</a>
</g>
</g>
<!-- Node3&#45;&gt;Node5 -->
<g id="edge4_Node000003_Node000005" class="edge">
<title>Node3&#45;&gt;Node5</title>
<g id="a_edge4_Node000003_Node000005"><a xlink:title=" ">
<path fill="none" stroke="#63b8ff" d="M120.5,-55.08C120.5,-48.57 120.5,-39.42 120.5,-31.12"/>
<polygon fill="#63b8ff" stroke="#63b8ff" points="124,-31.12 120.5,-21.12 117,-31.12 124,-31.12"/>
</a>
</g>
</g>
<!-- Node6 -->
<g id="Node000006" class="node">
<title>Node6</title>
<g id="a_Node000006"><a xlink:title=" ">
<polygon fill="#e0e0e0" stroke="#999999" points="208.88,-19.25 162.12,-19.25 162.12,0 208.88,0 208.88,-19.25"/>
<text text-anchor="middle" x="185.5" y="-5.75" font-family="Helvetica,sans-Serif" font-size="10.00">limits.h</text>
</a>
</g>
</g>
<!-- Node3&#45;&gt;Node6 -->
<g id="edge5_Node000003_Node000006" class="edge">
<title>Node3&#45;&gt;Node6</title>
<g id="a_edge5_Node000003_Node000006"><a xlink:title=" ">
<path fill="none" stroke="#63b8ff" d="M131.53,-54.84C140.92,-47.15 154.65,-35.9 165.91,-26.68"/>
<polygon fill="#63b8ff" stroke="#63b8ff" points="167.95,-29.53 173.47,-20.48 163.51,-24.11 167.95,-29.53"/>
</a>
</g>
</g>
<!-- Node8&#45;&gt;Node3 -->
<g id="edge9_Node000008_Node000003" class="edge">
<title>Node8&#45;&gt;Node3</title>
<g id="a_edge9_Node000008_Node000003"><a xlink:title=" ">
<path fill="none" stroke="#63b8ff" d="M159.74,-110.33C153.31,-103.05 143.99,-92.48 136.04,-83.48"/>
<polygon fill="#63b8ff" stroke="#63b8ff" points="138.67,-81.18 129.43,-75.99 133.42,-85.81 138.67,-81.18"/>
</a>
</g>
</g>
<!-- Node9 -->
<g id="Node000009" class="node">
<title>Node9</title>
<g id="a_Node000009"><a xlink:title=" ">
<polygon fill="#e0e0e0" stroke="#999999" points="238.88,-74.5 162.12,-74.5 162.12,-55.25 238.88,-55.25 238.88,-74.5"/>
<text text-anchor="middle" x="200.5" y="-61" font-family="Helvetica,sans-Serif" font-size="10.00">X11/keysym.h</text>
</a>
</g>
</g>
<!-- Node8&#45;&gt;Node9 -->
<g id="edge8_Node000008_Node000009" class="edge">
<title>Node8&#45;&gt;Node9</title>
<g id="a_edge8_Node000008_Node000009"><a xlink:title=" ">
<path fill="none" stroke="#63b8ff" d="M172.95,-110.33C177.27,-103.36 183.46,-93.37 188.88,-84.62"/>
<polygon fill="#63b8ff" stroke="#63b8ff" points="191.84,-86.49 194.14,-76.15 185.89,-82.8 191.84,-86.49"/>
</a>
</g>
</g>
</g>
</svg>
