<?xml version="1.0" encoding="UTF-8" standalone="no"?>
<!DOCTYPE svg PUBLIC "-//W3C//DTD SVG 1.1//EN"
 "http://www.w3.org/Graphics/SVG/1.1/DTD/svg11.dtd">
<!-- Generated by graphviz version 9.0.0 (20230911.1827)
 -->
<!-- Title: rotation_x Pages: 1 -->
<svg width="482pt" height="64pt"
 viewBox="0.00 0.00 481.75 64.25" xmlns="http://www.w3.org/2000/svg" xmlns:xlink="http://www.w3.org/1999/xlink">
<g id="graph0" class="graph" transform="scale(1 1) rotate(0) translate(4 60.25)">
<title>rotation_x</title>
<!-- Node1 -->
<g id="Node000001" class="node">
<title>Node1</title>
<g id="a_Node000001"><a xlink:title="Creates a 4x4 rotation matrix around the X axis (left/right)">
<polygon fill="#999999" stroke="#666666" points="58,-37.25 0,-37.25 0,-18 58,-18 58,-37.25"/>
<text text-anchor="middle" x="29" y="-23.75" font-family="Helvetica,sans-Serif" font-size="10.00">rotation_x</text>
</a>
</g>
</g>
<!-- Node2 -->
<g id="Node000002" class="node">
<title>Node2</title>
<g id="a_Node000002"><a xlink:href="matrix__identity_8c.html#a841c87975e3b38adb536d63ec35456e5" target="_top" xlink:title="Function that creates an identity matrix of size n 1 0 0 0 0 1 0 0 0 0 1 0 0 0 0 1.">
<polygon fill="white" stroke="#666666" points="172.25,-37.25 94,-37.25 94,-18 172.25,-18 172.25,-37.25"/>
<text text-anchor="middle" x="133.12" y="-23.75" font-family="Helvetica,sans-Serif" font-size="10.00">matrix_identity</text>
</a>
</g>
</g>
<!-- Node1&#45;&gt;Node2 -->
<g id="edge1_Node000001_Node000002" class="edge">
<title>Node1&#45;&gt;Node2</title>
<g id="a_edge1_Node000001_Node000002"><a xlink:title=" ">
<path fill="none" stroke="#63b8ff" d="M58.45,-27.62C65.83,-27.62 74,-27.62 82.13,-27.62"/>
<polygon fill="#63b8ff" stroke="#63b8ff" points="82.01,-31.13 92.01,-27.63 82.01,-24.13 82.01,-31.13"/>
</a>
</g>
</g>
<!-- Node3 -->
<g id="Node000003" class="node">
<title>Node3</title>
<g id="a_Node000003"><a xlink:href="matrix__create_8c.html#a5291384d37d735f9c3fc33c03d2788ad" target="_top" xlink:title=" ">
<polygon fill="white" stroke="#666666" points="282.75,-37.25 208.25,-37.25 208.25,-18 282.75,-18 282.75,-37.25"/>
<text text-anchor="middle" x="245.5" y="-23.75" font-family="Helvetica,sans-Serif" font-size="10.00">matrix_create</text>
</a>
</g>
</g>
<!-- Node2&#45;&gt;Node3 -->
<g id="edge2_Node000002_Node000003" class="edge">
<title>Node2&#45;&gt;Node3</title>
<g id="a_edge2_Node000002_Node000003"><a xlink:title=" ">
<path fill="none" stroke="#63b8ff" d="M172.73,-27.62C180.41,-27.62 188.57,-27.62 196.53,-27.62"/>
<polygon fill="#63b8ff" stroke="#63b8ff" points="196.44,-31.13 206.44,-27.63 196.44,-24.13 196.44,-31.13"/>
</a>
</g>
</g>
<!-- Node4 -->
<g id="Node000004" class="node">
<title>Node4</title>
<g id="a_Node000004"><a xlink:href="free__dptr_8c.html#aaa705b6d12fb1a9a15e6103879ec0ea0" target="_top" xlink:title=" ">
<polygon fill="white" stroke="#666666" points="380.12,-56.25 325.88,-56.25 325.88,-37 380.12,-37 380.12,-56.25"/>
<text text-anchor="middle" x="353" y="-42.75" font-family="Helvetica,sans-Serif" font-size="10.00">free_dptr</text>
</a>
</g>
</g>
<!-- Node3&#45;&gt;Node4 -->
<g id="edge3_Node000003_Node000004" class="edge">
<title>Node3&#45;&gt;Node4</title>
<g id="a_edge3_Node000003_Node000004"><a xlink:title=" ">
<path fill="none" stroke="#63b8ff" d="M283.1,-34.22C293.22,-36.04 304.22,-38.02 314.39,-39.85"/>
<polygon fill="#63b8ff" stroke="#63b8ff" points="313.49,-43.25 323.95,-41.57 314.73,-36.36 313.49,-43.25"/>
</a>
</g>
</g>
<!-- Node5 -->
<g id="Node000005" class="node">
<title>Node5</title>
<g id="a_Node000005"><a xlink:href="safe__malloc_8c.html#ab8bcda0e59b6f8eab1bfd9f92de50c6c" target="_top" xlink:title=" ">
<polygon fill="white" stroke="#666666" points="387.25,-19.25 318.75,-19.25 318.75,0 387.25,0 387.25,-19.25"/>
<text text-anchor="middle" x="353" y="-5.75" font-family="Helvetica,sans-Serif" font-size="10.00">safe_malloc</text>
</a>
</g>
</g>
<!-- Node3&#45;&gt;Node5 -->
<g id="edge4_Node000003_Node000005" class="edge">
<title>Node3&#45;&gt;Node5</title>
<g id="a_edge4_Node000003_Node000005"><a xlink:title=" ">
<path fill="none" stroke="#63b8ff" d="M283.1,-21.38C290.87,-20.05 299.15,-18.64 307.18,-17.27"/>
<polygon fill="#63b8ff" stroke="#63b8ff" points="307.53,-20.76 316.8,-15.63 306.35,-13.86 307.53,-20.76"/>
</a>
</g>
</g>
<!-- Node6 -->
<g id="Node000006" class="node">
<title>Node6</title>
<g id="a_Node000006"><a xlink:href="LIBFT_2ft__bzero_8c.html#a5937ab0d08e31d0e3e4a16ec71e293a1" target="_top" xlink:title=" ">
<polygon fill="white" stroke="#666666" points="473.75,-19.25 423.25,-19.25 423.25,0 473.75,0 473.75,-19.25"/>
<text text-anchor="middle" x="448.5" y="-5.75" font-family="Helvetica,sans-Serif" font-size="10.00">ft_bzero</text>
</a>
</g>
</g>
<!-- Node5&#45;&gt;Node6 -->
<g id="edge5_Node000005_Node000006" class="edge">
<title>Node5&#45;&gt;Node6</title>
<g id="a_edge5_Node000005_Node000006"><a xlink:title=" ">
<path fill="none" stroke="#63b8ff" d="M387.49,-9.62C395.38,-9.62 403.81,-9.62 411.79,-9.62"/>
<polygon fill="#63b8ff" stroke="#63b8ff" points="411.53,-13.13 421.53,-9.63 411.53,-6.13 411.53,-13.13"/>
</a>
</g>
</g>
</g>
</svg>
