<?xml version="1.0" encoding="UTF-8" standalone="no"?>
<!DOCTYPE svg PUBLIC "-//W3C//DTD SVG 1.1//EN"
 "http://www.w3.org/Graphics/SVG/1.1/DTD/svg11.dtd">
<!-- Generated by graphviz version 9.0.0 (20230911.1827)
 -->
<!-- Title: object_scaling Pages: 1 -->
<svg width="502pt" height="64pt"
 viewBox="0.00 0.00 502.00 64.25" xmlns="http://www.w3.org/2000/svg" xmlns:xlink="http://www.w3.org/1999/xlink">
<g id="graph0" class="graph" transform="scale(1 1) rotate(0) translate(4 60.25)">
<title>object_scaling</title>
<!-- Node1 -->
<g id="Node000001" class="node">
<title>Node1</title>
<g id="a_Node000001"><a xlink:title=" ">
<polygon fill="#999999" stroke="#666666" points="78.25,-37.25 0,-37.25 0,-18 78.25,-18 78.25,-37.25"/>
<text text-anchor="middle" x="39.12" y="-23.75" font-family="Helvetica,sans-Serif" font-size="10.00">object_scaling</text>
</a>
</g>
</g>
<!-- Node2 -->
<g id="Node000002" class="node">
<title>Node2</title>
<g id="a_Node000002"><a xlink:href="matrix__identity_8c.html#a841c87975e3b38adb536d63ec35456e5" target="_top" xlink:title="Function that creates an identity matrix of size n 1 0 0 0 0 1 0 0 0 0 1 0 0 0 0 1.">
<polygon fill="white" stroke="#666666" points="192.5,-37.25 114.25,-37.25 114.25,-18 192.5,-18 192.5,-37.25"/>
<text text-anchor="middle" x="153.38" y="-23.75" font-family="Helvetica,sans-Serif" font-size="10.00">matrix_identity</text>
</a>
</g>
</g>
<!-- Node1&#45;&gt;Node2 -->
<g id="edge1_Node000001_Node000002" class="edge">
<title>Node1&#45;&gt;Node2</title>
<g id="a_edge1_Node000001_Node000002"><a xlink:title=" ">
<path fill="none" stroke="#63b8ff" d="M78.44,-27.62C86.21,-27.62 94.49,-27.62 102.59,-27.62"/>
<polygon fill="#63b8ff" stroke="#63b8ff" points="102.34,-31.13 112.34,-27.63 102.34,-24.13 102.34,-31.13"/>
</a>
</g>
</g>
<!-- Node3 -->
<g id="Node000003" class="node">
<title>Node3</title>
<g id="a_Node000003"><a xlink:href="matrix__create_8c.html#a5291384d37d735f9c3fc33c03d2788ad" target="_top" xlink:title=" ">
<polygon fill="white" stroke="#666666" points="303,-37.25 228.5,-37.25 228.5,-18 303,-18 303,-37.25"/>
<text text-anchor="middle" x="265.75" y="-23.75" font-family="Helvetica,sans-Serif" font-size="10.00">matrix_create</text>
</a>
</g>
</g>
<!-- Node2&#45;&gt;Node3 -->
<g id="edge2_Node000002_Node000003" class="edge">
<title>Node2&#45;&gt;Node3</title>
<g id="a_edge2_Node000002_Node000003"><a xlink:title=" ">
<path fill="none" stroke="#63b8ff" d="M192.98,-27.62C200.66,-27.62 208.82,-27.62 216.78,-27.62"/>
<polygon fill="#63b8ff" stroke="#63b8ff" points="216.69,-31.13 226.69,-27.63 216.69,-24.13 216.69,-31.13"/>
</a>
</g>
</g>
<!-- Node4 -->
<g id="Node000004" class="node">
<title>Node4</title>
<g id="a_Node000004"><a xlink:href="free__dptr_8c.html#aaa705b6d12fb1a9a15e6103879ec0ea0" target="_top" xlink:title=" ">
<polygon fill="white" stroke="#666666" points="400.38,-56.25 346.12,-56.25 346.12,-37 400.38,-37 400.38,-56.25"/>
<text text-anchor="middle" x="373.25" y="-42.75" font-family="Helvetica,sans-Serif" font-size="10.00">free_dptr</text>
</a>
</g>
</g>
<!-- Node3&#45;&gt;Node4 -->
<g id="edge3_Node000003_Node000004" class="edge">
<title>Node3&#45;&gt;Node4</title>
<g id="a_edge3_Node000003_Node000004"><a xlink:title=" ">
<path fill="none" stroke="#63b8ff" d="M303.35,-34.22C313.47,-36.04 324.47,-38.02 334.64,-39.85"/>
<polygon fill="#63b8ff" stroke="#63b8ff" points="333.74,-43.25 344.2,-41.57 334.98,-36.36 333.74,-43.25"/>
</a>
</g>
</g>
<!-- Node5 -->
<g id="Node000005" class="node">
<title>Node5</title>
<g id="a_Node000005"><a xlink:href="safe__malloc_8c.html#ab8bcda0e59b6f8eab1bfd9f92de50c6c" target="_top" xlink:title=" ">
<polygon fill="white" stroke="#666666" points="407.5,-19.25 339,-19.25 339,0 407.5,0 407.5,-19.25"/>
<text text-anchor="middle" x="373.25" y="-5.75" font-family="Helvetica,sans-Serif" font-size="10.00">safe_malloc</text>
</a>
</g>
</g>
<!-- Node3&#45;&gt;Node5 -->
<g id="edge4_Node000003_Node000005" class="edge">
<title>Node3&#45;&gt;Node5</title>
<g id="a_edge4_Node000003_Node000005"><a xlink:title=" ">
<path fill="none" stroke="#63b8ff" d="M303.35,-21.38C311.12,-20.05 319.4,-18.64 327.43,-17.27"/>
<polygon fill="#63b8ff" stroke="#63b8ff" points="327.78,-20.76 337.05,-15.63 326.6,-13.86 327.78,-20.76"/>
</a>
</g>
</g>
<!-- Node6 -->
<g id="Node000006" class="node">
<title>Node6</title>
<g id="a_Node000006"><a xlink:href="LIBFT_2ft__bzero_8c.html#a5937ab0d08e31d0e3e4a16ec71e293a1" target="_top" xlink:title=" ">
<polygon fill="white" stroke="#666666" points="494,-19.25 443.5,-19.25 443.5,0 494,0 494,-19.25"/>
<text text-anchor="middle" x="468.75" y="-5.75" font-family="Helvetica,sans-Serif" font-size="10.00">ft_bzero</text>
</a>
</g>
</g>
<!-- Node5&#45;&gt;Node6 -->
<g id="edge5_Node000005_Node000006" class="edge">
<title>Node5&#45;&gt;Node6</title>
<g id="a_edge5_Node000005_Node000006"><a xlink:title=" ">
<path fill="none" stroke="#63b8ff" d="M407.74,-9.62C415.63,-9.62 424.06,-9.62 432.04,-9.62"/>
<polygon fill="#63b8ff" stroke="#63b8ff" points="431.78,-13.13 441.78,-9.63 431.78,-6.13 431.78,-13.13"/>
</a>
</g>
</g>
</g>
</svg>
