<?xml version="1.0" encoding="UTF-8" standalone="no"?>
<!DOCTYPE svg PUBLIC "-//W3C//DTD SVG 1.1//EN"
 "http://www.w3.org/Graphics/SVG/1.1/DTD/svg11.dtd">
<!-- Generated by graphviz version 9.0.0 (20230911.1827)
 -->
<!-- Title: shearing Pages: 1 -->
<svg width="477pt" height="64pt"
 viewBox="0.00 0.00 476.50 64.25" xmlns="http://www.w3.org/2000/svg" xmlns:xlink="http://www.w3.org/1999/xlink">
<g id="graph0" class="graph" transform="scale(1 1) rotate(0) translate(4 60.25)">
<title>shearing</title>
<!-- Node1 -->
<g id="Node000001" class="node">
<title>Node1</title>
<g id="a_Node000001"><a xlink:title="This function is used to shear given objects.">
<polygon fill="#999999" stroke="#666666" points="52.75,-37.25 0,-37.25 0,-18 52.75,-18 52.75,-37.25"/>
<text text-anchor="middle" x="26.38" y="-23.75" font-family="Helvetica,sans-Serif" font-size="10.00">shearing</text>
</a>
</g>
</g>
<!-- Node2 -->
<g id="Node000002" class="node">
<title>Node2</title>
<g id="a_Node000002"><a xlink:href="matrix__identity_8c.html#a841c87975e3b38adb536d63ec35456e5" target="_top" xlink:title="Function that creates an identity matrix of size n 1 0 0 0 0 1 0 0 0 0 1 0 0 0 0 1.">
<polygon fill="white" stroke="#666666" points="167,-37.25 88.75,-37.25 88.75,-18 167,-18 167,-37.25"/>
<text text-anchor="middle" x="127.88" y="-23.75" font-family="Helvetica,sans-Serif" font-size="10.00">matrix_identity</text>
</a>
</g>
</g>
<!-- Node1&#45;&gt;Node2 -->
<g id="edge1_Node000001_Node000002" class="edge">
<title>Node1&#45;&gt;Node2</title>
<g id="a_edge1_Node000001_Node000002"><a xlink:title=" ">
<path fill="none" stroke="#63b8ff" d="M53,-27.62C60.44,-27.62 68.83,-27.62 77.22,-27.62"/>
<polygon fill="#63b8ff" stroke="#63b8ff" points="77.06,-31.13 87.06,-27.63 77.06,-24.13 77.06,-31.13"/>
</a>
</g>
</g>
<!-- Node3 -->
<g id="Node000003" class="node">
<title>Node3</title>
<g id="a_Node000003"><a xlink:href="matrix__create_8c.html#a5291384d37d735f9c3fc33c03d2788ad" target="_top" xlink:title=" ">
<polygon fill="white" stroke="#666666" points="277.5,-37.25 203,-37.25 203,-18 277.5,-18 277.5,-37.25"/>
<text text-anchor="middle" x="240.25" y="-23.75" font-family="Helvetica,sans-Serif" font-size="10.00">matrix_create</text>
</a>
</g>
</g>
<!-- Node2&#45;&gt;Node3 -->
<g id="edge2_Node000002_Node000003" class="edge">
<title>Node2&#45;&gt;Node3</title>
<g id="a_edge2_Node000002_Node000003"><a xlink:title=" ">
<path fill="none" stroke="#63b8ff" d="M167.48,-27.62C175.16,-27.62 183.32,-27.62 191.28,-27.62"/>
<polygon fill="#63b8ff" stroke="#63b8ff" points="191.19,-31.13 201.19,-27.63 191.19,-24.13 191.19,-31.13"/>
</a>
</g>
</g>
<!-- Node4 -->
<g id="Node000004" class="node">
<title>Node4</title>
<g id="a_Node000004"><a xlink:href="free__dptr_8c.html#aaa705b6d12fb1a9a15e6103879ec0ea0" target="_top" xlink:title=" ">
<polygon fill="white" stroke="#666666" points="374.88,-56.25 320.62,-56.25 320.62,-37 374.88,-37 374.88,-56.25"/>
<text text-anchor="middle" x="347.75" y="-42.75" font-family="Helvetica,sans-Serif" font-size="10.00">free_dptr</text>
</a>
</g>
</g>
<!-- Node3&#45;&gt;Node4 -->
<g id="edge3_Node000003_Node000004" class="edge">
<title>Node3&#45;&gt;Node4</title>
<g id="a_edge3_Node000003_Node000004"><a xlink:title=" ">
<path fill="none" stroke="#63b8ff" d="M277.85,-34.22C287.97,-36.04 298.97,-38.02 309.14,-39.85"/>
<polygon fill="#63b8ff" stroke="#63b8ff" points="308.24,-43.25 318.7,-41.57 309.48,-36.36 308.24,-43.25"/>
</a>
</g>
</g>
<!-- Node5 -->
<g id="Node000005" class="node">
<title>Node5</title>
<g id="a_Node000005"><a xlink:href="safe__malloc_8c.html#ab8bcda0e59b6f8eab1bfd9f92de50c6c" target="_top" xlink:title=" ">
<polygon fill="white" stroke="#666666" points="382,-19.25 313.5,-19.25 313.5,0 382,0 382,-19.25"/>
<text text-anchor="middle" x="347.75" y="-5.75" font-family="Helvetica,sans-Serif" font-size="10.00">safe_malloc</text>
</a>
</g>
</g>
<!-- Node3&#45;&gt;Node5 -->
<g id="edge4_Node000003_Node000005" class="edge">
<title>Node3&#45;&gt;Node5</title>
<g id="a_edge4_Node000003_Node000005"><a xlink:title=" ">
<path fill="none" stroke="#63b8ff" d="M277.85,-21.38C285.62,-20.05 293.9,-18.64 301.93,-17.27"/>
<polygon fill="#63b8ff" stroke="#63b8ff" points="302.28,-20.76 311.55,-15.63 301.1,-13.86 302.28,-20.76"/>
</a>
</g>
</g>
<!-- Node6 -->
<g id="Node000006" class="node">
<title>Node6</title>
<g id="a_Node000006"><a xlink:href="LIBFT_2ft__bzero_8c.html#a5937ab0d08e31d0e3e4a16ec71e293a1" target="_top" xlink:title=" ">
<polygon fill="white" stroke="#666666" points="468.5,-19.25 418,-19.25 418,0 468.5,0 468.5,-19.25"/>
<text text-anchor="middle" x="443.25" y="-5.75" font-family="Helvetica,sans-Serif" font-size="10.00">ft_bzero</text>
</a>
</g>
</g>
<!-- Node5&#45;&gt;Node6 -->
<g id="edge5_Node000005_Node000006" class="edge">
<title>Node5&#45;&gt;Node6</title>
<g id="a_edge5_Node000005_Node000006"><a xlink:title=" ">
<path fill="none" stroke="#63b8ff" d="M382.24,-9.62C390.13,-9.62 398.56,-9.62 406.54,-9.62"/>
<polygon fill="#63b8ff" stroke="#63b8ff" points="406.28,-13.13 416.28,-9.63 406.28,-6.13 406.28,-13.13"/>
</a>
</g>
</g>
</g>
</svg>
