<?xml version="1.0" encoding="UTF-8" standalone="no"?>
<!DOCTYPE svg PUBLIC "-//W3C//DTD SVG 1.1//EN"
 "http://www.w3.org/Graphics/SVG/1.1/DTD/svg11.dtd">
<!-- Generated by graphviz version 9.0.0 (20230911.1827)
 -->
<!-- Title: /github/workspace/SRC/OBJECTS/SPHERE/sphere_free.c Pages: 1 -->
<svg width="253pt" height="216pt"
 viewBox="0.00 0.00 253.00 215.50" xmlns="http://www.w3.org/2000/svg" xmlns:xlink="http://www.w3.org/1999/xlink">
<g id="graph0" class="graph" transform="scale(1 1) rotate(0) translate(4 211.5)">
<title>/github/workspace/SRC/OBJECTS/SPHERE/sphere_free.c</title>
<!-- Node1 -->
<g id="Node000001" class="node">
<title>Node1</title>
<g id="a_Node000001"><a xlink:title=" ">
<polygon fill="#999999" stroke="#666666" points="164.88,-207.5 25.88,-207.5 25.88,-165.75 164.88,-165.75 164.88,-207.5"/>
<text text-anchor="start" x="33.88" y="-194" font-family="Helvetica,sans-Serif" font-size="10.00">/github/workspace/SRC</text>
<text text-anchor="start" x="33.88" y="-182.75" font-family="Helvetica,sans-Serif" font-size="10.00">/OBJECTS/SPHERE/sphere</text>
<text text-anchor="middle" x="95.38" y="-171.5" font-family="Helvetica,sans-Serif" font-size="10.00">_free.c</text>
</a>
</g>
</g>
<!-- Node2 -->
<g id="Node000002" class="node">
<title>Node2</title>
<g id="a_Node000002"><a xlink:title=" ">
<polygon fill="#e0e0e0" stroke="#999999" points="46.75,-19.25 0,-19.25 0,0 46.75,0 46.75,-19.25"/>
<text text-anchor="middle" x="23.38" y="-5.75" font-family="Helvetica,sans-Serif" font-size="10.00">stdlib.h</text>
</a>
</g>
</g>
<!-- Node1&#45;&gt;Node2 -->
<g id="edge1_Node000001_Node000002" class="edge">
<title>Node1&#45;&gt;Node2</title>
<g id="a_edge1_Node000001_Node000002"><a xlink:title=" ">
<path fill="none" stroke="#63b8ff" d="M69.7,-165.33C59.24,-155.68 48.07,-143.29 41.38,-129.75 25.58,-97.8 22.84,-55.61 22.77,-30.97"/>
<polygon fill="#63b8ff" stroke="#63b8ff" points="26.27,-31.1 22.91,-21.05 19.27,-31 26.27,-31.1"/>
</a>
</g>
</g>
<!-- Node3 -->
<g id="Node000003" class="node">
<title>Node3</title>
<g id="a_Node000003"><a xlink:href="objects__sphere_8h.html" target="_top" xlink:title=" ">
<polygon fill="white" stroke="#666666" points="140.12,-129.75 50.62,-129.75 50.62,-110.5 140.12,-110.5 140.12,-129.75"/>
<text text-anchor="middle" x="95.38" y="-116.25" font-family="Helvetica,sans-Serif" font-size="10.00">objects_sphere.h</text>
</a>
</g>
</g>
<!-- Node1&#45;&gt;Node3 -->
<g id="edge2_Node000001_Node000003" class="edge">
<title>Node1&#45;&gt;Node3</title>
<g id="a_edge2_Node000001_Node000003"><a xlink:title=" ">
<path fill="none" stroke="#63b8ff" d="M95.38,-165.57C95.38,-157.9 95.38,-149.14 95.38,-141.45"/>
<polygon fill="#63b8ff" stroke="#63b8ff" points="98.88,-141.71 95.38,-131.71 91.88,-141.71 98.88,-141.71"/>
</a>
</g>
</g>
<!-- Node7 -->
<g id="Node000007" class="node">
<title>Node7</title>
<g id="a_Node000007"><a xlink:href="base__matrices_8h.html" target="_top" xlink:title=" ">
<polygon fill="white" stroke="#666666" points="245,-129.75 157.75,-129.75 157.75,-110.5 245,-110.5 245,-129.75"/>
<text text-anchor="middle" x="201.38" y="-116.25" font-family="Helvetica,sans-Serif" font-size="10.00">base_matrices.h</text>
</a>
</g>
</g>
<!-- Node1&#45;&gt;Node7 -->
<g id="edge7_Node000001_Node000007" class="edge">
<title>Node1&#45;&gt;Node7</title>
<g id="a_edge7_Node000001_Node000007"><a xlink:title=" ">
<path fill="none" stroke="#63b8ff" d="M128.62,-165.39C144.26,-155.88 162.57,-144.74 176.91,-136.01"/>
<polygon fill="#63b8ff" stroke="#63b8ff" points="178.54,-139.12 185.26,-130.93 174.9,-133.14 178.54,-139.12"/>
</a>
</g>
</g>
<!-- Node4 -->
<g id="Node000004" class="node">
<title>Node4</title>
<g id="a_Node000004"><a xlink:href="types_8h.html" target="_top" xlink:title=" ">
<polygon fill="white" stroke="#666666" points="118.75,-74.5 72,-74.5 72,-55.25 118.75,-55.25 118.75,-74.5"/>
<text text-anchor="middle" x="95.38" y="-61" font-family="Helvetica,sans-Serif" font-size="10.00">types.h</text>
</a>
</g>
</g>
<!-- Node3&#45;&gt;Node4 -->
<g id="edge3_Node000003_Node000004" class="edge">
<title>Node3&#45;&gt;Node4</title>
<g id="a_edge3_Node000003_Node000004"><a xlink:title=" ">
<path fill="none" stroke="#63b8ff" d="M95.38,-110.33C95.38,-103.82 95.38,-94.67 95.38,-86.37"/>
<polygon fill="#63b8ff" stroke="#63b8ff" points="98.88,-86.37 95.38,-76.37 91.88,-86.37 98.88,-86.37"/>
</a>
</g>
</g>
<!-- Node4&#45;&gt;Node2 -->
<g id="edge5_Node000004_Node000002" class="edge">
<title>Node4&#45;&gt;Node2</title>
<g id="a_edge5_Node000004_Node000002"><a xlink:title=" ">
<path fill="none" stroke="#63b8ff" d="M83.16,-54.84C72.55,-46.99 56.94,-35.45 44.33,-26.12"/>
<polygon fill="#63b8ff" stroke="#63b8ff" points="46.75,-23.56 36.63,-20.42 42.58,-29.19 46.75,-23.56"/>
</a>
</g>
</g>
<!-- Node5 -->
<g id="Node000005" class="node">
<title>Node5</title>
<g id="a_Node000005"><a xlink:title=" ">
<polygon fill="#e0e0e0" stroke="#999999" points="121.88,-19.25 66.88,-19.25 66.88,0 121.88,0 121.88,-19.25"/>
<text text-anchor="middle" x="94.38" y="-5.75" font-family="Helvetica,sans-Serif" font-size="10.00">stdbool.h</text>
</a>
</g>
</g>
<!-- Node4&#45;&gt;Node5 -->
<g id="edge4_Node000004_Node000005" class="edge">
<title>Node4&#45;&gt;Node5</title>
<g id="a_edge4_Node000004_Node000005"><a xlink:title=" ">
<path fill="none" stroke="#63b8ff" d="M95.21,-55.08C95.09,-48.57 94.92,-39.42 94.76,-31.12"/>
<polygon fill="#63b8ff" stroke="#63b8ff" points="98.26,-31.05 94.57,-21.12 91.26,-31.19 98.26,-31.05"/>
</a>
</g>
</g>
<!-- Node6 -->
<g id="Node000006" class="node">
<title>Node6</title>
<g id="a_Node000006"><a xlink:title=" ">
<polygon fill="#e0e0e0" stroke="#999999" points="186.75,-19.25 140,-19.25 140,0 186.75,0 186.75,-19.25"/>
<text text-anchor="middle" x="163.38" y="-5.75" font-family="Helvetica,sans-Serif" font-size="10.00">limits.h</text>
</a>
</g>
</g>
<!-- Node4&#45;&gt;Node6 -->
<g id="edge6_Node000004_Node000006" class="edge">
<title>Node4&#45;&gt;Node6</title>
<g id="a_edge6_Node000004_Node000006"><a xlink:title=" ">
<path fill="none" stroke="#63b8ff" d="M106.91,-54.84C116.84,-47.07 131.39,-35.67 143.23,-26.4"/>
<polygon fill="#63b8ff" stroke="#63b8ff" points="145.1,-29.38 150.82,-20.46 140.79,-23.87 145.1,-29.38"/>
</a>
</g>
</g>
<!-- Node7&#45;&gt;Node4 -->
<g id="edge8_Node000007_Node000004" class="edge">
<title>Node7&#45;&gt;Node4</title>
<g id="a_edge8_Node000007_Node000004"><a xlink:title=" ">
<path fill="none" stroke="#63b8ff" d="M183.39,-110.09C167.02,-101.87 142.59,-89.59 123.61,-80.06"/>
<polygon fill="#63b8ff" stroke="#63b8ff" points="125.3,-76.99 114.8,-75.63 122.16,-83.25 125.3,-76.99"/>
</a>
</g>
</g>
</g>
</svg>
