<?xml version="1.0" encoding="UTF-8" standalone="no"?>
<!DOCTYPE svg PUBLIC "-//W3C//DTD SVG 1.1//EN"
 "http://www.w3.org/Graphics/SVG/1.1/DTD/svg11.dtd">
<!-- Generated by graphviz version 9.0.0 (20230911.1827)
 -->
<!-- Title: s_parse Pages: 1 -->
<svg width="584pt" height="390pt"
 viewBox="0.00 0.00 584.00 390.25" xmlns="http://www.w3.org/2000/svg" xmlns:xlink="http://www.w3.org/1999/xlink">
<g id="graph0" class="graph" transform="scale(1 1) rotate(0) translate(4 386.25)">
<title>s_parse</title>
<!-- Node1 -->
<g id="Node000001" class="node">
<title>Node1</title>
<g id="a_Node000001"><a xlink:title=" ">
<polygon fill="#999999" stroke="#666666" points="325.75,-19.25 275.25,-19.25 275.25,0 325.75,0 325.75,-19.25"/>
<text text-anchor="middle" x="300.5" y="-5.75" font-family="Helvetica,sans-Serif" font-size="10.00">s_parse</text>
</a>
</g>
</g>
<!-- Node2 -->
<g id="Node000002" class="node">
<title>Node2</title>
<g id="a_Node000002"><a xlink:href="structs__rayt.html" target="_top" xlink:title="Raytracer main structure.">
<polygon fill="white" stroke="#666666" points="321.62,-85.75 279.38,-85.75 279.38,-66.5 321.62,-66.5 321.62,-85.75"/>
<text text-anchor="middle" x="300.5" y="-72.25" font-family="Helvetica,sans-Serif" font-size="10.00">s_rayt</text>
</a>
</g>
</g>
<!-- Node2&#45;&gt;Node1 -->
<g id="edge1_Node000001_Node000002" class="edge">
<title>Node2&#45;&gt;Node1</title>
<g id="a_edge1_Node000001_Node000002"><a xlink:title=" ">
<path fill="none" stroke="#9a32cd" stroke-dasharray="5,2" d="M300.5,-54.65C300.5,-42.82 300.5,-28.54 300.5,-19.52"/>
<polygon fill="#9a32cd" stroke="#9a32cd" points="297,-54.64 300.5,-64.64 304,-54.64 297,-54.64"/>
</a>
</g>
<text text-anchor="middle" x="307.62" y="-39" font-family="Helvetica,sans-Serif" font-size="10.00" fill="grey"> lux</text>
</g>
<!-- Node3 -->
<g id="Node000003" class="node">
<title>Node3</title>
<g id="a_Node000003"><a xlink:href="structs__image.html" target="_top" xlink:title=" ">
<polygon fill="white" stroke="#666666" points="184.88,-152.25 132.12,-152.25 132.12,-133 184.88,-133 184.88,-152.25"/>
<text text-anchor="middle" x="158.5" y="-138.75" font-family="Helvetica,sans-Serif" font-size="10.00">s_image</text>
</a>
</g>
</g>
<!-- Node3&#45;&gt;Node2 -->
<g id="edge2_Node000002_Node000003" class="edge">
<title>Node3&#45;&gt;Node2</title>
<g id="a_edge2_Node000002_Node000003"><a xlink:title=" ">
<path fill="none" stroke="#9a32cd" stroke-dasharray="5,2" d="M160.45,-121.73C162.05,-115.17 164.92,-108.38 170,-103.75 185.73,-89.43 246.26,-81.94 279.07,-78.86"/>
<polygon fill="#9a32cd" stroke="#9a32cd" points="157.04,-120.85 158.94,-131.27 163.96,-121.93 157.04,-120.85"/>
</a>
</g>
<text text-anchor="middle" x="183.75" y="-105.5" font-family="Helvetica,sans-Serif" font-size="10.00" fill="grey"> image</text>
</g>
<!-- Node4 -->
<g id="Node000004" class="node">
<title>Node4</title>
<g id="a_Node000004"><a xlink:href="structs__light.html" target="_top" xlink:title="Spot Light [Identifier L].">
<polygon fill="white" stroke="#666666" points="519.75,-298.88 475.25,-298.88 475.25,-279.62 519.75,-279.62 519.75,-298.88"/>
<text text-anchor="middle" x="497.5" y="-285.38" font-family="Helvetica,sans-Serif" font-size="10.00">s_light</text>
</a>
</g>
</g>
<!-- Node4&#45;&gt;Node2 -->
<g id="edge3_Node000002_Node000004" class="edge">
<title>Node4&#45;&gt;Node2</title>
<g id="a_edge3_Node000002_Node000004"><a xlink:title=" ">
<path fill="none" stroke="#9a32cd" stroke-dasharray="5,2" d="M484.69,-270.64C459.19,-236.25 399.29,-158.74 338.5,-103.75 331.33,-97.27 322.53,-91.01 315.21,-86.19"/>
<polygon fill="#9a32cd" stroke="#9a32cd" points="481.56,-272.29 490.31,-278.28 487.2,-268.15 481.56,-272.29"/>
</a>
</g>
<text text-anchor="middle" x="427.88" y="-172" font-family="Helvetica,sans-Serif" font-size="10.00" fill="grey"> p_light</text>
</g>
<!-- Node5 -->
<g id="Node000005" class="node">
<title>Node5</title>
<g id="a_Node000005"><a xlink:href="structs__matrix.html" target="_top" xlink:title="n x m size matrix where values are stored in double **data">
<polygon fill="white" stroke="#666666" points="228.88,-382.25 176.12,-382.25 176.12,-363 228.88,-363 228.88,-382.25"/>
<text text-anchor="middle" x="202.5" y="-368.75" font-family="Helvetica,sans-Serif" font-size="10.00">s_matrix</text>
</a>
</g>
</g>
<!-- Node5&#45;&gt;Node4 -->
<g id="edge4_Node000004_Node000005" class="edge">
<title>Node5&#45;&gt;Node4</title>
<g id="a_edge4_Node000004_Node000005"><a xlink:title=" ">
<path fill="none" stroke="#9a32cd" stroke-dasharray="5,2" d="M240.41,-369.32C287.22,-365.95 363.68,-358.54 388.5,-345 400.12,-338.66 396.91,-329.73 408,-322.5 430.79,-307.65 441.09,-314.2 466.5,-304.5 470.6,-302.94 474.91,-301.09 478.98,-299.25"/>
<polygon fill="#9a32cd" stroke="#9a32cd" points="240.45,-365.81 230.71,-369.99 240.93,-372.8 240.45,-365.81"/>
</a>
</g>
<text text-anchor="middle" x="420.25" y="-329.88" font-family="Helvetica,sans-Serif" font-size="10.00" fill="grey"> origin</text>
</g>
<!-- Node8 -->
<g id="Node000008" class="node">
<title>Node8</title>
<g id="a_Node000008"><a xlink:href="structs__camera.html" target="_top" xlink:title="Camera [Identifier C].">
<polygon fill="white" stroke="#666666" points="109.88,-298.88 51.12,-298.88 51.12,-279.62 109.88,-279.62 109.88,-298.88"/>
<text text-anchor="middle" x="80.5" y="-285.38" font-family="Helvetica,sans-Serif" font-size="10.00">s_camera</text>
</a>
</g>
</g>
<!-- Node5&#45;&gt;Node8 -->
<g id="edge9_Node000008_Node000005" class="edge">
<title>Node5&#45;&gt;Node8</title>
<g id="a_edge9_Node000008_Node000005"><a xlink:title=" ">
<path fill="none" stroke="#9a32cd" stroke-dasharray="5,2" d="M164.6,-371.03C142.26,-368.71 114.94,-362.15 97,-345 84.22,-332.79 81.24,-311.09 80.6,-299"/>
<polygon fill="#9a32cd" stroke="#9a32cd" points="164.33,-374.52 174.57,-371.79 164.87,-367.54 164.33,-374.52"/>
</a>
</g>
<text text-anchor="middle" x="113.75" y="-335.5" font-family="Helvetica,sans-Serif" font-size="10.00" fill="grey"> origin</text>
<text text-anchor="middle" x="113.75" y="-324.25" font-family="Helvetica,sans-Serif" font-size="10.00" fill="grey">v_orient</text>
</g>
<!-- Node12 -->
<g id="Node000012" class="node">
<title>Node12</title>
<g id="a_Node000012"><a xlink:href="structs__object_1_1u__data_1_1s__sphere.html" target="_top" xlink:title="Sphere Object [Identifier sp].">
<polygon fill="white" stroke="#666666" points="229.62,-304.5 133.38,-304.5 133.38,-274 229.62,-274 229.62,-304.5"/>
<text text-anchor="start" x="141.38" y="-291" font-family="Helvetica,sans-Serif" font-size="10.00">s_object::u_data::s</text>
<text text-anchor="middle" x="181.5" y="-279.75" font-family="Helvetica,sans-Serif" font-size="10.00">_sphere</text>
</a>
</g>
</g>
<!-- Node5&#45;&gt;Node12 -->
<g id="edge14_Node000012_Node000005" class="edge">
<title>Node5&#45;&gt;Node12</title>
<g id="a_edge14_Node000012_Node000005"><a xlink:title=" ">
<path fill="none" stroke="#9a32cd" stroke-dasharray="5,2" d="M165.04,-363.97C154.99,-360.02 145.25,-354.04 139.25,-345 133.72,-336.67 134.82,-331.46 139.25,-322.5 142.69,-315.55 148.42,-309.69 154.57,-304.95"/>
<polygon fill="#9a32cd" stroke="#9a32cd" points="163.88,-367.27 174.47,-367.04 166.05,-360.61 163.88,-367.27"/>
</a>
</g>
<text text-anchor="middle" x="159.12" y="-335.5" font-family="Helvetica,sans-Serif" font-size="10.00" fill="grey"> origin</text>
<text text-anchor="middle" x="159.12" y="-324.25" font-family="Helvetica,sans-Serif" font-size="10.00" fill="grey">transform</text>
</g>
<!-- Node13 -->
<g id="Node000013" class="node">
<title>Node13</title>
<g id="a_Node000013"><a xlink:href="structs__object_1_1u__data_1_1s__plane.html" target="_top" xlink:title="Plane Object [Identifier pl].">
<polygon fill="white" stroke="#666666" points="343.62,-304.5 247.38,-304.5 247.38,-274 343.62,-274 343.62,-304.5"/>
<text text-anchor="start" x="255.38" y="-291" font-family="Helvetica,sans-Serif" font-size="10.00">s_object::u_data::s</text>
<text text-anchor="middle" x="295.5" y="-279.75" font-family="Helvetica,sans-Serif" font-size="10.00">_plane</text>
</a>
</g>
</g>
<!-- Node5&#45;&gt;Node13 -->
<g id="edge17_Node000013_Node000005" class="edge">
<title>Node5&#45;&gt;Node13</title>
<g id="a_edge17_Node000013_Node000005"><a xlink:title=" ">
<path fill="none" stroke="#9a32cd" stroke-dasharray="5,2" d="M198.16,-351.33C197.27,-341.74 198.05,-330.64 204,-322.5 209.62,-314.82 228.1,-307.63 247,-302"/>
<polygon fill="#9a32cd" stroke="#9a32cd" points="194.71,-351.87 199.75,-361.19 201.62,-350.76 194.71,-351.87"/>
</a>
</g>
<text text-anchor="middle" x="220.75" y="-335.5" font-family="Helvetica,sans-Serif" font-size="10.00" fill="grey"> origin</text>
<text text-anchor="middle" x="220.75" y="-324.25" font-family="Helvetica,sans-Serif" font-size="10.00" fill="grey">v_orient</text>
</g>
<!-- Node14 -->
<g id="Node000014" class="node">
<title>Node14</title>
<g id="a_Node000014"><a xlink:href="structs__object_1_1u__data_1_1s__cylinder.html" target="_top" xlink:title="Cylinder Object [Identifier cy].">
<polygon fill="white" stroke="#666666" points="457.62,-304.5 361.38,-304.5 361.38,-274 457.62,-274 457.62,-304.5"/>
<text text-anchor="start" x="369.38" y="-291" font-family="Helvetica,sans-Serif" font-size="10.00">s_object::u_data::s</text>
<text text-anchor="middle" x="409.5" y="-279.75" font-family="Helvetica,sans-Serif" font-size="10.00">_cylinder</text>
</a>
</g>
</g>
<!-- Node5&#45;&gt;Node14 -->
<g id="edge20_Node000014_Node000005" class="edge">
<title>Node5&#45;&gt;Node14</title>
<g id="a_edge20_Node000014_Node000005"><a xlink:title=" ">
<path fill="none" stroke="#9a32cd" stroke-dasharray="5,2" d="M240.02,-364.03C254.7,-359.93 271.18,-353.83 284.5,-345 295.53,-337.69 292.91,-329.72 304,-322.5 313.79,-316.13 338.21,-308.51 361.09,-302.27"/>
<polygon fill="#9a32cd" stroke="#9a32cd" points="239.51,-360.55 230.69,-366.42 241.25,-367.33 239.51,-360.55"/>
</a>
</g>
<text text-anchor="middle" x="320.75" y="-335.5" font-family="Helvetica,sans-Serif" font-size="10.00" fill="grey"> origin</text>
<text text-anchor="middle" x="320.75" y="-324.25" font-family="Helvetica,sans-Serif" font-size="10.00" fill="grey">v_orient</text>
</g>
<!-- Node6 -->
<g id="Node000006" class="node">
<title>Node6</title>
<g id="a_Node000006"><a xlink:href="structs__trgb.html" target="_top" xlink:title=" ">
<polygon fill="white" stroke="#666666" points="481,-382.25 438,-382.25 438,-363 481,-363 481,-382.25"/>
<text text-anchor="middle" x="459.5" y="-368.75" font-family="Helvetica,sans-Serif" font-size="10.00">s_trgb</text>
</a>
</g>
</g>
<!-- Node6&#45;&gt;Node4 -->
<g id="edge5_Node000004_Node000006" class="edge">
<title>Node6&#45;&gt;Node4</title>
<g id="a_edge5_Node000004_Node000006"><a xlink:title=" ">
<path fill="none" stroke="#9a32cd" stroke-dasharray="5,2" d="M477.29,-354.21C479.62,-351.3 481.79,-348.19 483.5,-345 491.47,-330.13 495.05,-310.52 496.54,-299.26"/>
<polygon fill="#9a32cd" stroke="#9a32cd" points="474.78,-351.76 470.65,-361.52 479.97,-356.47 474.78,-351.76"/>
</a>
</g>
<text text-anchor="middle" x="503.12" y="-329.88" font-family="Helvetica,sans-Serif" font-size="10.00" fill="grey"> color</text>
</g>
<!-- Node7 -->
<g id="Node000007" class="node">
<title>Node7</title>
<g id="a_Node000007"><a xlink:href="structs__ambient.html" target="_top" xlink:title="Ambient Light [Identifier A].">
<polygon fill="white" stroke="#666666" points="576,-256 515,-256 515,-236.75 576,-236.75 576,-256"/>
<text text-anchor="middle" x="545.5" y="-242.5" font-family="Helvetica,sans-Serif" font-size="10.00">s_ambient</text>
</a>
</g>
</g>
<!-- Node6&#45;&gt;Node7 -->
<g id="edge7_Node000007_Node000006" class="edge">
<title>Node6&#45;&gt;Node7</title>
<g id="a_edge7_Node000007_Node000006"><a xlink:title=" ">
<path fill="none" stroke="#9a32cd" stroke-dasharray="5,2" d="M492.08,-362.83C501.75,-358.8 511.59,-353.06 518.5,-345 541.04,-318.69 544.88,-275.06 545.45,-256.35"/>
<polygon fill="#9a32cd" stroke="#9a32cd" points="491.04,-359.48 482.82,-366.17 493.42,-366.07 491.04,-359.48"/>
</a>
</g>
<text text-anchor="middle" x="543.12" y="-329.88" font-family="Helvetica,sans-Serif" font-size="10.00" fill="grey"> color</text>
</g>
<!-- Node6&#45;&gt;Node12 -->
<g id="edge15_Node000012_Node000006" class="edge">
<title>Node6&#45;&gt;Node12</title>
<g id="a_edge15_Node000012_Node000006"><a xlink:title=" ">
<path fill="none" stroke="#9a32cd" stroke-dasharray="5,2" d="M426.4,-370.18C376.71,-367.52 285.62,-360.63 257.25,-345 245.85,-338.72 248.49,-330.84 238.5,-322.5 230.56,-315.87 221.06,-309.88 212.11,-304.91"/>
<polygon fill="#9a32cd" stroke="#9a32cd" points="426.11,-373.67 436.28,-370.67 426.47,-366.67 426.11,-373.67"/>
</a>
</g>
<text text-anchor="middle" x="268.12" y="-329.88" font-family="Helvetica,sans-Serif" font-size="10.00" fill="grey"> color</text>
</g>
<!-- Node6&#45;&gt;Node13 -->
<g id="edge18_Node000013_Node000006" class="edge">
<title>Node6&#45;&gt;Node13</title>
<g id="a_edge18_Node000013_Node000006"><a xlink:title=" ">
<path fill="none" stroke="#9a32cd" stroke-dasharray="5,2" d="M426.64,-366.56C407.75,-362.65 384.11,-355.99 365.25,-345 352.96,-337.84 353.46,-331.56 342.5,-322.5 335.02,-316.32 326.38,-310.15 318.57,-304.88"/>
<polygon fill="#9a32cd" stroke="#9a32cd" points="425.73,-369.95 436.21,-368.38 427.04,-363.08 425.73,-369.95"/>
</a>
</g>
<text text-anchor="middle" x="376.12" y="-329.88" font-family="Helvetica,sans-Serif" font-size="10.00" fill="grey"> color</text>
</g>
<!-- Node6&#45;&gt;Node14 -->
<g id="edge21_Node000014_Node000006" class="edge">
<title>Node6&#45;&gt;Node14</title>
<g id="a_edge21_Node000014_Node000006"><a xlink:title=" ">
<path fill="none" stroke="#9a32cd" stroke-dasharray="5,2" d="M452.26,-351.99C448.46,-342.72 443.37,-331.69 437.5,-322.5 433.59,-316.37 428.57,-310.21 423.86,-304.94"/>
<polygon fill="#9a32cd" stroke="#9a32cd" points="448.92,-353.06 455.8,-361.12 455.45,-350.53 448.92,-353.06"/>
</a>
</g>
<text text-anchor="middle" x="460.12" y="-329.88" font-family="Helvetica,sans-Serif" font-size="10.00" fill="grey"> color</text>
</g>
<!-- Node7&#45;&gt;Node2 -->
<g id="edge6_Node000002_Node000007" class="edge">
<title>Node7&#45;&gt;Node2</title>
<g id="a_edge6_Node000002_Node000007"><a xlink:title=" ">
<path fill="none" stroke="#9a32cd" stroke-dasharray="5,2" d="M535.88,-226.32C519.16,-195.3 481.69,-134.3 431.5,-103.75 397.2,-82.87 349.44,-78.05 322.07,-77.12"/>
<polygon fill="#9a32cd" stroke="#9a32cd" points="532.65,-227.69 540.38,-234.93 538.85,-224.45 532.65,-227.69"/>
</a>
</g>
<text text-anchor="middle" x="522.88" y="-172" font-family="Helvetica,sans-Serif" font-size="10.00" fill="grey"> a_light</text>
</g>
<!-- Node8&#45;&gt;Node2 -->
<g id="edge8_Node000002_Node000008" class="edge">
<title>Node8&#45;&gt;Node2</title>
<g id="a_edge8_Node000002_Node000008"><a xlink:title=" ">
<path fill="none" stroke="#9a32cd" stroke-dasharray="5,2" d="M98.04,-271.42C142.3,-228.94 257.36,-118.52 291.08,-86.16"/>
<polygon fill="#9a32cd" stroke="#9a32cd" points="95.84,-268.68 91.05,-278.13 100.68,-273.73 95.84,-268.68"/>
</a>
</g>
<text text-anchor="middle" x="219.75" y="-172" font-family="Helvetica,sans-Serif" font-size="10.00" fill="grey"> camera</text>
</g>
<!-- Node9 -->
<g id="Node000009" class="node">
<title>Node9</title>
<g id="a_Node000009"><a xlink:href="structs__uv.html" target="_top" xlink:title="UV Coordinates [Identifier uv].">
<polygon fill="white" stroke="#666666" points="37,-382.25 0,-382.25 0,-363 37,-363 37,-382.25"/>
<text text-anchor="middle" x="18.5" y="-368.75" font-family="Helvetica,sans-Serif" font-size="10.00">s_uv</text>
</a>
</g>
</g>
<!-- Node9&#45;&gt;Node8 -->
<g id="edge10_Node000008_Node000009" class="edge">
<title>Node9&#45;&gt;Node8</title>
<g id="a_edge10_Node000008_Node000009"><a xlink:title=" ">
<path fill="none" stroke="#9a32cd" stroke-dasharray="5,2" d="M14.43,-351.37C13.61,-341.95 14.27,-330.98 19.5,-322.5 26.48,-311.18 38.87,-303.61 50.67,-298.67"/>
<polygon fill="#9a32cd" stroke="#9a32cd" points="10.93,-351.66 15.88,-361.03 17.85,-350.62 10.93,-351.66"/>
</a>
</g>
<text text-anchor="middle" x="39" y="-329.88" font-family="Helvetica,sans-Serif" font-size="10.00" fill="grey"> viewport</text>
</g>
<!-- Node10 -->
<g id="Node000010" class="node">
<title>Node10</title>
<g id="a_Node000010"><a xlink:href="structs__object.html" target="_top" xlink:title="Object [Identifier O].">
<polygon fill="white" stroke="#666666" points="326.88,-152.25 274.12,-152.25 274.12,-133 326.88,-133 326.88,-152.25"/>
<text text-anchor="middle" x="300.5" y="-138.75" font-family="Helvetica,sans-Serif" font-size="10.00">s_object</text>
</a>
</g>
</g>
<!-- Node10&#45;&gt;Node2 -->
<g id="edge11_Node000002_Node000010" class="edge">
<title>Node10&#45;&gt;Node2</title>
<g id="a_edge11_Node000002_Node000010"><a xlink:title=" ">
<path fill="none" stroke="#9a32cd" stroke-dasharray="5,2" d="M300.5,-121.15C300.5,-109.32 300.5,-95.04 300.5,-86.02"/>
<polygon fill="#9a32cd" stroke="#9a32cd" points="297,-121.14 300.5,-131.14 304,-121.14 297,-121.14"/>
</a>
</g>
<text text-anchor="middle" x="317.38" y="-105.5" font-family="Helvetica,sans-Serif" font-size="10.00" fill="grey"> objects</text>
</g>
<!-- Node11 -->
<g id="Node000011" class="node">
<title>Node11</title>
<g id="a_Node000011"><a xlink:href="unions__object_1_1u__data.html" target="_top" xlink:title=" ">
<polygon fill="white" stroke="#666666" points="343.75,-218.75 257.25,-218.75 257.25,-199.5 343.75,-199.5 343.75,-218.75"/>
<text text-anchor="middle" x="300.5" y="-205.25" font-family="Helvetica,sans-Serif" font-size="10.00">s_object::u_data</text>
</a>
</g>
</g>
<!-- Node11&#45;&gt;Node10 -->
<g id="edge12_Node000010_Node000011" class="edge">
<title>Node11&#45;&gt;Node10</title>
<g id="a_edge12_Node000010_Node000011"><a xlink:title=" ">
<path fill="none" stroke="#9a32cd" stroke-dasharray="5,2" d="M300.5,-187.65C300.5,-175.82 300.5,-161.54 300.5,-152.52"/>
<polygon fill="#9a32cd" stroke="#9a32cd" points="297,-187.64 300.5,-197.64 304,-187.64 297,-187.64"/>
</a>
</g>
<text text-anchor="middle" x="308" y="-172" font-family="Helvetica,sans-Serif" font-size="10.00" fill="grey"> obj</text>
</g>
<!-- Node12&#45;&gt;Node11 -->
<g id="edge13_Node000011_Node000012" class="edge">
<title>Node12&#45;&gt;Node11</title>
<g id="a_edge13_Node000011_Node000012"><a xlink:title=" ">
<path fill="none" stroke="#9a32cd" stroke-dasharray="5,2" d="M213.29,-267.38C237.25,-251.65 268.92,-230.86 286.76,-219.15"/>
<polygon fill="#9a32cd" stroke="#9a32cd" points="211.59,-264.31 205.15,-272.72 215.43,-270.16 211.59,-264.31"/>
</a>
</g>
<text text-anchor="middle" x="274.25" y="-242.5" font-family="Helvetica,sans-Serif" font-size="10.00" fill="grey"> sphere</text>
</g>
<!-- Node13&#45;&gt;Node11 -->
<g id="edge16_Node000011_Node000013" class="edge">
<title>Node13&#45;&gt;Node11</title>
<g id="a_edge16_Node000011_Node000013"><a xlink:title=" ">
<path fill="none" stroke="#9a32cd" stroke-dasharray="5,2" d="M297.16,-262.35C298.12,-247.34 299.27,-229.4 299.94,-218.93"/>
<polygon fill="#9a32cd" stroke="#9a32cd" points="293.68,-261.84 296.54,-272.04 300.67,-262.29 293.68,-261.84"/>
</a>
</g>
<text text-anchor="middle" x="311.25" y="-242.5" font-family="Helvetica,sans-Serif" font-size="10.00" fill="grey"> plane</text>
</g>
<!-- Node14&#45;&gt;Node11 -->
<g id="edge19_Node000011_Node000014" class="edge">
<title>Node14&#45;&gt;Node11</title>
<g id="a_edge19_Node000011_Node000014"><a xlink:title=" ">
<path fill="none" stroke="#9a32cd" stroke-dasharray="5,2" d="M379.8,-266.96C357.92,-251.28 329.28,-230.75 313.09,-219.15"/>
<polygon fill="#9a32cd" stroke="#9a32cd" points="377.6,-269.69 387.77,-272.67 381.68,-264 377.6,-269.69"/>
</a>
</g>
<text text-anchor="middle" x="379.12" y="-242.5" font-family="Helvetica,sans-Serif" font-size="10.00" fill="grey"> cylinder</text>
</g>
</g>
</svg>
