<?xml version="1.0" encoding="UTF-8" standalone="no"?>
<!DOCTYPE svg PUBLIC "-//W3C//DTD SVG 1.1//EN"
 "http://www.w3.org/Graphics/SVG/1.1/DTD/svg11.dtd">
<!-- Generated by graphviz version 9.0.0 (20230911.1827)
 -->
<!-- Title: s_rayt Pages: 1 -->
<svg width="584pt" height="324pt"
 viewBox="0.00 0.00 584.00 323.75" xmlns="http://www.w3.org/2000/svg" xmlns:xlink="http://www.w3.org/1999/xlink">
<g id="graph0" class="graph" transform="scale(1 1) rotate(0) translate(4 319.75)">
<title>s_rayt</title>
<!-- Node1 -->
<g id="Node000001" class="node">
<title>Node1</title>
<g id="a_Node000001"><a xlink:title="Raytracer main structure.">
<polygon fill="#999999" stroke="#666666" points="321.62,-19.25 279.38,-19.25 279.38,0 321.62,0 321.62,-19.25"/>
<text text-anchor="middle" x="300.5" y="-5.75" font-family="Helvetica,sans-Serif" font-size="10.00">s_rayt</text>
</a>
</g>
</g>
<!-- Node2 -->
<g id="Node000002" class="node">
<title>Node2</title>
<g id="a_Node000002"><a xlink:href="structs__image.html" target="_top" xlink:title=" ">
<polygon fill="white" stroke="#666666" points="184.88,-85.75 132.12,-85.75 132.12,-66.5 184.88,-66.5 184.88,-85.75"/>
<text text-anchor="middle" x="158.5" y="-72.25" font-family="Helvetica,sans-Serif" font-size="10.00">s_image</text>
</a>
</g>
</g>
<!-- Node2&#45;&gt;Node1 -->
<g id="edge1_Node000001_Node000002" class="edge">
<title>Node2&#45;&gt;Node1</title>
<g id="a_edge1_Node000001_Node000002"><a xlink:title=" ">
<path fill="none" stroke="#9a32cd" stroke-dasharray="5,2" d="M160.45,-55.23C162.05,-48.67 164.92,-41.88 170,-37.25 185.73,-22.93 246.26,-15.44 279.07,-12.36"/>
<polygon fill="#9a32cd" stroke="#9a32cd" points="157.04,-54.35 158.94,-64.77 163.96,-55.43 157.04,-54.35"/>
</a>
</g>
<text text-anchor="middle" x="183.75" y="-39" font-family="Helvetica,sans-Serif" font-size="10.00" fill="grey"> image</text>
</g>
<!-- Node3 -->
<g id="Node000003" class="node">
<title>Node3</title>
<g id="a_Node000003"><a xlink:href="structs__light.html" target="_top" xlink:title="Spot Light [Identifier L].">
<polygon fill="white" stroke="#666666" points="519.75,-232.38 475.25,-232.38 475.25,-213.12 519.75,-213.12 519.75,-232.38"/>
<text text-anchor="middle" x="497.5" y="-218.88" font-family="Helvetica,sans-Serif" font-size="10.00">s_light</text>
</a>
</g>
</g>
<!-- Node3&#45;&gt;Node1 -->
<g id="edge2_Node000001_Node000003" class="edge">
<title>Node3&#45;&gt;Node1</title>
<g id="a_edge2_Node000001_Node000003"><a xlink:title=" ">
<path fill="none" stroke="#9a32cd" stroke-dasharray="5,2" d="M484.69,-204.14C459.19,-169.75 399.29,-92.24 338.5,-37.25 331.33,-30.77 322.53,-24.51 315.21,-19.69"/>
<polygon fill="#9a32cd" stroke="#9a32cd" points="481.56,-205.79 490.31,-211.78 487.2,-201.65 481.56,-205.79"/>
</a>
</g>
<text text-anchor="middle" x="427.88" y="-105.5" font-family="Helvetica,sans-Serif" font-size="10.00" fill="grey"> p_light</text>
</g>
<!-- Node4 -->
<g id="Node000004" class="node">
<title>Node4</title>
<g id="a_Node000004"><a xlink:href="structs__matrix.html" target="_top" xlink:title="n x m size matrix where values are stored in double **data">
<polygon fill="white" stroke="#666666" points="228.88,-315.75 176.12,-315.75 176.12,-296.5 228.88,-296.5 228.88,-315.75"/>
<text text-anchor="middle" x="202.5" y="-302.25" font-family="Helvetica,sans-Serif" font-size="10.00">s_matrix</text>
</a>
</g>
</g>
<!-- Node4&#45;&gt;Node3 -->
<g id="edge3_Node000003_Node000004" class="edge">
<title>Node4&#45;&gt;Node3</title>
<g id="a_edge3_Node000003_Node000004"><a xlink:title=" ">
<path fill="none" stroke="#9a32cd" stroke-dasharray="5,2" d="M240.41,-302.82C287.22,-299.45 363.68,-292.04 388.5,-278.5 400.12,-272.16 396.91,-263.23 408,-256 430.79,-241.15 441.09,-247.7 466.5,-238 470.6,-236.44 474.91,-234.59 478.98,-232.75"/>
<polygon fill="#9a32cd" stroke="#9a32cd" points="240.45,-299.31 230.71,-303.49 240.93,-306.3 240.45,-299.31"/>
</a>
</g>
<text text-anchor="middle" x="420.25" y="-263.38" font-family="Helvetica,sans-Serif" font-size="10.00" fill="grey"> origin</text>
</g>
<!-- Node7 -->
<g id="Node000007" class="node">
<title>Node7</title>
<g id="a_Node000007"><a xlink:href="structs__camera.html" target="_top" xlink:title="Camera [Identifier C].">
<polygon fill="white" stroke="#666666" points="109.88,-232.38 51.12,-232.38 51.12,-213.12 109.88,-213.12 109.88,-232.38"/>
<text text-anchor="middle" x="80.5" y="-218.88" font-family="Helvetica,sans-Serif" font-size="10.00">s_camera</text>
</a>
</g>
</g>
<!-- Node4&#45;&gt;Node7 -->
<g id="edge8_Node000007_Node000004" class="edge">
<title>Node4&#45;&gt;Node7</title>
<g id="a_edge8_Node000007_Node000004"><a xlink:title=" ">
<path fill="none" stroke="#9a32cd" stroke-dasharray="5,2" d="M164.6,-304.53C142.26,-302.21 114.94,-295.65 97,-278.5 84.22,-266.29 81.24,-244.59 80.6,-232.5"/>
<polygon fill="#9a32cd" stroke="#9a32cd" points="164.33,-308.02 174.57,-305.29 164.87,-301.04 164.33,-308.02"/>
</a>
</g>
<text text-anchor="middle" x="113.75" y="-269" font-family="Helvetica,sans-Serif" font-size="10.00" fill="grey"> origin</text>
<text text-anchor="middle" x="113.75" y="-257.75" font-family="Helvetica,sans-Serif" font-size="10.00" fill="grey">v_orient</text>
</g>
<!-- Node11 -->
<g id="Node000011" class="node">
<title>Node11</title>
<g id="a_Node000011"><a xlink:href="structs__object_1_1u__data_1_1s__sphere.html" target="_top" xlink:title=" ">
<polygon fill="white" stroke="#666666" points="229.62,-238 133.38,-238 133.38,-207.5 229.62,-207.5 229.62,-238"/>
<text text-anchor="start" x="141.38" y="-224.5" font-family="Helvetica,sans-Serif" font-size="10.00">s_object::u_data::s</text>
<text text-anchor="middle" x="181.5" y="-213.25" font-family="Helvetica,sans-Serif" font-size="10.00">_sphere</text>
</a>
</g>
</g>
<!-- Node4&#45;&gt;Node11 -->
<g id="edge13_Node000011_Node000004" class="edge">
<title>Node4&#45;&gt;Node11</title>
<g id="a_edge13_Node000011_Node000004"><a xlink:title=" ">
<path fill="none" stroke="#9a32cd" stroke-dasharray="5,2" d="M165.04,-297.47C154.99,-293.52 145.25,-287.54 139.25,-278.5 133.72,-270.17 134.82,-264.96 139.25,-256 142.69,-249.05 148.42,-243.19 154.57,-238.45"/>
<polygon fill="#9a32cd" stroke="#9a32cd" points="163.88,-300.77 174.47,-300.54 166.05,-294.11 163.88,-300.77"/>
</a>
</g>
<text text-anchor="middle" x="159.12" y="-269" font-family="Helvetica,sans-Serif" font-size="10.00" fill="grey"> origin</text>
<text text-anchor="middle" x="159.12" y="-257.75" font-family="Helvetica,sans-Serif" font-size="10.00" fill="grey">transform</text>
</g>
<!-- Node12 -->
<g id="Node000012" class="node">
<title>Node12</title>
<g id="a_Node000012"><a xlink:href="structs__object_1_1u__data_1_1s__plane.html" target="_top" xlink:title=" ">
<polygon fill="white" stroke="#666666" points="343.62,-238 247.38,-238 247.38,-207.5 343.62,-207.5 343.62,-238"/>
<text text-anchor="start" x="255.38" y="-224.5" font-family="Helvetica,sans-Serif" font-size="10.00">s_object::u_data::s</text>
<text text-anchor="middle" x="295.5" y="-213.25" font-family="Helvetica,sans-Serif" font-size="10.00">_plane</text>
</a>
</g>
</g>
<!-- Node4&#45;&gt;Node12 -->
<g id="edge16_Node000012_Node000004" class="edge">
<title>Node4&#45;&gt;Node12</title>
<g id="a_edge16_Node000012_Node000004"><a xlink:title=" ">
<path fill="none" stroke="#9a32cd" stroke-dasharray="5,2" d="M198.16,-284.83C197.27,-275.24 198.05,-264.14 204,-256 209.62,-248.32 228.1,-241.13 247,-235.5"/>
<polygon fill="#9a32cd" stroke="#9a32cd" points="194.71,-285.37 199.75,-294.69 201.62,-284.26 194.71,-285.37"/>
</a>
</g>
<text text-anchor="middle" x="220.75" y="-269" font-family="Helvetica,sans-Serif" font-size="10.00" fill="grey"> origin</text>
<text text-anchor="middle" x="220.75" y="-257.75" font-family="Helvetica,sans-Serif" font-size="10.00" fill="grey">v_orient</text>
</g>
<!-- Node13 -->
<g id="Node000013" class="node">
<title>Node13</title>
<g id="a_Node000013"><a xlink:href="structs__object_1_1u__data_1_1s__cylinder.html" target="_top" xlink:title=" ">
<polygon fill="white" stroke="#666666" points="457.62,-238 361.38,-238 361.38,-207.5 457.62,-207.5 457.62,-238"/>
<text text-anchor="start" x="369.38" y="-224.5" font-family="Helvetica,sans-Serif" font-size="10.00">s_object::u_data::s</text>
<text text-anchor="middle" x="409.5" y="-213.25" font-family="Helvetica,sans-Serif" font-size="10.00">_cylinder</text>
</a>
</g>
</g>
<!-- Node4&#45;&gt;Node13 -->
<g id="edge19_Node000013_Node000004" class="edge">
<title>Node4&#45;&gt;Node13</title>
<g id="a_edge19_Node000013_Node000004"><a xlink:title=" ">
<path fill="none" stroke="#9a32cd" stroke-dasharray="5,2" d="M240.02,-297.53C254.7,-293.43 271.18,-287.33 284.5,-278.5 295.53,-271.19 292.91,-263.22 304,-256 313.79,-249.63 338.21,-242.01 361.09,-235.77"/>
<polygon fill="#9a32cd" stroke="#9a32cd" points="239.51,-294.05 230.69,-299.92 241.25,-300.83 239.51,-294.05"/>
</a>
</g>
<text text-anchor="middle" x="320.75" y="-269" font-family="Helvetica,sans-Serif" font-size="10.00" fill="grey"> origin</text>
<text text-anchor="middle" x="320.75" y="-257.75" font-family="Helvetica,sans-Serif" font-size="10.00" fill="grey">v_orient</text>
</g>
<!-- Node5 -->
<g id="Node000005" class="node">
<title>Node5</title>
<g id="a_Node000005"><a xlink:href="structs__trgb.html" target="_top" xlink:title=" ">
<polygon fill="white" stroke="#666666" points="481,-315.75 438,-315.75 438,-296.5 481,-296.5 481,-315.75"/>
<text text-anchor="middle" x="459.5" y="-302.25" font-family="Helvetica,sans-Serif" font-size="10.00">s_trgb</text>
</a>
</g>
</g>
<!-- Node5&#45;&gt;Node3 -->
<g id="edge4_Node000003_Node000005" class="edge">
<title>Node5&#45;&gt;Node3</title>
<g id="a_edge4_Node000003_Node000005"><a xlink:title=" ">
<path fill="none" stroke="#9a32cd" stroke-dasharray="5,2" d="M477.29,-287.71C479.62,-284.8 481.79,-281.69 483.5,-278.5 491.47,-263.63 495.05,-244.02 496.54,-232.76"/>
<polygon fill="#9a32cd" stroke="#9a32cd" points="474.78,-285.26 470.65,-295.02 479.97,-289.97 474.78,-285.26"/>
</a>
</g>
<text text-anchor="middle" x="503.12" y="-263.38" font-family="Helvetica,sans-Serif" font-size="10.00" fill="grey"> color</text>
</g>
<!-- Node6 -->
<g id="Node000006" class="node">
<title>Node6</title>
<g id="a_Node000006"><a xlink:href="structs__ambient.html" target="_top" xlink:title="Ambient Light [Identifier A].">
<polygon fill="white" stroke="#666666" points="576,-189.5 515,-189.5 515,-170.25 576,-170.25 576,-189.5"/>
<text text-anchor="middle" x="545.5" y="-176" font-family="Helvetica,sans-Serif" font-size="10.00">s_ambient</text>
</a>
</g>
</g>
<!-- Node5&#45;&gt;Node6 -->
<g id="edge6_Node000006_Node000005" class="edge">
<title>Node5&#45;&gt;Node6</title>
<g id="a_edge6_Node000006_Node000005"><a xlink:title=" ">
<path fill="none" stroke="#9a32cd" stroke-dasharray="5,2" d="M492.08,-296.33C501.75,-292.3 511.59,-286.56 518.5,-278.5 541.04,-252.19 544.88,-208.56 545.45,-189.85"/>
<polygon fill="#9a32cd" stroke="#9a32cd" points="491.04,-292.98 482.82,-299.67 493.42,-299.57 491.04,-292.98"/>
</a>
</g>
<text text-anchor="middle" x="543.12" y="-263.38" font-family="Helvetica,sans-Serif" font-size="10.00" fill="grey"> color</text>
</g>
<!-- Node5&#45;&gt;Node11 -->
<g id="edge14_Node000011_Node000005" class="edge">
<title>Node5&#45;&gt;Node11</title>
<g id="a_edge14_Node000011_Node000005"><a xlink:title=" ">
<path fill="none" stroke="#9a32cd" stroke-dasharray="5,2" d="M426.4,-303.68C376.71,-301.02 285.62,-294.13 257.25,-278.5 245.85,-272.22 248.49,-264.34 238.5,-256 230.56,-249.37 221.06,-243.38 212.11,-238.41"/>
<polygon fill="#9a32cd" stroke="#9a32cd" points="426.11,-307.17 436.28,-304.17 426.47,-300.17 426.11,-307.17"/>
</a>
</g>
<text text-anchor="middle" x="268.12" y="-263.38" font-family="Helvetica,sans-Serif" font-size="10.00" fill="grey"> color</text>
</g>
<!-- Node5&#45;&gt;Node12 -->
<g id="edge17_Node000012_Node000005" class="edge">
<title>Node5&#45;&gt;Node12</title>
<g id="a_edge17_Node000012_Node000005"><a xlink:title=" ">
<path fill="none" stroke="#9a32cd" stroke-dasharray="5,2" d="M426.64,-300.06C407.75,-296.15 384.11,-289.49 365.25,-278.5 352.96,-271.34 353.46,-265.06 342.5,-256 335.02,-249.82 326.38,-243.65 318.57,-238.38"/>
<polygon fill="#9a32cd" stroke="#9a32cd" points="425.73,-303.45 436.21,-301.88 427.04,-296.58 425.73,-303.45"/>
</a>
</g>
<text text-anchor="middle" x="376.12" y="-263.38" font-family="Helvetica,sans-Serif" font-size="10.00" fill="grey"> color</text>
</g>
<!-- Node5&#45;&gt;Node13 -->
<g id="edge20_Node000013_Node000005" class="edge">
<title>Node5&#45;&gt;Node13</title>
<g id="a_edge20_Node000013_Node000005"><a xlink:title=" ">
<path fill="none" stroke="#9a32cd" stroke-dasharray="5,2" d="M452.26,-285.49C448.46,-276.22 443.37,-265.19 437.5,-256 433.59,-249.87 428.57,-243.71 423.86,-238.44"/>
<polygon fill="#9a32cd" stroke="#9a32cd" points="448.92,-286.56 455.8,-294.62 455.45,-284.03 448.92,-286.56"/>
</a>
</g>
<text text-anchor="middle" x="460.12" y="-263.38" font-family="Helvetica,sans-Serif" font-size="10.00" fill="grey"> color</text>
</g>
<!-- Node6&#45;&gt;Node1 -->
<g id="edge5_Node000001_Node000006" class="edge">
<title>Node6&#45;&gt;Node1</title>
<g id="a_edge5_Node000001_Node000006"><a xlink:title=" ">
<path fill="none" stroke="#9a32cd" stroke-dasharray="5,2" d="M535.88,-159.82C519.16,-128.8 481.69,-67.8 431.5,-37.25 397.2,-16.37 349.44,-11.55 322.07,-10.62"/>
<polygon fill="#9a32cd" stroke="#9a32cd" points="532.65,-161.19 540.38,-168.43 538.85,-157.95 532.65,-161.19"/>
</a>
</g>
<text text-anchor="middle" x="522.88" y="-105.5" font-family="Helvetica,sans-Serif" font-size="10.00" fill="grey"> a_light</text>
</g>
<!-- Node7&#45;&gt;Node1 -->
<g id="edge7_Node000001_Node000007" class="edge">
<title>Node7&#45;&gt;Node1</title>
<g id="a_edge7_Node000001_Node000007"><a xlink:title=" ">
<path fill="none" stroke="#9a32cd" stroke-dasharray="5,2" d="M98.04,-204.92C142.3,-162.44 257.36,-52.02 291.08,-19.66"/>
<polygon fill="#9a32cd" stroke="#9a32cd" points="95.84,-202.18 91.05,-211.63 100.68,-207.23 95.84,-202.18"/>
</a>
</g>
<text text-anchor="middle" x="219.75" y="-105.5" font-family="Helvetica,sans-Serif" font-size="10.00" fill="grey"> camera</text>
</g>
<!-- Node8 -->
<g id="Node000008" class="node">
<title>Node8</title>
<g id="a_Node000008"><a xlink:href="structs__uv.html" target="_top" xlink:title="UV Coordinates [Identifier uv].">
<polygon fill="white" stroke="#666666" points="37,-315.75 0,-315.75 0,-296.5 37,-296.5 37,-315.75"/>
<text text-anchor="middle" x="18.5" y="-302.25" font-family="Helvetica,sans-Serif" font-size="10.00">s_uv</text>
</a>
</g>
</g>
<!-- Node8&#45;&gt;Node7 -->
<g id="edge9_Node000007_Node000008" class="edge">
<title>Node8&#45;&gt;Node7</title>
<g id="a_edge9_Node000007_Node000008"><a xlink:title=" ">
<path fill="none" stroke="#9a32cd" stroke-dasharray="5,2" d="M14.43,-284.87C13.61,-275.45 14.27,-264.48 19.5,-256 26.48,-244.68 38.87,-237.11 50.67,-232.17"/>
<polygon fill="#9a32cd" stroke="#9a32cd" points="10.93,-285.16 15.88,-294.53 17.85,-284.12 10.93,-285.16"/>
</a>
</g>
<text text-anchor="middle" x="39" y="-263.38" font-family="Helvetica,sans-Serif" font-size="10.00" fill="grey"> viewport</text>
</g>
<!-- Node9 -->
<g id="Node000009" class="node">
<title>Node9</title>
<g id="a_Node000009"><a xlink:href="structs__object.html" target="_top" xlink:title="Object [Identifier O].">
<polygon fill="white" stroke="#666666" points="326.88,-85.75 274.12,-85.75 274.12,-66.5 326.88,-66.5 326.88,-85.75"/>
<text text-anchor="middle" x="300.5" y="-72.25" font-family="Helvetica,sans-Serif" font-size="10.00">s_object</text>
</a>
</g>
</g>
<!-- Node9&#45;&gt;Node1 -->
<g id="edge10_Node000001_Node000009" class="edge">
<title>Node9&#45;&gt;Node1</title>
<g id="a_edge10_Node000001_Node000009"><a xlink:title=" ">
<path fill="none" stroke="#9a32cd" stroke-dasharray="5,2" d="M300.5,-54.65C300.5,-42.82 300.5,-28.54 300.5,-19.52"/>
<polygon fill="#9a32cd" stroke="#9a32cd" points="297,-54.64 300.5,-64.64 304,-54.64 297,-54.64"/>
</a>
</g>
<text text-anchor="middle" x="317.38" y="-39" font-family="Helvetica,sans-Serif" font-size="10.00" fill="grey"> objects</text>
</g>
<!-- Node10 -->
<g id="Node000010" class="node">
<title>Node10</title>
<g id="a_Node000010"><a xlink:href="unions__object_1_1u__data.html" target="_top" xlink:title=" ">
<polygon fill="white" stroke="#666666" points="343.75,-152.25 257.25,-152.25 257.25,-133 343.75,-133 343.75,-152.25"/>
<text text-anchor="middle" x="300.5" y="-138.75" font-family="Helvetica,sans-Serif" font-size="10.00">s_object::u_data</text>
</a>
</g>
</g>
<!-- Node10&#45;&gt;Node9 -->
<g id="edge11_Node000009_Node000010" class="edge">
<title>Node10&#45;&gt;Node9</title>
<g id="a_edge11_Node000009_Node000010"><a xlink:title=" ">
<path fill="none" stroke="#9a32cd" stroke-dasharray="5,2" d="M300.5,-121.15C300.5,-109.32 300.5,-95.04 300.5,-86.02"/>
<polygon fill="#9a32cd" stroke="#9a32cd" points="297,-121.14 300.5,-131.14 304,-121.14 297,-121.14"/>
</a>
</g>
<text text-anchor="middle" x="308" y="-105.5" font-family="Helvetica,sans-Serif" font-size="10.00" fill="grey"> obj</text>
</g>
<!-- Node11&#45;&gt;Node10 -->
<g id="edge12_Node000010_Node000011" class="edge">
<title>Node11&#45;&gt;Node10</title>
<g id="a_edge12_Node000010_Node000011"><a xlink:title=" ">
<path fill="none" stroke="#9a32cd" stroke-dasharray="5,2" d="M213.29,-200.88C237.25,-185.15 268.92,-164.36 286.76,-152.65"/>
<polygon fill="#9a32cd" stroke="#9a32cd" points="211.59,-197.81 205.15,-206.22 215.43,-203.66 211.59,-197.81"/>
</a>
</g>
<text text-anchor="middle" x="274.25" y="-176" font-family="Helvetica,sans-Serif" font-size="10.00" fill="grey"> sphere</text>
</g>
<!-- Node12&#45;&gt;Node10 -->
<g id="edge15_Node000010_Node000012" class="edge">
<title>Node12&#45;&gt;Node10</title>
<g id="a_edge15_Node000010_Node000012"><a xlink:title=" ">
<path fill="none" stroke="#9a32cd" stroke-dasharray="5,2" d="M297.16,-195.85C298.12,-180.84 299.27,-162.9 299.94,-152.43"/>
<polygon fill="#9a32cd" stroke="#9a32cd" points="293.68,-195.34 296.54,-205.54 300.67,-195.79 293.68,-195.34"/>
</a>
</g>
<text text-anchor="middle" x="311.25" y="-176" font-family="Helvetica,sans-Serif" font-size="10.00" fill="grey"> plane</text>
</g>
<!-- Node13&#45;&gt;Node10 -->
<g id="edge18_Node000010_Node000013" class="edge">
<title>Node13&#45;&gt;Node10</title>
<g id="a_edge18_Node000010_Node000013"><a xlink:title=" ">
<path fill="none" stroke="#9a32cd" stroke-dasharray="5,2" d="M379.8,-200.46C357.92,-184.78 329.28,-164.25 313.09,-152.65"/>
<polygon fill="#9a32cd" stroke="#9a32cd" points="377.6,-203.19 387.77,-206.17 381.68,-197.5 377.6,-203.19"/>
</a>
</g>
<text text-anchor="middle" x="379.12" y="-176" font-family="Helvetica,sans-Serif" font-size="10.00" fill="grey"> cylinder</text>
</g>
</g>
</svg>
