<?xml version="1.0" encoding="UTF-8" standalone="no"?>
<!DOCTYPE svg PUBLIC "-//W3C//DTD SVG 1.1//EN"
 "http://www.w3.org/Graphics/SVG/1.1/DTD/svg11.dtd">
<!-- Generated by graphviz version 9.0.0 (20230911.1827)
 -->
<!-- Title: s_camera Pages: 1 -->
<svg width="124pt" height="105pt"
 viewBox="0.00 0.00 124.38 105.00" xmlns="http://www.w3.org/2000/svg" xmlns:xlink="http://www.w3.org/1999/xlink">
<g id="graph0" class="graph" transform="scale(1 1) rotate(0) translate(4 101)">
<title>s_camera</title>
<!-- Node1 -->
<g id="Node000001" class="node">
<title>Node1</title>
<g id="a_Node000001"><a xlink:title="Camera [Identifier C].">
<polygon fill="#999999" stroke="#666666" points="86.75,-19.25 28,-19.25 28,0 86.75,0 86.75,-19.25"/>
<text text-anchor="middle" x="57.38" y="-5.75" font-family="Helvetica,sans-Serif" font-size="10.00">s_camera</text>
</a>
</g>
</g>
<!-- Node2 -->
<g id="Node000002" class="node">
<title>Node2</title>
<g id="a_Node000002"><a xlink:href="structs__matrix.html" target="_top" xlink:title="n x m size matrix where values are stored in double **data">
<polygon fill="white" stroke="#666666" points="52.75,-97 0,-97 0,-77.75 52.75,-77.75 52.75,-97"/>
<text text-anchor="middle" x="26.38" y="-83.5" font-family="Helvetica,sans-Serif" font-size="10.00">s_matrix</text>
</a>
</g>
</g>
<!-- Node2&#45;&gt;Node1 -->
<g id="edge1_Node000001_Node000002" class="edge">
<title>Node2&#45;&gt;Node1</title>
<g id="a_edge1_Node000001_Node000002"><a xlink:title=" ">
<path fill="none" stroke="#9a32cd" stroke-dasharray="5,2" d="M26.29,-66.36C26.93,-57.13 28.66,-46.25 32.88,-37.25 36.02,-30.54 41.47,-24.36 46.43,-19.64"/>
<polygon fill="#9a32cd" stroke="#9a32cd" points="22.8,-65.98 26.02,-76.08 29.8,-66.18 22.8,-65.98"/>
</a>
</g>
<text text-anchor="middle" x="49.62" y="-50.25" font-family="Helvetica,sans-Serif" font-size="10.00" fill="grey"> origin</text>
<text text-anchor="middle" x="49.62" y="-39" font-family="Helvetica,sans-Serif" font-size="10.00" fill="grey">v_orient</text>
</g>
<!-- Node3 -->
<g id="Node000003" class="node">
<title>Node3</title>
<g id="a_Node000003"><a xlink:href="structs__uv.html" target="_top" xlink:title="UV Coordinates [Identifier uv].">
<polygon fill="white" stroke="#666666" points="107.88,-97 70.88,-97 70.88,-77.75 107.88,-77.75 107.88,-97"/>
<text text-anchor="middle" x="89.38" y="-83.5" font-family="Helvetica,sans-Serif" font-size="10.00">s_uv</text>
</a>
</g>
</g>
<!-- Node3&#45;&gt;Node1 -->
<g id="edge2_Node000001_Node000003" class="edge">
<title>Node3&#45;&gt;Node1</title>
<g id="a_edge2_Node000001_Node000003"><a xlink:title=" ">
<path fill="none" stroke="#9a32cd" stroke-dasharray="5,2" d="M81.19,-67C74.75,-51.76 66.07,-31.21 61.17,-19.6"/>
<polygon fill="#9a32cd" stroke="#9a32cd" points="77.87,-68.14 84.99,-75.99 84.32,-65.42 77.87,-68.14"/>
</a>
</g>
<text text-anchor="middle" x="96.88" y="-44.62" font-family="Helvetica,sans-Serif" font-size="10.00" fill="grey"> viewport</text>
</g>
</g>
</svg>
