<?xml version="1.0" encoding="UTF-8" standalone="no"?>
<!DOCTYPE svg PUBLIC "-//W3C//DTD SVG 1.1//EN"
 "http://www.w3.org/Graphics/SVG/1.1/DTD/svg11.dtd">
<!-- Generated by graphviz version 9.0.0 (20230911.1827)
 -->
<!-- Title: s_comps Pages: 1 -->
<svg width="410pt" height="330pt"
 viewBox="0.00 0.00 410.38 330.25" xmlns="http://www.w3.org/2000/svg" xmlns:xlink="http://www.w3.org/1999/xlink">
<g id="graph0" class="graph" transform="scale(1 1) rotate(0) translate(4 326.25)">
<title>s_comps</title>
<!-- Node1 -->
<g id="Node000001" class="node">
<title>Node1</title>
<g id="a_Node000001"><a xlink:title=" ">
<polygon fill="#999999" stroke="#666666" points="353,-19.25 297.25,-19.25 297.25,0 353,0 353,-19.25"/>
<text text-anchor="middle" x="325.12" y="-5.75" font-family="Helvetica,sans-Serif" font-size="10.00">s_comps</text>
</a>
</g>
</g>
<!-- Node2 -->
<g id="Node000002" class="node">
<title>Node2</title>
<g id="a_Node000002"><a xlink:href="structs__object.html" target="_top" xlink:title="Object [Identifier O].">
<polygon fill="white" stroke="#666666" points="318.5,-85.75 265.75,-85.75 265.75,-66.5 318.5,-66.5 318.5,-85.75"/>
<text text-anchor="middle" x="292.12" y="-72.25" font-family="Helvetica,sans-Serif" font-size="10.00">s_object</text>
</a>
</g>
</g>
<!-- Node2&#45;&gt;Node1 -->
<g id="edge1_Node000001_Node000002" class="edge">
<title>Node2&#45;&gt;Node1</title>
<g id="a_edge1_Node000001_Node000002"><a xlink:title=" ">
<path fill="none" stroke="#9a32cd" stroke-dasharray="5,2" d="M300.62,-55.81C303.38,-49.8 306.53,-43.2 309.62,-37.25 312.79,-31.18 316.66,-24.52 319.75,-19.38"/>
<polygon fill="#9a32cd" stroke="#9a32cd" points="297.44,-54.35 296.54,-64.91 303.83,-57.21 297.44,-54.35"/>
</a>
</g>
<text text-anchor="middle" x="323.38" y="-39" font-family="Helvetica,sans-Serif" font-size="10.00" fill="grey"> object</text>
</g>
<!-- Node3 -->
<g id="Node000003" class="node">
<title>Node3</title>
<g id="a_Node000003"><a xlink:href="unions__object_1_1u__data.html" target="_top" xlink:title=" ">
<polygon fill="white" stroke="#666666" points="261.38,-159.5 174.88,-159.5 174.88,-140.25 261.38,-140.25 261.38,-159.5"/>
<text text-anchor="middle" x="218.12" y="-146" font-family="Helvetica,sans-Serif" font-size="10.00">s_object::u_data</text>
</a>
</g>
</g>
<!-- Node3&#45;&gt;Node2 -->
<g id="edge2_Node000002_Node000003" class="edge">
<title>Node3&#45;&gt;Node2</title>
<g id="a_edge2_Node000002_Node000003"><a xlink:title=" ">
<path fill="none" stroke="#9a32cd" stroke-dasharray="5,2" d="M235.46,-132.07C250.36,-117.62 271.25,-97.36 283.06,-85.91"/>
<polygon fill="#9a32cd" stroke="#9a32cd" points="233.33,-129.26 228.58,-138.73 238.2,-134.29 233.33,-129.26"/>
</a>
</g>
<text text-anchor="middle" x="270.62" y="-105.5" font-family="Helvetica,sans-Serif" font-size="10.00" fill="grey"> obj</text>
</g>
<!-- Node4 -->
<g id="Node000004" class="node">
<title>Node4</title>
<g id="a_Node000004"><a xlink:href="structs__object_1_1u__data_1_1s__sphere.html" target="_top" xlink:title="Sphere Object [Identifier sp].">
<polygon fill="white" stroke="#666666" points="324.25,-244.5 228,-244.5 228,-214 324.25,-214 324.25,-244.5"/>
<text text-anchor="start" x="236" y="-231" font-family="Helvetica,sans-Serif" font-size="10.00">s_object::u_data::s</text>
<text text-anchor="middle" x="276.12" y="-219.75" font-family="Helvetica,sans-Serif" font-size="10.00">_sphere</text>
</a>
</g>
</g>
<!-- Node4&#45;&gt;Node3 -->
<g id="edge3_Node000003_Node000004" class="edge">
<title>Node4&#45;&gt;Node3</title>
<g id="a_edge3_Node000003_Node000004"><a xlink:title=" ">
<path fill="none" stroke="#9a32cd" stroke-dasharray="5,2" d="M258.53,-204.78C247.08,-189.51 232.82,-170.47 224.66,-159.59"/>
<polygon fill="#9a32cd" stroke="#9a32cd" points="255.51,-206.58 264.31,-212.49 261.11,-202.38 255.51,-206.58"/>
</a>
</g>
<text text-anchor="middle" x="265.88" y="-186.5" font-family="Helvetica,sans-Serif" font-size="10.00" fill="grey"> sphere</text>
</g>
<!-- Node5 -->
<g id="Node000005" class="node">
<title>Node5</title>
<g id="a_Node000005"><a xlink:href="structs__matrix.html" target="_top" xlink:title="n x m size matrix where values are stored in double **data">
<polygon fill="white" stroke="#666666" points="293.5,-322.25 240.75,-322.25 240.75,-303 293.5,-303 293.5,-322.25"/>
<text text-anchor="middle" x="267.12" y="-308.75" font-family="Helvetica,sans-Serif" font-size="10.00">s_matrix</text>
</a>
</g>
</g>
<!-- Node5&#45;&gt;Node1 -->
<g id="edge12_Node000001_Node000005" class="edge">
<title>Node5&#45;&gt;Node1</title>
<g id="a_edge12_Node000001_Node000005"><a xlink:title=" ">
<path fill="none" stroke="#9a32cd" stroke-dasharray="5,2" d="M303.29,-297.57C309.68,-294.08 315.94,-289.9 321.12,-285 341.45,-265.8 352.12,-258.21 352.12,-230.25 352.12,-230.25 352.12,-230.25 352.12,-75.12 352.12,-54 339.65,-31.8 331.66,-19.74"/>
<polygon fill="#9a32cd" stroke="#9a32cd" points="302.05,-294.28 294.63,-301.84 305.15,-300.56 302.05,-294.28"/>
</a>
</g>
<text text-anchor="middle" x="377.25" y="-157.25" font-family="Helvetica,sans-Serif" font-size="10.00" fill="grey"> p_intersect</text>
<text text-anchor="middle" x="377.25" y="-146" font-family="Helvetica,sans-Serif" font-size="10.00" fill="grey">v_eye</text>
<text text-anchor="middle" x="377.25" y="-134.75" font-family="Helvetica,sans-Serif" font-size="10.00" fill="grey">v_normal</text>
</g>
<!-- Node5&#45;&gt;Node4 -->
<g id="edge4_Node000004_Node000005" class="edge">
<title>Node5&#45;&gt;Node4</title>
<g id="a_edge4_Node000004_Node000005"><a xlink:title=" ">
<path fill="none" stroke="#9a32cd" stroke-dasharray="5,2" d="M272.81,-291.95C273.33,-289.62 273.79,-287.27 274.12,-285 276.13,-271.45 276.51,-255.82 276.46,-244.74"/>
<polygon fill="#9a32cd" stroke="#9a32cd" points="269.49,-290.83 270.34,-301.39 276.26,-292.6 269.49,-290.83"/>
</a>
</g>
<text text-anchor="middle" x="296.75" y="-275.5" font-family="Helvetica,sans-Serif" font-size="10.00" fill="grey"> origin</text>
<text text-anchor="middle" x="296.75" y="-264.25" font-family="Helvetica,sans-Serif" font-size="10.00" fill="grey">transform</text>
</g>
<!-- Node7 -->
<g id="Node000007" class="node">
<title>Node7</title>
<g id="a_Node000007"><a xlink:href="structs__object_1_1u__data_1_1s__plane.html" target="_top" xlink:title="Plane Object [Identifier pl].">
<polygon fill="white" stroke="#666666" points="96.25,-244.5 0,-244.5 0,-214 96.25,-214 96.25,-244.5"/>
<text text-anchor="start" x="8" y="-231" font-family="Helvetica,sans-Serif" font-size="10.00">s_object::u_data::s</text>
<text text-anchor="middle" x="48.12" y="-219.75" font-family="Helvetica,sans-Serif" font-size="10.00">_plane</text>
</a>
</g>
</g>
<!-- Node5&#45;&gt;Node7 -->
<g id="edge7_Node000007_Node000005" class="edge">
<title>Node5&#45;&gt;Node7</title>
<g id="a_edge7_Node000007_Node000005"><a xlink:title=" ">
<path fill="none" stroke="#9a32cd" stroke-dasharray="5,2" d="M229.25,-310.74C200.71,-308.59 161.52,-302.33 131.62,-285 120.18,-278.36 122.56,-270.63 112.12,-262.5 103.49,-255.77 93.23,-249.86 83.48,-244.99"/>
<polygon fill="#9a32cd" stroke="#9a32cd" points="228.68,-314.22 238.87,-311.33 229.1,-307.23 228.68,-314.22"/>
</a>
</g>
<text text-anchor="middle" x="148.38" y="-275.5" font-family="Helvetica,sans-Serif" font-size="10.00" fill="grey"> origin</text>
<text text-anchor="middle" x="148.38" y="-264.25" font-family="Helvetica,sans-Serif" font-size="10.00" fill="grey">v_orient</text>
</g>
<!-- Node8 -->
<g id="Node000008" class="node">
<title>Node8</title>
<g id="a_Node000008"><a xlink:href="structs__object_1_1u__data_1_1s__cylinder.html" target="_top" xlink:title="Cylinder Object [Identifier cy].">
<polygon fill="white" stroke="#666666" points="210.25,-244.5 114,-244.5 114,-214 210.25,-214 210.25,-244.5"/>
<text text-anchor="start" x="122" y="-231" font-family="Helvetica,sans-Serif" font-size="10.00">s_object::u_data::s</text>
<text text-anchor="middle" x="162.12" y="-219.75" font-family="Helvetica,sans-Serif" font-size="10.00">_cylinder</text>
</a>
</g>
</g>
<!-- Node5&#45;&gt;Node8 -->
<g id="edge10_Node000008_Node000005" class="edge">
<title>Node5&#45;&gt;Node8</title>
<g id="a_edge10_Node000008_Node000005"><a xlink:title=" ">
<path fill="none" stroke="#9a32cd" stroke-dasharray="5,2" d="M247.01,-295.43C243.13,-292.08 239.18,-288.51 235.62,-285 226.21,-275.7 226.27,-271 216.12,-262.5 208.34,-255.98 199.09,-249.94 190.46,-244.89"/>
<polygon fill="#9a32cd" stroke="#9a32cd" points="244.6,-297.97 254.51,-301.7 249.08,-292.6 244.6,-297.97"/>
</a>
</g>
<text text-anchor="middle" x="252.38" y="-275.5" font-family="Helvetica,sans-Serif" font-size="10.00" fill="grey"> origin</text>
<text text-anchor="middle" x="252.38" y="-264.25" font-family="Helvetica,sans-Serif" font-size="10.00" fill="grey">v_orient</text>
</g>
<!-- Node6 -->
<g id="Node000006" class="node">
<title>Node6</title>
<g id="a_Node000006"><a xlink:href="structs__trgb.html" target="_top" xlink:title=" ">
<polygon fill="white" stroke="#666666" points="109.62,-322.25 66.62,-322.25 66.62,-303 109.62,-303 109.62,-322.25"/>
<text text-anchor="middle" x="88.12" y="-308.75" font-family="Helvetica,sans-Serif" font-size="10.00">s_trgb</text>
</a>
</g>
</g>
<!-- Node6&#45;&gt;Node4 -->
<g id="edge5_Node000004_Node000006" class="edge">
<title>Node6&#45;&gt;Node4</title>
<g id="a_edge5_Node000004_Node000006"><a xlink:title=" ">
<path fill="none" stroke="#9a32cd" stroke-dasharray="5,2" d="M120.73,-305.5C136.59,-301.45 155.36,-294.99 170.12,-285 180.91,-277.7 178.24,-270.01 188.88,-262.5 200.48,-254.3 214.42,-247.93 227.71,-243.09"/>
<polygon fill="#9a32cd" stroke="#9a32cd" points="120.22,-302.02 111.27,-307.69 121.81,-308.84 120.22,-302.02"/>
</a>
</g>
<text text-anchor="middle" x="199.75" y="-269.88" font-family="Helvetica,sans-Serif" font-size="10.00" fill="grey"> color</text>
</g>
<!-- Node6&#45;&gt;Node7 -->
<g id="edge8_Node000007_Node000006" class="edge">
<title>Node6&#45;&gt;Node7</title>
<g id="a_edge8_Node000007_Node000006"><a xlink:title=" ">
<path fill="none" stroke="#9a32cd" stroke-dasharray="5,2" d="M56.89,-299.12C51.28,-295.43 46.18,-290.78 42.88,-285 35.86,-272.73 38.71,-256.35 42.36,-244.71"/>
<polygon fill="#9a32cd" stroke="#9a32cd" points="54.79,-301.96 65.24,-303.73 58.18,-295.83 54.79,-301.96"/>
</a>
</g>
<text text-anchor="middle" x="54.75" y="-269.88" font-family="Helvetica,sans-Serif" font-size="10.00" fill="grey"> color</text>
</g>
<!-- Node6&#45;&gt;Node8 -->
<g id="edge11_Node000008_Node000006" class="edge">
<title>Node6&#45;&gt;Node8</title>
<g id="a_edge11_Node000008_Node000006"><a xlink:title=" ">
<path fill="none" stroke="#9a32cd" stroke-dasharray="5,2" d="M83.7,-291.55C82.72,-282.02 83.3,-270.9 88.88,-262.5 94.87,-253.47 104.01,-246.95 113.82,-242.24"/>
<polygon fill="#9a32cd" stroke="#9a32cd" points="80.23,-292.04 85.36,-301.32 87.13,-290.87 80.23,-292.04"/>
</a>
</g>
<text text-anchor="middle" x="99.75" y="-269.88" font-family="Helvetica,sans-Serif" font-size="10.00" fill="grey"> color</text>
</g>
<!-- Node7&#45;&gt;Node3 -->
<g id="edge6_Node000003_Node000007" class="edge">
<title>Node7&#45;&gt;Node3</title>
<g id="a_edge6_Node000003_Node000007"><a xlink:title=" ">
<path fill="none" stroke="#9a32cd" stroke-dasharray="5,2" d="M90.73,-208.86C125.08,-193.23 171.85,-171.94 198.11,-159.99"/>
<polygon fill="#9a32cd" stroke="#9a32cd" points="89.53,-205.56 81.88,-212.89 92.43,-211.93 89.53,-205.56"/>
</a>
</g>
<text text-anchor="middle" x="155.88" y="-186.5" font-family="Helvetica,sans-Serif" font-size="10.00" fill="grey"> plane</text>
</g>
<!-- Node8&#45;&gt;Node3 -->
<g id="edge9_Node000003_Node000008" class="edge">
<title>Node8&#45;&gt;Node3</title>
<g id="a_edge9_Node000003_Node000008"><a xlink:title=" ">
<path fill="none" stroke="#9a32cd" stroke-dasharray="5,2" d="M179.11,-204.78C190.16,-189.51 203.94,-170.47 211.82,-159.59"/>
<polygon fill="#9a32cd" stroke="#9a32cd" points="176.57,-202.32 173.55,-212.47 182.24,-206.42 176.57,-202.32"/>
</a>
</g>
<text text-anchor="middle" x="210.75" y="-186.5" font-family="Helvetica,sans-Serif" font-size="10.00" fill="grey"> cylinder</text>
</g>
</g>
</svg>
