<?xml version="1.0" encoding="UTF-8" standalone="no"?>
<!DOCTYPE svg PUBLIC "-//W3C//DTD SVG 1.1//EN"
 "http://www.w3.org/Graphics/SVG/1.1/DTD/svg11.dtd">
<!-- Generated by graphviz version 9.0.0 (20230911.1827)
 -->
<!-- Title: s_object Pages: 1 -->
<svg width="332pt" height="249pt"
 viewBox="0.00 0.00 332.25 249.25" xmlns="http://www.w3.org/2000/svg" xmlns:xlink="http://www.w3.org/1999/xlink">
<g id="graph0" class="graph" transform="scale(1 1) rotate(0) translate(4 245.25)">
<title>s_object</title>
<!-- Node1 -->
<g id="Node000001" class="node">
<title>Node1</title>
<g id="a_Node000001"><a xlink:title="Object [Identifier O].">
<polygon fill="#999999" stroke="#666666" points="188.5,-19.25 135.75,-19.25 135.75,0 188.5,0 188.5,-19.25"/>
<text text-anchor="middle" x="162.12" y="-5.75" font-family="Helvetica,sans-Serif" font-size="10.00">s_object</text>
</a>
</g>
</g>
<!-- Node2 -->
<g id="Node000002" class="node">
<title>Node2</title>
<g id="a_Node000002"><a xlink:href="unions__object_1_1u__data.html" target="_top" xlink:title=" ">
<polygon fill="white" stroke="#666666" points="205.38,-85.75 118.88,-85.75 118.88,-66.5 205.38,-66.5 205.38,-85.75"/>
<text text-anchor="middle" x="162.12" y="-72.25" font-family="Helvetica,sans-Serif" font-size="10.00">s_object::u_data</text>
</a>
</g>
</g>
<!-- Node2&#45;&gt;Node1 -->
<g id="edge1_Node000001_Node000002" class="edge">
<title>Node2&#45;&gt;Node1</title>
<g id="a_edge1_Node000001_Node000002"><a xlink:title=" ">
<path fill="none" stroke="#9a32cd" stroke-dasharray="5,2" d="M162.12,-54.65C162.12,-42.82 162.12,-28.54 162.12,-19.52"/>
<polygon fill="#9a32cd" stroke="#9a32cd" points="158.63,-54.64 162.13,-64.64 165.63,-54.64 158.63,-54.64"/>
</a>
</g>
<text text-anchor="middle" x="169.62" y="-39" font-family="Helvetica,sans-Serif" font-size="10.00" fill="grey"> obj</text>
</g>
<!-- Node3 -->
<g id="Node000003" class="node">
<title>Node3</title>
<g id="a_Node000003"><a xlink:href="structs__object_1_1u__data_1_1s__sphere.html" target="_top" xlink:title="Sphere Object [Identifier sp].">
<polygon fill="white" stroke="#666666" points="96.25,-163.5 0,-163.5 0,-133 96.25,-133 96.25,-163.5"/>
<text text-anchor="start" x="8" y="-150" font-family="Helvetica,sans-Serif" font-size="10.00">s_object::u_data::s</text>
<text text-anchor="middle" x="48.12" y="-138.75" font-family="Helvetica,sans-Serif" font-size="10.00">_sphere</text>
</a>
</g>
</g>
<!-- Node3&#45;&gt;Node2 -->
<g id="edge2_Node000002_Node000003" class="edge">
<title>Node3&#45;&gt;Node2</title>
<g id="a_edge2_Node000002_Node000003"><a xlink:title=" ">
<path fill="none" stroke="#9a32cd" stroke-dasharray="5,2" d="M81.59,-126.67C103.38,-113.26 130.74,-96.43 147.31,-86.24"/>
<polygon fill="#9a32cd" stroke="#9a32cd" points="80,-123.54 73.31,-131.76 83.66,-129.5 80,-123.54"/>
</a>
</g>
<text text-anchor="middle" x="133.88" y="-105.5" font-family="Helvetica,sans-Serif" font-size="10.00" fill="grey"> sphere</text>
</g>
<!-- Node4 -->
<g id="Node000004" class="node">
<title>Node4</title>
<g id="a_Node000004"><a xlink:href="structs__matrix.html" target="_top" xlink:title="n x m size matrix where values are stored in double **data">
<polygon fill="white" stroke="#666666" points="116.5,-241.25 63.75,-241.25 63.75,-222 116.5,-222 116.5,-241.25"/>
<text text-anchor="middle" x="90.12" y="-227.75" font-family="Helvetica,sans-Serif" font-size="10.00">s_matrix</text>
</a>
</g>
</g>
<!-- Node4&#45;&gt;Node3 -->
<g id="edge3_Node000003_Node000004" class="edge">
<title>Node4&#45;&gt;Node3</title>
<g id="a_edge3_Node000003_Node000004"><a xlink:title=" ">
<path fill="none" stroke="#9a32cd" stroke-dasharray="5,2" d="M52.66,-222.97C42.61,-219.02 32.88,-213.04 26.88,-204 18.53,-191.43 26.93,-175.09 35.51,-163.55"/>
<polygon fill="#9a32cd" stroke="#9a32cd" points="51.51,-226.27 62.1,-226.04 53.67,-219.61 51.51,-226.27"/>
</a>
</g>
<text text-anchor="middle" x="46.75" y="-194.5" font-family="Helvetica,sans-Serif" font-size="10.00" fill="grey"> origin</text>
<text text-anchor="middle" x="46.75" y="-183.25" font-family="Helvetica,sans-Serif" font-size="10.00" fill="grey">transform</text>
</g>
<!-- Node6 -->
<g id="Node000006" class="node">
<title>Node6</title>
<g id="a_Node000006"><a xlink:href="structs__object_1_1u__data_1_1s__plane.html" target="_top" xlink:title="Plane Object [Identifier pl].">
<polygon fill="white" stroke="#666666" points="324.25,-163.5 228,-163.5 228,-133 324.25,-133 324.25,-163.5"/>
<text text-anchor="start" x="236" y="-150" font-family="Helvetica,sans-Serif" font-size="10.00">s_object::u_data::s</text>
<text text-anchor="middle" x="276.12" y="-138.75" font-family="Helvetica,sans-Serif" font-size="10.00">_plane</text>
</a>
</g>
</g>
<!-- Node4&#45;&gt;Node6 -->
<g id="edge6_Node000006_Node000004" class="edge">
<title>Node4&#45;&gt;Node6</title>
<g id="a_edge6_Node000006_Node000004"><a xlink:title=" ">
<path fill="none" stroke="#9a32cd" stroke-dasharray="5,2" d="M127.65,-223.03C142.33,-218.93 158.8,-212.83 172.12,-204 183.16,-196.69 180.78,-189.09 191.62,-181.5 202.43,-173.94 215.24,-167.86 227.58,-163.12"/>
<polygon fill="#9a32cd" stroke="#9a32cd" points="127.14,-219.55 118.32,-225.42 128.88,-226.33 127.14,-219.55"/>
</a>
</g>
<text text-anchor="middle" x="208.38" y="-194.5" font-family="Helvetica,sans-Serif" font-size="10.00" fill="grey"> origin</text>
<text text-anchor="middle" x="208.38" y="-183.25" font-family="Helvetica,sans-Serif" font-size="10.00" fill="grey">v_orient</text>
</g>
<!-- Node7 -->
<g id="Node000007" class="node">
<title>Node7</title>
<g id="a_Node000007"><a xlink:href="structs__object_1_1u__data_1_1s__cylinder.html" target="_top" xlink:title="Cylinder Object [Identifier cy].">
<polygon fill="white" stroke="#666666" points="210.25,-163.5 114,-163.5 114,-133 210.25,-133 210.25,-163.5"/>
<text text-anchor="start" x="122" y="-150" font-family="Helvetica,sans-Serif" font-size="10.00">s_object::u_data::s</text>
<text text-anchor="middle" x="162.12" y="-138.75" font-family="Helvetica,sans-Serif" font-size="10.00">_cylinder</text>
</a>
</g>
</g>
<!-- Node4&#45;&gt;Node7 -->
<g id="edge9_Node000007_Node000004" class="edge">
<title>Node4&#45;&gt;Node7</title>
<g id="a_edge9_Node000007_Node000004"><a xlink:title=" ">
<path fill="none" stroke="#9a32cd" stroke-dasharray="5,2" d="M86.11,-210.55C85.3,-201.02 86.05,-189.9 91.62,-181.5 96.99,-173.43 104.91,-167.34 113.53,-162.77"/>
<polygon fill="#9a32cd" stroke="#9a32cd" points="82.63,-210.94 87.58,-220.31 89.55,-209.9 82.63,-210.94"/>
</a>
</g>
<text text-anchor="middle" x="108.38" y="-194.5" font-family="Helvetica,sans-Serif" font-size="10.00" fill="grey"> origin</text>
<text text-anchor="middle" x="108.38" y="-183.25" font-family="Helvetica,sans-Serif" font-size="10.00" fill="grey">v_orient</text>
</g>
<!-- Node5 -->
<g id="Node000005" class="node">
<title>Node5</title>
<g id="a_Node000005"><a xlink:href="structs__trgb.html" target="_top" xlink:title=" ">
<polygon fill="white" stroke="#666666" points="273.62,-241.25 230.62,-241.25 230.62,-222 273.62,-222 273.62,-241.25"/>
<text text-anchor="middle" x="252.12" y="-227.75" font-family="Helvetica,sans-Serif" font-size="10.00">s_trgb</text>
</a>
</g>
</g>
<!-- Node5&#45;&gt;Node3 -->
<g id="edge4_Node000003_Node000005" class="edge">
<title>Node5&#45;&gt;Node3</title>
<g id="a_edge4_Node000003_Node000005"><a xlink:title=" ">
<path fill="none" stroke="#9a32cd" stroke-dasharray="5,2" d="M219.15,-227.84C196.8,-224.71 167.34,-218.07 144.88,-204 133.84,-197.09 136.61,-189.21 126.12,-181.5 116.56,-174.47 105.24,-168.66 94.23,-164"/>
<polygon fill="#9a32cd" stroke="#9a32cd" points="218.59,-231.3 228.94,-229.03 219.43,-224.35 218.59,-231.3"/>
</a>
</g>
<text text-anchor="middle" x="155.75" y="-188.88" font-family="Helvetica,sans-Serif" font-size="10.00" fill="grey"> color</text>
</g>
<!-- Node5&#45;&gt;Node6 -->
<g id="edge7_Node000006_Node000005" class="edge">
<title>Node5&#45;&gt;Node6</title>
<g id="a_edge7_Node000006_Node000005"><a xlink:title=" ">
<path fill="none" stroke="#9a32cd" stroke-dasharray="5,2" d="M270.76,-213.4C272.95,-210.49 274.85,-207.32 276.12,-204 281.1,-191.05 280.4,-175.06 278.88,-163.71"/>
<polygon fill="#9a32cd" stroke="#9a32cd" points="268.35,-210.84 264.25,-220.61 273.55,-215.53 268.35,-210.84"/>
</a>
</g>
<text text-anchor="middle" x="290.75" y="-188.88" font-family="Helvetica,sans-Serif" font-size="10.00" fill="grey"> color</text>
</g>
<!-- Node5&#45;&gt;Node7 -->
<g id="edge10_Node000007_Node000005" class="edge">
<title>Node5&#45;&gt;Node7</title>
<g id="a_edge10_Node000007_Node000005"><a xlink:title=" ">
<path fill="none" stroke="#9a32cd" stroke-dasharray="5,2" d="M246.81,-210.76C243.37,-200.97 238.02,-189.57 230.12,-181.5 223.09,-174.31 214.13,-168.53 205.05,-163.95"/>
<polygon fill="#9a32cd" stroke="#9a32cd" points="243.4,-211.57 249.66,-220.11 250.09,-209.53 243.4,-211.57"/>
</a>
</g>
<text text-anchor="middle" x="254.75" y="-188.88" font-family="Helvetica,sans-Serif" font-size="10.00" fill="grey"> color</text>
</g>
<!-- Node6&#45;&gt;Node2 -->
<g id="edge5_Node000002_Node000006" class="edge">
<title>Node6&#45;&gt;Node2</title>
<g id="a_edge5_Node000002_Node000006"><a xlink:title=" ">
<path fill="none" stroke="#9a32cd" stroke-dasharray="5,2" d="M242.66,-126.67C220.87,-113.26 193.51,-96.43 176.94,-86.24"/>
<polygon fill="#9a32cd" stroke="#9a32cd" points="240.59,-129.5 250.94,-131.76 244.25,-123.54 240.59,-129.5"/>
</a>
</g>
<text text-anchor="middle" x="234.88" y="-105.5" font-family="Helvetica,sans-Serif" font-size="10.00" fill="grey"> plane</text>
</g>
<!-- Node7&#45;&gt;Node2 -->
<g id="edge8_Node000002_Node000007" class="edge">
<title>Node7&#45;&gt;Node2</title>
<g id="a_edge8_Node000002_Node000007"><a xlink:title=" ">
<path fill="none" stroke="#9a32cd" stroke-dasharray="5,2" d="M162.12,-121.48C162.12,-108.98 162.12,-94.77 162.12,-85.88"/>
<polygon fill="#9a32cd" stroke="#9a32cd" points="158.63,-121.21 162.13,-131.21 165.63,-121.21 158.63,-121.21"/>
</a>
</g>
<text text-anchor="middle" x="179.75" y="-105.5" font-family="Helvetica,sans-Serif" font-size="10.00" fill="grey"> cylinder</text>
</g>
</g>
</svg>
