<?xml version="1.0" encoding="UTF-8" standalone="no"?>
<!DOCTYPE svg PUBLIC "-//W3C//DTD SVG 1.1//EN"
 "http://www.w3.org/Graphics/SVG/1.1/DTD/svg11.dtd">
<!-- Generated by graphviz version 9.0.0 (20230911.1827)
 -->
<!-- Title: s_light Pages: 1 -->
<svg width="122pt" height="94pt"
 viewBox="0.00 0.00 121.88 93.75" xmlns="http://www.w3.org/2000/svg" xmlns:xlink="http://www.w3.org/1999/xlink">
<g id="graph0" class="graph" transform="scale(1 1) rotate(0) translate(4 89.75)">
<title>s_light</title>
<!-- Node1 -->
<g id="Node000001" class="node">
<title>Node1</title>
<g id="a_Node000001"><a xlink:title="Spot Light [Identifier L].">
<polygon fill="#999999" stroke="#666666" points="81.62,-19.25 37.12,-19.25 37.12,0 81.62,0 81.62,-19.25"/>
<text text-anchor="middle" x="59.38" y="-5.75" font-family="Helvetica,sans-Serif" font-size="10.00">s_light</text>
</a>
</g>
</g>
<!-- Node2 -->
<g id="Node000002" class="node">
<title>Node2</title>
<g id="a_Node000002"><a xlink:href="structs__matrix.html" target="_top" xlink:title="n x m size matrix where values are stored in double **data">
<polygon fill="white" stroke="#666666" points="52.75,-85.75 0,-85.75 0,-66.5 52.75,-66.5 52.75,-85.75"/>
<text text-anchor="middle" x="26.38" y="-72.25" font-family="Helvetica,sans-Serif" font-size="10.00">s_matrix</text>
</a>
</g>
</g>
<!-- Node2&#45;&gt;Node1 -->
<g id="edge1_Node000001_Node000002" class="edge">
<title>Node2&#45;&gt;Node1</title>
<g id="a_edge1_Node000001_Node000002"><a xlink:title=" ">
<path fill="none" stroke="#9a32cd" stroke-dasharray="5,2" d="M35.46,-56.11C38.4,-50.06 41.73,-43.35 44.88,-37.25 47.97,-31.26 51.59,-24.61 54.44,-19.45"/>
<polygon fill="#9a32cd" stroke="#9a32cd" points="32.52,-54.15 31.33,-64.68 38.83,-57.19 32.52,-54.15"/>
</a>
</g>
<text text-anchor="middle" x="57.12" y="-39" font-family="Helvetica,sans-Serif" font-size="10.00" fill="grey"> origin</text>
</g>
<!-- Node3 -->
<g id="Node000003" class="node">
<title>Node3</title>
<g id="a_Node000003"><a xlink:href="structs__trgb.html" target="_top" xlink:title=" ">
<polygon fill="white" stroke="#666666" points="113.88,-85.75 70.88,-85.75 70.88,-66.5 113.88,-66.5 113.88,-85.75"/>
<text text-anchor="middle" x="92.38" y="-72.25" font-family="Helvetica,sans-Serif" font-size="10.00">s_trgb</text>
</a>
</g>
</g>
<!-- Node3&#45;&gt;Node1 -->
<g id="edge2_Node000001_Node000003" class="edge">
<title>Node3&#45;&gt;Node1</title>
<g id="a_edge2_Node000001_Node000003"><a xlink:title=" ">
<path fill="none" stroke="#9a32cd" stroke-dasharray="5,2" d="M82.66,-56.14C76.47,-44.04 68.74,-28.92 63.92,-19.52"/>
<polygon fill="#9a32cd" stroke="#9a32cd" points="79.43,-57.5 87.1,-64.81 85.66,-54.31 79.43,-57.5"/>
</a>
</g>
<text text-anchor="middle" x="89" y="-39" font-family="Helvetica,sans-Serif" font-size="10.00" fill="grey"> color</text>
</g>
</g>
</svg>
