<?xml version="1.0" encoding="UTF-8" standalone="no"?>
<!DOCTYPE svg PUBLIC "-//W3C//DTD SVG 1.1//EN"
 "http://www.w3.org/Graphics/SVG/1.1/DTD/svg11.dtd">
<!-- Generated by graphviz version 9.0.0 (20230911.1827)
 -->
<!-- Title: object_translation Pages: 1 -->
<svg width="516pt" height="64pt"
 viewBox="0.00 0.00 516.25 64.25" xmlns="http://www.w3.org/2000/svg" xmlns:xlink="http://www.w3.org/1999/xlink">
<g id="graph0" class="graph" transform="scale(1 1) rotate(0) translate(4 60.25)">
<title>object_translation</title>
<!-- Node1 -->
<g id="Node000001" class="node">
<title>Node1</title>
<g id="a_Node000001"><a xlink:title=" ">
<polygon fill="#999999" stroke="#666666" points="92.5,-37.25 0,-37.25 0,-18 92.5,-18 92.5,-37.25"/>
<text text-anchor="middle" x="46.25" y="-23.75" font-family="Helvetica,sans-Serif" font-size="10.00">object_translation</text>
</a>
</g>
</g>
<!-- Node2 -->
<g id="Node000002" class="node">
<title>Node2</title>
<g id="a_Node000002"><a xlink:href="matrix__identity_8c.html#a841c87975e3b38adb536d63ec35456e5" target="_top" xlink:title="Function that creates an identity matrix of size n 1 0 0 0 0 1 0 0 0 0 1 0 0 0 0 1.">
<polygon fill="white" stroke="#666666" points="206.75,-37.25 128.5,-37.25 128.5,-18 206.75,-18 206.75,-37.25"/>
<text text-anchor="middle" x="167.62" y="-23.75" font-family="Helvetica,sans-Serif" font-size="10.00">matrix_identity</text>
</a>
</g>
</g>
<!-- Node1&#45;&gt;Node2 -->
<g id="edge1_Node000001_Node000002" class="edge">
<title>Node1&#45;&gt;Node2</title>
<g id="a_edge1_Node000001_Node000002"><a xlink:title=" ">
<path fill="none" stroke="#63b8ff" d="M92.72,-27.62C100.6,-27.62 108.83,-27.62 116.82,-27.62"/>
<polygon fill="#63b8ff" stroke="#63b8ff" points="116.77,-31.13 126.77,-27.63 116.77,-24.13 116.77,-31.13"/>
</a>
</g>
</g>
<!-- Node3 -->
<g id="Node000003" class="node">
<title>Node3</title>
<g id="a_Node000003"><a xlink:href="matrix__create_8c.html#a5291384d37d735f9c3fc33c03d2788ad" target="_top" xlink:title=" ">
<polygon fill="white" stroke="#666666" points="317.25,-37.25 242.75,-37.25 242.75,-18 317.25,-18 317.25,-37.25"/>
<text text-anchor="middle" x="280" y="-23.75" font-family="Helvetica,sans-Serif" font-size="10.00">matrix_create</text>
</a>
</g>
</g>
<!-- Node2&#45;&gt;Node3 -->
<g id="edge2_Node000002_Node000003" class="edge">
<title>Node2&#45;&gt;Node3</title>
<g id="a_edge2_Node000002_Node000003"><a xlink:title=" ">
<path fill="none" stroke="#63b8ff" d="M207.23,-27.62C214.91,-27.62 223.07,-27.62 231.03,-27.62"/>
<polygon fill="#63b8ff" stroke="#63b8ff" points="230.94,-31.13 240.94,-27.63 230.94,-24.13 230.94,-31.13"/>
</a>
</g>
</g>
<!-- Node4 -->
<g id="Node000004" class="node">
<title>Node4</title>
<g id="a_Node000004"><a xlink:href="free__dptr_8c.html#aaa705b6d12fb1a9a15e6103879ec0ea0" target="_top" xlink:title=" ">
<polygon fill="white" stroke="#666666" points="414.62,-56.25 360.38,-56.25 360.38,-37 414.62,-37 414.62,-56.25"/>
<text text-anchor="middle" x="387.5" y="-42.75" font-family="Helvetica,sans-Serif" font-size="10.00">free_dptr</text>
</a>
</g>
</g>
<!-- Node3&#45;&gt;Node4 -->
<g id="edge3_Node000003_Node000004" class="edge">
<title>Node3&#45;&gt;Node4</title>
<g id="a_edge3_Node000003_Node000004"><a xlink:title=" ">
<path fill="none" stroke="#63b8ff" d="M317.6,-34.22C327.72,-36.04 338.72,-38.02 348.89,-39.85"/>
<polygon fill="#63b8ff" stroke="#63b8ff" points="347.99,-43.25 358.45,-41.57 349.23,-36.36 347.99,-43.25"/>
</a>
</g>
</g>
<!-- Node5 -->
<g id="Node000005" class="node">
<title>Node5</title>
<g id="a_Node000005"><a xlink:href="safe__malloc_8c.html#ab8bcda0e59b6f8eab1bfd9f92de50c6c" target="_top" xlink:title=" ">
<polygon fill="white" stroke="#666666" points="421.75,-19.25 353.25,-19.25 353.25,0 421.75,0 421.75,-19.25"/>
<text text-anchor="middle" x="387.5" y="-5.75" font-family="Helvetica,sans-Serif" font-size="10.00">safe_malloc</text>
</a>
</g>
</g>
<!-- Node3&#45;&gt;Node5 -->
<g id="edge4_Node000003_Node000005" class="edge">
<title>Node3&#45;&gt;Node5</title>
<g id="a_edge4_Node000003_Node000005"><a xlink:title=" ">
<path fill="none" stroke="#63b8ff" d="M317.6,-21.38C325.37,-20.05 333.65,-18.64 341.68,-17.27"/>
<polygon fill="#63b8ff" stroke="#63b8ff" points="342.03,-20.76 351.3,-15.63 340.85,-13.86 342.03,-20.76"/>
</a>
</g>
</g>
<!-- Node6 -->
<g id="Node000006" class="node">
<title>Node6</title>
<g id="a_Node000006"><a xlink:href="LIBFT_2ft__bzero_8c.html#a5937ab0d08e31d0e3e4a16ec71e293a1" target="_top" xlink:title=" ">
<polygon fill="white" stroke="#666666" points="508.25,-19.25 457.75,-19.25 457.75,0 508.25,0 508.25,-19.25"/>
<text text-anchor="middle" x="483" y="-5.75" font-family="Helvetica,sans-Serif" font-size="10.00">ft_bzero</text>
</a>
</g>
</g>
<!-- Node5&#45;&gt;Node6 -->
<g id="edge5_Node000005_Node000006" class="edge">
<title>Node5&#45;&gt;Node6</title>
<g id="a_edge5_Node000005_Node000006"><a xlink:title=" ">
<path fill="none" stroke="#63b8ff" d="M421.99,-9.62C429.88,-9.62 438.31,-9.62 446.29,-9.62"/>
<polygon fill="#63b8ff" stroke="#63b8ff" points="446.03,-13.13 456.03,-9.63 446.03,-6.13 446.03,-13.13"/>
</a>
</g>
</g>
</g>
</svg>
