<?xml version="1.0" encoding="UTF-8" standalone="no"?>
<!DOCTYPE svg PUBLIC "-//W3C//DTD SVG 1.1//EN"
 "http://www.w3.org/Graphics/SVG/1.1/DTD/svg11.dtd">
<!-- Generated by graphviz version 9.0.0 (20230911.1827)
 -->
<!-- Title: /github/workspace/SRC/BASE/TUPLES/tuple_compare.c Pages: 1 -->
<svg width="193pt" height="204pt"
 viewBox="0.00 0.00 192.88 204.25" xmlns="http://www.w3.org/2000/svg" xmlns:xlink="http://www.w3.org/1999/xlink">
<g id="graph0" class="graph" transform="scale(1 1) rotate(0) translate(4 200.25)">
<title>/github/workspace/SRC/BASE/TUPLES/tuple_compare.c</title>
<!-- Node1 -->
<g id="Node000001" class="node">
<title>Node1</title>
<g id="a_Node000001"><a xlink:title=" ">
<polygon fill="#999999" stroke="#666666" points="177.25,-196.25 15.75,-196.25 15.75,-165.75 177.25,-165.75 177.25,-196.25"/>
<text text-anchor="start" x="23.75" y="-182.75" font-family="Helvetica,sans-Serif" font-size="10.00">/github/workspace/SRC</text>
<text text-anchor="middle" x="96.5" y="-171.5" font-family="Helvetica,sans-Serif" font-size="10.00">/BASE/TUPLES/tuple_compare.c</text>
</a>
</g>
</g>
<!-- Node2 -->
<g id="Node000002" class="node">
<title>Node2</title>
<g id="a_Node000002"><a xlink:href="types_8h.html" target="_top" xlink:title=" ">
<polygon fill="white" stroke="#666666" points="119.88,-74.5 73.12,-74.5 73.12,-55.25 119.88,-55.25 119.88,-74.5"/>
<text text-anchor="middle" x="96.5" y="-61" font-family="Helvetica,sans-Serif" font-size="10.00">types.h</text>
</a>
</g>
</g>
<!-- Node1&#45;&gt;Node2 -->
<g id="edge1_Node000001_Node000002" class="edge">
<title>Node1&#45;&gt;Node2</title>
<g id="a_edge1_Node000001_Node000002"><a xlink:title=" ">
<path fill="none" stroke="#63b8ff" d="M90.1,-165.44C84.72,-151.43 78.37,-129.63 81.5,-110.5 82.87,-102.14 85.59,-93.23 88.34,-85.59"/>
<polygon fill="#63b8ff" stroke="#63b8ff" points="91.59,-86.88 91.96,-76.29 85.07,-84.35 91.59,-86.88"/>
</a>
</g>
</g>
<!-- Node6 -->
<g id="Node000006" class="node">
<title>Node6</title>
<g id="a_Node000006"><a xlink:href="base__helpers_8h.html" target="_top" xlink:title=" ">
<polygon fill="white" stroke="#666666" points="172.12,-129.75 90.88,-129.75 90.88,-110.5 172.12,-110.5 172.12,-129.75"/>
<text text-anchor="middle" x="131.5" y="-116.25" font-family="Helvetica,sans-Serif" font-size="10.00">base_helpers.h</text>
</a>
</g>
</g>
<!-- Node1&#45;&gt;Node6 -->
<g id="edge5_Node000001_Node000006" class="edge">
<title>Node1&#45;&gt;Node6</title>
<g id="a_edge5_Node000001_Node000006"><a xlink:title=" ">
<path fill="none" stroke="#63b8ff" d="M105.15,-165.45C109.71,-157.78 115.36,-148.27 120.26,-140.04"/>
<polygon fill="#63b8ff" stroke="#63b8ff" points="123.23,-141.89 125.33,-131.5 117.21,-138.31 123.23,-141.89"/>
</a>
</g>
</g>
<!-- Node3 -->
<g id="Node000003" class="node">
<title>Node3</title>
<g id="a_Node000003"><a xlink:title=" ">
<polygon fill="#e0e0e0" stroke="#999999" points="55,-19.25 0,-19.25 0,0 55,0 55,-19.25"/>
<text text-anchor="middle" x="27.5" y="-5.75" font-family="Helvetica,sans-Serif" font-size="10.00">stdbool.h</text>
</a>
</g>
</g>
<!-- Node2&#45;&gt;Node3 -->
<g id="edge2_Node000002_Node000003" class="edge">
<title>Node2&#45;&gt;Node3</title>
<g id="a_edge2_Node000002_Node000003"><a xlink:title=" ">
<path fill="none" stroke="#63b8ff" d="M84.8,-54.84C74.72,-47.07 59.96,-35.67 47.94,-26.4"/>
<polygon fill="#63b8ff" stroke="#63b8ff" points="50.29,-23.79 40.23,-20.45 46.01,-29.33 50.29,-23.79"/>
</a>
</g>
</g>
<!-- Node4 -->
<g id="Node000004" class="node">
<title>Node4</title>
<g id="a_Node000004"><a xlink:title=" ">
<polygon fill="#e0e0e0" stroke="#999999" points="119.88,-19.25 73.12,-19.25 73.12,0 119.88,0 119.88,-19.25"/>
<text text-anchor="middle" x="96.5" y="-5.75" font-family="Helvetica,sans-Serif" font-size="10.00">stdlib.h</text>
</a>
</g>
</g>
<!-- Node2&#45;&gt;Node4 -->
<g id="edge3_Node000002_Node000004" class="edge">
<title>Node2&#45;&gt;Node4</title>
<g id="a_edge3_Node000002_Node000004"><a xlink:title=" ">
<path fill="none" stroke="#63b8ff" d="M96.5,-55.08C96.5,-48.57 96.5,-39.42 96.5,-31.12"/>
<polygon fill="#63b8ff" stroke="#63b8ff" points="100,-31.12 96.5,-21.12 93,-31.12 100,-31.12"/>
</a>
</g>
</g>
<!-- Node5 -->
<g id="Node000005" class="node">
<title>Node5</title>
<g id="a_Node000005"><a xlink:title=" ">
<polygon fill="#e0e0e0" stroke="#999999" points="184.88,-19.25 138.12,-19.25 138.12,0 184.88,0 184.88,-19.25"/>
<text text-anchor="middle" x="161.5" y="-5.75" font-family="Helvetica,sans-Serif" font-size="10.00">limits.h</text>
</a>
</g>
</g>
<!-- Node2&#45;&gt;Node5 -->
<g id="edge4_Node000002_Node000005" class="edge">
<title>Node2&#45;&gt;Node5</title>
<g id="a_edge4_Node000002_Node000005"><a xlink:title=" ">
<path fill="none" stroke="#63b8ff" d="M107.53,-54.84C116.92,-47.15 130.65,-35.9 141.91,-26.68"/>
<polygon fill="#63b8ff" stroke="#63b8ff" points="143.95,-29.53 149.47,-20.48 139.51,-24.11 143.95,-29.53"/>
</a>
</g>
</g>
<!-- Node6&#45;&gt;Node2 -->
<g id="edge6_Node000006_Node000002" class="edge">
<title>Node6&#45;&gt;Node2</title>
<g id="a_edge6_Node000006_Node000002"><a xlink:title=" ">
<path fill="none" stroke="#63b8ff" d="M125.72,-110.33C121.09,-103.28 114.43,-93.15 108.63,-84.33"/>
<polygon fill="#63b8ff" stroke="#63b8ff" points="111.65,-82.56 103.24,-76.12 105.8,-86.4 111.65,-82.56"/>
</a>
</g>
</g>
</g>
</svg>
