<?xml version="1.0" encoding="UTF-8" standalone="no"?>
<!DOCTYPE svg PUBLIC "-//W3C//DTD SVG 1.1//EN"
 "http://www.w3.org/Graphics/SVG/1.1/DTD/svg11.dtd">
<!-- Generated by graphviz version 9.0.0 (20230911.1827)
 -->
<!-- Title: /github/workspace/SRC/BASE/TUPLES/tuple_sum.c Pages: 1 -->
<svg width="429pt" height="204pt"
 viewBox="0.00 0.00 429.12 204.25" xmlns="http://www.w3.org/2000/svg" xmlns:xlink="http://www.w3.org/1999/xlink">
<g id="graph0" class="graph" transform="scale(1 1) rotate(0) translate(4 200.25)">
<title>/github/workspace/SRC/BASE/TUPLES/tuple_sum.c</title>
<!-- Node1 -->
<g id="Node000001" class="node">
<title>Node1</title>
<g id="a_Node000001"><a xlink:title=" ">
<polygon fill="#999999" stroke="#666666" points="261.88,-196.25 119.12,-196.25 119.12,-165.75 261.88,-165.75 261.88,-196.25"/>
<text text-anchor="start" x="127.12" y="-182.75" font-family="Helvetica,sans-Serif" font-size="10.00">/github/workspace/SRC</text>
<text text-anchor="middle" x="190.5" y="-171.5" font-family="Helvetica,sans-Serif" font-size="10.00">/BASE/TUPLES/tuple_sum.c</text>
</a>
</g>
</g>
<!-- Node2 -->
<g id="Node000002" class="node">
<title>Node2</title>
<g id="a_Node000002"><a xlink:href="base__tuples_8h.html" target="_top" xlink:title=" ">
<polygon fill="white" stroke="#666666" points="186.5,-129.75 110.5,-129.75 110.5,-110.5 186.5,-110.5 186.5,-129.75"/>
<text text-anchor="middle" x="148.5" y="-116.25" font-family="Helvetica,sans-Serif" font-size="10.00">base_tuples.h</text>
</a>
</g>
</g>
<!-- Node1&#45;&gt;Node2 -->
<g id="edge1_Node000001_Node000002" class="edge">
<title>Node1&#45;&gt;Node2</title>
<g id="a_edge1_Node000001_Node000002"><a xlink:title=" ">
<path fill="none" stroke="#63b8ff" d="M180.12,-165.45C174.52,-157.6 167.56,-147.85 161.6,-139.49"/>
<polygon fill="#63b8ff" stroke="#63b8ff" points="164.51,-137.54 155.85,-131.43 158.81,-141.61 164.51,-137.54"/>
</a>
</g>
</g>
<!-- Node7 -->
<g id="Node000007" class="node">
<title>Node7</title>
<g id="a_Node000007"><a xlink:href="muk__lib_8h.html" target="_top" xlink:title=" ">
<polygon fill="white" stroke="#666666" points="271.12,-129.75 213.88,-129.75 213.88,-110.5 271.12,-110.5 271.12,-129.75"/>
<text text-anchor="middle" x="242.5" y="-116.25" font-family="Helvetica,sans-Serif" font-size="10.00">muk_lib.h</text>
</a>
</g>
</g>
<!-- Node1&#45;&gt;Node7 -->
<g id="edge6_Node000001_Node000007" class="edge">
<title>Node1&#45;&gt;Node7</title>
<g id="a_edge6_Node000001_Node000007"><a xlink:title=" ">
<path fill="none" stroke="#63b8ff" d="M203.35,-165.45C210.51,-157.34 219.47,-147.2 227.01,-138.66"/>
<polygon fill="#63b8ff" stroke="#63b8ff" points="229.49,-141.15 233.48,-131.34 224.24,-136.51 229.49,-141.15"/>
</a>
</g>
</g>
<!-- Node3 -->
<g id="Node000003" class="node">
<title>Node3</title>
<g id="a_Node000003"><a xlink:href="types_8h.html" target="_top" xlink:title=" ">
<polygon fill="white" stroke="#666666" points="126.88,-74.5 80.12,-74.5 80.12,-55.25 126.88,-55.25 126.88,-74.5"/>
<text text-anchor="middle" x="103.5" y="-61" font-family="Helvetica,sans-Serif" font-size="10.00">types.h</text>
</a>
</g>
</g>
<!-- Node2&#45;&gt;Node3 -->
<g id="edge2_Node000002_Node000003" class="edge">
<title>Node2&#45;&gt;Node3</title>
<g id="a_edge2_Node000002_Node000003"><a xlink:title=" ">
<path fill="none" stroke="#63b8ff" d="M141.07,-110.33C134.92,-103.05 125.99,-92.48 118.37,-83.48"/>
<polygon fill="#63b8ff" stroke="#63b8ff" points="121.2,-81.39 112.07,-76.02 115.85,-85.91 121.2,-81.39"/>
</a>
</g>
</g>
<!-- Node4 -->
<g id="Node000004" class="node">
<title>Node4</title>
<g id="a_Node000004"><a xlink:title=" ">
<polygon fill="#e0e0e0" stroke="#999999" points="55,-19.25 0,-19.25 0,0 55,0 55,-19.25"/>
<text text-anchor="middle" x="27.5" y="-5.75" font-family="Helvetica,sans-Serif" font-size="10.00">stdbool.h</text>
</a>
</g>
</g>
<!-- Node3&#45;&gt;Node4 -->
<g id="edge3_Node000003_Node000004" class="edge">
<title>Node3&#45;&gt;Node4</title>
<g id="a_edge3_Node000003_Node000004"><a xlink:title=" ">
<path fill="none" stroke="#63b8ff" d="M90.61,-54.84C79.47,-47.04 63.13,-35.59 49.86,-26.29"/>
<polygon fill="#63b8ff" stroke="#63b8ff" points="51.89,-23.44 41.7,-20.57 47.88,-29.18 51.89,-23.44"/>
</a>
</g>
</g>
<!-- Node5 -->
<g id="Node000005" class="node">
<title>Node5</title>
<g id="a_Node000005"><a xlink:title=" ">
<polygon fill="#e0e0e0" stroke="#999999" points="184.88,-19.25 138.12,-19.25 138.12,0 184.88,0 184.88,-19.25"/>
<text text-anchor="middle" x="161.5" y="-5.75" font-family="Helvetica,sans-Serif" font-size="10.00">stdlib.h</text>
</a>
</g>
</g>
<!-- Node3&#45;&gt;Node5 -->
<g id="edge4_Node000003_Node000005" class="edge">
<title>Node3&#45;&gt;Node5</title>
<g id="a_edge4_Node000003_Node000005"><a xlink:title=" ">
<path fill="none" stroke="#63b8ff" d="M113.34,-54.84C121.55,-47.3 133.48,-36.35 143.41,-27.23"/>
<polygon fill="#63b8ff" stroke="#63b8ff" points="145.69,-29.89 150.69,-20.55 140.96,-24.73 145.69,-29.89"/>
</a>
</g>
</g>
<!-- Node6 -->
<g id="Node000006" class="node">
<title>Node6</title>
<g id="a_Node000006"><a xlink:title=" ">
<polygon fill="#e0e0e0" stroke="#999999" points="119.88,-19.25 73.12,-19.25 73.12,0 119.88,0 119.88,-19.25"/>
<text text-anchor="middle" x="96.5" y="-5.75" font-family="Helvetica,sans-Serif" font-size="10.00">limits.h</text>
</a>
</g>
</g>
<!-- Node3&#45;&gt;Node6 -->
<g id="edge5_Node000003_Node000006" class="edge">
<title>Node3&#45;&gt;Node6</title>
<g id="a_edge5_Node000003_Node000006"><a xlink:title=" ">
<path fill="none" stroke="#63b8ff" d="M102.34,-55.08C101.48,-48.49 100.26,-39.21 99.16,-30.82"/>
<polygon fill="#63b8ff" stroke="#63b8ff" points="102.65,-30.57 97.88,-21.11 95.71,-31.48 102.65,-30.57"/>
</a>
</g>
</g>
<!-- Node7&#45;&gt;Node5 -->
<g id="edge7_Node000007_Node000005" class="edge">
<title>Node7&#45;&gt;Node5</title>
<g id="a_edge7_Node000007_Node000005"><a xlink:title=" ">
<path fill="none" stroke="#63b8ff" d="M221.52,-110.08C206.73,-102.63 187.65,-90.67 176.5,-74.5 167.68,-61.71 164,-44.41 162.49,-31.04"/>
<polygon fill="#63b8ff" stroke="#63b8ff" points="165.99,-30.91 161.72,-21.22 159.01,-31.46 165.99,-30.91"/>
</a>
</g>
</g>
<!-- Node8 -->
<g id="Node000008" class="node">
<title>Node8</title>
<g id="a_Node000008"><a xlink:title=" ">
<polygon fill="#e0e0e0" stroke="#999999" points="235.38,-74.5 185.62,-74.5 185.62,-55.25 235.38,-55.25 235.38,-74.5"/>
<text text-anchor="middle" x="210.5" y="-61" font-family="Helvetica,sans-Serif" font-size="10.00">unistd.h</text>
</a>
</g>
</g>
<!-- Node7&#45;&gt;Node8 -->
<g id="edge8_Node000007_Node000008" class="edge">
<title>Node7&#45;&gt;Node8</title>
<g id="a_edge8_Node000007_Node000008"><a xlink:title=" ">
<path fill="none" stroke="#63b8ff" d="M237.22,-110.33C233.03,-103.36 227.02,-93.37 221.77,-84.62"/>
<polygon fill="#63b8ff" stroke="#63b8ff" points="224.83,-82.93 216.68,-76.16 218.83,-86.53 224.83,-82.93"/>
</a>
</g>
</g>
<!-- Node9 -->
<g id="Node000009" class="node">
<title>Node9</title>
<g id="a_Node000009"><a xlink:title=" ">
<polygon fill="#e0e0e0" stroke="#999999" points="297.75,-74.5 253.25,-74.5 253.25,-55.25 297.75,-55.25 297.75,-74.5"/>
<text text-anchor="middle" x="275.5" y="-61" font-family="Helvetica,sans-Serif" font-size="10.00">stdio.h</text>
</a>
</g>
</g>
<!-- Node7&#45;&gt;Node9 -->
<g id="edge9_Node000007_Node000009" class="edge">
<title>Node7&#45;&gt;Node9</title>
<g id="a_edge9_Node000007_Node000009"><a xlink:title=" ">
<path fill="none" stroke="#63b8ff" d="M247.95,-110.33C252.27,-103.36 258.46,-93.37 263.88,-84.62"/>
<polygon fill="#63b8ff" stroke="#63b8ff" points="266.84,-86.49 269.14,-76.15 260.89,-82.8 266.84,-86.49"/>
</a>
</g>
</g>
<!-- Node10 -->
<g id="Node000010" class="node">
<title>Node10</title>
<g id="a_Node000010"><a xlink:title=" ">
<polygon fill="#e0e0e0" stroke="#999999" points="357.62,-74.5 315.38,-74.5 315.38,-55.25 357.62,-55.25 357.62,-74.5"/>
<text text-anchor="middle" x="336.5" y="-61" font-family="Helvetica,sans-Serif" font-size="10.00">fcntl.h</text>
</a>
</g>
</g>
<!-- Node7&#45;&gt;Node10 -->
<g id="edge10_Node000007_Node000010" class="edge">
<title>Node7&#45;&gt;Node10</title>
<g id="a_edge10_Node000007_Node000010"><a xlink:title=" ">
<path fill="none" stroke="#63b8ff" d="M258.45,-110.09C272.76,-101.98 294.03,-89.93 310.75,-80.46"/>
<polygon fill="#63b8ff" stroke="#63b8ff" points="312.18,-83.67 319.16,-75.7 308.73,-77.58 312.18,-83.67"/>
</a>
</g>
</g>
<!-- Node11 -->
<g id="Node000011" class="node">
<title>Node11</title>
<g id="a_Node000011"><a xlink:title=" ">
<polygon fill="#e0e0e0" stroke="#999999" points="421.12,-74.5 375.88,-74.5 375.88,-55.25 421.12,-55.25 421.12,-74.5"/>
<text text-anchor="middle" x="398.5" y="-61" font-family="Helvetica,sans-Serif" font-size="10.00">math.h</text>
</a>
</g>
</g>
<!-- Node7&#45;&gt;Node11 -->
<g id="edge11_Node000007_Node000011" class="edge">
<title>Node7&#45;&gt;Node11</title>
<g id="a_edge11_Node000007_Node000011"><a xlink:title=" ">
<path fill="none" stroke="#63b8ff" d="M268.96,-110.09C295.36,-101.08 336.02,-87.2 364.73,-77.4"/>
<polygon fill="#63b8ff" stroke="#63b8ff" points="365.71,-80.77 374.04,-74.22 363.44,-74.14 365.71,-80.77"/>
</a>
</g>
</g>
</g>
</svg>
