<?xml version="1.0" encoding="UTF-8" standalone="no"?>
<!DOCTYPE svg PUBLIC "-//W3C//DTD SVG 1.1//EN"
 "http://www.w3.org/Graphics/SVG/1.1/DTD/svg11.dtd">
<!-- Generated by graphviz version 9.0.0 (20230911.1827)
 -->
<!-- Title: tuple_cross Pages: 1 -->
<svg width="265pt" height="64pt"
 viewBox="0.00 0.00 265.25 64.25" xmlns="http://www.w3.org/2000/svg" xmlns:xlink="http://www.w3.org/1999/xlink">
<g id="graph0" class="graph" transform="scale(1 1) rotate(0) translate(4 60.25)">
<title>tuple_cross</title>
<!-- Node1 -->
<g id="Node000001" class="node">
<title>Node1</title>
<g id="a_Node000001"><a xlink:title="This function find the cross product of 2 vectors (tup1 x tup2). This is used to find a vertical vect...">
<polygon fill="#999999" stroke="#666666" points="66.25,-37.25 0,-37.25 0,-18 66.25,-18 66.25,-37.25"/>
<text text-anchor="middle" x="33.12" y="-23.75" font-family="Helvetica,sans-Serif" font-size="10.00">tuple_cross</text>
</a>
</g>
</g>
<!-- Node2 -->
<g id="Node000002" class="node">
<title>Node2</title>
<g id="a_Node000002"><a xlink:href="errmsg_8c.html#a2fad0db9f0b078aa69ed34ccd60ad0c1" target="_top" xlink:title=" ">
<polygon fill="white" stroke="#666666" points="159.5,-56.25 113.5,-56.25 113.5,-37 159.5,-37 159.5,-56.25"/>
<text text-anchor="middle" x="136.5" y="-42.75" font-family="Helvetica,sans-Serif" font-size="10.00">errmsg</text>
</a>
</g>
</g>
<!-- Node1&#45;&gt;Node2 -->
<g id="edge1_Node000001_Node000002" class="edge">
<title>Node1&#45;&gt;Node2</title>
<g id="a_edge1_Node000001_Node000002"><a xlink:title=" ">
<path fill="none" stroke="#63b8ff" d="M66.48,-33.69C77.75,-35.8 90.41,-38.17 101.79,-40.31"/>
<polygon fill="#63b8ff" stroke="#63b8ff" points="101.1,-43.74 111.57,-42.14 102.39,-36.86 101.1,-43.74"/>
</a>
</g>
</g>
<!-- Node3 -->
<g id="Node000003" class="node">
<title>Node3</title>
<g id="a_Node000003"><a xlink:href="safe__malloc_8c.html#ab8bcda0e59b6f8eab1bfd9f92de50c6c" target="_top" xlink:title=" ">
<polygon fill="white" stroke="#666666" points="170.75,-19.25 102.25,-19.25 102.25,0 170.75,0 170.75,-19.25"/>
<text text-anchor="middle" x="136.5" y="-5.75" font-family="Helvetica,sans-Serif" font-size="10.00">safe_malloc</text>
</a>
</g>
</g>
<!-- Node1&#45;&gt;Node3 -->
<g id="edge2_Node000001_Node000003" class="edge">
<title>Node1&#45;&gt;Node3</title>
<g id="a_edge2_Node000001_Node000003"><a xlink:title=" ">
<path fill="none" stroke="#63b8ff" d="M66.48,-21.88C74.2,-20.51 82.57,-19.02 90.74,-17.57"/>
<polygon fill="#63b8ff" stroke="#63b8ff" points="91.33,-21.02 100.57,-15.83 90.11,-14.13 91.33,-21.02"/>
</a>
</g>
</g>
<!-- Node4 -->
<g id="Node000004" class="node">
<title>Node4</title>
<g id="a_Node000004"><a xlink:href="LIBFT_2ft__bzero_8c.html#a5937ab0d08e31d0e3e4a16ec71e293a1" target="_top" xlink:title=" ">
<polygon fill="white" stroke="#666666" points="257.25,-19.25 206.75,-19.25 206.75,0 257.25,0 257.25,-19.25"/>
<text text-anchor="middle" x="232" y="-5.75" font-family="Helvetica,sans-Serif" font-size="10.00">ft_bzero</text>
</a>
</g>
</g>
<!-- Node3&#45;&gt;Node4 -->
<g id="edge3_Node000003_Node000004" class="edge">
<title>Node3&#45;&gt;Node4</title>
<g id="a_edge3_Node000003_Node000004"><a xlink:title=" ">
<path fill="none" stroke="#63b8ff" d="M170.99,-9.62C178.88,-9.62 187.31,-9.62 195.29,-9.62"/>
<polygon fill="#63b8ff" stroke="#63b8ff" points="195.03,-13.13 205.03,-9.63 195.03,-6.13 195.03,-13.13"/>
</a>
</g>
</g>
</g>
</svg>
