<?xml version="1.0" encoding="UTF-8" standalone="no"?>
<!DOCTYPE svg PUBLIC "-//W3C//DTD SVG 1.1//EN"
 "http://www.w3.org/Graphics/SVG/1.1/DTD/svg11.dtd">
<!-- Generated by graphviz version 9.0.0 (20230911.1827)
 -->
<!-- Title: tuple_to_matrix Pages: 1 -->
<svg width="392pt" height="64pt"
 viewBox="0.00 0.00 391.50 64.25" xmlns="http://www.w3.org/2000/svg" xmlns:xlink="http://www.w3.org/1999/xlink">
<g id="graph0" class="graph" transform="scale(1 1) rotate(0) translate(4 60.25)">
<title>tuple_to_matrix</title>
<!-- Node1 -->
<g id="Node000001" class="node">
<title>Node1</title>
<g id="a_Node000001"><a xlink:title=" ">
<polygon fill="#999999" stroke="#666666" points="82,-37.25 0,-37.25 0,-18 82,-18 82,-37.25"/>
<text text-anchor="middle" x="41" y="-23.75" font-family="Helvetica,sans-Serif" font-size="10.00">tuple_to_matrix</text>
</a>
</g>
</g>
<!-- Node2 -->
<g id="Node000002" class="node">
<title>Node2</title>
<g id="a_Node000002"><a xlink:href="matrix__create_8c.html#a5291384d37d735f9c3fc33c03d2788ad" target="_top" xlink:title=" ">
<polygon fill="white" stroke="#666666" points="192.5,-37.25 118,-37.25 118,-18 192.5,-18 192.5,-37.25"/>
<text text-anchor="middle" x="155.25" y="-23.75" font-family="Helvetica,sans-Serif" font-size="10.00">matrix_create</text>
</a>
</g>
</g>
<!-- Node1&#45;&gt;Node2 -->
<g id="edge1_Node000001_Node000002" class="edge">
<title>Node1&#45;&gt;Node2</title>
<g id="a_edge1_Node000001_Node000002"><a xlink:title=" ">
<path fill="none" stroke="#63b8ff" d="M82.21,-27.62C89.98,-27.62 98.21,-27.62 106.2,-27.62"/>
<polygon fill="#63b8ff" stroke="#63b8ff" points="106.17,-31.13 116.17,-27.63 106.17,-24.13 106.17,-31.13"/>
</a>
</g>
</g>
<!-- Node3 -->
<g id="Node000003" class="node">
<title>Node3</title>
<g id="a_Node000003"><a xlink:href="free__dptr_8c.html#aaa705b6d12fb1a9a15e6103879ec0ea0" target="_top" xlink:title=" ">
<polygon fill="white" stroke="#666666" points="289.88,-56.25 235.62,-56.25 235.62,-37 289.88,-37 289.88,-56.25"/>
<text text-anchor="middle" x="262.75" y="-42.75" font-family="Helvetica,sans-Serif" font-size="10.00">free_dptr</text>
</a>
</g>
</g>
<!-- Node2&#45;&gt;Node3 -->
<g id="edge2_Node000002_Node000003" class="edge">
<title>Node2&#45;&gt;Node3</title>
<g id="a_edge2_Node000002_Node000003"><a xlink:title=" ">
<path fill="none" stroke="#63b8ff" d="M192.85,-34.22C202.97,-36.04 213.97,-38.02 224.14,-39.85"/>
<polygon fill="#63b8ff" stroke="#63b8ff" points="223.24,-43.25 233.7,-41.57 224.48,-36.36 223.24,-43.25"/>
</a>
</g>
</g>
<!-- Node4 -->
<g id="Node000004" class="node">
<title>Node4</title>
<g id="a_Node000004"><a xlink:href="safe__malloc_8c.html#ab8bcda0e59b6f8eab1bfd9f92de50c6c" target="_top" xlink:title=" ">
<polygon fill="white" stroke="#666666" points="297,-19.25 228.5,-19.25 228.5,0 297,0 297,-19.25"/>
<text text-anchor="middle" x="262.75" y="-5.75" font-family="Helvetica,sans-Serif" font-size="10.00">safe_malloc</text>
</a>
</g>
</g>
<!-- Node2&#45;&gt;Node4 -->
<g id="edge3_Node000002_Node000004" class="edge">
<title>Node2&#45;&gt;Node4</title>
<g id="a_edge3_Node000002_Node000004"><a xlink:title=" ">
<path fill="none" stroke="#63b8ff" d="M192.85,-21.38C200.62,-20.05 208.9,-18.64 216.93,-17.27"/>
<polygon fill="#63b8ff" stroke="#63b8ff" points="217.28,-20.76 226.55,-15.63 216.1,-13.86 217.28,-20.76"/>
</a>
</g>
</g>
<!-- Node5 -->
<g id="Node000005" class="node">
<title>Node5</title>
<g id="a_Node000005"><a xlink:href="LIBFT_2ft__bzero_8c.html#a5937ab0d08e31d0e3e4a16ec71e293a1" target="_top" xlink:title=" ">
<polygon fill="white" stroke="#666666" points="383.5,-19.25 333,-19.25 333,0 383.5,0 383.5,-19.25"/>
<text text-anchor="middle" x="358.25" y="-5.75" font-family="Helvetica,sans-Serif" font-size="10.00">ft_bzero</text>
</a>
</g>
</g>
<!-- Node4&#45;&gt;Node5 -->
<g id="edge4_Node000004_Node000005" class="edge">
<title>Node4&#45;&gt;Node5</title>
<g id="a_edge4_Node000004_Node000005"><a xlink:title=" ">
<path fill="none" stroke="#63b8ff" d="M297.24,-9.62C305.13,-9.62 313.56,-9.62 321.54,-9.62"/>
<polygon fill="#63b8ff" stroke="#63b8ff" points="321.28,-13.13 331.28,-9.63 321.28,-6.13 321.28,-13.13"/>
</a>
</g>
</g>
</g>
</svg>
