<?xml version="1.0" encoding="UTF-8" standalone="no"?>
<!DOCTYPE svg PUBLIC "-//W3C//DTD SVG 1.1//EN"
 "http://www.w3.org/Graphics/SVG/1.1/DTD/svg11.dtd">
<!-- Generated by graphviz version 9.0.0 (20230911.1827)
 -->
<!-- Title: tuple_length Pages: 1 -->
<svg width="196pt" height="64pt"
 viewBox="0.00 0.00 196.00 64.25" xmlns="http://www.w3.org/2000/svg" xmlns:xlink="http://www.w3.org/1999/xlink">
<g id="graph0" class="graph" transform="scale(1 1) rotate(0) translate(4 60.25)">
<title>tuple_length</title>
<!-- Node1 -->
<g id="Node000001" class="node">
<title>Node1</title>
<g id="a_Node000001"><a xlink:title="This function is used to calculate length of vectors using the x^2 + y^2 + z^2 = len^2 and finding th...">
<polygon fill="#999999" stroke="#666666" points="188,-37.25 119.5,-37.25 119.5,-18 188,-18 188,-37.25"/>
<text text-anchor="middle" x="153.75" y="-23.75" font-family="Helvetica,sans-Serif" font-size="10.00">tuple_length</text>
</a>
</g>
</g>
<!-- Node2 -->
<g id="Node000002" class="node">
<title>Node2</title>
<g id="a_Node000002"><a xlink:href="tuple__dot_8c.html#af0137a21bb74d89a29bbc017bdf99e91" target="_top" xlink:title="Function that finds the dot (.) product of 2 vectors.">
<polygon fill="white" stroke="#666666" points="69.62,-56.25 13.88,-56.25 13.88,-37 69.62,-37 69.62,-56.25"/>
<text text-anchor="middle" x="41.75" y="-42.75" font-family="Helvetica,sans-Serif" font-size="10.00">tuple_dot</text>
</a>
</g>
</g>
<!-- Node1&#45;&gt;Node2 -->
<g id="edge1_Node000001_Node000002" class="edge">
<title>Node1&#45;&gt;Node2</title>
<g id="a_edge1_Node000001_Node000002"><a xlink:title=" ">
<path fill="none" stroke="#63b8ff" d="M108.06,-35.34C95.12,-37.58 81.4,-39.95 69.88,-41.94"/>
<polygon fill="#63b8ff" stroke="#63b8ff" points="108.4,-38.84 117.66,-33.69 107.21,-31.94 108.4,-38.84"/>
</a>
</g>
</g>
<!-- Node3 -->
<g id="Node000003" class="node">
<title>Node3</title>
<g id="a_Node000003"><a xlink:href="tuple__normalize_8c.html#afeae391d2dd66ea077c6df2a16bab5c5" target="_top" xlink:title="This function converts the given vector into its normalized vector. Normalize is used to convert the ...">
<polygon fill="white" stroke="#666666" points="83.5,-19.25 0,-19.25 0,0 83.5,0 83.5,-19.25"/>
<text text-anchor="middle" x="41.75" y="-5.75" font-family="Helvetica,sans-Serif" font-size="10.00">tuple_normalize</text>
</a>
</g>
</g>
<!-- Node1&#45;&gt;Node3 -->
<g id="edge2_Node000001_Node000003" class="edge">
<title>Node1&#45;&gt;Node3</title>
<g id="a_edge2_Node000001_Node000003"><a xlink:title=" ">
<path fill="none" stroke="#63b8ff" d="M107.84,-20.28C99.92,-18.98 91.71,-17.64 83.91,-16.36"/>
<polygon fill="#63b8ff" stroke="#63b8ff" points="107.22,-23.72 117.65,-21.88 108.35,-16.81 107.22,-23.72"/>
</a>
</g>
</g>
</g>
</svg>
