<?xml version="1.0" encoding="UTF-8" standalone="no"?>
<!DOCTYPE svg PUBLIC "-//W3C//DTD SVG 1.1//EN"
 "http://www.w3.org/Graphics/SVG/1.1/DTD/svg11.dtd">
<!-- Generated by graphviz version 9.0.0 (20230911.1827)
 -->
<!-- Title: s_object::u_data Pages: 1 -->
<svg width="332pt" height="183pt"
 viewBox="0.00 0.00 332.25 182.75" xmlns="http://www.w3.org/2000/svg" xmlns:xlink="http://www.w3.org/1999/xlink">
<g id="graph0" class="graph" transform="scale(1 1) rotate(0) translate(4 178.75)">
<title>s_object::u_data</title>
<!-- Node1 -->
<g id="Node000001" class="node">
<title>Node1</title>
<g id="a_Node000001"><a xlink:title=" ">
<polygon fill="#999999" stroke="#666666" points="205.38,-19.25 118.88,-19.25 118.88,0 205.38,0 205.38,-19.25"/>
<text text-anchor="middle" x="162.12" y="-5.75" font-family="Helvetica,sans-Serif" font-size="10.00">s_object::u_data</text>
</a>
</g>
</g>
<!-- Node2 -->
<g id="Node000002" class="node">
<title>Node2</title>
<g id="a_Node000002"><a xlink:href="structs__object_1_1u__data_1_1s__sphere.html" target="_top" xlink:title=" ">
<polygon fill="white" stroke="#666666" points="96.25,-97 0,-97 0,-66.5 96.25,-66.5 96.25,-97"/>
<text text-anchor="start" x="8" y="-83.5" font-family="Helvetica,sans-Serif" font-size="10.00">s_object::u_data::s</text>
<text text-anchor="middle" x="48.12" y="-72.25" font-family="Helvetica,sans-Serif" font-size="10.00">_sphere</text>
</a>
</g>
</g>
<!-- Node2&#45;&gt;Node1 -->
<g id="edge1_Node000001_Node000002" class="edge">
<title>Node2&#45;&gt;Node1</title>
<g id="a_edge1_Node000001_Node000002"><a xlink:title=" ">
<path fill="none" stroke="#9a32cd" stroke-dasharray="5,2" d="M81.59,-60.17C103.38,-46.76 130.74,-29.93 147.31,-19.74"/>
<polygon fill="#9a32cd" stroke="#9a32cd" points="80,-57.04 73.31,-65.26 83.66,-63 80,-57.04"/>
</a>
</g>
<text text-anchor="middle" x="133.88" y="-39" font-family="Helvetica,sans-Serif" font-size="10.00" fill="grey"> sphere</text>
</g>
<!-- Node3 -->
<g id="Node000003" class="node">
<title>Node3</title>
<g id="a_Node000003"><a xlink:href="structs__matrix.html" target="_top" xlink:title="n x m size matrix where values are stored in double **data">
<polygon fill="white" stroke="#666666" points="116.5,-174.75 63.75,-174.75 63.75,-155.5 116.5,-155.5 116.5,-174.75"/>
<text text-anchor="middle" x="90.12" y="-161.25" font-family="Helvetica,sans-Serif" font-size="10.00">s_matrix</text>
</a>
</g>
</g>
<!-- Node3&#45;&gt;Node2 -->
<g id="edge2_Node000002_Node000003" class="edge">
<title>Node3&#45;&gt;Node2</title>
<g id="a_edge2_Node000002_Node000003"><a xlink:title=" ">
<path fill="none" stroke="#9a32cd" stroke-dasharray="5,2" d="M52.66,-156.47C42.61,-152.52 32.88,-146.54 26.88,-137.5 18.53,-124.93 26.93,-108.59 35.51,-97.05"/>
<polygon fill="#9a32cd" stroke="#9a32cd" points="51.51,-159.77 62.1,-159.54 53.67,-153.11 51.51,-159.77"/>
</a>
</g>
<text text-anchor="middle" x="46.75" y="-128" font-family="Helvetica,sans-Serif" font-size="10.00" fill="grey"> origin</text>
<text text-anchor="middle" x="46.75" y="-116.75" font-family="Helvetica,sans-Serif" font-size="10.00" fill="grey">transform</text>
</g>
<!-- Node5 -->
<g id="Node000005" class="node">
<title>Node5</title>
<g id="a_Node000005"><a xlink:href="structs__object_1_1u__data_1_1s__plane.html" target="_top" xlink:title=" ">
<polygon fill="white" stroke="#666666" points="324.25,-97 228,-97 228,-66.5 324.25,-66.5 324.25,-97"/>
<text text-anchor="start" x="236" y="-83.5" font-family="Helvetica,sans-Serif" font-size="10.00">s_object::u_data::s</text>
<text text-anchor="middle" x="276.12" y="-72.25" font-family="Helvetica,sans-Serif" font-size="10.00">_plane</text>
</a>
</g>
</g>
<!-- Node3&#45;&gt;Node5 -->
<g id="edge5_Node000005_Node000003" class="edge">
<title>Node3&#45;&gt;Node5</title>
<g id="a_edge5_Node000005_Node000003"><a xlink:title=" ">
<path fill="none" stroke="#9a32cd" stroke-dasharray="5,2" d="M127.65,-156.53C142.33,-152.43 158.8,-146.33 172.12,-137.5 183.16,-130.19 180.78,-122.59 191.62,-115 202.43,-107.44 215.24,-101.36 227.58,-96.62"/>
<polygon fill="#9a32cd" stroke="#9a32cd" points="127.14,-153.05 118.32,-158.92 128.88,-159.83 127.14,-153.05"/>
</a>
</g>
<text text-anchor="middle" x="208.38" y="-128" font-family="Helvetica,sans-Serif" font-size="10.00" fill="grey"> origin</text>
<text text-anchor="middle" x="208.38" y="-116.75" font-family="Helvetica,sans-Serif" font-size="10.00" fill="grey">v_orient</text>
</g>
<!-- Node6 -->
<g id="Node000006" class="node">
<title>Node6</title>
<g id="a_Node000006"><a xlink:href="structs__object_1_1u__data_1_1s__cylinder.html" target="_top" xlink:title=" ">
<polygon fill="white" stroke="#666666" points="210.25,-97 114,-97 114,-66.5 210.25,-66.5 210.25,-97"/>
<text text-anchor="start" x="122" y="-83.5" font-family="Helvetica,sans-Serif" font-size="10.00">s_object::u_data::s</text>
<text text-anchor="middle" x="162.12" y="-72.25" font-family="Helvetica,sans-Serif" font-size="10.00">_cylinder</text>
</a>
</g>
</g>
<!-- Node3&#45;&gt;Node6 -->
<g id="edge8_Node000006_Node000003" class="edge">
<title>Node3&#45;&gt;Node6</title>
<g id="a_edge8_Node000006_Node000003"><a xlink:title=" ">
<path fill="none" stroke="#9a32cd" stroke-dasharray="5,2" d="M86.11,-144.05C85.3,-134.52 86.05,-123.4 91.62,-115 96.99,-106.93 104.91,-100.84 113.53,-96.27"/>
<polygon fill="#9a32cd" stroke="#9a32cd" points="82.63,-144.44 87.58,-153.81 89.55,-143.4 82.63,-144.44"/>
</a>
</g>
<text text-anchor="middle" x="108.38" y="-128" font-family="Helvetica,sans-Serif" font-size="10.00" fill="grey"> origin</text>
<text text-anchor="middle" x="108.38" y="-116.75" font-family="Helvetica,sans-Serif" font-size="10.00" fill="grey">v_orient</text>
</g>
<!-- Node4 -->
<g id="Node000004" class="node">
<title>Node4</title>
<g id="a_Node000004"><a xlink:href="structs__trgb.html" target="_top" xlink:title=" ">
<polygon fill="white" stroke="#666666" points="273.62,-174.75 230.62,-174.75 230.62,-155.5 273.62,-155.5 273.62,-174.75"/>
<text text-anchor="middle" x="252.12" y="-161.25" font-family="Helvetica,sans-Serif" font-size="10.00">s_trgb</text>
</a>
</g>
</g>
<!-- Node4&#45;&gt;Node2 -->
<g id="edge3_Node000002_Node000004" class="edge">
<title>Node4&#45;&gt;Node2</title>
<g id="a_edge3_Node000002_Node000004"><a xlink:title=" ">
<path fill="none" stroke="#9a32cd" stroke-dasharray="5,2" d="M219.15,-161.34C196.8,-158.21 167.34,-151.57 144.88,-137.5 133.84,-130.59 136.61,-122.71 126.12,-115 116.56,-107.97 105.24,-102.16 94.23,-97.5"/>
<polygon fill="#9a32cd" stroke="#9a32cd" points="218.59,-164.8 228.94,-162.53 219.43,-157.85 218.59,-164.8"/>
</a>
</g>
<text text-anchor="middle" x="155.75" y="-122.38" font-family="Helvetica,sans-Serif" font-size="10.00" fill="grey"> color</text>
</g>
<!-- Node4&#45;&gt;Node5 -->
<g id="edge6_Node000005_Node000004" class="edge">
<title>Node4&#45;&gt;Node5</title>
<g id="a_edge6_Node000005_Node000004"><a xlink:title=" ">
<path fill="none" stroke="#9a32cd" stroke-dasharray="5,2" d="M270.76,-146.9C272.95,-143.99 274.85,-140.82 276.12,-137.5 281.1,-124.55 280.4,-108.56 278.88,-97.21"/>
<polygon fill="#9a32cd" stroke="#9a32cd" points="268.35,-144.34 264.25,-154.11 273.55,-149.03 268.35,-144.34"/>
</a>
</g>
<text text-anchor="middle" x="290.75" y="-122.38" font-family="Helvetica,sans-Serif" font-size="10.00" fill="grey"> color</text>
</g>
<!-- Node4&#45;&gt;Node6 -->
<g id="edge9_Node000006_Node000004" class="edge">
<title>Node4&#45;&gt;Node6</title>
<g id="a_edge9_Node000006_Node000004"><a xlink:title=" ">
<path fill="none" stroke="#9a32cd" stroke-dasharray="5,2" d="M246.81,-144.26C243.37,-134.47 238.02,-123.07 230.12,-115 223.09,-107.81 214.13,-102.03 205.05,-97.45"/>
<polygon fill="#9a32cd" stroke="#9a32cd" points="243.4,-145.07 249.66,-153.61 250.09,-143.03 243.4,-145.07"/>
</a>
</g>
<text text-anchor="middle" x="254.75" y="-122.38" font-family="Helvetica,sans-Serif" font-size="10.00" fill="grey"> color</text>
</g>
<!-- Node5&#45;&gt;Node1 -->
<g id="edge4_Node000001_Node000005" class="edge">
<title>Node5&#45;&gt;Node1</title>
<g id="a_edge4_Node000001_Node000005"><a xlink:title=" ">
<path fill="none" stroke="#9a32cd" stroke-dasharray="5,2" d="M242.66,-60.17C220.87,-46.76 193.51,-29.93 176.94,-19.74"/>
<polygon fill="#9a32cd" stroke="#9a32cd" points="240.59,-63 250.94,-65.26 244.25,-57.04 240.59,-63"/>
</a>
</g>
<text text-anchor="middle" x="234.88" y="-39" font-family="Helvetica,sans-Serif" font-size="10.00" fill="grey"> plane</text>
</g>
<!-- Node6&#45;&gt;Node1 -->
<g id="edge7_Node000001_Node000006" class="edge">
<title>Node6&#45;&gt;Node1</title>
<g id="a_edge7_Node000001_Node000006"><a xlink:title=" ">
<path fill="none" stroke="#9a32cd" stroke-dasharray="5,2" d="M162.12,-54.98C162.12,-42.48 162.12,-28.27 162.12,-19.38"/>
<polygon fill="#9a32cd" stroke="#9a32cd" points="158.63,-54.71 162.13,-64.71 165.63,-54.71 158.63,-54.71"/>
</a>
</g>
<text text-anchor="middle" x="179.75" y="-39" font-family="Helvetica,sans-Serif" font-size="10.00" fill="grey"> cylinder</text>
</g>
</g>
</svg>
