<?xml version="1.0" encoding="UTF-8" standalone="no"?>
<!DOCTYPE svg PUBLIC "-//W3C//DTD SVG 1.1//EN"
 "http://www.w3.org/Graphics/SVG/1.1/DTD/svg11.dtd">
<!-- Generated by graphviz version 9.0.0 (20230911.1827)
 -->
<!-- Title: /github/workspace/INC/window_size.h Pages: 1 -->
<svg width="948pt" height="183pt"
 viewBox="0.00 0.00 948.25 182.75" xmlns="http://www.w3.org/2000/svg" xmlns:xlink="http://www.w3.org/1999/xlink">
<g id="graph0" class="graph" transform="scale(1 1) rotate(0) translate(4 178.75)">
<title>/github/workspace/INC/window_size.h</title>
<!-- Node1 -->
<g id="Node000001" class="node">
<title>Node1</title>
<g id="a_Node000001"><a xlink:title=" ">
<polygon fill="#999999" stroke="#666666" points="682.25,-174.75 566.5,-174.75 566.5,-144.25 682.25,-144.25 682.25,-174.75"/>
<text text-anchor="start" x="574.5" y="-161.25" font-family="Helvetica,sans-Serif" font-size="10.00">/github/workspace/INC</text>
<text text-anchor="middle" x="624.38" y="-150" font-family="Helvetica,sans-Serif" font-size="10.00">/window_size.h</text>
</a>
</g>
</g>
<!-- Node2 -->
<g id="Node000002" class="node">
<title>Node2</title>
<g id="a_Node000002"><a xlink:href="core__init_8h.html" target="_top" xlink:title=" ">
<polygon fill="white" stroke="#666666" points="392.25,-102.62 276.5,-102.62 276.5,-72.12 392.25,-72.12 392.25,-102.62"/>
<text text-anchor="start" x="284.5" y="-89.12" font-family="Helvetica,sans-Serif" font-size="10.00">/github/workspace/INC</text>
<text text-anchor="middle" x="334.38" y="-77.88" font-family="Helvetica,sans-Serif" font-size="10.00">/core_init.h</text>
</a>
</g>
</g>
<!-- Node1&#45;&gt;Node2 -->
<g id="edge1_Node000001_Node000002" class="edge">
<title>Node1&#45;&gt;Node2</title>
<g id="a_edge1_Node000001_Node000002"><a xlink:title=" ">
<path fill="none" stroke="#63b8ff" d="M555.08,-141.74C505.5,-129.75 439.49,-113.79 392.62,-102.46"/>
<polygon fill="#63b8ff" stroke="#63b8ff" points="554.02,-145.09 564.57,-144.04 555.67,-138.29 554.02,-145.09"/>
</a>
</g>
</g>
<!-- Node7 -->
<g id="Node000007" class="node">
<title>Node7</title>
<g id="a_Node000007"><a xlink:href="core__render_8h.html" target="_top" xlink:title=" ">
<polygon fill="white" stroke="#666666" points="608.25,-102.62 492.5,-102.62 492.5,-72.12 608.25,-72.12 608.25,-102.62"/>
<text text-anchor="start" x="500.5" y="-89.12" font-family="Helvetica,sans-Serif" font-size="10.00">/github/workspace/INC</text>
<text text-anchor="middle" x="550.38" y="-77.88" font-family="Helvetica,sans-Serif" font-size="10.00">/core_render.h</text>
</a>
</g>
</g>
<!-- Node1&#45;&gt;Node7 -->
<g id="edge6_Node000001_Node000007" class="edge">
<title>Node1&#45;&gt;Node7</title>
<g id="a_edge6_Node000001_Node000007"><a xlink:title=" ">
<path fill="none" stroke="#63b8ff" d="M600.74,-136.1C589.26,-125.23 575.8,-112.47 565.69,-102.89"/>
<polygon fill="#63b8ff" stroke="#63b8ff" points="598.28,-138.59 607.94,-142.93 603.09,-133.51 598.28,-138.59"/>
</a>
</g>
</g>
<!-- Node10 -->
<g id="Node000010" class="node">
<title>Node10</title>
<g id="a_Node000010"><a xlink:href="camera__create_8c.html" target="_top" xlink:title=" ">
<polygon fill="white" stroke="#666666" points="770.12,-108.25 626.62,-108.25 626.62,-66.5 770.12,-66.5 770.12,-108.25"/>
<text text-anchor="start" x="634.62" y="-94.75" font-family="Helvetica,sans-Serif" font-size="10.00">/github/workspace/SRC</text>
<text text-anchor="start" x="634.62" y="-83.5" font-family="Helvetica,sans-Serif" font-size="10.00">/OBJECTS/CAMERA/camera</text>
<text text-anchor="middle" x="698.38" y="-72.25" font-family="Helvetica,sans-Serif" font-size="10.00">_create.c</text>
</a>
</g>
</g>
<!-- Node1&#45;&gt;Node10 -->
<g id="edge10_Node000001_Node000010" class="edge">
<title>Node1&#45;&gt;Node10</title>
<g id="a_edge10_Node000001_Node000010"><a xlink:title=" ">
<path fill="none" stroke="#63b8ff" d="M647.81,-136.29C657.12,-127.47 667.77,-117.37 676.89,-108.74"/>
<polygon fill="#63b8ff" stroke="#63b8ff" points="645.66,-133.51 640.81,-142.93 650.47,-138.59 645.66,-133.51"/>
</a>
</g>
</g>
<!-- Node11 -->
<g id="Node000011" class="node">
<title>Node11</title>
<g id="a_Node000011"><a xlink:href="obj__render_8c.html" target="_top" xlink:title=" ">
<polygon fill="white" stroke="#666666" points="940.25,-102.62 788.5,-102.62 788.5,-72.12 940.25,-72.12 940.25,-102.62"/>
<text text-anchor="start" x="796.5" y="-89.12" font-family="Helvetica,sans-Serif" font-size="10.00">/github/workspace/SRC</text>
<text text-anchor="middle" x="864.38" y="-77.88" font-family="Helvetica,sans-Serif" font-size="10.00">/OBJECTS/UTILS/obj_render.c</text>
</a>
</g>
</g>
<!-- Node1&#45;&gt;Node11 -->
<g id="edge11_Node000001_Node000011" class="edge">
<title>Node1&#45;&gt;Node11</title>
<g id="a_edge11_Node000001_Node000011"><a xlink:title=" ">
<path fill="none" stroke="#63b8ff" d="M685.59,-140.61C725.41,-128.98 776.7,-113.99 814.13,-103.06"/>
<polygon fill="#63b8ff" stroke="#63b8ff" points="684.76,-137.21 676.14,-143.38 686.72,-143.93 684.76,-137.21"/>
</a>
</g>
</g>
<!-- Node3 -->
<g id="Node000003" class="node">
<title>Node3</title>
<g id="a_Node000003"><a xlink:href="init__lux_8c.html" target="_top" xlink:title=" ">
<polygon fill="white" stroke="#666666" points="118.75,-30.5 0,-30.5 0,0 118.75,0 118.75,-30.5"/>
<text text-anchor="start" x="8" y="-17" font-family="Helvetica,sans-Serif" font-size="10.00">/github/workspace/SRC</text>
<text text-anchor="middle" x="59.38" y="-5.75" font-family="Helvetica,sans-Serif" font-size="10.00">/CORE/INIT/init_lux.c</text>
</a>
</g>
</g>
<!-- Node2&#45;&gt;Node3 -->
<g id="edge2_Node000002_Node000003" class="edge">
<title>Node2&#45;&gt;Node3</title>
<g id="a_edge2_Node000002_Node000003"><a xlink:title=" ">
<path fill="none" stroke="#63b8ff" d="M265.69,-68.86C219.86,-57.17 160.29,-41.98 116.95,-30.93"/>
<polygon fill="#63b8ff" stroke="#63b8ff" points="264.7,-72.22 275.26,-71.3 266.43,-65.44 264.7,-72.22"/>
</a>
</g>
</g>
<!-- Node4 -->
<g id="Node000004" class="node">
<title>Node4</title>
<g id="a_Node000004"><a xlink:href="init__mlx_8c.html" target="_top" xlink:title=" ">
<polygon fill="white" stroke="#666666" points="255.75,-30.5 137,-30.5 137,0 255.75,0 255.75,-30.5"/>
<text text-anchor="start" x="145" y="-17" font-family="Helvetica,sans-Serif" font-size="10.00">/github/workspace/SRC</text>
<text text-anchor="middle" x="196.38" y="-5.75" font-family="Helvetica,sans-Serif" font-size="10.00">/CORE/INIT/init_mlx.c</text>
</a>
</g>
</g>
<!-- Node2&#45;&gt;Node4 -->
<g id="edge3_Node000002_Node000004" class="edge">
<title>Node2&#45;&gt;Node4</title>
<g id="a_edge3_Node000002_Node000004"><a xlink:title=" ">
<path fill="none" stroke="#63b8ff" d="M295.3,-66.52C273.02,-55.2 245.59,-41.26 225.27,-30.93"/>
<polygon fill="#63b8ff" stroke="#63b8ff" points="293.6,-69.58 304.1,-70.99 296.77,-63.34 293.6,-69.58"/>
</a>
</g>
</g>
<!-- Node5 -->
<g id="Node000005" class="node">
<title>Node5</title>
<g id="a_Node000005"><a xlink:href="init__parse_8c.html" target="_top" xlink:title=" ">
<polygon fill="white" stroke="#666666" points="394.88,-30.5 273.88,-30.5 273.88,0 394.88,0 394.88,-30.5"/>
<text text-anchor="start" x="281.88" y="-17" font-family="Helvetica,sans-Serif" font-size="10.00">/github/workspace/SRC</text>
<text text-anchor="middle" x="334.38" y="-5.75" font-family="Helvetica,sans-Serif" font-size="10.00">/CORE/INIT/init_parse.c</text>
</a>
</g>
</g>
<!-- Node2&#45;&gt;Node5 -->
<g id="edge4_Node000002_Node000005" class="edge">
<title>Node2&#45;&gt;Node5</title>
<g id="a_edge4_Node000002_Node000005"><a xlink:title=" ">
<path fill="none" stroke="#63b8ff" d="M334.38,-60.4C334.38,-50.39 334.38,-39.31 334.38,-30.76"/>
<polygon fill="#63b8ff" stroke="#63b8ff" points="330.88,-60.33 334.38,-70.33 337.88,-60.33 330.88,-60.33"/>
</a>
</g>
</g>
<!-- Node6 -->
<g id="Node000006" class="node">
<title>Node6</title>
<g id="a_Node000006"><a xlink:href="mini__ray_8c.html" target="_top" xlink:title=" ">
<polygon fill="white" stroke="#666666" points="531.75,-30.5 413,-30.5 413,0 531.75,0 531.75,-30.5"/>
<text text-anchor="start" x="421" y="-17" font-family="Helvetica,sans-Serif" font-size="10.00">/github/workspace/SRC</text>
<text text-anchor="middle" x="472.38" y="-5.75" font-family="Helvetica,sans-Serif" font-size="10.00">/mini_ray.c</text>
</a>
</g>
</g>
<!-- Node2&#45;&gt;Node6 -->
<g id="edge5_Node000002_Node000006" class="edge">
<title>Node2&#45;&gt;Node6</title>
<g id="a_edge5_Node000002_Node000006"><a xlink:title=" ">
<path fill="none" stroke="#63b8ff" d="M373.45,-66.52C395.73,-55.2 423.16,-41.26 443.48,-30.93"/>
<polygon fill="#63b8ff" stroke="#63b8ff" points="371.98,-63.34 364.65,-70.99 375.15,-69.58 371.98,-63.34"/>
</a>
</g>
</g>
<!-- Node7&#45;&gt;Node6 -->
<g id="edge9_Node000007_Node000006" class="edge">
<title>Node7&#45;&gt;Node6</title>
<g id="a_edge9_Node000007_Node000006"><a xlink:title=" ">
<path fill="none" stroke="#63b8ff" d="M525.82,-64.3C513.64,-53.35 499.28,-40.44 488.52,-30.76"/>
<polygon fill="#63b8ff" stroke="#63b8ff" points="523.31,-66.75 533.09,-70.83 527.99,-61.54 523.31,-66.75"/>
</a>
</g>
</g>
<!-- Node8 -->
<g id="Node000008" class="node">
<title>Node8</title>
<g id="a_Node000008"><a xlink:href="create__image_8c.html" target="_top" xlink:title=" ">
<polygon fill="white" stroke="#666666" points="707.25,-30.5 549.5,-30.5 549.5,0 707.25,0 707.25,-30.5"/>
<text text-anchor="start" x="557.5" y="-17" font-family="Helvetica,sans-Serif" font-size="10.00">/github/workspace/SRC</text>
<text text-anchor="middle" x="628.38" y="-5.75" font-family="Helvetica,sans-Serif" font-size="10.00">/CORE/RENDER/create_image.c</text>
</a>
</g>
</g>
<!-- Node7&#45;&gt;Node8 -->
<g id="edge7_Node000007_Node000008" class="edge">
<title>Node7&#45;&gt;Node8</title>
<g id="a_edge7_Node000007_Node000008"><a xlink:title=" ">
<path fill="none" stroke="#63b8ff" d="M574.93,-64.3C587.11,-53.35 601.47,-40.44 612.23,-30.76"/>
<polygon fill="#63b8ff" stroke="#63b8ff" points="572.76,-61.54 567.66,-70.83 577.44,-66.75 572.76,-61.54"/>
</a>
</g>
</g>
<!-- Node9 -->
<g id="Node000009" class="node">
<title>Node9</title>
<g id="a_Node000009"><a xlink:href="render_8c.html" target="_top" xlink:title=" ">
<polygon fill="white" stroke="#666666" points="851.5,-30.5 725.25,-30.5 725.25,0 851.5,0 851.5,-30.5"/>
<text text-anchor="start" x="733.25" y="-17" font-family="Helvetica,sans-Serif" font-size="10.00">/github/workspace/SRC</text>
<text text-anchor="middle" x="788.38" y="-5.75" font-family="Helvetica,sans-Serif" font-size="10.00">/CORE/RENDER/render.c</text>
</a>
</g>
</g>
<!-- Node7&#45;&gt;Node9 -->
<g id="edge8_Node000007_Node000009" class="edge">
<title>Node7&#45;&gt;Node9</title>
<g id="a_edge8_Node000007_Node000009"><a xlink:title=" ">
<path fill="none" stroke="#63b8ff" d="M610.59,-68.51C612.88,-67.83 615.15,-67.16 617.38,-66.5 658.03,-54.5 704.15,-40.95 738.23,-30.95"/>
<polygon fill="#63b8ff" stroke="#63b8ff" points="609.81,-65.08 601.22,-71.28 611.8,-71.8 609.81,-65.08"/>
</a>
</g>
</g>
</g>
</svg>
